G04*
G04 #@! TF.GenerationSoftware,Altium Limited,Altium Designer,24.10.1 (45)*
G04*
G04 Layer_Color=16711935*
%FSLAX25Y25*%
%MOIN*%
G70*
G04*
G04 #@! TF.SameCoordinates,78C3635C-7E72-4F20-96CE-E0F61CFE35CE*
G04*
G04*
G04 #@! TF.FilePolarity,Negative*
G04*
G01*
G75*
%ADD41R,0.11417X0.02559*%
%ADD60C,0.06800*%
%ADD61C,0.08800*%
%ADD62C,0.06600*%
%ADD63R,0.06706X0.06706*%
%ADD64C,0.06706*%
%ADD65C,0.03162*%
%ADD66C,0.02375*%
%ADD67C,0.02769*%
%ADD81R,0.11824X0.02965*%
D41*
X-48976Y277165D02*
D03*
Y274016D02*
D03*
Y270866D02*
D03*
Y267717D02*
D03*
Y264567D02*
D03*
Y261417D02*
D03*
Y258268D02*
D03*
Y255118D02*
D03*
Y251969D02*
D03*
Y248819D02*
D03*
Y245669D02*
D03*
Y242520D02*
D03*
Y239370D02*
D03*
Y236221D02*
D03*
Y233071D02*
D03*
Y229921D02*
D03*
Y226772D02*
D03*
Y223622D02*
D03*
Y220472D02*
D03*
Y217323D02*
D03*
Y214173D02*
D03*
Y211024D02*
D03*
Y207874D02*
D03*
Y204724D02*
D03*
Y201575D02*
D03*
Y198425D02*
D03*
Y182677D02*
D03*
Y179528D02*
D03*
Y176378D02*
D03*
Y173228D02*
D03*
Y170079D02*
D03*
Y166929D02*
D03*
Y163779D02*
D03*
Y160630D02*
D03*
Y157480D02*
D03*
Y154331D02*
D03*
Y151181D02*
D03*
Y148031D02*
D03*
Y144882D02*
D03*
Y141732D02*
D03*
Y138583D02*
D03*
Y135433D02*
D03*
Y132283D02*
D03*
Y129134D02*
D03*
Y125984D02*
D03*
Y122835D02*
D03*
Y119685D02*
D03*
Y116535D02*
D03*
Y113386D02*
D03*
D60*
X545354Y212047D02*
D03*
Y182047D02*
D03*
X515354Y202047D02*
D03*
Y212047D02*
D03*
Y182047D02*
D03*
Y192047D02*
D03*
D03*
Y182047D02*
D03*
Y212047D02*
D03*
Y202047D02*
D03*
X545354Y182047D02*
D03*
Y212047D02*
D03*
Y132047D02*
D03*
Y102047D02*
D03*
X515354Y122047D02*
D03*
Y132047D02*
D03*
Y102047D02*
D03*
Y112047D02*
D03*
X545354Y132047D02*
D03*
Y102047D02*
D03*
X515354Y122047D02*
D03*
Y132047D02*
D03*
Y102047D02*
D03*
Y112047D02*
D03*
Y72047D02*
D03*
Y62047D02*
D03*
Y92047D02*
D03*
Y82047D02*
D03*
X545354Y62047D02*
D03*
Y92047D02*
D03*
D03*
Y62047D02*
D03*
X515354Y82047D02*
D03*
Y92047D02*
D03*
Y62047D02*
D03*
Y72047D02*
D03*
Y32047D02*
D03*
Y22047D02*
D03*
Y52047D02*
D03*
Y42047D02*
D03*
X545354Y22047D02*
D03*
Y52047D02*
D03*
Y172047D02*
D03*
Y142047D02*
D03*
X515354Y162047D02*
D03*
Y172047D02*
D03*
Y142047D02*
D03*
Y152047D02*
D03*
D03*
Y142047D02*
D03*
Y172047D02*
D03*
Y162047D02*
D03*
X545354Y142047D02*
D03*
Y172047D02*
D03*
X515354Y32047D02*
D03*
Y22047D02*
D03*
Y52047D02*
D03*
Y42047D02*
D03*
X545354Y22047D02*
D03*
Y52047D02*
D03*
X515354Y272047D02*
D03*
Y262047D02*
D03*
Y292047D02*
D03*
Y282047D02*
D03*
X545354Y262047D02*
D03*
Y292047D02*
D03*
D03*
Y262047D02*
D03*
X515354Y282047D02*
D03*
Y292047D02*
D03*
Y262047D02*
D03*
Y272047D02*
D03*
Y232047D02*
D03*
Y222047D02*
D03*
Y252047D02*
D03*
Y242047D02*
D03*
X545354Y222047D02*
D03*
Y252047D02*
D03*
D03*
Y222047D02*
D03*
X515354Y242047D02*
D03*
Y252047D02*
D03*
Y222047D02*
D03*
Y232047D02*
D03*
X545354Y332047D02*
D03*
Y302047D02*
D03*
X515354Y322047D02*
D03*
Y332047D02*
D03*
Y302047D02*
D03*
Y312047D02*
D03*
Y352047D02*
D03*
Y342047D02*
D03*
Y372047D02*
D03*
Y362047D02*
D03*
X545354Y342047D02*
D03*
Y372047D02*
D03*
D03*
Y342047D02*
D03*
X515354Y362047D02*
D03*
Y372047D02*
D03*
Y342047D02*
D03*
Y352047D02*
D03*
X498819Y42047D02*
D03*
Y52047D02*
D03*
Y22047D02*
D03*
Y32047D02*
D03*
X528819Y52047D02*
D03*
Y22047D02*
D03*
Y62047D02*
D03*
Y92047D02*
D03*
X498819Y72047D02*
D03*
Y62047D02*
D03*
Y92047D02*
D03*
Y82047D02*
D03*
Y122047D02*
D03*
Y132047D02*
D03*
Y102047D02*
D03*
Y112047D02*
D03*
X528819Y132047D02*
D03*
Y102047D02*
D03*
X498819Y162047D02*
D03*
Y172047D02*
D03*
Y142047D02*
D03*
Y152047D02*
D03*
X528819Y172047D02*
D03*
Y142047D02*
D03*
X498819Y202047D02*
D03*
Y212047D02*
D03*
Y182047D02*
D03*
Y192047D02*
D03*
X528819Y212047D02*
D03*
Y182047D02*
D03*
X498819Y242047D02*
D03*
Y252047D02*
D03*
Y222047D02*
D03*
Y232047D02*
D03*
X528819Y252047D02*
D03*
Y222047D02*
D03*
X498819Y282047D02*
D03*
Y292047D02*
D03*
Y262047D02*
D03*
Y272047D02*
D03*
X528819Y292047D02*
D03*
Y262047D02*
D03*
Y302047D02*
D03*
Y332047D02*
D03*
X498819Y312047D02*
D03*
Y302047D02*
D03*
Y332047D02*
D03*
Y322047D02*
D03*
X528819Y342047D02*
D03*
Y372047D02*
D03*
X498819Y352047D02*
D03*
Y342047D02*
D03*
Y372047D02*
D03*
Y362047D02*
D03*
X528819Y22047D02*
D03*
Y52047D02*
D03*
X498819Y32047D02*
D03*
Y22047D02*
D03*
Y52047D02*
D03*
Y42047D02*
D03*
X528819Y62047D02*
D03*
Y92047D02*
D03*
X498819Y72047D02*
D03*
Y62047D02*
D03*
Y92047D02*
D03*
Y82047D02*
D03*
Y122047D02*
D03*
Y132047D02*
D03*
Y102047D02*
D03*
Y112047D02*
D03*
X528819Y132047D02*
D03*
Y102047D02*
D03*
Y142047D02*
D03*
Y172047D02*
D03*
X498819Y152047D02*
D03*
Y142047D02*
D03*
Y172047D02*
D03*
Y162047D02*
D03*
Y202047D02*
D03*
Y212047D02*
D03*
Y182047D02*
D03*
Y192047D02*
D03*
X528819Y212047D02*
D03*
Y182047D02*
D03*
X498819Y242047D02*
D03*
Y252047D02*
D03*
Y222047D02*
D03*
Y232047D02*
D03*
X528819Y252047D02*
D03*
Y222047D02*
D03*
Y262047D02*
D03*
Y292047D02*
D03*
X498819Y272047D02*
D03*
Y262047D02*
D03*
Y292047D02*
D03*
Y282047D02*
D03*
Y322047D02*
D03*
Y332047D02*
D03*
Y302047D02*
D03*
Y312047D02*
D03*
X528819Y332047D02*
D03*
Y302047D02*
D03*
X545354Y332047D02*
D03*
Y302047D02*
D03*
X515354Y322047D02*
D03*
Y332047D02*
D03*
Y302047D02*
D03*
Y312047D02*
D03*
X498819Y362047D02*
D03*
Y372047D02*
D03*
Y342047D02*
D03*
Y352047D02*
D03*
X528819Y372047D02*
D03*
Y342047D02*
D03*
D61*
X221969Y349055D02*
D03*
Y359055D02*
D03*
X231968Y349055D02*
D03*
Y359055D02*
D03*
X241968Y349055D02*
D03*
Y359055D02*
D03*
X251969Y349055D02*
D03*
Y359055D02*
D03*
X261968Y349055D02*
D03*
Y359055D02*
D03*
X271969Y349055D02*
D03*
Y359055D02*
D03*
X281968Y349055D02*
D03*
Y359055D02*
D03*
X291968Y349055D02*
D03*
Y359055D02*
D03*
X301969Y349055D02*
D03*
Y359055D02*
D03*
X311968Y349055D02*
D03*
Y359055D02*
D03*
X321969Y349055D02*
D03*
Y359055D02*
D03*
X331968Y349055D02*
D03*
Y359055D02*
D03*
D62*
X21036Y244278D02*
D03*
X11036D02*
D03*
X21036Y254278D02*
D03*
X11036D02*
D03*
X85063Y353000D02*
D03*
X95063D02*
D03*
X85063Y343000D02*
D03*
X95063D02*
D03*
D63*
X92900Y68400D02*
D03*
X175000Y181500D02*
D03*
D64*
X102900Y68400D02*
D03*
X92900Y58400D02*
D03*
X102900D02*
D03*
X92900Y48400D02*
D03*
X102900D02*
D03*
X92900Y38400D02*
D03*
X102900D02*
D03*
X92900Y28400D02*
D03*
X102900D02*
D03*
X185000Y181500D02*
D03*
X175000Y171500D02*
D03*
X185000D02*
D03*
X175000Y161500D02*
D03*
X185000D02*
D03*
X175000Y151500D02*
D03*
X185000D02*
D03*
X175000Y141500D02*
D03*
X185000D02*
D03*
X175000Y131500D02*
D03*
X185000D02*
D03*
X175000Y121500D02*
D03*
X185000D02*
D03*
X175000Y111500D02*
D03*
X185000D02*
D03*
X175000Y101500D02*
D03*
X185000D02*
D03*
D65*
X33465Y184252D02*
D03*
Y192126D02*
D03*
Y151969D02*
D03*
Y220472D02*
D03*
X-36614Y261417D02*
D03*
X1969Y126378D02*
D03*
X-15748Y139764D02*
D03*
X-21654D02*
D03*
X-27559Y142520D02*
D03*
Y148031D02*
D03*
X-35433Y122047D02*
D03*
D66*
X1969Y107874D02*
D03*
D67*
X45276Y121260D02*
D03*
Y136221D02*
D03*
Y128740D02*
D03*
X56637Y117490D02*
D03*
X74016Y139764D02*
D03*
X45276Y143701D02*
D03*
D81*
X-48976Y280315D02*
D03*
M02*
