G04*
G04 #@! TF.GenerationSoftware,Altium Limited,Altium Designer,24.10.1 (45)*
G04*
G04 Layer_Color=8421504*
%FSLAX25Y25*%
%MOIN*%
G70*
G04*
G04 #@! TF.SameCoordinates,78C3635C-7E72-4F20-96CE-E0F61CFE35CE*
G04*
G04*
G04 #@! TF.FilePolarity,Positive*
G04*
G01*
G75*
%ADD24R,0.03937X0.03543*%
%ADD25R,0.05512X0.03937*%
%ADD26R,0.03150X0.03150*%
%ADD27O,0.03347X0.01575*%
%ADD28R,0.03543X0.02756*%
G04:AMPARAMS|DCode=29|XSize=23.62mil|YSize=57.09mil|CornerRadius=2.01mil|HoleSize=0mil|Usage=FLASHONLY|Rotation=90.000|XOffset=0mil|YOffset=0mil|HoleType=Round|Shape=RoundedRectangle|*
%AMROUNDEDRECTD29*
21,1,0.02362,0.05307,0,0,90.0*
21,1,0.01961,0.05709,0,0,90.0*
1,1,0.00402,0.02653,0.00980*
1,1,0.00402,0.02653,-0.00980*
1,1,0.00402,-0.02653,-0.00980*
1,1,0.00402,-0.02653,0.00980*
%
%ADD29ROUNDEDRECTD29*%
G04:AMPARAMS|DCode=30|XSize=19.68mil|YSize=35.43mil|CornerRadius=3.25mil|HoleSize=0mil|Usage=FLASHONLY|Rotation=180.000|XOffset=0mil|YOffset=0mil|HoleType=Round|Shape=RoundedRectangle|*
%AMROUNDEDRECTD30*
21,1,0.01968,0.02894,0,0,180.0*
21,1,0.01319,0.03543,0,0,180.0*
1,1,0.00650,-0.00659,0.01447*
1,1,0.00650,0.00659,0.01447*
1,1,0.00650,0.00659,-0.01447*
1,1,0.00650,-0.00659,-0.01447*
%
%ADD30ROUNDEDRECTD30*%
%ADD31R,0.03200X0.04000*%
%ADD32R,0.03347X0.03740*%
%ADD33R,0.02756X0.03543*%
%ADD34R,0.09055X0.16929*%
%ADD35R,0.07165X0.04764*%
%ADD36R,0.35236X0.35827*%
%ADD37R,0.03740X0.15551*%
%ADD38R,0.11811X0.13780*%
G04:AMPARAMS|DCode=39|XSize=23.62mil|YSize=68.9mil|CornerRadius=5.91mil|HoleSize=0mil|Usage=FLASHONLY|Rotation=90.000|XOffset=0mil|YOffset=0mil|HoleType=Round|Shape=RoundedRectangle|*
%AMROUNDEDRECTD39*
21,1,0.02362,0.05709,0,0,90.0*
21,1,0.01181,0.06890,0,0,90.0*
1,1,0.01181,0.02854,0.00591*
1,1,0.01181,0.02854,-0.00591*
1,1,0.01181,-0.02854,-0.00591*
1,1,0.01181,-0.02854,0.00591*
%
%ADD39ROUNDEDRECTD39*%
%ADD40R,0.15748X0.13780*%
G36*
X94501Y128728D02*
X93601D01*
X91601Y130728D01*
X93601Y132728D01*
X94501D01*
Y128728D01*
D02*
G37*
G36*
X90401Y130728D02*
X92401Y128728D01*
X89501D01*
Y130728D01*
Y132728D01*
X92401D01*
X90401Y130728D01*
D02*
G37*
D24*
X481102Y370571D02*
D03*
Y364272D02*
D03*
X481496Y29528D02*
D03*
Y23228D02*
D03*
Y41339D02*
D03*
Y47638D02*
D03*
Y70768D02*
D03*
Y64468D02*
D03*
Y81890D02*
D03*
Y88189D02*
D03*
Y106398D02*
D03*
Y112697D02*
D03*
X481429Y129756D02*
D03*
Y123457D02*
D03*
X481102Y146063D02*
D03*
Y152362D02*
D03*
Y171260D02*
D03*
Y164961D02*
D03*
Y194587D02*
D03*
Y188287D02*
D03*
Y211417D02*
D03*
Y205118D02*
D03*
Y232283D02*
D03*
Y225984D02*
D03*
X481047Y250535D02*
D03*
Y244236D02*
D03*
X481102Y271752D02*
D03*
Y265453D02*
D03*
X480949Y291480D02*
D03*
Y285181D02*
D03*
X481102Y306791D02*
D03*
Y313090D02*
D03*
Y324508D02*
D03*
Y330807D02*
D03*
X481398Y345965D02*
D03*
Y352264D02*
D03*
X475591Y364272D02*
D03*
Y370571D02*
D03*
X475984Y23228D02*
D03*
Y29528D02*
D03*
Y47638D02*
D03*
Y41339D02*
D03*
Y64468D02*
D03*
Y70768D02*
D03*
Y88189D02*
D03*
Y81890D02*
D03*
Y106398D02*
D03*
Y112697D02*
D03*
X475917Y129756D02*
D03*
Y123457D02*
D03*
X475591Y146063D02*
D03*
Y152362D02*
D03*
Y164961D02*
D03*
Y171260D02*
D03*
Y188287D02*
D03*
Y194587D02*
D03*
Y211417D02*
D03*
Y205118D02*
D03*
Y225984D02*
D03*
Y232283D02*
D03*
X475535Y250535D02*
D03*
Y244236D02*
D03*
X475591Y265453D02*
D03*
Y271752D02*
D03*
X475437Y291480D02*
D03*
Y285181D02*
D03*
X475591Y313090D02*
D03*
Y306791D02*
D03*
Y330807D02*
D03*
Y324508D02*
D03*
X475886Y345965D02*
D03*
Y352264D02*
D03*
X462205Y364272D02*
D03*
Y370571D02*
D03*
X462598Y29528D02*
D03*
Y23228D02*
D03*
Y47638D02*
D03*
Y41339D02*
D03*
Y70768D02*
D03*
Y64468D02*
D03*
Y88189D02*
D03*
Y81890D02*
D03*
Y112697D02*
D03*
Y106398D02*
D03*
X462532Y129756D02*
D03*
Y123457D02*
D03*
X462205Y152362D02*
D03*
Y146063D02*
D03*
Y164961D02*
D03*
Y171260D02*
D03*
Y194587D02*
D03*
Y188287D02*
D03*
Y211417D02*
D03*
Y205118D02*
D03*
Y232283D02*
D03*
Y225984D02*
D03*
X462150Y250535D02*
D03*
Y244236D02*
D03*
X462205Y271752D02*
D03*
Y265453D02*
D03*
X462051Y291480D02*
D03*
Y285181D02*
D03*
X462205Y313090D02*
D03*
Y306791D02*
D03*
Y330807D02*
D03*
Y324508D02*
D03*
X462500Y352264D02*
D03*
Y345965D02*
D03*
X456693Y23228D02*
D03*
Y29528D02*
D03*
X456299Y364272D02*
D03*
Y370571D02*
D03*
X456693Y47638D02*
D03*
Y41339D02*
D03*
Y64468D02*
D03*
Y70768D02*
D03*
Y88189D02*
D03*
Y81890D02*
D03*
Y112697D02*
D03*
Y106398D02*
D03*
X456626Y123457D02*
D03*
Y129756D02*
D03*
X456299Y152362D02*
D03*
Y146063D02*
D03*
Y164961D02*
D03*
Y171260D02*
D03*
Y188287D02*
D03*
Y194587D02*
D03*
Y205118D02*
D03*
Y211417D02*
D03*
Y225984D02*
D03*
Y232283D02*
D03*
X456244Y244236D02*
D03*
Y250535D02*
D03*
X456299Y265453D02*
D03*
Y271752D02*
D03*
X456146Y291480D02*
D03*
Y285181D02*
D03*
X456299Y306791D02*
D03*
Y313090D02*
D03*
Y330807D02*
D03*
Y324508D02*
D03*
X456595Y352264D02*
D03*
Y345965D02*
D03*
X450394Y23228D02*
D03*
Y29528D02*
D03*
X450000Y370571D02*
D03*
Y364272D02*
D03*
X450394Y41339D02*
D03*
Y47638D02*
D03*
Y64468D02*
D03*
Y70768D02*
D03*
Y88189D02*
D03*
Y81890D02*
D03*
Y112697D02*
D03*
Y106398D02*
D03*
X450327Y123457D02*
D03*
Y129756D02*
D03*
X450000Y152362D02*
D03*
Y146063D02*
D03*
Y164961D02*
D03*
Y171260D02*
D03*
Y188287D02*
D03*
Y194587D02*
D03*
Y205118D02*
D03*
Y211417D02*
D03*
Y225984D02*
D03*
Y232283D02*
D03*
X449945Y244236D02*
D03*
Y250535D02*
D03*
X450000Y265453D02*
D03*
Y271752D02*
D03*
X449847Y291480D02*
D03*
Y285181D02*
D03*
X450000Y313090D02*
D03*
Y306791D02*
D03*
Y330807D02*
D03*
Y324508D02*
D03*
X450295Y345965D02*
D03*
Y352264D02*
D03*
X421654Y29528D02*
D03*
Y23228D02*
D03*
X421260Y364272D02*
D03*
Y370571D02*
D03*
X421654Y41339D02*
D03*
Y47638D02*
D03*
Y70768D02*
D03*
Y64468D02*
D03*
Y81890D02*
D03*
Y88189D02*
D03*
Y106398D02*
D03*
Y112697D02*
D03*
X421587Y129756D02*
D03*
Y123457D02*
D03*
X421260Y146063D02*
D03*
Y152362D02*
D03*
Y171260D02*
D03*
Y164961D02*
D03*
Y194587D02*
D03*
Y188287D02*
D03*
Y211417D02*
D03*
Y205118D02*
D03*
Y232283D02*
D03*
Y225984D02*
D03*
X421205Y250535D02*
D03*
Y244236D02*
D03*
X421260Y271752D02*
D03*
Y265453D02*
D03*
X421106Y291480D02*
D03*
Y285181D02*
D03*
X421260Y306791D02*
D03*
Y313090D02*
D03*
Y330807D02*
D03*
Y324508D02*
D03*
X421555Y352264D02*
D03*
Y345965D02*
D03*
X416142Y23228D02*
D03*
Y29528D02*
D03*
X415748Y370571D02*
D03*
Y364272D02*
D03*
X416142Y41339D02*
D03*
Y47638D02*
D03*
Y64468D02*
D03*
Y70768D02*
D03*
Y81890D02*
D03*
Y88189D02*
D03*
Y106398D02*
D03*
Y112697D02*
D03*
X416075Y123457D02*
D03*
Y129756D02*
D03*
X415748Y146063D02*
D03*
Y152362D02*
D03*
Y171260D02*
D03*
Y164961D02*
D03*
Y188287D02*
D03*
Y194587D02*
D03*
Y205118D02*
D03*
Y211417D02*
D03*
Y225984D02*
D03*
Y232283D02*
D03*
X415693Y244236D02*
D03*
Y250535D02*
D03*
X415748Y265453D02*
D03*
Y271752D02*
D03*
X415594Y285181D02*
D03*
Y291480D02*
D03*
X415748Y313090D02*
D03*
Y306791D02*
D03*
Y324508D02*
D03*
Y330807D02*
D03*
X416043Y345965D02*
D03*
Y352264D02*
D03*
X396886Y23221D02*
D03*
Y29520D02*
D03*
X396492Y370563D02*
D03*
Y364264D02*
D03*
X396886Y41331D02*
D03*
Y47630D02*
D03*
Y64461D02*
D03*
Y70760D02*
D03*
Y88181D02*
D03*
Y81882D02*
D03*
Y112689D02*
D03*
Y106390D02*
D03*
X396823Y123449D02*
D03*
Y129748D02*
D03*
X396492Y152354D02*
D03*
Y146055D02*
D03*
Y164953D02*
D03*
Y171252D02*
D03*
X396496Y188279D02*
D03*
Y194579D02*
D03*
X396492Y205110D02*
D03*
Y211409D02*
D03*
Y225976D02*
D03*
Y232276D02*
D03*
X396441Y244228D02*
D03*
Y250528D02*
D03*
X396492Y271744D02*
D03*
Y265445D02*
D03*
X396339Y285173D02*
D03*
Y291472D02*
D03*
X396496Y313083D02*
D03*
Y306784D02*
D03*
X396492Y324500D02*
D03*
Y330799D02*
D03*
X396787Y345957D02*
D03*
Y352256D02*
D03*
X391374Y29520D02*
D03*
Y23221D02*
D03*
Y47630D02*
D03*
Y41331D02*
D03*
Y70760D02*
D03*
Y64461D02*
D03*
Y88181D02*
D03*
Y81882D02*
D03*
Y112689D02*
D03*
Y106390D02*
D03*
X391311Y129748D02*
D03*
Y123449D02*
D03*
X390980Y146055D02*
D03*
Y152354D02*
D03*
Y164953D02*
D03*
Y171252D02*
D03*
X390984Y194579D02*
D03*
Y188279D02*
D03*
X390980Y211409D02*
D03*
Y205110D02*
D03*
Y232276D02*
D03*
Y225976D02*
D03*
X390929Y250528D02*
D03*
Y244228D02*
D03*
X390980Y271744D02*
D03*
Y265445D02*
D03*
X390827Y291472D02*
D03*
Y285173D02*
D03*
X390984Y306784D02*
D03*
Y313083D02*
D03*
X390980Y330799D02*
D03*
Y324500D02*
D03*
X391280Y352256D02*
D03*
Y345957D02*
D03*
X390980Y364264D02*
D03*
Y370563D02*
D03*
X370472Y29528D02*
D03*
Y23228D02*
D03*
X370079Y364272D02*
D03*
Y370571D02*
D03*
X370472Y47638D02*
D03*
Y41339D02*
D03*
Y70768D02*
D03*
Y64468D02*
D03*
Y88189D02*
D03*
Y81890D02*
D03*
Y112697D02*
D03*
Y106398D02*
D03*
X370406Y129756D02*
D03*
Y123457D02*
D03*
X370079Y152362D02*
D03*
Y146063D02*
D03*
Y164961D02*
D03*
Y171260D02*
D03*
Y194587D02*
D03*
Y188287D02*
D03*
Y211417D02*
D03*
Y205118D02*
D03*
Y232283D02*
D03*
Y225984D02*
D03*
X370024Y250535D02*
D03*
Y244236D02*
D03*
X370079Y271752D02*
D03*
Y265453D02*
D03*
X369925Y291480D02*
D03*
Y285181D02*
D03*
X370079Y306791D02*
D03*
Y313090D02*
D03*
Y330807D02*
D03*
Y324508D02*
D03*
X370374Y352264D02*
D03*
Y345965D02*
D03*
X363779Y23228D02*
D03*
Y29528D02*
D03*
X363386Y370571D02*
D03*
Y364272D02*
D03*
X363779Y41339D02*
D03*
Y47638D02*
D03*
Y64468D02*
D03*
Y70768D02*
D03*
Y88189D02*
D03*
Y81890D02*
D03*
Y112697D02*
D03*
Y106398D02*
D03*
X363713Y123457D02*
D03*
Y129756D02*
D03*
X363386Y152362D02*
D03*
Y146063D02*
D03*
Y164961D02*
D03*
Y171260D02*
D03*
Y188287D02*
D03*
Y194587D02*
D03*
Y205118D02*
D03*
Y211417D02*
D03*
Y225984D02*
D03*
Y232283D02*
D03*
X363331Y244236D02*
D03*
Y250535D02*
D03*
X363386Y265453D02*
D03*
Y271752D02*
D03*
X363232Y291480D02*
D03*
Y285181D02*
D03*
X363386Y313090D02*
D03*
Y306791D02*
D03*
Y324508D02*
D03*
Y330807D02*
D03*
X363681Y352264D02*
D03*
Y345965D02*
D03*
X47000Y346850D02*
D03*
Y353150D02*
D03*
X22500Y352650D02*
D03*
Y346350D02*
D03*
X172500Y337650D02*
D03*
Y331350D02*
D03*
Y344850D02*
D03*
Y351150D02*
D03*
X69500Y271650D02*
D03*
Y265350D02*
D03*
D25*
X469291Y30020D02*
D03*
Y22736D02*
D03*
X468898Y371063D02*
D03*
Y363779D02*
D03*
X469291Y40846D02*
D03*
Y48130D02*
D03*
Y71260D02*
D03*
Y63976D02*
D03*
Y88681D02*
D03*
Y81398D02*
D03*
Y105905D02*
D03*
Y113189D02*
D03*
X469224Y122965D02*
D03*
Y130248D02*
D03*
X468898Y145571D02*
D03*
Y152854D02*
D03*
Y164469D02*
D03*
Y171752D02*
D03*
Y195079D02*
D03*
Y187795D02*
D03*
Y204626D02*
D03*
Y211910D02*
D03*
Y232776D02*
D03*
Y225492D02*
D03*
X468843Y243744D02*
D03*
Y251028D02*
D03*
X468898Y272244D02*
D03*
Y264961D02*
D03*
X468744Y291972D02*
D03*
Y284689D02*
D03*
X468898Y306299D02*
D03*
Y313583D02*
D03*
Y331299D02*
D03*
Y324016D02*
D03*
X469193Y345472D02*
D03*
Y352756D02*
D03*
X403583Y29618D02*
D03*
Y22335D02*
D03*
X403189Y363378D02*
D03*
Y370661D02*
D03*
X403583Y40445D02*
D03*
Y47728D02*
D03*
Y70858D02*
D03*
Y63575D02*
D03*
Y80996D02*
D03*
Y88279D02*
D03*
Y105504D02*
D03*
Y112787D02*
D03*
X403516Y122563D02*
D03*
Y129847D02*
D03*
X403189Y145169D02*
D03*
Y152453D02*
D03*
Y171350D02*
D03*
Y164067D02*
D03*
Y194677D02*
D03*
Y187394D02*
D03*
Y204224D02*
D03*
Y211508D02*
D03*
Y232374D02*
D03*
Y225091D02*
D03*
X403134Y250626D02*
D03*
Y243342D02*
D03*
X403189Y271843D02*
D03*
Y264559D02*
D03*
X403031Y284287D02*
D03*
Y291571D02*
D03*
X403189Y305898D02*
D03*
Y313181D02*
D03*
Y330898D02*
D03*
Y323614D02*
D03*
X403484Y345071D02*
D03*
Y352354D02*
D03*
D26*
X443701Y29528D02*
D03*
Y23228D02*
D03*
X443307Y364272D02*
D03*
Y370571D02*
D03*
X443701Y41339D02*
D03*
Y47638D02*
D03*
Y70768D02*
D03*
Y64468D02*
D03*
Y81890D02*
D03*
Y88189D02*
D03*
Y106398D02*
D03*
Y112697D02*
D03*
X443634Y129756D02*
D03*
Y123457D02*
D03*
X443307Y146063D02*
D03*
Y152362D02*
D03*
Y171260D02*
D03*
Y164961D02*
D03*
Y194587D02*
D03*
Y188287D02*
D03*
Y211417D02*
D03*
Y205118D02*
D03*
Y232283D02*
D03*
Y225984D02*
D03*
X443252Y250535D02*
D03*
Y244236D02*
D03*
X443307Y271752D02*
D03*
Y265453D02*
D03*
X443153Y291480D02*
D03*
Y285181D02*
D03*
X443307Y313090D02*
D03*
Y306791D02*
D03*
Y330807D02*
D03*
Y324508D02*
D03*
X443602Y345965D02*
D03*
Y352264D02*
D03*
X357874Y29528D02*
D03*
Y23228D02*
D03*
X357480Y364272D02*
D03*
Y370571D02*
D03*
X357874Y41339D02*
D03*
Y47638D02*
D03*
Y70768D02*
D03*
Y64468D02*
D03*
Y81890D02*
D03*
Y88189D02*
D03*
Y106398D02*
D03*
Y112697D02*
D03*
X357807Y129756D02*
D03*
Y123457D02*
D03*
X357480Y146063D02*
D03*
Y152362D02*
D03*
Y171260D02*
D03*
Y164961D02*
D03*
Y194587D02*
D03*
Y188287D02*
D03*
Y205118D02*
D03*
Y211417D02*
D03*
Y232283D02*
D03*
Y225984D02*
D03*
X357425Y250535D02*
D03*
Y244236D02*
D03*
X357480Y271752D02*
D03*
Y265453D02*
D03*
X357327Y285181D02*
D03*
Y291480D02*
D03*
X357480Y306791D02*
D03*
Y313090D02*
D03*
Y324508D02*
D03*
Y330807D02*
D03*
X357776Y352264D02*
D03*
Y345965D02*
D03*
X47000Y376799D02*
D03*
Y370500D02*
D03*
X22500Y376150D02*
D03*
Y369850D02*
D03*
D27*
X436713Y24409D02*
D03*
Y26969D02*
D03*
Y29528D02*
D03*
X427854Y24409D02*
D03*
Y26969D02*
D03*
Y29528D02*
D03*
X436319Y365453D02*
D03*
Y368012D02*
D03*
Y370571D02*
D03*
X427461Y365453D02*
D03*
Y368012D02*
D03*
Y370571D02*
D03*
X436713Y42520D02*
D03*
Y45079D02*
D03*
Y47638D02*
D03*
X427854Y42520D02*
D03*
Y45079D02*
D03*
Y47638D02*
D03*
Y70768D02*
D03*
Y68209D02*
D03*
Y65650D02*
D03*
X436713Y70768D02*
D03*
Y68209D02*
D03*
Y65650D02*
D03*
X427854Y88189D02*
D03*
Y85630D02*
D03*
Y83071D02*
D03*
X436713Y88189D02*
D03*
Y85630D02*
D03*
Y83071D02*
D03*
Y107579D02*
D03*
Y110138D02*
D03*
Y112697D02*
D03*
X427854Y107579D02*
D03*
Y110138D02*
D03*
Y112697D02*
D03*
X427787Y129756D02*
D03*
Y127197D02*
D03*
Y124638D02*
D03*
X436646Y129756D02*
D03*
Y127197D02*
D03*
Y124638D02*
D03*
X436319Y147244D02*
D03*
Y149803D02*
D03*
Y152362D02*
D03*
X427461Y147244D02*
D03*
Y149803D02*
D03*
Y152362D02*
D03*
X436319Y166142D02*
D03*
Y168701D02*
D03*
Y171260D02*
D03*
X427461Y166142D02*
D03*
Y168701D02*
D03*
Y171260D02*
D03*
X436319Y189469D02*
D03*
Y192028D02*
D03*
Y194587D02*
D03*
X427461Y189469D02*
D03*
Y192028D02*
D03*
Y194587D02*
D03*
Y211417D02*
D03*
Y208858D02*
D03*
Y206299D02*
D03*
X436319Y211417D02*
D03*
Y208858D02*
D03*
Y206299D02*
D03*
Y227165D02*
D03*
Y229724D02*
D03*
Y232283D02*
D03*
X427461Y227165D02*
D03*
Y229724D02*
D03*
Y232283D02*
D03*
X427406Y250535D02*
D03*
Y247976D02*
D03*
Y245417D02*
D03*
X436264Y250535D02*
D03*
Y247976D02*
D03*
Y245417D02*
D03*
X436319Y266634D02*
D03*
Y269193D02*
D03*
Y271752D02*
D03*
X427461Y266634D02*
D03*
Y269193D02*
D03*
Y271752D02*
D03*
X427307Y291480D02*
D03*
Y288921D02*
D03*
Y286362D02*
D03*
X436165Y291480D02*
D03*
Y288921D02*
D03*
Y286362D02*
D03*
X436319Y307972D02*
D03*
Y310531D02*
D03*
Y313091D02*
D03*
X427461Y307972D02*
D03*
Y310531D02*
D03*
Y313091D02*
D03*
Y330807D02*
D03*
Y328248D02*
D03*
Y325689D02*
D03*
X436319Y330807D02*
D03*
Y328248D02*
D03*
Y325689D02*
D03*
X436614Y347146D02*
D03*
Y349705D02*
D03*
Y352264D02*
D03*
X427756Y347146D02*
D03*
Y349705D02*
D03*
Y352264D02*
D03*
X375890Y370563D02*
D03*
Y368004D02*
D03*
Y365445D02*
D03*
X384748Y370563D02*
D03*
Y368004D02*
D03*
Y365445D02*
D03*
X376284Y29520D02*
D03*
Y26961D02*
D03*
Y24402D02*
D03*
X385142Y29520D02*
D03*
Y26961D02*
D03*
Y24402D02*
D03*
Y42512D02*
D03*
Y45071D02*
D03*
Y47630D02*
D03*
X376284Y42512D02*
D03*
Y45071D02*
D03*
Y47630D02*
D03*
X385142Y65642D02*
D03*
Y68201D02*
D03*
Y70760D02*
D03*
X376284Y65642D02*
D03*
Y68201D02*
D03*
Y70760D02*
D03*
Y88181D02*
D03*
Y85622D02*
D03*
Y83063D02*
D03*
X385142Y88181D02*
D03*
Y85622D02*
D03*
Y83063D02*
D03*
Y107571D02*
D03*
Y110130D02*
D03*
Y112689D02*
D03*
X376284Y107571D02*
D03*
Y110130D02*
D03*
Y112689D02*
D03*
X376220Y129748D02*
D03*
Y127189D02*
D03*
Y124630D02*
D03*
X385079Y129748D02*
D03*
Y127189D02*
D03*
Y124630D02*
D03*
X384748Y147236D02*
D03*
Y149795D02*
D03*
Y152354D02*
D03*
X375890Y147236D02*
D03*
Y149795D02*
D03*
Y152354D02*
D03*
X384748Y166134D02*
D03*
Y168693D02*
D03*
Y171252D02*
D03*
X375890Y166134D02*
D03*
Y168693D02*
D03*
Y171252D02*
D03*
X384748Y189461D02*
D03*
Y192020D02*
D03*
Y194579D02*
D03*
X375890Y189461D02*
D03*
Y192020D02*
D03*
Y194579D02*
D03*
Y211409D02*
D03*
Y208850D02*
D03*
Y206291D02*
D03*
X384748Y211409D02*
D03*
Y208850D02*
D03*
Y206291D02*
D03*
Y227157D02*
D03*
Y229716D02*
D03*
Y232276D02*
D03*
X375890Y227157D02*
D03*
Y229716D02*
D03*
Y232276D02*
D03*
X375835Y250528D02*
D03*
Y247969D02*
D03*
Y245409D02*
D03*
X384693Y250528D02*
D03*
Y247969D02*
D03*
Y245409D02*
D03*
X384748Y266626D02*
D03*
Y269185D02*
D03*
Y271744D02*
D03*
X375890Y266626D02*
D03*
Y269185D02*
D03*
Y271744D02*
D03*
X384594Y286354D02*
D03*
Y288913D02*
D03*
Y291472D02*
D03*
X375736Y286354D02*
D03*
Y288913D02*
D03*
Y291472D02*
D03*
X375890Y313083D02*
D03*
Y310524D02*
D03*
Y307965D02*
D03*
X384748Y313083D02*
D03*
Y310524D02*
D03*
Y307965D02*
D03*
Y325681D02*
D03*
Y328240D02*
D03*
Y330799D02*
D03*
X375890Y325681D02*
D03*
Y328240D02*
D03*
Y330799D02*
D03*
X376185Y352256D02*
D03*
Y349697D02*
D03*
Y347138D02*
D03*
X385043Y352256D02*
D03*
Y349697D02*
D03*
Y347138D02*
D03*
D28*
X410630Y28740D02*
D03*
Y23228D02*
D03*
X410236Y364272D02*
D03*
Y369783D02*
D03*
X410630Y41339D02*
D03*
Y46850D02*
D03*
Y69980D02*
D03*
Y64468D02*
D03*
Y81890D02*
D03*
Y87402D02*
D03*
Y106398D02*
D03*
Y111909D02*
D03*
X410563Y128969D02*
D03*
Y123457D02*
D03*
X410236Y146063D02*
D03*
Y151575D02*
D03*
Y170472D02*
D03*
Y164961D02*
D03*
Y193799D02*
D03*
Y188287D02*
D03*
Y205118D02*
D03*
Y210630D02*
D03*
Y231496D02*
D03*
Y225984D02*
D03*
X410181Y249748D02*
D03*
Y244236D02*
D03*
X410236Y265453D02*
D03*
Y270965D02*
D03*
X410083Y290693D02*
D03*
Y285181D02*
D03*
X410236Y312303D02*
D03*
Y306791D02*
D03*
Y324508D02*
D03*
Y330020D02*
D03*
X410532Y345965D02*
D03*
Y351476D02*
D03*
X163500Y350256D02*
D03*
Y344744D02*
D03*
X59500Y289744D02*
D03*
Y295256D02*
D03*
X103500Y285756D02*
D03*
Y280244D02*
D03*
D29*
X60925Y133878D02*
D03*
Y128878D02*
D03*
Y123878D02*
D03*
Y118878D02*
D03*
X82382Y133878D02*
D03*
Y128878D02*
D03*
Y123878D02*
D03*
Y118878D02*
D03*
D30*
X-3032Y107874D02*
D03*
X-8779D02*
D03*
D31*
X95501Y130728D02*
D03*
X88751D02*
D03*
D32*
X89567Y124756D02*
D03*
X94685D02*
D03*
X89567Y118732D02*
D03*
X94685D02*
D03*
X53740Y136012D02*
D03*
X48622D02*
D03*
X53740Y128728D02*
D03*
X48622D02*
D03*
X53740Y121606D02*
D03*
X48622D02*
D03*
D33*
X77165Y139752D02*
D03*
X82677D02*
D03*
X83256Y303000D02*
D03*
X77744D02*
D03*
D34*
X194882Y322244D02*
D03*
Y294882D02*
D03*
X38500Y303681D02*
D03*
Y276319D02*
D03*
D35*
X13500Y281791D02*
D03*
Y293209D02*
D03*
X183465Y355709D02*
D03*
Y344291D02*
D03*
X193307D02*
D03*
Y355709D02*
D03*
D36*
X133563Y296567D02*
D03*
D37*
X143563Y257000D02*
D03*
X123563D02*
D03*
D38*
X80500Y288000D02*
D03*
D39*
X91327Y280500D02*
D03*
Y285500D02*
D03*
Y290500D02*
D03*
Y295500D02*
D03*
X69673Y280500D02*
D03*
Y285500D02*
D03*
Y290500D02*
D03*
Y295500D02*
D03*
D40*
X133563Y360701D02*
D03*
Y323299D02*
D03*
M02*
