G04*
G04 #@! TF.GenerationSoftware,Altium Limited,Altium Designer,24.10.1 (45)*
G04*
G04 Layer_Physical_Order=2*
G04 Layer_Color=16711680*
%FSLAX25Y25*%
%MOIN*%
G70*
G04*
G04 #@! TF.SameCoordinates,78C3635C-7E72-4F20-96CE-E0F61CFE35CE*
G04*
G04*
G04 #@! TF.FilePolarity,Positive*
G04*
G01*
G75*
%ADD16C,0.01000*%
%ADD17C,0.00787*%
%ADD69R,0.11024X0.02165*%
%ADD71C,0.02000*%
%ADD72C,0.06000*%
%ADD73C,0.08000*%
%ADD74R,0.05906X0.05906*%
%ADD75C,0.05906*%
%ADD76C,0.02362*%
%ADD77C,0.01772*%
%ADD78C,0.01575*%
%ADD79C,0.01968*%
%ADD80C,0.03150*%
G36*
X538189Y2039D02*
X11811Y2039D01*
X11170Y2039D01*
X9900Y2206D01*
X8663Y2538D01*
X7480Y3028D01*
X6370Y3669D01*
X5354Y4448D01*
X4448Y5354D01*
X3669Y6370D01*
X3028Y7480D01*
X2538Y8663D01*
X2206Y9900D01*
X2039Y11171D01*
X2039Y11811D01*
X2039Y99508D01*
X1884Y100288D01*
X1442Y100950D01*
X780Y101392D01*
X-0Y101547D01*
X-23858Y101547D01*
X-23908Y101537D01*
X-23958Y101544D01*
X-24344Y101525D01*
X-24491Y101489D01*
X-24642D01*
X-25399Y101338D01*
X-25585Y101261D01*
X-25782Y101222D01*
X-26495Y100927D01*
X-26662Y100815D01*
X-26847Y100738D01*
X-27489Y100310D01*
X-27631Y100168D01*
X-27798Y100056D01*
X-28343Y99510D01*
X-28455Y99343D01*
X-28597Y99201D01*
X-29026Y98560D01*
X-29103Y98374D01*
X-29214Y98207D01*
X-29510Y97494D01*
X-29549Y97297D01*
X-29626Y97111D01*
X-29776Y96355D01*
Y96203D01*
X-29813Y96057D01*
X-29832Y95671D01*
X-29825Y95621D01*
X-29834Y95571D01*
X-29835Y93673D01*
X-32763D01*
X-32764Y105414D01*
X-32774Y105464D01*
X-32766Y105514D01*
X-32785Y105900D01*
X-32822Y106046D01*
Y106197D01*
X-32972Y106954D01*
X-33049Y107140D01*
X-33088Y107337D01*
X-33384Y108050D01*
X-33495Y108217D01*
X-33572Y108402D01*
X-34001Y109044D01*
X-34143Y109186D01*
X-34255Y109353D01*
X-34800Y109899D01*
X-34967Y110010D01*
X-35109Y110152D01*
X-35751Y110581D01*
X-35936Y110658D01*
X-36103Y110769D01*
X-36816Y111065D01*
X-37013Y111104D01*
X-37199Y111181D01*
X-37956Y111331D01*
X-38107D01*
X-38254Y111368D01*
X-38640Y111387D01*
X-38690Y111380D01*
X-38740Y111390D01*
X-42756D01*
X-42965Y111803D01*
Y112331D01*
X-34156D01*
X-33766Y112408D01*
X-33435Y112629D01*
X-32672Y113392D01*
X-32138Y113286D01*
X-31482Y113416D01*
X-30926Y113788D01*
X-30554Y114344D01*
X-30424Y115000D01*
X-30554Y115656D01*
X-30926Y116212D01*
X-31482Y116584D01*
X-32138Y116714D01*
X-32793Y116584D01*
X-33349Y116212D01*
X-33721Y115656D01*
X-33828Y115120D01*
X-34578Y114370D01*
X-42965D01*
Y115785D01*
X-48976D01*
Y117285D01*
X-42965D01*
Y118102D01*
Y121252D01*
Y124402D01*
Y128079D01*
X-42387D01*
X-41827Y127519D01*
X-41947Y126917D01*
X-41817Y126261D01*
X-41445Y125705D01*
X-40889Y125334D01*
X-40233Y125203D01*
X-39577Y125334D01*
X-39021Y125705D01*
X-38649Y126261D01*
X-38519Y126917D01*
X-38649Y127573D01*
X-39021Y128129D01*
X-39577Y128501D01*
X-40012Y128587D01*
X-41244Y129819D01*
X-41574Y130040D01*
X-41965Y130118D01*
X-42965D01*
Y131534D01*
X-48976D01*
Y133034D01*
X-42965D01*
Y134378D01*
X-40655D01*
X-39721Y133443D01*
X-39766Y133217D01*
X-39636Y132561D01*
X-39264Y132004D01*
X-38708Y131633D01*
X-38052Y131502D01*
X-37396Y131633D01*
X-36840Y132004D01*
X-36468Y132561D01*
X-36338Y133217D01*
X-36468Y133872D01*
X-36840Y134429D01*
X-37396Y134800D01*
X-38052Y134931D01*
X-38279Y134885D01*
X-39512Y136119D01*
X-39843Y136340D01*
X-40233Y136417D01*
X-42965D01*
Y137528D01*
X-40536D01*
X-40146Y137605D01*
X-39815Y137826D01*
X-38818Y138823D01*
X-38591Y138778D01*
X-37935Y138908D01*
X-37379Y139280D01*
X-37008Y139836D01*
X-36877Y140492D01*
X-37008Y141148D01*
X-37379Y141704D01*
X-37935Y142076D01*
X-38591Y142206D01*
X-39247Y142076D01*
X-39803Y141704D01*
X-40175Y141148D01*
X-40305Y140492D01*
X-40260Y140265D01*
X-40958Y139567D01*
X-42965D01*
Y140982D01*
X-48976D01*
Y142482D01*
X-42965D01*
Y143971D01*
X-37385D01*
X-32685Y139270D01*
X-32389Y139073D01*
X-32040Y139003D01*
X-23167D01*
X-22865Y138552D01*
X-22309Y138180D01*
X-21654Y138050D01*
X-20998Y138180D01*
X-20441Y138552D01*
X-20070Y139108D01*
X-19940Y139764D01*
X-20070Y140420D01*
X-20441Y140976D01*
X-20998Y141347D01*
X-21654Y141478D01*
X-22309Y141347D01*
X-22865Y140976D01*
X-22966Y140826D01*
X-26169D01*
X-26314Y141219D01*
X-26335Y141326D01*
X-25975Y141864D01*
X-25845Y142520D01*
X-25975Y143176D01*
X-26347Y143732D01*
X-26539Y143860D01*
Y146691D01*
X-26347Y146819D01*
X-25975Y147376D01*
X-25845Y148031D01*
X-25975Y148687D01*
X-26347Y149243D01*
X-26903Y149615D01*
X-27559Y149746D01*
X-28215Y149615D01*
X-28771Y149243D01*
X-29143Y148687D01*
X-29273Y148031D01*
X-29143Y147376D01*
X-28771Y146819D01*
X-28579Y146691D01*
Y143860D01*
X-28771Y143732D01*
X-29143Y143176D01*
X-29273Y142520D01*
X-29143Y141864D01*
X-28783Y141326D01*
X-28804Y141219D01*
X-28950Y140826D01*
X-30790D01*
X-30942Y141326D01*
X-30538Y141595D01*
X-30167Y142151D01*
X-30037Y142807D01*
X-30167Y143463D01*
X-30538Y144019D01*
X-31095Y144391D01*
X-31751Y144521D01*
X-31977Y144476D01*
X-36254Y148752D01*
X-36585Y148974D01*
X-36975Y149051D01*
X-42965D01*
Y150431D01*
X-48976D01*
Y151931D01*
X-42965D01*
Y153276D01*
X-16899D01*
X-16721Y153098D01*
X-16390Y152877D01*
X-16000Y152799D01*
X-13597D01*
X-13206Y152877D01*
X-12876Y153098D01*
X17055Y183029D01*
X17493Y183273D01*
X18049Y182902D01*
X18705Y182771D01*
X19361Y182902D01*
X19917Y183273D01*
X20289Y183829D01*
X20419Y184485D01*
X20289Y185141D01*
X19917Y185697D01*
X19361Y186069D01*
X18874Y186166D01*
X18441Y186554D01*
X18311Y187210D01*
X17939Y187766D01*
X17383Y188137D01*
X16727Y188268D01*
X16071Y188137D01*
X15515Y187766D01*
X15144Y187210D01*
X15029Y186635D01*
X-13992Y157613D01*
X-14500Y157714D01*
X-15156Y157584D01*
X-15712Y157212D01*
X-16084Y156656D01*
X-16214Y156000D01*
X-16167Y155763D01*
X-16325Y155534D01*
X-16588Y155315D01*
X-42965D01*
Y156730D01*
X-48976D01*
Y158230D01*
X-42965D01*
Y159575D01*
X-23095D01*
X-22618Y159098D01*
X-22287Y158877D01*
X-21897Y158799D01*
X-19417D01*
X-19027Y158877D01*
X-18696Y159098D01*
X11146Y188940D01*
X11929D01*
X11953Y188905D01*
X12508Y188533D01*
X13164Y188403D01*
X13820Y188533D01*
X14377Y188905D01*
X14748Y189461D01*
X14878Y190117D01*
X14748Y190773D01*
X14377Y191329D01*
X13820Y191700D01*
X13164Y191831D01*
X12855Y192141D01*
X12724Y192797D01*
X12353Y193353D01*
X11796Y193724D01*
X11141Y193855D01*
X10485Y193724D01*
X9929Y193353D01*
X9557Y192797D01*
X9448Y192247D01*
X-19343Y163456D01*
X-19782Y163212D01*
X-20338Y163584D01*
X-20994Y163714D01*
X-21650Y163584D01*
X-22206Y163212D01*
X-22577Y162656D01*
X-22708Y162000D01*
X-23141Y161614D01*
X-42965D01*
Y163030D01*
X-48976D01*
Y164530D01*
X-42965D01*
Y165874D01*
X-29135D01*
X-28358Y165098D01*
X-28028Y164877D01*
X-27637Y164799D01*
X-25363D01*
X-24973Y164877D01*
X-24642Y165098D01*
X5200Y194940D01*
X5712Y195054D01*
X6268Y194683D01*
X6924Y194552D01*
X7580Y194683D01*
X8136Y195054D01*
X8508Y195610D01*
X8638Y196266D01*
X8508Y196922D01*
X8136Y197478D01*
X7580Y197850D01*
X7134Y197938D01*
X6746Y198356D01*
X6703Y198446D01*
X6584Y199046D01*
X6212Y199602D01*
X5656Y199973D01*
X5000Y200104D01*
X4344Y199973D01*
X3788Y199602D01*
X3416Y199046D01*
X3286Y198390D01*
X3331Y198163D01*
X-25581Y169251D01*
X-26078Y169584D01*
X-26734Y169714D01*
X-27390Y169584D01*
X-27946Y169212D01*
X-28318Y168656D01*
X-28448Y168000D01*
X-28936Y167913D01*
X-42965D01*
Y169329D01*
X-48976D01*
Y170829D01*
X-42965D01*
Y172173D01*
X-34972D01*
X-34156Y171358D01*
X-33825Y171137D01*
X-33435Y171059D01*
X-31023D01*
X-30632Y171137D01*
X-30302Y171358D01*
X-1140Y200520D01*
X14D01*
X366Y200590D01*
X625Y200417D01*
X1281Y200286D01*
X1937Y200417D01*
X2493Y200788D01*
X2864Y201344D01*
X2995Y202000D01*
X2864Y202656D01*
X2493Y203212D01*
X1937Y203584D01*
X1281Y203714D01*
X1141Y203687D01*
X715Y204112D01*
X743Y204252D01*
X613Y204908D01*
X241Y205464D01*
X-315Y205836D01*
X-971Y205966D01*
X-1627Y205836D01*
X-2183Y205464D01*
X-2554Y204908D01*
X-2685Y204252D01*
X-2640Y204025D01*
X-31176Y175488D01*
X-31708Y175844D01*
X-32364Y175974D01*
X-33020Y175844D01*
X-33576Y175472D01*
X-33948Y174916D01*
X-34015Y174577D01*
X-34120Y174256D01*
X-34559Y174212D01*
X-42965D01*
Y175628D01*
X-48976D01*
Y177128D01*
X-42965D01*
Y178473D01*
X-39546D01*
X-38778Y177704D01*
X-38447Y177483D01*
X-38247Y177444D01*
X-38236Y177436D01*
X-37846Y177358D01*
X-37846Y177358D01*
X-34350D01*
X-33960Y177436D01*
X-33629Y177657D01*
X-5181Y206106D01*
X-4656Y205755D01*
X-4000Y205625D01*
X-3344Y205755D01*
X-2788Y206127D01*
X-2416Y206683D01*
X-2286Y207339D01*
X-2416Y207995D01*
X-2788Y208551D01*
X-3344Y208922D01*
X-3814Y209016D01*
X-4242Y209428D01*
X-4373Y210084D01*
X-4744Y210640D01*
X-5300Y211012D01*
X-5956Y211142D01*
X-6612Y211012D01*
X-7168Y210640D01*
X-7540Y210084D01*
X-7670Y209428D01*
X-7540Y208772D01*
X-7532Y208760D01*
X-34683Y181608D01*
X-35621D01*
X-35730Y181771D01*
X-36286Y182143D01*
X-36942Y182273D01*
X-37598Y182143D01*
X-38154Y181771D01*
X-38526Y181215D01*
X-38593Y180877D01*
X-38695Y180555D01*
X-39137Y180512D01*
X-42965D01*
Y181927D01*
X-48976D01*
Y183427D01*
X-42965D01*
Y183788D01*
X-37953D01*
X-37886Y183801D01*
X-37819Y183792D01*
X-37203Y183832D01*
X-37009Y183884D01*
X-36808Y183898D01*
X-35617Y184217D01*
X-35378Y184335D01*
X-35125Y184421D01*
X-34057Y185037D01*
X-33856Y185213D01*
X-33635Y185361D01*
X-32763Y186233D01*
X-32614Y186455D01*
X-32439Y186656D01*
X-31822Y187724D01*
X-31736Y187976D01*
X-31618Y188215D01*
X-31299Y189407D01*
X-31282Y189673D01*
X-31230Y189935D01*
X-31230Y191168D01*
X-31282Y191429D01*
X-31299Y191696D01*
X-31618Y192887D01*
X-31736Y193126D01*
X-31822Y193379D01*
X-32439Y194447D01*
X-32615Y194647D01*
X-32763Y194869D01*
X-33635Y195741D01*
X-33857Y195889D01*
X-34057Y196065D01*
X-35125Y196682D01*
X-35378Y196768D01*
X-35617Y196886D01*
X-35494Y197370D01*
X-27595D01*
X-27205Y197448D01*
X-26874Y197669D01*
X-11806Y212737D01*
X-11475Y212516D01*
X-10819Y212386D01*
X-10163Y212516D01*
X-9607Y212888D01*
X-9235Y213444D01*
X-9105Y214100D01*
X-9235Y214756D01*
X-9607Y215312D01*
X-9728Y215393D01*
Y215994D01*
X-9607Y216075D01*
X-9235Y216632D01*
X-9105Y217287D01*
X-9235Y217943D01*
X-9607Y218499D01*
X-10163Y218871D01*
X-10819Y219002D01*
X-11475Y218871D01*
X-12031Y218499D01*
X-12403Y217943D01*
X-12533Y217287D01*
X-12488Y217060D01*
X-28501Y201048D01*
X-38265D01*
X-38326Y201140D01*
X-38882Y201511D01*
X-39538Y201642D01*
X-40194Y201511D01*
X-40750Y201140D01*
X-41122Y200584D01*
X-41252Y199928D01*
X-41232Y199824D01*
X-41659Y199409D01*
X-42965D01*
Y200825D01*
X-48976D01*
Y202325D01*
X-42965D01*
Y203705D01*
X-41472D01*
X-41388Y203621D01*
X-41058Y203400D01*
X-40667Y203322D01*
X-39091D01*
X-38963Y203130D01*
X-38407Y202758D01*
X-37751Y202628D01*
X-37095Y202758D01*
X-36539Y203130D01*
X-36167Y203686D01*
X-36037Y204342D01*
X-36167Y204998D01*
X-36539Y205554D01*
X-37095Y205925D01*
X-37751Y206056D01*
X-38407Y205925D01*
X-38963Y205554D01*
X-39091Y205362D01*
X-40245D01*
X-40329Y205445D01*
X-40660Y205666D01*
X-41050Y205744D01*
X-42965D01*
Y207124D01*
X-48976D01*
Y208624D01*
X-42965D01*
Y209992D01*
X-38907D01*
X-38770Y209788D01*
X-38214Y209416D01*
X-37558Y209286D01*
X-36902Y209416D01*
X-36346Y209788D01*
X-35975Y210344D01*
X-35844Y211000D01*
X-35975Y211656D01*
X-36346Y212212D01*
X-36902Y212584D01*
X-37558Y212714D01*
X-38214Y212584D01*
X-38770Y212212D01*
X-38891Y212031D01*
X-42965D01*
Y213423D01*
X-48976D01*
Y214923D01*
X-42965D01*
Y216285D01*
X-38910D01*
X-38770Y216075D01*
X-38214Y215704D01*
X-37558Y215573D01*
X-36902Y215704D01*
X-36346Y216075D01*
X-35975Y216632D01*
X-35844Y217287D01*
X-35975Y217943D01*
X-36346Y218499D01*
X-36902Y218871D01*
X-37558Y219002D01*
X-38214Y218871D01*
X-38770Y218499D01*
X-38887Y218325D01*
X-42965D01*
Y219722D01*
X-48976D01*
Y221222D01*
X-42965D01*
Y222603D01*
X-37824D01*
X-37102Y221881D01*
X-37147Y221654D01*
X-37017Y220998D01*
X-36645Y220442D01*
X-36089Y220070D01*
X-35433Y219939D01*
X-34777Y220070D01*
X-34221Y220442D01*
X-33849Y220998D01*
X-33719Y221654D01*
X-33849Y222309D01*
X-34221Y222866D01*
X-34777Y223237D01*
X-35433Y223368D01*
X-35660Y223322D01*
X-36681Y224343D01*
X-37011Y224564D01*
X-37402Y224642D01*
X-42965D01*
Y226022D01*
X-48976D01*
Y227522D01*
X-42965D01*
Y228866D01*
X-38405D01*
X-38276Y228674D01*
X-37721Y228302D01*
X-37064Y228172D01*
X-36409Y228302D01*
X-35853Y228674D01*
X-35481Y229230D01*
X-35350Y229886D01*
X-35481Y230542D01*
X-35853Y231098D01*
X-36409Y231469D01*
X-37064Y231600D01*
X-37721Y231469D01*
X-38276Y231098D01*
X-38405Y230905D01*
X-42965D01*
Y232321D01*
X-48976D01*
Y233821D01*
X-42965D01*
Y235165D01*
X-38405D01*
X-38276Y234973D01*
X-37721Y234601D01*
X-37064Y234471D01*
X-36409Y234601D01*
X-35853Y234973D01*
X-35481Y235529D01*
X-35350Y236185D01*
X-35481Y236841D01*
X-35853Y237397D01*
X-36409Y237769D01*
X-37064Y237899D01*
X-37721Y237769D01*
X-38276Y237397D01*
X-38405Y237205D01*
X-42965D01*
Y238620D01*
X-48976D01*
Y240120D01*
X-42965D01*
Y241465D01*
X-38405D01*
X-38276Y241272D01*
X-37721Y240901D01*
X-37064Y240770D01*
X-36409Y240901D01*
X-35853Y241272D01*
X-35481Y241828D01*
X-35350Y242484D01*
X-35481Y243140D01*
X-35853Y243696D01*
X-36409Y244068D01*
X-37064Y244198D01*
X-37721Y244068D01*
X-38276Y243696D01*
X-38405Y243504D01*
X-42965D01*
Y244919D01*
X-48976D01*
Y246419D01*
X-42965D01*
Y247764D01*
X-38405D01*
X-38276Y247571D01*
X-37721Y247200D01*
X-37064Y247069D01*
X-36409Y247200D01*
X-35853Y247571D01*
X-35481Y248128D01*
X-35350Y248783D01*
X-35481Y249439D01*
X-35853Y249995D01*
X-36409Y250367D01*
X-37064Y250497D01*
X-37721Y250367D01*
X-38276Y249995D01*
X-38405Y249803D01*
X-42965D01*
Y251219D01*
X-48976D01*
Y252718D01*
X-42965D01*
Y254063D01*
X-38255D01*
X-38072Y253788D01*
X-37515Y253416D01*
X-36860Y253286D01*
X-36204Y253416D01*
X-35647Y253788D01*
X-35276Y254344D01*
X-35146Y255000D01*
X-35276Y255656D01*
X-35647Y256212D01*
X-36204Y256584D01*
X-36860Y256714D01*
X-37515Y256584D01*
X-38072Y256212D01*
X-38145Y256102D01*
X-42965D01*
Y257518D01*
X-48976D01*
Y259018D01*
X-42965D01*
Y260398D01*
X-37955D01*
X-37826Y260205D01*
X-37270Y259834D01*
X-36614Y259703D01*
X-35958Y259834D01*
X-35402Y260205D01*
X-35031Y260761D01*
X-34900Y261417D01*
X-35031Y262073D01*
X-35402Y262629D01*
X-35958Y263001D01*
X-36614Y263131D01*
X-37270Y263001D01*
X-37826Y262629D01*
X-37955Y262437D01*
X-42965D01*
Y263817D01*
X-48976D01*
Y265317D01*
X-42965D01*
Y266134D01*
Y269284D01*
Y270116D01*
X-48976D01*
Y271616D01*
X-42965D01*
Y272451D01*
X-42207D01*
X-42156Y272416D01*
X-41500Y272286D01*
X-40844Y272416D01*
X-40288Y272788D01*
X-40250Y272845D01*
X-39750D01*
X-39712Y272788D01*
X-39156Y272416D01*
X-38500Y272286D01*
X-37844Y272416D01*
X-37288Y272788D01*
X-36916Y273344D01*
X-36786Y274000D01*
X-36916Y274656D01*
X-37288Y275212D01*
X-37844Y275584D01*
X-38500Y275714D01*
X-39156Y275584D01*
X-39712Y275212D01*
X-39750Y275155D01*
X-40250D01*
X-40288Y275212D01*
X-40844Y275584D01*
X-41500Y275714D01*
X-42156Y275584D01*
X-42267Y275510D01*
X-42965D01*
Y276415D01*
X-48976D01*
Y277915D01*
X-42965D01*
Y278732D01*
Y279565D01*
X-48976D01*
Y281065D01*
X-42965D01*
Y281898D01*
X-42756Y282311D01*
X-38739D01*
X-38689Y282321D01*
X-38639Y282314D01*
X-38253Y282333D01*
X-38107Y282369D01*
X-37955Y282369D01*
X-37198Y282520D01*
X-37013Y282597D01*
X-36816Y282636D01*
X-36103Y282931D01*
X-35936Y283043D01*
X-35750Y283120D01*
X-35109Y283549D01*
X-34967Y283691D01*
X-34800Y283802D01*
X-34254Y284348D01*
X-34143Y284515D01*
X-34001Y284657D01*
X-33572Y285299D01*
X-33495Y285484D01*
X-33383Y285651D01*
X-33088Y286364D01*
X-33049Y286561D01*
X-32972Y286747D01*
X-32822Y287504D01*
X-32822Y287655D01*
X-32785Y287802D01*
X-32766Y288188D01*
X-32773Y288238D01*
X-32763Y288287D01*
X-32763Y300028D01*
X-29834Y300028D01*
X-29834Y298130D01*
X-29825Y298080D01*
X-29832Y298030D01*
X-29813Y297644D01*
X-29776Y297497D01*
Y297346D01*
X-29626Y296589D01*
X-29549Y296404D01*
X-29510Y296207D01*
X-29214Y295494D01*
X-29103Y295327D01*
X-29026Y295141D01*
X-28597Y294499D01*
X-28455Y294357D01*
X-28343Y294190D01*
X-27798Y293645D01*
X-27631Y293533D01*
X-27489Y293391D01*
X-26847Y292962D01*
X-26662Y292885D01*
X-26495Y292774D01*
X-25782Y292478D01*
X-25585Y292439D01*
X-25399Y292362D01*
X-24642Y292212D01*
X-24491D01*
X-24344Y292175D01*
X-23958Y292156D01*
X-23908Y292164D01*
X-23858Y292154D01*
X-0D01*
X780Y292309D01*
X1442Y292751D01*
X1884Y293413D01*
X2039Y294193D01*
X2039Y381890D01*
X2039Y382530D01*
X2206Y383800D01*
X2538Y385038D01*
X3028Y386221D01*
X3669Y387330D01*
X4448Y388347D01*
X5354Y389252D01*
X6370Y390032D01*
X7480Y390673D01*
X8663Y391163D01*
X9900Y391494D01*
X11170Y391662D01*
X538189D01*
Y2039D01*
D02*
G37*
%LPC*%
G36*
X449311Y377850D02*
X448770Y377742D01*
X448312Y377436D01*
X448006Y376978D01*
X447923Y376565D01*
X447557Y376198D01*
X432248D01*
X431820Y376484D01*
X431280Y376592D01*
X430739Y376484D01*
X430280Y376178D01*
X429974Y375719D01*
X429867Y375179D01*
X429974Y374638D01*
X430280Y374180D01*
X430739Y373873D01*
X431280Y373766D01*
X431820Y373873D01*
X432248Y374159D01*
X447979D01*
X448370Y374237D01*
X448701Y374458D01*
X449274Y375031D01*
X449311Y375024D01*
X449852Y375132D01*
X450310Y375438D01*
X450616Y375896D01*
X450724Y376437D01*
X450616Y376978D01*
X450310Y377436D01*
X449852Y377742D01*
X449311Y377850D01*
D02*
G37*
G36*
X528819Y375577D02*
X527905Y375457D01*
X527054Y375104D01*
X526323Y374543D01*
X525762Y373812D01*
X525409Y372961D01*
X525289Y372047D01*
X525409Y371134D01*
X525762Y370282D01*
X526323Y369551D01*
X527054Y368990D01*
X527905Y368637D01*
X528819Y368517D01*
X529733Y368637D01*
X530584Y368990D01*
X531315Y369551D01*
X531876Y370282D01*
X532229Y371134D01*
X532349Y372047D01*
X532229Y372961D01*
X531876Y373812D01*
X531315Y374543D01*
X530584Y375104D01*
X529733Y375457D01*
X528819Y375577D01*
D02*
G37*
G36*
X399315Y375009D02*
X398774Y374902D01*
X398316Y374595D01*
X398009Y374137D01*
X397902Y373596D01*
X397932Y373446D01*
X397889Y373404D01*
X397668Y373073D01*
X397591Y372682D01*
Y368382D01*
X397305Y367954D01*
X397197Y367413D01*
X397305Y366873D01*
X397611Y366414D01*
X398070Y366108D01*
X398610Y366000D01*
X399151Y366108D01*
X399609Y366414D01*
X399916Y366873D01*
X400023Y367413D01*
X399916Y367954D01*
X399630Y368382D01*
Y372246D01*
X399856Y372291D01*
X400314Y372597D01*
X400620Y373055D01*
X400728Y373596D01*
X400620Y374137D01*
X400314Y374595D01*
X399856Y374902D01*
X399315Y375009D01*
D02*
G37*
G36*
X515354Y375577D02*
X514441Y375457D01*
X513589Y375104D01*
X512858Y374543D01*
X512297Y373812D01*
X511944Y372961D01*
X511824Y372047D01*
X511944Y371134D01*
X512297Y370282D01*
X512858Y369551D01*
X513589Y368990D01*
X514441Y368637D01*
X515354Y368517D01*
X516268Y368637D01*
X517058Y368965D01*
X519059Y366964D01*
Y363556D01*
X518559Y363456D01*
X518412Y363812D01*
X517851Y364544D01*
X517119Y365105D01*
X516268Y365457D01*
X515354Y365577D01*
X514441Y365457D01*
X513589Y365105D01*
X512858Y364544D01*
X512297Y363812D01*
X511944Y362961D01*
X511824Y362047D01*
X511944Y361134D01*
X512297Y360282D01*
X512858Y359551D01*
X513589Y358990D01*
X514441Y358637D01*
X515354Y358517D01*
X516268Y358637D01*
X517119Y358990D01*
X517851Y359551D01*
X518412Y360282D01*
X518559Y360638D01*
X519059Y360539D01*
Y353555D01*
X518559Y353456D01*
X518412Y353812D01*
X517851Y354543D01*
X517119Y355104D01*
X516268Y355457D01*
X515354Y355577D01*
X514441Y355457D01*
X513589Y355104D01*
X512858Y354543D01*
X512297Y353812D01*
X511944Y352961D01*
X511824Y352047D01*
X511944Y351134D01*
X512297Y350282D01*
X512858Y349551D01*
X513589Y348990D01*
X514441Y348637D01*
X515354Y348517D01*
X516268Y348637D01*
X517119Y348990D01*
X517851Y349551D01*
X518412Y350282D01*
X518559Y350638D01*
X519059Y350539D01*
Y347139D01*
X517053Y345132D01*
X516268Y345457D01*
X515354Y345577D01*
X514441Y345457D01*
X513589Y345105D01*
X512858Y344544D01*
X512297Y343812D01*
X511944Y342961D01*
X511824Y342047D01*
X511944Y341134D01*
X512297Y340282D01*
X512858Y339551D01*
X513589Y338990D01*
X514441Y338637D01*
X515354Y338517D01*
X516268Y338637D01*
X517119Y338990D01*
X517851Y339551D01*
X518412Y340282D01*
X518764Y341134D01*
X518885Y342047D01*
X518764Y342961D01*
X518472Y343668D01*
X520800Y345996D01*
X521021Y346326D01*
X521098Y346716D01*
Y367386D01*
X521021Y367776D01*
X520800Y368107D01*
X518474Y370433D01*
X518764Y371134D01*
X518885Y372047D01*
X518764Y372961D01*
X518412Y373812D01*
X517851Y374543D01*
X517119Y375104D01*
X516268Y375457D01*
X515354Y375577D01*
D02*
G37*
G36*
X332718Y363495D02*
Y359805D01*
X336409D01*
X336353Y360230D01*
X335899Y361325D01*
X335178Y362265D01*
X334238Y362986D01*
X333143Y363439D01*
X332718Y363495D01*
D02*
G37*
G36*
X331219D02*
X330794Y363439D01*
X329699Y362986D01*
X328759Y362265D01*
X328038Y361325D01*
X327584Y360230D01*
X327528Y359805D01*
X331219D01*
Y363495D01*
D02*
G37*
G36*
X322719D02*
Y359805D01*
X326409D01*
X326353Y360230D01*
X325899Y361325D01*
X325178Y362265D01*
X324238Y362986D01*
X323143Y363439D01*
X322719Y363495D01*
D02*
G37*
G36*
X321218D02*
X320794Y363439D01*
X319699Y362986D01*
X318759Y362265D01*
X318038Y361325D01*
X317584Y360230D01*
X317528Y359805D01*
X321218D01*
Y363495D01*
D02*
G37*
G36*
X312719D02*
Y359805D01*
X316409D01*
X316353Y360230D01*
X315899Y361325D01*
X315178Y362265D01*
X314238Y362986D01*
X313143Y363439D01*
X312719Y363495D01*
D02*
G37*
G36*
X311219D02*
X310794Y363439D01*
X309699Y362986D01*
X308759Y362265D01*
X308038Y361325D01*
X307584Y360230D01*
X307528Y359805D01*
X311219D01*
Y363495D01*
D02*
G37*
G36*
X302718D02*
Y359805D01*
X306409D01*
X306353Y360230D01*
X305899Y361325D01*
X305178Y362265D01*
X304238Y362986D01*
X303143Y363439D01*
X302718Y363495D01*
D02*
G37*
G36*
X301219D02*
X300794Y363439D01*
X299699Y362986D01*
X298759Y362265D01*
X298038Y361325D01*
X297584Y360230D01*
X297528Y359805D01*
X301219D01*
Y363495D01*
D02*
G37*
G36*
X292719D02*
Y359805D01*
X296409D01*
X296353Y360230D01*
X295899Y361325D01*
X295178Y362265D01*
X294238Y362986D01*
X293143Y363439D01*
X292719Y363495D01*
D02*
G37*
G36*
X291218D02*
X290794Y363439D01*
X289699Y362986D01*
X288759Y362265D01*
X288038Y361325D01*
X287584Y360230D01*
X287528Y359805D01*
X291218D01*
Y363495D01*
D02*
G37*
G36*
X282718D02*
Y359805D01*
X286409D01*
X286353Y360230D01*
X285899Y361325D01*
X285178Y362265D01*
X284238Y362986D01*
X283143Y363439D01*
X282718Y363495D01*
D02*
G37*
G36*
X281219D02*
X280794Y363439D01*
X279699Y362986D01*
X278759Y362265D01*
X278038Y361325D01*
X277584Y360230D01*
X277528Y359805D01*
X281219D01*
Y363495D01*
D02*
G37*
G36*
X272719D02*
Y359805D01*
X276409D01*
X276353Y360230D01*
X275899Y361325D01*
X275178Y362265D01*
X274238Y362986D01*
X273143Y363439D01*
X272719Y363495D01*
D02*
G37*
G36*
X271218D02*
X270794Y363439D01*
X269699Y362986D01*
X268759Y362265D01*
X268038Y361325D01*
X267584Y360230D01*
X267528Y359805D01*
X271218D01*
Y363495D01*
D02*
G37*
G36*
X262719D02*
Y359805D01*
X266409D01*
X266353Y360230D01*
X265899Y361325D01*
X265178Y362265D01*
X264238Y362986D01*
X263143Y363439D01*
X262719Y363495D01*
D02*
G37*
G36*
X261219D02*
X260794Y363439D01*
X259699Y362986D01*
X258759Y362265D01*
X258038Y361325D01*
X257584Y360230D01*
X257528Y359805D01*
X261219D01*
Y363495D01*
D02*
G37*
G36*
X252718D02*
Y359805D01*
X256409D01*
X256353Y360230D01*
X255899Y361325D01*
X255178Y362265D01*
X254238Y362986D01*
X253143Y363439D01*
X252718Y363495D01*
D02*
G37*
G36*
X251219D02*
X250794Y363439D01*
X249699Y362986D01*
X248759Y362265D01*
X248038Y361325D01*
X247584Y360230D01*
X247528Y359805D01*
X251219D01*
Y363495D01*
D02*
G37*
G36*
X242719D02*
Y359805D01*
X246409D01*
X246353Y360230D01*
X245899Y361325D01*
X245178Y362265D01*
X244238Y362986D01*
X243143Y363439D01*
X242719Y363495D01*
D02*
G37*
G36*
X241218D02*
X240794Y363439D01*
X239699Y362986D01*
X238759Y362265D01*
X238038Y361325D01*
X237584Y360230D01*
X237528Y359805D01*
X241218D01*
Y363495D01*
D02*
G37*
G36*
X232718D02*
Y359805D01*
X236409D01*
X236353Y360230D01*
X235899Y361325D01*
X235178Y362265D01*
X234238Y362986D01*
X233143Y363439D01*
X232718Y363495D01*
D02*
G37*
G36*
X231219D02*
X230794Y363439D01*
X229699Y362986D01*
X228759Y362265D01*
X228038Y361325D01*
X227584Y360230D01*
X227528Y359805D01*
X231219D01*
Y363495D01*
D02*
G37*
G36*
X222719D02*
Y359805D01*
X226409D01*
X226353Y360230D01*
X225899Y361325D01*
X225178Y362265D01*
X224238Y362986D01*
X223143Y363439D01*
X222719Y363495D01*
D02*
G37*
G36*
X221218D02*
X220794Y363439D01*
X219699Y362986D01*
X218759Y362265D01*
X218038Y361325D01*
X217584Y360230D01*
X217528Y359805D01*
X221218D01*
Y363495D01*
D02*
G37*
G36*
X498819Y365577D02*
X497905Y365457D01*
X497054Y365105D01*
X496323Y364544D01*
X495762Y363812D01*
X495409Y362961D01*
X495289Y362047D01*
X495409Y361134D01*
X495762Y360282D01*
X496323Y359551D01*
X497054Y358990D01*
X497905Y358637D01*
X498819Y358517D01*
X499733Y358637D01*
X500584Y358990D01*
X501315Y359551D01*
X501876Y360282D01*
X502229Y361134D01*
X502349Y362047D01*
X502229Y362961D01*
X501876Y363812D01*
X501315Y364544D01*
X500584Y365105D01*
X499733Y365457D01*
X498819Y365577D01*
D02*
G37*
G36*
X336409Y358305D02*
X332718D01*
Y354615D01*
X333143Y354671D01*
X334238Y355124D01*
X335178Y355846D01*
X335899Y356786D01*
X336353Y357880D01*
X336409Y358305D01*
D02*
G37*
G36*
X331219D02*
X327528D01*
X327584Y357880D01*
X328038Y356786D01*
X328759Y355846D01*
X329699Y355124D01*
X330794Y354671D01*
X331219Y354615D01*
Y358305D01*
D02*
G37*
G36*
X326409D02*
X322719D01*
Y354615D01*
X323143Y354671D01*
X324238Y355124D01*
X325178Y355846D01*
X325899Y356786D01*
X326353Y357880D01*
X326409Y358305D01*
D02*
G37*
G36*
X321218D02*
X317528D01*
X317584Y357880D01*
X318038Y356786D01*
X318759Y355846D01*
X319699Y355124D01*
X320794Y354671D01*
X321218Y354615D01*
Y358305D01*
D02*
G37*
G36*
X316409D02*
X312719D01*
Y354615D01*
X313143Y354671D01*
X314238Y355124D01*
X315178Y355846D01*
X315899Y356786D01*
X316353Y357880D01*
X316409Y358305D01*
D02*
G37*
G36*
X311219D02*
X307528D01*
X307584Y357880D01*
X308038Y356786D01*
X308759Y355846D01*
X309699Y355124D01*
X310794Y354671D01*
X311219Y354615D01*
Y358305D01*
D02*
G37*
G36*
X306409D02*
X302718D01*
Y354615D01*
X303143Y354671D01*
X304238Y355124D01*
X305178Y355846D01*
X305899Y356786D01*
X306353Y357880D01*
X306409Y358305D01*
D02*
G37*
G36*
X301219D02*
X297528D01*
X297584Y357880D01*
X298038Y356786D01*
X298759Y355846D01*
X299699Y355124D01*
X300794Y354671D01*
X301219Y354615D01*
Y358305D01*
D02*
G37*
G36*
X296409D02*
X292719D01*
Y354615D01*
X293143Y354671D01*
X294238Y355124D01*
X295178Y355846D01*
X295899Y356786D01*
X296353Y357880D01*
X296409Y358305D01*
D02*
G37*
G36*
X291218D02*
X287528D01*
X287584Y357880D01*
X288038Y356786D01*
X288759Y355846D01*
X289699Y355124D01*
X290794Y354671D01*
X291218Y354615D01*
Y358305D01*
D02*
G37*
G36*
X286409D02*
X282718D01*
Y354615D01*
X283143Y354671D01*
X284238Y355124D01*
X285178Y355846D01*
X285899Y356786D01*
X286353Y357880D01*
X286409Y358305D01*
D02*
G37*
G36*
X281219D02*
X277528D01*
X277584Y357880D01*
X278038Y356786D01*
X278759Y355846D01*
X279699Y355124D01*
X280794Y354671D01*
X281219Y354615D01*
Y358305D01*
D02*
G37*
G36*
X276409D02*
X272719D01*
Y354615D01*
X273143Y354671D01*
X274238Y355124D01*
X275178Y355846D01*
X275899Y356786D01*
X276353Y357880D01*
X276409Y358305D01*
D02*
G37*
G36*
X271218D02*
X267528D01*
X267584Y357880D01*
X268038Y356786D01*
X268759Y355846D01*
X269699Y355124D01*
X270794Y354671D01*
X271218Y354615D01*
Y358305D01*
D02*
G37*
G36*
X266409D02*
X262719D01*
Y354615D01*
X263143Y354671D01*
X264238Y355124D01*
X265178Y355846D01*
X265899Y356786D01*
X266353Y357880D01*
X266409Y358305D01*
D02*
G37*
G36*
X261219D02*
X257528D01*
X257584Y357880D01*
X258038Y356786D01*
X258759Y355846D01*
X259699Y355124D01*
X260794Y354671D01*
X261219Y354615D01*
Y358305D01*
D02*
G37*
G36*
X256409D02*
X252718D01*
Y354615D01*
X253143Y354671D01*
X254238Y355124D01*
X255178Y355846D01*
X255899Y356786D01*
X256353Y357880D01*
X256409Y358305D01*
D02*
G37*
G36*
X251219D02*
X247528D01*
X247584Y357880D01*
X248038Y356786D01*
X248759Y355846D01*
X249699Y355124D01*
X250794Y354671D01*
X251219Y354615D01*
Y358305D01*
D02*
G37*
G36*
X246409D02*
X242719D01*
Y354615D01*
X243143Y354671D01*
X244238Y355124D01*
X245178Y355846D01*
X245899Y356786D01*
X246353Y357880D01*
X246409Y358305D01*
D02*
G37*
G36*
X241218D02*
X237528D01*
X237584Y357880D01*
X238038Y356786D01*
X238759Y355846D01*
X239699Y355124D01*
X240794Y354671D01*
X241218Y354615D01*
Y358305D01*
D02*
G37*
G36*
X236409D02*
X232718D01*
Y354615D01*
X233143Y354671D01*
X234238Y355124D01*
X235178Y355846D01*
X235899Y356786D01*
X236353Y357880D01*
X236409Y358305D01*
D02*
G37*
G36*
X231219D02*
X227528D01*
X227584Y357880D01*
X228038Y356786D01*
X228759Y355846D01*
X229699Y355124D01*
X230794Y354671D01*
X231219Y354615D01*
Y358305D01*
D02*
G37*
G36*
X226409D02*
X222719D01*
Y354615D01*
X223143Y354671D01*
X224238Y355124D01*
X225178Y355846D01*
X225899Y356786D01*
X226353Y357880D01*
X226409Y358305D01*
D02*
G37*
G36*
X221218D02*
X217528D01*
X217584Y357880D01*
X218038Y356786D01*
X218759Y355846D01*
X219699Y355124D01*
X220794Y354671D01*
X221218Y354615D01*
Y358305D01*
D02*
G37*
G36*
X95063Y356530D02*
X94149Y356410D01*
X93298Y356057D01*
X92567Y355496D01*
X92006Y354765D01*
X91653Y353914D01*
X91533Y353000D01*
X91653Y352086D01*
X92006Y351235D01*
X92567Y350504D01*
X93298Y349943D01*
X94149Y349590D01*
X95063Y349470D01*
X95977Y349590D01*
X96828Y349943D01*
X97559Y350504D01*
X98120Y351235D01*
X98473Y352086D01*
X98593Y353000D01*
X98473Y353914D01*
X98120Y354765D01*
X97559Y355496D01*
X96828Y356057D01*
X95977Y356410D01*
X95063Y356530D01*
D02*
G37*
G36*
X85063D02*
X84149Y356410D01*
X83298Y356057D01*
X82567Y355496D01*
X82006Y354765D01*
X81653Y353914D01*
X81533Y353000D01*
X81653Y352086D01*
X82006Y351235D01*
X82567Y350504D01*
X83298Y349943D01*
X84149Y349590D01*
X85063Y349470D01*
X85977Y349590D01*
X86828Y349943D01*
X87559Y350504D01*
X88120Y351235D01*
X88473Y352086D01*
X88593Y353000D01*
X88473Y353914D01*
X88120Y354765D01*
X87559Y355496D01*
X86828Y356057D01*
X85977Y356410D01*
X85063Y356530D01*
D02*
G37*
G36*
X498819Y355577D02*
X497905Y355457D01*
X497054Y355104D01*
X496323Y354543D01*
X495762Y353812D01*
X495409Y352961D01*
X495289Y352047D01*
X495409Y351134D01*
X495762Y350282D01*
X496323Y349551D01*
X497054Y348990D01*
X497905Y348637D01*
X498819Y348517D01*
X499733Y348637D01*
X500584Y348990D01*
X501315Y349551D01*
X501876Y350282D01*
X502229Y351134D01*
X502349Y352047D01*
X502229Y352961D01*
X501876Y353812D01*
X501315Y354543D01*
X500584Y355104D01*
X499733Y355457D01*
X498819Y355577D01*
D02*
G37*
G36*
Y375577D02*
X497905Y375457D01*
X497054Y375104D01*
X496323Y374543D01*
X495762Y373812D01*
X495409Y372961D01*
X495289Y372047D01*
X495409Y371134D01*
X495762Y370282D01*
X496323Y369551D01*
X497054Y368990D01*
X497905Y368637D01*
X498819Y368517D01*
X499733Y368637D01*
X499921Y368716D01*
X503311Y365326D01*
Y348926D01*
X499810Y345425D01*
X499733Y345457D01*
X498819Y345577D01*
X497905Y345457D01*
X497054Y345105D01*
X496323Y344544D01*
X495762Y343812D01*
X495409Y342961D01*
X495289Y342047D01*
X495409Y341134D01*
X495762Y340282D01*
X496323Y339551D01*
X497054Y338990D01*
X497905Y338637D01*
X498819Y338517D01*
X499733Y338637D01*
X500584Y338990D01*
X501315Y339551D01*
X501876Y340282D01*
X502229Y341134D01*
X502349Y342047D01*
X502229Y342961D01*
X501876Y343812D01*
X501531Y344262D01*
X505052Y347783D01*
X505273Y348114D01*
X505350Y348504D01*
Y365748D01*
X505273Y366138D01*
X505052Y366469D01*
X501599Y369921D01*
X501876Y370282D01*
X502229Y371134D01*
X502349Y372047D01*
X502229Y372961D01*
X501876Y373812D01*
X501315Y374543D01*
X500584Y375104D01*
X499733Y375457D01*
X498819Y375577D01*
D02*
G37*
G36*
X331968Y353594D02*
X330794Y353439D01*
X329699Y352986D01*
X328759Y352265D01*
X328038Y351325D01*
X327584Y350230D01*
X327430Y349055D01*
X327584Y347880D01*
X328038Y346786D01*
X328759Y345846D01*
X329699Y345124D01*
X330794Y344671D01*
X331968Y344516D01*
X333143Y344671D01*
X334238Y345124D01*
X335178Y345846D01*
X335899Y346786D01*
X336353Y347880D01*
X336507Y349055D01*
X336353Y350230D01*
X335899Y351325D01*
X335178Y352265D01*
X334238Y352986D01*
X333143Y353439D01*
X331968Y353594D01*
D02*
G37*
G36*
X321969D02*
X320794Y353439D01*
X319699Y352986D01*
X318759Y352265D01*
X318038Y351325D01*
X317584Y350230D01*
X317430Y349055D01*
X317584Y347880D01*
X318038Y346786D01*
X318759Y345846D01*
X319699Y345124D01*
X320794Y344671D01*
X321969Y344516D01*
X323143Y344671D01*
X324238Y345124D01*
X325178Y345846D01*
X325899Y346786D01*
X326353Y347880D01*
X326507Y349055D01*
X326353Y350230D01*
X325899Y351325D01*
X325178Y352265D01*
X324238Y352986D01*
X323143Y353439D01*
X321969Y353594D01*
D02*
G37*
G36*
X311968D02*
X310794Y353439D01*
X309699Y352986D01*
X308759Y352265D01*
X308038Y351325D01*
X307584Y350230D01*
X307430Y349055D01*
X307584Y347880D01*
X308038Y346786D01*
X308759Y345846D01*
X309699Y345124D01*
X310794Y344671D01*
X311968Y344516D01*
X313143Y344671D01*
X314238Y345124D01*
X315178Y345846D01*
X315899Y346786D01*
X316353Y347880D01*
X316507Y349055D01*
X316353Y350230D01*
X315899Y351325D01*
X315178Y352265D01*
X314238Y352986D01*
X313143Y353439D01*
X311968Y353594D01*
D02*
G37*
G36*
X301969D02*
X300794Y353439D01*
X299699Y352986D01*
X298759Y352265D01*
X298038Y351325D01*
X297584Y350230D01*
X297430Y349055D01*
X297584Y347880D01*
X298038Y346786D01*
X298759Y345846D01*
X299699Y345124D01*
X300794Y344671D01*
X301969Y344516D01*
X303143Y344671D01*
X304238Y345124D01*
X305178Y345846D01*
X305899Y346786D01*
X306353Y347880D01*
X306507Y349055D01*
X306353Y350230D01*
X305899Y351325D01*
X305178Y352265D01*
X304238Y352986D01*
X303143Y353439D01*
X301969Y353594D01*
D02*
G37*
G36*
X291968D02*
X290794Y353439D01*
X289699Y352986D01*
X288759Y352265D01*
X288038Y351325D01*
X287584Y350230D01*
X287430Y349055D01*
X287584Y347880D01*
X288038Y346786D01*
X288759Y345846D01*
X289699Y345124D01*
X290794Y344671D01*
X291968Y344516D01*
X293143Y344671D01*
X294238Y345124D01*
X295178Y345846D01*
X295899Y346786D01*
X296353Y347880D01*
X296507Y349055D01*
X296353Y350230D01*
X295899Y351325D01*
X295178Y352265D01*
X294238Y352986D01*
X293143Y353439D01*
X291968Y353594D01*
D02*
G37*
G36*
X281968D02*
X280794Y353439D01*
X279699Y352986D01*
X278759Y352265D01*
X278038Y351325D01*
X277584Y350230D01*
X277430Y349055D01*
X277584Y347880D01*
X278038Y346786D01*
X278759Y345846D01*
X279699Y345124D01*
X280794Y344671D01*
X281968Y344516D01*
X283143Y344671D01*
X284238Y345124D01*
X285178Y345846D01*
X285899Y346786D01*
X286353Y347880D01*
X286507Y349055D01*
X286353Y350230D01*
X285899Y351325D01*
X285178Y352265D01*
X284238Y352986D01*
X283143Y353439D01*
X281968Y353594D01*
D02*
G37*
G36*
X271969D02*
X270794Y353439D01*
X269699Y352986D01*
X268759Y352265D01*
X268038Y351325D01*
X267584Y350230D01*
X267430Y349055D01*
X267584Y347880D01*
X268038Y346786D01*
X268759Y345846D01*
X269699Y345124D01*
X270794Y344671D01*
X271969Y344516D01*
X273143Y344671D01*
X274238Y345124D01*
X275178Y345846D01*
X275899Y346786D01*
X276353Y347880D01*
X276507Y349055D01*
X276353Y350230D01*
X275899Y351325D01*
X275178Y352265D01*
X274238Y352986D01*
X273143Y353439D01*
X271969Y353594D01*
D02*
G37*
G36*
X261968D02*
X260794Y353439D01*
X259699Y352986D01*
X258759Y352265D01*
X258038Y351325D01*
X257584Y350230D01*
X257430Y349055D01*
X257584Y347880D01*
X258038Y346786D01*
X258759Y345846D01*
X259699Y345124D01*
X260794Y344671D01*
X261968Y344516D01*
X263143Y344671D01*
X264238Y345124D01*
X265178Y345846D01*
X265899Y346786D01*
X266353Y347880D01*
X266507Y349055D01*
X266353Y350230D01*
X265899Y351325D01*
X265178Y352265D01*
X264238Y352986D01*
X263143Y353439D01*
X261968Y353594D01*
D02*
G37*
G36*
X251969D02*
X250794Y353439D01*
X249699Y352986D01*
X248759Y352265D01*
X248038Y351325D01*
X247584Y350230D01*
X247430Y349055D01*
X247584Y347880D01*
X248038Y346786D01*
X248759Y345846D01*
X249699Y345124D01*
X250794Y344671D01*
X251969Y344516D01*
X253143Y344671D01*
X254238Y345124D01*
X255178Y345846D01*
X255899Y346786D01*
X256353Y347880D01*
X256507Y349055D01*
X256353Y350230D01*
X255899Y351325D01*
X255178Y352265D01*
X254238Y352986D01*
X253143Y353439D01*
X251969Y353594D01*
D02*
G37*
G36*
X241968D02*
X240794Y353439D01*
X239699Y352986D01*
X238759Y352265D01*
X238038Y351325D01*
X237584Y350230D01*
X237430Y349055D01*
X237584Y347880D01*
X238038Y346786D01*
X238759Y345846D01*
X239699Y345124D01*
X240794Y344671D01*
X241968Y344516D01*
X243143Y344671D01*
X244238Y345124D01*
X245178Y345846D01*
X245899Y346786D01*
X246353Y347880D01*
X246507Y349055D01*
X246353Y350230D01*
X245899Y351325D01*
X245178Y352265D01*
X244238Y352986D01*
X243143Y353439D01*
X241968Y353594D01*
D02*
G37*
G36*
X231968D02*
X230794Y353439D01*
X229699Y352986D01*
X228759Y352265D01*
X228038Y351325D01*
X227584Y350230D01*
X227430Y349055D01*
X227584Y347880D01*
X228038Y346786D01*
X228759Y345846D01*
X229699Y345124D01*
X230794Y344671D01*
X231968Y344516D01*
X233143Y344671D01*
X234238Y345124D01*
X235178Y345846D01*
X235899Y346786D01*
X236353Y347880D01*
X236507Y349055D01*
X236353Y350230D01*
X235899Y351325D01*
X235178Y352265D01*
X234238Y352986D01*
X233143Y353439D01*
X231968Y353594D01*
D02*
G37*
G36*
X221969D02*
X220794Y353439D01*
X219699Y352986D01*
X218759Y352265D01*
X218038Y351325D01*
X217584Y350230D01*
X217430Y349055D01*
X217584Y347880D01*
X218038Y346786D01*
X218759Y345846D01*
X219699Y345124D01*
X220794Y344671D01*
X221969Y344516D01*
X223143Y344671D01*
X224238Y345124D01*
X225178Y345846D01*
X225899Y346786D01*
X226353Y347880D01*
X226507Y349055D01*
X226353Y350230D01*
X225899Y351325D01*
X225178Y352265D01*
X224238Y352986D01*
X223143Y353439D01*
X221969Y353594D01*
D02*
G37*
G36*
X95813Y346431D02*
Y343750D01*
X98494D01*
X98473Y343914D01*
X98120Y344765D01*
X97559Y345496D01*
X96828Y346057D01*
X95977Y346410D01*
X95813Y346431D01*
D02*
G37*
G36*
X85813D02*
Y343750D01*
X88494D01*
X88473Y343914D01*
X88120Y344765D01*
X87559Y345496D01*
X86828Y346057D01*
X85977Y346410D01*
X85813Y346431D01*
D02*
G37*
G36*
X94313D02*
X94149Y346410D01*
X93298Y346057D01*
X92567Y345496D01*
X92006Y344765D01*
X91653Y343914D01*
X91632Y343750D01*
X94313D01*
Y346431D01*
D02*
G37*
G36*
X84313D02*
X84149Y346410D01*
X83298Y346057D01*
X82567Y345496D01*
X82006Y344765D01*
X81653Y343914D01*
X81631Y343750D01*
X84313D01*
Y346431D01*
D02*
G37*
G36*
X449311Y341964D02*
X448770Y341857D01*
X448343Y341571D01*
X429613D01*
X429223Y341493D01*
X428892Y341272D01*
X428394Y340774D01*
X428346Y340783D01*
X427806Y340675D01*
X427347Y340369D01*
X427041Y339911D01*
X426933Y339370D01*
X427041Y338829D01*
X427347Y338371D01*
X427806Y338065D01*
X428346Y337957D01*
X428887Y338065D01*
X429346Y338371D01*
X429652Y338829D01*
X429731Y339227D01*
X430036Y339532D01*
X448343D01*
X448770Y339246D01*
X449311Y339138D01*
X449852Y339246D01*
X450310Y339552D01*
X450616Y340010D01*
X450724Y340551D01*
X450616Y341092D01*
X450310Y341550D01*
X449852Y341857D01*
X449311Y341964D01*
D02*
G37*
G36*
X94313Y342250D02*
X91632D01*
X91653Y342086D01*
X92006Y341235D01*
X92567Y340504D01*
X93298Y339943D01*
X94149Y339590D01*
X94313Y339568D01*
Y342250D01*
D02*
G37*
G36*
X84313D02*
X81631D01*
X81653Y342086D01*
X82006Y341235D01*
X82567Y340504D01*
X83298Y339943D01*
X84149Y339590D01*
X84313Y339568D01*
Y342250D01*
D02*
G37*
G36*
X98494D02*
X95813D01*
Y339568D01*
X95977Y339590D01*
X96828Y339943D01*
X97559Y340504D01*
X98120Y341235D01*
X98473Y342086D01*
X98494Y342250D01*
D02*
G37*
G36*
X88494D02*
X85813D01*
Y339568D01*
X85977Y339590D01*
X86828Y339943D01*
X87559Y340504D01*
X88120Y341235D01*
X88473Y342086D01*
X88494Y342250D01*
D02*
G37*
G36*
X528819Y345577D02*
X527905Y345457D01*
X527054Y345105D01*
X526323Y344544D01*
X525762Y343812D01*
X525409Y342961D01*
X525289Y342047D01*
X525409Y341134D01*
X525762Y340282D01*
X526323Y339551D01*
X527054Y338990D01*
X527905Y338637D01*
X528819Y338517D01*
X529733Y338637D01*
X530584Y338990D01*
X531315Y339551D01*
X531876Y340282D01*
X532229Y341134D01*
X532349Y342047D01*
X532229Y342961D01*
X531876Y343812D01*
X531315Y344544D01*
X530584Y345105D01*
X529733Y345457D01*
X528819Y345577D01*
D02*
G37*
G36*
X398905Y350519D02*
X398365Y350412D01*
X397906Y350105D01*
X397600Y349647D01*
X397493Y349106D01*
X397600Y348566D01*
X397906Y348107D01*
X398365Y347801D01*
X398869Y347701D01*
X399865Y346705D01*
Y340193D01*
X399677Y339911D01*
X399569Y339370D01*
X399677Y338829D01*
X399983Y338371D01*
X400442Y338065D01*
X400982Y337957D01*
X401523Y338065D01*
X401981Y338371D01*
X402288Y338829D01*
X402395Y339370D01*
X402288Y339911D01*
X401981Y340369D01*
X401904Y340421D01*
Y347127D01*
X401827Y347517D01*
X401606Y347848D01*
X400311Y349142D01*
X400211Y349647D01*
X399905Y350105D01*
X399446Y350412D01*
X398905Y350519D01*
D02*
G37*
G36*
X449311Y337633D02*
X448770Y337526D01*
X448312Y337220D01*
X448006Y336761D01*
X447982Y336640D01*
X447776Y336435D01*
X432248D01*
X431820Y336720D01*
X431280Y336828D01*
X430739Y336720D01*
X430280Y336414D01*
X429974Y335956D01*
X429867Y335415D01*
X429974Y334874D01*
X430280Y334416D01*
X430739Y334109D01*
X431280Y334002D01*
X431820Y334109D01*
X432248Y334395D01*
X448198D01*
X448588Y334473D01*
X448919Y334694D01*
X449079Y334854D01*
X449311Y334807D01*
X449852Y334915D01*
X450310Y335221D01*
X450616Y335680D01*
X450724Y336221D01*
X450616Y336761D01*
X450310Y337220D01*
X449852Y337526D01*
X449311Y337633D01*
D02*
G37*
G36*
X528819Y335577D02*
X527905Y335457D01*
X527054Y335104D01*
X526323Y334543D01*
X525762Y333812D01*
X525409Y332961D01*
X525289Y332047D01*
X525409Y331134D01*
X525762Y330282D01*
X526323Y329551D01*
X527054Y328990D01*
X527905Y328637D01*
X528819Y328517D01*
X529733Y328637D01*
X530584Y328990D01*
X531315Y329551D01*
X531876Y330282D01*
X532229Y331134D01*
X532349Y332047D01*
X532229Y332961D01*
X531876Y333812D01*
X531315Y334543D01*
X530584Y335104D01*
X529733Y335457D01*
X528819Y335577D01*
D02*
G37*
G36*
X399315Y335245D02*
X398774Y335138D01*
X398316Y334831D01*
X398009Y334373D01*
X397902Y333832D01*
X397932Y333682D01*
X397889Y333640D01*
X397668Y333309D01*
X397591Y332919D01*
Y328618D01*
X397305Y328190D01*
X397197Y327650D01*
X397305Y327109D01*
X397611Y326651D01*
X398070Y326344D01*
X398610Y326237D01*
X399151Y326344D01*
X399609Y326651D01*
X399916Y327109D01*
X400023Y327650D01*
X399916Y328190D01*
X399630Y328618D01*
Y332482D01*
X399856Y332527D01*
X400314Y332833D01*
X400620Y333292D01*
X400728Y333832D01*
X400620Y334373D01*
X400314Y334831D01*
X399856Y335138D01*
X399315Y335245D01*
D02*
G37*
G36*
X515354Y335577D02*
X514441Y335457D01*
X513589Y335104D01*
X512858Y334543D01*
X512297Y333812D01*
X511944Y332961D01*
X511824Y332047D01*
X511944Y331134D01*
X512297Y330282D01*
X512858Y329551D01*
X513589Y328990D01*
X514441Y328637D01*
X515354Y328517D01*
X516268Y328637D01*
X517058Y328965D01*
X519059Y326963D01*
Y323555D01*
X518559Y323456D01*
X518412Y323812D01*
X517851Y324543D01*
X517119Y325104D01*
X516268Y325457D01*
X515354Y325577D01*
X514441Y325457D01*
X513589Y325104D01*
X512858Y324543D01*
X512297Y323812D01*
X511944Y322961D01*
X511824Y322047D01*
X511944Y321134D01*
X512297Y320282D01*
X512858Y319551D01*
X513589Y318990D01*
X514441Y318637D01*
X515354Y318517D01*
X516268Y318637D01*
X517119Y318990D01*
X517851Y319551D01*
X518412Y320282D01*
X518559Y320638D01*
X519059Y320539D01*
Y313556D01*
X518559Y313456D01*
X518412Y313812D01*
X517851Y314544D01*
X517119Y315105D01*
X516268Y315457D01*
X515354Y315577D01*
X514441Y315457D01*
X513589Y315105D01*
X512858Y314544D01*
X512297Y313812D01*
X511944Y312961D01*
X511824Y312047D01*
X511944Y311134D01*
X512297Y310282D01*
X512858Y309551D01*
X513589Y308990D01*
X514441Y308637D01*
X515354Y308517D01*
X516268Y308637D01*
X517119Y308990D01*
X517851Y309551D01*
X518412Y310282D01*
X518559Y310638D01*
X519059Y310539D01*
Y307139D01*
X517053Y305132D01*
X516268Y305457D01*
X515354Y305577D01*
X514441Y305457D01*
X513589Y305104D01*
X512858Y304543D01*
X512297Y303812D01*
X511944Y302961D01*
X511824Y302047D01*
X511944Y301134D01*
X512297Y300282D01*
X512858Y299551D01*
X513589Y298990D01*
X514441Y298637D01*
X515354Y298517D01*
X516268Y298637D01*
X517119Y298990D01*
X517851Y299551D01*
X518412Y300282D01*
X518764Y301134D01*
X518885Y302047D01*
X518764Y302961D01*
X518472Y303667D01*
X520800Y305996D01*
X521021Y306326D01*
X521098Y306716D01*
Y327386D01*
X521021Y327776D01*
X520800Y328107D01*
X518474Y330433D01*
X518764Y331134D01*
X518885Y332047D01*
X518764Y332961D01*
X518412Y333812D01*
X517851Y334543D01*
X517119Y335104D01*
X516268Y335457D01*
X515354Y335577D01*
D02*
G37*
G36*
X498819Y325577D02*
X497905Y325457D01*
X497054Y325104D01*
X496323Y324543D01*
X495762Y323812D01*
X495409Y322961D01*
X495289Y322047D01*
X495409Y321134D01*
X495762Y320282D01*
X496323Y319551D01*
X497054Y318990D01*
X497905Y318637D01*
X498819Y318517D01*
X499733Y318637D01*
X500584Y318990D01*
X501315Y319551D01*
X501876Y320282D01*
X502229Y321134D01*
X502349Y322047D01*
X502229Y322961D01*
X501876Y323812D01*
X501315Y324543D01*
X500584Y325104D01*
X499733Y325457D01*
X498819Y325577D01*
D02*
G37*
G36*
Y315577D02*
X497905Y315457D01*
X497054Y315105D01*
X496323Y314544D01*
X495762Y313812D01*
X495409Y312961D01*
X495289Y312047D01*
X495409Y311134D01*
X495762Y310282D01*
X496323Y309551D01*
X497054Y308990D01*
X497905Y308637D01*
X498819Y308517D01*
X499733Y308637D01*
X500584Y308990D01*
X501315Y309551D01*
X501876Y310282D01*
X502229Y311134D01*
X502349Y312047D01*
X502229Y312961D01*
X501876Y313812D01*
X501315Y314544D01*
X500584Y315105D01*
X499733Y315457D01*
X498819Y315577D01*
D02*
G37*
G36*
Y335577D02*
X497905Y335457D01*
X497054Y335104D01*
X496323Y334543D01*
X495762Y333812D01*
X495409Y332961D01*
X495289Y332047D01*
X495409Y331134D01*
X495762Y330282D01*
X496323Y329551D01*
X497054Y328990D01*
X497905Y328637D01*
X498819Y328517D01*
X499733Y328637D01*
X499960Y328732D01*
X502917Y325774D01*
Y308430D01*
X499882Y305395D01*
X499733Y305457D01*
X498819Y305577D01*
X497905Y305457D01*
X497054Y305104D01*
X496323Y304543D01*
X495762Y303812D01*
X495409Y302961D01*
X495289Y302047D01*
X495409Y301134D01*
X495762Y300282D01*
X496323Y299551D01*
X497054Y298990D01*
X497905Y298637D01*
X498819Y298517D01*
X499733Y298637D01*
X500584Y298990D01*
X501315Y299551D01*
X501876Y300282D01*
X502229Y301134D01*
X502349Y302047D01*
X502229Y302961D01*
X501876Y303812D01*
X501575Y304204D01*
X504658Y307287D01*
X504879Y307618D01*
X504957Y308008D01*
Y326197D01*
X504879Y326587D01*
X504658Y326918D01*
X501623Y329953D01*
X501876Y330282D01*
X502229Y331134D01*
X502349Y332047D01*
X502229Y332961D01*
X501876Y333812D01*
X501315Y334543D01*
X500584Y335104D01*
X499733Y335457D01*
X498819Y335577D01*
D02*
G37*
G36*
X449311Y302791D02*
X448770Y302683D01*
X448343Y302398D01*
X430287D01*
X429859Y302683D01*
X429318Y302791D01*
X428777Y302683D01*
X428319Y302377D01*
X428013Y301919D01*
X427905Y301378D01*
X428013Y300837D01*
X428319Y300379D01*
X428777Y300073D01*
X429318Y299965D01*
X429859Y300073D01*
X430287Y300358D01*
X448343D01*
X448770Y300073D01*
X449311Y299965D01*
X449852Y300073D01*
X450310Y300379D01*
X450616Y300837D01*
X450724Y301378D01*
X450616Y301919D01*
X450310Y302377D01*
X449852Y302683D01*
X449311Y302791D01*
D02*
G37*
G36*
X399213Y311256D02*
X398672Y311148D01*
X398214Y310842D01*
X397907Y310383D01*
X397800Y309842D01*
X397907Y309302D01*
X398214Y308843D01*
X398672Y308537D01*
X399177Y308437D01*
X400162Y307452D01*
Y301362D01*
X399876Y300934D01*
X399768Y300394D01*
X399876Y299853D01*
X400182Y299395D01*
X400640Y299088D01*
X401181Y298981D01*
X401722Y299088D01*
X402180Y299395D01*
X402487Y299853D01*
X402594Y300394D01*
X402487Y300934D01*
X402201Y301362D01*
Y307874D01*
X402123Y308264D01*
X401902Y308595D01*
X400618Y309879D01*
X400518Y310383D01*
X400212Y310842D01*
X399753Y311148D01*
X399213Y311256D01*
D02*
G37*
G36*
X528819Y305577D02*
X527905Y305457D01*
X527054Y305104D01*
X526323Y304543D01*
X525762Y303812D01*
X525409Y302961D01*
X525289Y302047D01*
X525409Y301134D01*
X525762Y300282D01*
X526323Y299551D01*
X527054Y298990D01*
X527905Y298637D01*
X528819Y298517D01*
X529733Y298637D01*
X530584Y298990D01*
X531315Y299551D01*
X531876Y300282D01*
X532229Y301134D01*
X532349Y302047D01*
X532229Y302961D01*
X531876Y303812D01*
X531315Y304543D01*
X530584Y305104D01*
X529733Y305457D01*
X528819Y305577D01*
D02*
G37*
G36*
X449311Y298263D02*
X448770Y298156D01*
X448312Y297849D01*
X448006Y297391D01*
X447949Y297108D01*
X432094D01*
X431667Y297394D01*
X431126Y297501D01*
X430585Y297394D01*
X430127Y297087D01*
X429820Y296629D01*
X429713Y296088D01*
X429820Y295547D01*
X430127Y295089D01*
X430585Y294783D01*
X431126Y294675D01*
X431667Y294783D01*
X432094Y295069D01*
X448476D01*
X448866Y295146D01*
X449196Y295367D01*
X449274Y295445D01*
X449311Y295437D01*
X449852Y295545D01*
X450310Y295851D01*
X450616Y296310D01*
X450724Y296850D01*
X450616Y297391D01*
X450310Y297849D01*
X449852Y298156D01*
X449311Y298263D01*
D02*
G37*
G36*
X528819Y295577D02*
X527905Y295457D01*
X527054Y295105D01*
X526323Y294544D01*
X525762Y293812D01*
X525409Y292961D01*
X525289Y292047D01*
X525409Y291134D01*
X525762Y290282D01*
X526323Y289551D01*
X527054Y288990D01*
X527905Y288637D01*
X528819Y288517D01*
X529733Y288637D01*
X530584Y288990D01*
X531315Y289551D01*
X531876Y290282D01*
X532229Y291134D01*
X532349Y292047D01*
X532229Y292961D01*
X531876Y293812D01*
X531315Y294544D01*
X530584Y295105D01*
X529733Y295457D01*
X528819Y295577D01*
D02*
G37*
G36*
X399161Y295918D02*
X398621Y295811D01*
X398162Y295505D01*
X397856Y295046D01*
X397748Y294506D01*
X397778Y294356D01*
X397736Y294313D01*
X397515Y293982D01*
X397437Y293592D01*
Y289291D01*
X397151Y288863D01*
X397044Y288323D01*
X397151Y287782D01*
X397458Y287324D01*
X397916Y287017D01*
X398457Y286910D01*
X398997Y287017D01*
X399456Y287324D01*
X399762Y287782D01*
X399870Y288323D01*
X399762Y288863D01*
X399476Y289291D01*
Y293155D01*
X399702Y293200D01*
X400161Y293506D01*
X400467Y293965D01*
X400574Y294506D01*
X400467Y295046D01*
X400161Y295505D01*
X399702Y295811D01*
X399161Y295918D01*
D02*
G37*
G36*
X515354Y295577D02*
X514441Y295457D01*
X513589Y295105D01*
X512858Y294544D01*
X512297Y293812D01*
X511944Y292961D01*
X511824Y292047D01*
X511944Y291134D01*
X512297Y290282D01*
X512858Y289551D01*
X513589Y288990D01*
X514441Y288637D01*
X515354Y288517D01*
X516268Y288637D01*
X517058Y288965D01*
X518665Y287357D01*
Y284303D01*
X518165Y284133D01*
X517851Y284543D01*
X517119Y285104D01*
X516268Y285457D01*
X515354Y285577D01*
X514441Y285457D01*
X513589Y285104D01*
X512858Y284543D01*
X512297Y283812D01*
X511944Y282961D01*
X511824Y282047D01*
X511944Y281134D01*
X512297Y280282D01*
X512858Y279551D01*
X513589Y278990D01*
X514441Y278637D01*
X515354Y278517D01*
X516268Y278637D01*
X517119Y278990D01*
X517851Y279551D01*
X518165Y279961D01*
X518665Y279792D01*
Y274303D01*
X518165Y274133D01*
X517851Y274543D01*
X517119Y275104D01*
X516268Y275457D01*
X515354Y275577D01*
X514441Y275457D01*
X513589Y275104D01*
X512858Y274543D01*
X512297Y273812D01*
X511944Y272961D01*
X511824Y272047D01*
X511944Y271134D01*
X512297Y270282D01*
X512858Y269551D01*
X513589Y268990D01*
X514441Y268637D01*
X515354Y268517D01*
X516268Y268637D01*
X517119Y268990D01*
X517851Y269551D01*
X518165Y269961D01*
X518665Y269792D01*
Y266745D01*
X517053Y265132D01*
X516268Y265457D01*
X515354Y265577D01*
X514441Y265457D01*
X513589Y265105D01*
X512858Y264544D01*
X512297Y263812D01*
X511944Y262961D01*
X511824Y262047D01*
X511944Y261134D01*
X512297Y260282D01*
X512858Y259551D01*
X513589Y258990D01*
X514441Y258637D01*
X515354Y258517D01*
X516268Y258637D01*
X517119Y258990D01*
X517851Y259551D01*
X518412Y260282D01*
X518764Y261134D01*
X518885Y262047D01*
X518764Y262961D01*
X518472Y263667D01*
X520406Y265602D01*
X520627Y265933D01*
X520705Y266323D01*
Y287779D01*
X520627Y288170D01*
X520406Y288500D01*
X518474Y290433D01*
X518764Y291134D01*
X518885Y292047D01*
X518764Y292961D01*
X518412Y293812D01*
X517851Y294544D01*
X517119Y295105D01*
X516268Y295457D01*
X515354Y295577D01*
D02*
G37*
G36*
X498819D02*
X497905Y295457D01*
X497054Y295105D01*
X496323Y294544D01*
X495762Y293812D01*
X495409Y292961D01*
X495289Y292047D01*
X495409Y291134D01*
X495762Y290282D01*
X496323Y289551D01*
X497054Y288990D01*
X497905Y288637D01*
X498819Y288517D01*
X499733Y288637D01*
X499921Y288716D01*
X502524Y286113D01*
Y283556D01*
X502024Y283456D01*
X501876Y283812D01*
X501315Y284543D01*
X500584Y285104D01*
X499733Y285457D01*
X498819Y285577D01*
X497905Y285457D01*
X497054Y285104D01*
X496323Y284543D01*
X495762Y283812D01*
X495409Y282961D01*
X495289Y282047D01*
X495409Y281134D01*
X495762Y280282D01*
X496323Y279551D01*
X497054Y278990D01*
X497905Y278637D01*
X498819Y278517D01*
X499733Y278637D01*
X500584Y278990D01*
X501315Y279551D01*
X501876Y280282D01*
X502024Y280638D01*
X502524Y280539D01*
Y273555D01*
X502024Y273456D01*
X501876Y273812D01*
X501315Y274543D01*
X500584Y275104D01*
X499733Y275457D01*
X498819Y275577D01*
X497905Y275457D01*
X497054Y275104D01*
X496323Y274543D01*
X495762Y273812D01*
X495409Y272961D01*
X495289Y272047D01*
X495409Y271134D01*
X495762Y270282D01*
X496323Y269551D01*
X497054Y268990D01*
X497905Y268637D01*
X498819Y268517D01*
X499733Y268637D01*
X500584Y268990D01*
X501315Y269551D01*
X501876Y270282D01*
X502024Y270638D01*
X502524Y270539D01*
Y267981D01*
X499921Y265379D01*
X499733Y265457D01*
X498819Y265577D01*
X497905Y265457D01*
X497054Y265105D01*
X496323Y264544D01*
X495762Y263812D01*
X495409Y262961D01*
X495289Y262047D01*
X495409Y261134D01*
X495762Y260282D01*
X496323Y259551D01*
X497054Y258990D01*
X497905Y258637D01*
X498819Y258517D01*
X499733Y258637D01*
X500584Y258990D01*
X501315Y259551D01*
X501876Y260282D01*
X502229Y261134D01*
X502349Y262047D01*
X502229Y262961D01*
X501876Y263812D01*
X501599Y264173D01*
X504264Y266838D01*
X504485Y267169D01*
X504563Y267559D01*
Y286535D01*
X504485Y286926D01*
X504264Y287256D01*
X501599Y289921D01*
X501876Y290282D01*
X502229Y291134D01*
X502349Y292047D01*
X502229Y292961D01*
X501876Y293812D01*
X501315Y294544D01*
X500584Y295105D01*
X499733Y295457D01*
X498819Y295577D01*
D02*
G37*
G36*
X449311Y261452D02*
X448770Y261345D01*
X448343Y261059D01*
X430287D01*
X429859Y261345D01*
X429318Y261452D01*
X428777Y261345D01*
X428319Y261038D01*
X428013Y260580D01*
X427905Y260039D01*
X428013Y259499D01*
X428319Y259040D01*
X428777Y258734D01*
X429318Y258626D01*
X429859Y258734D01*
X430287Y259020D01*
X448343D01*
X448770Y258734D01*
X449311Y258626D01*
X449852Y258734D01*
X450310Y259040D01*
X450616Y259499D01*
X450724Y260039D01*
X450616Y260580D01*
X450310Y261038D01*
X449852Y261345D01*
X449311Y261452D01*
D02*
G37*
G36*
X528819Y265577D02*
X527905Y265457D01*
X527054Y265105D01*
X526323Y264544D01*
X525762Y263812D01*
X525409Y262961D01*
X525289Y262047D01*
X525409Y261134D01*
X525762Y260282D01*
X526323Y259551D01*
X527054Y258990D01*
X527905Y258637D01*
X528819Y258517D01*
X529733Y258637D01*
X530584Y258990D01*
X531315Y259551D01*
X531876Y260282D01*
X532229Y261134D01*
X532349Y262047D01*
X532229Y262961D01*
X531876Y263812D01*
X531315Y264544D01*
X530584Y265105D01*
X529733Y265457D01*
X528819Y265577D01*
D02*
G37*
G36*
X398610Y270007D02*
X398070Y269900D01*
X397611Y269594D01*
X397305Y269135D01*
X397197Y268595D01*
X397305Y268054D01*
X397611Y267595D01*
X398070Y267289D01*
X398574Y267189D01*
X400555Y265208D01*
Y260024D01*
X400269Y259596D01*
X400162Y259055D01*
X400269Y258514D01*
X400576Y258056D01*
X401034Y257750D01*
X401575Y257642D01*
X402115Y257750D01*
X402574Y258056D01*
X402880Y258514D01*
X402988Y259055D01*
X402880Y259596D01*
X402594Y260024D01*
Y265630D01*
X402517Y266020D01*
X402296Y266351D01*
X400016Y268631D01*
X399916Y269135D01*
X399609Y269594D01*
X399151Y269900D01*
X398610Y270007D01*
D02*
G37*
G36*
X449311Y257318D02*
X448770Y257211D01*
X448312Y256905D01*
X448006Y256446D01*
X447982Y256325D01*
X447819Y256163D01*
X432193D01*
X431765Y256449D01*
X431224Y256556D01*
X430684Y256449D01*
X430225Y256142D01*
X429919Y255684D01*
X429811Y255143D01*
X429919Y254603D01*
X430225Y254144D01*
X430684Y253838D01*
X431224Y253730D01*
X431765Y253838D01*
X432193Y254124D01*
X448242D01*
X448632Y254201D01*
X448962Y254422D01*
X449079Y254539D01*
X449311Y254492D01*
X449852Y254600D01*
X450310Y254906D01*
X450616Y255365D01*
X450724Y255906D01*
X450616Y256446D01*
X450310Y256905D01*
X449852Y257211D01*
X449311Y257318D01*
D02*
G37*
G36*
X21036Y257808D02*
X20123Y257688D01*
X19271Y257335D01*
X18540Y256774D01*
X17979Y256043D01*
X17627Y255191D01*
X17506Y254278D01*
X17627Y253364D01*
X17979Y252513D01*
X18540Y251782D01*
X19271Y251221D01*
X20123Y250868D01*
X21036Y250748D01*
X21950Y250868D01*
X22802Y251221D01*
X23533Y251782D01*
X24094Y252513D01*
X24446Y253364D01*
X24567Y254278D01*
X24446Y255191D01*
X24094Y256043D01*
X23533Y256774D01*
X22802Y257335D01*
X21950Y257688D01*
X21036Y257808D01*
D02*
G37*
G36*
X11036D02*
X10123Y257688D01*
X9271Y257335D01*
X8540Y256774D01*
X7979Y256043D01*
X7626Y255191D01*
X7506Y254278D01*
X7626Y253364D01*
X7979Y252513D01*
X8540Y251782D01*
X9271Y251221D01*
X10123Y250868D01*
X11036Y250748D01*
X11950Y250868D01*
X12801Y251221D01*
X13533Y251782D01*
X14094Y252513D01*
X14446Y253364D01*
X14567Y254278D01*
X14446Y255191D01*
X14094Y256043D01*
X13533Y256774D01*
X12801Y257335D01*
X11950Y257688D01*
X11036Y257808D01*
D02*
G37*
G36*
X528819Y255577D02*
X527905Y255457D01*
X527054Y255104D01*
X526323Y254543D01*
X525762Y253812D01*
X525409Y252961D01*
X525289Y252047D01*
X525409Y251134D01*
X525762Y250282D01*
X526323Y249551D01*
X527054Y248990D01*
X527905Y248637D01*
X528819Y248517D01*
X529733Y248637D01*
X530584Y248990D01*
X531315Y249551D01*
X531876Y250282D01*
X532229Y251134D01*
X532349Y252047D01*
X532229Y252961D01*
X531876Y253812D01*
X531315Y254543D01*
X530584Y255104D01*
X529733Y255457D01*
X528819Y255577D01*
D02*
G37*
G36*
X399260Y254974D02*
X398719Y254866D01*
X398261Y254560D01*
X397954Y254101D01*
X397847Y253561D01*
X397877Y253411D01*
X397834Y253368D01*
X397613Y253037D01*
X397535Y252647D01*
Y248346D01*
X397250Y247919D01*
X397142Y247378D01*
X397250Y246837D01*
X397556Y246379D01*
X398014Y246073D01*
X398555Y245965D01*
X399096Y246073D01*
X399554Y246379D01*
X399861Y246837D01*
X399968Y247378D01*
X399861Y247919D01*
X399575Y248346D01*
Y252210D01*
X399801Y252255D01*
X400259Y252561D01*
X400565Y253020D01*
X400673Y253561D01*
X400565Y254101D01*
X400259Y254560D01*
X399801Y254866D01*
X399260Y254974D01*
D02*
G37*
G36*
X11786Y247709D02*
Y245028D01*
X14468D01*
X14446Y245192D01*
X14094Y246043D01*
X13533Y246774D01*
X12801Y247335D01*
X11950Y247688D01*
X11786Y247709D01*
D02*
G37*
G36*
X21786D02*
Y245028D01*
X24468D01*
X24446Y245192D01*
X24094Y246043D01*
X23533Y246774D01*
X22802Y247335D01*
X21950Y247688D01*
X21786Y247709D01*
D02*
G37*
G36*
X10286D02*
X10123Y247688D01*
X9271Y247335D01*
X8540Y246774D01*
X7979Y246043D01*
X7626Y245192D01*
X7605Y245028D01*
X10286D01*
Y247709D01*
D02*
G37*
G36*
X20286D02*
X20123Y247688D01*
X19271Y247335D01*
X18540Y246774D01*
X17979Y246043D01*
X17627Y245192D01*
X17605Y245028D01*
X20286D01*
Y247709D01*
D02*
G37*
G36*
X24468Y243528D02*
X21786D01*
Y240846D01*
X21950Y240868D01*
X22802Y241221D01*
X23533Y241782D01*
X24094Y242513D01*
X24446Y243364D01*
X24468Y243528D01*
D02*
G37*
G36*
X14468D02*
X11786D01*
Y240846D01*
X11950Y240868D01*
X12801Y241221D01*
X13533Y241782D01*
X14094Y242513D01*
X14446Y243364D01*
X14468Y243528D01*
D02*
G37*
G36*
X20286D02*
X17605D01*
X17627Y243364D01*
X17979Y242513D01*
X18540Y241782D01*
X19271Y241221D01*
X20123Y240868D01*
X20286Y240846D01*
Y243528D01*
D02*
G37*
G36*
X10286D02*
X7605D01*
X7626Y243364D01*
X7979Y242513D01*
X8540Y241782D01*
X9271Y241221D01*
X10123Y240868D01*
X10286Y240846D01*
Y243528D01*
D02*
G37*
G36*
X515354Y245577D02*
X514441Y245457D01*
X513589Y245105D01*
X512858Y244544D01*
X512297Y243812D01*
X511944Y242961D01*
X511824Y242047D01*
X511944Y241134D01*
X512297Y240282D01*
X512858Y239551D01*
X513589Y238990D01*
X514441Y238637D01*
X515354Y238517D01*
X516268Y238637D01*
X517119Y238990D01*
X517851Y239551D01*
X518412Y240282D01*
X518764Y241134D01*
X518885Y242047D01*
X518764Y242961D01*
X518412Y243812D01*
X517851Y244544D01*
X517119Y245105D01*
X516268Y245457D01*
X515354Y245577D01*
D02*
G37*
G36*
X498819D02*
X497905Y245457D01*
X497054Y245105D01*
X496323Y244544D01*
X495762Y243812D01*
X495409Y242961D01*
X495289Y242047D01*
X495409Y241134D01*
X495762Y240282D01*
X496323Y239551D01*
X497054Y238990D01*
X497905Y238637D01*
X498819Y238517D01*
X499733Y238637D01*
X500584Y238990D01*
X501315Y239551D01*
X501876Y240282D01*
X502229Y241134D01*
X502349Y242047D01*
X502229Y242961D01*
X501876Y243812D01*
X501315Y244544D01*
X500584Y245105D01*
X499733Y245457D01*
X498819Y245577D01*
D02*
G37*
G36*
X515354Y235577D02*
X514441Y235457D01*
X513589Y235104D01*
X512858Y234543D01*
X512297Y233812D01*
X511944Y232961D01*
X511824Y232047D01*
X511944Y231134D01*
X512297Y230282D01*
X512858Y229551D01*
X513589Y228990D01*
X514441Y228637D01*
X515354Y228517D01*
X516268Y228637D01*
X517119Y228990D01*
X517851Y229551D01*
X518412Y230282D01*
X518764Y231134D01*
X518885Y232047D01*
X518764Y232961D01*
X518412Y233812D01*
X517851Y234543D01*
X517119Y235104D01*
X516268Y235457D01*
X515354Y235577D01*
D02*
G37*
G36*
X498819D02*
X497905Y235457D01*
X497054Y235104D01*
X496323Y234543D01*
X495762Y233812D01*
X495409Y232961D01*
X495289Y232047D01*
X495409Y231134D01*
X495762Y230282D01*
X496323Y229551D01*
X497054Y228990D01*
X497905Y228637D01*
X498819Y228517D01*
X499733Y228637D01*
X500584Y228990D01*
X501315Y229551D01*
X501876Y230282D01*
X502229Y231134D01*
X502349Y232047D01*
X502229Y232961D01*
X501876Y233812D01*
X501315Y234543D01*
X500584Y235104D01*
X499733Y235457D01*
X498819Y235577D01*
D02*
G37*
G36*
Y255577D02*
X497905Y255457D01*
X497054Y255104D01*
X496323Y254543D01*
X495762Y253812D01*
X495409Y252961D01*
X495289Y252047D01*
X495409Y251134D01*
X495762Y250282D01*
X496323Y249551D01*
X497054Y248990D01*
X497905Y248637D01*
X498819Y248517D01*
X499733Y248637D01*
X499810Y248669D01*
X502917Y245562D01*
Y228218D01*
X500033Y225333D01*
X499733Y225457D01*
X498819Y225577D01*
X497905Y225457D01*
X497054Y225104D01*
X496323Y224543D01*
X495762Y223812D01*
X495409Y222961D01*
X495289Y222047D01*
X495409Y221134D01*
X495762Y220282D01*
X496323Y219551D01*
X497054Y218990D01*
X497905Y218637D01*
X498819Y218517D01*
X499733Y218637D01*
X500584Y218990D01*
X501315Y219551D01*
X501876Y220282D01*
X502229Y221134D01*
X502349Y222047D01*
X502229Y222961D01*
X501876Y223812D01*
X501668Y224084D01*
X504658Y227074D01*
X504879Y227405D01*
X504957Y227795D01*
Y245984D01*
X504879Y246374D01*
X504658Y246705D01*
X501531Y249832D01*
X501876Y250282D01*
X502229Y251134D01*
X502349Y252047D01*
X502229Y252961D01*
X501876Y253812D01*
X501315Y254543D01*
X500584Y255104D01*
X499733Y255457D01*
X498819Y255577D01*
D02*
G37*
G36*
X515354D02*
X514441Y255457D01*
X513589Y255104D01*
X512858Y254543D01*
X512297Y253812D01*
X511944Y252961D01*
X511824Y252047D01*
X511944Y251134D01*
X512297Y250282D01*
X512858Y249551D01*
X513589Y248990D01*
X514441Y248637D01*
X515354Y248517D01*
X516268Y248637D01*
X517058Y248965D01*
X519453Y246570D01*
Y227533D01*
X517053Y225132D01*
X516268Y225457D01*
X515354Y225577D01*
X514441Y225457D01*
X513589Y225104D01*
X512858Y224543D01*
X512297Y223812D01*
X511944Y222961D01*
X511824Y222047D01*
X511944Y221134D01*
X512297Y220282D01*
X512858Y219551D01*
X513589Y218990D01*
X514441Y218637D01*
X515354Y218517D01*
X516268Y218637D01*
X517119Y218990D01*
X517851Y219551D01*
X518412Y220282D01*
X518764Y221134D01*
X518885Y222047D01*
X518764Y222961D01*
X518472Y223668D01*
X521193Y226389D01*
X521414Y226720D01*
X521492Y227110D01*
Y246992D01*
X521414Y247382D01*
X521193Y247713D01*
X518474Y250433D01*
X518764Y251134D01*
X518885Y252047D01*
X518764Y252961D01*
X518412Y253812D01*
X517851Y254543D01*
X517119Y255104D01*
X516268Y255457D01*
X515354Y255577D01*
D02*
G37*
G36*
X449311Y221984D02*
X448770Y221876D01*
X448343Y221590D01*
X430287D01*
X429859Y221876D01*
X429318Y221984D01*
X428777Y221876D01*
X428319Y221570D01*
X428013Y221112D01*
X427905Y220571D01*
X428013Y220030D01*
X428319Y219572D01*
X428777Y219266D01*
X429318Y219158D01*
X429859Y219266D01*
X430287Y219551D01*
X448343D01*
X448770Y219266D01*
X449311Y219158D01*
X449852Y219266D01*
X450310Y219572D01*
X450616Y220030D01*
X450724Y220571D01*
X450616Y221112D01*
X450310Y221570D01*
X449852Y221876D01*
X449311Y221984D01*
D02*
G37*
G36*
X528819Y225577D02*
X527905Y225457D01*
X527054Y225104D01*
X526323Y224543D01*
X525762Y223812D01*
X525409Y222961D01*
X525289Y222047D01*
X525409Y221134D01*
X525762Y220282D01*
X526323Y219551D01*
X527054Y218990D01*
X527905Y218637D01*
X528819Y218517D01*
X529733Y218637D01*
X530584Y218990D01*
X531315Y219551D01*
X531876Y220282D01*
X532229Y221134D01*
X532349Y222047D01*
X532229Y222961D01*
X531876Y223812D01*
X531315Y224543D01*
X530584Y225104D01*
X529733Y225457D01*
X528819Y225577D01*
D02*
G37*
G36*
X398610Y230539D02*
X398070Y230431D01*
X397611Y230125D01*
X397305Y229667D01*
X397197Y229126D01*
X397305Y228585D01*
X397611Y228127D01*
X398070Y227821D01*
X398574Y227720D01*
X400555Y225739D01*
Y220654D01*
X400269Y220226D01*
X400162Y219685D01*
X400269Y219144D01*
X400576Y218686D01*
X401034Y218380D01*
X401575Y218272D01*
X402115Y218380D01*
X402574Y218686D01*
X402880Y219144D01*
X402988Y219685D01*
X402880Y220226D01*
X402594Y220654D01*
Y226161D01*
X402517Y226552D01*
X402296Y226882D01*
X400016Y229162D01*
X399916Y229667D01*
X399609Y230125D01*
X399151Y230431D01*
X398610Y230539D01*
D02*
G37*
G36*
X449311Y218342D02*
X448770Y218234D01*
X448312Y217928D01*
X448227Y217801D01*
X447182D01*
X446791Y217723D01*
X446460Y217502D01*
X446003Y217045D01*
X432248D01*
X431820Y217331D01*
X431280Y217438D01*
X430739Y217331D01*
X430280Y217024D01*
X429974Y216566D01*
X429867Y216025D01*
X429974Y215484D01*
X430280Y215026D01*
X430739Y214720D01*
X431280Y214612D01*
X431820Y214720D01*
X432248Y215006D01*
X446425D01*
X446815Y215083D01*
X447146Y215304D01*
X447604Y215762D01*
X448563D01*
X448770Y215624D01*
X449311Y215516D01*
X449852Y215624D01*
X450310Y215930D01*
X450616Y216388D01*
X450724Y216929D01*
X450616Y217470D01*
X450310Y217928D01*
X449852Y218234D01*
X449311Y218342D01*
D02*
G37*
G36*
X528819Y215577D02*
X527905Y215457D01*
X527054Y215105D01*
X526323Y214544D01*
X525762Y213812D01*
X525409Y212961D01*
X525289Y212047D01*
X525409Y211134D01*
X525762Y210282D01*
X526323Y209551D01*
X527054Y208990D01*
X527905Y208637D01*
X528819Y208517D01*
X529733Y208637D01*
X530584Y208990D01*
X531315Y209551D01*
X531876Y210282D01*
X532229Y211134D01*
X532349Y212047D01*
X532229Y212961D01*
X531876Y213812D01*
X531315Y214544D01*
X530584Y215105D01*
X529733Y215457D01*
X528819Y215577D01*
D02*
G37*
G36*
X399315Y215856D02*
X398774Y215748D01*
X398316Y215442D01*
X398009Y214983D01*
X397902Y214442D01*
X397932Y214293D01*
X397889Y214250D01*
X397668Y213919D01*
X397591Y213529D01*
Y209228D01*
X397305Y208801D01*
X397197Y208260D01*
X397305Y207719D01*
X397611Y207261D01*
X398070Y206954D01*
X398610Y206847D01*
X399151Y206954D01*
X399609Y207261D01*
X399916Y207719D01*
X400023Y208260D01*
X399916Y208801D01*
X399630Y209228D01*
Y213092D01*
X399856Y213137D01*
X400314Y213443D01*
X400620Y213902D01*
X400728Y214442D01*
X400620Y214983D01*
X400314Y215442D01*
X399856Y215748D01*
X399315Y215856D01*
D02*
G37*
G36*
X515354Y215577D02*
X514441Y215457D01*
X513589Y215105D01*
X512858Y214544D01*
X512297Y213812D01*
X511944Y212961D01*
X511824Y212047D01*
X511944Y211134D01*
X512297Y210282D01*
X512858Y209551D01*
X513589Y208990D01*
X514441Y208637D01*
X515354Y208517D01*
X516268Y208637D01*
X516796Y208856D01*
X519059Y206593D01*
Y203555D01*
X518559Y203456D01*
X518412Y203812D01*
X517851Y204543D01*
X517119Y205104D01*
X516268Y205457D01*
X515354Y205577D01*
X514441Y205457D01*
X513589Y205104D01*
X512858Y204543D01*
X512297Y203812D01*
X511944Y202961D01*
X511824Y202047D01*
X511944Y201134D01*
X512297Y200282D01*
X512858Y199551D01*
X513589Y198990D01*
X514441Y198637D01*
X515354Y198517D01*
X516268Y198637D01*
X517119Y198990D01*
X517851Y199551D01*
X518412Y200282D01*
X518559Y200638D01*
X519059Y200539D01*
Y193555D01*
X518559Y193456D01*
X518412Y193812D01*
X517851Y194544D01*
X517119Y195105D01*
X516268Y195457D01*
X515354Y195577D01*
X514441Y195457D01*
X513589Y195105D01*
X512858Y194544D01*
X512297Y193812D01*
X511944Y192961D01*
X511824Y192047D01*
X511944Y191134D01*
X512297Y190282D01*
X512858Y189551D01*
X513589Y188990D01*
X514441Y188637D01*
X515354Y188517D01*
X516268Y188637D01*
X517119Y188990D01*
X517851Y189551D01*
X518412Y190282D01*
X518559Y190638D01*
X519059Y190539D01*
Y186769D01*
X517275Y184985D01*
X517119Y185105D01*
X516268Y185457D01*
X515354Y185577D01*
X514441Y185457D01*
X513589Y185105D01*
X512858Y184544D01*
X512297Y183812D01*
X511944Y182961D01*
X511824Y182047D01*
X511944Y181134D01*
X512297Y180282D01*
X512858Y179551D01*
X513589Y178990D01*
X514441Y178637D01*
X515354Y178517D01*
X516268Y178637D01*
X517119Y178990D01*
X517851Y179551D01*
X518412Y180282D01*
X518764Y181134D01*
X518885Y182047D01*
X518764Y182961D01*
X518580Y183406D01*
X520800Y185626D01*
X521021Y185956D01*
X521098Y186346D01*
Y207016D01*
X521021Y207406D01*
X520800Y207737D01*
X518343Y210193D01*
X518412Y210282D01*
X518764Y211134D01*
X518885Y212047D01*
X518764Y212961D01*
X518412Y213812D01*
X517851Y214544D01*
X517119Y215105D01*
X516268Y215457D01*
X515354Y215577D01*
D02*
G37*
G36*
X498819Y205577D02*
X497905Y205457D01*
X497054Y205104D01*
X496323Y204543D01*
X495762Y203812D01*
X495409Y202961D01*
X495289Y202047D01*
X495409Y201134D01*
X495762Y200282D01*
X496323Y199551D01*
X497054Y198990D01*
X497905Y198637D01*
X498819Y198517D01*
X499733Y198637D01*
X500584Y198990D01*
X501315Y199551D01*
X501876Y200282D01*
X502229Y201134D01*
X502349Y202047D01*
X502229Y202961D01*
X501876Y203812D01*
X501315Y204543D01*
X500584Y205104D01*
X499733Y205457D01*
X498819Y205577D01*
D02*
G37*
G36*
X33465Y222186D02*
X32809Y222056D01*
X32253Y221684D01*
X31881Y221128D01*
X31751Y220472D01*
X31881Y219816D01*
X32253Y219260D01*
X32445Y219132D01*
Y193467D01*
X32253Y193338D01*
X31881Y192782D01*
X31751Y192126D01*
X31881Y191470D01*
X32253Y190914D01*
X32809Y190542D01*
X33465Y190412D01*
X34121Y190542D01*
X34677Y190914D01*
X35048Y191470D01*
X35179Y192126D01*
X35048Y192782D01*
X34677Y193338D01*
X34484Y193467D01*
Y219132D01*
X34677Y219260D01*
X35048Y219816D01*
X35179Y220472D01*
X35048Y221128D01*
X34677Y221684D01*
X34121Y222056D01*
X33465Y222186D01*
D02*
G37*
G36*
X498819Y195577D02*
X497905Y195457D01*
X497054Y195105D01*
X496323Y194544D01*
X495762Y193812D01*
X495409Y192961D01*
X495289Y192047D01*
X495409Y191134D01*
X495762Y190282D01*
X496323Y189551D01*
X497054Y188990D01*
X497905Y188637D01*
X498819Y188517D01*
X499733Y188637D01*
X500584Y188990D01*
X501315Y189551D01*
X501876Y190282D01*
X502229Y191134D01*
X502349Y192047D01*
X502229Y192961D01*
X501876Y193812D01*
X501315Y194544D01*
X500584Y195105D01*
X499733Y195457D01*
X498819Y195577D01*
D02*
G37*
G36*
Y215577D02*
X497905Y215457D01*
X497054Y215105D01*
X496323Y214544D01*
X495762Y213812D01*
X495409Y212961D01*
X495289Y212047D01*
X495409Y211134D01*
X495762Y210282D01*
X496323Y209551D01*
X497054Y208990D01*
X497905Y208637D01*
X498819Y208517D01*
X499690Y208632D01*
X502917Y205404D01*
Y188060D01*
X500144Y185287D01*
X499733Y185457D01*
X498819Y185577D01*
X497905Y185457D01*
X497054Y185105D01*
X496323Y184544D01*
X495762Y183812D01*
X495409Y182961D01*
X495289Y182047D01*
X495409Y181134D01*
X495762Y180282D01*
X496323Y179551D01*
X497054Y178990D01*
X497905Y178637D01*
X498819Y178517D01*
X499733Y178637D01*
X500584Y178990D01*
X501315Y179551D01*
X501876Y180282D01*
X502229Y181134D01*
X502349Y182047D01*
X502229Y182961D01*
X501876Y183812D01*
X501736Y183995D01*
X504658Y186917D01*
X504879Y187248D01*
X504957Y187638D01*
Y205827D01*
X504879Y206217D01*
X504658Y206548D01*
X501463Y209743D01*
X501876Y210282D01*
X502229Y211134D01*
X502349Y212047D01*
X502229Y212961D01*
X501876Y213812D01*
X501315Y214544D01*
X500584Y215105D01*
X499733Y215457D01*
X498819Y215577D01*
D02*
G37*
G36*
X190551Y188328D02*
X189895Y188198D01*
X189339Y187826D01*
X189211Y187634D01*
X180114D01*
X179724Y187556D01*
X179393Y187335D01*
X177011Y184953D01*
X171547D01*
Y178047D01*
X178453D01*
Y183511D01*
X180536Y185595D01*
X189211D01*
X189339Y185402D01*
X189895Y185031D01*
X190551Y184900D01*
X191207Y185031D01*
X191763Y185402D01*
X192135Y185958D01*
X192265Y186614D01*
X192135Y187270D01*
X191763Y187826D01*
X191207Y188198D01*
X190551Y188328D01*
D02*
G37*
G36*
X449311Y184287D02*
X448770Y184179D01*
X448343Y183894D01*
X430287D01*
X429859Y184179D01*
X429318Y184287D01*
X428777Y184179D01*
X428319Y183873D01*
X428013Y183415D01*
X427905Y182874D01*
X428013Y182333D01*
X428319Y181875D01*
X428777Y181569D01*
X429318Y181461D01*
X429859Y181569D01*
X430287Y181854D01*
X448343D01*
X448770Y181569D01*
X449311Y181461D01*
X449852Y181569D01*
X450310Y181875D01*
X450616Y182333D01*
X450724Y182874D01*
X450616Y183415D01*
X450310Y183873D01*
X449852Y184179D01*
X449311Y184287D01*
D02*
G37*
G36*
X398610Y192842D02*
X398070Y192735D01*
X397611Y192428D01*
X397305Y191970D01*
X397197Y191429D01*
X397305Y190888D01*
X397611Y190430D01*
X398070Y190124D01*
X398574Y190023D01*
X400162Y188436D01*
Y182465D01*
X399876Y182037D01*
X399768Y181496D01*
X399876Y180955D01*
X400182Y180497D01*
X400640Y180191D01*
X401181Y180083D01*
X401722Y180191D01*
X402180Y180497D01*
X402487Y180955D01*
X402594Y181496D01*
X402487Y182037D01*
X402201Y182465D01*
Y188858D01*
X402123Y189249D01*
X401902Y189579D01*
X400016Y191465D01*
X399916Y191970D01*
X399609Y192428D01*
X399151Y192735D01*
X398610Y192842D01*
D02*
G37*
G36*
X528819Y185577D02*
X527905Y185457D01*
X527054Y185105D01*
X526323Y184544D01*
X525762Y183812D01*
X525409Y182961D01*
X525289Y182047D01*
X525409Y181134D01*
X525762Y180282D01*
X526323Y179551D01*
X527054Y178990D01*
X527905Y178637D01*
X528819Y178517D01*
X529733Y178637D01*
X530584Y178990D01*
X531315Y179551D01*
X531876Y180282D01*
X532229Y181134D01*
X532349Y182047D01*
X532229Y182961D01*
X531876Y183812D01*
X531315Y184544D01*
X530584Y185105D01*
X529733Y185457D01*
X528819Y185577D01*
D02*
G37*
G36*
X449311Y178972D02*
X448770Y178865D01*
X448343Y178579D01*
X432971D01*
X432581Y178501D01*
X432250Y178280D01*
X431243Y177273D01*
X430739Y177173D01*
X430280Y176867D01*
X429974Y176408D01*
X429867Y175868D01*
X429974Y175327D01*
X430280Y174869D01*
X430739Y174562D01*
X431280Y174455D01*
X431820Y174562D01*
X432279Y174869D01*
X432585Y175327D01*
X432685Y175831D01*
X433393Y176540D01*
X448343D01*
X448770Y176254D01*
X449311Y176146D01*
X449852Y176254D01*
X450310Y176560D01*
X450616Y177018D01*
X450724Y177559D01*
X450616Y178100D01*
X450310Y178558D01*
X449852Y178865D01*
X449311Y178972D01*
D02*
G37*
G36*
X185000Y184983D02*
X184099Y184864D01*
X183259Y184516D01*
X182537Y183963D01*
X181984Y183241D01*
X181636Y182401D01*
X181518Y181500D01*
X181636Y180599D01*
X181984Y179759D01*
X182537Y179037D01*
X183259Y178484D01*
X183150Y177988D01*
X180468D01*
X180078Y177910D01*
X179747Y177690D01*
X176623Y174565D01*
X175901Y174864D01*
X175000Y174983D01*
X174099Y174864D01*
X173259Y174516D01*
X172538Y173962D01*
X171984Y173241D01*
X171636Y172401D01*
X171518Y171500D01*
X171636Y170599D01*
X171984Y169759D01*
X172538Y169037D01*
X173259Y168484D01*
X174099Y168136D01*
X175000Y168017D01*
X175901Y168136D01*
X176741Y168484D01*
X177462Y169037D01*
X178016Y169759D01*
X178364Y170599D01*
X178482Y171500D01*
X178364Y172401D01*
X178065Y173123D01*
X180891Y175949D01*
X189112D01*
X189241Y175757D01*
X189797Y175385D01*
X190453Y175254D01*
X191109Y175385D01*
X191665Y175757D01*
X192036Y176313D01*
X192167Y176969D01*
X192036Y177624D01*
X191665Y178181D01*
X191109Y178552D01*
X190453Y178682D01*
X189797Y178552D01*
X189241Y178181D01*
X189112Y177988D01*
X186851D01*
X186741Y178484D01*
X187462Y179037D01*
X188016Y179759D01*
X188364Y180599D01*
X188482Y181500D01*
X188364Y182401D01*
X188016Y183241D01*
X187462Y183963D01*
X186741Y184516D01*
X185901Y184864D01*
X185000Y184983D01*
D02*
G37*
G36*
X528819Y175577D02*
X527905Y175457D01*
X527054Y175104D01*
X526323Y174543D01*
X525762Y173812D01*
X525409Y172961D01*
X525289Y172047D01*
X525409Y171134D01*
X525762Y170282D01*
X526323Y169551D01*
X527054Y168990D01*
X527905Y168637D01*
X528819Y168517D01*
X529733Y168637D01*
X530584Y168990D01*
X531315Y169551D01*
X531876Y170282D01*
X532229Y171134D01*
X532349Y172047D01*
X532229Y172961D01*
X531876Y173812D01*
X531315Y174543D01*
X530584Y175104D01*
X529733Y175457D01*
X528819Y175577D01*
D02*
G37*
G36*
X399315Y175698D02*
X398774Y175591D01*
X398316Y175284D01*
X398009Y174826D01*
X397902Y174285D01*
X397932Y174135D01*
X397889Y174092D01*
X397668Y173762D01*
X397591Y173372D01*
Y169071D01*
X397305Y168643D01*
X397197Y168102D01*
X397305Y167562D01*
X397611Y167103D01*
X398070Y166797D01*
X398610Y166689D01*
X399151Y166797D01*
X399609Y167103D01*
X399916Y167562D01*
X400023Y168102D01*
X399916Y168643D01*
X399630Y169071D01*
Y172935D01*
X399856Y172980D01*
X400314Y173286D01*
X400620Y173744D01*
X400728Y174285D01*
X400620Y174826D01*
X400314Y175284D01*
X399856Y175591D01*
X399315Y175698D01*
D02*
G37*
G36*
X185000Y174983D02*
X184099Y174864D01*
X183259Y174516D01*
X182537Y173962D01*
X181984Y173241D01*
X181636Y172401D01*
X181518Y171500D01*
X181636Y170599D01*
X181984Y169759D01*
X182537Y169037D01*
X182792Y168842D01*
X182622Y168342D01*
X180823D01*
X180433Y168265D01*
X180102Y168044D01*
X176623Y164565D01*
X175901Y164864D01*
X175000Y164982D01*
X174099Y164864D01*
X173259Y164516D01*
X172538Y163962D01*
X171984Y163241D01*
X171636Y162401D01*
X171518Y161500D01*
X171636Y160599D01*
X171984Y159759D01*
X172538Y159037D01*
X173259Y158484D01*
X174099Y158136D01*
X175000Y158018D01*
X175901Y158136D01*
X176741Y158484D01*
X177462Y159037D01*
X178016Y159759D01*
X178364Y160599D01*
X178482Y161500D01*
X178364Y162401D01*
X178065Y163123D01*
X181245Y166303D01*
X189112D01*
X189241Y166111D01*
X189797Y165739D01*
X190453Y165609D01*
X191109Y165739D01*
X191665Y166111D01*
X192036Y166667D01*
X192167Y167323D01*
X192036Y167979D01*
X191665Y168535D01*
X191109Y168906D01*
X190453Y169037D01*
X189797Y168906D01*
X189241Y168535D01*
X189112Y168342D01*
X187378D01*
X187208Y168842D01*
X187462Y169037D01*
X188016Y169759D01*
X188364Y170599D01*
X188482Y171500D01*
X188364Y172401D01*
X188016Y173241D01*
X187462Y173962D01*
X186741Y174516D01*
X185901Y174864D01*
X185000Y174983D01*
D02*
G37*
G36*
X515354Y175577D02*
X514441Y175457D01*
X513589Y175104D01*
X512858Y174543D01*
X512297Y173812D01*
X511944Y172961D01*
X511824Y172047D01*
X511944Y171134D01*
X512297Y170282D01*
X512858Y169551D01*
X513589Y168990D01*
X514441Y168637D01*
X515354Y168517D01*
X516268Y168637D01*
X516796Y168856D01*
X518665Y166987D01*
Y164303D01*
X518165Y164133D01*
X517851Y164543D01*
X517119Y165104D01*
X516268Y165457D01*
X515354Y165577D01*
X514441Y165457D01*
X513589Y165104D01*
X512858Y164543D01*
X512297Y163812D01*
X511944Y162961D01*
X511824Y162047D01*
X511944Y161134D01*
X512297Y160282D01*
X512858Y159551D01*
X513589Y158990D01*
X514441Y158637D01*
X515354Y158517D01*
X516268Y158637D01*
X517119Y158990D01*
X517851Y159551D01*
X518165Y159961D01*
X518665Y159792D01*
Y154303D01*
X518165Y154133D01*
X517851Y154543D01*
X517119Y155104D01*
X516268Y155457D01*
X515354Y155577D01*
X514441Y155457D01*
X513589Y155104D01*
X512858Y154543D01*
X512297Y153812D01*
X511944Y152961D01*
X511824Y152047D01*
X511944Y151134D01*
X512297Y150282D01*
X512858Y149551D01*
X513589Y148990D01*
X514441Y148637D01*
X515354Y148517D01*
X516268Y148637D01*
X517119Y148990D01*
X517851Y149551D01*
X518165Y149961D01*
X518665Y149792D01*
Y146375D01*
X517275Y144985D01*
X517119Y145105D01*
X516268Y145457D01*
X515354Y145577D01*
X514441Y145457D01*
X513589Y145105D01*
X512858Y144544D01*
X512297Y143812D01*
X511944Y142961D01*
X511824Y142047D01*
X511944Y141134D01*
X512297Y140282D01*
X512858Y139551D01*
X513589Y138990D01*
X514441Y138637D01*
X515354Y138517D01*
X516268Y138637D01*
X517119Y138990D01*
X517851Y139551D01*
X518412Y140282D01*
X518764Y141134D01*
X518885Y142047D01*
X518764Y142961D01*
X518580Y143406D01*
X520406Y145232D01*
X520627Y145563D01*
X520705Y145953D01*
Y167409D01*
X520627Y167800D01*
X520406Y168130D01*
X518343Y170193D01*
X518412Y170282D01*
X518764Y171134D01*
X518885Y172047D01*
X518764Y172961D01*
X518412Y173812D01*
X517851Y174543D01*
X517119Y175104D01*
X516268Y175457D01*
X515354Y175577D01*
D02*
G37*
G36*
X498819Y165577D02*
X497905Y165457D01*
X497054Y165104D01*
X496323Y164543D01*
X495762Y163812D01*
X495409Y162961D01*
X495289Y162047D01*
X495409Y161134D01*
X495762Y160282D01*
X496323Y159551D01*
X497054Y158990D01*
X497905Y158637D01*
X498819Y158517D01*
X499733Y158637D01*
X500584Y158990D01*
X501315Y159551D01*
X501876Y160282D01*
X502229Y161134D01*
X502349Y162047D01*
X502229Y162961D01*
X501876Y163812D01*
X501315Y164543D01*
X500584Y165104D01*
X499733Y165457D01*
X498819Y165577D01*
D02*
G37*
G36*
X185000Y164982D02*
X184099Y164864D01*
X183259Y164516D01*
X182537Y163962D01*
X181984Y163241D01*
X181636Y162401D01*
X181518Y161500D01*
X181636Y160599D01*
X181984Y159759D01*
X182537Y159037D01*
X183259Y158484D01*
X184099Y158136D01*
X185000Y158018D01*
X185901Y158136D01*
X186741Y158484D01*
X187462Y159037D01*
X188016Y159759D01*
X188364Y160599D01*
X188482Y161500D01*
X188364Y162401D01*
X188016Y163241D01*
X187462Y163962D01*
X186741Y164516D01*
X185901Y164864D01*
X185000Y164982D01*
D02*
G37*
G36*
X190453Y157718D02*
X189797Y157588D01*
X189241Y157216D01*
X189112Y157024D01*
X179504D01*
X179114Y156946D01*
X178783Y156725D01*
X176623Y154565D01*
X175901Y154864D01*
X175000Y154982D01*
X174099Y154864D01*
X173259Y154516D01*
X172538Y153963D01*
X171984Y153241D01*
X171636Y152401D01*
X171518Y151500D01*
X171636Y150599D01*
X171984Y149759D01*
X172538Y149038D01*
X173259Y148484D01*
X174099Y148136D01*
X175000Y148018D01*
X175901Y148136D01*
X176741Y148484D01*
X177462Y149038D01*
X178016Y149759D01*
X178364Y150599D01*
X178482Y151500D01*
X178364Y152401D01*
X178065Y153123D01*
X179926Y154984D01*
X182881D01*
X183218Y154540D01*
X183218Y154484D01*
X182537Y153963D01*
X181984Y153241D01*
X181636Y152401D01*
X181518Y151500D01*
X181636Y150599D01*
X181984Y149759D01*
X182537Y149038D01*
X183259Y148484D01*
X184099Y148136D01*
X185000Y148018D01*
X185901Y148136D01*
X186741Y148484D01*
X187462Y149038D01*
X188016Y149759D01*
X188364Y150599D01*
X188482Y151500D01*
X188364Y152401D01*
X188016Y153241D01*
X187462Y153963D01*
X186783Y154484D01*
X186782Y154540D01*
X187119Y154984D01*
X189112D01*
X189241Y154792D01*
X189797Y154420D01*
X190453Y154290D01*
X191109Y154420D01*
X191665Y154792D01*
X192036Y155348D01*
X192167Y156004D01*
X192036Y156660D01*
X191665Y157216D01*
X191109Y157588D01*
X190453Y157718D01*
D02*
G37*
G36*
X33465Y185966D02*
X32809Y185836D01*
X32253Y185464D01*
X31881Y184908D01*
X31751Y184252D01*
X31881Y183596D01*
X32253Y183040D01*
X32445Y182911D01*
Y153309D01*
X32253Y153181D01*
X31881Y152624D01*
X31751Y151969D01*
X31881Y151313D01*
X32253Y150757D01*
X32809Y150385D01*
X33465Y150254D01*
X34121Y150385D01*
X34677Y150757D01*
X35048Y151313D01*
X35179Y151969D01*
X35048Y152624D01*
X34677Y153181D01*
X34484Y153309D01*
Y182911D01*
X34677Y183040D01*
X35048Y183596D01*
X35179Y184252D01*
X35048Y184908D01*
X34677Y185464D01*
X34121Y185836D01*
X33465Y185966D01*
D02*
G37*
G36*
X498819Y155577D02*
X497905Y155457D01*
X497054Y155104D01*
X496323Y154543D01*
X495762Y153812D01*
X495409Y152961D01*
X495289Y152047D01*
X495409Y151134D01*
X495762Y150282D01*
X496323Y149551D01*
X497054Y148990D01*
X497905Y148637D01*
X498819Y148517D01*
X499733Y148637D01*
X500584Y148990D01*
X501315Y149551D01*
X501876Y150282D01*
X502229Y151134D01*
X502349Y152047D01*
X502229Y152961D01*
X501876Y153812D01*
X501315Y154543D01*
X500584Y155104D01*
X499733Y155457D01*
X498819Y155577D01*
D02*
G37*
G36*
Y175577D02*
X497905Y175457D01*
X497054Y175104D01*
X496323Y174543D01*
X495762Y173812D01*
X495409Y172961D01*
X495289Y172047D01*
X495409Y171134D01*
X495762Y170282D01*
X496323Y169551D01*
X497054Y168990D01*
X497905Y168637D01*
X498819Y168517D01*
X499551Y168613D01*
X502917Y165247D01*
Y147903D01*
X500255Y145241D01*
X499733Y145457D01*
X498819Y145577D01*
X497905Y145457D01*
X497054Y145105D01*
X496323Y144544D01*
X495762Y143812D01*
X495409Y142961D01*
X495289Y142047D01*
X495409Y141134D01*
X495762Y140282D01*
X496323Y139551D01*
X497054Y138990D01*
X497905Y138637D01*
X498819Y138517D01*
X499733Y138637D01*
X500584Y138990D01*
X501315Y139551D01*
X501876Y140282D01*
X502229Y141134D01*
X502349Y142047D01*
X502229Y142961D01*
X501876Y143812D01*
X501804Y143906D01*
X504658Y146759D01*
X504879Y147090D01*
X504957Y147480D01*
Y165669D01*
X504879Y166060D01*
X504658Y166390D01*
X501394Y169654D01*
X501876Y170282D01*
X502229Y171134D01*
X502349Y172047D01*
X502229Y172961D01*
X501876Y173812D01*
X501315Y174543D01*
X500584Y175104D01*
X499733Y175457D01*
X498819Y175577D01*
D02*
G37*
G36*
X190551Y147383D02*
X189895Y147253D01*
X189339Y146881D01*
X189211Y146689D01*
X179169D01*
X178779Y146611D01*
X178448Y146390D01*
X176623Y144565D01*
X175901Y144864D01*
X175000Y144983D01*
X174099Y144864D01*
X173259Y144516D01*
X172538Y143963D01*
X171984Y143241D01*
X171636Y142401D01*
X171518Y141500D01*
X171636Y140599D01*
X171984Y139759D01*
X172538Y139038D01*
X173259Y138484D01*
X174099Y138136D01*
X175000Y138017D01*
X175901Y138136D01*
X176741Y138484D01*
X177462Y139038D01*
X178016Y139759D01*
X178364Y140599D01*
X178482Y141500D01*
X178364Y142401D01*
X178065Y143123D01*
X179592Y144650D01*
X182612D01*
X182781Y144150D01*
X182537Y143963D01*
X181984Y143241D01*
X181636Y142401D01*
X181518Y141500D01*
X181636Y140599D01*
X181984Y139759D01*
X182537Y139038D01*
X183259Y138484D01*
X184099Y138136D01*
X184117Y138134D01*
X184084Y137634D01*
X180114D01*
X179724Y137556D01*
X179393Y137335D01*
X176623Y134565D01*
X175901Y134864D01*
X175000Y134983D01*
X174099Y134864D01*
X173259Y134516D01*
X172538Y133963D01*
X171984Y133241D01*
X171636Y132401D01*
X171518Y131500D01*
X171636Y130599D01*
X171984Y129759D01*
X172538Y129037D01*
X173259Y128484D01*
X174099Y128136D01*
X175000Y128017D01*
X175901Y128136D01*
X176741Y128484D01*
X177462Y129037D01*
X178016Y129759D01*
X178364Y130599D01*
X178482Y131500D01*
X178364Y132401D01*
X178065Y133123D01*
X180536Y135595D01*
X189112D01*
X189241Y135402D01*
X189797Y135031D01*
X190453Y134900D01*
X191109Y135031D01*
X191665Y135402D01*
X192036Y135958D01*
X192167Y136614D01*
X192036Y137270D01*
X191665Y137826D01*
X191109Y138198D01*
X190453Y138328D01*
X189797Y138198D01*
X189241Y137826D01*
X189112Y137634D01*
X185916D01*
X185883Y138134D01*
X185901Y138136D01*
X186741Y138484D01*
X187462Y139038D01*
X188016Y139759D01*
X188364Y140599D01*
X188482Y141500D01*
X188364Y142401D01*
X188016Y143241D01*
X187462Y143963D01*
X187219Y144150D01*
X187388Y144650D01*
X189211D01*
X189339Y144457D01*
X189895Y144086D01*
X190551Y143955D01*
X191207Y144086D01*
X191763Y144457D01*
X192135Y145013D01*
X192265Y145669D01*
X192135Y146325D01*
X191763Y146881D01*
X191207Y147253D01*
X190551Y147383D01*
D02*
G37*
G36*
X449311Y142063D02*
X448770Y141955D01*
X448343Y141669D01*
X430287D01*
X429859Y141955D01*
X429318Y142063D01*
X428777Y141955D01*
X428319Y141649D01*
X428013Y141190D01*
X427905Y140650D01*
X428013Y140109D01*
X428319Y139650D01*
X428777Y139344D01*
X429318Y139237D01*
X429859Y139344D01*
X430287Y139630D01*
X448343D01*
X448770Y139344D01*
X449311Y139237D01*
X449852Y139344D01*
X450310Y139650D01*
X450616Y140109D01*
X450724Y140650D01*
X450616Y141190D01*
X450310Y141649D01*
X449852Y141955D01*
X449311Y142063D01*
D02*
G37*
G36*
X528819Y145577D02*
X527905Y145457D01*
X527054Y145105D01*
X526323Y144544D01*
X525762Y143812D01*
X525409Y142961D01*
X525289Y142047D01*
X525409Y141134D01*
X525762Y140282D01*
X526323Y139551D01*
X527054Y138990D01*
X527905Y138637D01*
X528819Y138517D01*
X529733Y138637D01*
X530584Y138990D01*
X531315Y139551D01*
X531876Y140282D01*
X532229Y141134D01*
X532349Y142047D01*
X532229Y142961D01*
X531876Y143812D01*
X531315Y144544D01*
X530584Y145105D01*
X529733Y145457D01*
X528819Y145577D01*
D02*
G37*
G36*
X398610Y150618D02*
X398070Y150510D01*
X397611Y150204D01*
X397305Y149745D01*
X397197Y149205D01*
X397305Y148664D01*
X397611Y148206D01*
X398070Y147899D01*
X398574Y147799D01*
X400555Y145818D01*
Y140732D01*
X400269Y140305D01*
X400162Y139764D01*
X400269Y139223D01*
X400576Y138765D01*
X401034Y138458D01*
X401575Y138351D01*
X402115Y138458D01*
X402574Y138765D01*
X402880Y139223D01*
X402988Y139764D01*
X402880Y140305D01*
X402594Y140732D01*
Y146240D01*
X402517Y146630D01*
X402296Y146961D01*
X400016Y149241D01*
X399916Y149745D01*
X399609Y150204D01*
X399151Y150510D01*
X398610Y150618D01*
D02*
G37*
G36*
X-15748Y141478D02*
X-16404Y141347D01*
X-16960Y140976D01*
X-17332Y140420D01*
X-17462Y139764D01*
X-17391Y139409D01*
X-33598Y123203D01*
X-34219Y123256D01*
X-34221Y123259D01*
X-34777Y123631D01*
X-35433Y123761D01*
X-36089Y123631D01*
X-36645Y123259D01*
X-37017Y122703D01*
X-37147Y122047D01*
X-37017Y121391D01*
X-36645Y120835D01*
X-36089Y120464D01*
X-35433Y120333D01*
X-34777Y120464D01*
X-34221Y120835D01*
X-34020Y121136D01*
X-33465D01*
X-33116Y121205D01*
X-32820Y121403D01*
X-16103Y138120D01*
X-15748Y138050D01*
X-15092Y138180D01*
X-14536Y138552D01*
X-14164Y139108D01*
X-14034Y139764D01*
X-14164Y140420D01*
X-14536Y140976D01*
X-15092Y141347D01*
X-15748Y141478D01*
D02*
G37*
G36*
X449311Y137633D02*
X448770Y137526D01*
X448343Y137240D01*
X433463D01*
X433073Y137162D01*
X432742Y136941D01*
X431570Y135770D01*
X431066Y135669D01*
X430607Y135363D01*
X430301Y134905D01*
X430194Y134364D01*
X430301Y133823D01*
X430607Y133365D01*
X431066Y133059D01*
X431606Y132951D01*
X432147Y133059D01*
X432606Y133365D01*
X432912Y133823D01*
X433012Y134328D01*
X433885Y135201D01*
X448343D01*
X448770Y134915D01*
X449311Y134808D01*
X449852Y134915D01*
X450310Y135221D01*
X450616Y135680D01*
X450724Y136221D01*
X450616Y136761D01*
X450310Y137220D01*
X449852Y137526D01*
X449311Y137633D01*
D02*
G37*
G36*
X528819Y135577D02*
X527905Y135457D01*
X527054Y135105D01*
X526323Y134544D01*
X525762Y133812D01*
X525409Y132961D01*
X525289Y132047D01*
X525409Y131134D01*
X525762Y130282D01*
X526323Y129551D01*
X527054Y128990D01*
X527905Y128637D01*
X528819Y128517D01*
X529733Y128637D01*
X530584Y128990D01*
X531315Y129551D01*
X531876Y130282D01*
X532229Y131134D01*
X532349Y132047D01*
X532229Y132961D01*
X531876Y133812D01*
X531315Y134544D01*
X530584Y135105D01*
X529733Y135457D01*
X528819Y135577D01*
D02*
G37*
G36*
X185000Y134983D02*
X184099Y134864D01*
X183259Y134516D01*
X182537Y133963D01*
X181984Y133241D01*
X181636Y132401D01*
X181518Y131500D01*
X181636Y130599D01*
X181984Y129759D01*
X182537Y129037D01*
X183125Y128586D01*
X182957Y128086D01*
X180567D01*
X180177Y128009D01*
X179846Y127788D01*
X176623Y124565D01*
X175901Y124864D01*
X175000Y124983D01*
X174099Y124864D01*
X173259Y124516D01*
X172538Y123962D01*
X171984Y123241D01*
X171636Y122401D01*
X171518Y121500D01*
X171636Y120599D01*
X171984Y119759D01*
X172538Y119037D01*
X173259Y118484D01*
X174099Y118136D01*
X175000Y118017D01*
X175901Y118136D01*
X176741Y118484D01*
X177462Y119037D01*
X178016Y119759D01*
X178364Y120599D01*
X178482Y121500D01*
X178364Y122401D01*
X178065Y123123D01*
X180989Y126047D01*
X189112D01*
X189241Y125855D01*
X189797Y125483D01*
X190453Y125353D01*
X191109Y125483D01*
X191665Y125855D01*
X192036Y126411D01*
X192167Y127067D01*
X192036Y127723D01*
X191665Y128279D01*
X191109Y128650D01*
X190453Y128781D01*
X189797Y128650D01*
X189241Y128279D01*
X189112Y128086D01*
X187043D01*
X186875Y128586D01*
X187462Y129037D01*
X188016Y129759D01*
X188364Y130599D01*
X188482Y131500D01*
X188364Y132401D01*
X188016Y133241D01*
X187462Y133963D01*
X186741Y134516D01*
X185901Y134864D01*
X185000Y134983D01*
D02*
G37*
G36*
X399642Y134194D02*
X399101Y134087D01*
X398643Y133781D01*
X398337Y133322D01*
X398229Y132781D01*
X398337Y132241D01*
X398605Y131840D01*
Y127373D01*
X398301Y126919D01*
X398193Y126378D01*
X398301Y125837D01*
X398607Y125379D01*
X399066Y125073D01*
X399606Y124965D01*
X400147Y125073D01*
X400605Y125379D01*
X400912Y125837D01*
X401019Y126378D01*
X400912Y126919D01*
X400644Y127320D01*
Y131786D01*
X400947Y132241D01*
X401055Y132781D01*
X400947Y133322D01*
X400641Y133781D01*
X400183Y134087D01*
X399642Y134194D01*
D02*
G37*
G36*
X515354Y135577D02*
X514441Y135457D01*
X513589Y135105D01*
X512858Y134544D01*
X512297Y133812D01*
X511944Y132961D01*
X511824Y132047D01*
X511944Y131134D01*
X512297Y130282D01*
X512858Y129551D01*
X513589Y128990D01*
X514441Y128637D01*
X515354Y128517D01*
X516268Y128637D01*
X516774Y128847D01*
X519059Y126562D01*
Y123556D01*
X518559Y123456D01*
X518412Y123812D01*
X517851Y124543D01*
X517119Y125104D01*
X516268Y125457D01*
X515354Y125577D01*
X514441Y125457D01*
X513589Y125104D01*
X512858Y124543D01*
X512297Y123812D01*
X511944Y122961D01*
X511824Y122047D01*
X511944Y121134D01*
X512297Y120282D01*
X512858Y119551D01*
X513589Y118990D01*
X514441Y118637D01*
X515354Y118517D01*
X516268Y118637D01*
X517119Y118990D01*
X517851Y119551D01*
X518412Y120282D01*
X518559Y120638D01*
X519059Y120539D01*
Y113556D01*
X518559Y113456D01*
X518412Y113812D01*
X517851Y114543D01*
X517119Y115104D01*
X516268Y115457D01*
X515354Y115577D01*
X514441Y115457D01*
X513589Y115104D01*
X512858Y114543D01*
X512297Y113812D01*
X511944Y112961D01*
X511824Y112047D01*
X511944Y111134D01*
X512297Y110282D01*
X512858Y109551D01*
X513589Y108990D01*
X514441Y108637D01*
X515354Y108517D01*
X516268Y108637D01*
X517119Y108990D01*
X517851Y109551D01*
X518412Y110282D01*
X518559Y110638D01*
X519059Y110539D01*
Y106737D01*
X517293Y104971D01*
X517119Y105104D01*
X516268Y105457D01*
X515354Y105577D01*
X514441Y105457D01*
X513589Y105104D01*
X512858Y104543D01*
X512297Y103812D01*
X511944Y102961D01*
X511824Y102047D01*
X511944Y101134D01*
X512297Y100282D01*
X512858Y99551D01*
X513589Y98990D01*
X514441Y98637D01*
X515354Y98517D01*
X516268Y98637D01*
X517119Y98990D01*
X517851Y99551D01*
X518412Y100282D01*
X518764Y101134D01*
X518885Y102047D01*
X518764Y102961D01*
X518589Y103384D01*
X520800Y105594D01*
X521021Y105925D01*
X521098Y106315D01*
Y126984D01*
X521021Y127374D01*
X520800Y127705D01*
X518330Y130175D01*
X518412Y130282D01*
X518764Y131134D01*
X518885Y132047D01*
X518764Y132961D01*
X518412Y133812D01*
X517851Y134544D01*
X517119Y135105D01*
X516268Y135457D01*
X515354Y135577D01*
D02*
G37*
G36*
X45276Y145214D02*
X44697Y145099D01*
X44205Y144771D01*
X43878Y144280D01*
X43762Y143701D01*
X43878Y143122D01*
X44205Y142631D01*
X44364Y142525D01*
Y137397D01*
X44205Y137291D01*
X43878Y136800D01*
X43762Y136221D01*
X43878Y135641D01*
X44205Y135150D01*
X44364Y135044D01*
Y129916D01*
X44205Y129810D01*
X43878Y129319D01*
X43762Y128740D01*
X43878Y128161D01*
X44205Y127670D01*
X44364Y127564D01*
Y122436D01*
X44205Y122330D01*
X43878Y121839D01*
X43762Y121260D01*
X43878Y120681D01*
X44205Y120190D01*
X44697Y119862D01*
X45276Y119746D01*
X45855Y119862D01*
X46346Y120190D01*
X46674Y120681D01*
X46789Y121260D01*
X46674Y121839D01*
X46346Y122330D01*
X46187Y122436D01*
Y127564D01*
X46346Y127670D01*
X46674Y128161D01*
X46789Y128740D01*
X46674Y129319D01*
X46346Y129810D01*
X46187Y129916D01*
Y135044D01*
X46346Y135150D01*
X46674Y135641D01*
X46789Y136221D01*
X46674Y136800D01*
X46346Y137291D01*
X46187Y137397D01*
Y142525D01*
X46346Y142631D01*
X46674Y143122D01*
X46789Y143701D01*
X46674Y144280D01*
X46346Y144771D01*
X45855Y145099D01*
X45276Y145214D01*
D02*
G37*
G36*
X498819Y125577D02*
X497905Y125457D01*
X497054Y125104D01*
X496323Y124543D01*
X495762Y123812D01*
X495409Y122961D01*
X495289Y122047D01*
X495409Y121134D01*
X495762Y120282D01*
X496323Y119551D01*
X497054Y118990D01*
X497905Y118637D01*
X498819Y118517D01*
X499733Y118637D01*
X500584Y118990D01*
X501315Y119551D01*
X501876Y120282D01*
X502229Y121134D01*
X502349Y122047D01*
X502229Y122961D01*
X501876Y123812D01*
X501315Y124543D01*
X500584Y125104D01*
X499733Y125457D01*
X498819Y125577D01*
D02*
G37*
G36*
X185000Y124983D02*
X184099Y124864D01*
X183259Y124516D01*
X182537Y123962D01*
X181984Y123241D01*
X181636Y122401D01*
X181518Y121500D01*
X181636Y120599D01*
X181984Y119759D01*
X182537Y119037D01*
X183259Y118484D01*
X183344Y118449D01*
X183245Y117949D01*
X180429D01*
X180039Y117871D01*
X179708Y117650D01*
X176623Y114565D01*
X175901Y114864D01*
X175000Y114982D01*
X174099Y114864D01*
X173259Y114516D01*
X172538Y113962D01*
X171984Y113241D01*
X171636Y112401D01*
X171518Y111500D01*
X171636Y110599D01*
X171984Y109759D01*
X172538Y109037D01*
X173259Y108484D01*
X174099Y108136D01*
X175000Y108018D01*
X175901Y108136D01*
X176741Y108484D01*
X177462Y109037D01*
X178016Y109759D01*
X178364Y110599D01*
X178482Y111500D01*
X178364Y112401D01*
X178065Y113123D01*
X180851Y115910D01*
X189112D01*
X189241Y115717D01*
X189797Y115346D01*
X190453Y115215D01*
X191109Y115346D01*
X191665Y115717D01*
X192036Y116273D01*
X192167Y116929D01*
X192036Y117585D01*
X191665Y118141D01*
X191109Y118513D01*
X190453Y118643D01*
X189797Y118513D01*
X189241Y118141D01*
X189112Y117949D01*
X186756D01*
X186656Y118449D01*
X186741Y118484D01*
X187462Y119037D01*
X188016Y119759D01*
X188364Y120599D01*
X188482Y121500D01*
X188364Y122401D01*
X188016Y123241D01*
X187462Y123962D01*
X186741Y124516D01*
X185901Y124864D01*
X185000Y124983D01*
D02*
G37*
G36*
X498819Y115577D02*
X497905Y115457D01*
X497054Y115104D01*
X496323Y114543D01*
X495762Y113812D01*
X495409Y112961D01*
X495289Y112047D01*
X495409Y111134D01*
X495762Y110282D01*
X496323Y109551D01*
X497054Y108990D01*
X497905Y108637D01*
X498819Y108517D01*
X499733Y108637D01*
X500584Y108990D01*
X501315Y109551D01*
X501876Y110282D01*
X502229Y111134D01*
X502349Y112047D01*
X502229Y112961D01*
X501876Y113812D01*
X501315Y114543D01*
X500584Y115104D01*
X499733Y115457D01*
X498819Y115577D01*
D02*
G37*
G36*
X1969Y128092D02*
X1313Y127962D01*
X757Y127590D01*
X385Y127034D01*
X255Y126378D01*
X385Y125722D01*
X757Y125166D01*
X949Y125037D01*
Y108665D01*
X756Y108376D01*
X656Y107874D01*
X756Y107372D01*
X1040Y106946D01*
X1466Y106661D01*
X1969Y106561D01*
X2471Y106661D01*
X2897Y106946D01*
X3181Y107372D01*
X3281Y107874D01*
X3181Y108376D01*
X2988Y108665D01*
Y125037D01*
X3181Y125166D01*
X3552Y125722D01*
X3683Y126378D01*
X3552Y127034D01*
X3181Y127590D01*
X2624Y127962D01*
X1969Y128092D01*
D02*
G37*
G36*
X498819Y135577D02*
X497905Y135457D01*
X497054Y135105D01*
X496323Y134544D01*
X495762Y133812D01*
X495409Y132961D01*
X495289Y132047D01*
X495409Y131134D01*
X495762Y130282D01*
X496323Y129551D01*
X497054Y128990D01*
X497905Y128637D01*
X498819Y128517D01*
X499171Y128563D01*
X503705Y124030D01*
Y108659D01*
X500278Y105231D01*
X499733Y105457D01*
X498819Y105577D01*
X497905Y105457D01*
X497054Y105104D01*
X496323Y104543D01*
X495762Y103812D01*
X495409Y102961D01*
X495289Y102047D01*
X495409Y101134D01*
X495762Y100282D01*
X496323Y99551D01*
X497054Y98990D01*
X497905Y98637D01*
X498819Y98517D01*
X499733Y98637D01*
X500584Y98990D01*
X501315Y99551D01*
X501876Y100282D01*
X502229Y101134D01*
X502349Y102047D01*
X502229Y102961D01*
X501876Y103812D01*
X501818Y103888D01*
X505445Y107515D01*
X505666Y107846D01*
X505744Y108236D01*
Y124452D01*
X505666Y124842D01*
X505445Y125173D01*
X501300Y129319D01*
X501315Y129551D01*
X501876Y130282D01*
X502229Y131134D01*
X502349Y132047D01*
X502229Y132961D01*
X501876Y133812D01*
X501315Y134544D01*
X500584Y135105D01*
X499733Y135457D01*
X498819Y135577D01*
D02*
G37*
G36*
X185000Y114982D02*
X184099Y114864D01*
X183259Y114516D01*
X182537Y113962D01*
X181984Y113241D01*
X181636Y112401D01*
X181518Y111500D01*
X181636Y110599D01*
X181984Y109759D01*
X182537Y109037D01*
X183259Y108484D01*
X183439Y108409D01*
X183340Y107909D01*
X180390D01*
X180000Y107832D01*
X179669Y107611D01*
X176623Y104565D01*
X175901Y104864D01*
X175000Y104982D01*
X174099Y104864D01*
X173259Y104516D01*
X172538Y103963D01*
X171984Y103241D01*
X171636Y102401D01*
X171518Y101500D01*
X171636Y100599D01*
X171984Y99759D01*
X172538Y99037D01*
X173259Y98484D01*
X174099Y98136D01*
X175000Y98018D01*
X175901Y98136D01*
X176741Y98484D01*
X177462Y99037D01*
X178016Y99759D01*
X178364Y100599D01*
X178482Y101500D01*
X178364Y102401D01*
X178065Y103123D01*
X180812Y105870D01*
X189112D01*
X189241Y105678D01*
X189797Y105306D01*
X190453Y105176D01*
X191109Y105306D01*
X191665Y105678D01*
X192036Y106234D01*
X192167Y106890D01*
X192036Y107546D01*
X191665Y108102D01*
X191109Y108473D01*
X190453Y108604D01*
X189797Y108473D01*
X189241Y108102D01*
X189112Y107909D01*
X186660D01*
X186561Y108409D01*
X186741Y108484D01*
X187462Y109037D01*
X188016Y109759D01*
X188364Y110599D01*
X188482Y111500D01*
X188364Y112401D01*
X188016Y113241D01*
X187462Y113962D01*
X186741Y114516D01*
X185901Y114864D01*
X185000Y114982D01*
D02*
G37*
G36*
X449311Y102397D02*
X448770Y102290D01*
X448343Y102004D01*
X430680D01*
X430253Y102290D01*
X429712Y102397D01*
X429171Y102290D01*
X428713Y101983D01*
X428406Y101525D01*
X428299Y100984D01*
X428406Y100443D01*
X428713Y99985D01*
X429171Y99679D01*
X429712Y99571D01*
X430253Y99679D01*
X430680Y99965D01*
X448343D01*
X448770Y99679D01*
X449311Y99571D01*
X449852Y99679D01*
X450310Y99985D01*
X450616Y100443D01*
X450724Y100984D01*
X450616Y101525D01*
X450310Y101983D01*
X449852Y102290D01*
X449311Y102397D01*
D02*
G37*
G36*
X399004Y110952D02*
X398463Y110845D01*
X398005Y110538D01*
X397698Y110080D01*
X397591Y109539D01*
X397698Y108999D01*
X398005Y108540D01*
X398463Y108234D01*
X398968Y108134D01*
X400949Y106152D01*
Y100969D01*
X400663Y100541D01*
X400556Y100000D01*
X400663Y99459D01*
X400969Y99001D01*
X401428Y98695D01*
X401968Y98587D01*
X402509Y98695D01*
X402968Y99001D01*
X403274Y99459D01*
X403381Y100000D01*
X403274Y100541D01*
X402988Y100969D01*
Y106575D01*
X402911Y106965D01*
X402690Y107296D01*
X400410Y109575D01*
X400309Y110080D01*
X400003Y110538D01*
X399545Y110845D01*
X399004Y110952D01*
D02*
G37*
G36*
X528819Y105577D02*
X527905Y105457D01*
X527054Y105104D01*
X526323Y104543D01*
X525762Y103812D01*
X525409Y102961D01*
X525289Y102047D01*
X525409Y101134D01*
X525762Y100282D01*
X526323Y99551D01*
X527054Y98990D01*
X527905Y98637D01*
X528819Y98517D01*
X529733Y98637D01*
X530584Y98990D01*
X531315Y99551D01*
X531876Y100282D01*
X532229Y101134D01*
X532349Y102047D01*
X532229Y102961D01*
X531876Y103812D01*
X531315Y104543D01*
X530584Y105104D01*
X529733Y105457D01*
X528819Y105577D01*
D02*
G37*
G36*
X185000Y104982D02*
X184099Y104864D01*
X183259Y104516D01*
X182537Y103963D01*
X181984Y103241D01*
X181636Y102401D01*
X181518Y101500D01*
X181636Y100599D01*
X181984Y99759D01*
X182537Y99037D01*
X183259Y98484D01*
X184099Y98136D01*
X185000Y98018D01*
X185901Y98136D01*
X186741Y98484D01*
X187462Y99037D01*
X188016Y99759D01*
X188364Y100599D01*
X188482Y101500D01*
X188364Y102401D01*
X188016Y103241D01*
X187462Y103963D01*
X186741Y104516D01*
X185901Y104864D01*
X185000Y104982D01*
D02*
G37*
G36*
X449311Y94720D02*
X448770Y94612D01*
X448312Y94306D01*
X448006Y93848D01*
X447999Y93816D01*
X432642D01*
X432214Y94102D01*
X431673Y94210D01*
X431132Y94102D01*
X430674Y93796D01*
X430368Y93338D01*
X430260Y92797D01*
X430368Y92256D01*
X430674Y91798D01*
X431132Y91491D01*
X431673Y91384D01*
X432214Y91491D01*
X432642Y91777D01*
X448592D01*
X448982Y91855D01*
X449103Y91935D01*
X449311Y91894D01*
X449852Y92002D01*
X450310Y92308D01*
X450616Y92766D01*
X450724Y93307D01*
X450616Y93848D01*
X450310Y94306D01*
X449852Y94612D01*
X449311Y94720D01*
D02*
G37*
G36*
X528819Y95577D02*
X527905Y95457D01*
X527054Y95104D01*
X526323Y94543D01*
X525762Y93812D01*
X525409Y92961D01*
X525289Y92047D01*
X525409Y91134D01*
X525762Y90282D01*
X526323Y89551D01*
X527054Y88990D01*
X527905Y88637D01*
X528819Y88517D01*
X529733Y88637D01*
X530584Y88990D01*
X531315Y89551D01*
X531876Y90282D01*
X532229Y91134D01*
X532349Y92047D01*
X532229Y92961D01*
X531876Y93812D01*
X531315Y94543D01*
X530584Y95104D01*
X529733Y95457D01*
X528819Y95577D01*
D02*
G37*
G36*
X399709Y92627D02*
X399168Y92520D01*
X398710Y92213D01*
X398403Y91755D01*
X398296Y91214D01*
X398325Y91064D01*
X398283Y91022D01*
X398062Y90691D01*
X397984Y90301D01*
Y86000D01*
X397698Y85572D01*
X397591Y85031D01*
X397698Y84491D01*
X398005Y84032D01*
X398463Y83726D01*
X399004Y83618D01*
X399545Y83726D01*
X400003Y84032D01*
X400309Y84491D01*
X400417Y85031D01*
X400309Y85572D01*
X400024Y86000D01*
Y89864D01*
X400249Y89909D01*
X400708Y90215D01*
X401014Y90674D01*
X401122Y91214D01*
X401014Y91755D01*
X400708Y92213D01*
X400249Y92520D01*
X399709Y92627D01*
D02*
G37*
G36*
X498819Y95577D02*
X497905Y95457D01*
X497054Y95104D01*
X496323Y94543D01*
X495762Y93812D01*
X495409Y92961D01*
X495289Y92047D01*
X495409Y91134D01*
X495762Y90282D01*
X496323Y89551D01*
X497054Y88990D01*
X497905Y88637D01*
X498819Y88517D01*
X499342Y88586D01*
X502524Y85404D01*
Y83556D01*
X502024Y83456D01*
X501876Y83812D01*
X501315Y84544D01*
X500584Y85105D01*
X499733Y85457D01*
X498819Y85577D01*
X497905Y85457D01*
X497054Y85105D01*
X496323Y84544D01*
X495762Y83812D01*
X495409Y82961D01*
X495289Y82047D01*
X495409Y81134D01*
X495762Y80282D01*
X496323Y79551D01*
X497054Y78990D01*
X497905Y78637D01*
X498819Y78517D01*
X499733Y78637D01*
X500584Y78990D01*
X501315Y79551D01*
X501876Y80282D01*
X502024Y80638D01*
X502524Y80539D01*
Y73555D01*
X502024Y73456D01*
X501876Y73812D01*
X501315Y74543D01*
X500584Y75104D01*
X499733Y75457D01*
X498819Y75577D01*
X497905Y75457D01*
X497054Y75104D01*
X496323Y74543D01*
X495762Y73812D01*
X495409Y72961D01*
X495289Y72047D01*
X495409Y71134D01*
X495762Y70282D01*
X496323Y69551D01*
X497054Y68990D01*
X497905Y68637D01*
X498819Y68517D01*
X499733Y68637D01*
X500584Y68990D01*
X501315Y69551D01*
X501876Y70282D01*
X502024Y70638D01*
X502524Y70539D01*
Y67273D01*
X500422Y65171D01*
X499733Y65457D01*
X498819Y65577D01*
X497905Y65457D01*
X497054Y65105D01*
X496323Y64543D01*
X495762Y63812D01*
X495409Y62961D01*
X495289Y62047D01*
X495409Y61134D01*
X495762Y60282D01*
X496323Y59551D01*
X497054Y58990D01*
X497905Y58637D01*
X498819Y58517D01*
X499733Y58637D01*
X500584Y58990D01*
X501315Y59551D01*
X501876Y60282D01*
X502229Y61134D01*
X502349Y62047D01*
X502229Y62961D01*
X501897Y63762D01*
X504264Y66129D01*
X504485Y66460D01*
X504563Y66850D01*
Y85827D01*
X504485Y86217D01*
X504264Y86548D01*
X501312Y89500D01*
X501315Y89551D01*
X501876Y90282D01*
X502229Y91134D01*
X502349Y92047D01*
X502229Y92961D01*
X501876Y93812D01*
X501315Y94543D01*
X500584Y95104D01*
X499733Y95457D01*
X498819Y95577D01*
D02*
G37*
G36*
X515354Y85577D02*
X514441Y85457D01*
X513589Y85105D01*
X512858Y84544D01*
X512297Y83812D01*
X511944Y82961D01*
X511824Y82047D01*
X511944Y81134D01*
X512297Y80282D01*
X512858Y79551D01*
X513589Y78990D01*
X514441Y78637D01*
X515354Y78517D01*
X516268Y78637D01*
X517119Y78990D01*
X517851Y79551D01*
X518412Y80282D01*
X518764Y81134D01*
X518885Y82047D01*
X518764Y82961D01*
X518412Y83812D01*
X517851Y84544D01*
X517119Y85105D01*
X516268Y85457D01*
X515354Y85577D01*
D02*
G37*
G36*
Y75577D02*
X514441Y75457D01*
X513589Y75104D01*
X512858Y74543D01*
X512297Y73812D01*
X511944Y72961D01*
X511824Y72047D01*
X511944Y71134D01*
X512297Y70282D01*
X512858Y69551D01*
X513589Y68990D01*
X514441Y68637D01*
X515354Y68517D01*
X516268Y68637D01*
X517119Y68990D01*
X517851Y69551D01*
X518412Y70282D01*
X518764Y71134D01*
X518885Y72047D01*
X518764Y72961D01*
X518412Y73812D01*
X517851Y74543D01*
X517119Y75104D01*
X516268Y75457D01*
X515354Y75577D01*
D02*
G37*
G36*
X96353Y71853D02*
X89447D01*
Y64947D01*
X96353D01*
Y71853D01*
D02*
G37*
G36*
X102900Y71882D02*
X101999Y71764D01*
X101159Y71416D01*
X100437Y70863D01*
X99884Y70141D01*
X99536Y69301D01*
X99418Y68400D01*
X99536Y67499D01*
X99884Y66659D01*
X100437Y65938D01*
X101159Y65384D01*
X101999Y65036D01*
X102900Y64917D01*
X103801Y65036D01*
X104641Y65384D01*
X105362Y65938D01*
X105916Y66659D01*
X106264Y67499D01*
X106383Y68400D01*
X106264Y69301D01*
X105916Y70141D01*
X105362Y70863D01*
X104641Y71416D01*
X103801Y71764D01*
X102900Y71882D01*
D02*
G37*
G36*
X515354Y95577D02*
X514441Y95457D01*
X513589Y95104D01*
X512858Y94543D01*
X512297Y93812D01*
X511944Y92961D01*
X511824Y92047D01*
X511944Y91134D01*
X512297Y90282D01*
X512858Y89551D01*
X513589Y88990D01*
X514441Y88637D01*
X515354Y88517D01*
X516268Y88637D01*
X516618Y88782D01*
X519453Y85948D01*
Y66910D01*
X517418Y64876D01*
X517119Y65105D01*
X516268Y65457D01*
X515354Y65577D01*
X514441Y65457D01*
X513589Y65105D01*
X512858Y64543D01*
X512297Y63812D01*
X511944Y62961D01*
X511824Y62047D01*
X511944Y61134D01*
X512297Y60282D01*
X512858Y59551D01*
X513589Y58990D01*
X514441Y58637D01*
X515354Y58517D01*
X516268Y58637D01*
X517119Y58990D01*
X517851Y59551D01*
X518412Y60282D01*
X518764Y61134D01*
X518885Y62047D01*
X518764Y62961D01*
X518654Y63228D01*
X521193Y65767D01*
X521414Y66098D01*
X521492Y66488D01*
Y86370D01*
X521414Y86760D01*
X521193Y87091D01*
X518234Y90051D01*
X518412Y90282D01*
X518764Y91134D01*
X518885Y92047D01*
X518764Y92961D01*
X518412Y93812D01*
X517851Y94543D01*
X517119Y95104D01*
X516268Y95457D01*
X515354Y95577D01*
D02*
G37*
G36*
X449311Y60468D02*
X448770Y60360D01*
X448343Y60075D01*
X430680D01*
X430253Y60360D01*
X429712Y60468D01*
X429171Y60360D01*
X428713Y60054D01*
X428406Y59596D01*
X428299Y59055D01*
X428406Y58514D01*
X428713Y58056D01*
X429171Y57750D01*
X429712Y57642D01*
X430253Y57750D01*
X430680Y58035D01*
X448343D01*
X448770Y57750D01*
X449311Y57642D01*
X449852Y57750D01*
X450310Y58056D01*
X450616Y58514D01*
X450724Y59055D01*
X450616Y59596D01*
X450310Y60054D01*
X449852Y60360D01*
X449311Y60468D01*
D02*
G37*
G36*
X528819Y65577D02*
X527905Y65457D01*
X527054Y65105D01*
X526323Y64543D01*
X525762Y63812D01*
X525409Y62961D01*
X525289Y62047D01*
X525409Y61134D01*
X525762Y60282D01*
X526323Y59551D01*
X527054Y58990D01*
X527905Y58637D01*
X528819Y58517D01*
X529733Y58637D01*
X530584Y58990D01*
X531315Y59551D01*
X531876Y60282D01*
X532229Y61134D01*
X532349Y62047D01*
X532229Y62961D01*
X531876Y63812D01*
X531315Y64543D01*
X530584Y65105D01*
X529733Y65457D01*
X528819Y65577D01*
D02*
G37*
G36*
X399004Y69023D02*
X398463Y68916D01*
X398005Y68609D01*
X397698Y68151D01*
X397591Y67610D01*
X397698Y67070D01*
X398005Y66611D01*
X398463Y66305D01*
X398968Y66204D01*
X400949Y64223D01*
Y58842D01*
X400663Y58415D01*
X400556Y57874D01*
X400663Y57333D01*
X400969Y56875D01*
X401428Y56569D01*
X401968Y56461D01*
X402509Y56569D01*
X402968Y56875D01*
X403274Y57333D01*
X403381Y57874D01*
X403274Y58415D01*
X402988Y58842D01*
Y64646D01*
X402911Y65036D01*
X402690Y65367D01*
X400410Y67646D01*
X400309Y68151D01*
X400003Y68609D01*
X399545Y68916D01*
X399004Y69023D01*
D02*
G37*
G36*
X102900Y61883D02*
X101999Y61764D01*
X101159Y61416D01*
X100437Y60862D01*
X99884Y60141D01*
X99536Y59301D01*
X99418Y58400D01*
X99536Y57499D01*
X99884Y56659D01*
X100437Y55937D01*
X101159Y55384D01*
X101999Y55036D01*
X102900Y54918D01*
X103801Y55036D01*
X104641Y55384D01*
X105362Y55937D01*
X105916Y56659D01*
X106264Y57499D01*
X106383Y58400D01*
X106264Y59301D01*
X105916Y60141D01*
X105362Y60862D01*
X104641Y61416D01*
X103801Y61764D01*
X102900Y61883D01*
D02*
G37*
G36*
X92900D02*
X91999Y61764D01*
X91159Y61416D01*
X90438Y60862D01*
X89884Y60141D01*
X89536Y59301D01*
X89417Y58400D01*
X89536Y57499D01*
X89884Y56659D01*
X90438Y55937D01*
X91159Y55384D01*
X91999Y55036D01*
X92900Y54918D01*
X93801Y55036D01*
X94641Y55384D01*
X95363Y55937D01*
X95916Y56659D01*
X96264Y57499D01*
X96382Y58400D01*
X96264Y59301D01*
X95916Y60141D01*
X95363Y60862D01*
X94641Y61416D01*
X93801Y61764D01*
X92900Y61883D01*
D02*
G37*
G36*
X449311Y54563D02*
X448770Y54455D01*
X448343Y54169D01*
X432940D01*
X432550Y54092D01*
X432219Y53871D01*
X431952Y53603D01*
X431673Y53659D01*
X431132Y53551D01*
X430674Y53245D01*
X430368Y52786D01*
X430260Y52246D01*
X430368Y51705D01*
X430674Y51247D01*
X431132Y50940D01*
X431673Y50833D01*
X432214Y50940D01*
X432672Y51247D01*
X432979Y51705D01*
X432989Y51757D01*
X433362Y52130D01*
X448343D01*
X448770Y51844D01*
X449311Y51737D01*
X449852Y51844D01*
X450310Y52150D01*
X450616Y52609D01*
X450724Y53150D01*
X450616Y53690D01*
X450310Y54149D01*
X449852Y54455D01*
X449311Y54563D01*
D02*
G37*
G36*
X528819Y55577D02*
X527905Y55457D01*
X527054Y55105D01*
X526323Y54544D01*
X525762Y53812D01*
X525409Y52961D01*
X525289Y52047D01*
X525409Y51134D01*
X525762Y50282D01*
X526323Y49551D01*
X527054Y48990D01*
X527905Y48637D01*
X528819Y48517D01*
X529733Y48637D01*
X530584Y48990D01*
X531315Y49551D01*
X531876Y50282D01*
X532229Y51134D01*
X532349Y52047D01*
X532229Y52961D01*
X531876Y53812D01*
X531315Y54544D01*
X530584Y55105D01*
X529733Y55457D01*
X528819Y55577D01*
D02*
G37*
G36*
X102900Y51882D02*
X101999Y51764D01*
X101159Y51416D01*
X100437Y50862D01*
X99884Y50141D01*
X99536Y49301D01*
X99418Y48400D01*
X99536Y47499D01*
X99884Y46659D01*
X100437Y45937D01*
X101159Y45384D01*
X101999Y45036D01*
X102900Y44918D01*
X103801Y45036D01*
X104641Y45384D01*
X105362Y45937D01*
X105916Y46659D01*
X106264Y47499D01*
X106383Y48400D01*
X106264Y49301D01*
X105916Y50141D01*
X105362Y50862D01*
X104641Y51416D01*
X103801Y51764D01*
X102900Y51882D01*
D02*
G37*
G36*
X92900D02*
X91999Y51764D01*
X91159Y51416D01*
X90438Y50862D01*
X89884Y50141D01*
X89536Y49301D01*
X89417Y48400D01*
X89536Y47499D01*
X89884Y46659D01*
X90438Y45937D01*
X91159Y45384D01*
X91999Y45036D01*
X92900Y44918D01*
X93801Y45036D01*
X94641Y45384D01*
X95363Y45937D01*
X95916Y46659D01*
X96264Y47499D01*
X96382Y48400D01*
X96264Y49301D01*
X95916Y50141D01*
X95363Y50862D01*
X94641Y51416D01*
X93801Y51764D01*
X92900Y51882D01*
D02*
G37*
G36*
X515354Y55577D02*
X514441Y55457D01*
X513589Y55105D01*
X512858Y54544D01*
X512297Y53812D01*
X511944Y52961D01*
X511824Y52047D01*
X511944Y51134D01*
X512297Y50282D01*
X512858Y49551D01*
X513589Y48990D01*
X514441Y48637D01*
X515354Y48517D01*
X516268Y48637D01*
X516451Y48713D01*
X519059Y46105D01*
Y43556D01*
X518559Y43456D01*
X518412Y43812D01*
X517851Y44543D01*
X517119Y45105D01*
X516268Y45457D01*
X515354Y45577D01*
X514441Y45457D01*
X513589Y45105D01*
X512858Y44543D01*
X512297Y43812D01*
X511944Y42961D01*
X511824Y42047D01*
X511944Y41134D01*
X512297Y40282D01*
X512858Y39551D01*
X513589Y38990D01*
X514441Y38637D01*
X515354Y38517D01*
X516268Y38637D01*
X517119Y38990D01*
X517851Y39551D01*
X518412Y40282D01*
X518559Y40638D01*
X519059Y40539D01*
Y33555D01*
X518559Y33456D01*
X518412Y33812D01*
X517851Y34543D01*
X517119Y35105D01*
X516268Y35457D01*
X515354Y35577D01*
X514441Y35457D01*
X513589Y35105D01*
X512858Y34543D01*
X512297Y33812D01*
X511944Y32961D01*
X511824Y32047D01*
X511944Y31134D01*
X512297Y30282D01*
X512858Y29551D01*
X513589Y28990D01*
X514441Y28637D01*
X515354Y28517D01*
X516268Y28637D01*
X517119Y28990D01*
X517851Y29551D01*
X518412Y30282D01*
X518559Y30638D01*
X519059Y30539D01*
Y26281D01*
X517552Y24773D01*
X517119Y25104D01*
X516268Y25457D01*
X515354Y25577D01*
X514441Y25457D01*
X513589Y25104D01*
X512858Y24543D01*
X512297Y23812D01*
X511944Y22961D01*
X511824Y22047D01*
X511944Y21134D01*
X512297Y20282D01*
X512858Y19551D01*
X513589Y18990D01*
X514441Y18637D01*
X515354Y18517D01*
X516268Y18637D01*
X517119Y18990D01*
X517851Y19551D01*
X518412Y20282D01*
X518764Y21134D01*
X518885Y22047D01*
X518764Y22961D01*
X518723Y23061D01*
X520800Y25137D01*
X521021Y25468D01*
X521098Y25858D01*
Y46528D01*
X521021Y46918D01*
X520800Y47249D01*
X518131Y49917D01*
X518412Y50282D01*
X518764Y51134D01*
X518885Y52047D01*
X518764Y52961D01*
X518412Y53812D01*
X517851Y54544D01*
X517119Y55105D01*
X516268Y55457D01*
X515354Y55577D01*
D02*
G37*
G36*
X498819D02*
X497905Y55457D01*
X497054Y55105D01*
X496323Y54544D01*
X495762Y53812D01*
X495409Y52961D01*
X495289Y52047D01*
X495409Y51134D01*
X495762Y50282D01*
X496323Y49551D01*
X497054Y48990D01*
X497905Y48637D01*
X498819Y48517D01*
X499391Y48592D01*
X502524Y45460D01*
Y43556D01*
X502024Y43456D01*
X501876Y43812D01*
X501315Y44543D01*
X500584Y45105D01*
X499733Y45457D01*
X498819Y45577D01*
X497905Y45457D01*
X497054Y45105D01*
X496323Y44543D01*
X495762Y43812D01*
X495409Y42961D01*
X495289Y42047D01*
X495409Y41134D01*
X495762Y40282D01*
X496323Y39551D01*
X497054Y38990D01*
X497905Y38637D01*
X498819Y38517D01*
X499733Y38637D01*
X500584Y38990D01*
X501315Y39551D01*
X501876Y40282D01*
X502024Y40638D01*
X502524Y40539D01*
Y33555D01*
X502024Y33456D01*
X501876Y33812D01*
X501315Y34543D01*
X500584Y35105D01*
X499733Y35457D01*
X498819Y35577D01*
X497905Y35457D01*
X497054Y35105D01*
X496323Y34543D01*
X495762Y33812D01*
X495409Y32961D01*
X495289Y32047D01*
X495409Y31134D01*
X495762Y30282D01*
X496323Y29551D01*
X497054Y28990D01*
X497905Y28637D01*
X498819Y28517D01*
X499733Y28637D01*
X500584Y28990D01*
X501315Y29551D01*
X501876Y30282D01*
X502024Y30638D01*
X502524Y30539D01*
Y27328D01*
X500383Y25188D01*
X499733Y25457D01*
X498819Y25577D01*
X497905Y25457D01*
X497054Y25104D01*
X496323Y24543D01*
X495762Y23812D01*
X495409Y22961D01*
X495289Y22047D01*
X495409Y21134D01*
X495762Y20282D01*
X496323Y19551D01*
X497054Y18990D01*
X497905Y18637D01*
X498819Y18517D01*
X499733Y18637D01*
X500584Y18990D01*
X501315Y19551D01*
X501876Y20282D01*
X502229Y21134D01*
X502349Y22047D01*
X502229Y22961D01*
X501881Y23801D01*
X504264Y26185D01*
X504485Y26515D01*
X504563Y26906D01*
Y45882D01*
X504485Y46272D01*
X504264Y46603D01*
X501316Y49552D01*
X501876Y50282D01*
X502229Y51134D01*
X502349Y52047D01*
X502229Y52961D01*
X501876Y53812D01*
X501315Y54544D01*
X500584Y55105D01*
X499733Y55457D01*
X498819Y55577D01*
D02*
G37*
G36*
X399709Y52076D02*
X399168Y51968D01*
X398710Y51662D01*
X398403Y51204D01*
X398296Y50663D01*
X398325Y50513D01*
X398283Y50470D01*
X398062Y50140D01*
X397984Y49749D01*
Y45449D01*
X397698Y45021D01*
X397591Y44480D01*
X397698Y43940D01*
X398005Y43481D01*
X398463Y43175D01*
X399004Y43067D01*
X399545Y43175D01*
X400003Y43481D01*
X400309Y43940D01*
X400417Y44480D01*
X400309Y45021D01*
X400024Y45449D01*
Y49313D01*
X400249Y49358D01*
X400708Y49664D01*
X401014Y50122D01*
X401122Y50663D01*
X401014Y51204D01*
X400708Y51662D01*
X400249Y51968D01*
X399709Y52076D01*
D02*
G37*
G36*
X102900Y41883D02*
X101999Y41764D01*
X101159Y41416D01*
X100437Y40863D01*
X99884Y40141D01*
X99536Y39301D01*
X99418Y38400D01*
X99536Y37499D01*
X99884Y36659D01*
X100437Y35938D01*
X101159Y35384D01*
X101999Y35036D01*
X102900Y34918D01*
X103801Y35036D01*
X104641Y35384D01*
X105362Y35938D01*
X105916Y36659D01*
X106264Y37499D01*
X106383Y38400D01*
X106264Y39301D01*
X105916Y40141D01*
X105362Y40863D01*
X104641Y41416D01*
X103801Y41764D01*
X102900Y41883D01*
D02*
G37*
G36*
X92900D02*
X91999Y41764D01*
X91159Y41416D01*
X90438Y40863D01*
X89884Y40141D01*
X89536Y39301D01*
X89417Y38400D01*
X89536Y37499D01*
X89884Y36659D01*
X90438Y35938D01*
X91159Y35384D01*
X91999Y35036D01*
X92900Y34918D01*
X93801Y35036D01*
X94641Y35384D01*
X95363Y35938D01*
X95916Y36659D01*
X96264Y37499D01*
X96382Y38400D01*
X96264Y39301D01*
X95916Y40141D01*
X95363Y40863D01*
X94641Y41416D01*
X93801Y41764D01*
X92900Y41883D01*
D02*
G37*
G36*
X103650Y31784D02*
Y29150D01*
X106284D01*
X106264Y29301D01*
X105916Y30141D01*
X105362Y30863D01*
X104641Y31416D01*
X103801Y31764D01*
X103650Y31784D01*
D02*
G37*
G36*
X93650D02*
Y29150D01*
X96284D01*
X96264Y29301D01*
X95916Y30141D01*
X95363Y30863D01*
X94641Y31416D01*
X93801Y31764D01*
X93650Y31784D01*
D02*
G37*
G36*
X92150D02*
X91999Y31764D01*
X91159Y31416D01*
X90438Y30863D01*
X89884Y30141D01*
X89536Y29301D01*
X89516Y29150D01*
X92150D01*
Y31784D01*
D02*
G37*
G36*
X102150D02*
X101999Y31764D01*
X101159Y31416D01*
X100437Y30863D01*
X99884Y30141D01*
X99536Y29301D01*
X99516Y29150D01*
X102150D01*
Y31784D01*
D02*
G37*
G36*
X106284Y27650D02*
X103650D01*
Y25016D01*
X103801Y25036D01*
X104641Y25384D01*
X105362Y25938D01*
X105916Y26659D01*
X106264Y27499D01*
X106284Y27650D01*
D02*
G37*
G36*
X96284D02*
X93650D01*
Y25016D01*
X93801Y25036D01*
X94641Y25384D01*
X95363Y25938D01*
X95916Y26659D01*
X96264Y27499D01*
X96284Y27650D01*
D02*
G37*
G36*
X92150D02*
X89516D01*
X89536Y27499D01*
X89884Y26659D01*
X90438Y25938D01*
X91159Y25384D01*
X91999Y25036D01*
X92150Y25016D01*
Y27650D01*
D02*
G37*
G36*
X102150D02*
X99516D01*
X99536Y27499D01*
X99884Y26659D01*
X100437Y25938D01*
X101159Y25384D01*
X101999Y25036D01*
X102150Y25016D01*
Y27650D01*
D02*
G37*
G36*
X449311Y19228D02*
X448770Y19120D01*
X448343Y18835D01*
X430680D01*
X430253Y19120D01*
X429712Y19228D01*
X429171Y19120D01*
X428713Y18814D01*
X428406Y18356D01*
X428299Y17815D01*
X428406Y17274D01*
X428713Y16816D01*
X429171Y16510D01*
X429712Y16402D01*
X430253Y16510D01*
X430680Y16795D01*
X448343D01*
X448770Y16510D01*
X449311Y16402D01*
X449852Y16510D01*
X450310Y16816D01*
X450616Y17274D01*
X450724Y17815D01*
X450616Y18356D01*
X450310Y18814D01*
X449852Y19120D01*
X449311Y19228D01*
D02*
G37*
G36*
X528819Y25577D02*
X527905Y25457D01*
X527054Y25104D01*
X526323Y24543D01*
X525762Y23812D01*
X525409Y22961D01*
X525289Y22047D01*
X525409Y21134D01*
X525762Y20282D01*
X526323Y19551D01*
X527054Y18990D01*
X527905Y18637D01*
X528819Y18517D01*
X529733Y18637D01*
X530584Y18990D01*
X531315Y19551D01*
X531876Y20282D01*
X532229Y21134D01*
X532349Y22047D01*
X532229Y22961D01*
X531876Y23812D01*
X531315Y24543D01*
X530584Y25104D01*
X529733Y25457D01*
X528819Y25577D01*
D02*
G37*
G36*
X399004Y27783D02*
X398463Y27676D01*
X398005Y27369D01*
X397698Y26911D01*
X397591Y26370D01*
X397698Y25829D01*
X398005Y25371D01*
X398463Y25065D01*
X398968Y24964D01*
X400949Y22983D01*
Y17504D01*
X400663Y17076D01*
X400556Y16535D01*
X400663Y15995D01*
X400969Y15536D01*
X401428Y15230D01*
X401968Y15123D01*
X402509Y15230D01*
X402968Y15536D01*
X403274Y15995D01*
X403381Y16535D01*
X403274Y17076D01*
X402988Y17504D01*
Y23405D01*
X402911Y23796D01*
X402690Y24126D01*
X400410Y26406D01*
X400309Y26911D01*
X400003Y27369D01*
X399545Y27676D01*
X399004Y27783D01*
D02*
G37*
%LPD*%
D16*
X515413Y342051D02*
X520079Y346716D01*
X515413Y372051D02*
X520079Y367386D01*
Y346716D02*
Y367386D01*
X497953Y372126D02*
X504331Y365748D01*
X497953Y342126D02*
X504331Y348504D01*
Y365748D01*
X520079Y306716D02*
Y327386D01*
X515413Y302051D02*
X520079Y306716D01*
X515413Y332051D02*
X520079Y327386D01*
X498031Y302102D02*
X503937Y308008D01*
X498031Y332102D02*
X503937Y326197D01*
Y308008D02*
Y326197D01*
X519685Y266323D02*
Y287779D01*
X515413Y262051D02*
X519685Y266323D01*
X515413Y292051D02*
X519685Y287779D01*
X503543Y267559D02*
Y286535D01*
X498035Y262051D02*
X503543Y267559D01*
X498032Y292047D02*
X503543Y286535D01*
X515413Y252051D02*
X520472Y246992D01*
Y227110D02*
Y246992D01*
X515413Y222051D02*
X520472Y227110D01*
X498032Y251890D02*
X503937Y245984D01*
Y227795D02*
Y245984D01*
X498032Y221890D02*
X503937Y227795D01*
X515413Y211681D02*
X520079Y207016D01*
Y186346D02*
Y207016D01*
X515413Y181681D02*
X520079Y186346D01*
X498032Y211732D02*
X503937Y205827D01*
X498032Y181732D02*
X503937Y187638D01*
Y205827D01*
X515413Y141681D02*
X519685Y145953D01*
Y167409D01*
X515413Y171681D02*
X519685Y167409D01*
X498138Y141681D02*
X503937Y147480D01*
Y165669D01*
X498032Y171575D02*
X503937Y165669D01*
X515413Y101650D02*
X520079Y106315D01*
X515413Y131650D02*
X520079Y126984D01*
Y106315D02*
Y126984D01*
X497846Y131330D02*
X504724Y124452D01*
Y108236D02*
Y124452D01*
X498138Y101650D02*
X504724Y108236D01*
X515413Y91429D02*
X520472Y86370D01*
X515413Y61429D02*
X520472Y66488D01*
Y86370D01*
X498032Y91339D02*
X503543Y85827D01*
Y66850D02*
Y85827D01*
X498032Y61339D02*
X503543Y66850D01*
X515413Y21193D02*
X520079Y25858D01*
Y46528D01*
X515413Y51193D02*
X520079Y46528D01*
X503543Y26906D02*
Y45882D01*
X498032Y51394D02*
X503543Y45882D01*
X498085Y21447D02*
X503543Y26906D01*
X-36975Y148031D02*
X-31751Y142807D01*
X-48941Y148031D02*
X-36975D01*
X399624Y126396D02*
Y132764D01*
X399606Y126378D02*
X399624Y126396D01*
Y132764D02*
X399642Y132781D01*
X399213Y309842D02*
X401181Y307874D01*
Y300394D02*
Y307874D01*
X33465Y151969D02*
Y184252D01*
Y192126D02*
Y220472D01*
X-48976Y261417D02*
X-36614D01*
X1969Y107874D02*
Y126378D01*
X-27559Y142520D02*
Y148031D01*
X447182Y216781D02*
X449163D01*
X431280Y216025D02*
X446425D01*
X449163Y216781D02*
X449311Y216929D01*
X446425Y216025D02*
X447182Y216781D01*
X431276Y255084D02*
X431335Y255143D01*
X448242D02*
X449004Y255906D01*
X431335Y255143D02*
X448242D01*
X449004Y255906D02*
X449213D01*
X449004Y336221D02*
X449213D01*
X431280Y335415D02*
X448198D01*
X449004Y336221D01*
X429613Y340551D02*
X449311D01*
X429318Y220571D02*
X449311D01*
X431606Y134364D02*
X433463Y136221D01*
X431547Y134305D02*
X431606Y134364D01*
X433463Y136221D02*
X449311D01*
X431673Y92797D02*
X448592D01*
X449102Y93307D01*
X449311D01*
X498032Y21394D02*
X498085Y21447D01*
X431280Y375179D02*
X447979D01*
X401575Y259055D02*
Y265630D01*
Y219685D02*
Y226161D01*
X401181Y181496D02*
Y188858D01*
X401575Y139764D02*
Y146240D01*
X398610Y149205D02*
X401575Y146240D01*
X399004Y109539D02*
X401968Y106575D01*
Y100000D02*
Y106575D01*
Y57874D02*
Y64646D01*
Y16535D02*
Y23405D01*
X399004Y26370D02*
X401968Y23405D01*
X429712Y17815D02*
X449311D01*
X399004Y67610D02*
X401968Y64646D01*
X429712Y59055D02*
X449336D01*
X429712Y100984D02*
X449336D01*
X429318Y140650D02*
X448942D01*
X398610Y191429D02*
X401181Y188858D01*
X429318Y182874D02*
X448943D01*
X398610Y229126D02*
X401575Y226161D01*
X398610Y268595D02*
X401575Y265630D01*
X429318Y260039D02*
X449311D01*
X429318Y301378D02*
X449311D01*
X400885Y339468D02*
Y347127D01*
X398905Y349106D02*
X400885Y347127D01*
X428432Y339370D02*
X429613Y340551D01*
X428346Y339370D02*
X428432D01*
X432940Y53150D02*
X449311D01*
X431673Y52246D02*
X432036D01*
X432940Y53150D01*
X432971Y177559D02*
X449606D01*
X431220Y175809D02*
X432971Y177559D01*
X431280Y175868D02*
X431648D01*
X448476Y296088D02*
X449238Y296850D01*
X431126Y296088D02*
X448476D01*
X447979Y375179D02*
X449238Y376437D01*
X399315Y214234D02*
Y214442D01*
X398610Y213529D02*
X399315Y214234D01*
X398610Y208260D02*
Y213529D01*
X399315Y174076D02*
Y174285D01*
X398610Y173372D02*
X399315Y174076D01*
X398610Y168102D02*
Y173372D01*
X431606Y134364D02*
X431975D01*
X399709Y91005D02*
Y91214D01*
X399004Y90301D02*
X399709Y91005D01*
X399004Y85031D02*
Y90301D01*
X399709Y50454D02*
Y50663D01*
X399004Y49749D02*
X399709Y50454D01*
X399004Y44480D02*
Y49749D01*
X399260Y253352D02*
Y253561D01*
X398555Y252647D02*
X399260Y253352D01*
X398555Y247378D02*
Y252647D01*
X399161Y294297D02*
Y294506D01*
X398457Y293592D02*
X399161Y294297D01*
X398457Y288323D02*
Y293592D01*
X399315Y373387D02*
Y373596D01*
X398610Y372682D02*
X399315Y373387D01*
X398610Y367413D02*
Y372682D01*
X399315Y333624D02*
Y333832D01*
X398610Y332919D02*
X399315Y333624D01*
X398610Y327650D02*
Y332919D01*
X497693Y221890D02*
X498032D01*
X498059Y181760D02*
X498138Y181681D01*
X498035Y262051D02*
X498138D01*
X498138Y141681D02*
X498138D01*
X498085Y21447D02*
X498138Y21394D01*
X180114Y186614D02*
X190551D01*
X175000Y181500D02*
X180114Y186614D01*
X180390Y106890D02*
X190453D01*
X175000Y101500D02*
X180390Y106890D01*
X175000Y111500D02*
X180429Y116929D01*
X190453D01*
X180567Y127067D02*
X190453D01*
X175000Y121500D02*
X180567Y127067D01*
X180114Y136614D02*
X190453D01*
X175000Y131500D02*
X180114Y136614D01*
X175000Y141500D02*
X179169Y145669D01*
X190551D01*
X179504Y156004D02*
X190453D01*
X175043Y151543D02*
X179504Y156004D01*
X180823Y167323D02*
X190453D01*
X175000Y161500D02*
X180823Y167323D01*
X180468Y176969D02*
X190453D01*
X175000Y171500D02*
X180468Y176969D01*
X-48976Y217323D02*
X-48959Y217305D01*
X-37576D01*
X-37558Y217287D01*
X-37570Y211012D02*
X-37558Y211000D01*
X-48965Y211012D02*
X-37570D01*
X-48976Y204724D02*
X-41050D01*
X-40667Y204342D01*
X-37751D01*
X-39438Y200028D02*
X-28078D01*
X-40794Y197747D02*
X-38266D01*
X-37623Y198390D01*
X-39538Y199928D02*
X-39438Y200028D01*
X-41437Y198390D02*
X-40794Y197747D01*
X-48976Y198390D02*
X-41437D01*
X-12146Y213839D02*
X-11079D01*
X-27595Y198390D02*
X-12146Y213839D01*
X-11079D02*
X-10819Y214100D01*
X-28078Y200028D02*
X-10819Y217287D01*
X-48976Y236221D02*
X-48941Y236185D01*
X-37064D01*
X-48976Y242484D02*
X-37064D01*
X-48941Y248783D02*
X-37064D01*
X-48976Y255083D02*
X-36942D01*
X-36860Y255000D01*
X498032Y291988D02*
Y292047D01*
X6867Y196209D02*
X6924Y196266D01*
X18593Y184373D02*
X18705Y184485D01*
X16391Y186554D02*
X16727D01*
X-14163Y156000D02*
X16391Y186554D01*
X14Y201539D02*
X214Y201740D01*
X10723Y189960D02*
X13007D01*
X214Y201740D02*
X1020D01*
X1281Y202000D01*
X-5591Y207138D02*
X-4201D01*
X-4000Y207339D01*
X13007Y189960D02*
X13164Y190117D01*
X-30963Y174260D02*
X-971Y204252D01*
X-25390Y168000D02*
X5000Y198390D01*
X-19417Y159819D02*
X10723Y189960D01*
X-6217Y208633D02*
Y209167D01*
X16957Y184373D02*
X18593D01*
X-34261Y180588D02*
X-6217Y208633D01*
X-34350Y178378D02*
X-5591Y207138D01*
X-19280Y162078D02*
X10783Y192141D01*
X-6217Y209167D02*
X-5956Y209428D01*
X-13597Y153819D02*
X16957Y184373D01*
X5027Y196209D02*
X6867D01*
X-25363Y165819D02*
X5027Y196209D01*
X10783Y192141D02*
X11141D01*
X-48976Y223622D02*
X-37402D01*
X-35433Y221654D01*
X-48976Y229886D02*
X-37064D01*
X-48976Y160594D02*
X-22672D01*
X-48976Y166894D02*
X-28712D01*
X-48976Y173193D02*
X-34549D01*
X-48976Y154295D02*
X-16476D01*
X-48976Y113350D02*
X-34156D01*
X-48976Y179492D02*
X-39124D01*
X-40536Y138547D02*
X-38591Y140492D01*
X-48976Y138547D02*
X-40536D01*
X-40233Y135398D02*
X-38052Y133217D01*
X-48976Y135398D02*
X-40233D01*
X-40494Y127178D02*
X-40233Y126917D01*
X-40494Y127178D02*
Y127628D01*
X-41965Y129098D02*
X-40494Y127628D01*
X-48976Y129098D02*
X-41965D01*
X-32506Y115000D02*
X-32138D01*
X-34156Y113350D02*
X-32506Y115000D01*
X-37623Y198390D02*
X-27595D01*
X-36942Y180559D02*
X-36913Y180588D01*
X-34261D01*
X-37975Y178507D02*
X-37846Y178378D01*
Y178378D02*
X-34350D01*
X-38057Y178425D02*
X-37975Y178507D01*
X-39124Y179492D02*
X-38057Y178425D01*
X-32364Y174260D02*
X-30963D01*
X-34549Y173193D02*
X-33435Y172079D01*
X-31023D01*
X-1562Y201539D01*
X14D01*
X-26734Y168000D02*
X-25390D01*
X-28712Y166894D02*
X-27637Y165819D01*
X-25363D01*
X-20994Y162000D02*
X-20916Y162078D01*
X-19280D01*
X-21897Y159819D02*
X-19417D01*
X-22672Y160594D02*
X-21897Y159819D01*
X-14500Y156000D02*
X-14163D01*
X-16000Y153819D02*
X-13597D01*
X-16476Y154295D02*
X-16000Y153819D01*
D17*
X-32040Y139914D02*
X-21804D01*
X-37008Y144882D02*
X-32040Y139914D01*
X-48976Y144882D02*
X-37008D01*
X-33465Y122047D02*
X-15748Y139764D01*
X-35433Y122047D02*
X-33465D01*
X45276Y121260D02*
Y128740D01*
X-21804Y139914D02*
X-21654Y139764D01*
X45276Y128740D02*
Y136221D01*
Y143701D01*
D69*
X-48976Y280315D02*
D03*
Y277165D02*
D03*
Y274016D02*
D03*
Y270866D02*
D03*
Y267717D02*
D03*
Y264567D02*
D03*
Y261417D02*
D03*
Y258268D02*
D03*
Y255118D02*
D03*
Y251969D02*
D03*
Y248819D02*
D03*
Y245669D02*
D03*
Y242520D02*
D03*
Y239370D02*
D03*
Y236221D02*
D03*
Y233071D02*
D03*
Y229921D02*
D03*
Y226772D02*
D03*
Y223622D02*
D03*
Y220472D02*
D03*
Y217323D02*
D03*
Y214173D02*
D03*
Y211024D02*
D03*
Y207874D02*
D03*
Y204724D02*
D03*
Y201575D02*
D03*
Y198425D02*
D03*
Y182677D02*
D03*
Y179528D02*
D03*
Y176378D02*
D03*
Y173228D02*
D03*
Y170079D02*
D03*
Y166929D02*
D03*
Y163779D02*
D03*
Y160630D02*
D03*
Y157480D02*
D03*
Y154331D02*
D03*
Y151181D02*
D03*
Y148031D02*
D03*
Y144882D02*
D03*
Y141732D02*
D03*
Y138583D02*
D03*
Y135433D02*
D03*
Y132283D02*
D03*
Y129134D02*
D03*
Y125984D02*
D03*
Y122835D02*
D03*
Y119685D02*
D03*
Y116535D02*
D03*
Y113386D02*
D03*
D71*
X-48946Y201570D02*
X-41890D01*
X-41885Y201566D01*
X-48950D02*
X-48946Y201570D01*
X-48976Y245634D02*
X-41500D01*
X-48976Y280280D02*
X-40720D01*
X-48976Y277130D02*
X-41500D01*
X-48976Y270831D02*
X-41500D01*
X-48976Y264531D02*
X-41500D01*
X-48976Y251933D02*
X-41500D01*
X-48976Y239335D02*
X-41500D01*
X-48976Y226736D02*
X-41500D01*
X-48976Y233035D02*
X-41500D01*
X-48976Y220437D02*
X-41500D01*
X-48976Y163744D02*
X-41500D01*
X-48976Y151146D02*
X-41500D01*
X-48976Y141697D02*
X-41500D01*
X-48976Y258232D02*
X-41500D01*
X-48976Y214138D02*
X-41500D01*
X-48976Y207839D02*
X-41500D01*
X-48976Y182642D02*
X-41500D01*
X-48976Y176343D02*
X-41500D01*
X-48976Y170043D02*
X-41500D01*
X-48976Y132248D02*
X-41500D01*
X-48976Y116500D02*
X-41500D01*
X-48976Y157445D02*
X-41500D01*
X-48976Y273980D02*
X-41520D01*
X-41500Y274000D01*
Y270831D02*
X-40418Y269749D01*
X-41500Y277130D02*
X-40418Y278211D01*
X-40720Y280280D02*
X-40500Y280500D01*
D72*
X545354Y212047D02*
D03*
Y182047D02*
D03*
X515354Y202047D02*
D03*
Y212047D02*
D03*
Y182047D02*
D03*
Y192047D02*
D03*
D03*
Y182047D02*
D03*
Y212047D02*
D03*
Y202047D02*
D03*
X545354Y182047D02*
D03*
Y212047D02*
D03*
Y132047D02*
D03*
Y102047D02*
D03*
X515354Y122047D02*
D03*
Y132047D02*
D03*
Y102047D02*
D03*
Y112047D02*
D03*
X545354Y132047D02*
D03*
Y102047D02*
D03*
X515354Y122047D02*
D03*
Y132047D02*
D03*
Y102047D02*
D03*
Y112047D02*
D03*
Y72047D02*
D03*
Y62047D02*
D03*
Y92047D02*
D03*
Y82047D02*
D03*
X545354Y62047D02*
D03*
Y92047D02*
D03*
D03*
Y62047D02*
D03*
X515354Y82047D02*
D03*
Y92047D02*
D03*
Y62047D02*
D03*
Y72047D02*
D03*
Y32047D02*
D03*
Y22047D02*
D03*
Y52047D02*
D03*
Y42047D02*
D03*
X545354Y22047D02*
D03*
Y52047D02*
D03*
Y172047D02*
D03*
Y142047D02*
D03*
X515354Y162047D02*
D03*
Y172047D02*
D03*
Y142047D02*
D03*
Y152047D02*
D03*
D03*
Y142047D02*
D03*
Y172047D02*
D03*
Y162047D02*
D03*
X545354Y142047D02*
D03*
Y172047D02*
D03*
X515354Y32047D02*
D03*
Y22047D02*
D03*
Y52047D02*
D03*
Y42047D02*
D03*
X545354Y22047D02*
D03*
Y52047D02*
D03*
X515354Y272047D02*
D03*
Y262047D02*
D03*
Y292047D02*
D03*
Y282047D02*
D03*
X545354Y262047D02*
D03*
Y292047D02*
D03*
D03*
Y262047D02*
D03*
X515354Y282047D02*
D03*
Y292047D02*
D03*
Y262047D02*
D03*
Y272047D02*
D03*
Y232047D02*
D03*
Y222047D02*
D03*
Y252047D02*
D03*
Y242047D02*
D03*
X545354Y222047D02*
D03*
Y252047D02*
D03*
D03*
Y222047D02*
D03*
X515354Y242047D02*
D03*
Y252047D02*
D03*
Y222047D02*
D03*
Y232047D02*
D03*
X545354Y332047D02*
D03*
Y302047D02*
D03*
X515354Y322047D02*
D03*
Y332047D02*
D03*
Y302047D02*
D03*
Y312047D02*
D03*
Y352047D02*
D03*
Y342047D02*
D03*
Y372047D02*
D03*
Y362047D02*
D03*
X545354Y342047D02*
D03*
Y372047D02*
D03*
D03*
Y342047D02*
D03*
X515354Y362047D02*
D03*
Y372047D02*
D03*
Y342047D02*
D03*
Y352047D02*
D03*
X498819Y42047D02*
D03*
Y52047D02*
D03*
Y22047D02*
D03*
Y32047D02*
D03*
X528819Y52047D02*
D03*
Y22047D02*
D03*
Y62047D02*
D03*
Y92047D02*
D03*
X498819Y72047D02*
D03*
Y62047D02*
D03*
Y92047D02*
D03*
Y82047D02*
D03*
Y122047D02*
D03*
Y132047D02*
D03*
Y102047D02*
D03*
Y112047D02*
D03*
X528819Y132047D02*
D03*
Y102047D02*
D03*
X498819Y162047D02*
D03*
Y172047D02*
D03*
Y142047D02*
D03*
Y152047D02*
D03*
X528819Y172047D02*
D03*
Y142047D02*
D03*
X498819Y202047D02*
D03*
Y212047D02*
D03*
Y182047D02*
D03*
Y192047D02*
D03*
X528819Y212047D02*
D03*
Y182047D02*
D03*
X498819Y242047D02*
D03*
Y252047D02*
D03*
Y222047D02*
D03*
Y232047D02*
D03*
X528819Y252047D02*
D03*
Y222047D02*
D03*
X498819Y282047D02*
D03*
Y292047D02*
D03*
Y262047D02*
D03*
Y272047D02*
D03*
X528819Y292047D02*
D03*
Y262047D02*
D03*
Y302047D02*
D03*
Y332047D02*
D03*
X498819Y312047D02*
D03*
Y302047D02*
D03*
Y332047D02*
D03*
Y322047D02*
D03*
X528819Y342047D02*
D03*
Y372047D02*
D03*
X498819Y352047D02*
D03*
Y342047D02*
D03*
Y372047D02*
D03*
Y362047D02*
D03*
X528819Y22047D02*
D03*
Y52047D02*
D03*
X498819Y32047D02*
D03*
Y22047D02*
D03*
Y52047D02*
D03*
Y42047D02*
D03*
X528819Y62047D02*
D03*
Y92047D02*
D03*
X498819Y72047D02*
D03*
Y62047D02*
D03*
Y92047D02*
D03*
Y82047D02*
D03*
Y122047D02*
D03*
Y132047D02*
D03*
Y102047D02*
D03*
Y112047D02*
D03*
X528819Y132047D02*
D03*
Y102047D02*
D03*
Y142047D02*
D03*
Y172047D02*
D03*
X498819Y152047D02*
D03*
Y142047D02*
D03*
Y172047D02*
D03*
Y162047D02*
D03*
Y202047D02*
D03*
Y212047D02*
D03*
Y182047D02*
D03*
Y192047D02*
D03*
X528819Y212047D02*
D03*
Y182047D02*
D03*
X498819Y242047D02*
D03*
Y252047D02*
D03*
Y222047D02*
D03*
Y232047D02*
D03*
X528819Y252047D02*
D03*
Y222047D02*
D03*
Y262047D02*
D03*
Y292047D02*
D03*
X498819Y272047D02*
D03*
Y262047D02*
D03*
Y292047D02*
D03*
Y282047D02*
D03*
Y322047D02*
D03*
Y332047D02*
D03*
Y302047D02*
D03*
Y312047D02*
D03*
X528819Y332047D02*
D03*
Y302047D02*
D03*
X545354Y332047D02*
D03*
Y302047D02*
D03*
X515354Y322047D02*
D03*
Y332047D02*
D03*
Y302047D02*
D03*
Y312047D02*
D03*
X498819Y362047D02*
D03*
Y372047D02*
D03*
Y342047D02*
D03*
Y352047D02*
D03*
X528819Y372047D02*
D03*
Y342047D02*
D03*
X21036Y244278D02*
D03*
X11036D02*
D03*
X21036Y254278D02*
D03*
X11036D02*
D03*
X85063Y353000D02*
D03*
X95063D02*
D03*
X85063Y343000D02*
D03*
X95063D02*
D03*
D73*
X221969Y349055D02*
D03*
Y359055D02*
D03*
X231968Y349055D02*
D03*
Y359055D02*
D03*
X241968Y349055D02*
D03*
Y359055D02*
D03*
X251969Y349055D02*
D03*
Y359055D02*
D03*
X261968Y349055D02*
D03*
Y359055D02*
D03*
X271969Y349055D02*
D03*
Y359055D02*
D03*
X281968Y349055D02*
D03*
Y359055D02*
D03*
X291968Y349055D02*
D03*
Y359055D02*
D03*
X301969Y349055D02*
D03*
Y359055D02*
D03*
X311968Y349055D02*
D03*
Y359055D02*
D03*
X321969Y349055D02*
D03*
Y359055D02*
D03*
X331968Y349055D02*
D03*
Y359055D02*
D03*
D74*
X92900Y68400D02*
D03*
X175000Y181500D02*
D03*
D75*
X102900Y68400D02*
D03*
X92900Y58400D02*
D03*
X102900D02*
D03*
X92900Y48400D02*
D03*
X102900D02*
D03*
X92900Y38400D02*
D03*
X102900D02*
D03*
X92900Y28400D02*
D03*
X102900D02*
D03*
X185000Y181500D02*
D03*
X175000Y171500D02*
D03*
X185000D02*
D03*
X175000Y161500D02*
D03*
X185000D02*
D03*
X175000Y151500D02*
D03*
X185000D02*
D03*
X175000Y141500D02*
D03*
X185000D02*
D03*
X175000Y131500D02*
D03*
X185000D02*
D03*
X175000Y121500D02*
D03*
X185000D02*
D03*
X175000Y111500D02*
D03*
X185000D02*
D03*
X175000Y101500D02*
D03*
X185000D02*
D03*
D76*
X-31751Y142807D02*
D03*
X33465Y184252D02*
D03*
Y192126D02*
D03*
Y151969D02*
D03*
Y220472D02*
D03*
X-36614Y261417D02*
D03*
X1969Y126378D02*
D03*
X-15748Y139764D02*
D03*
X-21654D02*
D03*
X-27559Y142520D02*
D03*
Y148031D02*
D03*
X-35433Y122047D02*
D03*
X407480Y26280D02*
D03*
X426772Y21555D02*
D03*
X485433Y21161D02*
D03*
X407480Y67520D02*
D03*
X426772Y62795D02*
D03*
X485433Y62402D02*
D03*
X407480Y109449D02*
D03*
X426772Y104724D02*
D03*
X485433Y104331D02*
D03*
X407087Y149114D02*
D03*
X426378Y144390D02*
D03*
X485039Y143996D02*
D03*
X407087Y191339D02*
D03*
X426378Y186614D02*
D03*
X485039Y186221D02*
D03*
X407087Y229035D02*
D03*
X426378Y224311D02*
D03*
X485039Y223917D02*
D03*
X407087Y268504D02*
D03*
X426378Y263779D02*
D03*
X485039Y263386D02*
D03*
X407087Y309842D02*
D03*
X426378Y305118D02*
D03*
X485039Y304724D02*
D03*
X485335Y343898D02*
D03*
X426673Y344291D02*
D03*
X407382Y349016D02*
D03*
X407087Y208169D02*
D03*
X426378Y203445D02*
D03*
X485039Y203051D02*
D03*
X407087Y168012D02*
D03*
X426378Y163287D02*
D03*
X485039Y162894D02*
D03*
X407414Y126508D02*
D03*
X426705Y121784D02*
D03*
X485366Y121390D02*
D03*
X407480Y84941D02*
D03*
X426772Y80217D02*
D03*
X485433Y79823D02*
D03*
X407480Y44390D02*
D03*
X426772Y39665D02*
D03*
X485433Y39272D02*
D03*
X407031Y247287D02*
D03*
X426323Y242563D02*
D03*
X484984Y242169D02*
D03*
X406933Y288232D02*
D03*
X426224Y283508D02*
D03*
X484886Y283114D02*
D03*
X407087Y367323D02*
D03*
X426378Y362598D02*
D03*
X485039Y362205D02*
D03*
Y322441D02*
D03*
X426378Y322835D02*
D03*
X407087Y327559D02*
D03*
X190453Y167323D02*
D03*
X-37751Y204342D02*
D03*
X-41885Y201566D02*
D03*
X-39538Y199928D02*
D03*
X-10819Y214100D02*
D03*
Y217287D02*
D03*
X-37064Y248783D02*
D03*
X-41500Y245634D02*
D03*
X190551Y186614D02*
D03*
X-41500Y274000D02*
D03*
X18705Y184485D02*
D03*
X6924Y196266D02*
D03*
X16727Y186554D02*
D03*
X-971Y204252D02*
D03*
X5000Y198390D02*
D03*
X1281Y202000D02*
D03*
X13164Y190117D02*
D03*
X11141Y192141D02*
D03*
X-4000Y207339D02*
D03*
X-5956Y209428D02*
D03*
X190551Y145669D02*
D03*
X190453Y116929D02*
D03*
Y106890D02*
D03*
Y127067D02*
D03*
Y136614D02*
D03*
Y156004D02*
D03*
Y176969D02*
D03*
X-41500Y116500D02*
D03*
Y132248D02*
D03*
Y141697D02*
D03*
Y151146D02*
D03*
Y157445D02*
D03*
Y163744D02*
D03*
Y170043D02*
D03*
Y176343D02*
D03*
Y182642D02*
D03*
Y207839D02*
D03*
Y214138D02*
D03*
Y220437D02*
D03*
Y226736D02*
D03*
Y233035D02*
D03*
Y239335D02*
D03*
Y251933D02*
D03*
Y258232D02*
D03*
Y264531D02*
D03*
X-40418Y269749D02*
D03*
Y278211D02*
D03*
X-40500Y280500D02*
D03*
X-38591Y140492D02*
D03*
X-38052Y133217D02*
D03*
X-40233Y126917D02*
D03*
X-32138Y115000D02*
D03*
X-37558Y211000D02*
D03*
Y217287D02*
D03*
X-35433Y221654D02*
D03*
X-37064Y229886D02*
D03*
Y236185D02*
D03*
Y242484D02*
D03*
X-36860Y255000D02*
D03*
X-36942Y180559D02*
D03*
X-32364Y174260D02*
D03*
X-26734Y168000D02*
D03*
X-20994Y162000D02*
D03*
X-14500Y156000D02*
D03*
X-38500Y274000D02*
D03*
D77*
X399606Y126378D02*
D03*
X399213Y309842D02*
D03*
X449311Y216929D02*
D03*
Y260039D02*
D03*
Y255906D02*
D03*
Y336221D02*
D03*
X429712Y17815D02*
D03*
Y59055D02*
D03*
Y100984D02*
D03*
X429318Y140650D02*
D03*
X429318Y182874D02*
D03*
X429318Y220571D02*
D03*
Y260039D02*
D03*
X429318Y301378D02*
D03*
X399004Y26370D02*
D03*
X449311Y17815D02*
D03*
X399004Y67610D02*
D03*
X449311Y59055D02*
D03*
X399004Y109539D02*
D03*
X449311Y100984D02*
D03*
X398610Y149205D02*
D03*
X449311Y140650D02*
D03*
X398610Y191429D02*
D03*
X449311Y182874D02*
D03*
X398610Y229126D02*
D03*
X449311Y220571D02*
D03*
X398610Y268595D02*
D03*
X449311Y301378D02*
D03*
X400982Y339370D02*
D03*
X428346D02*
D03*
X449311Y340551D02*
D03*
X398905Y349106D02*
D03*
X449311Y53150D02*
D03*
Y93307D02*
D03*
Y136221D02*
D03*
Y177559D02*
D03*
Y296850D02*
D03*
Y376437D02*
D03*
X431280Y216025D02*
D03*
X399315Y214442D02*
D03*
X398610Y208260D02*
D03*
X431280Y175868D02*
D03*
X399315Y174285D02*
D03*
X398610Y168102D02*
D03*
X431606Y134364D02*
D03*
X399642Y132781D02*
D03*
X431673Y92797D02*
D03*
X399709Y91214D02*
D03*
X399004Y85031D02*
D03*
X431673Y52246D02*
D03*
X399709Y50663D02*
D03*
X399004Y44480D02*
D03*
X431224Y255143D02*
D03*
X399260Y253561D02*
D03*
X398555Y247378D02*
D03*
X431126Y296088D02*
D03*
X399161Y294506D02*
D03*
X398457Y288323D02*
D03*
X431280Y375179D02*
D03*
X399315Y373596D02*
D03*
X398610Y367413D02*
D03*
X431280Y335415D02*
D03*
X399315Y333832D02*
D03*
X398610Y327650D02*
D03*
X401968Y100000D02*
D03*
X401181Y300394D02*
D03*
X401575Y259055D02*
D03*
X401181Y181496D02*
D03*
X401575Y219685D02*
D03*
Y139764D02*
D03*
X401968Y16535D02*
D03*
Y57874D02*
D03*
X78335Y292331D02*
D03*
X82665Y283669D02*
D03*
X78335D02*
D03*
X82665Y288000D02*
D03*
X78335D02*
D03*
X82665Y292331D02*
D03*
D78*
X1969Y107874D02*
D03*
D79*
X45276Y121260D02*
D03*
Y136221D02*
D03*
Y128740D02*
D03*
X56637Y117490D02*
D03*
X74016Y139764D02*
D03*
X45276Y143701D02*
D03*
D80*
X380709Y43996D02*
D03*
Y25886D02*
D03*
Y67126D02*
D03*
Y109055D02*
D03*
X380315Y148721D02*
D03*
X380315Y190945D02*
D03*
X380315Y228642D02*
D03*
Y268110D02*
D03*
X380315Y309449D02*
D03*
X380610Y348622D02*
D03*
X380315Y207776D02*
D03*
Y167618D02*
D03*
X380642Y126114D02*
D03*
X380709Y84547D02*
D03*
X380260Y246894D02*
D03*
X380161Y287839D02*
D03*
X380315Y366929D02*
D03*
Y327165D02*
D03*
X185676Y318327D02*
D03*
X206693Y340945D02*
D03*
X183071Y330315D02*
D03*
X177559Y320472D02*
D03*
X211417Y330709D02*
D03*
X186221Y300787D02*
D03*
X349606Y272441D02*
D03*
Y370866D02*
D03*
Y351969D02*
D03*
Y171260D02*
D03*
Y152756D02*
D03*
Y313386D02*
D03*
Y232283D02*
D03*
Y211811D02*
D03*
Y194882D02*
D03*
Y129921D02*
D03*
Y112598D02*
D03*
Y88976D02*
D03*
Y70866D02*
D03*
Y250394D02*
D03*
Y292126D02*
D03*
Y331102D02*
D03*
Y48425D02*
D03*
Y28740D02*
D03*
X-22441Y251181D02*
D03*
X1969Y241732D02*
D03*
X-7874D02*
D03*
X41339D02*
D03*
X31496D02*
D03*
X100394D02*
D03*
X90551D02*
D03*
X80709D02*
D03*
X70866D02*
D03*
X51181D02*
D03*
X61024D02*
D03*
X109843D02*
D03*
X56693Y251575D02*
D03*
X46850D02*
D03*
X66535D02*
D03*
X76378D02*
D03*
X86221D02*
D03*
X96063D02*
D03*
X59842Y261417D02*
D03*
X50000D02*
D03*
X69685D02*
D03*
X79527D02*
D03*
X89370D02*
D03*
X115748Y251575D02*
D03*
X163386Y292126D02*
D03*
X172047Y271260D02*
D03*
X186221Y281890D02*
D03*
X176378D02*
D03*
X181890Y292126D02*
D03*
X172047D02*
D03*
X176378Y300787D02*
D03*
X205906D02*
D03*
X211417Y310630D02*
D03*
X172047D02*
D03*
X181890D02*
D03*
X191732D02*
D03*
X201575D02*
D03*
X207087Y320472D02*
D03*
X216929D02*
D03*
X177165Y340945D02*
D03*
X133858Y251575D02*
D03*
X118898Y261417D02*
D03*
X109055D02*
D03*
X128740D02*
D03*
X138583D02*
D03*
X148425D02*
D03*
X153543Y271260D02*
D03*
X143701D02*
D03*
X133858D02*
D03*
X124016D02*
D03*
X104331D02*
D03*
X114173D02*
D03*
X151969Y251575D02*
D03*
X157480Y261417D02*
D03*
X157874Y302362D02*
D03*
Y281890D02*
D03*
X163386Y271260D02*
D03*
X157874Y320472D02*
D03*
X163386Y311024D02*
D03*
X59449Y300394D02*
D03*
X49606D02*
D03*
X42520Y290551D02*
D03*
X32677D02*
D03*
X29921Y300000D02*
D03*
X104331Y311024D02*
D03*
X94488D02*
D03*
X84646D02*
D03*
X74803D02*
D03*
X55118D02*
D03*
X64961D02*
D03*
X74016Y350787D02*
D03*
X54331D02*
D03*
X64173D02*
D03*
X68504Y360236D02*
D03*
X59055D02*
D03*
X68504Y379528D02*
D03*
X59055D02*
D03*
X64173Y369685D02*
D03*
X54331D02*
D03*
X74016D02*
D03*
X153150Y330315D02*
D03*
X163386D02*
D03*
X118110Y340945D02*
D03*
X108268D02*
D03*
X127953D02*
D03*
X137795D02*
D03*
X147638D02*
D03*
X157874D02*
D03*
X108268Y320472D02*
D03*
X59449D02*
D03*
X49606D02*
D03*
X69291D02*
D03*
X79134D02*
D03*
X88976D02*
D03*
X98819D02*
D03*
X114173Y330315D02*
D03*
X104331D02*
D03*
X55118D02*
D03*
X45276D02*
D03*
X64961D02*
D03*
X74803D02*
D03*
X84646D02*
D03*
X94488D02*
D03*
X79134Y340945D02*
D03*
X69291D02*
D03*
X59449D02*
D03*
X49606D02*
D03*
X34646Y329921D02*
D03*
X29921Y360236D02*
D03*
Y340945D02*
D03*
Y320472D02*
D03*
X39764D02*
D03*
Y340945D02*
D03*
Y360236D02*
D03*
X14567Y369685D02*
D03*
Y350787D02*
D03*
X34646Y369685D02*
D03*
Y350787D02*
D03*
X29921Y379528D02*
D03*
X39370D02*
D03*
X5118Y290551D02*
D03*
Y329921D02*
D03*
X9843Y320079D02*
D03*
Y301181D02*
D03*
X5118Y311024D02*
D03*
X14567Y329921D02*
D03*
Y311024D02*
D03*
X5118Y350787D02*
D03*
X9843Y340945D02*
D03*
Y359842D02*
D03*
X5118Y369685D02*
D03*
X9843Y379528D02*
D03*
M02*
