M48
;Layer_Color=9474304
;FILE_FORMAT=2:5
INCH,TZ
;TYPE=PLATED
T1F00S00C0.00787
T2F00S00C0.01181
T3F00S00C0.01575
T4F00S00C0.03500
T5F00S00C0.03543
T6F00S00C0.03800
T7F00S00C0.04000
%
T01
X78335Y283669
X82665
Y288000
X78335
Y292331
X82665
T02
X368898Y29921
X369291Y48425
X391732Y44094
X400000Y40551
X411024Y45276
X410843Y26756
X400000Y21654
X392126Y25197
X428740Y20472
X438976Y21260
Y40157
X428346Y39370
Y63779
X438976Y64551
Y84646
X428346Y83858
X411417Y89370
X400000Y85039
X392520Y88189
Y67716
X400000Y64945
X411417Y69685
X405512Y102362
Y117717
X405905Y138583
X405512Y160236
Y178740
X405905Y195669
X431890Y115354
X369291Y92520
X368898Y72441
X190453Y106890
Y116929
Y127067
Y136614
Y146260
Y156004
Y167323
Y176969
X185335Y188976
X16727Y186554
X18705Y184485
X13164Y190117
X11141Y192141
X6924Y196266
X5000Y198390
X1281Y202000
X-971Y204252
X-4000Y207339
X-14500Y156000
X-20994Y162000
X-13000Y108891
X-32138Y115000
X-41500Y116500
X-40233Y126917
X-41500Y132248
X-38052Y133217
X-38591Y140492
X-41500Y141697
X-40650Y144672
X-41500Y151146
Y157445
Y163744
Y170043
Y176343
Y182642
X-36942Y180559
X-32364Y174260
X-26734Y168000
X-39069Y200028
X-41500Y201539
Y207839
X-37751Y204879
X-37558Y211000
Y217287
X-35433Y221654
X-41500Y220437
Y214138
Y226736
Y233035
Y239335
Y245634
Y251933
Y258232
Y264531
X-40418Y269749
X-41500Y274000
X-38500Y274000
X-40418Y278211
X-40500Y280500
X-36860Y255000
X-37064Y248783
Y242484
Y236185
Y229886
X-10819Y217287
Y214100
X-5956Y209428
X405512Y220866
X405516Y238474
X405512Y259842
Y275590
Y299606
Y316929
Y338976
Y359055
X433858Y372441
T03
X-28429Y250580
X-32366Y258454
X-36303Y266328
X-20554Y250580
X-16617Y242706
X-8743
X-869
X30627
X38501
X46375
X54249
X62123
X69997
X77871
X85745
X93619
X101493
X109367
Y258454
X117241
X113304Y266328
X105430
X109367Y274202
X101493
X97556Y282076
X101493Y289950
X105430Y313572
X113304
X109367Y321446
X101493
X93619
X85745
X77871
X69997
X62123
X54249
X46375
X38501
X30627
X34564Y329320
X42438
X50312
X58186
X66060
X73934
X81808
X89682
X97556
X105430
X113304
X121178
X125115Y337194
X117241
X109367
X101493
X93619
X85745
X77871
X69997
X62123
X54249
X46375
X38501
X30627
X34564Y345068
X42438
X38501Y352942
X30627
X34564Y360816
X42438
X50312
X58186
X66060
X73934
X69997Y352942
X62123
X54249
X26690Y360816
X18816
X10942
X14879Y352942
X7005
X10942Y345068
X14879Y337194
X7005
X10942Y329320
X14879Y321446
X7005
X10942Y313572
X14879Y305698
X7005
Y289950
X-869
X-8743
X-16617
X-24491
X30627
X38501
X46375
X50312Y297824
X54249Y305698
X62123
X69997
X73934Y313572
X81808
X89682
X97556
X81808Y297824
X85745Y274202
X77871
X81808Y266328
X85745Y258454
X93619
X97556Y250580
X89682
X81808
X73934
X66060
X69997Y258454
X77871
X62123
Y274202
X66060Y313572
X58186
X50312
X46375Y305698
X30627
X105430Y345068
X113304
X121178
X129052
X121178Y266328
Y250580
X136926
X140863Y258454
X132989
X136926Y266328
X152674
X160548
X164485Y274202
X172359
X180233
X184170Y282076
X176296
X180233Y289950
X188107
X195981
X199918Y297824
X192044
X184170
X176296
X180233Y305698
X188107
X195981
X203855
X211729
X215666Y313572
X207792
X199918
X192044
X184170
X176296
X180233Y321446
X188107
X195981
X203855
X211729
X219603
X207792Y329320
X199918
X192044
X184170
X188107Y337194
X195981
X203855
X207792Y345068
X199918
X219603Y352942
X180233Y337194
X164485
X156611
X148737
X140863
X132989
X136926Y345068
X144800
X152674
X160548Y329320
X164485Y321446
X172359
Y305698
X164485
Y289950
X172359
X156611Y258454
X69997Y368690
X62123
X54249
X58186Y376564
X66060
X73934
X69997Y384438
X62123
X54249
X46375
X38501
X30627
X22753
X14879
X7005
X10942Y376564
X14879Y368690
X7005
X30627
X38501
X42438Y376564
X34564
X26690
T04
X528031Y21394
X545413Y21193
Y51193
X528031Y51394
Y61630
X545413Y61429
Y91429
X545413Y101650
X528137
X528031Y91630
X528137Y131650
Y141681
X545413
X545413Y131650
X545413Y171681
X545413Y181681
X528137
Y171681
Y211681
X528031Y222051
X545413
Y211681
Y252051
Y262051
X528137
X528031Y252051
X528137Y292051
X528039Y302051
X545413
X545413Y292051
X545413Y332051
X545413Y342050
X528137Y342051
X528039Y332051
X528137Y372051
X545413Y372050
T05
X92900Y28400
Y38400
Y48400
X102900
Y38400
Y28400
X175000Y101500
Y111500
Y121500
Y131500
Y141500
Y151500
Y161500
Y171500
X185000
Y181500
X175000
X185000Y161500
Y151500
Y141500
Y131500
Y121500
Y111500
Y101500
X102900Y68400
X92900
Y58400
X102900
T06
X498032Y21394
Y31394
Y41394
Y51394
X515413Y51193
Y41193
Y31193
Y21193
Y61429
Y71429
Y81429
Y91429
X515413Y101650
Y111650
Y121650
Y131650
X515413Y141681
Y151681
Y161681
Y171681
X515413Y181681
Y191681
Y201681
X498137
Y191681
Y181681
Y171681
Y161681
Y151681
Y141681
Y131650
Y121650
Y111650
Y101650
X498032Y91630
Y81630
Y71630
Y61630
X498137Y211681
X498032Y222051
Y232051
Y242051
Y252051
X498137Y262051
Y272051
Y282051
Y292051
X498039Y302051
Y312051
Y322051
Y332051
X498137Y342051
Y352051
Y362051
X515413Y362050
Y352050
Y342050
X515413Y332051
Y322051
Y312051
Y302051
X515413Y292051
Y282051
Y272051
Y262051
Y252051
Y242051
Y232051
Y222051
Y211681
Y372050
X498137Y372051
T07
X11036Y244278
X21036
Y254278
X11036
X89000Y343000
Y353000
X99000
Y343000
X260405Y344330
Y354330
X270406
Y344330
X280405
Y354330
X290406
Y344330
X300406
Y354330
X310405
Y344330
X320406
Y354330
X330405
Y344330
X340406
Y354330
X350406
Y344330
X360405
Y354330
X370406
Y344330
M30
