M48
;Layer_Color=9474304
;FILE_FORMAT=2:5
INCH,TZ
;TYPE=PLATED
T1F00S00C0.00787
T2F00S00C0.01181
T3F00S00C0.03150
T4F00S00C0.03500
T5F00S00C0.03543
T6F00S00C0.03800
T7F00S00C0.04000
%
T01
X99699Y315840
Y320171
X104029
X108360
Y315840
X104029
T02
X399436Y16122
X400011Y35100
X428391Y27272
X425642Y23584
X422333Y19549
X428391Y42960
X435015Y39120
X442924Y35520
X424827Y52484
X451862Y107910
X447113Y113910
X451764Y121499
X451862Y147941
X447113Y153942
X451764Y161531
X452000Y187941
X447251Y193942
X451902Y201531
X437126Y184051
X412726Y193872
X415612Y169687
X412588Y153872
X415612Y129655
X412588Y113841
X399261Y95193
X399836Y75338
X399436Y54955
X422159Y59787
X425468Y63821
X428216Y67510
Y83198
X434499Y79883
X442749Y75758
X436989Y104019
X424653Y92722
X436989Y144050
X18705Y184485
X16727Y186554
X13164Y190117
X11141Y192141
X6924Y196266
X5000Y198390
X1281Y202000
X-971Y204252
X-4000Y207339
X-14500Y156000
X-20994Y162000
X-13000Y108891
X-32138Y115000
X-41500Y116500
X-40233Y126917
X-41500Y132248
X-38052Y133217
X-38591Y140492
X-41500Y141697
X-40650Y144672
X-41500Y151146
Y157445
Y163744
Y170043
Y176343
Y182642
X-36942Y180559
X-32364Y174260
X-26734Y168000
X-39069Y200028
X-41500Y201539
Y207839
X-37751Y204879
X-37558Y211000
Y217287
X-37096Y222994
X-37064Y229886
Y236185
Y242484
Y248783
X-36860Y255000
X-41500Y251933
Y258232
Y264531
X-40418Y269749
X-41500Y274000
X-39000
X-40418Y278211
X-40500Y280500
X-41500Y245634
Y239335
Y233035
Y226736
Y220437
Y214138
X-10819Y214100
Y217287
X-5956Y209428
X-9472Y286249
X-24472
X5528Y316249
X20528
X13028Y331249
X20528Y346249
X35528
X50528
X65528
X58028Y361249
X43028
X13028
X5528Y346249
X88028Y331249
X88161Y316657
X88028Y301249
X73028
X58028
X65528Y286249
X80528
X95528
X110528
X125528
X118028Y271249
X103028
X88028
X73028
X58028
X43028
X28028
X50528Y286249
X125528Y316249
X118028Y332339
X118165Y348905
X108041Y349067
Y355804
X108053Y362541
X118028Y362541
X108041Y342330
X132569Y329933
X140528Y316249
X155528
X170528
X185528
X178028Y331249
X163028
Y301249
X178028
X185528Y286249
X170528
X155528
X140528
X148028Y301249
X133028
Y271249
X148028
X163028
X412726Y274242
X415750Y290057
X412726Y314242
X415750Y330057
X412726Y354242
X437126Y344421
Y304420
Y264421
X415750Y250057
X412726Y234242
X415750Y209687
X437126Y224420
X452000Y228311
X447251Y234312
X451902Y241901
X452000Y268311
X447251Y274312
X451902Y281901
X452000Y308311
X447251Y314312
X451902Y321901
X452000Y348311
X447251Y354312
X451902Y361901
X415750Y370057
X140528Y376249
X110528
X95528
X35528
X20528
X5528
T03
X81500Y358960
X153900Y358960
Y372739
X81500Y372739
T04
X528115Y21393
X545390Y21193
Y51193
X528115Y51393
X527941Y61631
X545216Y61431
Y91431
X545275Y101649
X527999Y101649
X527941Y91631
X527999Y131649
Y141680
X545275Y141680
Y131649
Y171680
X545412Y181680
X528137Y181680
X527999Y171680
X528137Y211680
Y222050
X545412Y222050
Y211680
Y252050
Y262051
X528137Y262050
Y252050
Y292050
Y302050
X545412Y302050
Y292051
Y332050
Y342050
X528137
Y332050
Y372050
X545412
T05
X92900Y28400
X102900
Y38400
X92900
Y48400
X102900
X175000Y101500
X185000
Y111500
X175000
Y121500
X185000
Y131500
X175000
Y141500
X185000
Y151500
X175000
Y161500
X185000
Y171500
X175000
Y181500
X185000
X102900Y68400
Y58400
X92900
Y68400
T06
X498115Y21393
Y31393
Y41393
Y51393
X515390Y51193
Y41193
Y31193
Y21193
X515216Y61431
Y71431
Y81431
Y91431
X515275Y101649
Y111649
Y121649
Y131649
Y141680
Y151680
Y161680
Y171680
X515413Y181680
Y191680
Y201680
X498137Y201680
Y191680
Y181680
X497999Y171680
Y161680
Y151680
Y141680
Y131649
Y121649
Y111649
Y101649
X497940Y91631
Y81631
Y71631
Y61631
X498137Y211680
Y222050
Y232050
Y242050
Y252050
Y262050
Y272050
Y282050
Y292050
Y302050
Y312050
Y322050
Y332050
Y342050
Y352050
Y362050
X515413
Y352050
Y342050
Y332050
Y322050
Y312051
Y302050
Y292051
Y282050
Y272050
Y262051
Y252050
Y242051
Y232050
Y222050
Y211680
Y372050
X498137
T07
X29624Y302857
X39624
Y312857
X29624
X201339Y346844
X211339
Y356843
X201339
X260405Y354330
Y344330
X270406
Y354330
X280405
Y344330
X290406
Y354330
X300406
Y344330
X310405
Y354330
X320406
Y344330
X330405
Y354330
X340406
Y344330
X350406
Y354330
X360405
Y344330
X370406
Y354330
M30
