G04*
G04 #@! TF.GenerationSoftware,Altium Limited,Altium Designer,20.1.11 (218)*
G04*
G04 Layer_Color=8421504*
%FSLAX25Y25*%
%MOIN*%
G70*
G04*
G04 #@! TF.SameCoordinates,4C06D76E-2629-4F2D-9E92-9E7C4443802E*
G04*
G04*
G04 #@! TF.FilePolarity,Positive*
G04*
G01*
G75*
%ADD26R,0.03347X0.03347*%
%ADD27R,0.13780X0.11811*%
G04:AMPARAMS|DCode=28|XSize=23.62mil|YSize=68.9mil|CornerRadius=5.91mil|HoleSize=0mil|Usage=FLASHONLY|Rotation=0.000|XOffset=0mil|YOffset=0mil|HoleType=Round|Shape=RoundedRectangle|*
%AMROUNDEDRECTD28*
21,1,0.02362,0.05709,0,0,0.0*
21,1,0.01181,0.06890,0,0,0.0*
1,1,0.01181,0.00591,-0.02854*
1,1,0.01181,-0.00591,-0.02854*
1,1,0.01181,-0.00591,0.02854*
1,1,0.01181,0.00591,0.02854*
%
%ADD28ROUNDEDRECTD28*%
%ADD29R,0.03543X0.03937*%
%ADD30O,0.02362X0.06102*%
%ADD31R,0.02756X0.03543*%
%ADD32R,0.03543X0.02756*%
%ADD33R,0.03937X0.03543*%
%ADD34R,0.21654X0.05630*%
%ADD35R,0.03937X0.05512*%
%ADD36R,0.03150X0.03150*%
%ADD37R,0.05118X0.10630*%
%ADD38R,0.04764X0.07165*%
%ADD39R,0.11024X0.02165*%
D26*
X431716Y40401D02*
D03*
Y51819D02*
D03*
Y46110D02*
D03*
X432177Y20908D02*
D03*
Y32325D02*
D03*
Y26616D02*
D03*
X431380Y80377D02*
D03*
Y91794D02*
D03*
Y86086D02*
D03*
X431990Y61246D02*
D03*
Y72663D02*
D03*
Y66954D02*
D03*
D27*
X104029Y318006D02*
D03*
D28*
X96529Y307179D02*
D03*
X101529D02*
D03*
X106529D02*
D03*
X111529D02*
D03*
X96529Y328832D02*
D03*
X101529D02*
D03*
X106529D02*
D03*
X111529D02*
D03*
D29*
X95368Y342330D02*
D03*
X89068D02*
D03*
X454071Y28398D02*
D03*
X447771D02*
D03*
X400208Y19549D02*
D03*
X406507D02*
D03*
X454071Y42893D02*
D03*
X447771D02*
D03*
X466133Y28398D02*
D03*
X459834D02*
D03*
X421062Y54818D02*
D03*
X414763D02*
D03*
X402840Y54818D02*
D03*
X409139D02*
D03*
X469350Y363739D02*
D03*
X463051D02*
D03*
X436989Y337465D02*
D03*
X430689D02*
D03*
X469350Y349885D02*
D03*
X463051D02*
D03*
X418505Y373009D02*
D03*
X424805D02*
D03*
X469350Y323740D02*
D03*
X463051D02*
D03*
X436989Y297465D02*
D03*
X430689D02*
D03*
X469350Y309885D02*
D03*
X463051D02*
D03*
X418505Y333010D02*
D03*
X424805D02*
D03*
X469350Y283739D02*
D03*
X463051D02*
D03*
X436989Y257465D02*
D03*
X430689D02*
D03*
X469350Y269885D02*
D03*
X463051D02*
D03*
X418505Y293009D02*
D03*
X424805D02*
D03*
X469350Y243740D02*
D03*
X463051D02*
D03*
X436989Y217465D02*
D03*
X430689D02*
D03*
X469350Y229885D02*
D03*
X463051D02*
D03*
X418505Y253010D02*
D03*
X424805D02*
D03*
X469350Y203369D02*
D03*
X463051D02*
D03*
X436989Y177095D02*
D03*
X430689D02*
D03*
X469350Y189515D02*
D03*
X463051D02*
D03*
X418505Y212639D02*
D03*
X424805D02*
D03*
X469213Y163369D02*
D03*
X462913D02*
D03*
X436851Y137094D02*
D03*
X430552D02*
D03*
X469213Y149515D02*
D03*
X462913D02*
D03*
X418368Y172639D02*
D03*
X424667D02*
D03*
X418368Y132608D02*
D03*
X424667D02*
D03*
X436851Y97063D02*
D03*
X430552D02*
D03*
X469213Y123338D02*
D03*
X462913D02*
D03*
X469213Y109484D02*
D03*
X462913D02*
D03*
X400033Y59787D02*
D03*
X406332D02*
D03*
X453896Y83131D02*
D03*
X447597D02*
D03*
X465958Y68635D02*
D03*
X459659D02*
D03*
X453896D02*
D03*
X447597D02*
D03*
X420887Y95056D02*
D03*
X414588D02*
D03*
X402665Y95056D02*
D03*
X408964D02*
D03*
X412113Y19549D02*
D03*
X418412D02*
D03*
X459938Y39476D02*
D03*
X466237D02*
D03*
X411939Y59787D02*
D03*
X418238D02*
D03*
X459764Y79713D02*
D03*
X466063D02*
D03*
X457093Y343385D02*
D03*
X450794D02*
D03*
X457093Y303385D02*
D03*
X450794D02*
D03*
X457093Y263385D02*
D03*
X450794D02*
D03*
X457093Y223385D02*
D03*
X450794D02*
D03*
X457093Y183015D02*
D03*
X450794D02*
D03*
X456955Y143015D02*
D03*
X450656D02*
D03*
X450794Y365862D02*
D03*
X457093D02*
D03*
X450794Y325862D02*
D03*
X457093D02*
D03*
X450794Y285862D02*
D03*
X457093D02*
D03*
X450794Y245862D02*
D03*
X457093D02*
D03*
X450794Y205492D02*
D03*
X457093D02*
D03*
X450656Y165492D02*
D03*
X456955D02*
D03*
X-23035Y108899D02*
D03*
X-16736D02*
D03*
X456955Y102983D02*
D03*
X450656D02*
D03*
Y125461D02*
D03*
X456955D02*
D03*
D30*
X419637Y344421D02*
D03*
X424637D02*
D03*
X429637D02*
D03*
X434637D02*
D03*
X419637Y365680D02*
D03*
X424637D02*
D03*
X429637D02*
D03*
X434637D02*
D03*
X419637Y304420D02*
D03*
X424637D02*
D03*
X429637D02*
D03*
X434637D02*
D03*
X419637Y325680D02*
D03*
X424637D02*
D03*
X429637D02*
D03*
X434637D02*
D03*
X419637Y264421D02*
D03*
X424637D02*
D03*
X429637D02*
D03*
X434637D02*
D03*
X419637Y285680D02*
D03*
X424637D02*
D03*
X429637D02*
D03*
X434637D02*
D03*
X419637Y224420D02*
D03*
X424637D02*
D03*
X429637D02*
D03*
X434637D02*
D03*
X419637Y245680D02*
D03*
X424637D02*
D03*
X429637D02*
D03*
X434637D02*
D03*
X419637Y184051D02*
D03*
X424637D02*
D03*
X429637D02*
D03*
X434637D02*
D03*
X419637Y205310D02*
D03*
X424637D02*
D03*
X429637D02*
D03*
X434637D02*
D03*
X419499Y144050D02*
D03*
X424499D02*
D03*
X429499D02*
D03*
X434499D02*
D03*
X419499Y165310D02*
D03*
X424499D02*
D03*
X429499D02*
D03*
X434499D02*
D03*
X419499Y104019D02*
D03*
X424499D02*
D03*
X429499D02*
D03*
X434499D02*
D03*
X419499Y125279D02*
D03*
X424499D02*
D03*
X429499D02*
D03*
X434499D02*
D03*
X406216Y66806D02*
D03*
X411216D02*
D03*
X416216D02*
D03*
X421216D02*
D03*
X406216Y88065D02*
D03*
X411216D02*
D03*
X416216D02*
D03*
X421216D02*
D03*
X406390Y26568D02*
D03*
X411390D02*
D03*
X416390D02*
D03*
X421390D02*
D03*
X406390Y47828D02*
D03*
X411390D02*
D03*
X416390D02*
D03*
X421390D02*
D03*
D31*
X94433Y336196D02*
D03*
X99945D02*
D03*
X106360Y300531D02*
D03*
X111872D02*
D03*
X128028Y331256D02*
D03*
X122517D02*
D03*
X112494Y336197D02*
D03*
X106982D02*
D03*
D32*
X100829Y295610D02*
D03*
Y301122D02*
D03*
X89736Y307394D02*
D03*
Y312906D02*
D03*
X412880Y362515D02*
D03*
Y357003D02*
D03*
Y317003D02*
D03*
Y322515D02*
D03*
Y282515D02*
D03*
Y277003D02*
D03*
Y237003D02*
D03*
Y242515D02*
D03*
Y202145D02*
D03*
Y196633D02*
D03*
X412742Y156633D02*
D03*
Y162145D02*
D03*
X399909Y83735D02*
D03*
Y78224D02*
D03*
X400084Y37986D02*
D03*
Y43498D02*
D03*
X412742Y116602D02*
D03*
Y122114D02*
D03*
D33*
X84242Y307803D02*
D03*
Y314102D02*
D03*
X77736Y307803D02*
D03*
Y314102D02*
D03*
X-28308Y113919D02*
D03*
Y107620D02*
D03*
X25624Y357901D02*
D03*
Y364200D02*
D03*
X47624Y357901D02*
D03*
Y364200D02*
D03*
D34*
X130600Y322253D02*
D03*
Y306347D02*
D03*
D35*
X446992Y34850D02*
D03*
X454276D02*
D03*
X466920Y49893D02*
D03*
X459637D02*
D03*
X466822Y21549D02*
D03*
X459538D02*
D03*
X446817Y75088D02*
D03*
X454101D02*
D03*
X466746Y90131D02*
D03*
X459462D02*
D03*
X466647Y61787D02*
D03*
X459364D02*
D03*
X470206Y102519D02*
D03*
X462923D02*
D03*
X470206Y142550D02*
D03*
X462923D02*
D03*
X470344Y182550D02*
D03*
X463061D02*
D03*
X470344Y222920D02*
D03*
X463061D02*
D03*
X470344Y262920D02*
D03*
X463061D02*
D03*
X470344Y302921D02*
D03*
X463061D02*
D03*
X470344Y342920D02*
D03*
X463061D02*
D03*
X470206Y130649D02*
D03*
X462923D02*
D03*
X470206Y170680D02*
D03*
X462923D02*
D03*
X470344Y210680D02*
D03*
X463061D02*
D03*
X470344Y251050D02*
D03*
X463061D02*
D03*
X470344Y291051D02*
D03*
X463061D02*
D03*
X470344Y331050D02*
D03*
X463061D02*
D03*
X470344Y371050D02*
D03*
X463061D02*
D03*
X450164Y113910D02*
D03*
X457447D02*
D03*
X450164Y153942D02*
D03*
X457447D02*
D03*
X450302Y193942D02*
D03*
X457585D02*
D03*
X450302Y234312D02*
D03*
X457585D02*
D03*
X450302Y274312D02*
D03*
X457585D02*
D03*
X450302Y314312D02*
D03*
X457585D02*
D03*
X450302Y354312D02*
D03*
X457585D02*
D03*
X73000Y341740D02*
D03*
Y331504D02*
D03*
D36*
X437629Y25700D02*
D03*
Y31999D02*
D03*
X437415Y43317D02*
D03*
Y49616D02*
D03*
X437240Y83554D02*
D03*
Y89854D02*
D03*
X437454Y65938D02*
D03*
Y72237D02*
D03*
X443767Y350523D02*
D03*
Y344224D02*
D03*
Y304224D02*
D03*
Y310523D02*
D03*
Y270523D02*
D03*
Y264224D02*
D03*
Y224224D02*
D03*
Y230523D02*
D03*
Y190153D02*
D03*
Y183854D02*
D03*
X443629Y143853D02*
D03*
Y150153D02*
D03*
X443637Y361901D02*
D03*
Y368200D02*
D03*
Y328200D02*
D03*
Y321901D02*
D03*
Y281901D02*
D03*
Y288200D02*
D03*
Y248200D02*
D03*
Y241901D02*
D03*
Y201531D02*
D03*
Y207830D02*
D03*
X443499Y167830D02*
D03*
Y161531D02*
D03*
X25624Y377200D02*
D03*
Y370901D02*
D03*
X47624D02*
D03*
Y377200D02*
D03*
X443629Y110121D02*
D03*
Y103822D02*
D03*
X443499Y121499D02*
D03*
Y127798D02*
D03*
D37*
X121639Y353928D02*
D03*
X132662D02*
D03*
Y340362D02*
D03*
X121639D02*
D03*
D38*
X102332Y343557D02*
D03*
X113750D02*
D03*
X102332Y353557D02*
D03*
X113750D02*
D03*
D39*
X-48976Y280315D02*
D03*
Y277166D02*
D03*
Y274016D02*
D03*
Y270866D02*
D03*
Y267716D02*
D03*
Y264567D02*
D03*
Y261417D02*
D03*
Y258268D02*
D03*
Y255118D02*
D03*
Y251968D02*
D03*
Y248819D02*
D03*
Y245669D02*
D03*
Y242520D02*
D03*
Y239370D02*
D03*
Y236220D02*
D03*
Y233071D02*
D03*
Y229921D02*
D03*
Y226772D02*
D03*
Y223622D02*
D03*
Y220472D02*
D03*
Y217323D02*
D03*
Y214173D02*
D03*
Y211024D02*
D03*
Y207874D02*
D03*
Y204725D02*
D03*
Y201575D02*
D03*
Y198425D02*
D03*
Y182677D02*
D03*
Y179528D02*
D03*
Y176378D02*
D03*
Y173228D02*
D03*
Y170079D02*
D03*
Y166929D02*
D03*
Y163779D02*
D03*
Y160630D02*
D03*
Y157480D02*
D03*
Y154331D02*
D03*
Y151181D02*
D03*
Y148031D02*
D03*
Y144882D02*
D03*
Y141732D02*
D03*
Y138583D02*
D03*
Y135433D02*
D03*
Y132283D02*
D03*
Y129134D02*
D03*
Y125984D02*
D03*
Y122835D02*
D03*
Y119685D02*
D03*
Y116535D02*
D03*
Y113386D02*
D03*
M02*
