G04*
G04 #@! TF.GenerationSoftware,Altium Limited,Altium Designer,20.1.11 (218)*
G04*
G04 Layer_Physical_Order=2*
G04 Layer_Color=16711680*
%FSLAX25Y25*%
%MOIN*%
G70*
G04*
G04 #@! TF.SameCoordinates,4C06D76E-2629-4F2D-9E92-9E7C4443802E*
G04*
G04*
G04 #@! TF.FilePolarity,Positive*
G04*
G01*
G75*
%ADD16C,0.01000*%
%ADD21C,0.02000*%
%ADD39R,0.11024X0.02165*%
%ADD63C,0.06000*%
%ADD64R,0.05118X0.05118*%
%ADD65C,0.05118*%
%ADD66C,0.08000*%
%ADD67R,0.05906X0.05906*%
%ADD68C,0.05906*%
%ADD69C,0.02362*%
%ADD70C,0.01772*%
%ADD71C,0.03000*%
G36*
X465247Y363430D02*
X452639D01*
X452558Y363484D01*
X451902Y363615D01*
X451246Y363484D01*
X450690Y363113D01*
X450318Y362557D01*
X450188Y361901D01*
X450318Y361245D01*
X450690Y360689D01*
X451246Y360317D01*
X451902Y360187D01*
X452558Y360317D01*
X452639Y360371D01*
X465247D01*
Y348706D01*
X453866D01*
X453541Y349032D01*
X453212Y349523D01*
X452656Y349895D01*
X452000Y350025D01*
X451344Y349895D01*
X450788Y349523D01*
X450416Y348967D01*
X450286Y348311D01*
X450416Y347655D01*
X450788Y347099D01*
X451344Y346728D01*
X451562Y346684D01*
X452151Y346095D01*
X452647Y345763D01*
X453233Y345647D01*
X465247D01*
Y323430D01*
X452639D01*
X452558Y323484D01*
X451902Y323615D01*
X451246Y323484D01*
X450690Y323113D01*
X450318Y322557D01*
X450188Y321901D01*
X450318Y321245D01*
X450690Y320689D01*
X451246Y320317D01*
X451902Y320187D01*
X452558Y320317D01*
X452639Y320372D01*
X465247D01*
Y308706D01*
X453866D01*
X453541Y309032D01*
X453212Y309523D01*
X452656Y309895D01*
X452000Y310025D01*
X451344Y309895D01*
X450788Y309523D01*
X450416Y308967D01*
X450286Y308311D01*
X450416Y307655D01*
X450788Y307099D01*
X451344Y306728D01*
X451562Y306684D01*
X452151Y306095D01*
X452647Y305764D01*
X453233Y305647D01*
X465247D01*
Y283430D01*
X452639D01*
X452558Y283484D01*
X451902Y283615D01*
X451246Y283484D01*
X450690Y283113D01*
X450318Y282557D01*
X450188Y281901D01*
X450318Y281245D01*
X450690Y280689D01*
X451246Y280317D01*
X451902Y280187D01*
X452558Y280317D01*
X452639Y280371D01*
X465247D01*
Y268706D01*
X453866D01*
X453541Y269032D01*
X453212Y269523D01*
X452656Y269895D01*
X452000Y270025D01*
X451344Y269895D01*
X450788Y269523D01*
X450416Y268967D01*
X450286Y268311D01*
X450416Y267655D01*
X450788Y267099D01*
X451344Y266728D01*
X451562Y266684D01*
X452151Y266095D01*
X452647Y265763D01*
X453233Y265647D01*
X465247D01*
Y243430D01*
X452639D01*
X452558Y243484D01*
X451902Y243615D01*
X451246Y243484D01*
X450690Y243113D01*
X450318Y242557D01*
X450188Y241901D01*
X450318Y241245D01*
X450690Y240689D01*
X451246Y240317D01*
X451902Y240187D01*
X452558Y240317D01*
X452639Y240371D01*
X465247D01*
Y228706D01*
X453866D01*
X453541Y229032D01*
X453212Y229523D01*
X452656Y229895D01*
X452000Y230025D01*
X451344Y229895D01*
X450788Y229523D01*
X450416Y228967D01*
X450286Y228311D01*
X450416Y227655D01*
X450788Y227099D01*
X451344Y226728D01*
X451562Y226684D01*
X452151Y226095D01*
X452647Y225764D01*
X453233Y225647D01*
X465247D01*
Y203060D01*
X452639D01*
X452558Y203114D01*
X451902Y203245D01*
X451246Y203114D01*
X450690Y202743D01*
X450318Y202187D01*
X450188Y201531D01*
X450318Y200875D01*
X450690Y200319D01*
X451246Y199947D01*
X451902Y199817D01*
X452558Y199947D01*
X452639Y200001D01*
X465247D01*
Y188336D01*
X453866D01*
X453541Y188662D01*
X453212Y189153D01*
X452656Y189525D01*
X452000Y189655D01*
X451344Y189525D01*
X450788Y189153D01*
X450416Y188597D01*
X450286Y187941D01*
X450416Y187285D01*
X450788Y186729D01*
X451344Y186357D01*
X451562Y186314D01*
X452151Y185725D01*
X452647Y185393D01*
X453233Y185277D01*
X465247D01*
Y163060D01*
X452501D01*
X452420Y163114D01*
X451764Y163245D01*
X451108Y163114D01*
X450552Y162743D01*
X450181Y162187D01*
X450050Y161531D01*
X450181Y160875D01*
X450552Y160319D01*
X451108Y159947D01*
X451764Y159817D01*
X452420Y159947D01*
X452501Y160001D01*
X465247D01*
Y148336D01*
X453728D01*
X453403Y148661D01*
X453074Y149153D01*
X452518Y149525D01*
X451862Y149655D01*
X451206Y149525D01*
X450650Y149153D01*
X450279Y148597D01*
X450148Y147941D01*
X450279Y147285D01*
X450650Y146729D01*
X451206Y146357D01*
X451424Y146314D01*
X452013Y145725D01*
X452510Y145393D01*
X453095Y145277D01*
X465247D01*
Y123029D01*
X452501D01*
X452420Y123083D01*
X451764Y123213D01*
X451108Y123083D01*
X450552Y122711D01*
X450181Y122155D01*
X450050Y121499D01*
X450181Y120843D01*
X450552Y120287D01*
X451108Y119916D01*
X451764Y119785D01*
X452420Y119916D01*
X452501Y119970D01*
X465247D01*
Y108304D01*
X453728D01*
X453403Y108630D01*
X453074Y109122D01*
X452518Y109493D01*
X451862Y109624D01*
X451206Y109493D01*
X450650Y109122D01*
X450279Y108565D01*
X450148Y107910D01*
X450279Y107254D01*
X450650Y106698D01*
X451206Y106326D01*
X451424Y106283D01*
X452013Y105693D01*
X452510Y105362D01*
X453095Y105245D01*
X465247D01*
Y93481D01*
X428817D01*
X428543Y93664D01*
X428153Y93741D01*
X425993D01*
X425865Y93934D01*
X425309Y94305D01*
X424653Y94436D01*
X423997Y94305D01*
X423441Y93934D01*
X423069Y93378D01*
X422939Y92722D01*
X423069Y92066D01*
X423441Y91510D01*
X423997Y91138D01*
X424653Y91008D01*
X425309Y91138D01*
X425865Y91510D01*
X425993Y91702D01*
X427749D01*
X428023Y91519D01*
X428413Y91441D01*
X465247D01*
Y84728D01*
X428953D01*
X428872Y84782D01*
X428216Y84912D01*
X427561Y84782D01*
X427004Y84410D01*
X426633Y83854D01*
X426502Y83198D01*
X426633Y82542D01*
X427004Y81986D01*
X427561Y81615D01*
X428216Y81484D01*
X428872Y81615D01*
X428953Y81669D01*
X465247D01*
Y68384D01*
X429655D01*
X429428Y68722D01*
X428872Y69094D01*
X428216Y69224D01*
X427561Y69094D01*
X427004Y68722D01*
X426633Y68166D01*
X426502Y67510D01*
X426633Y66854D01*
X427004Y66298D01*
X427561Y65926D01*
X427778Y65883D01*
X427889Y65773D01*
X428385Y65441D01*
X428970Y65325D01*
X465247D01*
Y58650D01*
X432237D01*
X430380Y60508D01*
X430049Y60729D01*
X429659Y60807D01*
X423500D01*
X423371Y60999D01*
X422815Y61371D01*
X422159Y61501D01*
X421503Y61371D01*
X420947Y60999D01*
X420575Y60443D01*
X420445Y59787D01*
X420575Y59131D01*
X420947Y58575D01*
X421503Y58203D01*
X422159Y58073D01*
X422815Y58203D01*
X423371Y58575D01*
X423500Y58767D01*
X429237D01*
X431094Y56910D01*
X431425Y56689D01*
X431815Y56611D01*
X465247D01*
Y53243D01*
X428991D01*
X428717Y53426D01*
X428327Y53503D01*
X426168D01*
X426039Y53696D01*
X425483Y54067D01*
X424827Y54198D01*
X424171Y54067D01*
X423615Y53696D01*
X423244Y53140D01*
X423113Y52484D01*
X423244Y51828D01*
X423615Y51272D01*
X424171Y50900D01*
X424827Y50770D01*
X425483Y50900D01*
X426039Y51272D01*
X426168Y51464D01*
X427924D01*
X428198Y51281D01*
X428588Y51204D01*
X465247D01*
Y44490D01*
X429128D01*
X429047Y44544D01*
X428391Y44675D01*
X427735Y44544D01*
X427179Y44172D01*
X426807Y43616D01*
X426677Y42960D01*
X426807Y42305D01*
X427179Y41748D01*
X427735Y41377D01*
X428391Y41246D01*
X429047Y41377D01*
X429128Y41431D01*
X465247D01*
Y28146D01*
X429829D01*
X429603Y28484D01*
X429047Y28856D01*
X428391Y28986D01*
X427735Y28856D01*
X427179Y28484D01*
X426807Y27928D01*
X426677Y27272D01*
X426807Y26616D01*
X427179Y26060D01*
X427735Y25689D01*
X427953Y25645D01*
X428063Y25535D01*
X428560Y25203D01*
X429145Y25087D01*
X465247D01*
Y18413D01*
X432412D01*
X430554Y20270D01*
X430224Y20491D01*
X429834Y20569D01*
X423674D01*
X423546Y20761D01*
X422989Y21133D01*
X422333Y21263D01*
X421678Y21133D01*
X421122Y20761D01*
X420750Y20205D01*
X420619Y19549D01*
X420750Y18893D01*
X421122Y18337D01*
X421678Y17966D01*
X422333Y17835D01*
X422989Y17966D01*
X423546Y18337D01*
X423674Y18530D01*
X429411D01*
X431269Y16672D01*
X431600Y16451D01*
X431990Y16373D01*
X465247D01*
Y2039D01*
X2039D01*
Y99508D01*
X1884Y100288D01*
X1442Y100950D01*
X780Y101392D01*
X-0Y101547D01*
X-23910D01*
X-23959Y101537D01*
X-24010Y101544D01*
X-24395Y101526D01*
X-24542Y101489D01*
X-24693D01*
X-25450Y101338D01*
X-25636Y101261D01*
X-25833Y101222D01*
X-26546Y100927D01*
X-26713Y100815D01*
X-26898Y100739D01*
X-27540Y100310D01*
X-27682Y100168D01*
X-27849Y100056D01*
X-28395Y99510D01*
X-28506Y99343D01*
X-28648Y99201D01*
X-29077Y98560D01*
X-29154Y98374D01*
X-29265Y98207D01*
X-29561Y97494D01*
X-29600Y97297D01*
X-29677Y97111D01*
X-29827Y96355D01*
Y96203D01*
X-29864Y96057D01*
X-29883Y95671D01*
X-29876Y95621D01*
X-29886Y95571D01*
Y93673D01*
X-32815D01*
Y105413D01*
X-32825Y105463D01*
X-32817Y105513D01*
X-32836Y105899D01*
X-32873Y106046D01*
Y106197D01*
X-33023Y106954D01*
X-33100Y107140D01*
X-33139Y107337D01*
X-33435Y108050D01*
X-33546Y108217D01*
X-33623Y108402D01*
X-34052Y109044D01*
X-34194Y109186D01*
X-34306Y109353D01*
X-34851Y109899D01*
X-35018Y110010D01*
X-35160Y110152D01*
X-35802Y110581D01*
X-35987Y110658D01*
X-36155Y110769D01*
X-36868Y111065D01*
X-37064Y111104D01*
X-37250Y111181D01*
X-38007Y111331D01*
X-38158D01*
X-38305Y111368D01*
X-38691Y111387D01*
X-38741Y111380D01*
X-38791Y111390D01*
X-42756D01*
X-42965Y111803D01*
Y112331D01*
X-34156D01*
X-33766Y112408D01*
X-33435Y112629D01*
X-32672Y113392D01*
X-32138Y113286D01*
X-31482Y113416D01*
X-30926Y113788D01*
X-30554Y114344D01*
X-30424Y115000D01*
X-30554Y115656D01*
X-30926Y116212D01*
X-31482Y116584D01*
X-32138Y116714D01*
X-32793Y116584D01*
X-33349Y116212D01*
X-33721Y115656D01*
X-33828Y115120D01*
X-34578Y114370D01*
X-41999D01*
X-42465Y114453D01*
Y116035D01*
X-48976D01*
X-55488D01*
Y114453D01*
X-54988D01*
Y111803D01*
X-55197Y111390D01*
X-56437D01*
Y183788D01*
X-55488D01*
Y183177D01*
X-48976D01*
X-42465D01*
Y183788D01*
X-38004D01*
X-37938Y183801D01*
X-37871Y183792D01*
X-37254Y183832D01*
X-37060Y183884D01*
X-36860Y183898D01*
X-35668Y184217D01*
X-35429Y184335D01*
X-35176Y184421D01*
X-34108Y185037D01*
X-33908Y185213D01*
X-33686Y185361D01*
X-32814Y186233D01*
X-32666Y186455D01*
X-32490Y186656D01*
X-31873Y187724D01*
X-31787Y187976D01*
X-31670Y188215D01*
X-31350Y189407D01*
X-31333Y189673D01*
X-31281Y189935D01*
Y191168D01*
X-31333Y191429D01*
X-31350Y191696D01*
X-31670Y192887D01*
X-31787Y193126D01*
X-31873Y193379D01*
X-32490Y194447D01*
X-32666Y194647D01*
X-32814Y194869D01*
X-33686Y195741D01*
X-33908Y195889D01*
X-34108Y196065D01*
X-35176Y196682D01*
X-35429Y196768D01*
X-35668Y196886D01*
X-35545Y197370D01*
X-27595D01*
X-27205Y197448D01*
X-26874Y197669D01*
X-11806Y212737D01*
X-11475Y212516D01*
X-10819Y212386D01*
X-10163Y212516D01*
X-9607Y212888D01*
X-9235Y213444D01*
X-9105Y214100D01*
X-9235Y214756D01*
X-9607Y215312D01*
X-9728Y215393D01*
Y215994D01*
X-9607Y216075D01*
X-9235Y216632D01*
X-9105Y217287D01*
X-9235Y217943D01*
X-9607Y218499D01*
X-10163Y218871D01*
X-10819Y219002D01*
X-11475Y218871D01*
X-12031Y218499D01*
X-12403Y217943D01*
X-12533Y217287D01*
X-12488Y217060D01*
X-28501Y201048D01*
X-37729D01*
X-37857Y201240D01*
X-38414Y201612D01*
X-39069Y201742D01*
X-39725Y201612D01*
X-40281Y201240D01*
X-40653Y200684D01*
X-40783Y200028D01*
X-40737Y199796D01*
X-41054Y199409D01*
X-41999D01*
X-42465Y199492D01*
Y201075D01*
X-48976D01*
X-55488D01*
Y199492D01*
X-54988D01*
Y197315D01*
X-56437D01*
Y282311D01*
X-55488D01*
Y280815D01*
X-48976D01*
X-42465D01*
Y282311D01*
X-38791D01*
X-38741Y282321D01*
X-38691Y282314D01*
X-38305Y282333D01*
X-38158Y282369D01*
X-38007D01*
X-37250Y282520D01*
X-37064Y282597D01*
X-36868Y282636D01*
X-36155Y282931D01*
X-35987Y283043D01*
X-35802Y283120D01*
X-35160Y283549D01*
X-35018Y283691D01*
X-34851Y283802D01*
X-34306Y284348D01*
X-34194Y284515D01*
X-34052Y284657D01*
X-33623Y285299D01*
X-33546Y285484D01*
X-33435Y285651D01*
X-33139Y286364D01*
X-33100Y286561D01*
X-33023Y286747D01*
X-32873Y287504D01*
Y287655D01*
X-32836Y287801D01*
X-32817Y288187D01*
X-32825Y288238D01*
X-32815Y288287D01*
Y300028D01*
X-29886D01*
Y298130D01*
X-29876Y298080D01*
X-29883Y298030D01*
X-29864Y297644D01*
X-29827Y297497D01*
Y297346D01*
X-29677Y296589D01*
X-29600Y296404D01*
X-29561Y296207D01*
X-29265Y295494D01*
X-29154Y295327D01*
X-29077Y295141D01*
X-28648Y294499D01*
X-28506Y294357D01*
X-28395Y294190D01*
X-27849Y293645D01*
X-27682Y293533D01*
X-27540Y293391D01*
X-26898Y292962D01*
X-26713Y292885D01*
X-26546Y292774D01*
X-25833Y292478D01*
X-25636Y292439D01*
X-25450Y292362D01*
X-24693Y292212D01*
X-24542D01*
X-24395Y292175D01*
X-24010Y292156D01*
X-23959Y292164D01*
X-23910Y292154D01*
X124D01*
X904Y292309D01*
X1565Y292751D01*
X2008Y293413D01*
X2163Y294193D01*
Y391662D01*
X465247D01*
Y363430D01*
D02*
G37*
%LPC*%
G36*
X154400Y376263D02*
Y373239D01*
X157424D01*
X157367Y373668D01*
X157009Y374534D01*
X156438Y375277D01*
X155695Y375848D01*
X154829Y376206D01*
X154400Y376263D01*
D02*
G37*
G36*
X153400D02*
X152971Y376206D01*
X152105Y375848D01*
X151362Y375277D01*
X150791Y374534D01*
X150433Y373668D01*
X150376Y373239D01*
X153400D01*
Y376263D01*
D02*
G37*
G36*
X82000Y376263D02*
Y373239D01*
X85024D01*
X84967Y373668D01*
X84609Y374534D01*
X84038Y375277D01*
X83295Y375848D01*
X82429Y376206D01*
X82000Y376263D01*
D02*
G37*
G36*
X81000Y376263D02*
X80571Y376206D01*
X79705Y375848D01*
X78962Y375277D01*
X78391Y374534D01*
X78032Y373668D01*
X77976Y373239D01*
X81000D01*
Y376263D01*
D02*
G37*
G36*
X153400Y372239D02*
X150376D01*
X150433Y371810D01*
X150791Y370944D01*
X151362Y370201D01*
X152105Y369630D01*
X152971Y369272D01*
X153400Y369215D01*
Y372239D01*
D02*
G37*
G36*
X157424D02*
X154400D01*
Y369215D01*
X154829Y369272D01*
X155695Y369630D01*
X156438Y370201D01*
X157009Y370944D01*
X157367Y371810D01*
X157424Y372239D01*
D02*
G37*
G36*
X85024Y372239D02*
X82000D01*
Y369215D01*
X82429Y369272D01*
X83295Y369630D01*
X84038Y370201D01*
X84609Y370944D01*
X84967Y371810D01*
X85024Y372239D01*
D02*
G37*
G36*
X81000D02*
X77976D01*
X78032Y371810D01*
X78391Y370944D01*
X78962Y370201D01*
X79705Y369630D01*
X80571Y369272D01*
X81000Y369215D01*
Y372239D01*
D02*
G37*
G36*
X211839Y360812D02*
Y357344D01*
X215307D01*
X215236Y357888D01*
X214833Y358861D01*
X214191Y359696D01*
X213356Y360337D01*
X212383Y360740D01*
X211839Y360812D01*
D02*
G37*
G36*
X210839D02*
X210294Y360740D01*
X209321Y360337D01*
X208486Y359696D01*
X207845Y358861D01*
X207441Y357888D01*
X207370Y357344D01*
X210839D01*
Y360812D01*
D02*
G37*
G36*
X201839D02*
Y357344D01*
X205307D01*
X205236Y357888D01*
X204833Y358861D01*
X204191Y359696D01*
X203356Y360337D01*
X202383Y360740D01*
X201839Y360812D01*
D02*
G37*
G36*
X200839D02*
X200294Y360740D01*
X199321Y360337D01*
X198486Y359696D01*
X197845Y358861D01*
X197441Y357888D01*
X197370Y357344D01*
X200839D01*
Y360812D01*
D02*
G37*
G36*
X369905Y359308D02*
X369100Y359202D01*
X367884Y358698D01*
X366839Y357896D01*
X366038Y356852D01*
X365676Y355978D01*
X365135D01*
X364773Y356852D01*
X363971Y357896D01*
X362927Y358698D01*
X361711Y359202D01*
X360906Y359308D01*
Y354330D01*
X359906D01*
Y359308D01*
X359100Y359202D01*
X357884Y358698D01*
X356839Y357896D01*
X356038Y356852D01*
X355676Y355978D01*
X355135D01*
X354773Y356852D01*
X353972Y357896D01*
X352927Y358698D01*
X351711Y359202D01*
X350905Y359308D01*
Y354330D01*
X349905D01*
Y359308D01*
X349100Y359202D01*
X347884Y358698D01*
X346839Y357896D01*
X346038Y356852D01*
X345676Y355978D01*
X345135D01*
X344773Y356852D01*
X343971Y357896D01*
X342927Y358698D01*
X341711Y359202D01*
X340905Y359308D01*
Y354330D01*
X339906D01*
Y359308D01*
X339100Y359202D01*
X337884Y358698D01*
X336839Y357896D01*
X336038Y356852D01*
X335676Y355978D01*
X335135D01*
X334773Y356852D01*
X333972Y357896D01*
X332927Y358698D01*
X331711Y359202D01*
X330906Y359308D01*
Y354330D01*
X329906D01*
Y359308D01*
X329100Y359202D01*
X327884Y358698D01*
X326839Y357896D01*
X326038Y356852D01*
X325676Y355978D01*
X325135D01*
X324773Y356852D01*
X323972Y357896D01*
X322927Y358698D01*
X321711Y359202D01*
X320905Y359308D01*
Y354330D01*
X319905D01*
Y359308D01*
X319100Y359202D01*
X317884Y358698D01*
X316839Y357896D01*
X316038Y356852D01*
X315676Y355978D01*
X315135D01*
X314773Y356852D01*
X313971Y357896D01*
X312927Y358698D01*
X311711Y359202D01*
X310906Y359308D01*
Y354330D01*
X309906D01*
Y359308D01*
X309100Y359202D01*
X307884Y358698D01*
X306839Y357896D01*
X306038Y356852D01*
X305676Y355978D01*
X305135D01*
X304773Y356852D01*
X303972Y357896D01*
X302927Y358698D01*
X301711Y359202D01*
X300905Y359308D01*
Y354330D01*
X299905D01*
Y359308D01*
X299100Y359202D01*
X297884Y358698D01*
X296839Y357896D01*
X296038Y356852D01*
X295676Y355978D01*
X295135D01*
X294773Y356852D01*
X293971Y357896D01*
X292927Y358698D01*
X291711Y359202D01*
X290905Y359308D01*
Y354330D01*
X289906D01*
Y359308D01*
X289100Y359202D01*
X287884Y358698D01*
X286839Y357896D01*
X286038Y356852D01*
X285676Y355978D01*
X285135D01*
X284773Y356852D01*
X283972Y357896D01*
X282927Y358698D01*
X281711Y359202D01*
X280906Y359308D01*
Y354330D01*
X279906D01*
Y359308D01*
X279100Y359202D01*
X277884Y358698D01*
X276839Y357896D01*
X276038Y356852D01*
X275676Y355978D01*
X275135D01*
X274773Y356852D01*
X273972Y357896D01*
X272927Y358698D01*
X271711Y359202D01*
X270905Y359308D01*
Y354330D01*
X269905D01*
Y359308D01*
X269100Y359202D01*
X267884Y358698D01*
X266839Y357896D01*
X266038Y356852D01*
X265676Y355978D01*
X265135D01*
X264773Y356852D01*
X263971Y357896D01*
X262927Y358698D01*
X261711Y359202D01*
X260906Y359308D01*
Y354330D01*
X260405D01*
Y353830D01*
X255428D01*
X255534Y353025D01*
X256038Y351809D01*
X256839Y350764D01*
X257884Y349963D01*
X259100Y349459D01*
X260078Y349330D01*
Y348826D01*
X259231Y348715D01*
X258136Y348261D01*
X257196Y347540D01*
X256475Y346600D01*
X256021Y345505D01*
X255867Y344330D01*
X256021Y343156D01*
X256475Y342061D01*
X257196Y341121D01*
X258136Y340400D01*
X259231Y339946D01*
X260405Y339792D01*
X261580Y339946D01*
X262675Y340400D01*
X263615Y341121D01*
X264336Y342061D01*
X264790Y343156D01*
X264944Y344330D01*
X264790Y345505D01*
X264336Y346600D01*
X263615Y347540D01*
X262675Y348261D01*
X261580Y348715D01*
X260733Y348826D01*
Y349330D01*
X261711Y349459D01*
X262927Y349963D01*
X263971Y350764D01*
X264773Y351809D01*
X265135Y352683D01*
X265676D01*
X266038Y351809D01*
X266839Y350764D01*
X267884Y349963D01*
X269100Y349459D01*
X270078Y349330D01*
Y348826D01*
X269231Y348715D01*
X268136Y348261D01*
X267196Y347540D01*
X266475Y346600D01*
X266021Y345505D01*
X265867Y344330D01*
X266021Y343156D01*
X266475Y342061D01*
X267196Y341121D01*
X268136Y340400D01*
X269231Y339946D01*
X270406Y339792D01*
X271580Y339946D01*
X272675Y340400D01*
X273615Y341121D01*
X274336Y342061D01*
X274790Y343156D01*
X274944Y344330D01*
X274790Y345505D01*
X274336Y346600D01*
X273615Y347540D01*
X272675Y348261D01*
X271580Y348715D01*
X270733Y348826D01*
Y349330D01*
X271711Y349459D01*
X272927Y349963D01*
X273972Y350764D01*
X274773Y351809D01*
X275135Y352683D01*
X275676D01*
X276038Y351809D01*
X276839Y350764D01*
X277884Y349963D01*
X279100Y349459D01*
X280078Y349330D01*
Y348826D01*
X279231Y348715D01*
X278136Y348261D01*
X277196Y347540D01*
X276475Y346600D01*
X276021Y345505D01*
X275867Y344330D01*
X276021Y343156D01*
X276475Y342061D01*
X277196Y341121D01*
X278136Y340400D01*
X279231Y339946D01*
X280405Y339792D01*
X281580Y339946D01*
X282675Y340400D01*
X283615Y341121D01*
X284336Y342061D01*
X284790Y343156D01*
X284944Y344330D01*
X284790Y345505D01*
X284336Y346600D01*
X283615Y347540D01*
X282675Y348261D01*
X281580Y348715D01*
X280733Y348826D01*
Y349330D01*
X281711Y349459D01*
X282927Y349963D01*
X283972Y350764D01*
X284773Y351809D01*
X285135Y352683D01*
X285676D01*
X286038Y351809D01*
X286839Y350764D01*
X287884Y349963D01*
X289100Y349459D01*
X290078Y349330D01*
Y348826D01*
X289231Y348715D01*
X288136Y348261D01*
X287196Y347540D01*
X286475Y346600D01*
X286021Y345505D01*
X285867Y344330D01*
X286021Y343156D01*
X286475Y342061D01*
X287196Y341121D01*
X288136Y340400D01*
X289231Y339946D01*
X290406Y339792D01*
X291580Y339946D01*
X292675Y340400D01*
X293615Y341121D01*
X294336Y342061D01*
X294790Y343156D01*
X294944Y344330D01*
X294790Y345505D01*
X294336Y346600D01*
X293615Y347540D01*
X292675Y348261D01*
X291580Y348715D01*
X290733Y348826D01*
Y349330D01*
X291711Y349459D01*
X292927Y349963D01*
X293971Y350764D01*
X294773Y351809D01*
X295135Y352683D01*
X295676D01*
X296038Y351809D01*
X296839Y350764D01*
X297884Y349963D01*
X299100Y349459D01*
X300078Y349330D01*
Y348826D01*
X299231Y348715D01*
X298136Y348261D01*
X297196Y347540D01*
X296475Y346600D01*
X296021Y345505D01*
X295867Y344330D01*
X296021Y343156D01*
X296475Y342061D01*
X297196Y341121D01*
X298136Y340400D01*
X299231Y339946D01*
X300406Y339792D01*
X301580Y339946D01*
X302675Y340400D01*
X303615Y341121D01*
X304336Y342061D01*
X304790Y343156D01*
X304944Y344330D01*
X304790Y345505D01*
X304336Y346600D01*
X303615Y347540D01*
X302675Y348261D01*
X301580Y348715D01*
X300733Y348826D01*
Y349330D01*
X301711Y349459D01*
X302927Y349963D01*
X303972Y350764D01*
X304773Y351809D01*
X305135Y352683D01*
X305676D01*
X306038Y351809D01*
X306839Y350764D01*
X307884Y349963D01*
X309100Y349459D01*
X310078Y349330D01*
Y348826D01*
X309231Y348715D01*
X308136Y348261D01*
X307196Y347540D01*
X306475Y346600D01*
X306021Y345505D01*
X305867Y344330D01*
X306021Y343156D01*
X306475Y342061D01*
X307196Y341121D01*
X308136Y340400D01*
X309231Y339946D01*
X310405Y339792D01*
X311580Y339946D01*
X312675Y340400D01*
X313615Y341121D01*
X314336Y342061D01*
X314790Y343156D01*
X314944Y344330D01*
X314790Y345505D01*
X314336Y346600D01*
X313615Y347540D01*
X312675Y348261D01*
X311580Y348715D01*
X310733Y348826D01*
Y349330D01*
X311711Y349459D01*
X312927Y349963D01*
X313971Y350764D01*
X314773Y351809D01*
X315135Y352683D01*
X315676D01*
X316038Y351809D01*
X316839Y350764D01*
X317884Y349963D01*
X319100Y349459D01*
X320078Y349330D01*
Y348826D01*
X319231Y348715D01*
X318136Y348261D01*
X317196Y347540D01*
X316475Y346600D01*
X316021Y345505D01*
X315867Y344330D01*
X316021Y343156D01*
X316475Y342061D01*
X317196Y341121D01*
X318136Y340400D01*
X319231Y339946D01*
X320406Y339792D01*
X321580Y339946D01*
X322675Y340400D01*
X323615Y341121D01*
X324336Y342061D01*
X324790Y343156D01*
X324944Y344330D01*
X324790Y345505D01*
X324336Y346600D01*
X323615Y347540D01*
X322675Y348261D01*
X321580Y348715D01*
X320733Y348826D01*
Y349330D01*
X321711Y349459D01*
X322927Y349963D01*
X323972Y350764D01*
X324773Y351809D01*
X325135Y352683D01*
X325676D01*
X326038Y351809D01*
X326839Y350764D01*
X327884Y349963D01*
X329100Y349459D01*
X330078Y349330D01*
Y348826D01*
X329231Y348715D01*
X328136Y348261D01*
X327196Y347540D01*
X326475Y346600D01*
X326021Y345505D01*
X325867Y344330D01*
X326021Y343156D01*
X326475Y342061D01*
X327196Y341121D01*
X328136Y340400D01*
X329231Y339946D01*
X330405Y339792D01*
X331580Y339946D01*
X332675Y340400D01*
X333615Y341121D01*
X334336Y342061D01*
X334790Y343156D01*
X334944Y344330D01*
X334790Y345505D01*
X334336Y346600D01*
X333615Y347540D01*
X332675Y348261D01*
X331580Y348715D01*
X330733Y348826D01*
Y349330D01*
X331711Y349459D01*
X332927Y349963D01*
X333972Y350764D01*
X334773Y351809D01*
X335135Y352683D01*
X335676D01*
X336038Y351809D01*
X336839Y350764D01*
X337884Y349963D01*
X339100Y349459D01*
X340078Y349330D01*
Y348826D01*
X339231Y348715D01*
X338136Y348261D01*
X337196Y347540D01*
X336475Y346600D01*
X336021Y345505D01*
X335867Y344330D01*
X336021Y343156D01*
X336475Y342061D01*
X337196Y341121D01*
X338136Y340400D01*
X339231Y339946D01*
X340406Y339792D01*
X341580Y339946D01*
X342675Y340400D01*
X343615Y341121D01*
X344336Y342061D01*
X344790Y343156D01*
X344944Y344330D01*
X344790Y345505D01*
X344336Y346600D01*
X343615Y347540D01*
X342675Y348261D01*
X341580Y348715D01*
X340733Y348826D01*
Y349330D01*
X341711Y349459D01*
X342927Y349963D01*
X343971Y350764D01*
X344773Y351809D01*
X345135Y352683D01*
X345676D01*
X346038Y351809D01*
X346839Y350764D01*
X347884Y349963D01*
X349100Y349459D01*
X350078Y349330D01*
Y348826D01*
X349231Y348715D01*
X348136Y348261D01*
X347196Y347540D01*
X346475Y346600D01*
X346021Y345505D01*
X345867Y344330D01*
X346021Y343156D01*
X346475Y342061D01*
X347196Y341121D01*
X348136Y340400D01*
X349231Y339946D01*
X350406Y339792D01*
X351580Y339946D01*
X352675Y340400D01*
X353615Y341121D01*
X354336Y342061D01*
X354790Y343156D01*
X354944Y344330D01*
X354790Y345505D01*
X354336Y346600D01*
X353615Y347540D01*
X352675Y348261D01*
X351580Y348715D01*
X350733Y348826D01*
Y349330D01*
X351711Y349459D01*
X352927Y349963D01*
X353972Y350764D01*
X354773Y351809D01*
X355135Y352683D01*
X355676D01*
X356038Y351809D01*
X356839Y350764D01*
X357884Y349963D01*
X359100Y349459D01*
X360078Y349330D01*
Y348826D01*
X359231Y348715D01*
X358136Y348261D01*
X357196Y347540D01*
X356475Y346600D01*
X356021Y345505D01*
X355867Y344330D01*
X356021Y343156D01*
X356475Y342061D01*
X357196Y341121D01*
X358136Y340400D01*
X359231Y339946D01*
X360405Y339792D01*
X361580Y339946D01*
X362675Y340400D01*
X363615Y341121D01*
X364336Y342061D01*
X364790Y343156D01*
X364944Y344330D01*
X364790Y345505D01*
X364336Y346600D01*
X363615Y347540D01*
X362675Y348261D01*
X361580Y348715D01*
X360733Y348826D01*
Y349330D01*
X361711Y349459D01*
X362927Y349963D01*
X363971Y350764D01*
X364773Y351809D01*
X365135Y352683D01*
X365676D01*
X366038Y351809D01*
X366839Y350764D01*
X367884Y349963D01*
X369100Y349459D01*
X370078Y349330D01*
Y348826D01*
X369231Y348715D01*
X368136Y348261D01*
X367196Y347540D01*
X366475Y346600D01*
X366021Y345505D01*
X365867Y344330D01*
X366021Y343156D01*
X366475Y342061D01*
X367196Y341121D01*
X368136Y340400D01*
X369231Y339946D01*
X370406Y339792D01*
X371580Y339946D01*
X372675Y340400D01*
X373615Y341121D01*
X374336Y342061D01*
X374790Y343156D01*
X374944Y344330D01*
X374790Y345505D01*
X374336Y346600D01*
X373615Y347540D01*
X372675Y348261D01*
X371580Y348715D01*
X370733Y348826D01*
Y349330D01*
X371711Y349459D01*
X372927Y349963D01*
X373972Y350764D01*
X374773Y351809D01*
X375277Y353025D01*
X375383Y353830D01*
X370406D01*
Y354330D01*
X369905D01*
Y359308D01*
D02*
G37*
G36*
X84559Y362019D02*
X78441D01*
Y355901D01*
X84559D01*
Y362019D01*
D02*
G37*
G36*
X156959Y362018D02*
X150841D01*
Y355900D01*
X156959D01*
Y362018D01*
D02*
G37*
G36*
X370905Y359308D02*
Y354830D01*
X375383D01*
X375277Y355636D01*
X374773Y356852D01*
X373972Y357896D01*
X372927Y358698D01*
X371711Y359202D01*
X370905Y359308D01*
D02*
G37*
G36*
X259906D02*
X259100Y359202D01*
X257884Y358698D01*
X256839Y357896D01*
X256038Y356852D01*
X255534Y355636D01*
X255428Y354830D01*
X259906D01*
Y359308D01*
D02*
G37*
G36*
X215307Y356344D02*
X211839D01*
Y352875D01*
X212383Y352946D01*
X213356Y353349D01*
X214191Y353991D01*
X214833Y354826D01*
X215236Y355799D01*
X215307Y356344D01*
D02*
G37*
G36*
X210839D02*
X207370D01*
X207441Y355799D01*
X207845Y354826D01*
X208486Y353991D01*
X209321Y353349D01*
X210294Y352946D01*
X210839Y352875D01*
Y356344D01*
D02*
G37*
G36*
X205307D02*
X201839D01*
Y352875D01*
X202383Y352946D01*
X203356Y353349D01*
X204191Y353991D01*
X204833Y354826D01*
X205236Y355799D01*
X205307Y356344D01*
D02*
G37*
G36*
X200839D02*
X197370D01*
X197441Y355799D01*
X197845Y354826D01*
X198486Y353991D01*
X199321Y353349D01*
X200294Y352946D01*
X200839Y352875D01*
Y356344D01*
D02*
G37*
G36*
X211339Y350374D02*
X210425Y350253D01*
X209574Y349901D01*
X208842Y349340D01*
X208281Y348609D01*
X207929Y347757D01*
X207808Y346844D01*
X207929Y345930D01*
X208281Y345078D01*
X208842Y344347D01*
X209574Y343786D01*
X210425Y343434D01*
X211339Y343313D01*
X212252Y343434D01*
X213104Y343786D01*
X213835Y344347D01*
X214396Y345078D01*
X214749Y345930D01*
X214869Y346844D01*
X214749Y347757D01*
X214396Y348609D01*
X213835Y349340D01*
X213104Y349901D01*
X212252Y350253D01*
X211339Y350374D01*
D02*
G37*
G36*
X201339D02*
X200425Y350253D01*
X199574Y349901D01*
X198842Y349340D01*
X198281Y348609D01*
X197929Y347757D01*
X197808Y346844D01*
X197929Y345930D01*
X198281Y345078D01*
X198842Y344347D01*
X199574Y343786D01*
X200425Y343434D01*
X201339Y343313D01*
X202252Y343434D01*
X203104Y343786D01*
X203835Y344347D01*
X204396Y345078D01*
X204749Y345930D01*
X204869Y346844D01*
X204749Y347757D01*
X204396Y348609D01*
X203835Y349340D01*
X203104Y349901D01*
X202252Y350253D01*
X201339Y350374D01*
D02*
G37*
G36*
X132569Y331647D02*
X131913Y331516D01*
X131357Y331145D01*
X131228Y330952D01*
X95841D01*
X95451Y330875D01*
X95120Y330654D01*
X87440Y322974D01*
X87219Y322643D01*
X87141Y322253D01*
Y317998D01*
X86949Y317869D01*
X86577Y317313D01*
X86447Y316657D01*
X86577Y316002D01*
X86949Y315445D01*
X87505Y315074D01*
X88161Y314943D01*
X88817Y315074D01*
X89373Y315445D01*
X89745Y316002D01*
X89875Y316657D01*
X89745Y317313D01*
X89373Y317869D01*
X89180Y317998D01*
Y321831D01*
X96263Y328913D01*
X131228D01*
X131357Y328721D01*
X131913Y328349D01*
X132569Y328219D01*
X133224Y328349D01*
X133781Y328721D01*
X134152Y329277D01*
X134283Y329933D01*
X134152Y330589D01*
X133781Y331145D01*
X133224Y331516D01*
X132569Y331647D01*
D02*
G37*
G36*
X30124Y316826D02*
Y313357D01*
X33592D01*
X33521Y313902D01*
X33118Y314875D01*
X32476Y315710D01*
X31641Y316351D01*
X30668Y316755D01*
X30124Y316826D01*
D02*
G37*
G36*
X29124D02*
X28579Y316755D01*
X27606Y316351D01*
X26771Y315710D01*
X26130Y314875D01*
X25727Y313902D01*
X25655Y313357D01*
X29124D01*
Y316826D01*
D02*
G37*
G36*
X39624Y316388D02*
X38710Y316267D01*
X37859Y315915D01*
X37127Y315354D01*
X36566Y314622D01*
X36214Y313771D01*
X36093Y312857D01*
X36214Y311944D01*
X36566Y311092D01*
X37127Y310361D01*
X37859Y309800D01*
X38710Y309448D01*
X39624Y309327D01*
X40537Y309448D01*
X41389Y309800D01*
X42120Y310361D01*
X42681Y311092D01*
X43033Y311944D01*
X43154Y312857D01*
X43033Y313771D01*
X42681Y314622D01*
X42120Y315354D01*
X41389Y315915D01*
X40537Y316267D01*
X39624Y316388D01*
D02*
G37*
G36*
X33592Y312357D02*
X30124D01*
Y308889D01*
X30668Y308960D01*
X31641Y309363D01*
X32476Y310005D01*
X33118Y310840D01*
X33521Y311813D01*
X33592Y312357D01*
D02*
G37*
G36*
X29124D02*
X25655D01*
X25727Y311813D01*
X26130Y310840D01*
X26771Y310005D01*
X27606Y309363D01*
X28579Y308960D01*
X29124Y308889D01*
Y312357D01*
D02*
G37*
G36*
X30124Y306826D02*
Y303357D01*
X33592D01*
X33521Y303902D01*
X33118Y304875D01*
X32476Y305710D01*
X31641Y306351D01*
X30668Y306754D01*
X30124Y306826D01*
D02*
G37*
G36*
X29124D02*
X28579Y306754D01*
X27606Y306351D01*
X26771Y305710D01*
X26130Y304875D01*
X25727Y303902D01*
X25655Y303357D01*
X29124D01*
Y306826D01*
D02*
G37*
G36*
X39624Y306388D02*
X38710Y306267D01*
X37859Y305915D01*
X37127Y305354D01*
X36566Y304623D01*
X36214Y303771D01*
X36093Y302857D01*
X36214Y301944D01*
X36566Y301092D01*
X37127Y300361D01*
X37859Y299800D01*
X38710Y299447D01*
X39624Y299327D01*
X40537Y299447D01*
X41389Y299800D01*
X42120Y300361D01*
X42681Y301092D01*
X43033Y301944D01*
X43154Y302857D01*
X43033Y303771D01*
X42681Y304623D01*
X42120Y305354D01*
X41389Y305915D01*
X40537Y306267D01*
X39624Y306388D01*
D02*
G37*
G36*
X33592Y302357D02*
X30124D01*
Y298889D01*
X30668Y298960D01*
X31641Y299363D01*
X32476Y300005D01*
X33118Y300840D01*
X33521Y301813D01*
X33592Y302357D01*
D02*
G37*
G36*
X29124D02*
X25655D01*
X25727Y301813D01*
X26130Y300840D01*
X26771Y300005D01*
X27606Y299363D01*
X28579Y298960D01*
X29124Y298889D01*
Y302357D01*
D02*
G37*
G36*
X-42465Y279815D02*
X-48976D01*
X-55488D01*
Y278232D01*
Y277665D01*
X-48976D01*
X-42465D01*
Y278232D01*
Y279815D01*
D02*
G37*
G36*
Y276665D02*
X-48976D01*
X-55488D01*
Y275083D01*
X-54988D01*
Y272949D01*
X-55488D01*
Y271366D01*
X-48976D01*
X-42465D01*
Y271684D01*
X-41965Y272053D01*
X-41500Y271961D01*
X-39000D01*
X-38220Y272116D01*
X-37558Y272558D01*
X-37116Y273220D01*
X-36961Y274000D01*
X-37116Y274780D01*
X-37558Y275442D01*
X-38220Y275884D01*
X-39000Y276039D01*
X-41500D01*
X-41965Y275947D01*
X-42465Y276316D01*
Y276665D01*
D02*
G37*
G36*
Y270366D02*
X-48976D01*
X-55488D01*
Y268783D01*
X-54988D01*
Y266650D01*
X-55488D01*
Y265067D01*
X-48976D01*
X-42465D01*
Y266650D01*
X-42965D01*
Y268783D01*
X-42465D01*
Y270366D01*
D02*
G37*
G36*
Y264067D02*
X-48976D01*
X-55488D01*
Y262484D01*
X-54988D01*
Y260350D01*
X-55488D01*
Y258768D01*
X-48976D01*
X-42465D01*
Y260350D01*
X-42965D01*
Y262484D01*
X-42465D01*
Y264067D01*
D02*
G37*
G36*
Y257768D02*
X-48976D01*
X-55488D01*
Y256185D01*
X-54988D01*
Y254051D01*
X-55488D01*
Y252468D01*
X-48976D01*
X-42465D01*
Y254051D01*
X-41970Y254063D01*
X-38255D01*
X-38072Y253788D01*
X-37515Y253416D01*
X-36860Y253286D01*
X-36204Y253416D01*
X-35647Y253788D01*
X-35276Y254344D01*
X-35146Y255000D01*
X-35276Y255656D01*
X-35647Y256212D01*
X-36204Y256584D01*
X-36860Y256714D01*
X-37515Y256584D01*
X-38072Y256212D01*
X-38145Y256102D01*
X-41999D01*
X-42465Y256185D01*
Y257768D01*
D02*
G37*
G36*
Y251468D02*
X-48976D01*
X-55488D01*
Y249886D01*
X-54988D01*
Y247752D01*
X-55488D01*
Y246169D01*
X-48976D01*
X-42465D01*
Y247752D01*
X-41970Y247764D01*
X-38405D01*
X-38276Y247571D01*
X-37721Y247200D01*
X-37064Y247069D01*
X-36409Y247200D01*
X-35853Y247571D01*
X-35481Y248128D01*
X-35350Y248783D01*
X-35481Y249439D01*
X-35853Y249995D01*
X-36409Y250367D01*
X-37064Y250497D01*
X-37721Y250367D01*
X-38276Y249995D01*
X-38405Y249803D01*
X-41999D01*
X-42465Y249886D01*
Y251468D01*
D02*
G37*
G36*
Y245169D02*
X-48976D01*
X-55488D01*
Y243587D01*
X-54988D01*
Y241453D01*
X-55488D01*
Y239870D01*
X-48976D01*
X-42465D01*
Y241453D01*
X-41970Y241465D01*
X-38405D01*
X-38276Y241272D01*
X-37721Y240901D01*
X-37064Y240770D01*
X-36409Y240901D01*
X-35853Y241272D01*
X-35481Y241828D01*
X-35350Y242484D01*
X-35481Y243140D01*
X-35853Y243696D01*
X-36409Y244068D01*
X-37064Y244198D01*
X-37721Y244068D01*
X-38276Y243696D01*
X-38405Y243504D01*
X-41999D01*
X-42465Y243587D01*
Y245169D01*
D02*
G37*
G36*
Y238870D02*
X-48976D01*
X-55488D01*
Y237287D01*
X-54988D01*
Y235154D01*
X-55488D01*
Y233571D01*
X-48976D01*
X-42465D01*
Y235154D01*
X-41970Y235165D01*
X-38405D01*
X-38276Y234973D01*
X-37721Y234601D01*
X-37064Y234471D01*
X-36409Y234601D01*
X-35853Y234973D01*
X-35481Y235529D01*
X-35350Y236185D01*
X-35481Y236841D01*
X-35853Y237397D01*
X-36409Y237769D01*
X-37064Y237899D01*
X-37721Y237769D01*
X-38276Y237397D01*
X-38405Y237205D01*
X-41999D01*
X-42465Y237287D01*
Y238870D01*
D02*
G37*
G36*
Y232571D02*
X-48976D01*
X-55488D01*
Y230988D01*
X-54988D01*
Y228854D01*
X-55488D01*
Y227272D01*
X-48976D01*
X-42465D01*
Y228854D01*
X-41970Y228866D01*
X-38405D01*
X-38276Y228674D01*
X-37721Y228302D01*
X-37064Y228172D01*
X-36409Y228302D01*
X-35853Y228674D01*
X-35481Y229230D01*
X-35350Y229886D01*
X-35481Y230542D01*
X-35853Y231098D01*
X-36409Y231469D01*
X-37064Y231600D01*
X-37721Y231469D01*
X-38276Y231098D01*
X-38405Y230905D01*
X-41999D01*
X-42465Y230988D01*
Y232571D01*
D02*
G37*
G36*
Y226272D02*
X-48976D01*
X-55488D01*
Y224689D01*
X-54988D01*
Y222555D01*
X-55488D01*
Y220972D01*
X-48976D01*
X-42465D01*
Y222555D01*
X-41970Y222567D01*
X-38725D01*
X-38679Y222338D01*
X-38308Y221782D01*
X-37752Y221410D01*
X-37096Y221280D01*
X-36440Y221410D01*
X-35884Y221782D01*
X-35512Y222338D01*
X-35382Y222994D01*
X-35512Y223650D01*
X-35884Y224206D01*
X-36440Y224577D01*
X-37096Y224708D01*
X-37752Y224577D01*
X-37789Y224553D01*
X-38057Y224606D01*
X-41999D01*
X-42465Y224689D01*
Y226272D01*
D02*
G37*
G36*
Y219972D02*
X-48976D01*
X-55488D01*
Y218390D01*
X-54988D01*
Y216256D01*
X-55488D01*
Y214673D01*
X-48976D01*
X-42465D01*
Y216256D01*
X-41970Y216268D01*
X-38899D01*
X-38770Y216075D01*
X-38214Y215704D01*
X-37558Y215573D01*
X-36902Y215704D01*
X-36346Y216075D01*
X-35975Y216632D01*
X-35844Y217287D01*
X-35975Y217943D01*
X-36346Y218499D01*
X-36902Y218871D01*
X-37558Y219002D01*
X-38214Y218871D01*
X-38770Y218499D01*
X-38899Y218307D01*
X-41999D01*
X-42465Y218390D01*
Y219972D01*
D02*
G37*
G36*
Y213673D02*
X-48976D01*
X-55488D01*
Y212091D01*
X-54988D01*
Y209957D01*
X-55488D01*
Y208374D01*
X-48976D01*
X-42465D01*
Y209957D01*
X-41970Y209969D01*
X-38891D01*
X-38770Y209788D01*
X-38214Y209416D01*
X-37558Y209286D01*
X-36902Y209416D01*
X-36346Y209788D01*
X-35975Y210344D01*
X-35844Y211000D01*
X-35975Y211656D01*
X-36346Y212212D01*
X-36902Y212584D01*
X-37558Y212714D01*
X-38214Y212584D01*
X-38770Y212212D01*
X-38907Y212008D01*
X-41999D01*
X-42465Y212091D01*
Y213673D01*
D02*
G37*
G36*
X-5956Y211142D02*
X-6612Y211012D01*
X-7168Y210640D01*
X-7540Y210084D01*
X-7670Y209428D01*
X-7540Y208772D01*
X-7532Y208760D01*
X-34683Y181608D01*
X-35621D01*
X-35730Y181771D01*
X-36286Y182143D01*
X-36942Y182273D01*
X-37598Y182143D01*
X-38154Y181771D01*
X-38526Y181215D01*
X-38593Y180877D01*
X-38695Y180555D01*
X-39137Y180512D01*
X-41999D01*
X-42465Y180595D01*
Y182177D01*
X-48976D01*
X-55488D01*
Y180595D01*
X-54988D01*
Y178461D01*
X-55488D01*
Y176878D01*
X-48976D01*
X-42465D01*
Y178461D01*
X-41970Y178473D01*
X-39546D01*
X-38778Y177704D01*
X-38447Y177483D01*
X-38247Y177444D01*
X-38236Y177436D01*
X-37846Y177358D01*
X-37846Y177358D01*
X-34350D01*
X-33960Y177436D01*
X-33629Y177657D01*
X-5181Y206106D01*
X-4656Y205755D01*
X-4000Y205625D01*
X-3344Y205755D01*
X-2788Y206127D01*
X-2416Y206683D01*
X-2286Y207339D01*
X-2416Y207995D01*
X-2788Y208551D01*
X-3344Y208922D01*
X-3814Y209016D01*
X-4242Y209428D01*
X-4373Y210084D01*
X-4744Y210640D01*
X-5300Y211012D01*
X-5956Y211142D01*
D02*
G37*
G36*
X-42465Y207374D02*
X-48976D01*
X-55488D01*
Y205791D01*
X-54988D01*
Y203658D01*
X-55488D01*
Y202075D01*
X-48976D01*
X-42465D01*
Y203658D01*
X-42009Y203764D01*
X-39028D01*
X-38963Y203667D01*
X-38407Y203295D01*
X-37751Y203165D01*
X-37095Y203295D01*
X-36539Y203667D01*
X-36167Y204223D01*
X-36037Y204879D01*
X-36167Y205535D01*
X-36539Y206091D01*
X-37095Y206462D01*
X-37751Y206593D01*
X-38407Y206462D01*
X-38963Y206091D01*
X-39155Y205803D01*
X-42465D01*
Y207374D01*
D02*
G37*
G36*
X-971Y205966D02*
X-1627Y205836D01*
X-2183Y205464D01*
X-2554Y204908D01*
X-2685Y204252D01*
X-2640Y204025D01*
X-31176Y175488D01*
X-31708Y175844D01*
X-32364Y175974D01*
X-33020Y175844D01*
X-33576Y175472D01*
X-33948Y174916D01*
X-34015Y174577D01*
X-34120Y174256D01*
X-34559Y174212D01*
X-41999D01*
X-42465Y174295D01*
Y175878D01*
X-48976D01*
X-55488D01*
Y174295D01*
X-54988D01*
Y172161D01*
X-55488D01*
Y170579D01*
X-48976D01*
X-42465D01*
Y172161D01*
X-41970Y172173D01*
X-34972D01*
X-34156Y171358D01*
X-33825Y171137D01*
X-33435Y171059D01*
X-31023D01*
X-30632Y171137D01*
X-30302Y171358D01*
X-1140Y200520D01*
X14D01*
X366Y200590D01*
X625Y200417D01*
X1281Y200286D01*
X1937Y200417D01*
X2493Y200788D01*
X2864Y201344D01*
X2995Y202000D01*
X2864Y202656D01*
X2493Y203212D01*
X1937Y203584D01*
X1281Y203714D01*
X1141Y203687D01*
X715Y204112D01*
X743Y204252D01*
X613Y204908D01*
X241Y205464D01*
X-315Y205836D01*
X-971Y205966D01*
D02*
G37*
G36*
X5000Y200104D02*
X4344Y199973D01*
X3788Y199602D01*
X3416Y199046D01*
X3286Y198390D01*
X3331Y198163D01*
X-25581Y169251D01*
X-26078Y169584D01*
X-26734Y169714D01*
X-27390Y169584D01*
X-27946Y169212D01*
X-28318Y168656D01*
X-28448Y168000D01*
X-28936Y167913D01*
X-41999D01*
X-42465Y167996D01*
Y169579D01*
X-48976D01*
X-55488D01*
Y167996D01*
X-54988D01*
Y165862D01*
X-55488D01*
Y164279D01*
X-48976D01*
X-42465D01*
Y165862D01*
X-41970Y165874D01*
X-29135D01*
X-28358Y165098D01*
X-28028Y164877D01*
X-27637Y164799D01*
X-25363D01*
X-24973Y164877D01*
X-24642Y165098D01*
X5200Y194940D01*
X5712Y195054D01*
X6268Y194683D01*
X6924Y194552D01*
X7580Y194683D01*
X8136Y195054D01*
X8508Y195610D01*
X8638Y196266D01*
X8508Y196922D01*
X8136Y197478D01*
X7580Y197850D01*
X7134Y197938D01*
X6746Y198356D01*
X6703Y198446D01*
X6584Y199046D01*
X6212Y199602D01*
X5656Y199973D01*
X5000Y200104D01*
D02*
G37*
G36*
X11141Y193855D02*
X10485Y193724D01*
X9929Y193353D01*
X9557Y192797D01*
X9448Y192247D01*
X-19343Y163456D01*
X-19782Y163212D01*
X-20338Y163584D01*
X-20994Y163714D01*
X-21650Y163584D01*
X-22206Y163212D01*
X-22577Y162656D01*
X-22708Y162000D01*
X-23141Y161614D01*
X-41999D01*
X-42465Y161697D01*
Y163279D01*
X-48976D01*
X-55488D01*
Y161697D01*
X-54988D01*
Y159563D01*
X-55488D01*
Y157980D01*
X-48976D01*
X-42465D01*
Y159563D01*
X-41970Y159575D01*
X-23095D01*
X-22618Y159098D01*
X-22287Y158877D01*
X-21897Y158799D01*
X-19417D01*
X-19027Y158877D01*
X-18696Y159098D01*
X11146Y188940D01*
X11929D01*
X11953Y188905D01*
X12508Y188533D01*
X13164Y188403D01*
X13820Y188533D01*
X14377Y188905D01*
X14748Y189461D01*
X14878Y190117D01*
X14748Y190773D01*
X14377Y191329D01*
X13820Y191700D01*
X13164Y191831D01*
X12855Y192141D01*
X12724Y192797D01*
X12353Y193353D01*
X11796Y193724D01*
X11141Y193855D01*
D02*
G37*
G36*
X16727Y188268D02*
X16071Y188137D01*
X15515Y187766D01*
X15144Y187210D01*
X15029Y186635D01*
X-13992Y157613D01*
X-14500Y157714D01*
X-15156Y157584D01*
X-15712Y157212D01*
X-16084Y156656D01*
X-16214Y156000D01*
X-16167Y155763D01*
X-16325Y155534D01*
X-16588Y155315D01*
X-41999D01*
X-42465Y155398D01*
Y156980D01*
X-48976D01*
X-55488D01*
Y155398D01*
X-54988D01*
Y153264D01*
X-55488D01*
Y151681D01*
X-48976D01*
X-42465D01*
Y153264D01*
X-41970Y153276D01*
X-16899D01*
X-16721Y153098D01*
X-16390Y152877D01*
X-16000Y152799D01*
X-13597D01*
X-13206Y152877D01*
X-12876Y153098D01*
X17055Y183029D01*
X17493Y183273D01*
X18049Y182902D01*
X18705Y182771D01*
X19361Y182902D01*
X19917Y183273D01*
X20289Y183829D01*
X20419Y184485D01*
X20289Y185141D01*
X19917Y185697D01*
X19361Y186069D01*
X18874Y186166D01*
X18441Y186554D01*
X18311Y187210D01*
X17939Y187766D01*
X17383Y188137D01*
X16727Y188268D01*
D02*
G37*
G36*
X178453Y184953D02*
X171547D01*
Y178047D01*
X178453D01*
Y184953D01*
D02*
G37*
G36*
X185000Y184983D02*
X184099Y184864D01*
X183259Y184516D01*
X182537Y183963D01*
X181984Y183241D01*
X181636Y182401D01*
X181518Y181500D01*
X181636Y180599D01*
X181984Y179759D01*
X182537Y179037D01*
X183259Y178484D01*
X184099Y178136D01*
X185000Y178017D01*
X185901Y178136D01*
X186741Y178484D01*
X187462Y179037D01*
X188016Y179759D01*
X188364Y180599D01*
X188482Y181500D01*
X188364Y182401D01*
X188016Y183241D01*
X187462Y183963D01*
X186741Y184516D01*
X185901Y184864D01*
X185000Y184983D01*
D02*
G37*
G36*
Y174983D02*
X184099Y174864D01*
X183259Y174516D01*
X182537Y173962D01*
X181984Y173241D01*
X181636Y172401D01*
X181518Y171500D01*
X181636Y170599D01*
X181984Y169759D01*
X182537Y169037D01*
X183259Y168484D01*
X184099Y168136D01*
X185000Y168017D01*
X185901Y168136D01*
X186741Y168484D01*
X187462Y169037D01*
X188016Y169759D01*
X188364Y170599D01*
X188482Y171500D01*
X188364Y172401D01*
X188016Y173241D01*
X187462Y173962D01*
X186741Y174516D01*
X185901Y174864D01*
X185000Y174983D01*
D02*
G37*
G36*
X175000D02*
X174099Y174864D01*
X173259Y174516D01*
X172538Y173962D01*
X171984Y173241D01*
X171636Y172401D01*
X171518Y171500D01*
X171636Y170599D01*
X171984Y169759D01*
X172538Y169037D01*
X173259Y168484D01*
X174099Y168136D01*
X175000Y168017D01*
X175901Y168136D01*
X176741Y168484D01*
X177462Y169037D01*
X178016Y169759D01*
X178364Y170599D01*
X178482Y171500D01*
X178364Y172401D01*
X178016Y173241D01*
X177462Y173962D01*
X176741Y174516D01*
X175901Y174864D01*
X175000Y174983D01*
D02*
G37*
G36*
X185000Y164982D02*
X184099Y164864D01*
X183259Y164516D01*
X182537Y163962D01*
X181984Y163241D01*
X181636Y162401D01*
X181518Y161500D01*
X181636Y160599D01*
X181984Y159759D01*
X182537Y159037D01*
X183259Y158484D01*
X184099Y158136D01*
X185000Y158018D01*
X185901Y158136D01*
X186741Y158484D01*
X187462Y159037D01*
X188016Y159759D01*
X188364Y160599D01*
X188482Y161500D01*
X188364Y162401D01*
X188016Y163241D01*
X187462Y163962D01*
X186741Y164516D01*
X185901Y164864D01*
X185000Y164982D01*
D02*
G37*
G36*
X175000D02*
X174099Y164864D01*
X173259Y164516D01*
X172538Y163962D01*
X171984Y163241D01*
X171636Y162401D01*
X171518Y161500D01*
X171636Y160599D01*
X171984Y159759D01*
X172538Y159037D01*
X173259Y158484D01*
X174099Y158136D01*
X175000Y158018D01*
X175901Y158136D01*
X176741Y158484D01*
X177462Y159037D01*
X178016Y159759D01*
X178364Y160599D01*
X178482Y161500D01*
X178364Y162401D01*
X178016Y163241D01*
X177462Y163962D01*
X176741Y164516D01*
X175901Y164864D01*
X175000Y164982D01*
D02*
G37*
G36*
X185000Y154982D02*
X184099Y154864D01*
X183259Y154516D01*
X182537Y153963D01*
X181984Y153241D01*
X181636Y152401D01*
X181518Y151500D01*
X181636Y150599D01*
X181984Y149759D01*
X182537Y149038D01*
X183259Y148484D01*
X184099Y148136D01*
X185000Y148018D01*
X185901Y148136D01*
X186741Y148484D01*
X187462Y149038D01*
X188016Y149759D01*
X188364Y150599D01*
X188482Y151500D01*
X188364Y152401D01*
X188016Y153241D01*
X187462Y153963D01*
X186741Y154516D01*
X185901Y154864D01*
X185000Y154982D01*
D02*
G37*
G36*
X175000D02*
X174099Y154864D01*
X173259Y154516D01*
X172538Y153963D01*
X171984Y153241D01*
X171636Y152401D01*
X171518Y151500D01*
X171636Y150599D01*
X171984Y149759D01*
X172538Y149038D01*
X173259Y148484D01*
X174099Y148136D01*
X175000Y148018D01*
X175901Y148136D01*
X176741Y148484D01*
X177462Y149038D01*
X178016Y149759D01*
X178364Y150599D01*
X178482Y151500D01*
X178364Y152401D01*
X178016Y153241D01*
X177462Y153963D01*
X176741Y154516D01*
X175901Y154864D01*
X175000Y154982D01*
D02*
G37*
G36*
X-42465Y150681D02*
X-48976D01*
X-55488D01*
Y149098D01*
X-54988D01*
Y146449D01*
Y143815D01*
X-55488D01*
Y142232D01*
X-48976D01*
X-42465D01*
Y143462D01*
X-41965Y143614D01*
X-41862Y143460D01*
X-41306Y143088D01*
X-40650Y142958D01*
X-39994Y143088D01*
X-39438Y143460D01*
X-39066Y144016D01*
X-38936Y144672D01*
X-39066Y145328D01*
X-39438Y145884D01*
X-39994Y146256D01*
X-40650Y146386D01*
X-40877Y146341D01*
X-42706Y148170D01*
X-42965Y148343D01*
Y149098D01*
X-42465D01*
Y150681D01*
D02*
G37*
G36*
X-38591Y142206D02*
X-39247Y142076D01*
X-39803Y141704D01*
X-40175Y141148D01*
X-40305Y140492D01*
X-40260Y140265D01*
X-40958Y139567D01*
X-41999D01*
X-42465Y139650D01*
Y141232D01*
X-48976D01*
X-55488D01*
Y139650D01*
X-54988D01*
Y137000D01*
Y134366D01*
X-55488D01*
Y132783D01*
X-48976D01*
X-42465D01*
Y134366D01*
X-41970Y134378D01*
X-40655D01*
X-39721Y133443D01*
X-39766Y133217D01*
X-39636Y132561D01*
X-39264Y132004D01*
X-38708Y131633D01*
X-38052Y131502D01*
X-37396Y131633D01*
X-36840Y132004D01*
X-36468Y132561D01*
X-36338Y133217D01*
X-36468Y133872D01*
X-36840Y134429D01*
X-37396Y134800D01*
X-38052Y134931D01*
X-38279Y134885D01*
X-39512Y136119D01*
X-39843Y136340D01*
X-40233Y136417D01*
X-42965D01*
Y137528D01*
X-40536D01*
X-40146Y137605D01*
X-39815Y137826D01*
X-38818Y138823D01*
X-38591Y138778D01*
X-37935Y138908D01*
X-37379Y139280D01*
X-37008Y139836D01*
X-36877Y140492D01*
X-37008Y141148D01*
X-37379Y141704D01*
X-37935Y142076D01*
X-38591Y142206D01*
D02*
G37*
G36*
X185000Y144983D02*
X184099Y144864D01*
X183259Y144516D01*
X182537Y143963D01*
X181984Y143241D01*
X181636Y142401D01*
X181518Y141500D01*
X181636Y140599D01*
X181984Y139759D01*
X182537Y139038D01*
X183259Y138484D01*
X184099Y138136D01*
X185000Y138017D01*
X185901Y138136D01*
X186741Y138484D01*
X187462Y139038D01*
X188016Y139759D01*
X188364Y140599D01*
X188482Y141500D01*
X188364Y142401D01*
X188016Y143241D01*
X187462Y143963D01*
X186741Y144516D01*
X185901Y144864D01*
X185000Y144983D01*
D02*
G37*
G36*
X175000D02*
X174099Y144864D01*
X173259Y144516D01*
X172538Y143963D01*
X171984Y143241D01*
X171636Y142401D01*
X171518Y141500D01*
X171636Y140599D01*
X171984Y139759D01*
X172538Y139038D01*
X173259Y138484D01*
X174099Y138136D01*
X175000Y138017D01*
X175901Y138136D01*
X176741Y138484D01*
X177462Y139038D01*
X178016Y139759D01*
X178364Y140599D01*
X178482Y141500D01*
X178364Y142401D01*
X178016Y143241D01*
X177462Y143963D01*
X176741Y144516D01*
X175901Y144864D01*
X175000Y144983D01*
D02*
G37*
G36*
X185000Y134983D02*
X184099Y134864D01*
X183259Y134516D01*
X182537Y133963D01*
X181984Y133241D01*
X181636Y132401D01*
X181518Y131500D01*
X181636Y130599D01*
X181984Y129759D01*
X182537Y129037D01*
X183259Y128484D01*
X184099Y128136D01*
X185000Y128017D01*
X185901Y128136D01*
X186741Y128484D01*
X187462Y129037D01*
X188016Y129759D01*
X188364Y130599D01*
X188482Y131500D01*
X188364Y132401D01*
X188016Y133241D01*
X187462Y133963D01*
X186741Y134516D01*
X185901Y134864D01*
X185000Y134983D01*
D02*
G37*
G36*
X175000D02*
X174099Y134864D01*
X173259Y134516D01*
X172538Y133963D01*
X171984Y133241D01*
X171636Y132401D01*
X171518Y131500D01*
X171636Y130599D01*
X171984Y129759D01*
X172538Y129037D01*
X173259Y128484D01*
X174099Y128136D01*
X175000Y128017D01*
X175901Y128136D01*
X176741Y128484D01*
X177462Y129037D01*
X178016Y129759D01*
X178364Y130599D01*
X178482Y131500D01*
X178364Y132401D01*
X178016Y133241D01*
X177462Y133963D01*
X176741Y134516D01*
X175901Y134864D01*
X175000Y134983D01*
D02*
G37*
G36*
X-42465Y131783D02*
X-48976D01*
X-55488D01*
Y130201D01*
X-54988D01*
Y127551D01*
Y124402D01*
Y121252D01*
Y118618D01*
X-55488D01*
Y117035D01*
X-48976D01*
X-42465D01*
Y118618D01*
X-42965D01*
Y121252D01*
Y124402D01*
Y128079D01*
X-42387D01*
X-41827Y127519D01*
X-41947Y126917D01*
X-41817Y126261D01*
X-41445Y125705D01*
X-40889Y125334D01*
X-40233Y125203D01*
X-39577Y125334D01*
X-39021Y125705D01*
X-38649Y126261D01*
X-38519Y126917D01*
X-38649Y127573D01*
X-39021Y128129D01*
X-39577Y128501D01*
X-40012Y128587D01*
X-41244Y129819D01*
X-41574Y130040D01*
X-41965Y130118D01*
X-41999D01*
X-42465Y130201D01*
Y131783D01*
D02*
G37*
G36*
X185000Y124983D02*
X184099Y124864D01*
X183259Y124516D01*
X182537Y123962D01*
X181984Y123241D01*
X181636Y122401D01*
X181518Y121500D01*
X181636Y120599D01*
X181984Y119759D01*
X182537Y119037D01*
X183259Y118484D01*
X184099Y118136D01*
X185000Y118017D01*
X185901Y118136D01*
X186741Y118484D01*
X187462Y119037D01*
X188016Y119759D01*
X188364Y120599D01*
X188482Y121500D01*
X188364Y122401D01*
X188016Y123241D01*
X187462Y123962D01*
X186741Y124516D01*
X185901Y124864D01*
X185000Y124983D01*
D02*
G37*
G36*
X175000D02*
X174099Y124864D01*
X173259Y124516D01*
X172538Y123962D01*
X171984Y123241D01*
X171636Y122401D01*
X171518Y121500D01*
X171636Y120599D01*
X171984Y119759D01*
X172538Y119037D01*
X173259Y118484D01*
X174099Y118136D01*
X175000Y118017D01*
X175901Y118136D01*
X176741Y118484D01*
X177462Y119037D01*
X178016Y119759D01*
X178364Y120599D01*
X178482Y121500D01*
X178364Y122401D01*
X178016Y123241D01*
X177462Y123962D01*
X176741Y124516D01*
X175901Y124864D01*
X175000Y124983D01*
D02*
G37*
G36*
X185000Y114982D02*
X184099Y114864D01*
X183259Y114516D01*
X182537Y113962D01*
X181984Y113241D01*
X181636Y112401D01*
X181518Y111500D01*
X181636Y110599D01*
X181984Y109759D01*
X182537Y109037D01*
X183259Y108484D01*
X184099Y108136D01*
X185000Y108018D01*
X185901Y108136D01*
X186741Y108484D01*
X187462Y109037D01*
X188016Y109759D01*
X188364Y110599D01*
X188482Y111500D01*
X188364Y112401D01*
X188016Y113241D01*
X187462Y113962D01*
X186741Y114516D01*
X185901Y114864D01*
X185000Y114982D01*
D02*
G37*
G36*
X175000D02*
X174099Y114864D01*
X173259Y114516D01*
X172538Y113962D01*
X171984Y113241D01*
X171636Y112401D01*
X171518Y111500D01*
X171636Y110599D01*
X171984Y109759D01*
X172538Y109037D01*
X173259Y108484D01*
X174099Y108136D01*
X175000Y108018D01*
X175901Y108136D01*
X176741Y108484D01*
X177462Y109037D01*
X178016Y109759D01*
X178364Y110599D01*
X178482Y111500D01*
X178364Y112401D01*
X178016Y113241D01*
X177462Y113962D01*
X176741Y114516D01*
X175901Y114864D01*
X175000Y114982D01*
D02*
G37*
G36*
X185000Y104982D02*
X184099Y104864D01*
X183259Y104516D01*
X182537Y103963D01*
X181984Y103241D01*
X181636Y102401D01*
X181518Y101500D01*
X181636Y100599D01*
X181984Y99759D01*
X182537Y99037D01*
X183259Y98484D01*
X184099Y98136D01*
X185000Y98018D01*
X185901Y98136D01*
X186741Y98484D01*
X187462Y99037D01*
X188016Y99759D01*
X188364Y100599D01*
X188482Y101500D01*
X188364Y102401D01*
X188016Y103241D01*
X187462Y103963D01*
X186741Y104516D01*
X185901Y104864D01*
X185000Y104982D01*
D02*
G37*
G36*
X175000D02*
X174099Y104864D01*
X173259Y104516D01*
X172538Y103963D01*
X171984Y103241D01*
X171636Y102401D01*
X171518Y101500D01*
X171636Y100599D01*
X171984Y99759D01*
X172538Y99037D01*
X173259Y98484D01*
X174099Y98136D01*
X175000Y98018D01*
X175901Y98136D01*
X176741Y98484D01*
X177462Y99037D01*
X178016Y99759D01*
X178364Y100599D01*
X178482Y101500D01*
X178364Y102401D01*
X178016Y103241D01*
X177462Y103963D01*
X176741Y104516D01*
X175901Y104864D01*
X175000Y104982D01*
D02*
G37*
G36*
X96353Y71853D02*
X89447D01*
Y64947D01*
X96353D01*
Y71853D01*
D02*
G37*
G36*
X102900Y71882D02*
X101999Y71764D01*
X101159Y71416D01*
X100437Y70863D01*
X99884Y70141D01*
X99536Y69301D01*
X99418Y68400D01*
X99536Y67499D01*
X99884Y66659D01*
X100437Y65938D01*
X101159Y65384D01*
X101999Y65036D01*
X102900Y64917D01*
X103801Y65036D01*
X104641Y65384D01*
X105362Y65938D01*
X105916Y66659D01*
X106264Y67499D01*
X106383Y68400D01*
X106264Y69301D01*
X105916Y70141D01*
X105362Y70863D01*
X104641Y71416D01*
X103801Y71764D01*
X102900Y71882D01*
D02*
G37*
G36*
Y61883D02*
X101999Y61764D01*
X101159Y61416D01*
X100437Y60862D01*
X99884Y60141D01*
X99536Y59301D01*
X99418Y58400D01*
X99536Y57499D01*
X99884Y56659D01*
X100437Y55937D01*
X101159Y55384D01*
X101999Y55036D01*
X102900Y54918D01*
X103801Y55036D01*
X104641Y55384D01*
X105362Y55937D01*
X105916Y56659D01*
X106264Y57499D01*
X106383Y58400D01*
X106264Y59301D01*
X105916Y60141D01*
X105362Y60862D01*
X104641Y61416D01*
X103801Y61764D01*
X102900Y61883D01*
D02*
G37*
G36*
X92900D02*
X91999Y61764D01*
X91159Y61416D01*
X90438Y60862D01*
X89884Y60141D01*
X89536Y59301D01*
X89417Y58400D01*
X89536Y57499D01*
X89884Y56659D01*
X90438Y55937D01*
X91159Y55384D01*
X91999Y55036D01*
X92900Y54918D01*
X93801Y55036D01*
X94641Y55384D01*
X95363Y55937D01*
X95916Y56659D01*
X96264Y57499D01*
X96382Y58400D01*
X96264Y59301D01*
X95916Y60141D01*
X95363Y60862D01*
X94641Y61416D01*
X93801Y61764D01*
X92900Y61883D01*
D02*
G37*
G36*
X102900Y51882D02*
X101999Y51764D01*
X101159Y51416D01*
X100437Y50862D01*
X99884Y50141D01*
X99536Y49301D01*
X99418Y48400D01*
X99536Y47499D01*
X99884Y46659D01*
X100437Y45937D01*
X101159Y45384D01*
X101999Y45036D01*
X102900Y44918D01*
X103801Y45036D01*
X104641Y45384D01*
X105362Y45937D01*
X105916Y46659D01*
X106264Y47499D01*
X106383Y48400D01*
X106264Y49301D01*
X105916Y50141D01*
X105362Y50862D01*
X104641Y51416D01*
X103801Y51764D01*
X102900Y51882D01*
D02*
G37*
G36*
X92900D02*
X91999Y51764D01*
X91159Y51416D01*
X90438Y50862D01*
X89884Y50141D01*
X89536Y49301D01*
X89417Y48400D01*
X89536Y47499D01*
X89884Y46659D01*
X90438Y45937D01*
X91159Y45384D01*
X91999Y45036D01*
X92900Y44918D01*
X93801Y45036D01*
X94641Y45384D01*
X95363Y45937D01*
X95916Y46659D01*
X96264Y47499D01*
X96382Y48400D01*
X96264Y49301D01*
X95916Y50141D01*
X95363Y50862D01*
X94641Y51416D01*
X93801Y51764D01*
X92900Y51882D01*
D02*
G37*
G36*
X102900Y41883D02*
X101999Y41764D01*
X101159Y41416D01*
X100437Y40863D01*
X99884Y40141D01*
X99536Y39301D01*
X99418Y38400D01*
X99536Y37499D01*
X99884Y36659D01*
X100437Y35938D01*
X101159Y35384D01*
X101999Y35036D01*
X102900Y34918D01*
X103801Y35036D01*
X104641Y35384D01*
X105362Y35938D01*
X105916Y36659D01*
X106264Y37499D01*
X106383Y38400D01*
X106264Y39301D01*
X105916Y40141D01*
X105362Y40863D01*
X104641Y41416D01*
X103801Y41764D01*
X102900Y41883D01*
D02*
G37*
G36*
X92900D02*
X91999Y41764D01*
X91159Y41416D01*
X90438Y40863D01*
X89884Y40141D01*
X89536Y39301D01*
X89417Y38400D01*
X89536Y37499D01*
X89884Y36659D01*
X90438Y35938D01*
X91159Y35384D01*
X91999Y35036D01*
X92900Y34918D01*
X93801Y35036D01*
X94641Y35384D01*
X95363Y35938D01*
X95916Y36659D01*
X96264Y37499D01*
X96382Y38400D01*
X96264Y39301D01*
X95916Y40141D01*
X95363Y40863D01*
X94641Y41416D01*
X93801Y41764D01*
X92900Y41883D01*
D02*
G37*
G36*
X103400Y32321D02*
Y28900D01*
X106821D01*
X106751Y29432D01*
X106353Y30393D01*
X105719Y31219D01*
X104893Y31853D01*
X103932Y32251D01*
X103400Y32321D01*
D02*
G37*
G36*
X93400D02*
Y28900D01*
X96821D01*
X96751Y29432D01*
X96353Y30393D01*
X95719Y31219D01*
X94893Y31853D01*
X93932Y32251D01*
X93400Y32321D01*
D02*
G37*
G36*
X102400D02*
X101868Y32251D01*
X100907Y31853D01*
X100081Y31219D01*
X99447Y30393D01*
X99049Y29432D01*
X98979Y28900D01*
X102400D01*
Y32321D01*
D02*
G37*
G36*
X92400D02*
X91868Y32251D01*
X90907Y31853D01*
X90081Y31219D01*
X89447Y30393D01*
X89049Y29432D01*
X88979Y28900D01*
X92400D01*
Y32321D01*
D02*
G37*
G36*
X106821Y27900D02*
X103400D01*
Y24479D01*
X103932Y24549D01*
X104893Y24947D01*
X105719Y25581D01*
X106353Y26407D01*
X106751Y27368D01*
X106821Y27900D01*
D02*
G37*
G36*
X96821D02*
X93400D01*
Y24479D01*
X93932Y24549D01*
X94893Y24947D01*
X95719Y25581D01*
X96353Y26407D01*
X96751Y27368D01*
X96821Y27900D01*
D02*
G37*
G36*
X102400D02*
X98979D01*
X99049Y27368D01*
X99447Y26407D01*
X100081Y25581D01*
X100907Y24947D01*
X101868Y24549D01*
X102400Y24479D01*
Y27900D01*
D02*
G37*
G36*
X92400D02*
X88979D01*
X89049Y27368D01*
X89447Y26407D01*
X90081Y25581D01*
X90907Y24947D01*
X91868Y24549D01*
X92400Y24479D01*
Y27900D01*
D02*
G37*
%LPD*%
D16*
X-48976Y147996D02*
X-48429Y147449D01*
X-43427D01*
X-40650Y144672D01*
X18593Y184373D02*
X18705Y184485D01*
X-13597Y153819D02*
X16957Y184373D01*
X18593D01*
X-48976Y154295D02*
X-16476D01*
X-16000Y153819D01*
X-13597D01*
X16391Y186554D02*
X16727D01*
X-14163Y156000D02*
X16391Y186554D01*
X-14500Y156000D02*
X-14163D01*
X13007Y189960D02*
X13164Y190117D01*
X-19417Y159819D02*
X10723Y189960D01*
X13007D01*
X-48976Y160594D02*
X-22672D01*
X-21897Y159819D01*
X-19417D01*
X10783Y192141D02*
X11141D01*
X-19280Y162078D02*
X10783Y192141D01*
X-20916Y162078D02*
X-19280D01*
X-20994Y162000D02*
X-20916Y162078D01*
X6867Y196209D02*
X6924Y196266D01*
X5027Y196209D02*
X6867D01*
X-48976Y166894D02*
X-28712D01*
X-25363Y165819D02*
X5027Y196209D01*
X-27637Y165819D02*
X-25363D01*
X-28712Y166894D02*
X-27637Y165819D01*
X-25390Y168000D02*
X5000Y198390D01*
X-26734Y168000D02*
X-25390D01*
X1020Y201740D02*
X1281Y202000D01*
X214Y201740D02*
X1020D01*
X14Y201539D02*
X214Y201740D01*
X-1562Y201539D02*
X14D01*
X-48976Y173193D02*
X-34549D01*
X-31023Y172079D02*
X-1562Y201539D01*
X-33435Y172079D02*
X-31023D01*
X-34549Y173193D02*
X-33435Y172079D01*
X-30963Y174260D02*
X-971Y204252D01*
X-32364Y174260D02*
X-30963D01*
X-4201Y207138D02*
X-4000Y207339D01*
X-5591Y207138D02*
X-4201D01*
X-39124Y179492D02*
X-38057Y178425D01*
X-37975Y178507D01*
X-48976Y179492D02*
X-39124D01*
X-34350Y178378D02*
X-5591Y207138D01*
X-37846Y178378D02*
X-34350D01*
X-37975Y178507D02*
X-37846Y178378D01*
X-6217Y209167D02*
X-5956Y209428D01*
X-6217Y208633D02*
Y209167D01*
X-34261Y180588D02*
X-6217Y208633D01*
X-36913Y180588D02*
X-34261D01*
X-36942Y180559D02*
X-36913Y180588D01*
X-11079Y213839D02*
X-10819Y214100D01*
X-27595Y198390D02*
X-12146Y213839D01*
X-11079D01*
X-48976Y198390D02*
X-40516D01*
X-37623D02*
X-27595D01*
X-38166Y197847D02*
X-37623Y198390D01*
X-39973Y197847D02*
X-38166D01*
X-40516Y198390D02*
X-39973Y197847D01*
X-28078Y200028D02*
X-10819Y217287D01*
X-39069Y200028D02*
X-28078D01*
X511590Y17393D02*
X515390Y21193D01*
X422333Y19549D02*
X429834D01*
X431990Y17393D01*
X511590D01*
X516608Y45632D02*
X519390Y42850D01*
X498666Y51393D02*
X504427Y45632D01*
X519390Y39536D02*
Y42850D01*
X504427Y45632D02*
X516608D01*
X497285Y52223D02*
X498115Y51393D01*
X498666D01*
X515047Y35193D02*
X519390Y39536D01*
X513254Y35193D02*
X515047D01*
X499454Y21393D02*
X513254Y35193D01*
X498115Y21393D02*
X499454D01*
X424827Y52484D02*
X428327D01*
X428588Y52223D02*
X497285D01*
X428327Y52484D02*
X428588Y52223D01*
X497940Y61631D02*
X499279D01*
X513079Y75431D02*
X514873D01*
X499279Y61631D02*
X513079Y75431D01*
X-36942Y255083D02*
X-36860Y255000D01*
X-48976Y255083D02*
X-36942D01*
X-48976Y248783D02*
X-37064D01*
X-48976Y242484D02*
X-37064D01*
X-48976Y236185D02*
X-37064D01*
X-48976Y229886D02*
X-37064D01*
X-48976Y223587D02*
X-38057D01*
X-37464Y222994D01*
X-37096D01*
X-48976Y217287D02*
X-37558D01*
X-37570Y210988D02*
X-37558Y211000D01*
X-48976Y210988D02*
X-37570D01*
X-48976Y204689D02*
X-48882Y204784D01*
X-37846D01*
X-37751Y204879D01*
X424653Y92722D02*
X428153D01*
X422159Y59787D02*
X429659D01*
X428413Y92461D02*
X497110D01*
X428153Y92722D02*
X428413Y92461D01*
X-48976Y113350D02*
X-34156D01*
X-32506Y115000D01*
X-32138D01*
X-48976Y129098D02*
X-41965D01*
X-40494Y127628D01*
Y127178D02*
Y127628D01*
Y127178D02*
X-40233Y126917D01*
X-48976Y135398D02*
X-40233D01*
X-38052Y133217D01*
X-48976Y138547D02*
X-40536D01*
X-38591Y140492D01*
X511416Y57631D02*
X515216Y61431D01*
X431815Y57631D02*
X511416D01*
X429659Y59787D02*
X431815Y57631D01*
X497110Y92461D02*
X497940Y91631D01*
X498492D01*
X504252Y85870D02*
X516433D01*
X498492Y91631D02*
X504252Y85870D01*
X514873Y75431D02*
X519216Y79774D01*
Y83088D01*
X516433Y85870D02*
X519216Y83088D01*
X88161Y316657D02*
Y322253D01*
X95841Y329933D01*
X132569D01*
D21*
X500401Y106775D02*
X515275Y121649D01*
X453095Y106775D02*
X500401D01*
X451862Y107910D02*
X451960D01*
X453095Y106775D01*
X488149Y121499D02*
X498000Y111649D01*
X451764Y121499D02*
X488149D01*
X500401Y146806D02*
X515275Y161680D01*
X453095Y146806D02*
X500401D01*
X451862Y147941D02*
X451960D01*
X453095Y146806D01*
X488149Y161531D02*
X498000Y151680D01*
X451764Y161531D02*
X488149D01*
X500538Y186806D02*
X515413Y201680D01*
X453233Y186806D02*
X500538D01*
X452000Y187941D02*
X452098D01*
X453233Y186806D01*
X488287Y201531D02*
X498137Y191680D01*
X451902Y201531D02*
X488287D01*
X500538Y227176D02*
X515413Y242051D01*
X453233Y227176D02*
X500538D01*
X452000Y228311D02*
X452098D01*
X453233Y227176D01*
X488287Y241901D02*
X498137Y232050D01*
X451902Y241901D02*
X488287D01*
X500538Y267176D02*
X515413Y282050D01*
X453233Y267176D02*
X500538D01*
X452000Y268311D02*
X452098D01*
X453233Y267176D01*
X488287Y281901D02*
X498137Y272050D01*
X451902Y281901D02*
X488287D01*
X500538Y307176D02*
X515413Y322050D01*
X453233Y307176D02*
X500538D01*
X452000Y308311D02*
X452098D01*
X453233Y307176D01*
X488287Y321901D02*
X498137Y312051D01*
X451902Y321901D02*
X488287D01*
X500538Y347176D02*
X515413Y362050D01*
X452000Y348311D02*
X452098D01*
X453233Y347176D01*
X500538D01*
X500814Y26616D02*
X515390Y41193D01*
X428391Y27272D02*
X428489D01*
X429145Y26616D02*
X500814D01*
X428489Y27272D02*
X429145Y26616D01*
X486548Y42960D02*
X498115Y31393D01*
X428391Y42960D02*
X486548D01*
X500639Y66854D02*
X515216Y81431D01*
X428216Y67510D02*
X428314D01*
X428970Y66854D01*
X500639D01*
X451902Y361901D02*
X488287D01*
X498137Y352050D01*
X486373Y83198D02*
X497940Y71631D01*
X428216Y83198D02*
X486373D01*
X-40720Y280280D02*
X-40500Y280500D01*
X-48976Y280280D02*
X-40720D01*
X-41500Y277130D02*
X-40418Y278211D01*
X-41500Y270831D02*
X-40418Y269749D01*
X-48976Y270831D02*
X-41500D01*
X-48976Y277130D02*
X-41500D01*
X-48976Y132248D02*
X-41500D01*
X-48976Y264531D02*
X-41500D01*
X-48976Y258232D02*
X-41500D01*
X-48976Y251933D02*
X-41500D01*
X-48976Y245634D02*
X-41500D01*
X-48976Y239335D02*
X-41500D01*
X-48976Y233035D02*
X-41500D01*
X-48976Y226736D02*
X-41500D01*
X-48976Y220437D02*
X-41500D01*
X-48976Y214138D02*
X-41500D01*
X-48976Y207839D02*
X-41500D01*
X-48976Y201539D02*
X-41500D01*
X-48976Y182642D02*
X-41500D01*
X-48976Y176343D02*
X-41500D01*
X-48976Y170043D02*
X-41500D01*
X-48976Y163744D02*
X-41500D01*
X-48976Y157445D02*
X-41500D01*
X-48976Y151146D02*
X-41500D01*
X-48976Y141697D02*
X-41500D01*
X-48976Y116500D02*
X-41500D01*
X-41520Y273980D02*
X-41500Y274000D01*
X-48976Y273980D02*
X-41520D01*
D39*
X-48976Y280315D02*
D03*
Y277166D02*
D03*
Y274016D02*
D03*
Y270866D02*
D03*
Y267716D02*
D03*
Y264567D02*
D03*
Y261417D02*
D03*
Y258268D02*
D03*
Y255118D02*
D03*
Y251968D02*
D03*
Y248819D02*
D03*
Y245669D02*
D03*
Y242520D02*
D03*
Y239370D02*
D03*
Y236220D02*
D03*
Y233071D02*
D03*
Y229921D02*
D03*
Y226772D02*
D03*
Y223622D02*
D03*
Y220472D02*
D03*
Y217323D02*
D03*
Y214173D02*
D03*
Y211024D02*
D03*
Y207874D02*
D03*
Y204725D02*
D03*
Y201575D02*
D03*
Y198425D02*
D03*
Y182677D02*
D03*
Y179528D02*
D03*
Y176378D02*
D03*
Y173228D02*
D03*
Y170079D02*
D03*
Y166929D02*
D03*
Y163779D02*
D03*
Y160630D02*
D03*
Y157480D02*
D03*
Y154331D02*
D03*
Y151181D02*
D03*
Y148031D02*
D03*
Y144882D02*
D03*
Y141732D02*
D03*
Y138583D02*
D03*
Y135433D02*
D03*
Y132283D02*
D03*
Y129134D02*
D03*
Y125984D02*
D03*
Y122835D02*
D03*
Y119685D02*
D03*
Y116535D02*
D03*
Y113386D02*
D03*
D63*
X545216Y91431D02*
D03*
Y61431D02*
D03*
X515216Y81431D02*
D03*
Y91431D02*
D03*
Y61431D02*
D03*
Y71431D02*
D03*
X211339Y346844D02*
D03*
X201339D02*
D03*
X211339Y356843D02*
D03*
X201339D02*
D03*
X515390Y31193D02*
D03*
Y21193D02*
D03*
Y51193D02*
D03*
Y41193D02*
D03*
X545390Y21193D02*
D03*
Y51193D02*
D03*
X498115Y41393D02*
D03*
Y51393D02*
D03*
Y21393D02*
D03*
Y31393D02*
D03*
X528115Y51393D02*
D03*
Y21393D02*
D03*
X497940Y81631D02*
D03*
Y91631D02*
D03*
Y61631D02*
D03*
Y71631D02*
D03*
X527941Y91631D02*
D03*
Y61631D02*
D03*
X528137Y342050D02*
D03*
Y372050D02*
D03*
X498137Y352050D02*
D03*
Y342050D02*
D03*
Y372050D02*
D03*
Y362050D02*
D03*
X528137Y262050D02*
D03*
Y292050D02*
D03*
X498137Y272050D02*
D03*
Y262050D02*
D03*
Y292050D02*
D03*
Y282050D02*
D03*
X528137Y302050D02*
D03*
Y332050D02*
D03*
X498137Y312050D02*
D03*
Y302050D02*
D03*
Y332050D02*
D03*
Y322050D02*
D03*
X528137Y222050D02*
D03*
Y252050D02*
D03*
X498137Y232050D02*
D03*
Y222050D02*
D03*
Y252050D02*
D03*
Y242050D02*
D03*
X528137Y181680D02*
D03*
Y211680D02*
D03*
X498137Y191680D02*
D03*
Y181680D02*
D03*
Y211680D02*
D03*
Y201680D02*
D03*
X527999Y141680D02*
D03*
Y171680D02*
D03*
X497999Y151680D02*
D03*
Y141680D02*
D03*
Y171680D02*
D03*
Y161680D02*
D03*
X527999Y101649D02*
D03*
Y131649D02*
D03*
X497999Y111649D02*
D03*
Y101649D02*
D03*
Y131649D02*
D03*
Y121649D02*
D03*
X39624Y312857D02*
D03*
Y302857D02*
D03*
X29624Y312857D02*
D03*
Y302857D02*
D03*
X515413Y352050D02*
D03*
Y342050D02*
D03*
Y372050D02*
D03*
Y362050D02*
D03*
X545412Y342050D02*
D03*
Y372050D02*
D03*
X515413Y312051D02*
D03*
Y302050D02*
D03*
Y332050D02*
D03*
Y322050D02*
D03*
X545412Y302050D02*
D03*
Y332050D02*
D03*
X515413Y272050D02*
D03*
Y262051D02*
D03*
Y292051D02*
D03*
Y282050D02*
D03*
X545412Y262051D02*
D03*
Y292051D02*
D03*
X515413Y232050D02*
D03*
Y222050D02*
D03*
Y252050D02*
D03*
Y242051D02*
D03*
X545412Y222050D02*
D03*
Y252050D02*
D03*
X515413Y191680D02*
D03*
Y181680D02*
D03*
Y211680D02*
D03*
Y201680D02*
D03*
X545412Y181680D02*
D03*
Y211680D02*
D03*
X515275Y151680D02*
D03*
Y141680D02*
D03*
Y171680D02*
D03*
Y161680D02*
D03*
X545275Y141680D02*
D03*
Y171680D02*
D03*
X515275Y111649D02*
D03*
Y101649D02*
D03*
Y131649D02*
D03*
Y121649D02*
D03*
X545275Y101649D02*
D03*
Y131649D02*
D03*
D64*
X81500Y358960D02*
D03*
X153900Y358960D02*
D03*
D65*
X81500Y372739D02*
D03*
X153900Y372739D02*
D03*
D66*
X260405Y344330D02*
D03*
Y354330D02*
D03*
X270406Y344330D02*
D03*
Y354330D02*
D03*
X280405Y344330D02*
D03*
Y354330D02*
D03*
X290406Y344330D02*
D03*
Y354330D02*
D03*
X300406Y344330D02*
D03*
Y354330D02*
D03*
X310405Y344330D02*
D03*
Y354330D02*
D03*
X320406Y344330D02*
D03*
Y354330D02*
D03*
X330405Y344330D02*
D03*
Y354330D02*
D03*
X340406Y344330D02*
D03*
Y354330D02*
D03*
X350406Y344330D02*
D03*
Y354330D02*
D03*
X360405Y344330D02*
D03*
Y354330D02*
D03*
X370406Y344330D02*
D03*
Y354330D02*
D03*
D67*
X175000Y181500D02*
D03*
X92900Y68400D02*
D03*
D68*
X185000Y101500D02*
D03*
X175000D02*
D03*
X185000Y111500D02*
D03*
X175000D02*
D03*
X185000Y121500D02*
D03*
X175000D02*
D03*
X185000Y131500D02*
D03*
X175000D02*
D03*
X185000Y141500D02*
D03*
X175000D02*
D03*
X185000Y151500D02*
D03*
X175000D02*
D03*
X185000Y161500D02*
D03*
X175000D02*
D03*
X185000Y171500D02*
D03*
X175000D02*
D03*
X185000Y181500D02*
D03*
X102900Y28400D02*
D03*
X92900D02*
D03*
X102900Y38400D02*
D03*
X92900D02*
D03*
X102900Y48400D02*
D03*
X92900D02*
D03*
X102900Y58400D02*
D03*
X92900D02*
D03*
X102900Y68400D02*
D03*
D69*
X434499Y79883D02*
D03*
X18705Y184485D02*
D03*
X16727Y186554D02*
D03*
X-14500Y156000D02*
D03*
X13164Y190117D02*
D03*
X11141Y192141D02*
D03*
X-20994Y162000D02*
D03*
X6924Y196266D02*
D03*
X5000Y198390D02*
D03*
X-26734Y168000D02*
D03*
X1281Y202000D02*
D03*
X-971Y204252D02*
D03*
X-32364Y174260D02*
D03*
X-4000Y207339D02*
D03*
X-5956Y209428D02*
D03*
X-36942Y180559D02*
D03*
X-10819Y214100D02*
D03*
Y217287D02*
D03*
X-39069Y200028D02*
D03*
X118165Y348905D02*
D03*
X118028Y332339D02*
D03*
Y362541D02*
D03*
X108053Y362541D02*
D03*
X108041Y355804D02*
D03*
Y349067D02*
D03*
Y342330D02*
D03*
X178028Y331249D02*
D03*
X185528Y316249D02*
D03*
X178028Y301249D02*
D03*
X185528Y286249D02*
D03*
X163028Y331249D02*
D03*
X170528Y316249D02*
D03*
X163028Y301249D02*
D03*
X170528Y286249D02*
D03*
X163028Y271249D02*
D03*
X155528Y316249D02*
D03*
X148028Y301249D02*
D03*
X155528Y286249D02*
D03*
X148028Y271249D02*
D03*
X140528Y376249D02*
D03*
Y316249D02*
D03*
X133028Y301249D02*
D03*
X140528Y286249D02*
D03*
X133028Y271249D02*
D03*
X125528Y316249D02*
D03*
Y286249D02*
D03*
X118028Y271249D02*
D03*
X110528Y376249D02*
D03*
Y286249D02*
D03*
X103028Y271249D02*
D03*
X95528Y376249D02*
D03*
X88028Y331249D02*
D03*
Y301249D02*
D03*
X95528Y286249D02*
D03*
X88028Y271249D02*
D03*
X73028Y301249D02*
D03*
X80528Y286249D02*
D03*
X73028Y271249D02*
D03*
X58028Y361249D02*
D03*
X65528Y346249D02*
D03*
X58028Y301249D02*
D03*
X65528Y286249D02*
D03*
X58028Y271249D02*
D03*
X43028Y361249D02*
D03*
X50528Y346249D02*
D03*
Y286249D02*
D03*
X43028Y271249D02*
D03*
X35528Y376249D02*
D03*
Y346249D02*
D03*
X28028Y271249D02*
D03*
X20528Y376249D02*
D03*
X13028Y361249D02*
D03*
X20528Y346249D02*
D03*
X13028Y331249D02*
D03*
X20528Y316249D02*
D03*
X5528Y376249D02*
D03*
Y346249D02*
D03*
Y316249D02*
D03*
X-9472Y286249D02*
D03*
X-24472D02*
D03*
X412588Y113841D02*
D03*
X447113Y113910D02*
D03*
X451862Y107910D02*
D03*
X451764Y121499D02*
D03*
X436989Y104019D02*
D03*
X415612Y129655D02*
D03*
X412588Y153872D02*
D03*
X447113Y153942D02*
D03*
X451862Y147941D02*
D03*
X451764Y161531D02*
D03*
X436989Y144050D02*
D03*
X415612Y169687D02*
D03*
X412726Y193872D02*
D03*
X447251Y193942D02*
D03*
X452000Y187941D02*
D03*
X451902Y201531D02*
D03*
X437126Y184051D02*
D03*
X415750Y209687D02*
D03*
X412726Y234242D02*
D03*
X447251Y234312D02*
D03*
X452000Y228311D02*
D03*
X451902Y241901D02*
D03*
X437126Y224420D02*
D03*
X415750Y250057D02*
D03*
X412726Y274242D02*
D03*
X447251Y274312D02*
D03*
X452000Y268311D02*
D03*
X451902Y281901D02*
D03*
X437126Y264421D02*
D03*
X415750Y290057D02*
D03*
X412726Y314242D02*
D03*
X447251Y314312D02*
D03*
X452000Y308311D02*
D03*
X451902Y321901D02*
D03*
X437126Y304420D02*
D03*
X415750Y330057D02*
D03*
X399436Y16122D02*
D03*
X400011Y35100D02*
D03*
X442924Y35520D02*
D03*
X435015Y39120D02*
D03*
X399436Y54955D02*
D03*
X428391Y27272D02*
D03*
X422333Y19549D02*
D03*
X425642Y23584D02*
D03*
X428391Y42960D02*
D03*
X424827Y52484D02*
D03*
X451902Y361901D02*
D03*
X452000Y348311D02*
D03*
X-36860Y255000D02*
D03*
X-37064Y248783D02*
D03*
Y242484D02*
D03*
Y236185D02*
D03*
Y229886D02*
D03*
X-37096Y222994D02*
D03*
X-37558Y217287D02*
D03*
Y211000D02*
D03*
X-37751Y204879D02*
D03*
X399261Y95193D02*
D03*
X-32138Y115000D02*
D03*
X-13000Y108891D02*
D03*
X-40233Y126917D02*
D03*
X-38052Y133217D02*
D03*
X-38591Y140492D02*
D03*
X-40650Y144672D02*
D03*
X412726Y354242D02*
D03*
X447251Y354312D02*
D03*
X437126Y344421D02*
D03*
X415750Y370057D02*
D03*
X422159Y59787D02*
D03*
X424653Y92722D02*
D03*
X399836Y75338D02*
D03*
X442749Y75758D02*
D03*
X425468Y63821D02*
D03*
X428216Y67510D02*
D03*
Y83198D02*
D03*
X88161Y316657D02*
D03*
X132569Y329933D02*
D03*
X-41500Y274000D02*
D03*
X-40500Y280500D02*
D03*
X-40418Y278211D02*
D03*
Y269749D02*
D03*
X-41500Y264531D02*
D03*
Y258232D02*
D03*
Y251933D02*
D03*
Y245634D02*
D03*
Y239335D02*
D03*
Y233035D02*
D03*
Y226736D02*
D03*
Y220437D02*
D03*
Y214138D02*
D03*
Y207839D02*
D03*
Y201539D02*
D03*
Y182642D02*
D03*
Y176343D02*
D03*
Y170043D02*
D03*
Y163744D02*
D03*
Y157445D02*
D03*
Y151146D02*
D03*
Y141697D02*
D03*
Y132248D02*
D03*
Y116500D02*
D03*
X-39000Y274000D02*
D03*
D70*
X108360Y320171D02*
D03*
X99699Y315840D02*
D03*
Y320171D02*
D03*
X104029Y315840D02*
D03*
Y320171D02*
D03*
X108360Y315840D02*
D03*
D71*
X-41500Y274000D02*
X-39000D01*
M02*
