G04*
G04 #@! TF.GenerationSoftware,Altium Limited,Altium Designer,21.1.1 (26)*
G04*
G04 Layer_Color=32896*
%FSLAX25Y25*%
%MOIN*%
G70*
G04*
G04 #@! TF.SameCoordinates,F6E35A5F-EAB2-4CC9-8D06-BBFF69FCD084*
G04*
G04*
G04 #@! TF.FilePolarity,Positive*
G04*
G01*
G75*
%ADD17C,0.01000*%
G36*
X474755Y20254D02*
X466128D01*
Y49549D01*
X474755D01*
Y20254D01*
D02*
G37*
G36*
Y89706D02*
Y60286D01*
X466128D01*
Y89706D01*
X474755D01*
D02*
G37*
G36*
Y131439D02*
Y102130D01*
X466128D01*
Y131439D01*
X474755D01*
D02*
G37*
G36*
Y171596D02*
Y143363D01*
X466128D01*
Y171596D01*
X474755D01*
D02*
G37*
G36*
X474755Y183660D02*
X466128D01*
Y212934D01*
X474755D01*
Y183660D01*
D02*
G37*
G36*
X474755Y251123D02*
Y221829D01*
X466128D01*
Y251123D01*
X474755D01*
D02*
G37*
G36*
Y291281D02*
Y261861D01*
X466128D01*
Y291281D01*
X474755D01*
D02*
G37*
G36*
Y330651D02*
Y301342D01*
X466128D01*
Y330651D01*
X474755D01*
D02*
G37*
G36*
Y371596D02*
Y343363D01*
X466128D01*
Y371596D01*
X474755D01*
D02*
G37*
%LPC*%
G36*
X473637Y48549D02*
X467232D01*
Y46057D01*
X467239Y45988D01*
Y45828D01*
X467246Y45738D01*
X467260Y45544D01*
X467287Y45342D01*
X467315Y45148D01*
X467336Y45058D01*
X467357Y44975D01*
Y44968D01*
X467364Y44947D01*
X467378Y44919D01*
X467391Y44877D01*
X467405Y44829D01*
X467433Y44773D01*
X467496Y44642D01*
X467572Y44489D01*
X467676Y44329D01*
X467801Y44170D01*
X467947Y44010D01*
X467954Y44003D01*
X467968Y43989D01*
X467988Y43968D01*
X468023Y43941D01*
X468065Y43913D01*
X468113Y43871D01*
X468169Y43830D01*
X468238Y43781D01*
X468308Y43732D01*
X468384Y43684D01*
X468564Y43580D01*
X468766Y43483D01*
X468988Y43399D01*
X468995D01*
X469016Y43392D01*
X469050Y43378D01*
X469099Y43365D01*
X469154Y43351D01*
X469231Y43330D01*
X469314Y43309D01*
X469404Y43288D01*
X469508Y43274D01*
X469626Y43253D01*
X469751Y43233D01*
X469883Y43219D01*
X470029Y43205D01*
X470175Y43191D01*
X470334Y43184D01*
X473637D01*
Y48549D01*
D02*
G37*
G36*
Y42129D02*
X467232D01*
Y40838D01*
X473637D01*
Y42129D01*
D02*
G37*
G36*
X470424Y39825D02*
X470327D01*
X470258Y39818D01*
X470167Y39811D01*
X470063Y39804D01*
X469952Y39790D01*
X469828Y39770D01*
X469696Y39749D01*
X469550Y39721D01*
X469404Y39686D01*
X469251Y39652D01*
X469099Y39603D01*
X468946Y39548D01*
X468793Y39485D01*
X468648Y39409D01*
X468641Y39402D01*
X468613Y39388D01*
X468571Y39367D01*
X468516Y39332D01*
X468453Y39284D01*
X468377Y39235D01*
X468294Y39173D01*
X468203Y39096D01*
X468106Y39020D01*
X468009Y38923D01*
X467912Y38826D01*
X467808Y38715D01*
X467711Y38597D01*
X467621Y38465D01*
X467530Y38326D01*
X467447Y38180D01*
X467440Y38173D01*
X467433Y38153D01*
X467419Y38118D01*
X467399Y38069D01*
X467371Y38007D01*
X467343Y37938D01*
X467315Y37854D01*
X467287Y37757D01*
X467260Y37653D01*
X467232Y37535D01*
X467204Y37410D01*
X467176Y37271D01*
X467156Y37126D01*
X467142Y36973D01*
X467128Y36813D01*
D01*
Y36529D01*
X467135Y36452D01*
X467142Y36348D01*
X467156Y36230D01*
X467169Y36105D01*
X467190Y35967D01*
X467218Y35821D01*
X467253Y35668D01*
X467287Y35515D01*
X467336Y35356D01*
X467399Y35203D01*
X467461Y35057D01*
X467537Y34918D01*
X467627Y34787D01*
X467634Y34780D01*
X467648Y34759D01*
X467676Y34724D01*
X467718Y34676D01*
X467773Y34627D01*
X467829Y34565D01*
X467905Y34495D01*
X467988Y34426D01*
X468079Y34350D01*
X468183Y34280D01*
X468301Y34204D01*
X468419Y34134D01*
X468550Y34072D01*
X468696Y34009D01*
X468849Y33961D01*
X469009Y33919D01*
X469251Y35203D01*
X469244D01*
X469231Y35210D01*
X469203Y35217D01*
X469175Y35231D01*
X469134Y35245D01*
X469085Y35266D01*
X468981Y35321D01*
X468863Y35390D01*
X468738Y35481D01*
X468620Y35585D01*
X468509Y35717D01*
Y35724D01*
X468495Y35730D01*
X468481Y35751D01*
X468467Y35786D01*
X468446Y35821D01*
X468419Y35862D01*
X468398Y35918D01*
X468370Y35973D01*
X468322Y36105D01*
X468273Y36265D01*
X468245Y36445D01*
X468231Y36647D01*
Y36730D01*
X468238Y36785D01*
X468245Y36855D01*
X468259Y36938D01*
X468280Y37035D01*
X468301Y37132D01*
X468328Y37236D01*
X468363Y37348D01*
X468405Y37459D01*
X468460Y37570D01*
X468523Y37681D01*
X468592Y37792D01*
X468675Y37896D01*
X468773Y37993D01*
X468780Y38000D01*
X468800Y38014D01*
X468828Y38042D01*
X468877Y38069D01*
X468932Y38111D01*
X469002Y38153D01*
X469078Y38194D01*
X469175Y38243D01*
X469279Y38291D01*
X469397Y38333D01*
X469529Y38375D01*
X469675Y38416D01*
X469828Y38444D01*
X469994Y38472D01*
X470175Y38486D01*
X470369Y38493D01*
X470383D01*
X470417D01*
X470480Y38486D01*
X470556D01*
X470653Y38479D01*
X470757Y38465D01*
X470882Y38451D01*
X471014Y38430D01*
X471146Y38402D01*
X471292Y38368D01*
X471431Y38326D01*
X471576Y38278D01*
X471715Y38222D01*
X471847Y38153D01*
X471972Y38076D01*
X472083Y37986D01*
X472090Y37979D01*
X472104Y37965D01*
X472139Y37931D01*
X472173Y37896D01*
X472215Y37840D01*
X472263Y37785D01*
X472312Y37708D01*
X472367Y37632D01*
X472423Y37542D01*
X472472Y37438D01*
X472520Y37334D01*
X472562Y37216D01*
X472597Y37084D01*
X472624Y36952D01*
X472645Y36813D01*
X472652Y36661D01*
Y36591D01*
X472645Y36556D01*
Y36508D01*
X472631Y36404D01*
X472610Y36279D01*
X472583Y36147D01*
X472548Y36001D01*
X472492Y35849D01*
Y35842D01*
X472485Y35828D01*
X472478Y35807D01*
X472465Y35779D01*
X472430Y35703D01*
X472381Y35606D01*
X472326Y35495D01*
X472263Y35377D01*
X472194Y35259D01*
X472111Y35141D01*
X471292D01*
Y36619D01*
X470209D01*
Y33836D01*
X467128D01*
X472770D01*
X472777Y33843D01*
X472784Y33857D01*
X472805Y33878D01*
X472832Y33912D01*
X472867Y33954D01*
X472909Y34003D01*
X472951Y34065D01*
X472999Y34134D01*
X473055Y34218D01*
X473110Y34301D01*
X473166Y34398D01*
X473221Y34509D01*
X473284Y34620D01*
X473339Y34745D01*
X473402Y34877D01*
X473457Y35016D01*
Y35023D01*
X473471Y35050D01*
X473485Y35092D01*
X473506Y35148D01*
X473526Y35217D01*
X473554Y35300D01*
X473575Y35397D01*
X473603Y35502D01*
X473631Y35612D01*
X473658Y35737D01*
X473686Y35862D01*
X473707Y36001D01*
X473742Y36286D01*
X473749Y36432D01*
X473756Y36577D01*
Y34280D01*
Y36674D01*
X473749Y36744D01*
X473742Y36834D01*
X473735Y36938D01*
X473721Y37049D01*
X473700Y37174D01*
X473679Y37306D01*
X473651Y37445D01*
X473617Y37590D01*
X473582Y37743D01*
X473533Y37896D01*
X473478Y38042D01*
X473415Y38187D01*
X473339Y38333D01*
X473332Y38340D01*
X473318Y38368D01*
X473298Y38402D01*
X473263Y38458D01*
X473214Y38513D01*
X473166Y38590D01*
X473103Y38666D01*
X473027Y38749D01*
X472951Y38840D01*
X472860Y38930D01*
X472756Y39027D01*
X472652Y39117D01*
X472534Y39208D01*
X472409Y39298D01*
X472277Y39374D01*
X472131Y39450D01*
X472125Y39457D01*
X472097Y39464D01*
X472055Y39485D01*
X471993Y39506D01*
X471923Y39534D01*
X471833Y39568D01*
X471736Y39603D01*
X471625Y39638D01*
X471500Y39672D01*
X471368Y39707D01*
X471229Y39735D01*
X471084Y39770D01*
X470924Y39790D01*
X470764Y39811D01*
X470598Y39818D01*
X470424Y39825D01*
D02*
G37*
G36*
X473637Y30102D02*
Y28520D01*
X469022D01*
X469029Y28527D01*
X469050Y28548D01*
X469085Y28589D01*
X469127Y28638D01*
X469175Y28700D01*
X469238Y28784D01*
X469307Y28867D01*
X469376Y28971D01*
X469453Y29082D01*
X469529Y29200D01*
X469605Y29332D01*
X469682Y29471D01*
X469758Y29616D01*
X469828Y29776D01*
X469890Y29936D01*
X469952Y30102D01*
X467211D01*
X468835D01*
Y30095D01*
X468828Y30081D01*
X468821Y30054D01*
X468807Y30019D01*
X468786Y29970D01*
X468766Y29922D01*
X468738Y29859D01*
X468703Y29790D01*
X468627Y29637D01*
X468523Y29464D01*
X468398Y29269D01*
X468245Y29061D01*
X468238Y29054D01*
X468224Y29033D01*
X468203Y29006D01*
X468169Y28971D01*
X468127Y28922D01*
X468072Y28874D01*
X468016Y28818D01*
X467947Y28756D01*
X467794Y28624D01*
X467621Y28499D01*
X467426Y28381D01*
X467322Y28332D01*
X467211Y28291D01*
Y28499D01*
Y28291D01*
Y27292D01*
X473637D01*
Y30102D01*
D02*
G37*
G36*
Y25452D02*
D01*
Y24592D01*
X473631D01*
X473624D01*
X473603D01*
X473575D01*
X473506Y24585D01*
X473409Y24578D01*
X473290Y24571D01*
X473145Y24557D01*
X472985Y24536D01*
X472805Y24516D01*
X472604Y24481D01*
X472395Y24446D01*
X472173Y24404D01*
X471937Y24349D01*
X471694Y24293D01*
X471445Y24224D01*
X471188Y24141D01*
X470931Y24050D01*
X470924D01*
X470917Y24044D01*
X470896Y24037D01*
X470868Y24030D01*
X470792Y23995D01*
X470695Y23953D01*
X470577Y23905D01*
X470431Y23842D01*
X470272Y23766D01*
X470098Y23683D01*
X469911Y23585D01*
X469716Y23481D01*
X469508Y23370D01*
X469300Y23246D01*
X469085Y23114D01*
X468870Y22968D01*
X468661Y22822D01*
X468453Y22662D01*
Y25452D01*
X473637D01*
X467315D01*
Y21254D01*
X473637D01*
Y25452D01*
D02*
G37*
%LPD*%
G36*
X472555Y46106D02*
X472548Y45995D01*
X472541Y45863D01*
X472534Y45731D01*
X472520Y45613D01*
X472506Y45558D01*
X472499Y45509D01*
Y45502D01*
X472492Y45495D01*
X472485Y45454D01*
X472465Y45398D01*
X472437Y45329D01*
X472395Y45245D01*
X472347Y45155D01*
X472291Y45072D01*
X472229Y44989D01*
X472222Y44982D01*
X472194Y44954D01*
X472145Y44912D01*
X472083Y44870D01*
X471993Y44815D01*
X471889Y44760D01*
X471764Y44704D01*
X471611Y44648D01*
X471604D01*
X471590Y44642D01*
X471569Y44635D01*
X471535Y44628D01*
X471486Y44621D01*
X471438Y44607D01*
X471375Y44593D01*
X471306Y44579D01*
X471222Y44572D01*
X471132Y44558D01*
X471042Y44544D01*
X470938Y44537D01*
X470820Y44530D01*
X470702Y44524D01*
X470570Y44517D01*
X470438D01*
X470431D01*
X470403D01*
X470369D01*
X470313D01*
X470251Y44524D01*
X470181D01*
X470105Y44530D01*
X470015D01*
X469834Y44551D01*
X469647Y44572D01*
X469460Y44607D01*
X469376Y44628D01*
X469300Y44648D01*
X469293D01*
X469279Y44655D01*
X469258Y44662D01*
X469238Y44669D01*
X469161Y44704D01*
X469071Y44746D01*
X468974Y44794D01*
X468870Y44857D01*
X468773Y44933D01*
X468682Y45016D01*
X468675Y45030D01*
X468648Y45058D01*
X468606Y45113D01*
X468557Y45183D01*
X468509Y45266D01*
X468460Y45370D01*
X468412Y45488D01*
X468377Y45620D01*
Y45634D01*
X468370Y45648D01*
Y45676D01*
X468363Y45703D01*
X468356Y45745D01*
X468349Y45794D01*
X468342Y45856D01*
Y45919D01*
X468335Y45995D01*
X468328Y46085D01*
X468322Y46182D01*
Y46293D01*
X468315Y46411D01*
Y47258D01*
X472555D01*
Y46106D01*
D02*
G37*
G36*
X473637Y43184D02*
X470633D01*
X470702Y43191D01*
X470778D01*
X470868Y43198D01*
X470966Y43212D01*
X471181Y43233D01*
X471410Y43267D01*
X471639Y43316D01*
X471861Y43385D01*
X471868D01*
X471889Y43399D01*
X471930Y43413D01*
X471979Y43427D01*
X472034Y43455D01*
X472104Y43483D01*
X472180Y43517D01*
X472263Y43559D01*
X472444Y43656D01*
X472631Y43774D01*
X472819Y43913D01*
X472992Y44072D01*
X472999Y44079D01*
X473006Y44086D01*
X473027Y44107D01*
X473048Y44135D01*
X473075Y44170D01*
X473110Y44204D01*
X473145Y44253D01*
X473179Y44308D01*
X473263Y44440D01*
X473346Y44593D01*
X473429Y44773D01*
X473506Y44975D01*
Y44982D01*
X473513Y44995D01*
X473520Y45016D01*
X473526Y45051D01*
X473533Y45093D01*
X473547Y45148D01*
X473561Y45211D01*
X473568Y45280D01*
X473582Y45356D01*
X473596Y45440D01*
X473610Y45537D01*
X473617Y45641D01*
X473624Y45745D01*
X473631Y45863D01*
X473637Y45988D01*
Y43184D01*
D02*
G37*
G36*
Y21254D02*
X468203D01*
X468211Y21261D01*
X468224Y21274D01*
X468259Y21302D01*
X468301Y21344D01*
X468349Y21393D01*
X468419Y21448D01*
X468495Y21510D01*
X468578Y21580D01*
X468675Y21656D01*
X468786Y21739D01*
X468911Y21830D01*
X469043Y21920D01*
X469182Y22017D01*
X469335Y22114D01*
X469501Y22211D01*
X469675Y22316D01*
X469689Y22322D01*
X469716Y22336D01*
X469772Y22364D01*
X469841Y22406D01*
X469932Y22447D01*
X470036Y22496D01*
X470154Y22558D01*
X470286Y22621D01*
X470438Y22683D01*
X470591Y22753D01*
X470764Y22815D01*
X470938Y22885D01*
X471125Y22954D01*
X471320Y23017D01*
X471715Y23134D01*
X471729D01*
X471764Y23148D01*
X471819Y23162D01*
X471896Y23176D01*
X471993Y23197D01*
X472097Y23225D01*
X472222Y23246D01*
X472361Y23273D01*
X472506Y23301D01*
X472659Y23322D01*
X472978Y23363D01*
X473311Y23398D01*
X473637Y23405D01*
Y21254D01*
D02*
G37*
%LPC*%
G36*
Y88706D02*
X467232D01*
Y83342D01*
D01*
Y86215D01*
X467239Y86145D01*
Y85986D01*
X467246Y85896D01*
X467260Y85701D01*
X467287Y85500D01*
X467315Y85306D01*
X467336Y85215D01*
X467357Y85132D01*
Y85125D01*
X467364Y85104D01*
X467378Y85077D01*
X467391Y85035D01*
X467405Y84986D01*
X467433Y84931D01*
X467496Y84799D01*
X467572Y84646D01*
X467676Y84487D01*
X467801Y84327D01*
X467947Y84167D01*
X467954Y84161D01*
X467968Y84147D01*
X467988Y84126D01*
X468023Y84098D01*
X468065Y84070D01*
X468113Y84029D01*
X468169Y83987D01*
X468238Y83938D01*
X468308Y83890D01*
X468384Y83841D01*
X468564Y83737D01*
X468766Y83640D01*
X468988Y83557D01*
X468995D01*
X469016Y83550D01*
X469050Y83536D01*
X469099Y83522D01*
X469154Y83508D01*
X469231Y83487D01*
X469314Y83467D01*
X469404Y83446D01*
X469508Y83432D01*
X469626Y83411D01*
X469751Y83390D01*
X469883Y83376D01*
X470029Y83362D01*
X470175Y83349D01*
X470334Y83342D01*
X467232D01*
X473637D01*
X470633D01*
X470702Y83349D01*
X470778D01*
X470868Y83355D01*
X470966Y83369D01*
X471181Y83390D01*
X471410Y83425D01*
X471639Y83473D01*
X471861Y83543D01*
X471868D01*
X471889Y83557D01*
X471930Y83571D01*
X471979Y83584D01*
X472034Y83612D01*
X472104Y83640D01*
X472180Y83675D01*
X472263Y83716D01*
X472444Y83814D01*
X472631Y83931D01*
X472819Y84070D01*
X472992Y84230D01*
X472999Y84237D01*
X473006Y84244D01*
X473027Y84265D01*
X473048Y84292D01*
X473075Y84327D01*
X473110Y84362D01*
X473145Y84410D01*
X473179Y84466D01*
X473263Y84598D01*
X473346Y84750D01*
X473429Y84931D01*
X473506Y85132D01*
Y85139D01*
X473513Y85153D01*
X473520Y85174D01*
X473526Y85208D01*
X473533Y85250D01*
X473547Y85306D01*
X473561Y85368D01*
X473568Y85438D01*
X473582Y85514D01*
X473596Y85597D01*
X473610Y85694D01*
X473617Y85798D01*
X473624Y85902D01*
X473631Y86020D01*
X473637Y86145D01*
Y88706D01*
D02*
G37*
G36*
Y82287D02*
X467232D01*
Y80996D01*
X473637D01*
Y82287D01*
D02*
G37*
G36*
X473756Y79983D02*
X467128D01*
Y73993D01*
D01*
Y76686D01*
X467135Y76610D01*
X467142Y76506D01*
X467156Y76388D01*
X467169Y76263D01*
X467190Y76124D01*
X467218Y75978D01*
X467253Y75826D01*
X467287Y75673D01*
X467336Y75513D01*
X467399Y75361D01*
X467461Y75215D01*
X467537Y75076D01*
X467627Y74944D01*
X467634Y74937D01*
X467648Y74916D01*
X467676Y74882D01*
X467718Y74833D01*
X467773Y74785D01*
X467829Y74722D01*
X467905Y74653D01*
X467988Y74583D01*
X468079Y74507D01*
X468183Y74437D01*
X468301Y74361D01*
X468419Y74292D01*
X468550Y74229D01*
X468696Y74167D01*
X468849Y74118D01*
X469009Y74077D01*
X469251Y75361D01*
X469244D01*
X469231Y75367D01*
X469203Y75375D01*
X469175Y75388D01*
X469134Y75402D01*
X469085Y75423D01*
X468981Y75479D01*
X468863Y75548D01*
X468738Y75638D01*
X468620Y75742D01*
X468509Y75874D01*
Y75881D01*
X468495Y75888D01*
X468481Y75909D01*
X468467Y75943D01*
X468446Y75978D01*
X468419Y76020D01*
X468398Y76075D01*
X468370Y76131D01*
X468322Y76263D01*
X468273Y76422D01*
X468245Y76603D01*
X468231Y76804D01*
Y76887D01*
X468238Y76943D01*
X468245Y77012D01*
X468259Y77096D01*
X468280Y77193D01*
X468301Y77290D01*
X468328Y77394D01*
X468363Y77505D01*
X468405Y77616D01*
X468460Y77727D01*
X468523Y77838D01*
X468592Y77949D01*
X468675Y78053D01*
X468773Y78150D01*
X468780Y78157D01*
X468800Y78171D01*
X468828Y78199D01*
X468877Y78227D01*
X468932Y78268D01*
X469002Y78310D01*
X469078Y78352D01*
X469175Y78400D01*
X469279Y78449D01*
X469397Y78491D01*
X469529Y78532D01*
X469675Y78574D01*
X469828Y78601D01*
X469994Y78629D01*
X470175Y78643D01*
X470369Y78650D01*
X470383D01*
X470417D01*
X470480Y78643D01*
X470556D01*
X470653Y78636D01*
X470757Y78622D01*
X470882Y78609D01*
X471014Y78588D01*
X471146Y78560D01*
X471292Y78525D01*
X471431Y78484D01*
X471576Y78435D01*
X471715Y78379D01*
X471847Y78310D01*
X471972Y78234D01*
X472083Y78144D01*
X472090Y78137D01*
X472104Y78123D01*
X472139Y78088D01*
X472173Y78053D01*
X472215Y77998D01*
X472263Y77942D01*
X472312Y77866D01*
X472367Y77790D01*
X472423Y77699D01*
X472472Y77595D01*
X472520Y77491D01*
X472562Y77373D01*
X472597Y77241D01*
X472624Y77109D01*
X472645Y76971D01*
X472652Y76818D01*
Y76749D01*
X472645Y76714D01*
Y76665D01*
X472631Y76561D01*
X472610Y76436D01*
X472583Y76304D01*
X472548Y76159D01*
X472492Y76006D01*
Y75999D01*
X472485Y75985D01*
X472478Y75964D01*
X472465Y75937D01*
X472430Y75860D01*
X472381Y75763D01*
X472326Y75652D01*
X472263Y75534D01*
X472194Y75416D01*
X472111Y75298D01*
X471292D01*
Y76776D01*
X470209D01*
Y73993D01*
X473756D01*
X472770D01*
X472777Y74000D01*
X472784Y74014D01*
X472805Y74035D01*
X472832Y74070D01*
X472867Y74111D01*
X472909Y74160D01*
X472951Y74222D01*
X472999Y74292D01*
X473055Y74375D01*
X473110Y74458D01*
X473166Y74555D01*
X473221Y74667D01*
X473284Y74778D01*
X473339Y74902D01*
X473402Y75034D01*
X473457Y75173D01*
Y75180D01*
X473471Y75208D01*
X473485Y75249D01*
X473506Y75305D01*
X473526Y75375D01*
X473554Y75458D01*
X473575Y75555D01*
X473603Y75659D01*
X473631Y75770D01*
X473658Y75895D01*
X473686Y76020D01*
X473707Y76159D01*
X473742Y76443D01*
X473749Y76589D01*
X473756Y76735D01*
Y76832D01*
X473749Y76901D01*
X473742Y76991D01*
X473735Y77096D01*
X473721Y77207D01*
X473700Y77332D01*
X473679Y77463D01*
X473651Y77602D01*
X473617Y77748D01*
X473582Y77901D01*
X473533Y78053D01*
X473478Y78199D01*
X473415Y78345D01*
X473339Y78491D01*
X473332Y78497D01*
X473318Y78525D01*
X473298Y78560D01*
X473263Y78615D01*
X473214Y78671D01*
X473166Y78747D01*
X473103Y78824D01*
X473027Y78907D01*
X472951Y78997D01*
X472860Y79087D01*
X472756Y79185D01*
X472652Y79275D01*
X472534Y79365D01*
X472409Y79455D01*
X472277Y79532D01*
X472131Y79608D01*
X472125Y79615D01*
X472097Y79622D01*
X472055Y79643D01*
X471993Y79663D01*
X471923Y79691D01*
X471833Y79726D01*
X471736Y79760D01*
X471625Y79795D01*
X471500Y79830D01*
X471368Y79865D01*
X471229Y79892D01*
X471084Y79927D01*
X470924Y79948D01*
X470764Y79969D01*
X470598Y79976D01*
X470424Y79983D01*
X473756D01*
D02*
G37*
G36*
X473637Y70260D02*
Y68677D01*
X469022D01*
X469029Y68684D01*
X469050Y68705D01*
X469085Y68747D01*
X469127Y68795D01*
X469175Y68858D01*
X469238Y68941D01*
X469307Y69024D01*
X469376Y69128D01*
X469453Y69239D01*
X469529Y69358D01*
X469605Y69489D01*
X469682Y69628D01*
X469758Y69774D01*
X469828Y69933D01*
X469890Y70093D01*
X469952Y70260D01*
X473637D01*
X468835D01*
Y70253D01*
X468828Y70239D01*
X468821Y70211D01*
X468807Y70176D01*
X468786Y70128D01*
X468766Y70079D01*
X468738Y70017D01*
X468703Y69947D01*
X468627Y69795D01*
X468523Y69621D01*
X468398Y69427D01*
X468245Y69219D01*
X468238Y69212D01*
X468224Y69191D01*
X468203Y69163D01*
X468169Y69128D01*
X468127Y69080D01*
X468072Y69031D01*
X468016Y68976D01*
X467947Y68913D01*
X467794Y68781D01*
X467621Y68656D01*
X467426Y68538D01*
X467322Y68490D01*
X467211Y68448D01*
Y68656D01*
Y68448D01*
Y67449D01*
X473637D01*
Y70260D01*
D02*
G37*
G36*
X472000Y65596D02*
D01*
X471868Y64375D01*
X471875D01*
X471889D01*
X471910Y64368D01*
X471937Y64361D01*
X472014Y64347D01*
X472104Y64319D01*
X472215Y64277D01*
X472319Y64222D01*
X472430Y64152D01*
X472527Y64069D01*
X472534Y64055D01*
X472562Y64021D01*
X472604Y63972D01*
X472645Y63896D01*
X472694Y63812D01*
X472728Y63708D01*
X472756Y63597D01*
X472770Y63472D01*
Y63438D01*
X472763Y63410D01*
X472756Y63334D01*
X472728Y63243D01*
X472694Y63139D01*
X472638Y63035D01*
X472562Y62924D01*
X472513Y62869D01*
X472458Y62820D01*
X472451D01*
X472444Y62806D01*
X472423Y62792D01*
X472402Y62778D01*
X472367Y62757D01*
X472326Y62737D01*
X472277Y62709D01*
X472222Y62681D01*
X472159Y62660D01*
X472090Y62633D01*
X472014Y62612D01*
X471930Y62591D01*
X471833Y62577D01*
X471736Y62563D01*
X471625Y62549D01*
X471514D01*
X471507D01*
X471486D01*
X471458D01*
X471417Y62556D01*
X471368D01*
X471313Y62563D01*
X471181Y62584D01*
X471035Y62612D01*
X470889Y62660D01*
X470751Y62730D01*
X470626Y62820D01*
X470619D01*
X470612Y62834D01*
X470577Y62869D01*
X470528Y62924D01*
X470473Y63007D01*
X470424Y63104D01*
X470376Y63222D01*
X470341Y63354D01*
X470327Y63431D01*
Y63556D01*
X470334Y63597D01*
X470341Y63646D01*
X470355Y63694D01*
X470383Y63826D01*
X470438Y63972D01*
X470480Y64055D01*
X470521Y64132D01*
X470577Y64215D01*
X470640Y64298D01*
X470709Y64381D01*
X470792Y64458D01*
X470653Y65450D01*
X467315Y64819D01*
Y65596D01*
X472000D01*
X467315D01*
Y61286D01*
Y61571D01*
X468467D01*
Y63896D01*
X469557Y64090D01*
Y64083D01*
X469550Y64069D01*
X469536Y64048D01*
X469522Y64021D01*
X469508Y63979D01*
X469487Y63937D01*
X469453Y63833D01*
X469411Y63701D01*
X469383Y63563D01*
X469356Y63410D01*
X469349Y63250D01*
Y63216D01*
X469356Y63174D01*
Y63112D01*
X469369Y63042D01*
X469383Y62959D01*
X469397Y62869D01*
X469425Y62771D01*
X469453Y62660D01*
X469494Y62549D01*
X469543Y62438D01*
X469598Y62320D01*
X469668Y62202D01*
X469751Y62084D01*
X469841Y61973D01*
X469945Y61862D01*
X469952Y61855D01*
X469973Y61835D01*
X470008Y61807D01*
X470056Y61772D01*
X470112Y61730D01*
X470181Y61682D01*
X470265Y61626D01*
X470362Y61571D01*
X470466Y61522D01*
X470584Y61467D01*
X470716Y61418D01*
X470848Y61377D01*
X471000Y61342D01*
X471153Y61314D01*
X471320Y61293D01*
X471493Y61286D01*
X467315D01*
X473756D01*
X471569D01*
X471625Y61293D01*
X471694Y61300D01*
X471778Y61314D01*
X471868Y61328D01*
X471965Y61342D01*
X472076Y61370D01*
X472187Y61397D01*
X472305Y61439D01*
X472423Y61481D01*
X472548Y61536D01*
X472666Y61599D01*
X472791Y61668D01*
X472909Y61751D01*
X472916Y61758D01*
X472943Y61779D01*
X472985Y61814D01*
X473041Y61869D01*
X473103Y61932D01*
X473179Y62008D01*
X473256Y62098D01*
X473332Y62202D01*
X473409Y62320D01*
X473485Y62452D01*
X473561Y62591D01*
X473624Y62744D01*
X473679Y62910D01*
X473721Y63091D01*
X473749Y63285D01*
X473756Y63486D01*
Y63569D01*
X473749Y63632D01*
X473742Y63708D01*
X473728Y63798D01*
X473714Y63896D01*
X473693Y64000D01*
X473637Y64229D01*
X473603Y64354D01*
X473554Y64472D01*
X473499Y64597D01*
X473436Y64715D01*
X473367Y64826D01*
X473284Y64937D01*
X473277Y64944D01*
X473263Y64957D01*
X473235Y64985D01*
X473193Y65027D01*
X473145Y65069D01*
X473089Y65117D01*
X473020Y65173D01*
X472943Y65228D01*
X472853Y65284D01*
X472756Y65339D01*
X472652Y65395D01*
X472541Y65450D01*
X472416Y65499D01*
X472284Y65540D01*
X472145Y65568D01*
X472000Y65596D01*
D02*
G37*
%LPD*%
G36*
X472555Y86263D02*
X472548Y86152D01*
X472541Y86020D01*
X472534Y85888D01*
X472520Y85771D01*
X472506Y85715D01*
X472499Y85667D01*
Y85659D01*
X472492Y85653D01*
X472485Y85611D01*
X472465Y85555D01*
X472437Y85486D01*
X472395Y85403D01*
X472347Y85312D01*
X472291Y85229D01*
X472229Y85146D01*
X472222Y85139D01*
X472194Y85111D01*
X472145Y85070D01*
X472083Y85028D01*
X471993Y84973D01*
X471889Y84917D01*
X471764Y84861D01*
X471611Y84806D01*
X471604D01*
X471590Y84799D01*
X471569Y84792D01*
X471535Y84785D01*
X471486Y84778D01*
X471438Y84764D01*
X471375Y84750D01*
X471306Y84737D01*
X471222Y84730D01*
X471132Y84716D01*
X471042Y84702D01*
X470938Y84695D01*
X470820Y84688D01*
X470702Y84681D01*
X470570Y84674D01*
X470438D01*
X470431D01*
X470403D01*
X470369D01*
X470313D01*
X470251Y84681D01*
X470181D01*
X470105Y84688D01*
X470015D01*
X469834Y84709D01*
X469647Y84730D01*
X469460Y84764D01*
X469376Y84785D01*
X469300Y84806D01*
X469293D01*
X469279Y84813D01*
X469258Y84820D01*
X469238Y84827D01*
X469161Y84861D01*
X469071Y84903D01*
X468974Y84952D01*
X468870Y85014D01*
X468773Y85090D01*
X468682Y85174D01*
X468675Y85188D01*
X468648Y85215D01*
X468606Y85271D01*
X468557Y85340D01*
X468509Y85424D01*
X468460Y85528D01*
X468412Y85646D01*
X468377Y85777D01*
Y85791D01*
X468370Y85805D01*
Y85833D01*
X468363Y85861D01*
X468356Y85902D01*
X468349Y85951D01*
X468342Y86014D01*
Y86076D01*
X468335Y86152D01*
X468328Y86243D01*
X468322Y86340D01*
Y86451D01*
X468315Y86569D01*
Y87415D01*
X472555D01*
Y86263D01*
D02*
G37*
G36*
X470258Y79976D02*
X470167Y79969D01*
X470063Y79962D01*
X469952Y79948D01*
X469828Y79927D01*
X469696Y79906D01*
X469550Y79878D01*
X469404Y79844D01*
X469251Y79809D01*
X469099Y79760D01*
X468946Y79705D01*
X468793Y79643D01*
X468648Y79566D01*
X468641Y79559D01*
X468613Y79545D01*
X468571Y79525D01*
X468516Y79490D01*
X468453Y79441D01*
X468377Y79393D01*
X468294Y79330D01*
X468203Y79254D01*
X468106Y79178D01*
X468009Y79080D01*
X467912Y78983D01*
X467808Y78872D01*
X467711Y78754D01*
X467621Y78622D01*
X467530Y78484D01*
X467447Y78338D01*
X467440Y78331D01*
X467433Y78310D01*
X467419Y78275D01*
X467399Y78227D01*
X467371Y78164D01*
X467343Y78095D01*
X467315Y78012D01*
X467287Y77915D01*
X467260Y77810D01*
X467232Y77692D01*
X467204Y77567D01*
X467176Y77429D01*
X467156Y77283D01*
X467142Y77130D01*
X467128Y76971D01*
Y79983D01*
X470327D01*
X470258Y79976D01*
D02*
G37*
%LPC*%
G36*
X473637Y130438D02*
X467232D01*
Y125074D01*
D01*
Y127947D01*
X467239Y127878D01*
Y127718D01*
X467246Y127628D01*
X467260Y127433D01*
X467287Y127232D01*
X467315Y127038D01*
X467336Y126948D01*
X467357Y126864D01*
Y126857D01*
X467364Y126837D01*
X467378Y126809D01*
X467391Y126767D01*
X467405Y126719D01*
X467433Y126663D01*
X467496Y126531D01*
X467572Y126379D01*
X467676Y126219D01*
X467801Y126059D01*
X467947Y125900D01*
X467954Y125893D01*
X467968Y125879D01*
X467988Y125858D01*
X468023Y125830D01*
X468065Y125803D01*
X468113Y125761D01*
X468169Y125719D01*
X468238Y125671D01*
X468308Y125622D01*
X468384Y125574D01*
X468564Y125469D01*
X468766Y125372D01*
X468988Y125289D01*
X468995D01*
X469016Y125282D01*
X469050Y125268D01*
X469099Y125254D01*
X469154Y125240D01*
X469231Y125220D01*
X469314Y125199D01*
X469404Y125178D01*
X469508Y125164D01*
X469626Y125143D01*
X469751Y125122D01*
X469883Y125109D01*
X470029Y125095D01*
X470175Y125081D01*
X470334Y125074D01*
X467232D01*
X473637D01*
X470633D01*
X470702Y125081D01*
X470778D01*
X470868Y125088D01*
X470966Y125102D01*
X471181Y125122D01*
X471410Y125157D01*
X471639Y125206D01*
X471861Y125275D01*
X471868D01*
X471889Y125289D01*
X471930Y125303D01*
X471979Y125317D01*
X472034Y125345D01*
X472104Y125372D01*
X472180Y125407D01*
X472263Y125449D01*
X472444Y125546D01*
X472631Y125664D01*
X472819Y125803D01*
X472992Y125962D01*
X472999Y125969D01*
X473006Y125976D01*
X473027Y125997D01*
X473048Y126025D01*
X473075Y126059D01*
X473110Y126094D01*
X473145Y126143D01*
X473179Y126198D01*
X473263Y126330D01*
X473346Y126483D01*
X473429Y126663D01*
X473506Y126864D01*
Y126871D01*
X473513Y126885D01*
X473520Y126906D01*
X473526Y126941D01*
X473533Y126982D01*
X473547Y127038D01*
X473561Y127100D01*
X473568Y127170D01*
X473582Y127246D01*
X473596Y127329D01*
X473610Y127427D01*
X473617Y127531D01*
X473624Y127635D01*
X473631Y127753D01*
X473637Y127878D01*
Y130438D01*
D02*
G37*
G36*
Y124019D02*
X467232D01*
Y122728D01*
X473637D01*
Y124019D01*
D02*
G37*
G36*
X473756Y121715D02*
X467128D01*
Y115726D01*
D01*
Y118418D01*
X467135Y118342D01*
X467142Y118238D01*
X467156Y118120D01*
X467169Y117995D01*
X467190Y117856D01*
X467218Y117710D01*
X467253Y117558D01*
X467287Y117405D01*
X467336Y117245D01*
X467399Y117093D01*
X467461Y116947D01*
X467537Y116808D01*
X467627Y116676D01*
X467634Y116669D01*
X467648Y116649D01*
X467676Y116614D01*
X467718Y116565D01*
X467773Y116517D01*
X467829Y116454D01*
X467905Y116385D01*
X467988Y116316D01*
X468079Y116239D01*
X468183Y116170D01*
X468301Y116094D01*
X468419Y116024D01*
X468550Y115962D01*
X468696Y115899D01*
X468849Y115851D01*
X469009Y115809D01*
X469251Y117093D01*
X469244D01*
X469231Y117100D01*
X469203Y117107D01*
X469175Y117121D01*
X469134Y117134D01*
X469085Y117155D01*
X468981Y117211D01*
X468863Y117280D01*
X468738Y117370D01*
X468620Y117474D01*
X468509Y117606D01*
Y117613D01*
X468495Y117620D01*
X468481Y117641D01*
X468467Y117676D01*
X468446Y117710D01*
X468419Y117752D01*
X468398Y117808D01*
X468370Y117863D01*
X468322Y117995D01*
X468273Y118155D01*
X468245Y118335D01*
X468231Y118536D01*
Y118620D01*
X468238Y118675D01*
X468245Y118745D01*
X468259Y118828D01*
X468280Y118925D01*
X468301Y119022D01*
X468328Y119126D01*
X468363Y119237D01*
X468405Y119348D01*
X468460Y119459D01*
X468523Y119570D01*
X468592Y119682D01*
X468675Y119786D01*
X468773Y119883D01*
X468780Y119890D01*
X468800Y119904D01*
X468828Y119931D01*
X468877Y119959D01*
X468932Y120001D01*
X469002Y120042D01*
X469078Y120084D01*
X469175Y120133D01*
X469279Y120181D01*
X469397Y120223D01*
X469529Y120264D01*
X469675Y120306D01*
X469828Y120334D01*
X469994Y120362D01*
X470175Y120376D01*
X470369Y120382D01*
X470383D01*
X470417D01*
X470480Y120376D01*
X470556D01*
X470653Y120369D01*
X470757Y120355D01*
X470882Y120341D01*
X471014Y120320D01*
X471146Y120292D01*
X471292Y120257D01*
X471431Y120216D01*
X471576Y120167D01*
X471715Y120112D01*
X471847Y120042D01*
X471972Y119966D01*
X472083Y119876D01*
X472090Y119869D01*
X472104Y119855D01*
X472139Y119820D01*
X472173Y119786D01*
X472215Y119730D01*
X472263Y119675D01*
X472312Y119598D01*
X472367Y119522D01*
X472423Y119432D01*
X472472Y119327D01*
X472520Y119223D01*
X472562Y119105D01*
X472597Y118974D01*
X472624Y118842D01*
X472645Y118703D01*
X472652Y118550D01*
Y118481D01*
X472645Y118446D01*
Y118398D01*
X472631Y118293D01*
X472610Y118169D01*
X472583Y118037D01*
X472548Y117891D01*
X472492Y117738D01*
Y117731D01*
X472485Y117718D01*
X472478Y117697D01*
X472465Y117669D01*
X472430Y117593D01*
X472381Y117495D01*
X472326Y117384D01*
X472263Y117266D01*
X472194Y117148D01*
X472111Y117030D01*
X471292D01*
Y118509D01*
X470209D01*
Y115726D01*
X473756D01*
X472770D01*
X472777Y115733D01*
X472784Y115746D01*
X472805Y115767D01*
X472832Y115802D01*
X472867Y115844D01*
X472909Y115892D01*
X472951Y115955D01*
X472999Y116024D01*
X473055Y116107D01*
X473110Y116191D01*
X473166Y116288D01*
X473221Y116399D01*
X473284Y116510D01*
X473339Y116635D01*
X473402Y116767D01*
X473457Y116905D01*
Y116912D01*
X473471Y116940D01*
X473485Y116982D01*
X473506Y117037D01*
X473526Y117107D01*
X473554Y117190D01*
X473575Y117287D01*
X473603Y117391D01*
X473631Y117502D01*
X473658Y117627D01*
X473686Y117752D01*
X473707Y117891D01*
X473742Y118175D01*
X473749Y118321D01*
X473756Y118467D01*
Y118564D01*
X473749Y118633D01*
X473742Y118724D01*
X473735Y118828D01*
X473721Y118939D01*
X473700Y119064D01*
X473679Y119196D01*
X473651Y119334D01*
X473617Y119480D01*
X473582Y119633D01*
X473533Y119786D01*
X473478Y119931D01*
X473415Y120077D01*
X473339Y120223D01*
X473332Y120230D01*
X473318Y120257D01*
X473298Y120292D01*
X473263Y120348D01*
X473214Y120403D01*
X473166Y120480D01*
X473103Y120556D01*
X473027Y120639D01*
X472951Y120729D01*
X472860Y120820D01*
X472756Y120917D01*
X472652Y121007D01*
X472534Y121097D01*
X472409Y121187D01*
X472277Y121264D01*
X472131Y121340D01*
X472125Y121347D01*
X472097Y121354D01*
X472055Y121375D01*
X471993Y121396D01*
X471923Y121423D01*
X471833Y121458D01*
X471736Y121493D01*
X471625Y121528D01*
X471500Y121562D01*
X471368Y121597D01*
X471229Y121625D01*
X471084Y121659D01*
X470924Y121680D01*
X470764Y121701D01*
X470598Y121708D01*
X470424Y121715D01*
X473756D01*
D02*
G37*
G36*
X473637Y111992D02*
Y110410D01*
X469022D01*
X469029Y110417D01*
X469050Y110437D01*
X469085Y110479D01*
X469127Y110528D01*
X469175Y110590D01*
X469238Y110673D01*
X469307Y110757D01*
X469376Y110861D01*
X469453Y110972D01*
X469529Y111090D01*
X469605Y111222D01*
X469682Y111360D01*
X469758Y111506D01*
X469828Y111666D01*
X469890Y111825D01*
X469952Y111992D01*
X473637D01*
X468835D01*
Y111985D01*
X468828Y111971D01*
X468821Y111943D01*
X468807Y111909D01*
X468786Y111860D01*
X468766Y111811D01*
X468738Y111749D01*
X468703Y111680D01*
X468627Y111527D01*
X468523Y111354D01*
X468398Y111159D01*
X468245Y110951D01*
X468238Y110944D01*
X468224Y110923D01*
X468203Y110895D01*
X468169Y110861D01*
X468127Y110812D01*
X468072Y110764D01*
X468016Y110708D01*
X467947Y110646D01*
X467794Y110514D01*
X467621Y110389D01*
X467426Y110271D01*
X467322Y110222D01*
X467211Y110181D01*
Y110389D01*
Y110181D01*
Y109181D01*
X473637D01*
Y111992D01*
D02*
G37*
G36*
X471944Y107391D02*
X471798Y106204D01*
X471805D01*
X471819D01*
X471840Y106197D01*
X471875Y106190D01*
X471958Y106176D01*
X472055Y106141D01*
X472173Y106107D01*
X472284Y106051D01*
X472402Y105982D01*
X472499Y105899D01*
X472506Y105885D01*
X472534Y105857D01*
X472576Y105801D01*
X472617Y105732D01*
X472659Y105642D01*
X472701Y105538D01*
X472728Y105420D01*
X472735Y105295D01*
Y105260D01*
X472728Y105232D01*
X472721Y105163D01*
X472701Y105073D01*
X472666Y104969D01*
X472617Y104865D01*
X472548Y104753D01*
X472451Y104649D01*
X472437Y104636D01*
X472395Y104608D01*
X472333Y104566D01*
X472243Y104518D01*
X472131Y104469D01*
X472000Y104427D01*
X471847Y104400D01*
X471673Y104386D01*
X471667D01*
X471653D01*
X471632D01*
X471597Y104393D01*
X471556D01*
X471514Y104400D01*
X471410Y104413D01*
X471292Y104448D01*
X471167Y104490D01*
X471049Y104552D01*
X470938Y104636D01*
X470924Y104649D01*
X470896Y104677D01*
X470848Y104733D01*
X470799Y104802D01*
X470751Y104892D01*
X470702Y104996D01*
X470674Y105114D01*
X470660Y105246D01*
Y105288D01*
X470667Y105336D01*
X470674Y105406D01*
X470681Y105489D01*
X470702Y105579D01*
X470723Y105690D01*
X470757Y105808D01*
X469758Y105676D01*
Y105593D01*
X469751Y105552D01*
Y105503D01*
X469737Y105392D01*
X469716Y105267D01*
X469675Y105142D01*
X469619Y105024D01*
X469550Y104913D01*
X469536Y104899D01*
X469508Y104871D01*
X469460Y104830D01*
X469390Y104774D01*
X469300Y104726D01*
X469196Y104684D01*
X469078Y104656D01*
X468939Y104642D01*
X468932D01*
X468925D01*
X468884D01*
X468828Y104649D01*
X468752Y104663D01*
X468675Y104691D01*
X468585Y104726D01*
X468502Y104774D01*
X468426Y104837D01*
X468419Y104844D01*
X468398Y104871D01*
X468363Y104913D01*
X468328Y104976D01*
X468294Y105052D01*
X468259Y105135D01*
X468238Y105239D01*
X468231Y105357D01*
Y105413D01*
X468245Y105468D01*
X468259Y105545D01*
X468287Y105628D01*
X468322Y105718D01*
X468377Y105808D01*
X468453Y105899D01*
X468460Y105906D01*
X468495Y105933D01*
X468544Y105968D01*
X468613Y106017D01*
X468703Y106065D01*
X468807Y106107D01*
X468939Y106141D01*
X469085Y106169D01*
X468897Y107300D01*
X468891D01*
X468870Y107294D01*
X468842Y107287D01*
X468800Y107280D01*
X468752Y107266D01*
X468696Y107252D01*
X468564Y107210D01*
X468412Y107162D01*
X468259Y107099D01*
X468106Y107030D01*
X467968Y106947D01*
X467961D01*
X467954Y106933D01*
X467912Y106905D01*
X467843Y106849D01*
X467766Y106773D01*
X467676Y106683D01*
X467586Y106572D01*
X467496Y106440D01*
X467412Y106287D01*
Y106280D01*
X467405Y106266D01*
X467391Y106246D01*
X467378Y106211D01*
X467364Y106169D01*
X467350Y106121D01*
X467329Y106065D01*
X467308Y106003D01*
X467274Y105864D01*
X467239Y105697D01*
X467218Y105517D01*
X467211Y105323D01*
Y107391D01*
Y103130D01*
D01*
Y105281D01*
X467218Y105232D01*
Y105170D01*
X467232Y105094D01*
X467239Y105003D01*
X467260Y104906D01*
X467280Y104802D01*
X467315Y104684D01*
X467350Y104566D01*
X467399Y104448D01*
X467454Y104330D01*
X467523Y104205D01*
X467600Y104087D01*
X467690Y103976D01*
X467794Y103872D01*
X467801Y103865D01*
X467815Y103851D01*
X467843Y103831D01*
X467877Y103803D01*
X467919Y103768D01*
X467975Y103726D01*
X468037Y103685D01*
X468106Y103643D01*
X468259Y103560D01*
X468439Y103483D01*
X468537Y103456D01*
X468641Y103435D01*
X468745Y103421D01*
X468856Y103414D01*
X468863D01*
X468891D01*
X468939Y103421D01*
X468995Y103428D01*
X469064Y103442D01*
X469147Y103463D01*
X469244Y103490D01*
X469342Y103532D01*
X469446Y103581D01*
X469557Y103636D01*
X469668Y103712D01*
X469779Y103803D01*
X469890Y103907D01*
X470001Y104032D01*
X470105Y104177D01*
X470202Y104337D01*
Y104330D01*
X470209Y104309D01*
X470216Y104282D01*
X470230Y104247D01*
X470244Y104198D01*
X470265Y104143D01*
X470313Y104025D01*
X470383Y103879D01*
X470480Y103733D01*
X470591Y103595D01*
X470660Y103525D01*
X470737Y103463D01*
X470744Y103456D01*
X470757Y103449D01*
X470778Y103435D01*
X470806Y103407D01*
X470848Y103386D01*
X470896Y103359D01*
X470952Y103324D01*
X471014Y103296D01*
X471160Y103234D01*
X471326Y103178D01*
X471521Y103144D01*
X471625Y103137D01*
X471729Y103130D01*
X467211D01*
X473756D01*
X471764D01*
X471812Y103137D01*
X471868D01*
X471944Y103150D01*
X472027Y103164D01*
X472118Y103178D01*
X472222Y103206D01*
X472333Y103241D01*
X472451Y103282D01*
X472569Y103331D01*
X472687Y103393D01*
X472812Y103463D01*
X472930Y103546D01*
X473048Y103636D01*
X473166Y103747D01*
X473173Y103754D01*
X473193Y103775D01*
X473221Y103810D01*
X473256Y103858D01*
X473304Y103921D01*
X473353Y103990D01*
X473409Y104073D01*
X473457Y104171D01*
X473513Y104275D01*
X473568Y104393D01*
X473617Y104525D01*
X473665Y104656D01*
X473700Y104802D01*
X473728Y104955D01*
X473749Y105121D01*
X473756Y105288D01*
Y105336D01*
Y105330D01*
X473749Y105371D01*
Y105434D01*
X473742Y105503D01*
X473728Y105593D01*
X473714Y105690D01*
X473693Y105795D01*
X473665Y105906D01*
X473631Y106024D01*
X473596Y106141D01*
X473547Y106260D01*
X473485Y106384D01*
X473422Y106502D01*
X473346Y106620D01*
X473256Y106731D01*
X473249Y106738D01*
X473235Y106759D01*
X473207Y106787D01*
X473166Y106822D01*
X473117Y106863D01*
X473055Y106919D01*
X472985Y106967D01*
X472902Y107030D01*
X472812Y107085D01*
X472715Y107141D01*
X472610Y107196D01*
X472492Y107252D01*
X472367Y107294D01*
X472236Y107335D01*
X472090Y107370D01*
X471944Y107391D01*
D02*
G37*
%LPD*%
G36*
X472555Y127996D02*
X472548Y127884D01*
X472541Y127753D01*
X472534Y127621D01*
X472520Y127503D01*
X472506Y127447D01*
X472499Y127399D01*
Y127392D01*
X472492Y127385D01*
X472485Y127343D01*
X472465Y127288D01*
X472437Y127218D01*
X472395Y127135D01*
X472347Y127045D01*
X472291Y126962D01*
X472229Y126878D01*
X472222Y126871D01*
X472194Y126844D01*
X472145Y126802D01*
X472083Y126760D01*
X471993Y126705D01*
X471889Y126649D01*
X471764Y126594D01*
X471611Y126538D01*
X471604D01*
X471590Y126531D01*
X471569Y126524D01*
X471535Y126517D01*
X471486Y126510D01*
X471438Y126497D01*
X471375Y126483D01*
X471306Y126469D01*
X471222Y126462D01*
X471132Y126448D01*
X471042Y126434D01*
X470938Y126427D01*
X470820Y126420D01*
X470702Y126413D01*
X470570Y126406D01*
X470438D01*
X470431D01*
X470403D01*
X470369D01*
X470313D01*
X470251Y126413D01*
X470181D01*
X470105Y126420D01*
X470015D01*
X469834Y126441D01*
X469647Y126462D01*
X469460Y126497D01*
X469376Y126517D01*
X469300Y126538D01*
X469293D01*
X469279Y126545D01*
X469258Y126552D01*
X469238Y126559D01*
X469161Y126594D01*
X469071Y126635D01*
X468974Y126684D01*
X468870Y126746D01*
X468773Y126823D01*
X468682Y126906D01*
X468675Y126920D01*
X468648Y126948D01*
X468606Y127003D01*
X468557Y127073D01*
X468509Y127156D01*
X468460Y127260D01*
X468412Y127378D01*
X468377Y127510D01*
Y127524D01*
X468370Y127538D01*
Y127565D01*
X468363Y127593D01*
X468356Y127635D01*
X468349Y127683D01*
X468342Y127746D01*
Y127808D01*
X468335Y127884D01*
X468328Y127975D01*
X468322Y128072D01*
Y128183D01*
X468315Y128301D01*
Y129148D01*
X472555D01*
Y127996D01*
D02*
G37*
G36*
X470258Y121708D02*
X470167Y121701D01*
X470063Y121694D01*
X469952Y121680D01*
X469828Y121659D01*
X469696Y121639D01*
X469550Y121611D01*
X469404Y121576D01*
X469251Y121541D01*
X469099Y121493D01*
X468946Y121437D01*
X468793Y121375D01*
X468648Y121299D01*
X468641Y121292D01*
X468613Y121278D01*
X468571Y121257D01*
X468516Y121222D01*
X468453Y121174D01*
X468377Y121125D01*
X468294Y121063D01*
X468203Y120986D01*
X468106Y120910D01*
X468009Y120813D01*
X467912Y120715D01*
X467808Y120605D01*
X467711Y120486D01*
X467621Y120355D01*
X467530Y120216D01*
X467447Y120070D01*
X467440Y120063D01*
X467433Y120042D01*
X467419Y120008D01*
X467399Y119959D01*
X467371Y119897D01*
X467343Y119827D01*
X467315Y119744D01*
X467287Y119647D01*
X467260Y119543D01*
X467232Y119425D01*
X467204Y119300D01*
X467176Y119161D01*
X467156Y119015D01*
X467142Y118863D01*
X467128Y118703D01*
Y121715D01*
X470327D01*
X470258Y121708D01*
D02*
G37*
%LPC*%
G36*
X473637Y170596D02*
X467232D01*
Y165231D01*
D01*
Y168105D01*
X467239Y168035D01*
Y167876D01*
X467246Y167785D01*
X467260Y167591D01*
X467287Y167390D01*
X467315Y167195D01*
X467336Y167105D01*
X467357Y167022D01*
Y167015D01*
X467364Y166994D01*
X467378Y166966D01*
X467391Y166925D01*
X467405Y166876D01*
X467433Y166821D01*
X467496Y166689D01*
X467572Y166536D01*
X467676Y166376D01*
X467801Y166217D01*
X467947Y166057D01*
X467954Y166050D01*
X467968Y166036D01*
X467988Y166016D01*
X468023Y165988D01*
X468065Y165960D01*
X468113Y165918D01*
X468169Y165877D01*
X468238Y165828D01*
X468308Y165780D01*
X468384Y165731D01*
X468564Y165627D01*
X468766Y165530D01*
X468988Y165446D01*
X468995D01*
X469016Y165439D01*
X469050Y165426D01*
X469099Y165412D01*
X469154Y165398D01*
X469231Y165377D01*
X469314Y165356D01*
X469404Y165335D01*
X469508Y165322D01*
X469626Y165301D01*
X469751Y165280D01*
X469883Y165266D01*
X470029Y165252D01*
X470175Y165238D01*
X470334Y165231D01*
X467232D01*
X473637D01*
X470633D01*
X470702Y165238D01*
X470778D01*
X470868Y165245D01*
X470966Y165259D01*
X471181Y165280D01*
X471410Y165315D01*
X471639Y165363D01*
X471861Y165433D01*
X471868D01*
X471889Y165446D01*
X471930Y165460D01*
X471979Y165474D01*
X472034Y165502D01*
X472104Y165530D01*
X472180Y165565D01*
X472263Y165606D01*
X472444Y165703D01*
X472631Y165821D01*
X472819Y165960D01*
X472992Y166120D01*
X472999Y166127D01*
X473006Y166133D01*
X473027Y166154D01*
X473048Y166182D01*
X473075Y166217D01*
X473110Y166252D01*
X473145Y166300D01*
X473179Y166356D01*
X473263Y166488D01*
X473346Y166640D01*
X473429Y166821D01*
X473506Y167022D01*
Y167029D01*
X473513Y167043D01*
X473520Y167063D01*
X473526Y167098D01*
X473533Y167140D01*
X473547Y167195D01*
X473561Y167258D01*
X473568Y167327D01*
X473582Y167403D01*
X473596Y167487D01*
X473610Y167584D01*
X473617Y167688D01*
X473624Y167792D01*
X473631Y167910D01*
X473637Y168035D01*
Y170596D01*
D02*
G37*
G36*
Y164176D02*
X467232D01*
Y162886D01*
X473637D01*
Y164176D01*
D02*
G37*
G36*
X473756Y161872D02*
X467128D01*
Y155883D01*
D01*
Y158576D01*
X467135Y158500D01*
X467142Y158395D01*
X467156Y158277D01*
X467169Y158152D01*
X467190Y158014D01*
X467218Y157868D01*
X467253Y157715D01*
X467287Y157563D01*
X467336Y157403D01*
X467399Y157250D01*
X467461Y157105D01*
X467537Y156966D01*
X467627Y156834D01*
X467634Y156827D01*
X467648Y156806D01*
X467676Y156772D01*
X467718Y156723D01*
X467773Y156674D01*
X467829Y156612D01*
X467905Y156543D01*
X467988Y156473D01*
X468079Y156397D01*
X468183Y156327D01*
X468301Y156251D01*
X468419Y156182D01*
X468550Y156119D01*
X468696Y156057D01*
X468849Y156008D01*
X469009Y155966D01*
X469251Y157250D01*
X469244D01*
X469231Y157257D01*
X469203Y157264D01*
X469175Y157278D01*
X469134Y157292D01*
X469085Y157313D01*
X468981Y157368D01*
X468863Y157438D01*
X468738Y157528D01*
X468620Y157632D01*
X468509Y157764D01*
Y157771D01*
X468495Y157778D01*
X468481Y157799D01*
X468467Y157833D01*
X468446Y157868D01*
X468419Y157910D01*
X468398Y157965D01*
X468370Y158021D01*
X468322Y158152D01*
X468273Y158312D01*
X468245Y158493D01*
X468231Y158694D01*
Y158777D01*
X468238Y158833D01*
X468245Y158902D01*
X468259Y158985D01*
X468280Y159082D01*
X468301Y159180D01*
X468328Y159284D01*
X468363Y159395D01*
X468405Y159506D01*
X468460Y159617D01*
X468523Y159728D01*
X468592Y159839D01*
X468675Y159943D01*
X468773Y160040D01*
X468780Y160047D01*
X468800Y160061D01*
X468828Y160089D01*
X468877Y160117D01*
X468932Y160158D01*
X469002Y160200D01*
X469078Y160241D01*
X469175Y160290D01*
X469279Y160339D01*
X469397Y160380D01*
X469529Y160422D01*
X469675Y160464D01*
X469828Y160491D01*
X469994Y160519D01*
X470175Y160533D01*
X470369Y160540D01*
X470383D01*
X470417D01*
X470480Y160533D01*
X470556D01*
X470653Y160526D01*
X470757Y160512D01*
X470882Y160498D01*
X471014Y160477D01*
X471146Y160450D01*
X471292Y160415D01*
X471431Y160373D01*
X471576Y160325D01*
X471715Y160269D01*
X471847Y160200D01*
X471972Y160124D01*
X472083Y160033D01*
X472090Y160026D01*
X472104Y160012D01*
X472139Y159978D01*
X472173Y159943D01*
X472215Y159888D01*
X472263Y159832D01*
X472312Y159756D01*
X472367Y159679D01*
X472423Y159589D01*
X472472Y159485D01*
X472520Y159381D01*
X472562Y159263D01*
X472597Y159131D01*
X472624Y158999D01*
X472645Y158860D01*
X472652Y158708D01*
Y158638D01*
X472645Y158604D01*
Y158555D01*
X472631Y158451D01*
X472610Y158326D01*
X472583Y158194D01*
X472548Y158048D01*
X472492Y157896D01*
Y157889D01*
X472485Y157875D01*
X472478Y157854D01*
X472465Y157826D01*
X472430Y157750D01*
X472381Y157653D01*
X472326Y157542D01*
X472263Y157424D01*
X472194Y157306D01*
X472111Y157188D01*
X471292D01*
Y158666D01*
X470209D01*
Y155883D01*
X473756D01*
X472770D01*
X472777Y155890D01*
X472784Y155904D01*
X472805Y155925D01*
X472832Y155959D01*
X472867Y156001D01*
X472909Y156050D01*
X472951Y156112D01*
X472999Y156182D01*
X473055Y156265D01*
X473110Y156348D01*
X473166Y156445D01*
X473221Y156556D01*
X473284Y156667D01*
X473339Y156792D01*
X473402Y156924D01*
X473457Y157063D01*
Y157070D01*
X473471Y157098D01*
X473485Y157139D01*
X473506Y157195D01*
X473526Y157264D01*
X473554Y157348D01*
X473575Y157445D01*
X473603Y157549D01*
X473631Y157660D01*
X473658Y157785D01*
X473686Y157910D01*
X473707Y158048D01*
X473742Y158333D01*
X473749Y158479D01*
X473756Y158624D01*
Y158722D01*
X473749Y158791D01*
X473742Y158881D01*
X473735Y158985D01*
X473721Y159096D01*
X473700Y159221D01*
X473679Y159353D01*
X473651Y159492D01*
X473617Y159638D01*
X473582Y159790D01*
X473533Y159943D01*
X473478Y160089D01*
X473415Y160234D01*
X473339Y160380D01*
X473332Y160387D01*
X473318Y160415D01*
X473298Y160450D01*
X473263Y160505D01*
X473214Y160561D01*
X473166Y160637D01*
X473103Y160713D01*
X473027Y160797D01*
X472951Y160887D01*
X472860Y160977D01*
X472756Y161074D01*
X472652Y161164D01*
X472534Y161255D01*
X472409Y161345D01*
X472277Y161421D01*
X472131Y161498D01*
X472125Y161504D01*
X472097Y161512D01*
X472055Y161532D01*
X471993Y161553D01*
X471923Y161581D01*
X471833Y161616D01*
X471736Y161650D01*
X471625Y161685D01*
X471500Y161720D01*
X471368Y161754D01*
X471229Y161782D01*
X471084Y161817D01*
X470924Y161838D01*
X470764Y161858D01*
X470598Y161865D01*
X470424Y161872D01*
X473756D01*
D02*
G37*
G36*
X473637Y152149D02*
Y150567D01*
X469022D01*
X469029Y150574D01*
X469050Y150595D01*
X469085Y150636D01*
X469127Y150685D01*
X469175Y150748D01*
X469238Y150831D01*
X469307Y150914D01*
X469376Y151018D01*
X469453Y151129D01*
X469529Y151247D01*
X469605Y151379D01*
X469682Y151518D01*
X469758Y151664D01*
X469828Y151823D01*
X469890Y151983D01*
X469952Y152149D01*
X473637D01*
X468835D01*
Y152143D01*
X468828Y152129D01*
X468821Y152101D01*
X468807Y152066D01*
X468786Y152018D01*
X468766Y151969D01*
X468738Y151907D01*
X468703Y151837D01*
X468627Y151684D01*
X468523Y151511D01*
X468398Y151317D01*
X468245Y151108D01*
X468238Y151102D01*
X468224Y151081D01*
X468203Y151053D01*
X468169Y151018D01*
X468127Y150970D01*
X468072Y150921D01*
X468016Y150865D01*
X467947Y150803D01*
X467794Y150671D01*
X467621Y150546D01*
X467426Y150428D01*
X467322Y150380D01*
X467211Y150338D01*
Y150546D01*
Y150338D01*
Y149339D01*
X473637D01*
Y152149D01*
D02*
G37*
G36*
Y147174D02*
X468835D01*
Y147167D01*
X468828Y147153D01*
X468821Y147125D01*
X468807Y147090D01*
X468786Y147042D01*
X468766Y146993D01*
X468738Y146931D01*
X468703Y146861D01*
X468627Y146709D01*
X468523Y146535D01*
X468398Y146341D01*
X468245Y146132D01*
X468238Y146125D01*
X468224Y146105D01*
X468203Y146077D01*
X468169Y146042D01*
X468127Y145994D01*
X468072Y145945D01*
X468016Y145890D01*
X467947Y145827D01*
X467794Y145695D01*
X467621Y145570D01*
X467426Y145452D01*
X467322Y145404D01*
X467211Y145362D01*
Y147174D01*
Y144363D01*
X473637D01*
Y145591D01*
D01*
X469022D01*
X469029Y145598D01*
X469050Y145619D01*
X469085Y145660D01*
X469127Y145709D01*
X469175Y145772D01*
X469238Y145855D01*
X469307Y145938D01*
X469376Y146042D01*
X469453Y146153D01*
X469529Y146271D01*
X469605Y146403D01*
X469682Y146542D01*
X469758Y146688D01*
X469828Y146847D01*
X469890Y147007D01*
X469952Y147174D01*
X473637D01*
D02*
G37*
%LPD*%
G36*
X472555Y168153D02*
X472548Y168042D01*
X472541Y167910D01*
X472534Y167778D01*
X472520Y167660D01*
X472506Y167605D01*
X472499Y167556D01*
Y167549D01*
X472492Y167542D01*
X472485Y167501D01*
X472465Y167445D01*
X472437Y167376D01*
X472395Y167292D01*
X472347Y167202D01*
X472291Y167119D01*
X472229Y167036D01*
X472222Y167029D01*
X472194Y167001D01*
X472145Y166959D01*
X472083Y166918D01*
X471993Y166862D01*
X471889Y166807D01*
X471764Y166751D01*
X471611Y166696D01*
X471604D01*
X471590Y166689D01*
X471569Y166682D01*
X471535Y166675D01*
X471486Y166668D01*
X471438Y166654D01*
X471375Y166640D01*
X471306Y166626D01*
X471222Y166619D01*
X471132Y166605D01*
X471042Y166592D01*
X470938Y166585D01*
X470820Y166578D01*
X470702Y166571D01*
X470570Y166564D01*
X470438D01*
X470431D01*
X470403D01*
X470369D01*
X470313D01*
X470251Y166571D01*
X470181D01*
X470105Y166578D01*
X470015D01*
X469834Y166598D01*
X469647Y166619D01*
X469460Y166654D01*
X469376Y166675D01*
X469300Y166696D01*
X469293D01*
X469279Y166703D01*
X469258Y166709D01*
X469238Y166717D01*
X469161Y166751D01*
X469071Y166793D01*
X468974Y166841D01*
X468870Y166904D01*
X468773Y166980D01*
X468682Y167063D01*
X468675Y167077D01*
X468648Y167105D01*
X468606Y167161D01*
X468557Y167230D01*
X468509Y167313D01*
X468460Y167417D01*
X468412Y167535D01*
X468377Y167667D01*
Y167681D01*
X468370Y167695D01*
Y167723D01*
X468363Y167751D01*
X468356Y167792D01*
X468349Y167841D01*
X468342Y167903D01*
Y167966D01*
X468335Y168042D01*
X468328Y168132D01*
X468322Y168229D01*
Y168341D01*
X468315Y168458D01*
Y169305D01*
X472555D01*
Y168153D01*
D02*
G37*
G36*
X470258Y161865D02*
X470167Y161858D01*
X470063Y161852D01*
X469952Y161838D01*
X469828Y161817D01*
X469696Y161796D01*
X469550Y161768D01*
X469404Y161734D01*
X469251Y161699D01*
X469099Y161650D01*
X468946Y161595D01*
X468793Y161532D01*
X468648Y161456D01*
X468641Y161449D01*
X468613Y161435D01*
X468571Y161414D01*
X468516Y161380D01*
X468453Y161331D01*
X468377Y161283D01*
X468294Y161220D01*
X468203Y161144D01*
X468106Y161067D01*
X468009Y160970D01*
X467912Y160873D01*
X467808Y160762D01*
X467711Y160644D01*
X467621Y160512D01*
X467530Y160373D01*
X467447Y160228D01*
X467440Y160221D01*
X467433Y160200D01*
X467419Y160165D01*
X467399Y160117D01*
X467371Y160054D01*
X467343Y159985D01*
X467315Y159901D01*
X467287Y159804D01*
X467260Y159700D01*
X467232Y159582D01*
X467204Y159457D01*
X467176Y159318D01*
X467156Y159173D01*
X467142Y159020D01*
X467128Y158860D01*
Y161872D01*
X470327D01*
X470258Y161865D01*
D02*
G37*
%LPC*%
G36*
X473637Y211934D02*
X467232D01*
Y206570D01*
D01*
Y209443D01*
X467239Y209374D01*
Y209214D01*
X467246Y209124D01*
X467260Y208929D01*
X467287Y208728D01*
X467315Y208534D01*
X467336Y208444D01*
X467357Y208360D01*
Y208353D01*
X467364Y208333D01*
X467378Y208305D01*
X467391Y208263D01*
X467405Y208215D01*
X467433Y208159D01*
X467496Y208027D01*
X467572Y207875D01*
X467676Y207715D01*
X467801Y207555D01*
X467947Y207396D01*
X467954Y207389D01*
X467968Y207375D01*
X467988Y207354D01*
X468023Y207326D01*
X468065Y207299D01*
X468113Y207257D01*
X468169Y207215D01*
X468238Y207167D01*
X468308Y207118D01*
X468384Y207070D01*
X468564Y206965D01*
X468766Y206868D01*
X468988Y206785D01*
X468995D01*
X469016Y206778D01*
X469050Y206764D01*
X469099Y206750D01*
X469154Y206736D01*
X469231Y206716D01*
X469314Y206695D01*
X469404Y206674D01*
X469508Y206660D01*
X469626Y206639D01*
X469751Y206618D01*
X469883Y206605D01*
X470029Y206591D01*
X470175Y206577D01*
X470334Y206570D01*
X467232D01*
X473637D01*
X470633D01*
X470702Y206577D01*
X470778D01*
X470868Y206584D01*
X470966Y206598D01*
X471181Y206618D01*
X471410Y206653D01*
X471639Y206702D01*
X471861Y206771D01*
X471868D01*
X471889Y206785D01*
X471930Y206799D01*
X471979Y206813D01*
X472034Y206841D01*
X472104Y206868D01*
X472180Y206903D01*
X472263Y206945D01*
X472444Y207042D01*
X472631Y207160D01*
X472819Y207299D01*
X472992Y207458D01*
X472999Y207465D01*
X473006Y207472D01*
X473027Y207493D01*
X473048Y207521D01*
X473075Y207555D01*
X473110Y207590D01*
X473145Y207639D01*
X473179Y207694D01*
X473263Y207826D01*
X473346Y207979D01*
X473429Y208159D01*
X473506Y208360D01*
Y208367D01*
X473513Y208381D01*
X473520Y208402D01*
X473526Y208437D01*
X473533Y208478D01*
X473547Y208534D01*
X473561Y208596D01*
X473568Y208666D01*
X473582Y208742D01*
X473596Y208825D01*
X473610Y208923D01*
X473617Y209027D01*
X473624Y209131D01*
X473631Y209249D01*
X473637Y209374D01*
Y211934D01*
D02*
G37*
G36*
Y205515D02*
X467232D01*
Y204224D01*
X473637D01*
Y205515D01*
D02*
G37*
G36*
X473756Y203211D02*
X467128D01*
Y197222D01*
D01*
Y199915D01*
X467135Y199838D01*
X467142Y199734D01*
X467156Y199616D01*
X467170Y199491D01*
X467190Y199352D01*
X467218Y199207D01*
X467253Y199054D01*
X467287Y198901D01*
X467336Y198742D01*
X467399Y198589D01*
X467461Y198443D01*
X467537Y198304D01*
X467627Y198172D01*
X467634Y198166D01*
X467648Y198145D01*
X467676Y198110D01*
X467718Y198062D01*
X467773Y198013D01*
X467829Y197950D01*
X467905Y197881D01*
X467988Y197812D01*
X468079Y197735D01*
X468183Y197666D01*
X468301Y197590D01*
X468419Y197520D01*
X468550Y197458D01*
X468696Y197395D01*
X468849Y197347D01*
X469009Y197305D01*
X469251Y198589D01*
X469244D01*
X469231Y198596D01*
X469203Y198603D01*
X469175Y198617D01*
X469134Y198631D01*
X469085Y198651D01*
X468981Y198707D01*
X468863Y198776D01*
X468738Y198866D01*
X468620Y198971D01*
X468509Y199102D01*
Y199109D01*
X468495Y199116D01*
X468481Y199137D01*
X468467Y199172D01*
X468446Y199207D01*
X468419Y199248D01*
X468398Y199304D01*
X468370Y199359D01*
X468322Y199491D01*
X468273Y199651D01*
X468245Y199831D01*
X468231Y200032D01*
Y200116D01*
X468238Y200171D01*
X468245Y200241D01*
X468259Y200324D01*
X468280Y200421D01*
X468301Y200518D01*
X468328Y200622D01*
X468363Y200733D01*
X468405Y200844D01*
X468460Y200956D01*
X468523Y201066D01*
X468592Y201178D01*
X468675Y201282D01*
X468773Y201379D01*
X468780Y201386D01*
X468800Y201400D01*
X468828Y201427D01*
X468877Y201455D01*
X468932Y201497D01*
X469002Y201538D01*
X469078Y201580D01*
X469175Y201629D01*
X469279Y201677D01*
X469397Y201719D01*
X469529Y201761D01*
X469675Y201802D01*
X469828Y201830D01*
X469994Y201858D01*
X470175Y201871D01*
X470369Y201878D01*
X470383D01*
X470417D01*
X470480Y201871D01*
X470556D01*
X470653Y201865D01*
X470757Y201851D01*
X470882Y201837D01*
X471014Y201816D01*
X471146Y201788D01*
X471292Y201754D01*
X471431Y201712D01*
X471576Y201663D01*
X471715Y201608D01*
X471847Y201538D01*
X471972Y201462D01*
X472083Y201372D01*
X472090Y201365D01*
X472104Y201351D01*
X472139Y201316D01*
X472173Y201282D01*
X472215Y201226D01*
X472263Y201171D01*
X472312Y201094D01*
X472367Y201018D01*
X472423Y200928D01*
X472472Y200824D01*
X472520Y200719D01*
X472562Y200602D01*
X472597Y200470D01*
X472624Y200338D01*
X472645Y200199D01*
X472652Y200046D01*
Y199977D01*
X472645Y199942D01*
Y199894D01*
X472631Y199790D01*
X472610Y199665D01*
X472583Y199533D01*
X472548Y199387D01*
X472492Y199234D01*
Y199227D01*
X472485Y199214D01*
X472479Y199193D01*
X472465Y199165D01*
X472430Y199089D01*
X472381Y198991D01*
X472326Y198880D01*
X472263Y198762D01*
X472194Y198644D01*
X472111Y198527D01*
X471292D01*
Y200005D01*
X470209D01*
Y197222D01*
X473756D01*
X472770D01*
X472777Y197229D01*
X472784Y197243D01*
X472805Y197263D01*
X472832Y197298D01*
X472867Y197340D01*
X472909Y197388D01*
X472951Y197451D01*
X472999Y197520D01*
X473055Y197603D01*
X473110Y197687D01*
X473166Y197784D01*
X473221Y197895D01*
X473284Y198006D01*
X473339Y198131D01*
X473402Y198263D01*
X473457Y198401D01*
Y198408D01*
X473471Y198436D01*
X473485Y198478D01*
X473506Y198533D01*
X473526Y198603D01*
X473554Y198686D01*
X473575Y198783D01*
X473603Y198887D01*
X473631Y198998D01*
X473658Y199123D01*
X473686Y199248D01*
X473707Y199387D01*
X473742Y199672D01*
X473749Y199817D01*
X473756Y199963D01*
Y200060D01*
X473749Y200130D01*
X473742Y200220D01*
X473735Y200324D01*
X473721Y200435D01*
X473700Y200560D01*
X473679Y200692D01*
X473651Y200831D01*
X473617Y200976D01*
X473582Y201129D01*
X473533Y201282D01*
X473478Y201427D01*
X473416Y201573D01*
X473339Y201719D01*
X473332Y201726D01*
X473318Y201754D01*
X473298Y201788D01*
X473263Y201844D01*
X473214Y201899D01*
X473166Y201976D01*
X473103Y202052D01*
X473027Y202135D01*
X472951Y202225D01*
X472860Y202316D01*
X472756Y202413D01*
X472652Y202503D01*
X472534Y202593D01*
X472409Y202683D01*
X472277Y202760D01*
X472132Y202836D01*
X472125Y202843D01*
X472097Y202850D01*
X472055Y202871D01*
X471993Y202892D01*
X471923Y202920D01*
X471833Y202954D01*
X471736Y202989D01*
X471625Y203024D01*
X471500Y203058D01*
X471368Y203093D01*
X471229Y203121D01*
X471084Y203155D01*
X470924Y203176D01*
X470764Y203197D01*
X470598Y203204D01*
X470424Y203211D01*
X473756D01*
D02*
G37*
G36*
Y193821D02*
Y191788D01*
X473749Y191836D01*
X473742Y191899D01*
X473735Y191982D01*
X473721Y192072D01*
X473693Y192176D01*
X473665Y192287D01*
X473631Y192405D01*
X473582Y192523D01*
X473520Y192648D01*
X473457Y192773D01*
X473374Y192898D01*
X473277Y193023D01*
X473166Y193141D01*
X473041Y193252D01*
X473034Y193259D01*
X473006Y193273D01*
X472964Y193308D01*
X472902Y193342D01*
X472819Y193384D01*
X472715Y193432D01*
X472590Y193481D01*
X472451Y193537D01*
X472284Y193592D01*
X472097Y193641D01*
X471889Y193689D01*
X471653Y193731D01*
X471396Y193766D01*
X471111Y193793D01*
X470806Y193814D01*
X470473Y193821D01*
X470348D01*
X470299Y193814D01*
X470244D01*
X470181D01*
X470029Y193800D01*
X469862Y193786D01*
X469675Y193766D01*
X469474Y193745D01*
X469258Y193710D01*
X469043Y193668D01*
X468828Y193620D01*
X468613Y193557D01*
X468405Y193488D01*
X468211Y193405D01*
X468030Y193308D01*
X467870Y193196D01*
X467864Y193190D01*
X467843Y193169D01*
X467808Y193141D01*
X467766Y193099D01*
X467718Y193044D01*
X467662Y192981D01*
X467600Y192905D01*
X467537Y192822D01*
X467482Y192725D01*
X467419Y192614D01*
X467364Y192496D01*
X467315Y192364D01*
X467274Y192225D01*
X467239Y192072D01*
X467218Y191913D01*
X467211Y191746D01*
Y191781D01*
Y191746D01*
Y189664D01*
X473756D01*
Y193821D01*
D02*
G37*
G36*
X469376Y188935D02*
X469335D01*
X469279Y188928D01*
X469217D01*
X469134Y188915D01*
X469036Y188908D01*
X468932Y188887D01*
X468814Y188866D01*
X468696Y188831D01*
X468564Y188797D01*
X468433Y188748D01*
X468308Y188692D01*
X468176Y188623D01*
X468044Y188547D01*
X467926Y188463D01*
X467808Y188359D01*
X467801Y188352D01*
X467780Y188332D01*
X467752Y188297D01*
X467718Y188255D01*
X467669Y188200D01*
X467621Y188130D01*
X467565Y188047D01*
X467510Y187957D01*
X467454Y187860D01*
X467399Y187749D01*
X467350Y187624D01*
X467301Y187499D01*
X467267Y187353D01*
X467239Y187207D01*
X467218Y187055D01*
X467211Y186888D01*
Y184660D01*
X473756D01*
D01*
X470563D01*
X470612Y184667D01*
X470667D01*
X470730D01*
X470875Y184681D01*
X471042Y184695D01*
X471222Y184716D01*
X471417Y184744D01*
X471625Y184778D01*
X471833Y184820D01*
X472048Y184876D01*
X472257Y184938D01*
X472458Y185007D01*
X472645Y185098D01*
X472819Y185195D01*
X472978Y185313D01*
X472985Y185320D01*
X473013Y185340D01*
X473048Y185382D01*
X473096Y185431D01*
X473159Y185493D01*
X473221Y185576D01*
X473298Y185667D01*
X473367Y185771D01*
X473436Y185882D01*
X473513Y186014D01*
X473575Y186152D01*
X473631Y186305D01*
X473686Y186465D01*
X473721Y186631D01*
X473749Y186819D01*
X473756Y187006D01*
Y187075D01*
X473749Y187131D01*
X473742Y187193D01*
X473735Y187270D01*
X473721Y187353D01*
X473707Y187436D01*
X473658Y187631D01*
X473624Y187735D01*
X473589Y187832D01*
X473540Y187936D01*
X473492Y188033D01*
X473429Y188130D01*
X473360Y188221D01*
X473353Y188227D01*
X473339Y188241D01*
X473318Y188262D01*
X473284Y188297D01*
X473242Y188332D01*
X473186Y188373D01*
X473131Y188415D01*
X473055Y188463D01*
X472978Y188512D01*
X472888Y188561D01*
X472791Y188616D01*
X472680Y188658D01*
X472562Y188706D01*
X472437Y188741D01*
X472298Y188776D01*
X472152Y188804D01*
X472020Y187617D01*
X472027D01*
X472034D01*
X472055Y187610D01*
X472083D01*
X472145Y187596D01*
X472229Y187575D01*
X472312Y187547D01*
X472402Y187506D01*
X472485Y187457D01*
X472562Y187395D01*
X472569Y187388D01*
X472590Y187360D01*
X472617Y187318D01*
X472645Y187263D01*
X472680Y187193D01*
X472708Y187110D01*
X472728Y187020D01*
X472735Y186909D01*
Y186874D01*
X472728Y186846D01*
X472715Y186777D01*
X472694Y186687D01*
X472652Y186590D01*
X472590Y186479D01*
X472548Y186430D01*
X472499Y186374D01*
X472451Y186319D01*
X472388Y186270D01*
X472381D01*
X472374Y186257D01*
X472347Y186243D01*
X472319Y186229D01*
X472277Y186208D01*
X472222Y186180D01*
X472152Y186152D01*
X472076Y186125D01*
X471986Y186097D01*
X471882Y186069D01*
X471764Y186041D01*
X471632Y186014D01*
X471479Y185986D01*
X471320Y185965D01*
X471139Y185944D01*
X470938Y185930D01*
X470945Y185937D01*
X470959Y185951D01*
X470987Y185979D01*
X471021Y186014D01*
X471063Y186055D01*
X471104Y186111D01*
X471153Y186173D01*
X471202Y186250D01*
X471257Y186326D01*
X471306Y186416D01*
X471347Y186506D01*
X471389Y186610D01*
X471424Y186722D01*
X471451Y186839D01*
X471465Y186958D01*
X471472Y187089D01*
Y187124D01*
X471465Y187159D01*
Y187214D01*
X471451Y187277D01*
X471445Y187353D01*
X471424Y187443D01*
X471403Y187533D01*
X471368Y187631D01*
X471334Y187735D01*
X471285Y187846D01*
X471229Y187950D01*
X471160Y188061D01*
X471084Y188172D01*
X471000Y188283D01*
X470896Y188387D01*
X470889Y188394D01*
X470868Y188408D01*
X470834Y188436D01*
X470792Y188470D01*
X470730Y188512D01*
X470660Y188561D01*
X470577Y188609D01*
X470487Y188658D01*
X470383Y188713D01*
X470272Y188762D01*
X470147Y188811D01*
X470008Y188852D01*
X469862Y188887D01*
X469709Y188915D01*
X469550Y188928D01*
X469376Y188935D01*
D02*
G37*
%LPD*%
G36*
X472555Y209492D02*
X472548Y209381D01*
X472541Y209249D01*
X472534Y209117D01*
X472520Y208999D01*
X472506Y208943D01*
X472499Y208895D01*
Y208888D01*
X472492Y208881D01*
X472485Y208839D01*
X472465Y208784D01*
X472437Y208714D01*
X472395Y208631D01*
X472347Y208541D01*
X472291Y208458D01*
X472229Y208374D01*
X472222Y208367D01*
X472194Y208340D01*
X472145Y208298D01*
X472083Y208256D01*
X471993Y208201D01*
X471889Y208145D01*
X471764Y208090D01*
X471611Y208034D01*
X471604D01*
X471590Y208027D01*
X471569Y208020D01*
X471535Y208013D01*
X471486Y208007D01*
X471438Y207993D01*
X471375Y207979D01*
X471306Y207965D01*
X471222Y207958D01*
X471132Y207944D01*
X471042Y207930D01*
X470938Y207923D01*
X470820Y207916D01*
X470702Y207909D01*
X470570Y207902D01*
X470438D01*
X470431D01*
X470403D01*
X470369D01*
X470313D01*
X470251Y207909D01*
X470181D01*
X470105Y207916D01*
X470015D01*
X469834Y207937D01*
X469647Y207958D01*
X469460Y207993D01*
X469376Y208013D01*
X469300Y208034D01*
X469293D01*
X469279Y208041D01*
X469258Y208048D01*
X469238Y208055D01*
X469161Y208090D01*
X469071Y208131D01*
X468974Y208180D01*
X468870Y208243D01*
X468773Y208319D01*
X468682Y208402D01*
X468675Y208416D01*
X468648Y208444D01*
X468606Y208499D01*
X468558Y208569D01*
X468509Y208652D01*
X468460Y208756D01*
X468412Y208874D01*
X468377Y209006D01*
Y209020D01*
X468370Y209034D01*
Y209061D01*
X468363Y209089D01*
X468356Y209131D01*
X468349Y209179D01*
X468342Y209242D01*
Y209304D01*
X468335Y209381D01*
X468328Y209471D01*
X468322Y209568D01*
Y209679D01*
X468315Y209797D01*
Y210644D01*
X472555D01*
Y209492D01*
D02*
G37*
G36*
X470258Y203204D02*
X470167Y203197D01*
X470063Y203190D01*
X469952Y203176D01*
X469828Y203155D01*
X469696Y203135D01*
X469550Y203107D01*
X469404Y203072D01*
X469251Y203038D01*
X469099Y202989D01*
X468946Y202933D01*
X468793Y202871D01*
X468648Y202795D01*
X468641Y202788D01*
X468613Y202774D01*
X468571Y202753D01*
X468516Y202718D01*
X468453Y202670D01*
X468377Y202621D01*
X468294Y202559D01*
X468203Y202482D01*
X468106Y202406D01*
X468009Y202309D01*
X467912Y202212D01*
X467808Y202101D01*
X467711Y201983D01*
X467621Y201851D01*
X467530Y201712D01*
X467447Y201566D01*
X467440Y201559D01*
X467433Y201538D01*
X467419Y201504D01*
X467399Y201455D01*
X467371Y201393D01*
X467343Y201323D01*
X467315Y201240D01*
X467287Y201143D01*
X467260Y201039D01*
X467232Y200921D01*
X467204Y200796D01*
X467176Y200657D01*
X467156Y200511D01*
X467142Y200359D01*
X467128Y200199D01*
Y203211D01*
X470327D01*
X470258Y203204D01*
D02*
G37*
G36*
X470764Y192530D02*
X470868D01*
X470979D01*
X471104Y192523D01*
X471361Y192509D01*
X471618Y192489D01*
X471743Y192475D01*
X471854Y192461D01*
X471951Y192447D01*
X472041Y192426D01*
X472048D01*
X472062Y192419D01*
X472083Y192412D01*
X472111Y192405D01*
X472180Y192385D01*
X472263Y192350D01*
X472361Y192308D01*
X472451Y192260D01*
X472534Y192204D01*
X472597Y192142D01*
X472604Y192135D01*
X472617Y192114D01*
X472638Y192072D01*
X472666Y192024D01*
X472694Y191968D01*
X472715Y191899D01*
X472728Y191829D01*
X472735Y191746D01*
Y191711D01*
X472728Y191670D01*
X472715Y191614D01*
X472701Y191552D01*
X472680Y191482D01*
X472645Y191420D01*
X472597Y191350D01*
X472590Y191344D01*
X472569Y191323D01*
X472534Y191288D01*
X472479Y191253D01*
X472409Y191205D01*
X472326Y191163D01*
X472215Y191121D01*
X472090Y191080D01*
X472083D01*
X472069Y191073D01*
X472041Y191066D01*
X472000Y191059D01*
X471944Y191052D01*
X471882Y191038D01*
X471805Y191024D01*
X471715Y191010D01*
X471611Y191004D01*
X471493Y190990D01*
X471361Y190976D01*
X471215Y190969D01*
X471056Y190962D01*
X470882Y190955D01*
X470688Y190948D01*
X470487D01*
X470473D01*
X470438D01*
X470383D01*
X470306D01*
X470216D01*
X470105Y190955D01*
X469994D01*
X469869Y190962D01*
X469612Y190976D01*
X469362Y190997D01*
X469238Y191010D01*
X469127Y191024D01*
X469029Y191045D01*
X468939Y191066D01*
X468932D01*
X468918Y191073D01*
X468897Y191080D01*
X468870Y191087D01*
X468800Y191108D01*
X468710Y191142D01*
X468613Y191184D01*
X468523Y191233D01*
X468439Y191288D01*
X468377Y191350D01*
X468370Y191357D01*
X468356Y191378D01*
X468328Y191420D01*
X468301Y191462D01*
X468280Y191524D01*
X468252Y191593D01*
X468238Y191663D01*
X468231Y191746D01*
Y191781D01*
X468238Y191822D01*
X468252Y191878D01*
X468266Y191940D01*
X468294Y192010D01*
X468328Y192072D01*
X468377Y192142D01*
X468384Y192149D01*
X468405Y192169D01*
X468439Y192204D01*
X468495Y192239D01*
X468564Y192280D01*
X468648Y192329D01*
X468759Y192371D01*
X468884Y192412D01*
X468891D01*
X468904Y192419D01*
X468932Y192426D01*
X468974Y192433D01*
X469029Y192440D01*
X469092Y192454D01*
X469175Y192461D01*
X469265Y192475D01*
X469369Y192489D01*
X469487Y192496D01*
X469619Y192509D01*
X469765Y192516D01*
X469918Y192523D01*
X470098Y192530D01*
X470286Y192537D01*
X470487D01*
X470501D01*
X470535D01*
X470591D01*
X470667D01*
X470764Y192530D01*
D02*
G37*
G36*
X473756Y189664D02*
X470612D01*
X470660Y189671D01*
X470716D01*
X470785D01*
X470931Y189685D01*
X471104Y189699D01*
X471292Y189720D01*
X471493Y189740D01*
X471708Y189775D01*
X471923Y189817D01*
X472145Y189872D01*
X472361Y189928D01*
X472562Y190004D01*
X472763Y190087D01*
X472943Y190185D01*
X473103Y190296D01*
X473110Y190303D01*
X473131Y190316D01*
X473166Y190351D01*
X473207Y190393D01*
X473256Y190441D01*
X473311Y190511D01*
X473367Y190587D01*
X473429Y190670D01*
X473492Y190768D01*
X473547Y190879D01*
X473603Y190997D01*
X473651Y191128D01*
X473693Y191267D01*
X473728Y191420D01*
X473749Y191579D01*
X473756Y191746D01*
Y189664D01*
D02*
G37*
G36*
X467218Y191656D02*
Y191593D01*
X467232Y191517D01*
X467246Y191427D01*
X467267Y191323D01*
X467294Y191212D01*
X467329Y191101D01*
X467371Y190983D01*
X467426Y190858D01*
X467489Y190740D01*
X467565Y190622D01*
X467655Y190504D01*
X467759Y190393D01*
X467877Y190289D01*
X467884Y190282D01*
X467912Y190261D01*
X467961Y190233D01*
X468030Y190191D01*
X468113Y190143D01*
X468224Y190087D01*
X468349Y190032D01*
X468502Y189976D01*
X468669Y189921D01*
X468863Y189858D01*
X469078Y189810D01*
X469314Y189761D01*
X469571Y189720D01*
X469855Y189692D01*
X470161Y189671D01*
X470487Y189664D01*
X467211D01*
Y191704D01*
X467218Y191656D01*
D02*
G37*
G36*
X469481Y187721D02*
X469529D01*
X469585Y187714D01*
X469723Y187700D01*
X469869Y187665D01*
X470022Y187624D01*
X470161Y187568D01*
X470230Y187527D01*
X470286Y187485D01*
X470299Y187471D01*
X470327Y187443D01*
X470376Y187388D01*
X470424Y187318D01*
X470480Y187228D01*
X470528Y187124D01*
X470556Y187006D01*
X470570Y186874D01*
Y186860D01*
X470563Y186812D01*
X470556Y186749D01*
X470535Y186666D01*
X470501Y186576D01*
X470452Y186472D01*
X470383Y186374D01*
X470293Y186277D01*
X470279Y186264D01*
X470244Y186236D01*
X470175Y186201D01*
X470084Y186152D01*
X469973Y186111D01*
X469834Y186069D01*
X469668Y186041D01*
X469481Y186035D01*
X469474D01*
X469453D01*
X469425D01*
X469383Y186041D01*
X469335D01*
X469272Y186048D01*
X469140Y186069D01*
X468995Y186104D01*
X468842Y186152D01*
X468689Y186222D01*
X468558Y186312D01*
X468550D01*
X468544Y186326D01*
X468509Y186361D01*
X468453Y186416D01*
X468391Y186493D01*
X468335Y186583D01*
X468280Y186694D01*
X468245Y186812D01*
X468231Y186874D01*
Y186958D01*
X468238Y186999D01*
X468245Y187062D01*
X468266Y187138D01*
X468294Y187228D01*
X468342Y187325D01*
X468412Y187416D01*
X468502Y187506D01*
X468516Y187513D01*
X468550Y187540D01*
X468620Y187575D01*
X468662Y187596D01*
X468710Y187617D01*
X468773Y187638D01*
X468835Y187658D01*
X468904Y187679D01*
X468988Y187693D01*
X469071Y187707D01*
X469168Y187721D01*
X469265Y187728D01*
X469376D01*
X469383D01*
X469404D01*
X469432D01*
X469481Y187721D01*
D02*
G37*
G36*
X467218Y186791D02*
X467225Y186729D01*
X467232Y186645D01*
X467253Y186548D01*
X467274Y186437D01*
X467308Y186319D01*
X467343Y186194D01*
X467399Y186069D01*
X467454Y185930D01*
X467530Y185799D01*
X467614Y185667D01*
X467718Y185535D01*
X467836Y185403D01*
X467968Y185285D01*
X467975Y185278D01*
X468002Y185257D01*
X468051Y185229D01*
X468113Y185188D01*
X468197Y185139D01*
X468301Y185084D01*
X468419Y185028D01*
X468558Y184973D01*
X468724Y184917D01*
X468904Y184855D01*
X469106Y184806D01*
X469335Y184757D01*
X469578Y184716D01*
X469841Y184688D01*
X470133Y184667D01*
X470445Y184660D01*
X467211D01*
Y186846D01*
X467218Y186791D01*
D02*
G37*
%LPC*%
G36*
X473637Y250124D02*
X467232D01*
Y247632D01*
X467239Y247563D01*
Y247403D01*
X467246Y247313D01*
X467260Y247118D01*
X467287Y246917D01*
X467315Y246723D01*
X467336Y246633D01*
X467357Y246549D01*
Y246543D01*
X467364Y246522D01*
X467378Y246494D01*
X467391Y246452D01*
X467405Y246404D01*
X467433Y246348D01*
X467496Y246216D01*
X467572Y246064D01*
X467676Y245904D01*
X467801Y245744D01*
X467947Y245585D01*
X467954Y245578D01*
X467968Y245564D01*
X467988Y245543D01*
X468023Y245515D01*
X468065Y245488D01*
X468113Y245446D01*
X468169Y245404D01*
X468238Y245356D01*
X468308Y245307D01*
X468384Y245259D01*
X468564Y245155D01*
X468766Y245057D01*
X468988Y244974D01*
X468995D01*
X469016Y244967D01*
X469050Y244953D01*
X469099Y244939D01*
X469154Y244925D01*
X469231Y244905D01*
X469314Y244884D01*
X469404Y244863D01*
X469508Y244849D01*
X469626Y244828D01*
X469751Y244808D01*
X469883Y244794D01*
X470029Y244780D01*
X470175Y244766D01*
X470334Y244759D01*
X467232D01*
X473637D01*
Y250124D01*
D02*
G37*
G36*
Y243704D02*
X467232D01*
Y242413D01*
X473637D01*
Y243704D01*
D02*
G37*
G36*
X473756Y241400D02*
X470327D01*
X470258Y241393D01*
X470167Y241386D01*
X470063Y241379D01*
X469952Y241365D01*
X469828Y241344D01*
X469696Y241324D01*
X469550Y241296D01*
X469404Y241261D01*
X469251Y241226D01*
X469099Y241178D01*
X468946Y241122D01*
X468793Y241060D01*
X468648Y240984D01*
X468641Y240977D01*
X468613Y240963D01*
X468571Y240942D01*
X468516Y240907D01*
X468453Y240859D01*
X468377Y240810D01*
X468294Y240748D01*
X468203Y240671D01*
X468106Y240595D01*
X468009Y240498D01*
X467912Y240401D01*
X467808Y240289D01*
X467711Y240172D01*
X467621Y240040D01*
X467530Y239901D01*
X467447Y239755D01*
X467440Y239748D01*
X467433Y239727D01*
X467419Y239693D01*
X467399Y239644D01*
X467371Y239582D01*
X467343Y239512D01*
X467315Y239429D01*
X467287Y239332D01*
X467260Y239228D01*
X467232Y239110D01*
X467204Y238985D01*
X467176Y238846D01*
X467156Y238700D01*
X467142Y238548D01*
X467128Y238388D01*
D01*
Y238103D01*
X467135Y238027D01*
X467142Y237923D01*
X467156Y237805D01*
X467169Y237680D01*
X467190Y237541D01*
X467218Y237396D01*
X467253Y237243D01*
X467287Y237090D01*
X467336Y236931D01*
X467399Y236778D01*
X467461Y236632D01*
X467537Y236493D01*
X467627Y236362D01*
X467634Y236355D01*
X467648Y236334D01*
X467676Y236299D01*
X467718Y236250D01*
X467773Y236202D01*
X467829Y236139D01*
X467905Y236070D01*
X467988Y236001D01*
X468079Y235924D01*
X468183Y235855D01*
X468301Y235778D01*
X468419Y235709D01*
X468550Y235647D01*
X468696Y235584D01*
X468849Y235536D01*
X469009Y235494D01*
X469251Y236778D01*
X469244D01*
X469231Y236785D01*
X469203Y236792D01*
X469175Y236806D01*
X469134Y236820D01*
X469085Y236840D01*
X468981Y236896D01*
X468863Y236965D01*
X468738Y237055D01*
X468620Y237160D01*
X468509Y237291D01*
Y237298D01*
X468495Y237305D01*
X468481Y237326D01*
X468467Y237361D01*
X468446Y237396D01*
X468419Y237437D01*
X468398Y237493D01*
X468370Y237548D01*
X468322Y237680D01*
X468273Y237840D01*
X468245Y238020D01*
X468231Y238221D01*
Y238305D01*
X468238Y238360D01*
X468245Y238430D01*
X468259Y238513D01*
X468280Y238610D01*
X468301Y238707D01*
X468328Y238811D01*
X468363Y238922D01*
X468405Y239033D01*
X468460Y239144D01*
X468523Y239255D01*
X468592Y239367D01*
X468675Y239471D01*
X468773Y239568D01*
X468780Y239575D01*
X468800Y239589D01*
X468828Y239616D01*
X468877Y239644D01*
X468932Y239686D01*
X469002Y239727D01*
X469078Y239769D01*
X469175Y239818D01*
X469279Y239866D01*
X469397Y239908D01*
X469529Y239949D01*
X469675Y239991D01*
X469828Y240019D01*
X469994Y240047D01*
X470175Y240060D01*
X470369Y240068D01*
X470383D01*
X470417D01*
X470480Y240060D01*
X470556D01*
X470653Y240054D01*
X470757Y240040D01*
X470882Y240026D01*
X471014Y240005D01*
X471146Y239977D01*
X471292Y239943D01*
X471431Y239901D01*
X471576Y239852D01*
X471715Y239797D01*
X471847Y239727D01*
X471972Y239651D01*
X472083Y239561D01*
X472090Y239554D01*
X472104Y239540D01*
X472139Y239505D01*
X472173Y239471D01*
X472215Y239415D01*
X472263Y239360D01*
X472312Y239283D01*
X472367Y239207D01*
X472423Y239117D01*
X472472Y239013D01*
X472520Y238909D01*
X472562Y238790D01*
X472597Y238659D01*
X472624Y238527D01*
X472645Y238388D01*
X472652Y238235D01*
Y238166D01*
X472645Y238131D01*
Y238083D01*
X472631Y237979D01*
X472610Y237854D01*
X472583Y237722D01*
X472548Y237576D01*
X472492Y237423D01*
Y237416D01*
X472485Y237403D01*
X472478Y237382D01*
X472465Y237354D01*
X472430Y237278D01*
X472381Y237180D01*
X472326Y237069D01*
X472263Y236951D01*
X472194Y236833D01*
X472111Y236715D01*
X471292D01*
Y238194D01*
X470209D01*
Y235411D01*
X467128D01*
X472770D01*
X472777Y235418D01*
X472784Y235432D01*
X472805Y235452D01*
X472832Y235487D01*
X472867Y235529D01*
X472909Y235577D01*
X472951Y235640D01*
X472999Y235709D01*
X473055Y235792D01*
X473110Y235876D01*
X473166Y235973D01*
X473221Y236084D01*
X473284Y236195D01*
X473339Y236320D01*
X473402Y236452D01*
X473457Y236591D01*
Y236597D01*
X473471Y236625D01*
X473485Y236667D01*
X473506Y236722D01*
X473526Y236792D01*
X473554Y236875D01*
X473575Y236972D01*
X473603Y237076D01*
X473631Y237187D01*
X473658Y237312D01*
X473686Y237437D01*
X473707Y237576D01*
X473742Y237860D01*
X473749Y238006D01*
X473756Y238152D01*
Y235855D01*
Y238249D01*
X473749Y238319D01*
X473742Y238409D01*
X473735Y238513D01*
X473721Y238624D01*
X473700Y238749D01*
X473679Y238881D01*
X473651Y239019D01*
X473617Y239165D01*
X473582Y239318D01*
X473533Y239471D01*
X473478Y239616D01*
X473415Y239762D01*
X473339Y239908D01*
X473332Y239915D01*
X473318Y239943D01*
X473298Y239977D01*
X473263Y240033D01*
X473214Y240088D01*
X473166Y240165D01*
X473103Y240241D01*
X473027Y240324D01*
X472951Y240414D01*
X472860Y240505D01*
X472756Y240602D01*
X472652Y240692D01*
X472534Y240782D01*
X472409Y240873D01*
X472277Y240949D01*
X472131Y241025D01*
X472125Y241032D01*
X472097Y241039D01*
X472055Y241060D01*
X471993Y241081D01*
X471923Y241108D01*
X471833Y241143D01*
X471736Y241178D01*
X471625Y241213D01*
X471500Y241247D01*
X471368Y241282D01*
X471229Y241310D01*
X471084Y241344D01*
X470924Y241365D01*
X470764Y241386D01*
X470598Y241393D01*
X470424Y241400D01*
X473756D01*
D02*
G37*
G36*
Y232010D02*
Y229977D01*
X473749Y230025D01*
X473742Y230088D01*
X473735Y230171D01*
X473721Y230261D01*
X473693Y230365D01*
X473665Y230476D01*
X473631Y230594D01*
X473582Y230712D01*
X473520Y230837D01*
X473457Y230962D01*
X473374Y231087D01*
X473277Y231212D01*
X473166Y231330D01*
X473041Y231441D01*
X473034Y231448D01*
X473006Y231462D01*
X472964Y231497D01*
X472902Y231531D01*
X472819Y231573D01*
X472715Y231622D01*
X472590Y231670D01*
X472451Y231726D01*
X472284Y231781D01*
X472097Y231830D01*
X471889Y231878D01*
X471653Y231920D01*
X471396Y231955D01*
X471111Y231982D01*
X470806Y232003D01*
X470473Y232010D01*
X470348D01*
X470299Y232003D01*
X470244D01*
X470181D01*
X470029Y231989D01*
X469862Y231975D01*
X469675Y231955D01*
X469474Y231934D01*
X469258Y231899D01*
X469043Y231857D01*
X468828Y231809D01*
X468613Y231746D01*
X468405Y231677D01*
X468211Y231594D01*
X468030Y231497D01*
X467870Y231385D01*
X467864Y231379D01*
X467843Y231358D01*
X467808Y231330D01*
X467766Y231288D01*
X467718Y231233D01*
X467662Y231170D01*
X467600Y231094D01*
X467537Y231011D01*
X467482Y230914D01*
X467419Y230803D01*
X467364Y230685D01*
X467315Y230553D01*
X467274Y230414D01*
X467239Y230261D01*
X467218Y230102D01*
X467211Y229935D01*
Y229970D01*
Y229935D01*
Y227853D01*
X473756D01*
Y232010D01*
D02*
G37*
G36*
X473637Y227027D02*
D01*
Y226167D01*
X473631D01*
X473624D01*
X473603D01*
X473575D01*
X473506Y226160D01*
X473409Y226153D01*
X473290Y226146D01*
X473145Y226132D01*
X472985Y226111D01*
X472805Y226090D01*
X472604Y226056D01*
X472395Y226021D01*
X472173Y225979D01*
X471937Y225924D01*
X471694Y225868D01*
X471445Y225799D01*
X471188Y225715D01*
X470931Y225625D01*
X470924D01*
X470917Y225618D01*
X470896Y225611D01*
X470868Y225605D01*
X470792Y225570D01*
X470695Y225528D01*
X470577Y225480D01*
X470431Y225417D01*
X470272Y225341D01*
X470098Y225257D01*
X469911Y225160D01*
X469716Y225056D01*
X469508Y224945D01*
X469300Y224820D01*
X469085Y224688D01*
X468870Y224543D01*
X468661Y224397D01*
X468453Y224237D01*
Y227027D01*
X467315D01*
Y222829D01*
X473637D01*
Y227027D01*
D02*
G37*
%LPD*%
G36*
X472555Y247681D02*
X472548Y247570D01*
X472541Y247438D01*
X472534Y247306D01*
X472520Y247188D01*
X472506Y247132D01*
X472499Y247084D01*
Y247077D01*
X472492Y247070D01*
X472485Y247028D01*
X472465Y246973D01*
X472437Y246903D01*
X472395Y246820D01*
X472347Y246730D01*
X472291Y246647D01*
X472229Y246563D01*
X472222Y246556D01*
X472194Y246529D01*
X472145Y246487D01*
X472083Y246445D01*
X471993Y246390D01*
X471889Y246334D01*
X471764Y246279D01*
X471611Y246223D01*
X471604D01*
X471590Y246216D01*
X471569Y246209D01*
X471535Y246202D01*
X471486Y246196D01*
X471438Y246182D01*
X471375Y246168D01*
X471306Y246154D01*
X471222Y246147D01*
X471132Y246133D01*
X471042Y246119D01*
X470938Y246112D01*
X470820Y246105D01*
X470702Y246098D01*
X470570Y246091D01*
X470438D01*
X470431D01*
X470403D01*
X470369D01*
X470313D01*
X470251Y246098D01*
X470181D01*
X470105Y246105D01*
X470015D01*
X469834Y246126D01*
X469647Y246147D01*
X469460Y246182D01*
X469376Y246202D01*
X469300Y246223D01*
X469293D01*
X469279Y246230D01*
X469258Y246237D01*
X469238Y246244D01*
X469161Y246279D01*
X469071Y246320D01*
X468974Y246369D01*
X468870Y246431D01*
X468773Y246508D01*
X468682Y246591D01*
X468675Y246605D01*
X468648Y246633D01*
X468606Y246688D01*
X468557Y246758D01*
X468509Y246841D01*
X468460Y246945D01*
X468412Y247063D01*
X468377Y247195D01*
Y247209D01*
X468370Y247223D01*
Y247250D01*
X468363Y247278D01*
X468356Y247320D01*
X468349Y247368D01*
X468342Y247431D01*
Y247493D01*
X468335Y247570D01*
X468328Y247660D01*
X468322Y247757D01*
Y247868D01*
X468315Y247986D01*
Y248833D01*
X472555D01*
Y247681D01*
D02*
G37*
G36*
X473637Y244759D02*
X470633D01*
X470702Y244766D01*
X470778D01*
X470868Y244773D01*
X470966Y244787D01*
X471181Y244808D01*
X471410Y244842D01*
X471639Y244891D01*
X471861Y244960D01*
X471868D01*
X471889Y244974D01*
X471930Y244988D01*
X471979Y245002D01*
X472034Y245030D01*
X472104Y245057D01*
X472180Y245092D01*
X472263Y245134D01*
X472444Y245231D01*
X472631Y245349D01*
X472819Y245488D01*
X472992Y245647D01*
X472999Y245654D01*
X473006Y245661D01*
X473027Y245682D01*
X473048Y245710D01*
X473075Y245744D01*
X473110Y245779D01*
X473145Y245828D01*
X473179Y245883D01*
X473263Y246015D01*
X473346Y246168D01*
X473429Y246348D01*
X473506Y246549D01*
Y246556D01*
X473513Y246570D01*
X473520Y246591D01*
X473526Y246626D01*
X473533Y246667D01*
X473547Y246723D01*
X473561Y246785D01*
X473568Y246855D01*
X473582Y246931D01*
X473596Y247014D01*
X473610Y247112D01*
X473617Y247216D01*
X473624Y247320D01*
X473631Y247438D01*
X473637Y247563D01*
Y244759D01*
D02*
G37*
G36*
X470764Y230719D02*
X470868D01*
X470979D01*
X471104Y230712D01*
X471361Y230698D01*
X471618Y230678D01*
X471743Y230664D01*
X471854Y230650D01*
X471951Y230636D01*
X472041Y230615D01*
X472048D01*
X472062Y230608D01*
X472083Y230601D01*
X472111Y230594D01*
X472180Y230574D01*
X472263Y230539D01*
X472361Y230497D01*
X472451Y230449D01*
X472534Y230393D01*
X472597Y230331D01*
X472604Y230324D01*
X472617Y230303D01*
X472638Y230261D01*
X472666Y230213D01*
X472694Y230157D01*
X472715Y230088D01*
X472728Y230018D01*
X472735Y229935D01*
Y229900D01*
X472728Y229859D01*
X472715Y229803D01*
X472701Y229741D01*
X472680Y229671D01*
X472645Y229609D01*
X472597Y229539D01*
X472590Y229533D01*
X472569Y229512D01*
X472534Y229477D01*
X472478Y229442D01*
X472409Y229394D01*
X472326Y229352D01*
X472215Y229310D01*
X472090Y229269D01*
X472083D01*
X472069Y229262D01*
X472041Y229255D01*
X472000Y229248D01*
X471944Y229241D01*
X471882Y229227D01*
X471805Y229213D01*
X471715Y229199D01*
X471611Y229192D01*
X471493Y229179D01*
X471361Y229165D01*
X471215Y229158D01*
X471056Y229151D01*
X470882Y229144D01*
X470688Y229137D01*
X470487D01*
X470473D01*
X470438D01*
X470383D01*
X470306D01*
X470216D01*
X470105Y229144D01*
X469994D01*
X469869Y229151D01*
X469612Y229165D01*
X469362Y229186D01*
X469238Y229199D01*
X469127Y229213D01*
X469029Y229234D01*
X468939Y229255D01*
X468932D01*
X468918Y229262D01*
X468897Y229269D01*
X468870Y229276D01*
X468800Y229297D01*
X468710Y229331D01*
X468613Y229373D01*
X468523Y229421D01*
X468439Y229477D01*
X468377Y229539D01*
X468370Y229546D01*
X468356Y229567D01*
X468328Y229609D01*
X468301Y229650D01*
X468280Y229713D01*
X468252Y229782D01*
X468238Y229852D01*
X468231Y229935D01*
Y229970D01*
X468238Y230011D01*
X468252Y230067D01*
X468266Y230129D01*
X468294Y230199D01*
X468328Y230261D01*
X468377Y230331D01*
X468384Y230338D01*
X468405Y230358D01*
X468439Y230393D01*
X468495Y230428D01*
X468564Y230469D01*
X468648Y230518D01*
X468759Y230560D01*
X468884Y230601D01*
X468891D01*
X468904Y230608D01*
X468932Y230615D01*
X468974Y230622D01*
X469029Y230629D01*
X469092Y230643D01*
X469175Y230650D01*
X469265Y230664D01*
X469369Y230678D01*
X469487Y230685D01*
X469619Y230698D01*
X469765Y230705D01*
X469918Y230712D01*
X470098Y230719D01*
X470286Y230726D01*
X470487D01*
X470501D01*
X470535D01*
X470591D01*
X470667D01*
X470764Y230719D01*
D02*
G37*
G36*
X473756Y227853D02*
X470612D01*
X470660Y227860D01*
X470716D01*
X470785D01*
X470931Y227874D01*
X471104Y227888D01*
X471292Y227909D01*
X471493Y227929D01*
X471708Y227964D01*
X471923Y228006D01*
X472145Y228061D01*
X472361Y228117D01*
X472562Y228193D01*
X472763Y228276D01*
X472943Y228374D01*
X473103Y228485D01*
X473110Y228491D01*
X473131Y228505D01*
X473166Y228540D01*
X473207Y228582D01*
X473256Y228630D01*
X473311Y228700D01*
X473367Y228776D01*
X473429Y228859D01*
X473492Y228957D01*
X473547Y229067D01*
X473603Y229186D01*
X473651Y229317D01*
X473693Y229456D01*
X473728Y229609D01*
X473749Y229768D01*
X473756Y229935D01*
Y227853D01*
D02*
G37*
G36*
X467218Y229845D02*
Y229782D01*
X467232Y229706D01*
X467246Y229616D01*
X467267Y229512D01*
X467294Y229401D01*
X467329Y229290D01*
X467371Y229172D01*
X467426Y229047D01*
X467489Y228929D01*
X467565Y228811D01*
X467655Y228693D01*
X467759Y228582D01*
X467877Y228478D01*
X467884Y228471D01*
X467912Y228450D01*
X467961Y228422D01*
X468030Y228380D01*
X468113Y228332D01*
X468224Y228276D01*
X468349Y228221D01*
X468502Y228165D01*
X468669Y228110D01*
X468863Y228047D01*
X469078Y227999D01*
X469314Y227950D01*
X469571Y227909D01*
X469855Y227881D01*
X470161Y227860D01*
X470487Y227853D01*
X467211D01*
Y229893D01*
X467218Y229845D01*
D02*
G37*
G36*
X473637Y222829D02*
X468203D01*
X468211Y222835D01*
X468224Y222849D01*
X468259Y222877D01*
X468301Y222919D01*
X468349Y222967D01*
X468419Y223023D01*
X468495Y223085D01*
X468578Y223155D01*
X468675Y223231D01*
X468786Y223314D01*
X468911Y223405D01*
X469043Y223495D01*
X469182Y223592D01*
X469335Y223689D01*
X469501Y223786D01*
X469675Y223890D01*
X469689Y223897D01*
X469716Y223911D01*
X469772Y223939D01*
X469841Y223980D01*
X469932Y224022D01*
X470036Y224071D01*
X470154Y224133D01*
X470286Y224196D01*
X470438Y224258D01*
X470591Y224327D01*
X470764Y224390D01*
X470938Y224459D01*
X471125Y224529D01*
X471320Y224591D01*
X471715Y224709D01*
X471729D01*
X471764Y224723D01*
X471819Y224737D01*
X471896Y224751D01*
X471993Y224772D01*
X472097Y224799D01*
X472222Y224820D01*
X472361Y224848D01*
X472506Y224876D01*
X472659Y224897D01*
X472978Y224938D01*
X473311Y224973D01*
X473637Y224980D01*
Y222829D01*
D02*
G37*
%LPC*%
G36*
Y290281D02*
X467232D01*
Y287790D01*
X467239Y287720D01*
Y287561D01*
X467246Y287470D01*
X467260Y287276D01*
X467287Y287075D01*
X467315Y286880D01*
X467336Y286790D01*
X467357Y286707D01*
Y286700D01*
X467364Y286679D01*
X467378Y286651D01*
X467391Y286610D01*
X467405Y286561D01*
X467433Y286506D01*
X467496Y286374D01*
X467572Y286221D01*
X467676Y286062D01*
X467801Y285902D01*
X467947Y285742D01*
X467954Y285735D01*
X467968Y285721D01*
X467988Y285701D01*
X468023Y285673D01*
X468065Y285645D01*
X468113Y285603D01*
X468169Y285562D01*
X468238Y285513D01*
X468308Y285465D01*
X468384Y285416D01*
X468564Y285312D01*
X468766Y285215D01*
X468988Y285132D01*
X468995D01*
X469016Y285125D01*
X469050Y285111D01*
X469099Y285097D01*
X469154Y285083D01*
X469231Y285062D01*
X469314Y285041D01*
X469404Y285020D01*
X469508Y285007D01*
X469626Y284986D01*
X469751Y284965D01*
X469883Y284951D01*
X470029Y284937D01*
X470175Y284923D01*
X470334Y284916D01*
X467232D01*
X473637D01*
Y290281D01*
D02*
G37*
G36*
Y283861D02*
X467232D01*
Y282571D01*
X473637D01*
Y283861D01*
D02*
G37*
G36*
X473756Y281557D02*
X470327D01*
X470258Y281551D01*
X470167Y281543D01*
X470063Y281537D01*
X469952Y281523D01*
X469828Y281502D01*
X469696Y281481D01*
X469550Y281453D01*
X469404Y281419D01*
X469251Y281384D01*
X469099Y281335D01*
X468946Y281280D01*
X468793Y281217D01*
X468648Y281141D01*
X468641Y281134D01*
X468613Y281120D01*
X468571Y281099D01*
X468516Y281065D01*
X468453Y281016D01*
X468377Y280967D01*
X468294Y280905D01*
X468203Y280829D01*
X468106Y280752D01*
X468009Y280655D01*
X467912Y280558D01*
X467808Y280447D01*
X467711Y280329D01*
X467621Y280197D01*
X467530Y280058D01*
X467447Y279913D01*
X467440Y279906D01*
X467433Y279885D01*
X467419Y279850D01*
X467399Y279802D01*
X467371Y279739D01*
X467343Y279670D01*
X467315Y279587D01*
X467287Y279489D01*
X467260Y279385D01*
X467232Y279267D01*
X467204Y279142D01*
X467176Y279004D01*
X467156Y278858D01*
X467142Y278705D01*
X467128Y278545D01*
D01*
Y278261D01*
X467135Y278185D01*
X467142Y278081D01*
X467156Y277962D01*
X467169Y277838D01*
X467190Y277699D01*
X467218Y277553D01*
X467253Y277400D01*
X467287Y277248D01*
X467336Y277088D01*
X467399Y276935D01*
X467461Y276790D01*
X467537Y276651D01*
X467627Y276519D01*
X467634Y276512D01*
X467648Y276491D01*
X467676Y276456D01*
X467718Y276408D01*
X467773Y276359D01*
X467829Y276297D01*
X467905Y276227D01*
X467988Y276158D01*
X468079Y276082D01*
X468183Y276012D01*
X468301Y275936D01*
X468419Y275867D01*
X468550Y275804D01*
X468696Y275742D01*
X468849Y275693D01*
X469009Y275652D01*
X469251Y276935D01*
X469244D01*
X469231Y276942D01*
X469203Y276949D01*
X469175Y276963D01*
X469134Y276977D01*
X469085Y276998D01*
X468981Y277053D01*
X468863Y277123D01*
X468738Y277213D01*
X468620Y277317D01*
X468509Y277449D01*
Y277456D01*
X468495Y277463D01*
X468481Y277484D01*
X468467Y277518D01*
X468446Y277553D01*
X468419Y277595D01*
X468398Y277650D01*
X468370Y277706D01*
X468322Y277838D01*
X468273Y277997D01*
X468245Y278178D01*
X468231Y278379D01*
Y278462D01*
X468238Y278518D01*
X468245Y278587D01*
X468259Y278670D01*
X468280Y278767D01*
X468301Y278865D01*
X468328Y278969D01*
X468363Y279080D01*
X468405Y279191D01*
X468460Y279302D01*
X468523Y279413D01*
X468592Y279524D01*
X468675Y279628D01*
X468773Y279725D01*
X468780Y279732D01*
X468800Y279746D01*
X468828Y279774D01*
X468877Y279802D01*
X468932Y279843D01*
X469002Y279885D01*
X469078Y279926D01*
X469175Y279975D01*
X469279Y280024D01*
X469397Y280065D01*
X469529Y280107D01*
X469675Y280149D01*
X469828Y280176D01*
X469994Y280204D01*
X470175Y280218D01*
X470369Y280225D01*
X470383D01*
X470417D01*
X470480Y280218D01*
X470556D01*
X470653Y280211D01*
X470757Y280197D01*
X470882Y280183D01*
X471014Y280163D01*
X471146Y280135D01*
X471292Y280100D01*
X471431Y280058D01*
X471576Y280010D01*
X471715Y279954D01*
X471847Y279885D01*
X471972Y279808D01*
X472083Y279718D01*
X472090Y279711D01*
X472104Y279697D01*
X472139Y279663D01*
X472173Y279628D01*
X472215Y279573D01*
X472263Y279517D01*
X472312Y279441D01*
X472367Y279364D01*
X472423Y279274D01*
X472472Y279170D01*
X472520Y279066D01*
X472562Y278948D01*
X472597Y278816D01*
X472624Y278684D01*
X472645Y278545D01*
X472652Y278393D01*
Y278323D01*
X472645Y278289D01*
Y278240D01*
X472631Y278136D01*
X472610Y278011D01*
X472583Y277879D01*
X472548Y277733D01*
X472492Y277581D01*
Y277574D01*
X472485Y277560D01*
X472478Y277539D01*
X472465Y277511D01*
X472430Y277435D01*
X472381Y277338D01*
X472326Y277227D01*
X472263Y277109D01*
X472194Y276991D01*
X472111Y276873D01*
X471292D01*
Y278351D01*
X470209D01*
Y275568D01*
X467128D01*
X472770D01*
X472777Y275575D01*
X472784Y275589D01*
X472805Y275610D01*
X472832Y275644D01*
X472867Y275686D01*
X472909Y275735D01*
X472951Y275797D01*
X472999Y275867D01*
X473055Y275950D01*
X473110Y276033D01*
X473166Y276130D01*
X473221Y276241D01*
X473284Y276352D01*
X473339Y276477D01*
X473402Y276609D01*
X473457Y276748D01*
Y276755D01*
X473471Y276783D01*
X473485Y276824D01*
X473506Y276880D01*
X473526Y276949D01*
X473554Y277032D01*
X473575Y277130D01*
X473603Y277234D01*
X473631Y277345D01*
X473658Y277470D01*
X473686Y277595D01*
X473707Y277733D01*
X473742Y278018D01*
X473749Y278164D01*
X473756Y278309D01*
Y276012D01*
Y278407D01*
X473749Y278476D01*
X473742Y278566D01*
X473735Y278670D01*
X473721Y278781D01*
X473700Y278906D01*
X473679Y279038D01*
X473651Y279177D01*
X473617Y279323D01*
X473582Y279475D01*
X473533Y279628D01*
X473478Y279774D01*
X473415Y279920D01*
X473339Y280065D01*
X473332Y280072D01*
X473318Y280100D01*
X473298Y280135D01*
X473263Y280190D01*
X473214Y280246D01*
X473166Y280322D01*
X473103Y280398D01*
X473027Y280482D01*
X472951Y280572D01*
X472860Y280662D01*
X472756Y280759D01*
X472652Y280850D01*
X472534Y280940D01*
X472409Y281030D01*
X472277Y281106D01*
X472131Y281183D01*
X472125Y281190D01*
X472097Y281196D01*
X472055Y281217D01*
X471993Y281238D01*
X471923Y281266D01*
X471833Y281301D01*
X471736Y281335D01*
X471625Y281370D01*
X471500Y281405D01*
X471368Y281439D01*
X471229Y281467D01*
X471084Y281502D01*
X470924Y281523D01*
X470764Y281543D01*
X470598Y281551D01*
X470424Y281557D01*
X473756D01*
D02*
G37*
G36*
Y272168D02*
Y270134D01*
X473749Y270183D01*
X473742Y270245D01*
X473735Y270328D01*
X473721Y270419D01*
X473693Y270523D01*
X473665Y270634D01*
X473631Y270752D01*
X473582Y270870D01*
X473520Y270995D01*
X473457Y271120D01*
X473374Y271245D01*
X473277Y271370D01*
X473166Y271487D01*
X473041Y271599D01*
X473034Y271605D01*
X473006Y271619D01*
X472964Y271654D01*
X472902Y271689D01*
X472819Y271730D01*
X472715Y271779D01*
X472590Y271828D01*
X472451Y271883D01*
X472284Y271939D01*
X472097Y271987D01*
X471889Y272036D01*
X471653Y272077D01*
X471396Y272112D01*
X471111Y272140D01*
X470806Y272161D01*
X470473Y272168D01*
X470348D01*
X470299Y272161D01*
X470244D01*
X470181D01*
X470029Y272147D01*
X469862Y272133D01*
X469675Y272112D01*
X469474Y272091D01*
X469258Y272057D01*
X469043Y272015D01*
X468828Y271966D01*
X468613Y271904D01*
X468405Y271834D01*
X468211Y271751D01*
X468030Y271654D01*
X467870Y271543D01*
X467864Y271536D01*
X467843Y271515D01*
X467808Y271487D01*
X467766Y271446D01*
X467718Y271390D01*
X467662Y271328D01*
X467600Y271252D01*
X467537Y271168D01*
X467482Y271071D01*
X467419Y270960D01*
X467364Y270842D01*
X467315Y270710D01*
X467274Y270571D01*
X467239Y270419D01*
X467218Y270259D01*
X467211Y270093D01*
Y270127D01*
Y270093D01*
Y268010D01*
X473756D01*
Y272168D01*
D02*
G37*
G36*
X472000Y267171D02*
D01*
X471868Y265949D01*
X471875D01*
X471889D01*
X471910Y265942D01*
X471937Y265935D01*
X472014Y265922D01*
X472104Y265894D01*
X472215Y265852D01*
X472319Y265797D01*
X472430Y265727D01*
X472527Y265644D01*
X472534Y265630D01*
X472562Y265595D01*
X472604Y265547D01*
X472645Y265471D01*
X472694Y265387D01*
X472728Y265283D01*
X472756Y265172D01*
X472770Y265047D01*
Y265012D01*
X472763Y264985D01*
X472756Y264908D01*
X472728Y264818D01*
X472694Y264714D01*
X472638Y264610D01*
X472562Y264499D01*
X472513Y264443D01*
X472458Y264395D01*
X472451D01*
X472444Y264381D01*
X472423Y264367D01*
X472402Y264353D01*
X472367Y264332D01*
X472326Y264312D01*
X472277Y264284D01*
X472222Y264256D01*
X472159Y264235D01*
X472090Y264207D01*
X472014Y264187D01*
X471930Y264166D01*
X471833Y264152D01*
X471736Y264138D01*
X471625Y264124D01*
X471514D01*
X471507D01*
X471486D01*
X471458D01*
X471417Y264131D01*
X471368D01*
X471313Y264138D01*
X471181Y264159D01*
X471035Y264187D01*
X470889Y264235D01*
X470751Y264305D01*
X470626Y264395D01*
X470619D01*
X470612Y264409D01*
X470577Y264443D01*
X470528Y264499D01*
X470473Y264582D01*
X470424Y264679D01*
X470376Y264797D01*
X470341Y264929D01*
X470327Y265005D01*
Y265130D01*
X470334Y265172D01*
X470341Y265221D01*
X470355Y265269D01*
X470383Y265401D01*
X470438Y265547D01*
X470480Y265630D01*
X470521Y265706D01*
X470577Y265790D01*
X470640Y265873D01*
X470709Y265956D01*
X470792Y266033D01*
X470653Y267025D01*
X467315Y266393D01*
Y267171D01*
Y263146D01*
X468467D01*
Y265471D01*
X469557Y265665D01*
Y265658D01*
X469550Y265644D01*
X469536Y265623D01*
X469522Y265595D01*
X469508Y265554D01*
X469487Y265512D01*
X469453Y265408D01*
X469411Y265276D01*
X469383Y265137D01*
X469356Y264985D01*
X469349Y264825D01*
Y264790D01*
X469356Y264749D01*
Y264686D01*
X469369Y264617D01*
X469383Y264534D01*
X469397Y264443D01*
X469425Y264346D01*
X469453Y264235D01*
X469494Y264124D01*
X469543Y264013D01*
X469598Y263895D01*
X469668Y263777D01*
X469751Y263659D01*
X469841Y263548D01*
X469945Y263437D01*
X469952Y263430D01*
X469973Y263409D01*
X470008Y263382D01*
X470056Y263347D01*
X470112Y263305D01*
X470181Y263257D01*
X470265Y263201D01*
X470362Y263146D01*
X470466Y263097D01*
X470584Y263041D01*
X470716Y262993D01*
X470848Y262951D01*
X471000Y262917D01*
X471153Y262889D01*
X471320Y262868D01*
X471493Y262861D01*
X467315D01*
D01*
X473756D01*
Y265144D01*
X473749Y265207D01*
X473742Y265283D01*
X473728Y265373D01*
X473714Y265471D01*
X473693Y265575D01*
X473637Y265804D01*
X473603Y265929D01*
X473554Y266047D01*
X473499Y266171D01*
X473436Y266289D01*
X473367Y266401D01*
X473284Y266512D01*
X473277Y266518D01*
X473263Y266532D01*
X473235Y266560D01*
X473193Y266602D01*
X473145Y266643D01*
X473089Y266692D01*
X473020Y266747D01*
X472943Y266803D01*
X472853Y266859D01*
X472756Y266914D01*
X472652Y266969D01*
X472541Y267025D01*
X472416Y267074D01*
X472284Y267115D01*
X472145Y267143D01*
X472000Y267171D01*
D02*
G37*
%LPD*%
G36*
X472555Y287838D02*
X472548Y287727D01*
X472541Y287595D01*
X472534Y287463D01*
X472520Y287345D01*
X472506Y287290D01*
X472499Y287241D01*
Y287234D01*
X472492Y287227D01*
X472485Y287186D01*
X472465Y287130D01*
X472437Y287061D01*
X472395Y286978D01*
X472347Y286887D01*
X472291Y286804D01*
X472229Y286721D01*
X472222Y286714D01*
X472194Y286686D01*
X472145Y286644D01*
X472083Y286603D01*
X471993Y286547D01*
X471889Y286492D01*
X471764Y286436D01*
X471611Y286381D01*
X471604D01*
X471590Y286374D01*
X471569Y286367D01*
X471535Y286360D01*
X471486Y286353D01*
X471438Y286339D01*
X471375Y286325D01*
X471306Y286311D01*
X471222Y286304D01*
X471132Y286291D01*
X471042Y286277D01*
X470938Y286270D01*
X470820Y286263D01*
X470702Y286256D01*
X470570Y286249D01*
X470438D01*
X470431D01*
X470403D01*
X470369D01*
X470313D01*
X470251Y286256D01*
X470181D01*
X470105Y286263D01*
X470015D01*
X469834Y286284D01*
X469647Y286304D01*
X469460Y286339D01*
X469376Y286360D01*
X469300Y286381D01*
X469293D01*
X469279Y286388D01*
X469258Y286395D01*
X469238Y286402D01*
X469161Y286436D01*
X469071Y286478D01*
X468974Y286526D01*
X468870Y286589D01*
X468773Y286665D01*
X468682Y286749D01*
X468675Y286762D01*
X468648Y286790D01*
X468606Y286846D01*
X468557Y286915D01*
X468509Y286998D01*
X468460Y287103D01*
X468412Y287220D01*
X468377Y287352D01*
Y287366D01*
X468370Y287380D01*
Y287408D01*
X468363Y287436D01*
X468356Y287477D01*
X468349Y287526D01*
X468342Y287588D01*
Y287651D01*
X468335Y287727D01*
X468328Y287817D01*
X468322Y287914D01*
Y288025D01*
X468315Y288143D01*
Y288990D01*
X472555D01*
Y287838D01*
D02*
G37*
G36*
X473637Y284916D02*
X470633D01*
X470702Y284923D01*
X470778D01*
X470868Y284930D01*
X470966Y284944D01*
X471181Y284965D01*
X471410Y285000D01*
X471639Y285048D01*
X471861Y285118D01*
X471868D01*
X471889Y285132D01*
X471930Y285145D01*
X471979Y285159D01*
X472034Y285187D01*
X472104Y285215D01*
X472180Y285249D01*
X472263Y285291D01*
X472444Y285388D01*
X472631Y285506D01*
X472819Y285645D01*
X472992Y285805D01*
X472999Y285812D01*
X473006Y285819D01*
X473027Y285839D01*
X473048Y285867D01*
X473075Y285902D01*
X473110Y285936D01*
X473145Y285985D01*
X473179Y286041D01*
X473263Y286173D01*
X473346Y286325D01*
X473429Y286506D01*
X473506Y286707D01*
Y286714D01*
X473513Y286728D01*
X473520Y286749D01*
X473526Y286783D01*
X473533Y286825D01*
X473547Y286880D01*
X473561Y286943D01*
X473568Y287012D01*
X473582Y287089D01*
X473596Y287172D01*
X473610Y287269D01*
X473617Y287373D01*
X473624Y287477D01*
X473631Y287595D01*
X473637Y287720D01*
Y284916D01*
D02*
G37*
G36*
X470764Y270877D02*
X470868D01*
X470979D01*
X471104Y270870D01*
X471361Y270856D01*
X471618Y270835D01*
X471743Y270821D01*
X471854Y270807D01*
X471951Y270794D01*
X472041Y270773D01*
X472048D01*
X472062Y270766D01*
X472083Y270759D01*
X472111Y270752D01*
X472180Y270731D01*
X472263Y270696D01*
X472361Y270655D01*
X472451Y270606D01*
X472534Y270551D01*
X472597Y270488D01*
X472604Y270481D01*
X472617Y270460D01*
X472638Y270419D01*
X472666Y270370D01*
X472694Y270315D01*
X472715Y270245D01*
X472728Y270176D01*
X472735Y270093D01*
Y270058D01*
X472728Y270016D01*
X472715Y269961D01*
X472701Y269898D01*
X472680Y269829D01*
X472645Y269766D01*
X472597Y269697D01*
X472590Y269690D01*
X472569Y269669D01*
X472534Y269635D01*
X472478Y269600D01*
X472409Y269551D01*
X472326Y269510D01*
X472215Y269468D01*
X472090Y269426D01*
X472083D01*
X472069Y269419D01*
X472041Y269412D01*
X472000Y269406D01*
X471944Y269398D01*
X471882Y269385D01*
X471805Y269371D01*
X471715Y269357D01*
X471611Y269350D01*
X471493Y269336D01*
X471361Y269322D01*
X471215Y269315D01*
X471056Y269308D01*
X470882Y269301D01*
X470688Y269294D01*
X470487D01*
X470473D01*
X470438D01*
X470383D01*
X470306D01*
X470216D01*
X470105Y269301D01*
X469994D01*
X469869Y269308D01*
X469612Y269322D01*
X469362Y269343D01*
X469238Y269357D01*
X469127Y269371D01*
X469029Y269392D01*
X468939Y269412D01*
X468932D01*
X468918Y269419D01*
X468897Y269426D01*
X468870Y269433D01*
X468800Y269454D01*
X468710Y269489D01*
X468613Y269530D01*
X468523Y269579D01*
X468439Y269635D01*
X468377Y269697D01*
X468370Y269704D01*
X468356Y269725D01*
X468328Y269766D01*
X468301Y269808D01*
X468280Y269870D01*
X468252Y269940D01*
X468238Y270009D01*
X468231Y270093D01*
Y270127D01*
X468238Y270169D01*
X468252Y270224D01*
X468266Y270287D01*
X468294Y270356D01*
X468328Y270419D01*
X468377Y270488D01*
X468384Y270495D01*
X468405Y270516D01*
X468439Y270551D01*
X468495Y270585D01*
X468564Y270627D01*
X468648Y270675D01*
X468759Y270717D01*
X468884Y270759D01*
X468891D01*
X468904Y270766D01*
X468932Y270773D01*
X468974Y270780D01*
X469029Y270786D01*
X469092Y270800D01*
X469175Y270807D01*
X469265Y270821D01*
X469369Y270835D01*
X469487Y270842D01*
X469619Y270856D01*
X469765Y270863D01*
X469918Y270870D01*
X470098Y270877D01*
X470286Y270884D01*
X470487D01*
X470501D01*
X470535D01*
X470591D01*
X470667D01*
X470764Y270877D01*
D02*
G37*
G36*
X473756Y268010D02*
X470612D01*
X470660Y268018D01*
X470716D01*
X470785D01*
X470931Y268031D01*
X471104Y268045D01*
X471292Y268066D01*
X471493Y268087D01*
X471708Y268122D01*
X471923Y268163D01*
X472145Y268219D01*
X472361Y268274D01*
X472562Y268351D01*
X472763Y268434D01*
X472943Y268531D01*
X473103Y268642D01*
X473110Y268649D01*
X473131Y268663D01*
X473166Y268698D01*
X473207Y268739D01*
X473256Y268788D01*
X473311Y268857D01*
X473367Y268934D01*
X473429Y269017D01*
X473492Y269114D01*
X473547Y269225D01*
X473603Y269343D01*
X473651Y269475D01*
X473693Y269614D01*
X473728Y269766D01*
X473749Y269926D01*
X473756Y270093D01*
Y268010D01*
D02*
G37*
G36*
X467218Y270002D02*
Y269940D01*
X467232Y269864D01*
X467246Y269773D01*
X467267Y269669D01*
X467294Y269558D01*
X467329Y269447D01*
X467371Y269329D01*
X467426Y269204D01*
X467489Y269086D01*
X467565Y268968D01*
X467655Y268850D01*
X467759Y268739D01*
X467877Y268635D01*
X467884Y268628D01*
X467912Y268607D01*
X467961Y268580D01*
X468030Y268538D01*
X468113Y268489D01*
X468224Y268434D01*
X468349Y268378D01*
X468502Y268323D01*
X468669Y268267D01*
X468863Y268205D01*
X469078Y268156D01*
X469314Y268108D01*
X469571Y268066D01*
X469855Y268038D01*
X470161Y268018D01*
X470487Y268010D01*
X467211D01*
Y270051D01*
X467218Y270002D01*
D02*
G37*
G36*
X473756Y262861D02*
X471569D01*
X471625Y262868D01*
X471694Y262875D01*
X471778Y262889D01*
X471868Y262903D01*
X471965Y262917D01*
X472076Y262944D01*
X472187Y262972D01*
X472305Y263014D01*
X472423Y263055D01*
X472548Y263111D01*
X472666Y263173D01*
X472791Y263243D01*
X472909Y263326D01*
X472916Y263333D01*
X472943Y263354D01*
X472985Y263388D01*
X473041Y263444D01*
X473103Y263507D01*
X473179Y263583D01*
X473256Y263673D01*
X473332Y263777D01*
X473409Y263895D01*
X473485Y264027D01*
X473561Y264166D01*
X473624Y264318D01*
X473679Y264485D01*
X473721Y264666D01*
X473749Y264860D01*
X473756Y265061D01*
Y262861D01*
D02*
G37*
%LPC*%
G36*
X473637Y329651D02*
X467232D01*
Y327160D01*
X467239Y327090D01*
Y326931D01*
X467246Y326840D01*
X467260Y326646D01*
X467287Y326445D01*
X467315Y326251D01*
X467336Y326160D01*
X467357Y326077D01*
Y326070D01*
X467364Y326049D01*
X467378Y326022D01*
X467391Y325980D01*
X467405Y325931D01*
X467433Y325876D01*
X467496Y325744D01*
X467572Y325591D01*
X467676Y325432D01*
X467801Y325272D01*
X467947Y325112D01*
X467954Y325105D01*
X467968Y325092D01*
X467988Y325071D01*
X468023Y325043D01*
X468065Y325015D01*
X468113Y324974D01*
X468169Y324932D01*
X468238Y324883D01*
X468308Y324835D01*
X468384Y324786D01*
X468564Y324682D01*
X468766Y324585D01*
X468988Y324502D01*
X468995D01*
X469016Y324495D01*
X469050Y324481D01*
X469099Y324467D01*
X469154Y324453D01*
X469231Y324432D01*
X469314Y324411D01*
X469404Y324391D01*
X469508Y324377D01*
X469626Y324356D01*
X469751Y324335D01*
X469883Y324321D01*
X470029Y324307D01*
X470175Y324293D01*
X470334Y324287D01*
X467232D01*
X473637D01*
Y329651D01*
D02*
G37*
G36*
Y323232D02*
X467232D01*
Y321941D01*
X473637D01*
Y323232D01*
D02*
G37*
G36*
X473756Y320928D02*
X470327D01*
X470258Y320921D01*
X470167Y320914D01*
X470063Y320907D01*
X469952Y320893D01*
X469828Y320872D01*
X469696Y320851D01*
X469550Y320823D01*
X469404Y320789D01*
X469251Y320754D01*
X469099Y320705D01*
X468946Y320650D01*
X468793Y320587D01*
X468648Y320511D01*
X468641Y320504D01*
X468613Y320490D01*
X468571Y320469D01*
X468516Y320435D01*
X468453Y320386D01*
X468377Y320338D01*
X468294Y320275D01*
X468203Y320199D01*
X468106Y320122D01*
X468009Y320025D01*
X467912Y319928D01*
X467808Y319817D01*
X467711Y319699D01*
X467621Y319567D01*
X467530Y319428D01*
X467447Y319283D01*
X467440Y319276D01*
X467433Y319255D01*
X467419Y319220D01*
X467399Y319172D01*
X467371Y319109D01*
X467343Y319040D01*
X467315Y318956D01*
X467287Y318859D01*
X467260Y318755D01*
X467232Y318637D01*
X467204Y318512D01*
X467176Y318374D01*
X467156Y318228D01*
X467142Y318075D01*
X467128Y317916D01*
D01*
Y317631D01*
X467135Y317555D01*
X467142Y317451D01*
X467156Y317333D01*
X467169Y317208D01*
X467190Y317069D01*
X467218Y316923D01*
X467253Y316770D01*
X467287Y316618D01*
X467336Y316458D01*
X467399Y316305D01*
X467461Y316160D01*
X467537Y316021D01*
X467627Y315889D01*
X467634Y315882D01*
X467648Y315861D01*
X467676Y315827D01*
X467718Y315778D01*
X467773Y315729D01*
X467829Y315667D01*
X467905Y315598D01*
X467988Y315528D01*
X468079Y315452D01*
X468183Y315382D01*
X468301Y315306D01*
X468419Y315237D01*
X468550Y315174D01*
X468696Y315112D01*
X468849Y315063D01*
X469009Y315021D01*
X469251Y316305D01*
X469244D01*
X469231Y316312D01*
X469203Y316319D01*
X469175Y316333D01*
X469134Y316347D01*
X469085Y316368D01*
X468981Y316423D01*
X468863Y316493D01*
X468738Y316583D01*
X468620Y316687D01*
X468509Y316819D01*
Y316826D01*
X468495Y316833D01*
X468481Y316854D01*
X468467Y316888D01*
X468446Y316923D01*
X468419Y316965D01*
X468398Y317020D01*
X468370Y317076D01*
X468322Y317208D01*
X468273Y317367D01*
X468245Y317548D01*
X468231Y317749D01*
Y317832D01*
X468238Y317888D01*
X468245Y317957D01*
X468259Y318040D01*
X468280Y318138D01*
X468301Y318235D01*
X468328Y318339D01*
X468363Y318450D01*
X468405Y318561D01*
X468460Y318672D01*
X468523Y318783D01*
X468592Y318894D01*
X468675Y318998D01*
X468773Y319095D01*
X468780Y319102D01*
X468800Y319116D01*
X468828Y319144D01*
X468877Y319172D01*
X468932Y319213D01*
X469002Y319255D01*
X469078Y319297D01*
X469175Y319345D01*
X469279Y319394D01*
X469397Y319435D01*
X469529Y319477D01*
X469675Y319519D01*
X469828Y319546D01*
X469994Y319574D01*
X470175Y319588D01*
X470369Y319595D01*
X470383D01*
X470417D01*
X470480Y319588D01*
X470556D01*
X470653Y319581D01*
X470757Y319567D01*
X470882Y319553D01*
X471014Y319532D01*
X471146Y319505D01*
X471292Y319470D01*
X471431Y319428D01*
X471576Y319380D01*
X471715Y319324D01*
X471847Y319255D01*
X471972Y319179D01*
X472083Y319088D01*
X472090Y319081D01*
X472104Y319068D01*
X472139Y319033D01*
X472173Y318998D01*
X472215Y318943D01*
X472263Y318887D01*
X472312Y318811D01*
X472367Y318735D01*
X472423Y318644D01*
X472472Y318540D01*
X472520Y318436D01*
X472562Y318318D01*
X472597Y318186D01*
X472624Y318054D01*
X472645Y317916D01*
X472652Y317763D01*
Y317693D01*
X472645Y317659D01*
Y317610D01*
X472631Y317506D01*
X472610Y317381D01*
X472583Y317249D01*
X472548Y317104D01*
X472492Y316951D01*
Y316944D01*
X472485Y316930D01*
X472478Y316909D01*
X472465Y316881D01*
X472430Y316805D01*
X472381Y316708D01*
X472326Y316597D01*
X472263Y316479D01*
X472194Y316361D01*
X472111Y316243D01*
X471292D01*
Y317721D01*
X470209D01*
Y314938D01*
X467128D01*
X472770D01*
X472777Y314945D01*
X472784Y314959D01*
X472805Y314980D01*
X472832Y315015D01*
X472867Y315056D01*
X472909Y315105D01*
X472951Y315167D01*
X472999Y315237D01*
X473055Y315320D01*
X473110Y315403D01*
X473166Y315500D01*
X473221Y315612D01*
X473284Y315722D01*
X473339Y315847D01*
X473402Y315979D01*
X473457Y316118D01*
Y316125D01*
X473471Y316153D01*
X473485Y316194D01*
X473506Y316250D01*
X473526Y316319D01*
X473554Y316403D01*
X473575Y316500D01*
X473603Y316604D01*
X473631Y316715D01*
X473658Y316840D01*
X473686Y316965D01*
X473707Y317104D01*
X473742Y317388D01*
X473749Y317534D01*
X473756Y317680D01*
Y315382D01*
Y317777D01*
X473749Y317846D01*
X473742Y317936D01*
X473735Y318040D01*
X473721Y318151D01*
X473700Y318276D01*
X473679Y318408D01*
X473651Y318547D01*
X473617Y318693D01*
X473582Y318846D01*
X473533Y318998D01*
X473478Y319144D01*
X473415Y319290D01*
X473339Y319435D01*
X473332Y319442D01*
X473318Y319470D01*
X473298Y319505D01*
X473263Y319560D01*
X473214Y319616D01*
X473166Y319692D01*
X473103Y319769D01*
X473027Y319852D01*
X472951Y319942D01*
X472860Y320032D01*
X472756Y320129D01*
X472652Y320220D01*
X472534Y320310D01*
X472409Y320400D01*
X472277Y320476D01*
X472131Y320553D01*
X472125Y320560D01*
X472097Y320567D01*
X472055Y320587D01*
X471993Y320608D01*
X471923Y320636D01*
X471833Y320671D01*
X471736Y320705D01*
X471625Y320740D01*
X471500Y320775D01*
X471368Y320810D01*
X471229Y320837D01*
X471084Y320872D01*
X470924Y320893D01*
X470764Y320914D01*
X470598Y320921D01*
X470424Y320928D01*
X473756D01*
D02*
G37*
G36*
Y311538D02*
X467211D01*
D01*
X470348D01*
X470299Y311531D01*
X470244D01*
X470181D01*
X470029Y311517D01*
X469862Y311503D01*
X469675Y311482D01*
X469474Y311461D01*
X469258Y311427D01*
X469043Y311385D01*
X468828Y311336D01*
X468613Y311274D01*
X468405Y311205D01*
X468211Y311121D01*
X468030Y311024D01*
X467870Y310913D01*
X467864Y310906D01*
X467843Y310885D01*
X467808Y310858D01*
X467766Y310816D01*
X467718Y310760D01*
X467662Y310698D01*
X467600Y310622D01*
X467537Y310538D01*
X467482Y310441D01*
X467419Y310330D01*
X467364Y310212D01*
X467315Y310080D01*
X467274Y309942D01*
X467239Y309789D01*
X467218Y309629D01*
X467211Y309463D01*
Y309497D01*
Y309463D01*
Y307381D01*
Y309421D01*
X467218Y309372D01*
Y309310D01*
X467232Y309234D01*
X467246Y309143D01*
X467267Y309039D01*
X467294Y308928D01*
X467329Y308817D01*
X467371Y308699D01*
X467426Y308574D01*
X467489Y308456D01*
X467565Y308338D01*
X467655Y308220D01*
X467759Y308109D01*
X467877Y308005D01*
X467884Y307998D01*
X467912Y307977D01*
X467961Y307950D01*
X468030Y307908D01*
X468113Y307859D01*
X468224Y307804D01*
X468349Y307748D01*
X468502Y307693D01*
X468669Y307637D01*
X468863Y307575D01*
X469078Y307526D01*
X469314Y307478D01*
X469571Y307436D01*
X469855Y307408D01*
X470161Y307388D01*
X470487Y307381D01*
X470612D01*
X470660Y307388D01*
X470716D01*
X470785D01*
X470931Y307401D01*
X471104Y307415D01*
X471292Y307436D01*
X471493Y307457D01*
X471708Y307492D01*
X471923Y307533D01*
X472145Y307589D01*
X472361Y307644D01*
X472562Y307721D01*
X472763Y307804D01*
X472943Y307901D01*
X473103Y308012D01*
X473110Y308019D01*
X473131Y308033D01*
X473166Y308068D01*
X473207Y308109D01*
X473256Y308158D01*
X473311Y308227D01*
X473367Y308304D01*
X473429Y308387D01*
X473492Y308484D01*
X473547Y308595D01*
X473603Y308713D01*
X473651Y308845D01*
X473693Y308984D01*
X473728Y309136D01*
X473749Y309296D01*
X473756Y309463D01*
Y308338D01*
Y311538D01*
D02*
G37*
G36*
Y306603D02*
X467211D01*
D01*
X473756D01*
Y304542D01*
X473749Y304584D01*
Y304646D01*
X473742Y304716D01*
X473728Y304806D01*
X473714Y304903D01*
X473693Y305007D01*
X473665Y305118D01*
X473631Y305236D01*
X473596Y305354D01*
X473547Y305472D01*
X473485Y305597D01*
X473422Y305715D01*
X473346Y305833D01*
X473256Y305944D01*
X473249Y305951D01*
X473235Y305972D01*
X473207Y305999D01*
X473166Y306034D01*
X473117Y306076D01*
X473055Y306131D01*
X472985Y306180D01*
X472902Y306242D01*
X472812Y306298D01*
X472715Y306353D01*
X472610Y306409D01*
X472492Y306465D01*
X472367Y306506D01*
X472236Y306548D01*
X472090Y306582D01*
X471944Y306603D01*
X471798Y305417D01*
X471805D01*
X471819D01*
X471840Y305410D01*
X471875Y305403D01*
X471958Y305389D01*
X472055Y305354D01*
X472173Y305319D01*
X472284Y305264D01*
X472402Y305194D01*
X472499Y305111D01*
X472506Y305097D01*
X472534Y305070D01*
X472576Y305014D01*
X472617Y304945D01*
X472659Y304854D01*
X472701Y304750D01*
X472728Y304632D01*
X472735Y304507D01*
Y304473D01*
X472728Y304445D01*
X472721Y304376D01*
X472701Y304285D01*
X472666Y304181D01*
X472617Y304077D01*
X472548Y303966D01*
X472451Y303862D01*
X472437Y303848D01*
X472395Y303820D01*
X472333Y303779D01*
X472243Y303730D01*
X472131Y303682D01*
X472000Y303640D01*
X471847Y303612D01*
X471673Y303598D01*
X471667D01*
X471653D01*
X471632D01*
X471597Y303605D01*
X471556D01*
X471514Y303612D01*
X471410Y303626D01*
X471292Y303661D01*
X471167Y303702D01*
X471049Y303765D01*
X470938Y303848D01*
X470924Y303862D01*
X470896Y303890D01*
X470848Y303945D01*
X470799Y304015D01*
X470751Y304105D01*
X470702Y304209D01*
X470674Y304327D01*
X470660Y304459D01*
Y304501D01*
X470667Y304549D01*
X470674Y304619D01*
X470681Y304702D01*
X470702Y304792D01*
X470723Y304903D01*
X470757Y305021D01*
X469758Y304889D01*
Y304806D01*
X469751Y304764D01*
Y304716D01*
X469737Y304605D01*
X469716Y304480D01*
X469675Y304355D01*
X469619Y304237D01*
X469550Y304126D01*
X469536Y304112D01*
X469508Y304084D01*
X469460Y304043D01*
X469390Y303987D01*
X469300Y303938D01*
X469196Y303897D01*
X469078Y303869D01*
X468939Y303855D01*
X468932D01*
X468925D01*
X468884D01*
X468828Y303862D01*
X468752Y303876D01*
X468675Y303904D01*
X468585Y303938D01*
X468502Y303987D01*
X468426Y304049D01*
X468419Y304056D01*
X468398Y304084D01*
X468363Y304126D01*
X468328Y304188D01*
X468294Y304265D01*
X468259Y304348D01*
X468238Y304452D01*
X468231Y304570D01*
Y304625D01*
X468245Y304681D01*
X468259Y304757D01*
X468287Y304841D01*
X468322Y304931D01*
X468377Y305021D01*
X468453Y305111D01*
X468460Y305118D01*
X468495Y305146D01*
X468544Y305181D01*
X468613Y305229D01*
X468703Y305278D01*
X468807Y305319D01*
X468939Y305354D01*
X469085Y305382D01*
X468897Y306513D01*
X468891D01*
X468870Y306506D01*
X468842Y306499D01*
X468800Y306492D01*
X468752Y306478D01*
X468696Y306465D01*
X468564Y306423D01*
X468412Y306374D01*
X468259Y306312D01*
X468106Y306242D01*
X467968Y306159D01*
X467961D01*
X467954Y306145D01*
X467912Y306118D01*
X467843Y306062D01*
X467766Y305986D01*
X467676Y305895D01*
X467586Y305784D01*
X467496Y305653D01*
X467412Y305500D01*
Y305493D01*
X467405Y305479D01*
X467391Y305458D01*
X467378Y305423D01*
X467364Y305382D01*
X467350Y305333D01*
X467329Y305278D01*
X467308Y305215D01*
X467274Y305077D01*
X467239Y304910D01*
X467218Y304730D01*
X467211Y304535D01*
Y304494D01*
X467218Y304445D01*
Y304382D01*
X467232Y304306D01*
X467239Y304216D01*
X467260Y304119D01*
X467280Y304015D01*
X467315Y303897D01*
X467350Y303779D01*
X467399Y303661D01*
X467454Y303543D01*
X467523Y303418D01*
X467600Y303300D01*
X467690Y303189D01*
X467794Y303085D01*
X467801Y303078D01*
X467815Y303064D01*
X467843Y303043D01*
X467877Y303015D01*
X467919Y302981D01*
X467975Y302939D01*
X468037Y302897D01*
X468106Y302856D01*
X468259Y302772D01*
X468439Y302696D01*
X468537Y302668D01*
X468641Y302647D01*
X468745Y302634D01*
X468856Y302627D01*
X468863D01*
X468891D01*
X468939Y302634D01*
X468995Y302641D01*
X469064Y302655D01*
X469147Y302675D01*
X469244Y302703D01*
X469342Y302745D01*
X469446Y302793D01*
X469557Y302849D01*
X469668Y302925D01*
X469779Y303015D01*
X469890Y303119D01*
X470001Y303244D01*
X470105Y303390D01*
X470202Y303550D01*
Y303543D01*
X470209Y303522D01*
X470216Y303494D01*
X470230Y303460D01*
X470244Y303411D01*
X470265Y303355D01*
X470313Y303237D01*
X470383Y303092D01*
X470480Y302946D01*
X470591Y302807D01*
X470660Y302738D01*
X470737Y302675D01*
X470744Y302668D01*
X470757Y302661D01*
X470778Y302647D01*
X470806Y302620D01*
X470848Y302599D01*
X470896Y302571D01*
X470952Y302537D01*
X471014Y302509D01*
X471160Y302446D01*
X471326Y302391D01*
X471521Y302356D01*
X471625Y302349D01*
X471729Y302342D01*
X471764D01*
X471812Y302349D01*
X471868D01*
X471944Y302363D01*
X472027Y302377D01*
X472118Y302391D01*
X472222Y302418D01*
X472333Y302453D01*
X472451Y302495D01*
X472569Y302543D01*
X472687Y302606D01*
X472812Y302675D01*
X472930Y302759D01*
X473048Y302849D01*
X473166Y302960D01*
X473173Y302967D01*
X473193Y302988D01*
X473221Y303022D01*
X473256Y303071D01*
X473304Y303133D01*
X473353Y303203D01*
X473409Y303286D01*
X473457Y303383D01*
X473513Y303487D01*
X473568Y303605D01*
X473617Y303737D01*
X473665Y303869D01*
X473700Y304015D01*
X473728Y304167D01*
X473749Y304334D01*
X473756Y304501D01*
Y302661D01*
Y306603D01*
D02*
G37*
%LPD*%
G36*
X472555Y327208D02*
X472548Y327097D01*
X472541Y326965D01*
X472534Y326833D01*
X472520Y326715D01*
X472506Y326660D01*
X472499Y326611D01*
Y326604D01*
X472492Y326597D01*
X472485Y326556D01*
X472465Y326500D01*
X472437Y326431D01*
X472395Y326348D01*
X472347Y326257D01*
X472291Y326174D01*
X472229Y326091D01*
X472222Y326084D01*
X472194Y326056D01*
X472145Y326014D01*
X472083Y325973D01*
X471993Y325917D01*
X471889Y325862D01*
X471764Y325806D01*
X471611Y325751D01*
X471604D01*
X471590Y325744D01*
X471569Y325737D01*
X471535Y325730D01*
X471486Y325723D01*
X471438Y325709D01*
X471375Y325695D01*
X471306Y325681D01*
X471222Y325674D01*
X471132Y325661D01*
X471042Y325647D01*
X470938Y325640D01*
X470820Y325633D01*
X470702Y325626D01*
X470570Y325619D01*
X470438D01*
X470431D01*
X470403D01*
X470369D01*
X470313D01*
X470251Y325626D01*
X470181D01*
X470105Y325633D01*
X470015D01*
X469834Y325654D01*
X469647Y325674D01*
X469460Y325709D01*
X469376Y325730D01*
X469300Y325751D01*
X469293D01*
X469279Y325758D01*
X469258Y325765D01*
X469238Y325772D01*
X469161Y325806D01*
X469071Y325848D01*
X468974Y325897D01*
X468870Y325959D01*
X468773Y326035D01*
X468682Y326119D01*
X468675Y326132D01*
X468648Y326160D01*
X468606Y326216D01*
X468557Y326285D01*
X468509Y326368D01*
X468460Y326473D01*
X468412Y326590D01*
X468377Y326722D01*
Y326736D01*
X468370Y326750D01*
Y326778D01*
X468363Y326806D01*
X468356Y326847D01*
X468349Y326896D01*
X468342Y326958D01*
Y327021D01*
X468335Y327097D01*
X468328Y327187D01*
X468322Y327285D01*
Y327396D01*
X468315Y327514D01*
Y328360D01*
X472555D01*
Y327208D01*
D02*
G37*
G36*
X473637Y324287D02*
X470633D01*
X470702Y324293D01*
X470778D01*
X470868Y324300D01*
X470966Y324314D01*
X471181Y324335D01*
X471410Y324370D01*
X471639Y324418D01*
X471861Y324488D01*
X471868D01*
X471889Y324502D01*
X471930Y324516D01*
X471979Y324529D01*
X472034Y324557D01*
X472104Y324585D01*
X472180Y324620D01*
X472263Y324661D01*
X472444Y324758D01*
X472631Y324876D01*
X472819Y325015D01*
X472992Y325175D01*
X472999Y325182D01*
X473006Y325189D01*
X473027Y325209D01*
X473048Y325237D01*
X473075Y325272D01*
X473110Y325307D01*
X473145Y325355D01*
X473179Y325411D01*
X473263Y325543D01*
X473346Y325695D01*
X473429Y325876D01*
X473506Y326077D01*
Y326084D01*
X473513Y326098D01*
X473520Y326119D01*
X473526Y326153D01*
X473533Y326195D01*
X473547Y326251D01*
X473561Y326313D01*
X473568Y326382D01*
X473582Y326459D01*
X473596Y326542D01*
X473610Y326639D01*
X473617Y326743D01*
X473624Y326847D01*
X473631Y326965D01*
X473637Y327090D01*
Y324287D01*
D02*
G37*
G36*
X473756Y309504D02*
X473749Y309553D01*
X473742Y309615D01*
X473735Y309699D01*
X473721Y309789D01*
X473693Y309893D01*
X473665Y310004D01*
X473631Y310122D01*
X473582Y310240D01*
X473520Y310365D01*
X473457Y310490D01*
X473374Y310615D01*
X473277Y310740D01*
X473166Y310858D01*
X473041Y310969D01*
X473034Y310976D01*
X473006Y310989D01*
X472964Y311024D01*
X472902Y311059D01*
X472819Y311101D01*
X472715Y311149D01*
X472590Y311198D01*
X472451Y311253D01*
X472284Y311309D01*
X472097Y311357D01*
X471889Y311406D01*
X471653Y311447D01*
X471396Y311482D01*
X471111Y311510D01*
X470806Y311531D01*
X470473Y311538D01*
X473756D01*
Y309504D01*
D02*
G37*
G36*
X470764Y310247D02*
X470868D01*
X470979D01*
X471104Y310240D01*
X471361Y310226D01*
X471618Y310205D01*
X471743Y310191D01*
X471854Y310177D01*
X471951Y310163D01*
X472041Y310143D01*
X472048D01*
X472062Y310136D01*
X472083Y310129D01*
X472111Y310122D01*
X472180Y310101D01*
X472263Y310066D01*
X472361Y310025D01*
X472451Y309976D01*
X472534Y309921D01*
X472597Y309858D01*
X472604Y309851D01*
X472617Y309830D01*
X472638Y309789D01*
X472666Y309740D01*
X472694Y309685D01*
X472715Y309615D01*
X472728Y309546D01*
X472735Y309463D01*
Y309428D01*
X472728Y309386D01*
X472715Y309331D01*
X472701Y309268D01*
X472680Y309199D01*
X472645Y309136D01*
X472597Y309067D01*
X472590Y309060D01*
X472569Y309039D01*
X472534Y309005D01*
X472478Y308970D01*
X472409Y308921D01*
X472326Y308880D01*
X472215Y308838D01*
X472090Y308796D01*
X472083D01*
X472069Y308789D01*
X472041Y308783D01*
X472000Y308776D01*
X471944Y308769D01*
X471882Y308755D01*
X471805Y308741D01*
X471715Y308727D01*
X471611Y308720D01*
X471493Y308706D01*
X471361Y308692D01*
X471215Y308685D01*
X471056Y308678D01*
X470882Y308671D01*
X470688Y308664D01*
X470487D01*
X470473D01*
X470438D01*
X470383D01*
X470306D01*
X470216D01*
X470105Y308671D01*
X469994D01*
X469869Y308678D01*
X469612Y308692D01*
X469362Y308713D01*
X469238Y308727D01*
X469127Y308741D01*
X469029Y308762D01*
X468939Y308783D01*
X468932D01*
X468918Y308789D01*
X468897Y308796D01*
X468870Y308803D01*
X468800Y308824D01*
X468710Y308859D01*
X468613Y308900D01*
X468523Y308949D01*
X468439Y309005D01*
X468377Y309067D01*
X468370Y309074D01*
X468356Y309095D01*
X468328Y309136D01*
X468301Y309178D01*
X468280Y309241D01*
X468252Y309310D01*
X468238Y309379D01*
X468231Y309463D01*
Y309497D01*
X468238Y309539D01*
X468252Y309594D01*
X468266Y309657D01*
X468294Y309726D01*
X468328Y309789D01*
X468377Y309858D01*
X468384Y309865D01*
X468405Y309886D01*
X468439Y309921D01*
X468495Y309955D01*
X468564Y309997D01*
X468648Y310046D01*
X468759Y310087D01*
X468884Y310129D01*
X468891D01*
X468904Y310136D01*
X468932Y310143D01*
X468974Y310150D01*
X469029Y310157D01*
X469092Y310171D01*
X469175Y310177D01*
X469265Y310191D01*
X469369Y310205D01*
X469487Y310212D01*
X469619Y310226D01*
X469765Y310233D01*
X469918Y310240D01*
X470098Y310247D01*
X470286Y310254D01*
X470487D01*
X470501D01*
X470535D01*
X470591D01*
X470667D01*
X470764Y310247D01*
D02*
G37*
%LPC*%
G36*
X473637Y370596D02*
X467232D01*
Y368105D01*
X467239Y368035D01*
Y367876D01*
X467246Y367785D01*
X467260Y367591D01*
X467287Y367390D01*
X467315Y367195D01*
X467336Y367105D01*
X467357Y367022D01*
Y367015D01*
X467364Y366994D01*
X467378Y366966D01*
X467391Y366925D01*
X467405Y366876D01*
X467433Y366821D01*
X467496Y366689D01*
X467572Y366536D01*
X467676Y366376D01*
X467801Y366217D01*
X467947Y366057D01*
X467954Y366050D01*
X467968Y366036D01*
X467988Y366016D01*
X468023Y365988D01*
X468065Y365960D01*
X468113Y365918D01*
X468169Y365877D01*
X468238Y365828D01*
X468308Y365780D01*
X468384Y365731D01*
X468564Y365627D01*
X468766Y365530D01*
X468988Y365446D01*
X468995D01*
X469016Y365440D01*
X469050Y365426D01*
X469099Y365412D01*
X469154Y365398D01*
X469231Y365377D01*
X469314Y365356D01*
X469404Y365335D01*
X469508Y365321D01*
X469626Y365301D01*
X469751Y365280D01*
X469883Y365266D01*
X470029Y365252D01*
X470175Y365238D01*
X470334Y365231D01*
X467232D01*
X473637D01*
Y370596D01*
D02*
G37*
G36*
Y364177D02*
X467232D01*
Y362886D01*
X473637D01*
Y364177D01*
D02*
G37*
G36*
X473756Y361872D02*
X470327D01*
X470258Y361865D01*
X470167Y361859D01*
X470063Y361852D01*
X469952Y361838D01*
X469828Y361817D01*
X469696Y361796D01*
X469550Y361768D01*
X469404Y361734D01*
X469251Y361699D01*
X469099Y361650D01*
X468946Y361595D01*
X468793Y361532D01*
X468648Y361456D01*
X468641Y361449D01*
X468613Y361435D01*
X468571Y361414D01*
X468516Y361380D01*
X468453Y361331D01*
X468377Y361282D01*
X468294Y361220D01*
X468203Y361144D01*
X468106Y361067D01*
X468009Y360970D01*
X467912Y360873D01*
X467808Y360762D01*
X467711Y360644D01*
X467621Y360512D01*
X467530Y360373D01*
X467447Y360228D01*
X467440Y360221D01*
X467433Y360200D01*
X467419Y360165D01*
X467399Y360117D01*
X467371Y360054D01*
X467343Y359985D01*
X467315Y359901D01*
X467287Y359804D01*
X467260Y359700D01*
X467232Y359582D01*
X467204Y359457D01*
X467176Y359318D01*
X467156Y359173D01*
X467142Y359020D01*
X467128Y358860D01*
D01*
Y358576D01*
X467135Y358500D01*
X467142Y358395D01*
X467156Y358277D01*
X467169Y358153D01*
X467190Y358014D01*
X467218Y357868D01*
X467253Y357715D01*
X467287Y357563D01*
X467336Y357403D01*
X467399Y357250D01*
X467461Y357105D01*
X467537Y356966D01*
X467627Y356834D01*
X467634Y356827D01*
X467648Y356806D01*
X467676Y356771D01*
X467718Y356723D01*
X467773Y356674D01*
X467829Y356612D01*
X467905Y356542D01*
X467988Y356473D01*
X468079Y356397D01*
X468183Y356327D01*
X468301Y356251D01*
X468419Y356182D01*
X468550Y356119D01*
X468696Y356057D01*
X468849Y356008D01*
X469009Y355966D01*
X469251Y357250D01*
X469244D01*
X469231Y357257D01*
X469203Y357264D01*
X469175Y357278D01*
X469134Y357292D01*
X469085Y357313D01*
X468981Y357368D01*
X468863Y357438D01*
X468738Y357528D01*
X468620Y357632D01*
X468509Y357764D01*
Y357771D01*
X468495Y357778D01*
X468481Y357799D01*
X468467Y357833D01*
X468446Y357868D01*
X468419Y357910D01*
X468398Y357965D01*
X468370Y358021D01*
X468322Y358153D01*
X468273Y358312D01*
X468245Y358493D01*
X468231Y358694D01*
Y358777D01*
X468238Y358833D01*
X468245Y358902D01*
X468259Y358985D01*
X468280Y359083D01*
X468301Y359180D01*
X468328Y359284D01*
X468363Y359395D01*
X468405Y359506D01*
X468460Y359617D01*
X468523Y359728D01*
X468592Y359839D01*
X468675Y359943D01*
X468773Y360040D01*
X468780Y360047D01*
X468800Y360061D01*
X468828Y360089D01*
X468877Y360117D01*
X468932Y360158D01*
X469002Y360200D01*
X469078Y360242D01*
X469175Y360290D01*
X469279Y360339D01*
X469397Y360380D01*
X469529Y360422D01*
X469675Y360464D01*
X469828Y360491D01*
X469994Y360519D01*
X470175Y360533D01*
X470369Y360540D01*
X470383D01*
X470417D01*
X470480Y360533D01*
X470556D01*
X470653Y360526D01*
X470757Y360512D01*
X470882Y360498D01*
X471014Y360477D01*
X471146Y360450D01*
X471292Y360415D01*
X471431Y360373D01*
X471576Y360325D01*
X471715Y360269D01*
X471847Y360200D01*
X471972Y360123D01*
X472083Y360033D01*
X472090Y360026D01*
X472104Y360012D01*
X472139Y359978D01*
X472173Y359943D01*
X472215Y359888D01*
X472263Y359832D01*
X472312Y359756D01*
X472367Y359679D01*
X472423Y359589D01*
X472472Y359485D01*
X472520Y359381D01*
X472562Y359263D01*
X472597Y359131D01*
X472624Y358999D01*
X472645Y358860D01*
X472652Y358708D01*
Y358638D01*
X472645Y358604D01*
Y358555D01*
X472631Y358451D01*
X472610Y358326D01*
X472583Y358194D01*
X472548Y358048D01*
X472492Y357896D01*
Y357889D01*
X472485Y357875D01*
X472478Y357854D01*
X472465Y357826D01*
X472430Y357750D01*
X472381Y357653D01*
X472326Y357542D01*
X472263Y357424D01*
X472194Y357306D01*
X472111Y357188D01*
X471292D01*
Y358666D01*
X470209D01*
Y355883D01*
X467128D01*
X472770D01*
X472777Y355890D01*
X472784Y355904D01*
X472805Y355925D01*
X472832Y355960D01*
X472867Y356001D01*
X472909Y356050D01*
X472951Y356112D01*
X472999Y356182D01*
X473055Y356265D01*
X473110Y356348D01*
X473166Y356445D01*
X473221Y356556D01*
X473284Y356667D01*
X473339Y356792D01*
X473402Y356924D01*
X473457Y357063D01*
Y357070D01*
X473471Y357098D01*
X473485Y357139D01*
X473506Y357195D01*
X473526Y357264D01*
X473554Y357347D01*
X473575Y357445D01*
X473603Y357549D01*
X473631Y357660D01*
X473658Y357785D01*
X473686Y357910D01*
X473707Y358048D01*
X473742Y358333D01*
X473749Y358479D01*
X473756Y358624D01*
Y356327D01*
Y358722D01*
X473749Y358791D01*
X473742Y358881D01*
X473735Y358985D01*
X473721Y359096D01*
X473700Y359221D01*
X473679Y359353D01*
X473651Y359492D01*
X473617Y359638D01*
X473582Y359790D01*
X473533Y359943D01*
X473478Y360089D01*
X473415Y360234D01*
X473339Y360380D01*
X473332Y360387D01*
X473318Y360415D01*
X473298Y360450D01*
X473263Y360505D01*
X473214Y360561D01*
X473166Y360637D01*
X473103Y360713D01*
X473027Y360797D01*
X472951Y360887D01*
X472860Y360977D01*
X472756Y361074D01*
X472652Y361164D01*
X472534Y361255D01*
X472409Y361345D01*
X472277Y361421D01*
X472131Y361498D01*
X472125Y361505D01*
X472097Y361511D01*
X472055Y361532D01*
X471993Y361553D01*
X471923Y361581D01*
X471833Y361616D01*
X471736Y361650D01*
X471625Y361685D01*
X471500Y361720D01*
X471368Y361754D01*
X471229Y361782D01*
X471084Y361817D01*
X470924Y361838D01*
X470764Y361859D01*
X470598Y361865D01*
X470424Y361872D01*
X473756D01*
D02*
G37*
G36*
Y352483D02*
Y350449D01*
X473749Y350498D01*
X473742Y350560D01*
X473735Y350643D01*
X473721Y350734D01*
X473693Y350838D01*
X473665Y350949D01*
X473631Y351067D01*
X473582Y351185D01*
X473520Y351310D01*
X473457Y351435D01*
X473374Y351559D01*
X473277Y351684D01*
X473166Y351802D01*
X473041Y351913D01*
X473034Y351920D01*
X473006Y351934D01*
X472964Y351969D01*
X472902Y352004D01*
X472819Y352045D01*
X472715Y352094D01*
X472590Y352143D01*
X472451Y352198D01*
X472284Y352254D01*
X472097Y352302D01*
X471889Y352351D01*
X471653Y352392D01*
X471396Y352427D01*
X471111Y352455D01*
X470806Y352476D01*
X470473Y352483D01*
X470348D01*
X470299Y352476D01*
X470244D01*
X470181D01*
X470029Y352462D01*
X469862Y352448D01*
X469675Y352427D01*
X469474Y352406D01*
X469258Y352372D01*
X469043Y352330D01*
X468828Y352281D01*
X468613Y352219D01*
X468405Y352149D01*
X468211Y352066D01*
X468030Y351969D01*
X467870Y351858D01*
X467864Y351851D01*
X467843Y351830D01*
X467808Y351802D01*
X467766Y351761D01*
X467718Y351705D01*
X467662Y351643D01*
X467600Y351567D01*
X467537Y351483D01*
X467482Y351386D01*
X467419Y351275D01*
X467364Y351157D01*
X467315Y351025D01*
X467274Y350886D01*
X467239Y350734D01*
X467218Y350574D01*
X467211Y350408D01*
Y350442D01*
Y350408D01*
Y348325D01*
X473756D01*
Y352483D01*
D02*
G37*
G36*
X473637Y347174D02*
D01*
Y345591D01*
X469022D01*
X469029Y345598D01*
X469050Y345619D01*
X469085Y345660D01*
X469127Y345709D01*
X469175Y345772D01*
X469238Y345855D01*
X469307Y345938D01*
X469376Y346042D01*
X469453Y346153D01*
X469529Y346271D01*
X469605Y346403D01*
X469682Y346542D01*
X469758Y346688D01*
X469828Y346847D01*
X469890Y347007D01*
X469952Y347174D01*
X468835D01*
Y347166D01*
X468828Y347153D01*
X468821Y347125D01*
X468807Y347090D01*
X468786Y347042D01*
X468766Y346993D01*
X468738Y346931D01*
X468703Y346861D01*
X468627Y346708D01*
X468523Y346535D01*
X468398Y346341D01*
X468245Y346132D01*
X468238Y346126D01*
X468224Y346105D01*
X468203Y346077D01*
X468169Y346042D01*
X468127Y345994D01*
X468072Y345945D01*
X468016Y345890D01*
X467947Y345827D01*
X467794Y345695D01*
X467621Y345570D01*
X467426Y345452D01*
X467322Y345404D01*
X467211Y345362D01*
Y344363D01*
X473637D01*
Y347174D01*
D02*
G37*
%LPD*%
G36*
X472555Y368153D02*
X472548Y368042D01*
X472541Y367910D01*
X472534Y367778D01*
X472520Y367660D01*
X472506Y367605D01*
X472499Y367556D01*
Y367549D01*
X472492Y367542D01*
X472485Y367501D01*
X472465Y367445D01*
X472437Y367376D01*
X472395Y367292D01*
X472347Y367202D01*
X472291Y367119D01*
X472229Y367036D01*
X472222Y367029D01*
X472194Y367001D01*
X472145Y366959D01*
X472083Y366918D01*
X471993Y366862D01*
X471889Y366807D01*
X471764Y366751D01*
X471611Y366696D01*
X471604D01*
X471590Y366689D01*
X471569Y366682D01*
X471535Y366675D01*
X471486Y366668D01*
X471438Y366654D01*
X471375Y366640D01*
X471306Y366626D01*
X471222Y366619D01*
X471132Y366605D01*
X471042Y366592D01*
X470938Y366585D01*
X470820Y366578D01*
X470702Y366571D01*
X470570Y366564D01*
X470438D01*
X470431D01*
X470403D01*
X470369D01*
X470313D01*
X470251Y366571D01*
X470181D01*
X470105Y366578D01*
X470015D01*
X469834Y366599D01*
X469647Y366619D01*
X469460Y366654D01*
X469376Y366675D01*
X469300Y366696D01*
X469293D01*
X469279Y366703D01*
X469258Y366709D01*
X469238Y366717D01*
X469161Y366751D01*
X469071Y366793D01*
X468974Y366841D01*
X468870Y366904D01*
X468773Y366980D01*
X468682Y367063D01*
X468675Y367077D01*
X468648Y367105D01*
X468606Y367161D01*
X468557Y367230D01*
X468509Y367313D01*
X468460Y367417D01*
X468412Y367535D01*
X468377Y367667D01*
Y367681D01*
X468370Y367695D01*
Y367723D01*
X468363Y367751D01*
X468356Y367792D01*
X468349Y367841D01*
X468342Y367903D01*
Y367966D01*
X468335Y368042D01*
X468328Y368132D01*
X468322Y368229D01*
Y368340D01*
X468315Y368458D01*
Y369305D01*
X472555D01*
Y368153D01*
D02*
G37*
G36*
X473637Y365231D02*
X470633D01*
X470702Y365238D01*
X470778D01*
X470868Y365245D01*
X470966Y365259D01*
X471181Y365280D01*
X471410Y365315D01*
X471639Y365363D01*
X471861Y365433D01*
X471868D01*
X471889Y365446D01*
X471930Y365460D01*
X471979Y365474D01*
X472034Y365502D01*
X472104Y365530D01*
X472180Y365564D01*
X472263Y365606D01*
X472444Y365703D01*
X472631Y365821D01*
X472819Y365960D01*
X472992Y366120D01*
X472999Y366127D01*
X473006Y366133D01*
X473027Y366154D01*
X473048Y366182D01*
X473075Y366217D01*
X473110Y366251D01*
X473145Y366300D01*
X473179Y366356D01*
X473263Y366488D01*
X473346Y366640D01*
X473429Y366821D01*
X473506Y367022D01*
Y367029D01*
X473513Y367043D01*
X473520Y367063D01*
X473526Y367098D01*
X473533Y367140D01*
X473547Y367195D01*
X473561Y367258D01*
X473568Y367327D01*
X473582Y367404D01*
X473596Y367487D01*
X473610Y367584D01*
X473617Y367688D01*
X473624Y367792D01*
X473631Y367910D01*
X473637Y368035D01*
Y365231D01*
D02*
G37*
G36*
X470764Y351192D02*
X470868D01*
X470979D01*
X471104Y351185D01*
X471361Y351171D01*
X471618Y351150D01*
X471743Y351136D01*
X471854Y351122D01*
X471951Y351108D01*
X472041Y351088D01*
X472048D01*
X472062Y351081D01*
X472083Y351074D01*
X472111Y351067D01*
X472180Y351046D01*
X472263Y351011D01*
X472361Y350970D01*
X472451Y350921D01*
X472534Y350866D01*
X472597Y350803D01*
X472604Y350796D01*
X472617Y350775D01*
X472638Y350734D01*
X472666Y350685D01*
X472694Y350630D01*
X472715Y350560D01*
X472728Y350491D01*
X472735Y350408D01*
Y350373D01*
X472728Y350331D01*
X472715Y350276D01*
X472701Y350213D01*
X472680Y350144D01*
X472645Y350081D01*
X472597Y350012D01*
X472590Y350005D01*
X472569Y349984D01*
X472534Y349949D01*
X472478Y349915D01*
X472409Y349866D01*
X472326Y349825D01*
X472215Y349783D01*
X472090Y349741D01*
X472083D01*
X472069Y349734D01*
X472041Y349727D01*
X472000Y349720D01*
X471944Y349713D01*
X471882Y349700D01*
X471805Y349686D01*
X471715Y349672D01*
X471611Y349665D01*
X471493Y349651D01*
X471361Y349637D01*
X471215Y349630D01*
X471056Y349623D01*
X470882Y349616D01*
X470688Y349609D01*
X470487D01*
X470473D01*
X470438D01*
X470383D01*
X470306D01*
X470216D01*
X470105Y349616D01*
X469994D01*
X469869Y349623D01*
X469612Y349637D01*
X469362Y349658D01*
X469238Y349672D01*
X469127Y349686D01*
X469029Y349707D01*
X468939Y349727D01*
X468932D01*
X468918Y349734D01*
X468897Y349741D01*
X468870Y349748D01*
X468800Y349769D01*
X468710Y349804D01*
X468613Y349845D01*
X468523Y349894D01*
X468439Y349949D01*
X468377Y350012D01*
X468370Y350019D01*
X468356Y350040D01*
X468328Y350081D01*
X468301Y350123D01*
X468280Y350185D01*
X468252Y350255D01*
X468238Y350324D01*
X468231Y350408D01*
Y350442D01*
X468238Y350484D01*
X468252Y350539D01*
X468266Y350602D01*
X468294Y350671D01*
X468328Y350734D01*
X468377Y350803D01*
X468384Y350810D01*
X468405Y350831D01*
X468439Y350866D01*
X468495Y350900D01*
X468564Y350942D01*
X468648Y350991D01*
X468759Y351032D01*
X468884Y351074D01*
X468891D01*
X468904Y351081D01*
X468932Y351088D01*
X468974Y351095D01*
X469029Y351101D01*
X469092Y351115D01*
X469175Y351122D01*
X469265Y351136D01*
X469369Y351150D01*
X469487Y351157D01*
X469619Y351171D01*
X469765Y351178D01*
X469918Y351185D01*
X470098Y351192D01*
X470286Y351199D01*
X470487D01*
X470501D01*
X470535D01*
X470591D01*
X470667D01*
X470764Y351192D01*
D02*
G37*
G36*
X473756Y348325D02*
X470612D01*
X470660Y348332D01*
X470716D01*
X470785D01*
X470931Y348346D01*
X471104Y348360D01*
X471292Y348381D01*
X471493Y348402D01*
X471708Y348436D01*
X471923Y348478D01*
X472145Y348534D01*
X472361Y348589D01*
X472562Y348665D01*
X472763Y348749D01*
X472943Y348846D01*
X473103Y348957D01*
X473110Y348964D01*
X473131Y348978D01*
X473166Y349013D01*
X473207Y349054D01*
X473256Y349103D01*
X473311Y349172D01*
X473367Y349249D01*
X473429Y349332D01*
X473492Y349429D01*
X473547Y349540D01*
X473603Y349658D01*
X473651Y349790D01*
X473693Y349929D01*
X473728Y350081D01*
X473749Y350241D01*
X473756Y350408D01*
Y348325D01*
D02*
G37*
G36*
X467218Y350317D02*
Y350255D01*
X467232Y350179D01*
X467246Y350088D01*
X467267Y349984D01*
X467294Y349873D01*
X467329Y349762D01*
X467371Y349644D01*
X467426Y349519D01*
X467489Y349401D01*
X467565Y349283D01*
X467655Y349165D01*
X467759Y349054D01*
X467877Y348950D01*
X467884Y348943D01*
X467912Y348922D01*
X467961Y348895D01*
X468030Y348853D01*
X468113Y348804D01*
X468224Y348749D01*
X468349Y348693D01*
X468502Y348638D01*
X468669Y348582D01*
X468863Y348520D01*
X469078Y348471D01*
X469314Y348423D01*
X469571Y348381D01*
X469855Y348353D01*
X470161Y348332D01*
X470487Y348325D01*
X467211D01*
Y350366D01*
X467218Y350317D01*
D02*
G37*
D17*
X488031Y96630D02*
X538031D01*
X488031Y56630D02*
X538031D01*
X488031D02*
Y96630D01*
X538031Y56630D02*
Y96630D01*
Y16394D02*
Y56394D01*
X488031Y16394D02*
Y56394D01*
Y16394D02*
X538031D01*
X488031Y56394D02*
X538031D01*
X488137Y216681D02*
X538137D01*
X488137Y176681D02*
X538137D01*
X488137D02*
Y216681D01*
X538137Y176681D02*
Y216681D01*
X488137Y297051D02*
X538137D01*
X488137Y257051D02*
X538137D01*
X488137D02*
Y297051D01*
X538137Y257051D02*
Y297051D01*
Y337051D02*
Y377051D01*
X488137Y337051D02*
Y377051D01*
Y337051D02*
X538137D01*
X488137Y377051D02*
X538137D01*
X488039Y337051D02*
X538039D01*
X488039Y297051D02*
X538039D01*
X488039D02*
Y337051D01*
X538039Y297051D02*
Y337051D01*
X538137Y96650D02*
Y136650D01*
X488137Y96650D02*
Y136650D01*
Y96650D02*
X538137D01*
X488137Y136650D02*
X538137D01*
Y136681D02*
Y176681D01*
X488137Y136681D02*
Y176681D01*
Y136681D02*
X538137D01*
X488137Y176681D02*
X538137D01*
X538031Y217051D02*
Y257051D01*
X488031Y217051D02*
Y257051D01*
Y217051D02*
X538031D01*
X488031Y257051D02*
X538031D01*
X521785Y326551D02*
X526783D01*
X527783Y325551D01*
Y323552D01*
X526783Y322552D01*
X521785D01*
X527783Y320552D02*
Y318553D01*
Y319553D01*
X521785D01*
X522784Y320552D01*
X521785Y315554D02*
X527783D01*
Y312555D01*
X526783Y311555D01*
X522784D01*
X521785Y312555D01*
Y315554D01*
X521883Y286550D02*
X526882D01*
X527881Y285551D01*
Y283552D01*
X526882Y282552D01*
X521883D01*
X527881Y280553D02*
Y278553D01*
Y279553D01*
X521883D01*
X522883Y280553D01*
X521883Y271555D02*
Y275554D01*
X524882D01*
Y273555D01*
Y275554D01*
X527881D01*
X521777Y246550D02*
X526776D01*
X527775Y245551D01*
Y243551D01*
X526776Y242552D01*
X521777D01*
X527775Y240552D02*
Y238553D01*
Y239553D01*
X521777D01*
X522777Y240552D01*
X521777Y235554D02*
X527775D01*
X524776D01*
Y231555D01*
X521777D01*
X527775D01*
X521883Y206181D02*
X526882D01*
X527881Y205181D01*
Y203181D01*
X526882Y202182D01*
X521883D01*
X527881Y200182D02*
Y198183D01*
Y199183D01*
X521883D01*
X522883Y200182D01*
X521883Y191185D02*
Y193185D01*
Y192185D01*
X526882D01*
X527881Y193185D01*
Y194184D01*
X526882Y195184D01*
X521883Y166181D02*
X526882D01*
X527881Y165181D01*
Y163181D01*
X526882Y162182D01*
X521883D01*
X527881Y160182D02*
Y158183D01*
Y159183D01*
X521883D01*
X522883Y160182D01*
X521883Y155184D02*
X527881D01*
Y151185D01*
X521883Y126149D02*
X526882D01*
X527881Y125149D01*
Y123150D01*
X526882Y122150D01*
X521883D01*
X527881Y120151D02*
Y118151D01*
Y119151D01*
X521883D01*
X522883Y120151D01*
X527881Y115153D02*
X521883D01*
X527881Y111154D01*
X521883D01*
X516187Y84627D02*
X521106D01*
X522090Y83643D01*
Y81675D01*
X521106Y80692D01*
X516187D01*
X517170Y78724D02*
X516187Y77740D01*
Y75772D01*
X517170Y74788D01*
X518154D01*
X519138Y75772D01*
Y76756D01*
Y75772D01*
X520122Y74788D01*
X521106D01*
X522090Y75772D01*
Y77740D01*
X521106Y78724D01*
X516187Y72820D02*
X522090D01*
Y69868D01*
X521106Y68884D01*
X520122D01*
X519138Y69868D01*
Y72820D01*
Y69868D01*
X518154Y68884D01*
X517170D01*
X516187Y69868D01*
Y72820D01*
X516187Y44391D02*
X521106D01*
X522090Y43407D01*
Y41439D01*
X521106Y40455D01*
X516187D01*
X517170Y38487D02*
X516187Y37504D01*
Y35536D01*
X517170Y34552D01*
X518154D01*
X519138Y35536D01*
Y36520D01*
Y35536D01*
X520122Y34552D01*
X521106D01*
X522090Y35536D01*
Y37504D01*
X521106Y38487D01*
X516187Y32584D02*
X522090D01*
Y29632D01*
X521106Y28648D01*
X517170D01*
X516187Y29632D01*
Y32584D01*
X521883Y366550D02*
X526882D01*
X527881Y365551D01*
Y363551D01*
X526882Y362552D01*
X521883D01*
X527881Y360553D02*
Y358553D01*
Y359553D01*
X521883D01*
X522883Y360553D01*
X521883Y355554D02*
X527881D01*
Y352555D01*
X526882Y351555D01*
X525882D01*
X524882Y352555D01*
Y355554D01*
Y352555D01*
X523882Y351555D01*
X522883D01*
X521883Y352555D01*
Y355554D01*
M02*
