G04*
G04 #@! TF.GenerationSoftware,Altium Limited,Altium Designer,21.1.1 (26)*
G04*
G04 Layer_Color=16711935*
%FSLAX25Y25*%
%MOIN*%
G70*
G04*
G04 #@! TF.SameCoordinates,F6E35A5F-EAB2-4CC9-8D06-BBFF69FCD084*
G04*
G04*
G04 #@! TF.FilePolarity,Negative*
G04*
G01*
G75*
%ADD36R,0.11417X0.02559*%
%ADD52C,0.06800*%
%ADD53C,0.06600*%
%ADD54C,0.08800*%
%ADD55R,0.06706X0.06706*%
%ADD56C,0.06706*%
%ADD67R,0.11824X0.02965*%
D36*
X-48976Y113386D02*
D03*
Y116535D02*
D03*
Y119685D02*
D03*
Y122835D02*
D03*
Y125984D02*
D03*
Y129134D02*
D03*
Y132283D02*
D03*
Y135433D02*
D03*
Y138583D02*
D03*
Y141732D02*
D03*
Y144882D02*
D03*
Y148031D02*
D03*
Y151181D02*
D03*
Y154331D02*
D03*
Y157480D02*
D03*
Y160630D02*
D03*
Y163779D02*
D03*
Y166929D02*
D03*
Y170079D02*
D03*
Y173228D02*
D03*
Y176378D02*
D03*
Y179528D02*
D03*
Y182677D02*
D03*
Y198425D02*
D03*
Y201575D02*
D03*
Y204724D02*
D03*
Y207874D02*
D03*
Y211024D02*
D03*
Y214173D02*
D03*
Y217323D02*
D03*
Y220472D02*
D03*
Y223622D02*
D03*
Y226772D02*
D03*
Y229921D02*
D03*
Y233071D02*
D03*
Y236221D02*
D03*
Y239370D02*
D03*
Y242520D02*
D03*
Y245669D02*
D03*
Y248819D02*
D03*
Y251969D02*
D03*
Y255118D02*
D03*
Y258268D02*
D03*
Y261417D02*
D03*
Y264567D02*
D03*
Y267717D02*
D03*
Y270866D02*
D03*
Y274016D02*
D03*
Y277165D02*
D03*
D52*
X498032Y81630D02*
D03*
Y91630D02*
D03*
Y61630D02*
D03*
Y71630D02*
D03*
X528031Y91630D02*
D03*
Y61630D02*
D03*
Y21394D02*
D03*
Y51394D02*
D03*
X498032Y31394D02*
D03*
Y21394D02*
D03*
Y51394D02*
D03*
Y41394D02*
D03*
X515413Y71429D02*
D03*
Y61429D02*
D03*
Y91429D02*
D03*
Y81429D02*
D03*
X545413Y61429D02*
D03*
Y91429D02*
D03*
X498137Y201681D02*
D03*
Y211681D02*
D03*
Y181681D02*
D03*
Y191681D02*
D03*
X528137Y211681D02*
D03*
Y181681D02*
D03*
X515413Y31193D02*
D03*
Y21193D02*
D03*
Y51193D02*
D03*
Y41193D02*
D03*
X545413Y21193D02*
D03*
Y51193D02*
D03*
X498137Y282051D02*
D03*
Y292051D02*
D03*
Y262051D02*
D03*
Y272051D02*
D03*
X528137Y292051D02*
D03*
Y262051D02*
D03*
X515413Y151681D02*
D03*
Y141681D02*
D03*
Y171681D02*
D03*
Y161681D02*
D03*
X545413Y141681D02*
D03*
Y171681D02*
D03*
Y332051D02*
D03*
Y302051D02*
D03*
X515413Y322051D02*
D03*
Y332051D02*
D03*
Y302051D02*
D03*
Y312051D02*
D03*
X528137Y342051D02*
D03*
Y372051D02*
D03*
X498137Y352051D02*
D03*
Y342051D02*
D03*
Y372051D02*
D03*
Y362051D02*
D03*
X515413Y352050D02*
D03*
Y342050D02*
D03*
Y372050D02*
D03*
Y362050D02*
D03*
X545413Y342050D02*
D03*
Y372050D02*
D03*
X498039Y322051D02*
D03*
Y332051D02*
D03*
Y302051D02*
D03*
Y312051D02*
D03*
X528039Y332051D02*
D03*
Y302051D02*
D03*
X515413Y272051D02*
D03*
Y262051D02*
D03*
Y292051D02*
D03*
Y282051D02*
D03*
X545413Y262051D02*
D03*
Y292051D02*
D03*
X528137Y101650D02*
D03*
Y131650D02*
D03*
X498137Y111650D02*
D03*
Y101650D02*
D03*
Y131650D02*
D03*
Y121650D02*
D03*
X528137Y141681D02*
D03*
Y171681D02*
D03*
X498137Y151681D02*
D03*
Y141681D02*
D03*
Y171681D02*
D03*
Y161681D02*
D03*
X528031Y222051D02*
D03*
Y252051D02*
D03*
X498032Y232051D02*
D03*
Y222051D02*
D03*
Y252051D02*
D03*
Y242051D02*
D03*
X545413Y131650D02*
D03*
Y101650D02*
D03*
X515413Y121650D02*
D03*
Y131650D02*
D03*
Y101650D02*
D03*
Y111650D02*
D03*
X545413Y211681D02*
D03*
Y181681D02*
D03*
X515413Y201681D02*
D03*
Y211681D02*
D03*
Y181681D02*
D03*
Y191681D02*
D03*
X545413Y252051D02*
D03*
Y222051D02*
D03*
X515413Y242051D02*
D03*
Y252051D02*
D03*
Y222051D02*
D03*
Y232051D02*
D03*
D53*
X21036Y244278D02*
D03*
X11036D02*
D03*
X21036Y254278D02*
D03*
X11036D02*
D03*
X89000Y353000D02*
D03*
X99000D02*
D03*
X89000Y343000D02*
D03*
X99000D02*
D03*
D54*
X260405Y344330D02*
D03*
Y354330D02*
D03*
X270406Y344330D02*
D03*
Y354330D02*
D03*
X280405Y344330D02*
D03*
Y354330D02*
D03*
X290406Y344330D02*
D03*
Y354330D02*
D03*
X300406Y344330D02*
D03*
Y354330D02*
D03*
X310405Y344330D02*
D03*
Y354330D02*
D03*
X320406Y344330D02*
D03*
Y354330D02*
D03*
X330405Y344330D02*
D03*
Y354330D02*
D03*
X340406Y344330D02*
D03*
Y354330D02*
D03*
X350406Y344330D02*
D03*
Y354330D02*
D03*
X360405Y344330D02*
D03*
Y354330D02*
D03*
X370406Y344330D02*
D03*
Y354330D02*
D03*
D55*
X92900Y68400D02*
D03*
X175000Y181500D02*
D03*
D56*
X102900Y68400D02*
D03*
X92900Y58400D02*
D03*
X102900D02*
D03*
X92900Y48400D02*
D03*
X102900D02*
D03*
X92900Y38400D02*
D03*
X102900D02*
D03*
X92900Y28400D02*
D03*
X102900D02*
D03*
X185000Y181500D02*
D03*
X175000Y171500D02*
D03*
X185000D02*
D03*
X175000Y161500D02*
D03*
X185000D02*
D03*
X175000Y151500D02*
D03*
X185000D02*
D03*
X175000Y141500D02*
D03*
X185000D02*
D03*
X175000Y131500D02*
D03*
X185000D02*
D03*
X175000Y121500D02*
D03*
X185000D02*
D03*
X175000Y111500D02*
D03*
X185000D02*
D03*
X175000Y101500D02*
D03*
X185000D02*
D03*
D67*
X-48976Y280315D02*
D03*
M02*
