G04*
G04 #@! TF.GenerationSoftware,Altium Limited,Altium Designer,21.1.1 (26)*
G04*
G04 Layer_Color=8421504*
%FSLAX25Y25*%
%MOIN*%
G70*
G04*
G04 #@! TF.SameCoordinates,F6E35A5F-EAB2-4CC9-8D06-BBFF69FCD084*
G04*
G04*
G04 #@! TF.FilePolarity,Positive*
G04*
G01*
G75*
%ADD22R,0.03150X0.03150*%
%ADD23R,0.03937X0.03543*%
%ADD24O,0.03347X0.01575*%
%ADD25R,0.05512X0.03937*%
%ADD26R,0.03543X0.02756*%
%ADD27R,0.07165X0.04764*%
%ADD28R,0.02756X0.03543*%
%ADD29R,0.03543X0.03937*%
%ADD30R,0.35236X0.35827*%
%ADD31R,0.03740X0.15551*%
%ADD32R,0.11811X0.13780*%
G04:AMPARAMS|DCode=33|XSize=23.62mil|YSize=68.9mil|CornerRadius=5.91mil|HoleSize=0mil|Usage=FLASHONLY|Rotation=90.000|XOffset=0mil|YOffset=0mil|HoleType=Round|Shape=RoundedRectangle|*
%AMROUNDEDRECTD33*
21,1,0.02362,0.05709,0,0,90.0*
21,1,0.01181,0.06890,0,0,90.0*
1,1,0.01181,0.02854,0.00591*
1,1,0.01181,0.02854,-0.00591*
1,1,0.01181,-0.02854,-0.00591*
1,1,0.01181,-0.02854,0.00591*
%
%ADD33ROUNDEDRECTD33*%
%ADD34R,0.09055X0.16929*%
%ADD35R,0.15748X0.13780*%
D22*
X47000Y376799D02*
D03*
Y370500D02*
D03*
X22500Y376150D02*
D03*
Y369850D02*
D03*
X448819Y29331D02*
D03*
Y23031D02*
D03*
Y48228D02*
D03*
Y41929D02*
D03*
Y72622D02*
D03*
Y66323D02*
D03*
Y92716D02*
D03*
Y86417D02*
D03*
X373524Y29331D02*
D03*
Y23031D02*
D03*
Y48228D02*
D03*
Y41929D02*
D03*
Y72622D02*
D03*
Y66323D02*
D03*
Y92716D02*
D03*
Y86417D02*
D03*
X448819Y112992D02*
D03*
Y106693D02*
D03*
X448425Y123228D02*
D03*
Y129528D02*
D03*
X448819Y153150D02*
D03*
Y146850D02*
D03*
X448425Y163386D02*
D03*
Y169685D02*
D03*
X448819Y193307D02*
D03*
Y187008D02*
D03*
X448425Y203543D02*
D03*
Y209842D02*
D03*
X448819Y233465D02*
D03*
Y227165D02*
D03*
X448425Y243701D02*
D03*
Y250000D02*
D03*
X448819Y273669D02*
D03*
Y267370D02*
D03*
X448425Y283858D02*
D03*
Y290158D02*
D03*
X448721Y313583D02*
D03*
Y307283D02*
D03*
X448425Y323622D02*
D03*
Y329921D02*
D03*
X448819Y353543D02*
D03*
Y347244D02*
D03*
X448425Y363779D02*
D03*
Y370079D02*
D03*
D23*
X381398Y72819D02*
D03*
Y66520D02*
D03*
X462205Y86614D02*
D03*
Y92913D02*
D03*
X381398Y92913D02*
D03*
Y86614D02*
D03*
X462205Y42126D02*
D03*
Y48425D02*
D03*
X381398Y48425D02*
D03*
Y42126D02*
D03*
X442913Y23228D02*
D03*
Y29528D02*
D03*
X407874Y23228D02*
D03*
Y29528D02*
D03*
X462106Y313583D02*
D03*
Y307283D02*
D03*
X462205Y187008D02*
D03*
Y193307D02*
D03*
X455905Y48425D02*
D03*
Y42126D02*
D03*
X462205Y29528D02*
D03*
Y23228D02*
D03*
X381398Y23228D02*
D03*
Y29528D02*
D03*
X407874Y66520D02*
D03*
Y72819D02*
D03*
X455905Y72819D02*
D03*
Y66520D02*
D03*
X442913Y72819D02*
D03*
Y66520D02*
D03*
X462205Y72819D02*
D03*
Y66520D02*
D03*
X407874Y92913D02*
D03*
Y86614D02*
D03*
X455905Y29528D02*
D03*
Y23228D02*
D03*
Y92913D02*
D03*
Y86614D02*
D03*
X442913Y42126D02*
D03*
Y48425D02*
D03*
Y86614D02*
D03*
Y92913D02*
D03*
X462205Y106693D02*
D03*
Y112992D02*
D03*
X455905Y112992D02*
D03*
Y106693D02*
D03*
X462205Y123228D02*
D03*
Y129528D02*
D03*
X455905Y153150D02*
D03*
Y146850D02*
D03*
X462205Y146850D02*
D03*
Y153150D02*
D03*
X455512Y129527D02*
D03*
Y123228D02*
D03*
X462205Y163386D02*
D03*
Y169685D02*
D03*
X455512Y169685D02*
D03*
Y163386D02*
D03*
X455905Y187008D02*
D03*
Y193307D02*
D03*
X455512Y203543D02*
D03*
Y209842D02*
D03*
X462205Y203543D02*
D03*
Y209842D02*
D03*
X455905Y233465D02*
D03*
Y227165D02*
D03*
X462205Y227165D02*
D03*
Y233465D02*
D03*
Y243701D02*
D03*
Y250000D02*
D03*
X455512Y243701D02*
D03*
Y250000D02*
D03*
X462205Y267370D02*
D03*
Y273669D02*
D03*
X455905Y273669D02*
D03*
Y267370D02*
D03*
X462205Y283858D02*
D03*
Y290158D02*
D03*
X455512Y290158D02*
D03*
Y283858D02*
D03*
X455807Y313583D02*
D03*
Y307283D02*
D03*
X462205Y323622D02*
D03*
Y329921D02*
D03*
X455512Y329921D02*
D03*
Y323622D02*
D03*
X455905Y353543D02*
D03*
Y347244D02*
D03*
X462205Y353543D02*
D03*
Y347244D02*
D03*
Y370079D02*
D03*
Y363779D02*
D03*
X455512Y363779D02*
D03*
Y370079D02*
D03*
X412205Y152756D02*
D03*
Y146457D02*
D03*
X412205Y170473D02*
D03*
Y164173D02*
D03*
X412205Y186614D02*
D03*
Y192913D02*
D03*
X412205Y210630D02*
D03*
Y204331D02*
D03*
X412205Y233071D02*
D03*
Y226772D02*
D03*
Y250787D02*
D03*
Y244488D02*
D03*
Y273275D02*
D03*
Y266976D02*
D03*
Y290945D02*
D03*
Y284646D02*
D03*
X412106Y313189D02*
D03*
Y306890D02*
D03*
X412205Y330709D02*
D03*
Y324410D02*
D03*
X412205Y353150D02*
D03*
Y346850D02*
D03*
Y112598D02*
D03*
Y106299D02*
D03*
X412205Y130315D02*
D03*
Y124016D02*
D03*
X412205Y370866D02*
D03*
Y364567D02*
D03*
X47000Y346850D02*
D03*
Y353150D02*
D03*
X22500Y352650D02*
D03*
Y346350D02*
D03*
X172500Y337650D02*
D03*
Y331350D02*
D03*
Y344850D02*
D03*
Y351150D02*
D03*
X69500Y271650D02*
D03*
Y265350D02*
D03*
X-28308Y113919D02*
D03*
Y107620D02*
D03*
X407874Y48425D02*
D03*
Y42126D02*
D03*
D24*
X428248Y72228D02*
D03*
Y69669D02*
D03*
Y67110D02*
D03*
X437106Y72228D02*
D03*
Y69669D02*
D03*
Y67110D02*
D03*
X428248Y92323D02*
D03*
Y89764D02*
D03*
Y87205D02*
D03*
X437106Y92323D02*
D03*
Y89764D02*
D03*
Y87205D02*
D03*
X428248Y47835D02*
D03*
Y45276D02*
D03*
Y42717D02*
D03*
X437106Y47835D02*
D03*
Y45276D02*
D03*
Y42717D02*
D03*
X428248Y28937D02*
D03*
Y26378D02*
D03*
Y23819D02*
D03*
X437106Y28937D02*
D03*
Y26378D02*
D03*
Y23819D02*
D03*
X387992Y72228D02*
D03*
Y69669D02*
D03*
Y67110D02*
D03*
X396850Y72228D02*
D03*
Y69669D02*
D03*
Y67110D02*
D03*
Y42717D02*
D03*
Y45276D02*
D03*
Y47835D02*
D03*
X387992Y42717D02*
D03*
Y45276D02*
D03*
Y47835D02*
D03*
X396850Y87205D02*
D03*
Y89764D02*
D03*
Y92323D02*
D03*
X387992Y87205D02*
D03*
Y89764D02*
D03*
Y92323D02*
D03*
Y28937D02*
D03*
Y26378D02*
D03*
Y23819D02*
D03*
X396850Y28937D02*
D03*
Y26378D02*
D03*
Y23819D02*
D03*
X441437Y364370D02*
D03*
Y366929D02*
D03*
Y369488D02*
D03*
X432579Y364370D02*
D03*
Y366929D02*
D03*
Y369488D02*
D03*
Y352559D02*
D03*
Y350000D02*
D03*
Y347441D02*
D03*
X441437Y352559D02*
D03*
Y350000D02*
D03*
Y347441D02*
D03*
Y324213D02*
D03*
Y326772D02*
D03*
Y329331D02*
D03*
X432579Y324213D02*
D03*
Y326772D02*
D03*
Y329331D02*
D03*
X432480Y312598D02*
D03*
Y310039D02*
D03*
Y307480D02*
D03*
X441339Y312598D02*
D03*
Y310039D02*
D03*
Y307480D02*
D03*
X441437Y284449D02*
D03*
Y287008D02*
D03*
Y289567D02*
D03*
X432579Y284449D02*
D03*
Y287008D02*
D03*
Y289567D02*
D03*
Y272685D02*
D03*
Y270126D02*
D03*
Y267567D02*
D03*
X441437Y272685D02*
D03*
Y270126D02*
D03*
Y267567D02*
D03*
Y244291D02*
D03*
Y246850D02*
D03*
Y249410D02*
D03*
X432579Y244291D02*
D03*
Y246850D02*
D03*
Y249410D02*
D03*
Y232480D02*
D03*
Y229921D02*
D03*
Y227362D02*
D03*
X441437Y232480D02*
D03*
Y229921D02*
D03*
Y227362D02*
D03*
Y204134D02*
D03*
Y206693D02*
D03*
Y209252D02*
D03*
X432579Y204134D02*
D03*
Y206693D02*
D03*
Y209252D02*
D03*
Y192323D02*
D03*
Y189764D02*
D03*
Y187205D02*
D03*
X441437Y192323D02*
D03*
Y189764D02*
D03*
Y187205D02*
D03*
Y163976D02*
D03*
Y166535D02*
D03*
Y169095D02*
D03*
X432579Y163976D02*
D03*
Y166535D02*
D03*
Y169095D02*
D03*
Y152165D02*
D03*
Y149606D02*
D03*
Y147047D02*
D03*
X441437Y152165D02*
D03*
Y149606D02*
D03*
Y147047D02*
D03*
Y123819D02*
D03*
Y126378D02*
D03*
Y128937D02*
D03*
X432579Y123819D02*
D03*
Y126378D02*
D03*
Y128937D02*
D03*
Y112008D02*
D03*
Y109449D02*
D03*
Y106890D02*
D03*
X441437Y112008D02*
D03*
Y109449D02*
D03*
Y106890D02*
D03*
D25*
X415354Y22736D02*
D03*
Y30020D02*
D03*
Y73311D02*
D03*
Y66027D02*
D03*
X470079Y66027D02*
D03*
Y73311D02*
D03*
Y22736D02*
D03*
Y30020D02*
D03*
Y48917D02*
D03*
Y41634D02*
D03*
Y93405D02*
D03*
Y86122D02*
D03*
Y113484D02*
D03*
Y106201D02*
D03*
Y146358D02*
D03*
Y153642D02*
D03*
Y130020D02*
D03*
Y122736D02*
D03*
Y170177D02*
D03*
Y162894D02*
D03*
Y186516D02*
D03*
Y193799D02*
D03*
Y210335D02*
D03*
Y203051D02*
D03*
Y226673D02*
D03*
Y233957D02*
D03*
Y250492D02*
D03*
Y243209D02*
D03*
Y274161D02*
D03*
Y266878D02*
D03*
Y290650D02*
D03*
Y283366D02*
D03*
X469980Y314075D02*
D03*
Y306791D02*
D03*
X470079Y323130D02*
D03*
Y330413D02*
D03*
Y346752D02*
D03*
Y354035D02*
D03*
Y363287D02*
D03*
Y370571D02*
D03*
X419685Y105807D02*
D03*
Y113091D02*
D03*
Y123917D02*
D03*
Y131201D02*
D03*
Y153248D02*
D03*
Y145965D02*
D03*
Y171358D02*
D03*
Y164075D02*
D03*
Y186122D02*
D03*
Y193405D02*
D03*
Y211516D02*
D03*
Y204232D02*
D03*
Y233563D02*
D03*
Y226279D02*
D03*
Y251673D02*
D03*
Y244390D02*
D03*
Y273768D02*
D03*
Y266484D02*
D03*
Y284547D02*
D03*
Y291831D02*
D03*
X419587Y306398D02*
D03*
Y313681D02*
D03*
X419685Y324311D02*
D03*
Y331594D02*
D03*
Y346358D02*
D03*
Y353642D02*
D03*
Y364469D02*
D03*
Y371752D02*
D03*
X415354Y93405D02*
D03*
Y86122D02*
D03*
Y41634D02*
D03*
Y48917D02*
D03*
D26*
X421654Y29134D02*
D03*
Y23622D02*
D03*
Y66913D02*
D03*
Y72425D02*
D03*
Y92520D02*
D03*
Y87008D02*
D03*
X425984Y111811D02*
D03*
Y106299D02*
D03*
X425984Y124016D02*
D03*
Y129528D02*
D03*
X425984Y146457D02*
D03*
Y151969D02*
D03*
X425984Y164173D02*
D03*
Y169685D02*
D03*
X425984Y192126D02*
D03*
Y186614D02*
D03*
X425984Y204331D02*
D03*
Y209842D02*
D03*
X425984Y226772D02*
D03*
Y232283D02*
D03*
X425984Y244488D02*
D03*
Y250000D02*
D03*
X425984Y266976D02*
D03*
Y272488D02*
D03*
X425984Y290158D02*
D03*
Y284646D02*
D03*
X425886Y312402D02*
D03*
Y306890D02*
D03*
X425984Y329921D02*
D03*
Y324410D02*
D03*
X425984Y352362D02*
D03*
Y346850D02*
D03*
X425984Y370079D02*
D03*
Y364567D02*
D03*
X163500Y350256D02*
D03*
Y344744D02*
D03*
X59500Y289744D02*
D03*
Y295256D02*
D03*
X103500Y285756D02*
D03*
Y280244D02*
D03*
X421654Y48031D02*
D03*
Y42520D02*
D03*
D27*
X13500Y281791D02*
D03*
Y293209D02*
D03*
X183465Y355709D02*
D03*
Y344291D02*
D03*
X193307D02*
D03*
Y355709D02*
D03*
D28*
X83256Y303000D02*
D03*
X77744D02*
D03*
D29*
X-16736Y108899D02*
D03*
X-23035D02*
D03*
D30*
X137500Y296567D02*
D03*
D31*
X147500Y257000D02*
D03*
X127500D02*
D03*
D32*
X80500Y288000D02*
D03*
D33*
X91327Y280500D02*
D03*
Y285500D02*
D03*
Y290500D02*
D03*
Y295500D02*
D03*
X69673Y280500D02*
D03*
Y285500D02*
D03*
Y290500D02*
D03*
Y295500D02*
D03*
D34*
X38500Y303681D02*
D03*
Y276319D02*
D03*
X217717Y339862D02*
D03*
Y367224D02*
D03*
D35*
X137500Y360701D02*
D03*
Y323299D02*
D03*
M02*
