G04*
G04 #@! TF.GenerationSoftware,Altium Limited,Altium Designer,21.5.1 (32)*
G04*
G04 Layer_Color=32896*
%FSLAX25Y25*%
%MOIN*%
G70*
G04*
G04 #@! TF.SameCoordinates,FB92316D-9947-4A72-8022-4AE984785D81*
G04*
G04*
G04 #@! TF.FilePolarity,Positive*
G04*
G01*
G75*
%ADD15C,0.01000*%
%ADD70C,0.00630*%
G36*
X474758Y131437D02*
Y102140D01*
X466116D01*
Y131437D01*
X474758D01*
D02*
G37*
G36*
X474758Y20260D02*
X466116D01*
Y49547D01*
X474758D01*
Y20260D01*
D02*
G37*
G36*
Y60288D02*
X466116D01*
Y89705D01*
X474758D01*
Y60288D01*
D02*
G37*
G36*
X474758Y171595D02*
Y143371D01*
X466116D01*
Y171595D01*
X474758D01*
D02*
G37*
G36*
X474742Y212933D02*
Y183664D01*
X466101D01*
Y212933D01*
X474742D01*
D02*
G37*
G36*
X474758Y221834D02*
X466116D01*
Y251122D01*
X474758D01*
Y221834D01*
D02*
G37*
G36*
Y261862D02*
X466116D01*
Y291280D01*
X474758D01*
Y261862D01*
D02*
G37*
G36*
X474758Y330650D02*
Y301353D01*
X466116D01*
Y330650D01*
X474758D01*
D02*
G37*
G36*
Y371595D02*
Y343371D01*
X466116D01*
Y371595D01*
X474758D01*
D02*
G37*
%LPC*%
G36*
X473637Y130437D02*
X467237D01*
Y125081D01*
Y127884D01*
X467246Y127810D01*
X467255Y127634D01*
X467264Y127440D01*
X467292Y127236D01*
X467320Y127042D01*
X467366Y126866D01*
Y126857D01*
X467375Y126839D01*
X467384Y126811D01*
X467394Y126774D01*
X467440Y126663D01*
X467505Y126533D01*
X467588Y126385D01*
X467690Y126219D01*
X467810Y126062D01*
X467958Y125905D01*
Y125895D01*
X467977Y125886D01*
X468032Y125840D01*
X468124Y125766D01*
X468245Y125682D01*
X468393Y125581D01*
X468569Y125479D01*
X468772Y125377D01*
X468994Y125294D01*
X469003D01*
X469022Y125285D01*
X469059Y125276D01*
X469105Y125257D01*
X469161Y125248D01*
X469235Y125229D01*
X469318Y125211D01*
X469410Y125183D01*
X469512Y125164D01*
X469632Y125146D01*
X469753Y125127D01*
X469891Y125118D01*
X470178Y125091D01*
X470502Y125081D01*
X470631D01*
X470705Y125091D01*
X470779D01*
X470872Y125100D01*
X470973Y125109D01*
X471186Y125127D01*
X471408Y125164D01*
X471639Y125220D01*
X471862Y125285D01*
X471871D01*
X471889Y125294D01*
X471926Y125312D01*
X471982Y125331D01*
X472037Y125349D01*
X472102Y125387D01*
X472268Y125461D01*
X472444Y125553D01*
X472639Y125673D01*
X472823Y125812D01*
X472999Y125969D01*
X473018Y125988D01*
X473055Y126034D01*
X473110Y126108D01*
X473184Y126210D01*
X473268Y126339D01*
X473351Y126487D01*
X473434Y126672D01*
X473508Y126876D01*
Y126885D01*
X473517Y126894D01*
Y126922D01*
X473526Y126950D01*
X473545Y127051D01*
X473573Y127181D01*
X473600Y127338D01*
X473619Y127532D01*
X473628Y127764D01*
X473637Y128014D01*
Y130437D01*
D02*
G37*
G36*
Y124027D02*
X467237D01*
Y122732D01*
X473637D01*
Y124027D01*
D02*
G37*
G36*
X473758Y121723D02*
X467116D01*
X470317D01*
X470252Y121714D01*
X470159D01*
X470058Y121705D01*
X469947Y121686D01*
X469817Y121668D01*
X469549Y121622D01*
X469244Y121548D01*
X468938Y121446D01*
X468790Y121381D01*
X468643Y121307D01*
X468633Y121298D01*
X468606Y121289D01*
X468569Y121261D01*
X468513Y121233D01*
X468448Y121187D01*
X468374Y121132D01*
X468291Y121067D01*
X468198Y121002D01*
X468106Y120919D01*
X468004Y120826D01*
X467903Y120724D01*
X467801Y120614D01*
X467708Y120493D01*
X467606Y120373D01*
X467440Y120086D01*
Y120077D01*
X467421Y120059D01*
X467412Y120021D01*
X467384Y119975D01*
X467366Y119911D01*
X467338Y119846D01*
X467310Y119753D01*
X467274Y119661D01*
X467246Y119559D01*
X467218Y119439D01*
X467190Y119309D01*
X467163Y119180D01*
X467126Y118884D01*
X467116Y118551D01*
Y115739D01*
Y118440D01*
X467126Y118357D01*
X467135Y118255D01*
X467144Y118134D01*
X467153Y118005D01*
X467181Y117866D01*
X467237Y117570D01*
X467329Y117265D01*
X467384Y117108D01*
X467449Y116960D01*
X467523Y116821D01*
X467616Y116692D01*
X467625Y116682D01*
X467634Y116664D01*
X467671Y116627D01*
X467708Y116580D01*
X467755Y116525D01*
X467819Y116470D01*
X467893Y116405D01*
X467977Y116331D01*
X468069Y116257D01*
X468171Y116183D01*
X468282Y116109D01*
X468411Y116044D01*
X468541Y115970D01*
X468680Y115914D01*
X468837Y115859D01*
X468994Y115822D01*
X469235Y117108D01*
X469225D01*
X469216Y117117D01*
X469161Y117136D01*
X469077Y117173D01*
X468966Y117228D01*
X468846Y117293D01*
X468726Y117385D01*
X468606Y117496D01*
X468495Y117626D01*
X468485Y117644D01*
X468448Y117691D01*
X468402Y117774D01*
X468356Y117876D01*
X468300Y118014D01*
X468263Y118172D01*
X468226Y118347D01*
X468217Y118551D01*
Y118634D01*
X468226Y118690D01*
X468235Y118763D01*
X468245Y118847D01*
X468263Y118939D01*
X468282Y119041D01*
X468347Y119254D01*
X468393Y119365D01*
X468448Y119476D01*
X468513Y119587D01*
X468578Y119698D01*
X468670Y119799D01*
X468763Y119901D01*
X468772Y119911D01*
X468790Y119920D01*
X468818Y119948D01*
X468864Y119975D01*
X468920Y120012D01*
X468985Y120059D01*
X469068Y120105D01*
X469161Y120142D01*
X469272Y120188D01*
X469392Y120234D01*
X469521Y120281D01*
X469660Y120317D01*
X469817Y120345D01*
X469993Y120373D01*
X470169Y120382D01*
X470363Y120391D01*
X470372D01*
X470409D01*
X470474D01*
X470548Y120382D01*
X470650Y120373D01*
X470751Y120364D01*
X470881Y120345D01*
X471010Y120327D01*
X471288Y120271D01*
X471575Y120179D01*
X471713Y120123D01*
X471843Y120059D01*
X471973Y119975D01*
X472084Y119892D01*
X472093Y119883D01*
X472111Y119864D01*
X472139Y119836D01*
X472176Y119799D01*
X472213Y119744D01*
X472268Y119688D01*
X472315Y119615D01*
X472370Y119531D01*
X472426Y119439D01*
X472472Y119346D01*
X472565Y119115D01*
X472602Y118985D01*
X472629Y118856D01*
X472648Y118708D01*
X472657Y118560D01*
Y118486D01*
X472648Y118412D01*
X472639Y118301D01*
X472620Y118181D01*
X472592Y118042D01*
X472555Y117894D01*
X472500Y117746D01*
Y117737D01*
X472491Y117727D01*
X472472Y117681D01*
X472435Y117598D01*
X472389Y117506D01*
X472333Y117394D01*
X472268Y117274D01*
X472194Y117154D01*
X472111Y117043D01*
X471288D01*
Y118523D01*
X470206D01*
Y115739D01*
X472777D01*
X472796Y115757D01*
X472814Y115785D01*
X472842Y115813D01*
X472879Y115859D01*
X472916Y115905D01*
X473008Y116035D01*
X473110Y116210D01*
X473231Y116414D01*
X473351Y116645D01*
X473462Y116923D01*
Y116932D01*
X473471Y116960D01*
X473490Y116997D01*
X473508Y117052D01*
X473526Y117126D01*
X473554Y117209D01*
X473582Y117302D01*
X473610Y117404D01*
X473665Y117635D01*
X473711Y117903D01*
X473748Y118181D01*
X473758Y118477D01*
Y118579D01*
X473748Y118643D01*
Y118736D01*
X473739Y118837D01*
X473721Y118948D01*
X473702Y119078D01*
X473656Y119346D01*
X473582Y119642D01*
X473480Y119948D01*
X473416Y120086D01*
X473342Y120234D01*
X473332Y120244D01*
X473323Y120262D01*
X473295Y120308D01*
X473258Y120354D01*
X473221Y120419D01*
X473166Y120484D01*
X473101Y120567D01*
X473027Y120650D01*
X472860Y120835D01*
X472648Y121020D01*
X472407Y121196D01*
X472130Y121353D01*
X472121D01*
X472093Y121372D01*
X472047Y121390D01*
X471991Y121409D01*
X471917Y121437D01*
X471834Y121474D01*
X471732Y121502D01*
X471621Y121538D01*
X471501Y121575D01*
X471362Y121603D01*
X471075Y121668D01*
X470761Y121705D01*
X470419Y121723D01*
X473758D01*
D02*
G37*
G36*
X473637Y112002D02*
X467200D01*
Y109190D01*
X473637D01*
Y110420D01*
X469003D01*
X469012Y110429D01*
X469031Y110448D01*
X469059Y110485D01*
X469105Y110540D01*
X469161Y110605D01*
X469216Y110679D01*
X469281Y110772D01*
X469355Y110873D01*
X469429Y110984D01*
X469503Y111105D01*
X469586Y111234D01*
X469660Y111373D01*
X469799Y111669D01*
X469928Y112002D01*
X473637D01*
D02*
G37*
G36*
X473758Y107395D02*
X467200D01*
Y103140D01*
D01*
Y105249D01*
X467209Y105184D01*
X467218Y105101D01*
X467227Y105018D01*
X467246Y104916D01*
X467274Y104815D01*
X467338Y104583D01*
X467384Y104463D01*
X467449Y104333D01*
X467514Y104213D01*
X467588Y104102D01*
X467681Y103982D01*
X467782Y103880D01*
X467792Y103871D01*
X467801Y103862D01*
X467829Y103834D01*
X467866Y103806D01*
X467958Y103732D01*
X468087Y103649D01*
X468245Y103566D01*
X468430Y103501D01*
X468633Y103445D01*
X468735Y103436D01*
X468846Y103427D01*
X468855D01*
X468883D01*
X468929Y103436D01*
X468985Y103445D01*
X469059Y103455D01*
X469142Y103473D01*
X469235Y103501D01*
X469336Y103538D01*
X469438Y103594D01*
X469549Y103649D01*
X469660Y103723D01*
X469771Y103815D01*
X469882Y103927D01*
X469993Y104047D01*
X470095Y104185D01*
X470196Y104352D01*
Y104343D01*
X470206Y104324D01*
Y104297D01*
X470224Y104260D01*
X470252Y104158D01*
X470307Y104037D01*
X470381Y103899D01*
X470474Y103751D01*
X470594Y103603D01*
X470733Y103473D01*
X470751Y103455D01*
X470807Y103418D01*
X470890Y103372D01*
X471010Y103307D01*
X471149Y103242D01*
X471325Y103196D01*
X471510Y103159D01*
X471723Y103140D01*
X471806D01*
X471862Y103149D01*
X471936Y103159D01*
X472019Y103177D01*
X472121Y103196D01*
X472222Y103214D01*
X472444Y103288D01*
X472565Y103344D01*
X472694Y103399D01*
X472814Y103473D01*
X472934Y103557D01*
X473055Y103649D01*
X473166Y103760D01*
X473175Y103769D01*
X473194Y103788D01*
X473221Y103825D01*
X473258Y103871D01*
X473305Y103936D01*
X473351Y104000D01*
X473406Y104093D01*
X473462Y104185D01*
X473517Y104287D01*
X473573Y104408D01*
X473619Y104537D01*
X473665Y104666D01*
X473702Y104815D01*
X473730Y104963D01*
X473748Y105129D01*
X473758Y105296D01*
Y105379D01*
X473748Y105444D01*
X473739Y105517D01*
X473730Y105601D01*
X473711Y105693D01*
X473693Y105804D01*
X473637Y106026D01*
X473545Y106267D01*
X473490Y106396D01*
X473425Y106507D01*
X473342Y106628D01*
X473258Y106738D01*
X473249Y106748D01*
X473231Y106766D01*
X473203Y106794D01*
X473166Y106831D01*
X473119Y106877D01*
X473055Y106923D01*
X472990Y106979D01*
X472907Y107035D01*
X472814Y107090D01*
X472722Y107155D01*
X472500Y107256D01*
X472241Y107340D01*
X472102Y107377D01*
X471954Y107395D01*
X471806Y106211D01*
X471815D01*
X471825D01*
X471880Y106202D01*
X471963Y106184D01*
X472065Y106156D01*
X472176Y106109D01*
X472296Y106063D01*
X472407Y105989D01*
X472509Y105906D01*
X472518Y105897D01*
X472546Y105860D01*
X472583Y105804D01*
X472620Y105739D01*
X472666Y105647D01*
X472703Y105545D01*
X472731Y105434D01*
X472740Y105305D01*
Y105286D01*
X472731Y105240D01*
X472722Y105175D01*
X472703Y105083D01*
X472666Y104981D01*
X472620Y104879D01*
X472546Y104768D01*
X472453Y104666D01*
X472444Y104657D01*
X472398Y104620D01*
X472333Y104583D01*
X472250Y104528D01*
X472139Y104481D01*
X472000Y104435D01*
X471843Y104408D01*
X471667Y104398D01*
X471658D01*
X471649D01*
X471593D01*
X471510Y104408D01*
X471399Y104426D01*
X471279Y104463D01*
X471159Y104509D01*
X471038Y104574D01*
X470927Y104657D01*
X470918Y104666D01*
X470881Y104703D01*
X470835Y104759D01*
X470788Y104824D01*
X470733Y104916D01*
X470696Y105018D01*
X470659Y105129D01*
X470650Y105259D01*
Y105351D01*
X470659Y105416D01*
X470668Y105499D01*
X470687Y105601D01*
X470715Y105702D01*
X470742Y105823D01*
X469753Y105693D01*
Y105610D01*
X469743Y105517D01*
X469734Y105406D01*
X469706Y105286D01*
X469669Y105157D01*
X469614Y105036D01*
X469540Y104926D01*
X469530Y104916D01*
X469493Y104879D01*
X469447Y104842D01*
X469373Y104787D01*
X469290Y104741D01*
X469188Y104694D01*
X469068Y104666D01*
X468929Y104657D01*
X468911D01*
X468874D01*
X468818Y104666D01*
X468744Y104685D01*
X468661Y104703D01*
X468578Y104741D01*
X468485Y104787D01*
X468411Y104851D01*
X468402Y104861D01*
X468384Y104888D01*
X468347Y104926D01*
X468309Y104990D01*
X468282Y105064D01*
X468245Y105148D01*
X468226Y105259D01*
X468217Y105369D01*
Y105425D01*
X468226Y105481D01*
X468245Y105554D01*
X468272Y105638D01*
X468309Y105730D01*
X468365Y105823D01*
X468439Y105906D01*
X468448Y105915D01*
X468476Y105943D01*
X468532Y105980D01*
X468606Y106026D01*
X468689Y106072D01*
X468800Y106109D01*
X468929Y106147D01*
X469077Y106174D01*
X468892Y107303D01*
X468883D01*
X468864Y107293D01*
X468837D01*
X468790Y107284D01*
X468689Y107256D01*
X468550Y107220D01*
X468402Y107164D01*
X468245Y107108D01*
X468097Y107035D01*
X467958Y106951D01*
X467940Y106942D01*
X467903Y106905D01*
X467838Y106850D01*
X467755Y106775D01*
X467671Y106683D01*
X467579Y106572D01*
X467486Y106433D01*
X467403Y106285D01*
Y106276D01*
X467394Y106267D01*
X467375Y106211D01*
X467338Y106119D01*
X467301Y106008D01*
X467264Y105869D01*
X467227Y105702D01*
X467209Y105527D01*
X467200Y105333D01*
Y107395D01*
X473758D01*
D02*
G37*
%LPD*%
G36*
X472555Y128004D02*
X472546Y127884D01*
Y127754D01*
X472528Y127625D01*
X472518Y127505D01*
X472500Y127403D01*
Y127384D01*
X472481Y127348D01*
X472463Y127292D01*
X472435Y127218D01*
X472398Y127135D01*
X472352Y127051D01*
X472296Y126968D01*
X472231Y126885D01*
X472222Y126876D01*
X472194Y126848D01*
X472148Y126811D01*
X472084Y126765D01*
X472000Y126718D01*
X471899Y126654D01*
X471769Y126608D01*
X471621Y126552D01*
X471612D01*
X471602Y126543D01*
X471575D01*
X471538Y126533D01*
X471501Y126515D01*
X471445Y126506D01*
X471307Y126478D01*
X471140Y126460D01*
X470946Y126432D01*
X470705Y126423D01*
X470446Y126413D01*
X470437D01*
X470409D01*
X470372D01*
X470326D01*
X470261D01*
X470187Y126423D01*
X470030Y126432D01*
X469845Y126450D01*
X469651Y126469D01*
X469475Y126506D01*
X469309Y126552D01*
X469299D01*
X469290Y126561D01*
X469244Y126580D01*
X469170Y126608D01*
X469077Y126645D01*
X468985Y126700D01*
X468883Y126765D01*
X468781Y126839D01*
X468689Y126922D01*
X468680Y126931D01*
X468652Y126959D01*
X468615Y127015D01*
X468569Y127079D01*
X468513Y127172D01*
X468467Y127273D01*
X468421Y127384D01*
X468384Y127514D01*
Y127523D01*
X468374Y127569D01*
X468365Y127644D01*
X468347Y127745D01*
Y127810D01*
X468337Y127893D01*
Y127977D01*
X468328Y128069D01*
Y128180D01*
X468319Y128300D01*
Y129142D01*
X472555D01*
Y128004D01*
D02*
G37*
G36*
X468818Y111993D02*
X468809Y111983D01*
X468800Y111955D01*
X468790Y111918D01*
X468744Y111826D01*
X468689Y111697D01*
X468615Y111539D01*
X468513Y111363D01*
X468384Y111169D01*
X468235Y110966D01*
X468226Y110957D01*
X468217Y110938D01*
X468189Y110910D01*
X468152Y110873D01*
X468060Y110772D01*
X467940Y110661D01*
X467792Y110531D01*
X467606Y110401D01*
X467412Y110281D01*
X467200Y110189D01*
Y112002D01*
X468818D01*
Y111993D01*
D02*
G37*
%LPC*%
G36*
X473637Y48547D02*
X467237D01*
Y45994D01*
X467246Y45920D01*
X467255Y45744D01*
X467264Y45550D01*
X467292Y45347D01*
X467320Y45153D01*
X467366Y44977D01*
Y44967D01*
X467375Y44949D01*
X467384Y44921D01*
X467394Y44884D01*
X467440Y44773D01*
X467505Y44644D01*
X467588Y44496D01*
X467690Y44329D01*
X467810Y44172D01*
X467958Y44015D01*
Y44006D01*
X467977Y43996D01*
X468032Y43950D01*
X468124Y43876D01*
X468245Y43793D01*
X468393Y43691D01*
X468569Y43589D01*
X468772Y43488D01*
X468994Y43404D01*
X469003D01*
X469022Y43395D01*
X469059Y43386D01*
X469105Y43367D01*
X469161Y43358D01*
X469235Y43339D01*
X469318Y43321D01*
X469410Y43293D01*
X469512Y43275D01*
X469632Y43256D01*
X469753Y43238D01*
X469891Y43229D01*
X470178Y43201D01*
X470502Y43191D01*
X467237D01*
X470631D01*
X470705Y43201D01*
X470779D01*
X470872Y43210D01*
X470973Y43219D01*
X471186Y43238D01*
X471408Y43275D01*
X471639Y43330D01*
X471862Y43395D01*
X471871D01*
X471889Y43404D01*
X471926Y43423D01*
X471982Y43441D01*
X472037Y43460D01*
X472102Y43497D01*
X472268Y43571D01*
X472444Y43663D01*
X472639Y43784D01*
X472823Y43922D01*
X472999Y44080D01*
X473018Y44098D01*
X473055Y44144D01*
X473110Y44218D01*
X473184Y44320D01*
X473268Y44449D01*
X473351Y44598D01*
X473434Y44783D01*
X473508Y44986D01*
Y44995D01*
X473517Y45004D01*
Y45032D01*
X473526Y45060D01*
X473545Y45162D01*
X473573Y45291D01*
X473600Y45448D01*
X473619Y45643D01*
X473628Y45874D01*
X473637Y46124D01*
Y43191D01*
D01*
D01*
Y48547D01*
D02*
G37*
G36*
Y42137D02*
X467237D01*
Y40842D01*
X473637D01*
Y42137D01*
D02*
G37*
G36*
X473758Y39834D02*
D01*
Y36689D01*
X473748Y36753D01*
Y36846D01*
X473739Y36948D01*
X473721Y37059D01*
X473702Y37188D01*
X473656Y37457D01*
X473582Y37753D01*
X473480Y38058D01*
X473416Y38197D01*
X473342Y38344D01*
X473332Y38354D01*
X473323Y38372D01*
X473295Y38418D01*
X473258Y38465D01*
X473221Y38530D01*
X473166Y38594D01*
X473101Y38677D01*
X473027Y38761D01*
X472860Y38946D01*
X472648Y39131D01*
X472407Y39307D01*
X472130Y39464D01*
X472121D01*
X472093Y39482D01*
X472047Y39501D01*
X471991Y39519D01*
X471917Y39547D01*
X471834Y39584D01*
X471732Y39612D01*
X471621Y39649D01*
X471501Y39686D01*
X471362Y39713D01*
X471075Y39778D01*
X470761Y39815D01*
X470419Y39834D01*
X470317D01*
X470252Y39825D01*
X470159D01*
X470058Y39815D01*
X469947Y39797D01*
X469817Y39778D01*
X469549Y39732D01*
X469244Y39658D01*
X468938Y39556D01*
X468790Y39492D01*
X468643Y39417D01*
X468633Y39408D01*
X468606Y39399D01*
X468569Y39371D01*
X468513Y39344D01*
X468448Y39297D01*
X468374Y39242D01*
X468291Y39177D01*
X468198Y39112D01*
X468106Y39029D01*
X468004Y38936D01*
X467903Y38835D01*
X467801Y38724D01*
X467708Y38603D01*
X467606Y38483D01*
X467440Y38197D01*
Y38187D01*
X467421Y38169D01*
X467412Y38132D01*
X467384Y38085D01*
X467366Y38021D01*
X467338Y37956D01*
X467310Y37863D01*
X467274Y37771D01*
X467246Y37669D01*
X467218Y37549D01*
X467190Y37420D01*
X467163Y37290D01*
X467126Y36994D01*
X467116Y36661D01*
Y36550D01*
X467126Y36467D01*
X467135Y36365D01*
X467144Y36245D01*
X467153Y36115D01*
X467181Y35976D01*
X467237Y35680D01*
X467329Y35375D01*
X467384Y35218D01*
X467449Y35070D01*
X467523Y34931D01*
X467616Y34802D01*
X467625Y34793D01*
X467634Y34774D01*
X467671Y34737D01*
X467708Y34691D01*
X467755Y34635D01*
X467819Y34580D01*
X467893Y34515D01*
X467977Y34441D01*
X468069Y34367D01*
X468171Y34293D01*
X468282Y34219D01*
X468411Y34154D01*
X468541Y34080D01*
X468680Y34025D01*
X468837Y33969D01*
X468994Y33932D01*
X469235Y35218D01*
X469225D01*
X469216Y35227D01*
X469161Y35246D01*
X469077Y35283D01*
X468966Y35338D01*
X468846Y35403D01*
X468726Y35495D01*
X468606Y35607D01*
X468495Y35736D01*
X468485Y35754D01*
X468448Y35801D01*
X468402Y35884D01*
X468356Y35986D01*
X468300Y36125D01*
X468263Y36282D01*
X468226Y36457D01*
X468217Y36661D01*
Y36744D01*
X468226Y36800D01*
X468235Y36874D01*
X468245Y36957D01*
X468263Y37049D01*
X468282Y37151D01*
X468347Y37364D01*
X468393Y37475D01*
X468448Y37586D01*
X468513Y37697D01*
X468578Y37808D01*
X468670Y37910D01*
X468763Y38012D01*
X468772Y38021D01*
X468790Y38030D01*
X468818Y38058D01*
X468864Y38085D01*
X468920Y38122D01*
X468985Y38169D01*
X469068Y38215D01*
X469161Y38252D01*
X469272Y38298D01*
X469392Y38344D01*
X469521Y38391D01*
X469660Y38428D01*
X469817Y38456D01*
X469993Y38483D01*
X470169Y38493D01*
X470363Y38502D01*
X470372D01*
X470409D01*
X470474D01*
X470548Y38493D01*
X470650Y38483D01*
X470751Y38474D01*
X470881Y38456D01*
X471010Y38437D01*
X471288Y38381D01*
X471575Y38289D01*
X471713Y38234D01*
X471843Y38169D01*
X471973Y38085D01*
X472084Y38002D01*
X472093Y37993D01*
X472111Y37975D01*
X472139Y37947D01*
X472176Y37910D01*
X472213Y37854D01*
X472268Y37799D01*
X472315Y37725D01*
X472370Y37642D01*
X472426Y37549D01*
X472472Y37457D01*
X472565Y37225D01*
X472602Y37096D01*
X472629Y36966D01*
X472648Y36818D01*
X472657Y36670D01*
Y36596D01*
X472648Y36522D01*
X472639Y36411D01*
X472620Y36291D01*
X472592Y36152D01*
X472555Y36004D01*
X472500Y35856D01*
Y35847D01*
X472491Y35838D01*
X472472Y35792D01*
X472435Y35708D01*
X472389Y35616D01*
X472333Y35505D01*
X472268Y35385D01*
X472194Y35264D01*
X472111Y35153D01*
X471288D01*
Y36633D01*
X470206D01*
Y33849D01*
X472777D01*
X472796Y33867D01*
X472814Y33895D01*
X472842Y33923D01*
X472879Y33969D01*
X472916Y34016D01*
X473008Y34145D01*
X473110Y34321D01*
X473231Y34524D01*
X473351Y34756D01*
X473462Y35033D01*
Y35042D01*
X473471Y35070D01*
X473490Y35107D01*
X473508Y35162D01*
X473526Y35236D01*
X473554Y35320D01*
X473582Y35412D01*
X473610Y35514D01*
X473665Y35745D01*
X473711Y36013D01*
X473748Y36291D01*
X473758Y36587D01*
Y33849D01*
D01*
D01*
Y39834D01*
D02*
G37*
G36*
X473637Y30112D02*
X467200D01*
Y27300D01*
X473637D01*
Y28539D01*
Y28530D01*
X469003D01*
X469012Y28539D01*
X469031Y28558D01*
X469059Y28595D01*
X469105Y28651D01*
X469161Y28715D01*
X469216Y28789D01*
X469281Y28882D01*
X469355Y28984D01*
X469429Y29094D01*
X469503Y29215D01*
X469586Y29344D01*
X469660Y29483D01*
X469799Y29779D01*
X469928Y30112D01*
X473637D01*
D01*
D02*
G37*
G36*
Y25459D02*
X467320D01*
Y21260D01*
X468208D01*
X468217Y21269D01*
X468235Y21287D01*
X468263Y21315D01*
X468300Y21352D01*
X468356Y21398D01*
X468421Y21454D01*
X468495Y21519D01*
X468587Y21593D01*
X468689Y21667D01*
X468800Y21750D01*
X468920Y21843D01*
X469050Y21935D01*
X469198Y22027D01*
X469346Y22120D01*
X469512Y22222D01*
X469688Y22323D01*
X469697Y22333D01*
X469734Y22351D01*
X469780Y22379D01*
X469854Y22416D01*
X469938Y22453D01*
X470049Y22509D01*
X470169Y22564D01*
X470298Y22629D01*
X470446Y22693D01*
X470604Y22758D01*
X470770Y22832D01*
X470946Y22897D01*
X471325Y23027D01*
X471723Y23147D01*
X471732D01*
X471769Y23156D01*
X471825Y23175D01*
X471908Y23193D01*
X472000Y23212D01*
X472102Y23230D01*
X472231Y23258D01*
X472361Y23286D01*
X472509Y23313D01*
X472657Y23332D01*
X472981Y23378D01*
X473314Y23406D01*
X473637Y23415D01*
Y21593D01*
Y25459D01*
D02*
G37*
%LPD*%
G36*
X472555Y46115D02*
X472546Y45994D01*
Y45865D01*
X472528Y45735D01*
X472518Y45615D01*
X472500Y45513D01*
Y45495D01*
X472481Y45458D01*
X472463Y45402D01*
X472435Y45328D01*
X472398Y45245D01*
X472352Y45162D01*
X472296Y45079D01*
X472231Y44995D01*
X472222Y44986D01*
X472194Y44958D01*
X472148Y44921D01*
X472084Y44875D01*
X472000Y44829D01*
X471899Y44764D01*
X471769Y44718D01*
X471621Y44662D01*
X471612D01*
X471602Y44653D01*
X471575D01*
X471538Y44644D01*
X471501Y44625D01*
X471445Y44616D01*
X471307Y44588D01*
X471140Y44570D01*
X470946Y44542D01*
X470705Y44533D01*
X470446Y44524D01*
X470437D01*
X470409D01*
X470372D01*
X470326D01*
X470261D01*
X470187Y44533D01*
X470030Y44542D01*
X469845Y44561D01*
X469651Y44579D01*
X469475Y44616D01*
X469309Y44662D01*
X469299D01*
X469290Y44671D01*
X469244Y44690D01*
X469170Y44718D01*
X469077Y44755D01*
X468985Y44810D01*
X468883Y44875D01*
X468781Y44949D01*
X468689Y45032D01*
X468680Y45041D01*
X468652Y45069D01*
X468615Y45125D01*
X468569Y45189D01*
X468513Y45282D01*
X468467Y45384D01*
X468421Y45495D01*
X468384Y45624D01*
Y45634D01*
X468374Y45680D01*
X468365Y45754D01*
X468347Y45856D01*
Y45920D01*
X468337Y46003D01*
Y46087D01*
X468328Y46179D01*
Y46290D01*
X468319Y46411D01*
Y47252D01*
X472555D01*
Y46115D01*
D02*
G37*
G36*
X468818Y30103D02*
X468809Y30094D01*
X468800Y30066D01*
X468790Y30029D01*
X468744Y29936D01*
X468689Y29807D01*
X468615Y29649D01*
X468513Y29474D01*
X468384Y29280D01*
X468235Y29076D01*
X468226Y29067D01*
X468217Y29048D01*
X468189Y29021D01*
X468152Y28984D01*
X468060Y28882D01*
X467940Y28771D01*
X467792Y28641D01*
X467606Y28512D01*
X467412Y28392D01*
X467200Y28299D01*
Y30112D01*
X468818D01*
Y30103D01*
D02*
G37*
G36*
X473637Y24599D02*
X473619D01*
X473582D01*
X473508Y24590D01*
X473406D01*
X473286Y24580D01*
X473147Y24562D01*
X472981Y24543D01*
X472805Y24516D01*
X472611Y24488D01*
X472398Y24451D01*
X472176Y24405D01*
X471936Y24359D01*
X471695Y24294D01*
X471445Y24229D01*
X471196Y24146D01*
X470936Y24053D01*
X470918Y24044D01*
X470872Y24025D01*
X470798Y23998D01*
X470705Y23961D01*
X470585Y23905D01*
X470437Y23841D01*
X470280Y23766D01*
X470104Y23683D01*
X469919Y23591D01*
X469725Y23489D01*
X469512Y23378D01*
X469309Y23248D01*
X468874Y22980D01*
X468458Y22675D01*
Y25459D01*
X473637D01*
Y24599D01*
D02*
G37*
%LPC*%
G36*
Y88705D02*
X467237D01*
Y83349D01*
Y86152D01*
X467246Y86078D01*
X467255Y85902D01*
X467264Y85708D01*
X467292Y85504D01*
X467320Y85310D01*
X467366Y85134D01*
Y85125D01*
X467375Y85106D01*
X467384Y85079D01*
X467394Y85042D01*
X467440Y84931D01*
X467505Y84801D01*
X467588Y84653D01*
X467690Y84487D01*
X467810Y84329D01*
X467958Y84172D01*
Y84163D01*
X467977Y84154D01*
X468032Y84108D01*
X468124Y84034D01*
X468245Y83950D01*
X468393Y83849D01*
X468569Y83747D01*
X468772Y83645D01*
X468994Y83562D01*
X469003D01*
X469022Y83552D01*
X469059Y83543D01*
X469105Y83525D01*
X469161Y83516D01*
X469235Y83497D01*
X469318Y83478D01*
X469410Y83451D01*
X469512Y83432D01*
X469632Y83414D01*
X469753Y83395D01*
X469891Y83386D01*
X470178Y83358D01*
X470502Y83349D01*
X470631D01*
X470705Y83358D01*
X470779D01*
X470872Y83368D01*
X470973Y83377D01*
X471186Y83395D01*
X471408Y83432D01*
X471639Y83488D01*
X471862Y83552D01*
X471871D01*
X471889Y83562D01*
X471926Y83580D01*
X471982Y83599D01*
X472037Y83617D01*
X472102Y83654D01*
X472268Y83728D01*
X472444Y83821D01*
X472639Y83941D01*
X472823Y84080D01*
X472999Y84237D01*
X473018Y84255D01*
X473055Y84302D01*
X473110Y84376D01*
X473184Y84478D01*
X473268Y84607D01*
X473351Y84755D01*
X473434Y84940D01*
X473508Y85144D01*
Y85153D01*
X473517Y85162D01*
Y85190D01*
X473526Y85217D01*
X473545Y85319D01*
X473573Y85449D01*
X473600Y85606D01*
X473619Y85800D01*
X473628Y86032D01*
X473637Y86281D01*
Y88705D01*
D02*
G37*
G36*
Y82294D02*
X467237D01*
Y80999D01*
X473637D01*
Y82294D01*
D02*
G37*
G36*
X473758Y79991D02*
X467116D01*
X470317D01*
X470252Y79982D01*
X470159D01*
X470058Y79973D01*
X469947Y79954D01*
X469817Y79936D01*
X469549Y79890D01*
X469244Y79816D01*
X468938Y79714D01*
X468790Y79649D01*
X468643Y79575D01*
X468633Y79566D01*
X468606Y79557D01*
X468569Y79529D01*
X468513Y79501D01*
X468448Y79455D01*
X468374Y79399D01*
X468291Y79334D01*
X468198Y79270D01*
X468106Y79186D01*
X468004Y79094D01*
X467903Y78992D01*
X467801Y78881D01*
X467708Y78761D01*
X467606Y78641D01*
X467440Y78354D01*
Y78345D01*
X467421Y78326D01*
X467412Y78289D01*
X467384Y78243D01*
X467366Y78178D01*
X467338Y78114D01*
X467310Y78021D01*
X467274Y77929D01*
X467246Y77827D01*
X467218Y77706D01*
X467190Y77577D01*
X467163Y77447D01*
X467126Y77152D01*
X467116Y76819D01*
Y74006D01*
Y76708D01*
X467126Y76624D01*
X467135Y76522D01*
X467144Y76402D01*
X467153Y76273D01*
X467181Y76134D01*
X467237Y75838D01*
X467329Y75533D01*
X467384Y75375D01*
X467449Y75227D01*
X467523Y75089D01*
X467616Y74959D01*
X467625Y74950D01*
X467634Y74932D01*
X467671Y74894D01*
X467708Y74848D01*
X467755Y74793D01*
X467819Y74737D01*
X467893Y74673D01*
X467977Y74598D01*
X468069Y74524D01*
X468171Y74450D01*
X468282Y74376D01*
X468411Y74312D01*
X468541Y74238D01*
X468680Y74182D01*
X468837Y74127D01*
X468994Y74090D01*
X469235Y75375D01*
X469225D01*
X469216Y75385D01*
X469161Y75403D01*
X469077Y75440D01*
X468966Y75496D01*
X468846Y75560D01*
X468726Y75653D01*
X468606Y75764D01*
X468495Y75893D01*
X468485Y75912D01*
X468448Y75958D01*
X468402Y76042D01*
X468356Y76143D01*
X468300Y76282D01*
X468263Y76439D01*
X468226Y76615D01*
X468217Y76819D01*
Y76902D01*
X468226Y76957D01*
X468235Y77031D01*
X468245Y77114D01*
X468263Y77207D01*
X468282Y77309D01*
X468347Y77522D01*
X468393Y77632D01*
X468448Y77744D01*
X468513Y77855D01*
X468578Y77965D01*
X468670Y78067D01*
X468763Y78169D01*
X468772Y78178D01*
X468790Y78188D01*
X468818Y78215D01*
X468864Y78243D01*
X468920Y78280D01*
X468985Y78326D01*
X469068Y78373D01*
X469161Y78409D01*
X469272Y78456D01*
X469392Y78502D01*
X469521Y78548D01*
X469660Y78585D01*
X469817Y78613D01*
X469993Y78641D01*
X470169Y78650D01*
X470363Y78659D01*
X470372D01*
X470409D01*
X470474D01*
X470548Y78650D01*
X470650Y78641D01*
X470751Y78632D01*
X470881Y78613D01*
X471010Y78594D01*
X471288Y78539D01*
X471575Y78447D01*
X471713Y78391D01*
X471843Y78326D01*
X471973Y78243D01*
X472084Y78160D01*
X472093Y78150D01*
X472111Y78132D01*
X472139Y78104D01*
X472176Y78067D01*
X472213Y78012D01*
X472268Y77956D01*
X472315Y77882D01*
X472370Y77799D01*
X472426Y77706D01*
X472472Y77614D01*
X472565Y77383D01*
X472602Y77253D01*
X472629Y77124D01*
X472648Y76976D01*
X472657Y76828D01*
Y76754D01*
X472648Y76680D01*
X472639Y76569D01*
X472620Y76449D01*
X472592Y76310D01*
X472555Y76162D01*
X472500Y76014D01*
Y76004D01*
X472491Y75995D01*
X472472Y75949D01*
X472435Y75866D01*
X472389Y75773D01*
X472333Y75662D01*
X472268Y75542D01*
X472194Y75422D01*
X472111Y75311D01*
X471288D01*
Y76791D01*
X470206D01*
Y74006D01*
X472777D01*
X472796Y74025D01*
X472814Y74053D01*
X472842Y74080D01*
X472879Y74127D01*
X472916Y74173D01*
X473008Y74303D01*
X473110Y74478D01*
X473231Y74682D01*
X473351Y74913D01*
X473462Y75191D01*
Y75200D01*
X473471Y75227D01*
X473490Y75265D01*
X473508Y75320D01*
X473526Y75394D01*
X473554Y75477D01*
X473582Y75570D01*
X473610Y75671D01*
X473665Y75903D01*
X473711Y76171D01*
X473748Y76449D01*
X473758Y76745D01*
Y76846D01*
X473748Y76911D01*
Y77004D01*
X473739Y77105D01*
X473721Y77216D01*
X473702Y77346D01*
X473656Y77614D01*
X473582Y77910D01*
X473480Y78215D01*
X473416Y78354D01*
X473342Y78502D01*
X473332Y78511D01*
X473323Y78530D01*
X473295Y78576D01*
X473258Y78622D01*
X473221Y78687D01*
X473166Y78752D01*
X473101Y78835D01*
X473027Y78918D01*
X472860Y79103D01*
X472648Y79288D01*
X472407Y79464D01*
X472130Y79621D01*
X472121D01*
X472093Y79640D01*
X472047Y79658D01*
X471991Y79677D01*
X471917Y79704D01*
X471834Y79742D01*
X471732Y79769D01*
X471621Y79806D01*
X471501Y79843D01*
X471362Y79871D01*
X471075Y79936D01*
X470761Y79973D01*
X470419Y79991D01*
X473758D01*
D02*
G37*
G36*
X473637Y70270D02*
X467200D01*
Y67457D01*
X473637D01*
Y68688D01*
X469003D01*
X469012Y68697D01*
X469031Y68716D01*
X469059Y68752D01*
X469105Y68808D01*
X469161Y68873D01*
X469216Y68947D01*
X469281Y69039D01*
X469355Y69141D01*
X469429Y69252D01*
X469503Y69372D01*
X469586Y69502D01*
X469660Y69640D01*
X469799Y69937D01*
X469928Y70270D01*
X473637D01*
D01*
D02*
G37*
G36*
X473758Y65598D02*
X467320D01*
Y61288D01*
Y61575D01*
X468467D01*
Y63896D01*
X469558Y64091D01*
Y64081D01*
X469549Y64072D01*
X469521Y64016D01*
X469493Y63933D01*
X469447Y63832D01*
X469410Y63702D01*
X469382Y63563D01*
X469355Y63406D01*
X469346Y63249D01*
Y63165D01*
X469355Y63110D01*
X469364Y63045D01*
X469373Y62962D01*
X469392Y62870D01*
X469419Y62768D01*
X469493Y62555D01*
X469540Y62435D01*
X469595Y62324D01*
X469669Y62204D01*
X469753Y62083D01*
X469845Y61972D01*
X469947Y61861D01*
X469956Y61852D01*
X469975Y61834D01*
X470012Y61806D01*
X470058Y61769D01*
X470113Y61732D01*
X470187Y61676D01*
X470270Y61630D01*
X470363Y61575D01*
X470465Y61519D01*
X470585Y61473D01*
X470715Y61417D01*
X470844Y61380D01*
X470992Y61343D01*
X471149Y61316D01*
X471316Y61297D01*
X471491Y61288D01*
X471565D01*
X471621Y61297D01*
X471695D01*
X471778Y61316D01*
X471871Y61325D01*
X471963Y61343D01*
X472185Y61399D01*
X472426Y61482D01*
X472555Y61537D01*
X472676Y61593D01*
X472796Y61667D01*
X472916Y61750D01*
X472925Y61760D01*
X472953Y61778D01*
X472990Y61815D01*
X473045Y61861D01*
X473110Y61926D01*
X473184Y62009D01*
X473258Y62102D01*
X473332Y62204D01*
X473416Y62324D01*
X473490Y62453D01*
X473563Y62592D01*
X473628Y62749D01*
X473684Y62916D01*
X473721Y63091D01*
X473748Y63286D01*
X473758Y63489D01*
Y63573D01*
X473748Y63637D01*
X473739Y63711D01*
X473730Y63804D01*
X473721Y63896D01*
X473702Y64007D01*
X473647Y64229D01*
X473554Y64479D01*
X473508Y64599D01*
X473443Y64719D01*
X473369Y64830D01*
X473286Y64942D01*
X473277Y64951D01*
X473268Y64969D01*
X473240Y64997D01*
X473203Y65034D01*
X473147Y65071D01*
X473092Y65127D01*
X473027Y65173D01*
X472953Y65228D01*
X472860Y65293D01*
X472768Y65349D01*
X472546Y65450D01*
X472296Y65543D01*
X472157Y65570D01*
X472010Y65598D01*
X471880Y64377D01*
X471899D01*
X471945Y64368D01*
X472028Y64350D01*
X472121Y64322D01*
X472222Y64285D01*
X472333Y64229D01*
X472435Y64155D01*
X472537Y64072D01*
X472546Y64063D01*
X472574Y64026D01*
X472611Y63970D01*
X472657Y63896D01*
X472703Y63813D01*
X472740Y63711D01*
X472768Y63591D01*
X472777Y63471D01*
Y63452D01*
X472768Y63406D01*
X472759Y63332D01*
X472740Y63240D01*
X472703Y63138D01*
X472648Y63027D01*
X472565Y62916D01*
X472463Y62814D01*
X472444Y62805D01*
X472407Y62768D01*
X472333Y62731D01*
X472222Y62675D01*
X472093Y62629D01*
X471936Y62583D01*
X471741Y62555D01*
X471519Y62546D01*
X471510D01*
X471491D01*
X471464D01*
X471418D01*
X471316Y62555D01*
X471186Y62583D01*
X471038Y62611D01*
X470890Y62657D01*
X470751Y62722D01*
X470631Y62814D01*
X470622Y62823D01*
X470585Y62860D01*
X470539Y62925D01*
X470474Y62999D01*
X470419Y63101D01*
X470372Y63221D01*
X470335Y63360D01*
X470326Y63508D01*
Y63563D01*
X470335Y63600D01*
X470354Y63693D01*
X470381Y63822D01*
X470437Y63970D01*
X470520Y64127D01*
X470576Y64211D01*
X470641Y64294D01*
X470715Y64377D01*
X470798Y64460D01*
X470659Y65450D01*
X467320Y64821D01*
Y65598D01*
X473758D01*
D01*
D02*
G37*
%LPD*%
G36*
X472555Y86272D02*
X472546Y86152D01*
Y86022D01*
X472528Y85893D01*
X472518Y85773D01*
X472500Y85671D01*
Y85652D01*
X472481Y85615D01*
X472463Y85560D01*
X472435Y85486D01*
X472398Y85403D01*
X472352Y85319D01*
X472296Y85236D01*
X472231Y85153D01*
X472222Y85144D01*
X472194Y85116D01*
X472148Y85079D01*
X472084Y85032D01*
X472000Y84986D01*
X471899Y84921D01*
X471769Y84875D01*
X471621Y84820D01*
X471612D01*
X471602Y84811D01*
X471575D01*
X471538Y84801D01*
X471501Y84783D01*
X471445Y84773D01*
X471307Y84746D01*
X471140Y84727D01*
X470946Y84699D01*
X470705Y84690D01*
X470446Y84681D01*
X470437D01*
X470409D01*
X470372D01*
X470326D01*
X470261D01*
X470187Y84690D01*
X470030Y84699D01*
X469845Y84718D01*
X469651Y84737D01*
X469475Y84773D01*
X469309Y84820D01*
X469299D01*
X469290Y84829D01*
X469244Y84847D01*
X469170Y84875D01*
X469077Y84912D01*
X468985Y84968D01*
X468883Y85032D01*
X468781Y85106D01*
X468689Y85190D01*
X468680Y85199D01*
X468652Y85227D01*
X468615Y85282D01*
X468569Y85347D01*
X468513Y85439D01*
X468467Y85541D01*
X468421Y85652D01*
X468384Y85782D01*
Y85791D01*
X468374Y85837D01*
X468365Y85911D01*
X468347Y86013D01*
Y86078D01*
X468337Y86161D01*
Y86244D01*
X468328Y86337D01*
Y86448D01*
X468319Y86568D01*
Y87410D01*
X472555D01*
Y86272D01*
D02*
G37*
G36*
X468818Y70260D02*
X468809Y70251D01*
X468800Y70223D01*
X468790Y70186D01*
X468744Y70094D01*
X468689Y69964D01*
X468615Y69807D01*
X468513Y69631D01*
X468384Y69437D01*
X468235Y69234D01*
X468226Y69224D01*
X468217Y69206D01*
X468189Y69178D01*
X468152Y69141D01*
X468060Y69039D01*
X467940Y68928D01*
X467792Y68799D01*
X467606Y68669D01*
X467412Y68549D01*
X467200Y68457D01*
Y70270D01*
X468818D01*
Y70260D01*
D02*
G37*
%LPC*%
G36*
X473637Y170595D02*
X467237D01*
Y165239D01*
Y168042D01*
X467246Y167967D01*
X467255Y167792D01*
X467264Y167597D01*
X467292Y167394D01*
X467320Y167200D01*
X467366Y167024D01*
Y167015D01*
X467375Y166996D01*
X467384Y166969D01*
X467394Y166931D01*
X467440Y166821D01*
X467505Y166691D01*
X467588Y166543D01*
X467690Y166376D01*
X467810Y166219D01*
X467958Y166062D01*
Y166053D01*
X467977Y166043D01*
X468032Y165997D01*
X468124Y165923D01*
X468245Y165840D01*
X468393Y165738D01*
X468569Y165637D01*
X468772Y165535D01*
X468994Y165452D01*
X469003D01*
X469022Y165442D01*
X469059Y165433D01*
X469105Y165415D01*
X469161Y165405D01*
X469235Y165387D01*
X469318Y165368D01*
X469410Y165340D01*
X469512Y165322D01*
X469632Y165304D01*
X469753Y165285D01*
X469891Y165276D01*
X470178Y165248D01*
X470502Y165239D01*
X470631D01*
X470705Y165248D01*
X470779D01*
X470872Y165257D01*
X470973Y165267D01*
X471186Y165285D01*
X471408Y165322D01*
X471639Y165377D01*
X471862Y165442D01*
X471871D01*
X471889Y165452D01*
X471926Y165470D01*
X471982Y165489D01*
X472037Y165507D01*
X472102Y165544D01*
X472268Y165618D01*
X472444Y165710D01*
X472639Y165831D01*
X472823Y165970D01*
X472999Y166127D01*
X473018Y166145D01*
X473055Y166191D01*
X473110Y166265D01*
X473184Y166367D01*
X473268Y166497D01*
X473351Y166645D01*
X473434Y166830D01*
X473508Y167033D01*
Y167043D01*
X473517Y167052D01*
Y167079D01*
X473526Y167107D01*
X473545Y167209D01*
X473573Y167339D01*
X473600Y167496D01*
X473619Y167690D01*
X473628Y167921D01*
X473637Y168171D01*
Y170595D01*
D02*
G37*
G36*
Y164184D02*
X467237D01*
Y162889D01*
X473637D01*
Y164184D01*
D02*
G37*
G36*
X473758Y161881D02*
X467116D01*
X470317D01*
X470252Y161872D01*
X470159D01*
X470058Y161863D01*
X469947Y161844D01*
X469817Y161826D01*
X469549Y161779D01*
X469244Y161705D01*
X468938Y161603D01*
X468790Y161539D01*
X468643Y161465D01*
X468633Y161456D01*
X468606Y161446D01*
X468569Y161418D01*
X468513Y161391D01*
X468448Y161345D01*
X468374Y161289D01*
X468291Y161224D01*
X468198Y161160D01*
X468106Y161076D01*
X468004Y160984D01*
X467903Y160882D01*
X467801Y160771D01*
X467708Y160651D01*
X467606Y160530D01*
X467440Y160244D01*
Y160234D01*
X467421Y160216D01*
X467412Y160179D01*
X467384Y160133D01*
X467366Y160068D01*
X467338Y160003D01*
X467310Y159911D01*
X467274Y159818D01*
X467246Y159716D01*
X467218Y159596D01*
X467190Y159467D01*
X467163Y159337D01*
X467126Y159041D01*
X467116Y158708D01*
Y155896D01*
Y158597D01*
X467126Y158514D01*
X467135Y158412D01*
X467144Y158292D01*
X467153Y158162D01*
X467181Y158024D01*
X467237Y157728D01*
X467329Y157422D01*
X467384Y157265D01*
X467449Y157117D01*
X467523Y156978D01*
X467616Y156849D01*
X467625Y156840D01*
X467634Y156821D01*
X467671Y156784D01*
X467708Y156738D01*
X467755Y156683D01*
X467819Y156627D01*
X467893Y156562D01*
X467977Y156488D01*
X468069Y156414D01*
X468171Y156340D01*
X468282Y156266D01*
X468411Y156202D01*
X468541Y156128D01*
X468680Y156072D01*
X468837Y156017D01*
X468994Y155980D01*
X469235Y157265D01*
X469225D01*
X469216Y157274D01*
X469161Y157293D01*
X469077Y157330D01*
X468966Y157386D01*
X468846Y157450D01*
X468726Y157543D01*
X468606Y157654D01*
X468495Y157783D01*
X468485Y157802D01*
X468448Y157848D01*
X468402Y157931D01*
X468356Y158033D01*
X468300Y158172D01*
X468263Y158329D01*
X468226Y158505D01*
X468217Y158708D01*
Y158791D01*
X468226Y158847D01*
X468235Y158921D01*
X468245Y159004D01*
X468263Y159097D01*
X468282Y159198D01*
X468347Y159411D01*
X468393Y159522D01*
X468448Y159633D01*
X468513Y159744D01*
X468578Y159855D01*
X468670Y159957D01*
X468763Y160059D01*
X468772Y160068D01*
X468790Y160077D01*
X468818Y160105D01*
X468864Y160133D01*
X468920Y160170D01*
X468985Y160216D01*
X469068Y160262D01*
X469161Y160299D01*
X469272Y160345D01*
X469392Y160392D01*
X469521Y160438D01*
X469660Y160475D01*
X469817Y160503D01*
X469993Y160530D01*
X470169Y160540D01*
X470363Y160549D01*
X470372D01*
X470409D01*
X470474D01*
X470548Y160540D01*
X470650Y160530D01*
X470751Y160521D01*
X470881Y160503D01*
X471010Y160484D01*
X471288Y160429D01*
X471575Y160336D01*
X471713Y160281D01*
X471843Y160216D01*
X471973Y160133D01*
X472084Y160049D01*
X472093Y160040D01*
X472111Y160022D01*
X472139Y159994D01*
X472176Y159957D01*
X472213Y159901D01*
X472268Y159846D01*
X472315Y159772D01*
X472370Y159689D01*
X472426Y159596D01*
X472472Y159504D01*
X472565Y159273D01*
X472602Y159143D01*
X472629Y159013D01*
X472648Y158865D01*
X472657Y158718D01*
Y158643D01*
X472648Y158570D01*
X472639Y158458D01*
X472620Y158338D01*
X472592Y158200D01*
X472555Y158052D01*
X472500Y157904D01*
Y157894D01*
X472491Y157885D01*
X472472Y157839D01*
X472435Y157755D01*
X472389Y157663D01*
X472333Y157552D01*
X472268Y157432D01*
X472194Y157311D01*
X472111Y157201D01*
X471288D01*
Y158680D01*
X470206D01*
Y155896D01*
X472777D01*
X472796Y155915D01*
X472814Y155942D01*
X472842Y155970D01*
X472879Y156017D01*
X472916Y156063D01*
X473008Y156192D01*
X473110Y156368D01*
X473231Y156571D01*
X473351Y156803D01*
X473462Y157080D01*
Y157089D01*
X473471Y157117D01*
X473490Y157154D01*
X473508Y157210D01*
X473526Y157284D01*
X473554Y157367D01*
X473582Y157459D01*
X473610Y157561D01*
X473665Y157792D01*
X473711Y158061D01*
X473748Y158338D01*
X473758Y158634D01*
Y158736D01*
X473748Y158801D01*
Y158893D01*
X473739Y158995D01*
X473721Y159106D01*
X473702Y159236D01*
X473656Y159504D01*
X473582Y159800D01*
X473480Y160105D01*
X473416Y160244D01*
X473342Y160392D01*
X473332Y160401D01*
X473323Y160419D01*
X473295Y160466D01*
X473258Y160512D01*
X473221Y160577D01*
X473166Y160642D01*
X473101Y160725D01*
X473027Y160808D01*
X472860Y160993D01*
X472648Y161178D01*
X472407Y161354D01*
X472130Y161511D01*
X472121D01*
X472093Y161530D01*
X472047Y161548D01*
X471991Y161566D01*
X471917Y161594D01*
X471834Y161631D01*
X471732Y161659D01*
X471621Y161696D01*
X471501Y161733D01*
X471362Y161761D01*
X471075Y161826D01*
X470761Y161863D01*
X470419Y161881D01*
X473758D01*
D02*
G37*
G36*
X473637Y152159D02*
X467200D01*
Y149347D01*
X473637D01*
Y150577D01*
X469003D01*
X469012Y150587D01*
X469031Y150605D01*
X469059Y150642D01*
X469105Y150698D01*
X469161Y150762D01*
X469216Y150837D01*
X469281Y150929D01*
X469355Y151031D01*
X469429Y151142D01*
X469503Y151262D01*
X469586Y151391D01*
X469660Y151530D01*
X469799Y151826D01*
X469928Y152159D01*
X473637D01*
D01*
D02*
G37*
G36*
Y147183D02*
X467200D01*
Y144371D01*
X473637D01*
Y145610D01*
Y145601D01*
X469003D01*
X469012Y145610D01*
X469031Y145629D01*
X469059Y145666D01*
X469105Y145721D01*
X469161Y145786D01*
X469216Y145860D01*
X469281Y145952D01*
X469355Y146054D01*
X469429Y146165D01*
X469503Y146285D01*
X469586Y146415D01*
X469660Y146554D01*
X469799Y146850D01*
X469928Y147183D01*
X473637D01*
D01*
D02*
G37*
%LPD*%
G36*
X472555Y168162D02*
X472546Y168042D01*
Y167912D01*
X472528Y167782D01*
X472518Y167662D01*
X472500Y167561D01*
Y167542D01*
X472481Y167505D01*
X472463Y167449D01*
X472435Y167376D01*
X472398Y167292D01*
X472352Y167209D01*
X472296Y167126D01*
X472231Y167043D01*
X472222Y167033D01*
X472194Y167006D01*
X472148Y166969D01*
X472084Y166922D01*
X472000Y166876D01*
X471899Y166811D01*
X471769Y166765D01*
X471621Y166709D01*
X471612D01*
X471602Y166700D01*
X471575D01*
X471538Y166691D01*
X471501Y166673D01*
X471445Y166663D01*
X471307Y166636D01*
X471140Y166617D01*
X470946Y166589D01*
X470705Y166580D01*
X470446Y166571D01*
X470437D01*
X470409D01*
X470372D01*
X470326D01*
X470261D01*
X470187Y166580D01*
X470030Y166589D01*
X469845Y166608D01*
X469651Y166626D01*
X469475Y166663D01*
X469309Y166709D01*
X469299D01*
X469290Y166719D01*
X469244Y166737D01*
X469170Y166765D01*
X469077Y166802D01*
X468985Y166858D01*
X468883Y166922D01*
X468781Y166996D01*
X468689Y167079D01*
X468680Y167089D01*
X468652Y167116D01*
X468615Y167172D01*
X468569Y167237D01*
X468513Y167329D01*
X468467Y167431D01*
X468421Y167542D01*
X468384Y167672D01*
Y167681D01*
X468374Y167727D01*
X468365Y167801D01*
X468347Y167903D01*
Y167967D01*
X468337Y168051D01*
Y168134D01*
X468328Y168227D01*
Y168338D01*
X468319Y168458D01*
Y169299D01*
X472555D01*
Y168162D01*
D02*
G37*
G36*
X468818Y152150D02*
X468809Y152141D01*
X468800Y152113D01*
X468790Y152076D01*
X468744Y151983D01*
X468689Y151854D01*
X468615Y151697D01*
X468513Y151521D01*
X468384Y151327D01*
X468235Y151123D01*
X468226Y151114D01*
X468217Y151095D01*
X468189Y151068D01*
X468152Y151031D01*
X468060Y150929D01*
X467940Y150818D01*
X467792Y150689D01*
X467606Y150559D01*
X467412Y150439D01*
X467200Y150346D01*
Y152159D01*
X468818D01*
Y152150D01*
D02*
G37*
G36*
Y147174D02*
X468809Y147164D01*
X468800Y147136D01*
X468790Y147099D01*
X468744Y147007D01*
X468689Y146878D01*
X468615Y146720D01*
X468513Y146545D01*
X468384Y146350D01*
X468235Y146147D01*
X468226Y146137D01*
X468217Y146119D01*
X468189Y146091D01*
X468152Y146054D01*
X468060Y145952D01*
X467940Y145842D01*
X467792Y145712D01*
X467606Y145582D01*
X467412Y145462D01*
X467200Y145370D01*
Y147183D01*
X468818D01*
Y147174D01*
D02*
G37*
%LPC*%
G36*
X473622Y211933D02*
X467221D01*
Y209380D01*
X467230Y209306D01*
X467240Y209130D01*
X467249Y208936D01*
X467277Y208733D01*
X467304Y208538D01*
X467351Y208363D01*
Y208353D01*
X467360Y208335D01*
X467369Y208307D01*
X467378Y208270D01*
X467424Y208159D01*
X467489Y208030D01*
X467572Y207882D01*
X467674Y207715D01*
X467795Y207558D01*
X467943Y207401D01*
Y207391D01*
X467961Y207382D01*
X468017Y207336D01*
X468109Y207262D01*
X468229Y207179D01*
X468377Y207077D01*
X468553Y206975D01*
X468756Y206873D01*
X468979Y206790D01*
X468988D01*
X469006Y206781D01*
X469043Y206772D01*
X469090Y206753D01*
X469145Y206744D01*
X469219Y206725D01*
X469302Y206707D01*
X469395Y206679D01*
X469497Y206661D01*
X469617Y206642D01*
X469737Y206624D01*
X469876Y206614D01*
X470163Y206587D01*
X470486Y206577D01*
X470616D01*
X470690Y206587D01*
X470764D01*
X470856Y206596D01*
X470958Y206605D01*
X471171Y206624D01*
X471393Y206661D01*
X471624Y206716D01*
X471846Y206781D01*
X471855D01*
X471874Y206790D01*
X471911Y206809D01*
X471966Y206827D01*
X472022Y206846D01*
X472086Y206883D01*
X472253Y206957D01*
X472429Y207049D01*
X472623Y207169D01*
X472808Y207308D01*
X472984Y207465D01*
X473002Y207484D01*
X473039Y207530D01*
X473095Y207604D01*
X473169Y207706D01*
X473252Y207835D01*
X473335Y207983D01*
X473419Y208168D01*
X473493Y208372D01*
Y208381D01*
X473502Y208390D01*
Y208418D01*
X473511Y208446D01*
X473530Y208548D01*
X473557Y208677D01*
X473585Y208834D01*
X473603Y209029D01*
X473613Y209260D01*
X473622Y209510D01*
Y206577D01*
D01*
D01*
Y211933D01*
D02*
G37*
G36*
Y205523D02*
X467221D01*
Y204228D01*
X473622D01*
Y205523D01*
D02*
G37*
G36*
X473742Y203220D02*
D01*
Y200075D01*
X473733Y200139D01*
Y200232D01*
X473724Y200334D01*
X473705Y200445D01*
X473687Y200574D01*
X473640Y200842D01*
X473567Y201138D01*
X473465Y201444D01*
X473400Y201582D01*
X473326Y201730D01*
X473317Y201740D01*
X473308Y201758D01*
X473280Y201804D01*
X473243Y201851D01*
X473206Y201915D01*
X473150Y201980D01*
X473085Y202063D01*
X473011Y202147D01*
X472845Y202332D01*
X472632Y202517D01*
X472392Y202692D01*
X472114Y202850D01*
X472105D01*
X472077Y202868D01*
X472031Y202887D01*
X471976Y202905D01*
X471902Y202933D01*
X471818Y202970D01*
X471717Y202998D01*
X471606Y203035D01*
X471485Y203072D01*
X471347Y203099D01*
X471060Y203164D01*
X470745Y203201D01*
X470403Y203220D01*
X473742D01*
X467101D01*
X470301D01*
X470236Y203210D01*
X470144D01*
X470042Y203201D01*
X469931Y203183D01*
X469802Y203164D01*
X469534Y203118D01*
X469228Y203044D01*
X468923Y202942D01*
X468775Y202877D01*
X468627Y202803D01*
X468618Y202794D01*
X468590Y202785D01*
X468553Y202757D01*
X468498Y202729D01*
X468433Y202683D01*
X468359Y202628D01*
X468276Y202563D01*
X468183Y202498D01*
X468090Y202415D01*
X467989Y202322D01*
X467887Y202221D01*
X467785Y202110D01*
X467693Y201989D01*
X467591Y201869D01*
X467424Y201582D01*
Y201573D01*
X467406Y201555D01*
X467397Y201518D01*
X467369Y201471D01*
X467351Y201407D01*
X467323Y201342D01*
X467295Y201249D01*
X467258Y201157D01*
X467230Y201055D01*
X467203Y200935D01*
X467175Y200805D01*
X467147Y200676D01*
X467110Y200380D01*
X467101Y200047D01*
Y199936D01*
X467110Y199853D01*
X467119Y199751D01*
X467129Y199631D01*
X467138Y199501D01*
X467166Y199362D01*
X467221Y199066D01*
X467314Y198761D01*
X467369Y198604D01*
X467434Y198456D01*
X467508Y198317D01*
X467600Y198188D01*
X467610Y198178D01*
X467619Y198160D01*
X467656Y198123D01*
X467693Y198077D01*
X467739Y198021D01*
X467804Y197966D01*
X467878Y197901D01*
X467961Y197827D01*
X468053Y197753D01*
X468155Y197679D01*
X468266Y197605D01*
X468396Y197540D01*
X468525Y197466D01*
X468664Y197411D01*
X468821Y197355D01*
X468979Y197318D01*
X469219Y198604D01*
X469210D01*
X469201Y198613D01*
X469145Y198632D01*
X469062Y198669D01*
X468951Y198724D01*
X468831Y198789D01*
X468710Y198881D01*
X468590Y198992D01*
X468479Y199122D01*
X468470Y199140D01*
X468433Y199187D01*
X468387Y199270D01*
X468340Y199372D01*
X468285Y199510D01*
X468248Y199668D01*
X468211Y199843D01*
X468202Y200047D01*
Y200130D01*
X468211Y200186D01*
X468220Y200260D01*
X468229Y200343D01*
X468248Y200435D01*
X468266Y200537D01*
X468331Y200750D01*
X468377Y200861D01*
X468433Y200972D01*
X468498Y201083D01*
X468562Y201194D01*
X468655Y201296D01*
X468747Y201397D01*
X468756Y201407D01*
X468775Y201416D01*
X468803Y201444D01*
X468849Y201471D01*
X468905Y201508D01*
X468969Y201555D01*
X469053Y201601D01*
X469145Y201638D01*
X469256Y201684D01*
X469376Y201730D01*
X469506Y201777D01*
X469644Y201814D01*
X469802Y201841D01*
X469978Y201869D01*
X470153Y201878D01*
X470347Y201888D01*
X470357D01*
X470394D01*
X470459D01*
X470533Y201878D01*
X470634Y201869D01*
X470736Y201860D01*
X470865Y201841D01*
X470995Y201823D01*
X471273Y201767D01*
X471559Y201675D01*
X471698Y201619D01*
X471828Y201555D01*
X471957Y201471D01*
X472068Y201388D01*
X472077Y201379D01*
X472096Y201360D01*
X472123Y201333D01*
X472160Y201296D01*
X472197Y201240D01*
X472253Y201185D01*
X472299Y201111D01*
X472355Y201027D01*
X472410Y200935D01*
X472457Y200842D01*
X472549Y200611D01*
X472586Y200482D01*
X472614Y200352D01*
X472632Y200204D01*
X472642Y200056D01*
Y199982D01*
X472632Y199908D01*
X472623Y199797D01*
X472605Y199677D01*
X472577Y199538D01*
X472540Y199390D01*
X472484Y199242D01*
Y199233D01*
X472475Y199224D01*
X472457Y199177D01*
X472420Y199094D01*
X472373Y199002D01*
X472318Y198891D01*
X472253Y198770D01*
X472179Y198650D01*
X472096Y198539D01*
X471273D01*
Y200019D01*
X470190D01*
Y197235D01*
X472762D01*
X472780Y197253D01*
X472799Y197281D01*
X472827Y197309D01*
X472864Y197355D01*
X472901Y197401D01*
X472993Y197531D01*
X473095Y197707D01*
X473215Y197910D01*
X473335Y198141D01*
X473446Y198419D01*
Y198428D01*
X473456Y198456D01*
X473474Y198493D01*
X473493Y198548D01*
X473511Y198622D01*
X473539Y198706D01*
X473567Y198798D01*
X473594Y198900D01*
X473650Y199131D01*
X473696Y199399D01*
X473733Y199677D01*
X473742Y199973D01*
Y197235D01*
D01*
D01*
Y203220D01*
D02*
G37*
G36*
Y193822D02*
X467184D01*
X470283D01*
X470163Y193812D01*
X470014Y193803D01*
X469839Y193785D01*
X469654Y193766D01*
X469450Y193748D01*
X469238Y193711D01*
X469025Y193674D01*
X468803Y193618D01*
X468590Y193563D01*
X468387Y193489D01*
X468192Y193405D01*
X468007Y193313D01*
X467850Y193202D01*
X467841Y193193D01*
X467822Y193174D01*
X467785Y193146D01*
X467748Y193100D01*
X467693Y193054D01*
X467637Y192989D01*
X467582Y192906D01*
X467517Y192823D01*
X467452Y192721D01*
X467397Y192619D01*
X467341Y192499D01*
X467286Y192369D01*
X467249Y192231D01*
X467212Y192073D01*
X467193Y191916D01*
X467184Y191750D01*
D01*
D01*
Y191657D01*
X467193Y191592D01*
X467203Y191518D01*
X467221Y191426D01*
X467240Y191333D01*
X467267Y191222D01*
X467304Y191102D01*
X467351Y190991D01*
X467397Y190871D01*
X467461Y190751D01*
X467545Y190630D01*
X467628Y190510D01*
X467730Y190399D01*
X467850Y190297D01*
X467859Y190288D01*
X467887Y190270D01*
X467933Y190242D01*
X467998Y190196D01*
X468090Y190149D01*
X468202Y190094D01*
X468322Y190038D01*
X468479Y189983D01*
X468646Y189927D01*
X468840Y189863D01*
X469053Y189816D01*
X469293Y189770D01*
X469552Y189724D01*
X469830Y189696D01*
X470135Y189678D01*
X470468Y189668D01*
X470644D01*
X470764Y189678D01*
X470912Y189687D01*
X471088Y189705D01*
X471273Y189724D01*
X471476Y189742D01*
X471689Y189779D01*
X471911Y189826D01*
X472123Y189872D01*
X472336Y189937D01*
X472549Y190001D01*
X472743Y190094D01*
X472928Y190186D01*
X473085Y190297D01*
X473095Y190307D01*
X473113Y190325D01*
X473150Y190353D01*
X473187Y190390D01*
X473234Y190445D01*
X473289Y190510D01*
X473354Y190593D01*
X473409Y190677D01*
X473474Y190778D01*
X473539Y190880D01*
X473594Y191000D01*
X473640Y191130D01*
X473677Y191269D01*
X473714Y191426D01*
X473733Y191583D01*
X473742Y191750D01*
Y190390D01*
Y191907D01*
Y191787D01*
X473733Y191842D01*
Y191907D01*
X473724Y191981D01*
X473705Y192073D01*
X473687Y192175D01*
X473650Y192286D01*
X473613Y192406D01*
X473567Y192527D01*
X473511Y192656D01*
X473437Y192776D01*
X473363Y192906D01*
X473261Y193026D01*
X473160Y193146D01*
X473030Y193257D01*
X473021Y193267D01*
X472993Y193285D01*
X472947Y193313D01*
X472891Y193341D01*
X472808Y193387D01*
X472706Y193433D01*
X472577Y193489D01*
X472438Y193535D01*
X472272Y193590D01*
X472086Y193646D01*
X471874Y193692D01*
X471643Y193729D01*
X471384Y193766D01*
X471097Y193794D01*
X470792Y193812D01*
X470459Y193822D01*
X473742D01*
D02*
G37*
G36*
Y188938D02*
X467184D01*
X469275D01*
X469201Y188928D01*
X469117Y188919D01*
X469025Y188910D01*
X468914Y188891D01*
X468803Y188864D01*
X468553Y188799D01*
X468414Y188753D01*
X468285Y188697D01*
X468155Y188632D01*
X468026Y188549D01*
X467906Y188466D01*
X467785Y188364D01*
X467776Y188355D01*
X467758Y188336D01*
X467730Y188309D01*
X467693Y188262D01*
X467647Y188198D01*
X467591Y188133D01*
X467545Y188050D01*
X467480Y187957D01*
X467424Y187865D01*
X467378Y187744D01*
X467323Y187624D01*
X467277Y187495D01*
X467240Y187356D01*
X467212Y187208D01*
X467193Y187060D01*
X467184Y186893D01*
Y186847D01*
X467193Y186801D01*
Y186727D01*
X467203Y186644D01*
X467221Y186551D01*
X467249Y186440D01*
X467277Y186329D01*
X467323Y186200D01*
X467369Y186070D01*
X467434Y185941D01*
X467508Y185802D01*
X467591Y185672D01*
X467693Y185543D01*
X467813Y185413D01*
X467943Y185293D01*
X467952Y185284D01*
X467980Y185265D01*
X468026Y185238D01*
X468090Y185191D01*
X468174Y185145D01*
X468276Y185090D01*
X468396Y185034D01*
X468535Y184979D01*
X468701Y184923D01*
X468886Y184858D01*
X469090Y184812D01*
X469312Y184766D01*
X469561Y184720D01*
X469830Y184692D01*
X470116Y184673D01*
X470431Y184664D01*
X470597D01*
X470718Y184673D01*
X470865Y184683D01*
X471032Y184701D01*
X471208Y184720D01*
X471402Y184747D01*
X471615Y184784D01*
X471818Y184821D01*
X472031Y184877D01*
X472244Y184942D01*
X472438Y185016D01*
X472632Y185108D01*
X472808Y185201D01*
X472965Y185321D01*
X472974Y185330D01*
X473002Y185349D01*
X473039Y185386D01*
X473085Y185441D01*
X473141Y185506D01*
X473215Y185580D01*
X473280Y185672D01*
X473354Y185774D01*
X473428Y185885D01*
X473493Y186015D01*
X473557Y186153D01*
X473622Y186301D01*
X473668Y186468D01*
X473705Y186634D01*
X473733Y186810D01*
X473742Y187004D01*
Y184664D01*
D01*
D01*
Y187078D01*
X473733Y187125D01*
Y187189D01*
X473724Y187263D01*
X473696Y187439D01*
X473640Y187633D01*
X473576Y187828D01*
X473474Y188031D01*
X473419Y188124D01*
X473345Y188216D01*
X473335Y188225D01*
X473326Y188235D01*
X473298Y188262D01*
X473271Y188290D01*
X473224Y188327D01*
X473178Y188373D01*
X473113Y188410D01*
X473048Y188466D01*
X472965Y188512D01*
X472882Y188568D01*
X472780Y188614D01*
X472669Y188660D01*
X472558Y188706D01*
X472429Y188743D01*
X472299Y188780D01*
X472151Y188808D01*
X472013Y187624D01*
X472031D01*
X472077Y187615D01*
X472142Y187606D01*
X472216Y187578D01*
X472309Y187550D01*
X472401Y187513D01*
X472484Y187467D01*
X472558Y187402D01*
X472568Y187393D01*
X472586Y187365D01*
X472614Y187328D01*
X472642Y187273D01*
X472669Y187199D01*
X472697Y187125D01*
X472716Y187023D01*
X472725Y186921D01*
Y186903D01*
X472716Y186856D01*
X472706Y186792D01*
X472679Y186699D01*
X472642Y186597D01*
X472577Y186496D01*
X472494Y186385D01*
X472382Y186283D01*
X472364Y186274D01*
X472346Y186255D01*
X472309Y186237D01*
X472272Y186218D01*
X472216Y186190D01*
X472151Y186172D01*
X472068Y186135D01*
X471976Y186107D01*
X471874Y186079D01*
X471754Y186052D01*
X471624Y186024D01*
X471476Y185996D01*
X471310Y185978D01*
X471125Y185959D01*
X470930Y185941D01*
X470939Y185950D01*
X470949Y185959D01*
X470977Y185987D01*
X471014Y186024D01*
X471051Y186070D01*
X471097Y186126D01*
X471199Y186255D01*
X471300Y186422D01*
X471384Y186625D01*
X471421Y186736D01*
X471439Y186847D01*
X471457Y186967D01*
X471467Y187097D01*
Y187171D01*
X471457Y187226D01*
X471448Y187291D01*
X471439Y187365D01*
X471393Y187541D01*
X471328Y187744D01*
X471273Y187846D01*
X471217Y187957D01*
X471152Y188068D01*
X471078Y188179D01*
X470986Y188290D01*
X470884Y188392D01*
X470875Y188401D01*
X470856Y188420D01*
X470819Y188438D01*
X470782Y188475D01*
X470718Y188521D01*
X470653Y188568D01*
X470570Y188614D01*
X470477Y188660D01*
X470375Y188716D01*
X470255Y188762D01*
X470135Y188808D01*
X469996Y188854D01*
X469857Y188891D01*
X469700Y188910D01*
X469534Y188928D01*
X469367Y188938D01*
X473742D01*
D02*
G37*
%LPD*%
G36*
X472540Y209500D02*
X472531Y209380D01*
Y209251D01*
X472512Y209121D01*
X472503Y209001D01*
X472484Y208899D01*
Y208881D01*
X472466Y208844D01*
X472447Y208788D01*
X472420Y208714D01*
X472382Y208631D01*
X472336Y208548D01*
X472281Y208464D01*
X472216Y208381D01*
X472207Y208372D01*
X472179Y208344D01*
X472133Y208307D01*
X472068Y208261D01*
X471985Y208215D01*
X471883Y208150D01*
X471754Y208104D01*
X471606Y208048D01*
X471596D01*
X471587Y208039D01*
X471559D01*
X471522Y208030D01*
X471485Y208011D01*
X471430Y208002D01*
X471291Y207974D01*
X471125Y207956D01*
X470930Y207928D01*
X470690Y207919D01*
X470431Y207909D01*
X470422D01*
X470394D01*
X470357D01*
X470310D01*
X470246D01*
X470172Y207919D01*
X470014Y207928D01*
X469830Y207946D01*
X469635Y207965D01*
X469460Y208002D01*
X469293Y208048D01*
X469284D01*
X469275Y208057D01*
X469228Y208076D01*
X469154Y208104D01*
X469062Y208141D01*
X468969Y208196D01*
X468868Y208261D01*
X468766Y208335D01*
X468673Y208418D01*
X468664Y208427D01*
X468636Y208455D01*
X468599Y208511D01*
X468553Y208575D01*
X468498Y208668D01*
X468451Y208770D01*
X468405Y208881D01*
X468368Y209010D01*
Y209019D01*
X468359Y209066D01*
X468350Y209140D01*
X468331Y209241D01*
Y209306D01*
X468322Y209389D01*
Y209473D01*
X468313Y209565D01*
Y209676D01*
X468303Y209796D01*
Y210638D01*
X472540D01*
Y209500D01*
D02*
G37*
G36*
X470847Y192517D02*
X470967D01*
X471088Y192508D01*
X471347Y192499D01*
X471606Y192480D01*
X471726Y192471D01*
X471837Y192453D01*
X471939Y192434D01*
X472031Y192416D01*
X472050Y192406D01*
X472096Y192397D01*
X472170Y192369D01*
X472253Y192342D01*
X472346Y192295D01*
X472438Y192249D01*
X472521Y192194D01*
X472586Y192138D01*
X472595Y192129D01*
X472605Y192110D01*
X472632Y192073D01*
X472651Y192027D01*
X472679Y191972D01*
X472706Y191907D01*
X472716Y191833D01*
X472725Y191750D01*
Y191713D01*
X472716Y191666D01*
X472706Y191620D01*
X472688Y191555D01*
X472669Y191491D01*
X472632Y191426D01*
X472586Y191361D01*
X472577Y191352D01*
X472558Y191333D01*
X472521Y191296D01*
X472466Y191259D01*
X472401Y191222D01*
X472309Y191176D01*
X472207Y191130D01*
X472077Y191093D01*
X472068D01*
X472059Y191084D01*
X472022D01*
X471985Y191074D01*
X471929Y191065D01*
X471865Y191056D01*
X471791Y191037D01*
X471698Y191028D01*
X471596Y191019D01*
X471476Y191000D01*
X471347Y190991D01*
X471199Y190982D01*
X471041Y190973D01*
X470865D01*
X470671Y190963D01*
X470468D01*
X470459D01*
X470422D01*
X470357D01*
X470283D01*
X470190D01*
X470089Y190973D01*
X469968D01*
X469848Y190982D01*
X469589Y190991D01*
X469339Y191010D01*
X469219Y191028D01*
X469099Y191047D01*
X468997Y191065D01*
X468914Y191084D01*
X468905D01*
X468895Y191093D01*
X468849Y191102D01*
X468775Y191130D01*
X468682Y191158D01*
X468590Y191204D01*
X468498Y191250D01*
X468414Y191306D01*
X468350Y191361D01*
X468340Y191370D01*
X468322Y191389D01*
X468303Y191426D01*
X468276Y191472D01*
X468248Y191528D01*
X468220Y191592D01*
X468211Y191666D01*
X468202Y191750D01*
Y191787D01*
X468211Y191833D01*
X468220Y191879D01*
X468239Y191944D01*
X468266Y192009D01*
X468303Y192083D01*
X468350Y192147D01*
X468359Y192157D01*
X468377Y192175D01*
X468414Y192203D01*
X468461Y192240D01*
X468535Y192286D01*
X468618Y192323D01*
X468729Y192369D01*
X468858Y192406D01*
X468868D01*
X468877Y192416D01*
X468914D01*
X468951Y192425D01*
X469006Y192434D01*
X469071Y192443D01*
X469145Y192453D01*
X469238Y192462D01*
X469348Y192480D01*
X469460Y192490D01*
X469598Y192499D01*
X469737Y192508D01*
X469904Y192517D01*
X470070D01*
X470264Y192527D01*
X470468D01*
X470477D01*
X470514D01*
X470579D01*
X470653D01*
X470745D01*
X470847Y192517D01*
D02*
G37*
G36*
X469580Y187726D02*
X469709Y187707D01*
X469867Y187680D01*
X470014Y187633D01*
X470163Y187578D01*
X470283Y187495D01*
X470292Y187485D01*
X470329Y187448D01*
X470375Y187402D01*
X470422Y187328D01*
X470477Y187236D01*
X470523Y187134D01*
X470560Y187014D01*
X470570Y186884D01*
Y186866D01*
X470560Y186829D01*
X470551Y186764D01*
X470533Y186681D01*
X470505Y186588D01*
X470449Y186486D01*
X470385Y186385D01*
X470292Y186292D01*
X470283Y186283D01*
X470236Y186255D01*
X470172Y186209D01*
X470089Y186163D01*
X469968Y186126D01*
X469830Y186079D01*
X469663Y186052D01*
X469469Y186042D01*
X469460D01*
X469441D01*
X469413D01*
X469367D01*
X469265Y186061D01*
X469127Y186079D01*
X468979Y186107D01*
X468821Y186163D01*
X468673Y186227D01*
X468535Y186320D01*
X468516Y186329D01*
X468479Y186366D01*
X468433Y186422D01*
X468368Y186496D01*
X468303Y186588D01*
X468257Y186699D01*
X468220Y186819D01*
X468202Y186949D01*
Y187004D01*
X468220Y187069D01*
X468239Y187143D01*
X468266Y187236D01*
X468322Y187328D01*
X468387Y187421D01*
X468479Y187513D01*
X468488Y187522D01*
X468535Y187550D01*
X468599Y187587D01*
X468692Y187624D01*
X468812Y187661D01*
X468969Y187698D01*
X469154Y187726D01*
X469367Y187735D01*
X469376D01*
X469395D01*
X469422D01*
X469469D01*
X469580Y187726D01*
D02*
G37*
%LPC*%
G36*
X473637Y250122D02*
X467237D01*
Y247569D01*
X467246Y247495D01*
X467255Y247319D01*
X467264Y247125D01*
X467292Y246921D01*
X467320Y246727D01*
X467366Y246551D01*
Y246542D01*
X467375Y246524D01*
X467384Y246496D01*
X467394Y246459D01*
X467440Y246348D01*
X467505Y246219D01*
X467588Y246071D01*
X467690Y245904D01*
X467810Y245747D01*
X467958Y245590D01*
Y245580D01*
X467977Y245571D01*
X468032Y245525D01*
X468124Y245451D01*
X468245Y245368D01*
X468393Y245266D01*
X468569Y245164D01*
X468772Y245062D01*
X468994Y244979D01*
X469003D01*
X469022Y244970D01*
X469059Y244961D01*
X469105Y244942D01*
X469161Y244933D01*
X469235Y244914D01*
X469318Y244896D01*
X469410Y244868D01*
X469512Y244849D01*
X469632Y244831D01*
X469753Y244813D01*
X469891Y244803D01*
X470178Y244776D01*
X470502Y244766D01*
X467237D01*
X470631D01*
X470705Y244776D01*
X470779D01*
X470872Y244785D01*
X470973Y244794D01*
X471186Y244813D01*
X471408Y244849D01*
X471639Y244905D01*
X471862Y244970D01*
X471871D01*
X471889Y244979D01*
X471926Y244998D01*
X471982Y245016D01*
X472037Y245035D01*
X472102Y245072D01*
X472268Y245146D01*
X472444Y245238D01*
X472639Y245358D01*
X472823Y245497D01*
X472999Y245654D01*
X473018Y245673D01*
X473055Y245719D01*
X473110Y245793D01*
X473184Y245895D01*
X473268Y246024D01*
X473351Y246172D01*
X473434Y246357D01*
X473508Y246561D01*
Y246570D01*
X473517Y246579D01*
Y246607D01*
X473526Y246635D01*
X473545Y246737D01*
X473573Y246866D01*
X473600Y247023D01*
X473619Y247217D01*
X473628Y247449D01*
X473637Y247698D01*
Y244766D01*
D01*
Y250122D01*
D02*
G37*
G36*
Y243712D02*
X467237D01*
Y242417D01*
X473637D01*
Y243712D01*
D02*
G37*
G36*
X473758Y241409D02*
D01*
Y238264D01*
X473748Y238328D01*
Y238421D01*
X473739Y238523D01*
X473721Y238634D01*
X473702Y238763D01*
X473656Y239031D01*
X473582Y239327D01*
X473480Y239633D01*
X473416Y239771D01*
X473342Y239919D01*
X473332Y239929D01*
X473323Y239947D01*
X473295Y239993D01*
X473258Y240040D01*
X473221Y240104D01*
X473166Y240169D01*
X473101Y240252D01*
X473027Y240336D01*
X472860Y240521D01*
X472648Y240705D01*
X472407Y240881D01*
X472130Y241038D01*
X472121D01*
X472093Y241057D01*
X472047Y241076D01*
X471991Y241094D01*
X471917Y241122D01*
X471834Y241159D01*
X471732Y241186D01*
X471621Y241224D01*
X471501Y241261D01*
X471362Y241288D01*
X471075Y241353D01*
X470761Y241390D01*
X470419Y241409D01*
X473758D01*
X467116D01*
X470317D01*
X470252Y241399D01*
X470159D01*
X470058Y241390D01*
X469947Y241371D01*
X469817Y241353D01*
X469549Y241307D01*
X469244Y241233D01*
X468938Y241131D01*
X468790Y241066D01*
X468643Y240992D01*
X468633Y240983D01*
X468606Y240974D01*
X468569Y240946D01*
X468513Y240918D01*
X468448Y240872D01*
X468374Y240817D01*
X468291Y240752D01*
X468198Y240687D01*
X468106Y240604D01*
X468004Y240511D01*
X467903Y240409D01*
X467801Y240299D01*
X467708Y240178D01*
X467606Y240058D01*
X467440Y239771D01*
Y239762D01*
X467421Y239744D01*
X467412Y239707D01*
X467384Y239660D01*
X467366Y239596D01*
X467338Y239531D01*
X467310Y239438D01*
X467274Y239346D01*
X467246Y239244D01*
X467218Y239124D01*
X467190Y238994D01*
X467163Y238865D01*
X467126Y238569D01*
X467116Y238236D01*
Y238125D01*
X467126Y238042D01*
X467135Y237940D01*
X467144Y237820D01*
X467153Y237690D01*
X467181Y237551D01*
X467237Y237255D01*
X467329Y236950D01*
X467384Y236793D01*
X467449Y236645D01*
X467523Y236506D01*
X467616Y236377D01*
X467625Y236367D01*
X467634Y236349D01*
X467671Y236312D01*
X467708Y236265D01*
X467755Y236210D01*
X467819Y236155D01*
X467893Y236090D01*
X467977Y236016D01*
X468069Y235942D01*
X468171Y235868D01*
X468282Y235794D01*
X468411Y235729D01*
X468541Y235655D01*
X468680Y235599D01*
X468837Y235544D01*
X468994Y235507D01*
X469235Y236793D01*
X469225D01*
X469216Y236802D01*
X469161Y236821D01*
X469077Y236858D01*
X468966Y236913D01*
X468846Y236978D01*
X468726Y237070D01*
X468606Y237181D01*
X468495Y237311D01*
X468485Y237329D01*
X468448Y237376D01*
X468402Y237459D01*
X468356Y237561D01*
X468300Y237699D01*
X468263Y237857D01*
X468226Y238032D01*
X468217Y238236D01*
Y238319D01*
X468226Y238374D01*
X468235Y238449D01*
X468245Y238532D01*
X468263Y238624D01*
X468282Y238726D01*
X468347Y238939D01*
X468393Y239050D01*
X468448Y239161D01*
X468513Y239272D01*
X468578Y239383D01*
X468670Y239485D01*
X468763Y239586D01*
X468772Y239596D01*
X468790Y239605D01*
X468818Y239633D01*
X468864Y239660D01*
X468920Y239697D01*
X468985Y239744D01*
X469068Y239790D01*
X469161Y239827D01*
X469272Y239873D01*
X469392Y239919D01*
X469521Y239966D01*
X469660Y240003D01*
X469817Y240030D01*
X469993Y240058D01*
X470169Y240067D01*
X470363Y240076D01*
X470372D01*
X470409D01*
X470474D01*
X470548Y240067D01*
X470650Y240058D01*
X470751Y240049D01*
X470881Y240030D01*
X471010Y240012D01*
X471288Y239956D01*
X471575Y239864D01*
X471713Y239808D01*
X471843Y239744D01*
X471973Y239660D01*
X472084Y239577D01*
X472093Y239568D01*
X472111Y239549D01*
X472139Y239522D01*
X472176Y239485D01*
X472213Y239429D01*
X472268Y239373D01*
X472315Y239300D01*
X472370Y239216D01*
X472426Y239124D01*
X472472Y239031D01*
X472565Y238800D01*
X472602Y238671D01*
X472629Y238541D01*
X472648Y238393D01*
X472657Y238245D01*
Y238171D01*
X472648Y238097D01*
X472639Y237986D01*
X472620Y237866D01*
X472592Y237727D01*
X472555Y237579D01*
X472500Y237431D01*
Y237422D01*
X472491Y237413D01*
X472472Y237366D01*
X472435Y237283D01*
X472389Y237191D01*
X472333Y237080D01*
X472268Y236959D01*
X472194Y236839D01*
X472111Y236728D01*
X471288D01*
Y238208D01*
X470206D01*
Y235424D01*
X472777D01*
X472796Y235442D01*
X472814Y235470D01*
X472842Y235498D01*
X472879Y235544D01*
X472916Y235590D01*
X473008Y235720D01*
X473110Y235896D01*
X473231Y236099D01*
X473351Y236330D01*
X473462Y236608D01*
Y236617D01*
X473471Y236645D01*
X473490Y236682D01*
X473508Y236737D01*
X473526Y236811D01*
X473554Y236894D01*
X473582Y236987D01*
X473610Y237089D01*
X473665Y237320D01*
X473711Y237588D01*
X473748Y237866D01*
X473758Y238162D01*
Y235424D01*
D01*
D01*
Y241409D01*
D02*
G37*
G36*
Y232011D02*
X467200D01*
X470298D01*
X470178Y232001D01*
X470030Y231992D01*
X469854Y231974D01*
X469669Y231955D01*
X469466Y231937D01*
X469253Y231899D01*
X469040Y231863D01*
X468818Y231807D01*
X468606Y231751D01*
X468402Y231678D01*
X468208Y231594D01*
X468023Y231502D01*
X467866Y231391D01*
X467856Y231382D01*
X467838Y231363D01*
X467801Y231335D01*
X467764Y231289D01*
X467708Y231243D01*
X467653Y231178D01*
X467597Y231095D01*
X467532Y231012D01*
X467468Y230910D01*
X467412Y230808D01*
X467357Y230688D01*
X467301Y230558D01*
X467264Y230419D01*
X467227Y230262D01*
X467209Y230105D01*
X467200Y229939D01*
D01*
D01*
Y229846D01*
X467209Y229781D01*
X467218Y229707D01*
X467237Y229615D01*
X467255Y229522D01*
X467283Y229411D01*
X467320Y229291D01*
X467366Y229180D01*
X467412Y229060D01*
X467477Y228940D01*
X467560Y228819D01*
X467643Y228699D01*
X467745Y228588D01*
X467866Y228486D01*
X467875Y228477D01*
X467903Y228459D01*
X467949Y228431D01*
X468013Y228384D01*
X468106Y228338D01*
X468217Y228283D01*
X468337Y228227D01*
X468495Y228172D01*
X468661Y228116D01*
X468855Y228051D01*
X469068Y228005D01*
X469309Y227959D01*
X469567Y227913D01*
X469845Y227885D01*
X470150Y227867D01*
X470483Y227857D01*
X470659D01*
X470779Y227867D01*
X470927Y227876D01*
X471103Y227894D01*
X471288Y227913D01*
X471491Y227931D01*
X471704Y227968D01*
X471926Y228015D01*
X472139Y228061D01*
X472352Y228126D01*
X472565Y228190D01*
X472759Y228283D01*
X472944Y228375D01*
X473101Y228486D01*
X473110Y228496D01*
X473129Y228514D01*
X473166Y228542D01*
X473203Y228579D01*
X473249Y228634D01*
X473305Y228699D01*
X473369Y228782D01*
X473425Y228866D01*
X473490Y228967D01*
X473554Y229069D01*
X473610Y229189D01*
X473656Y229319D01*
X473693Y229457D01*
X473730Y229615D01*
X473748Y229772D01*
X473758Y229939D01*
Y228579D01*
Y230096D01*
Y229976D01*
X473748Y230031D01*
Y230096D01*
X473739Y230170D01*
X473721Y230262D01*
X473702Y230364D01*
X473665Y230475D01*
X473628Y230595D01*
X473582Y230715D01*
X473526Y230845D01*
X473453Y230965D01*
X473379Y231095D01*
X473277Y231215D01*
X473175Y231335D01*
X473045Y231446D01*
X473036Y231455D01*
X473008Y231474D01*
X472962Y231502D01*
X472907Y231530D01*
X472823Y231576D01*
X472722Y231622D01*
X472592Y231678D01*
X472453Y231724D01*
X472287Y231779D01*
X472102Y231835D01*
X471889Y231881D01*
X471658Y231918D01*
X471399Y231955D01*
X471112Y231983D01*
X470807Y232001D01*
X470474Y232011D01*
X473758D01*
D02*
G37*
G36*
X473637Y227034D02*
D01*
Y226174D01*
X473619D01*
X473582D01*
X473508Y226165D01*
X473406D01*
X473286Y226155D01*
X473147Y226137D01*
X472981Y226118D01*
X472805Y226091D01*
X472611Y226063D01*
X472398Y226026D01*
X472176Y225980D01*
X471936Y225933D01*
X471695Y225869D01*
X471445Y225804D01*
X471196Y225721D01*
X470936Y225628D01*
X470918Y225619D01*
X470872Y225600D01*
X470798Y225573D01*
X470705Y225536D01*
X470585Y225480D01*
X470437Y225415D01*
X470280Y225341D01*
X470104Y225258D01*
X469919Y225166D01*
X469725Y225064D01*
X469512Y224953D01*
X469309Y224823D01*
X468874Y224555D01*
X468458Y224250D01*
Y227034D01*
X473637D01*
X467320D01*
Y222834D01*
X473637D01*
Y227034D01*
D02*
G37*
%LPD*%
G36*
X472555Y247689D02*
X472546Y247569D01*
Y247440D01*
X472528Y247310D01*
X472518Y247190D01*
X472500Y247088D01*
Y247070D01*
X472481Y247032D01*
X472463Y246977D01*
X472435Y246903D01*
X472398Y246820D01*
X472352Y246737D01*
X472296Y246653D01*
X472231Y246570D01*
X472222Y246561D01*
X472194Y246533D01*
X472148Y246496D01*
X472084Y246450D01*
X472000Y246404D01*
X471899Y246339D01*
X471769Y246292D01*
X471621Y246237D01*
X471612D01*
X471602Y246228D01*
X471575D01*
X471538Y246219D01*
X471501Y246200D01*
X471445Y246191D01*
X471307Y246163D01*
X471140Y246145D01*
X470946Y246117D01*
X470705Y246108D01*
X470446Y246098D01*
X470437D01*
X470409D01*
X470372D01*
X470326D01*
X470261D01*
X470187Y246108D01*
X470030Y246117D01*
X469845Y246135D01*
X469651Y246154D01*
X469475Y246191D01*
X469309Y246237D01*
X469299D01*
X469290Y246246D01*
X469244Y246265D01*
X469170Y246292D01*
X469077Y246330D01*
X468985Y246385D01*
X468883Y246450D01*
X468781Y246524D01*
X468689Y246607D01*
X468680Y246616D01*
X468652Y246644D01*
X468615Y246700D01*
X468569Y246764D01*
X468513Y246857D01*
X468467Y246959D01*
X468421Y247070D01*
X468384Y247199D01*
Y247208D01*
X468374Y247255D01*
X468365Y247328D01*
X468347Y247430D01*
Y247495D01*
X468337Y247578D01*
Y247661D01*
X468328Y247754D01*
Y247865D01*
X468319Y247985D01*
Y248827D01*
X472555D01*
Y247689D01*
D02*
G37*
G36*
X470862Y230706D02*
X470983D01*
X471103Y230697D01*
X471362Y230688D01*
X471621Y230669D01*
X471741Y230660D01*
X471852Y230642D01*
X471954Y230623D01*
X472047Y230605D01*
X472065Y230595D01*
X472111Y230586D01*
X472185Y230558D01*
X472268Y230531D01*
X472361Y230484D01*
X472453Y230438D01*
X472537Y230382D01*
X472602Y230327D01*
X472611Y230318D01*
X472620Y230299D01*
X472648Y230262D01*
X472666Y230216D01*
X472694Y230161D01*
X472722Y230096D01*
X472731Y230022D01*
X472740Y229939D01*
Y229902D01*
X472731Y229855D01*
X472722Y229809D01*
X472703Y229744D01*
X472685Y229680D01*
X472648Y229615D01*
X472602Y229550D01*
X472592Y229541D01*
X472574Y229522D01*
X472537Y229485D01*
X472481Y229448D01*
X472416Y229411D01*
X472324Y229365D01*
X472222Y229319D01*
X472093Y229282D01*
X472084D01*
X472074Y229273D01*
X472037D01*
X472000Y229263D01*
X471945Y229254D01*
X471880Y229245D01*
X471806Y229226D01*
X471713Y229217D01*
X471612Y229208D01*
X471491Y229189D01*
X471362Y229180D01*
X471214Y229171D01*
X471057Y229162D01*
X470881D01*
X470687Y229152D01*
X470483D01*
X470474D01*
X470437D01*
X470372D01*
X470298D01*
X470206D01*
X470104Y229162D01*
X469984D01*
X469864Y229171D01*
X469604Y229180D01*
X469355Y229199D01*
X469235Y229217D01*
X469114Y229236D01*
X469012Y229254D01*
X468929Y229273D01*
X468920D01*
X468911Y229282D01*
X468864Y229291D01*
X468790Y229319D01*
X468698Y229346D01*
X468606Y229393D01*
X468513Y229439D01*
X468430Y229495D01*
X468365Y229550D01*
X468356Y229559D01*
X468337Y229578D01*
X468319Y229615D01*
X468291Y229661D01*
X468263Y229717D01*
X468235Y229781D01*
X468226Y229855D01*
X468217Y229939D01*
Y229976D01*
X468226Y230022D01*
X468235Y230068D01*
X468254Y230133D01*
X468282Y230198D01*
X468319Y230272D01*
X468365Y230336D01*
X468374Y230346D01*
X468393Y230364D01*
X468430Y230392D01*
X468476Y230429D01*
X468550Y230475D01*
X468633Y230512D01*
X468744Y230558D01*
X468874Y230595D01*
X468883D01*
X468892Y230605D01*
X468929D01*
X468966Y230614D01*
X469022Y230623D01*
X469087Y230632D01*
X469161Y230642D01*
X469253Y230651D01*
X469364Y230669D01*
X469475Y230679D01*
X469614Y230688D01*
X469753Y230697D01*
X469919Y230706D01*
X470085D01*
X470280Y230715D01*
X470483D01*
X470493D01*
X470530D01*
X470594D01*
X470668D01*
X470761D01*
X470862Y230706D01*
D02*
G37*
G36*
X473637Y222834D02*
X468208D01*
X468217Y222844D01*
X468235Y222862D01*
X468263Y222890D01*
X468300Y222927D01*
X468356Y222973D01*
X468421Y223029D01*
X468495Y223094D01*
X468587Y223167D01*
X468689Y223242D01*
X468800Y223325D01*
X468920Y223417D01*
X469050Y223510D01*
X469198Y223602D01*
X469346Y223695D01*
X469512Y223797D01*
X469688Y223898D01*
X469697Y223907D01*
X469734Y223926D01*
X469780Y223954D01*
X469854Y223991D01*
X469938Y224028D01*
X470049Y224083D01*
X470169Y224139D01*
X470298Y224203D01*
X470446Y224268D01*
X470604Y224333D01*
X470770Y224407D01*
X470946Y224472D01*
X471325Y224601D01*
X471723Y224722D01*
X471732D01*
X471769Y224731D01*
X471825Y224749D01*
X471908Y224768D01*
X472000Y224786D01*
X472102Y224805D01*
X472231Y224833D01*
X472361Y224860D01*
X472509Y224888D01*
X472657Y224907D01*
X472981Y224953D01*
X473314Y224980D01*
X473637Y224990D01*
Y222834D01*
D02*
G37*
%LPC*%
G36*
Y290280D02*
X467237D01*
Y287726D01*
X467246Y287652D01*
X467255Y287477D01*
X467264Y287282D01*
X467292Y287079D01*
X467320Y286885D01*
X467366Y286709D01*
Y286700D01*
X467375Y286681D01*
X467384Y286653D01*
X467394Y286616D01*
X467440Y286506D01*
X467505Y286376D01*
X467588Y286228D01*
X467690Y286062D01*
X467810Y285904D01*
X467958Y285747D01*
Y285738D01*
X467977Y285729D01*
X468032Y285682D01*
X468124Y285608D01*
X468245Y285525D01*
X468393Y285423D01*
X468569Y285321D01*
X468772Y285220D01*
X468994Y285137D01*
X469003D01*
X469022Y285127D01*
X469059Y285118D01*
X469105Y285100D01*
X469161Y285090D01*
X469235Y285072D01*
X469318Y285053D01*
X469410Y285026D01*
X469512Y285007D01*
X469632Y284988D01*
X469753Y284970D01*
X469891Y284961D01*
X470178Y284933D01*
X470502Y284924D01*
X467237D01*
X470631D01*
X470705Y284933D01*
X470779D01*
X470872Y284942D01*
X470973Y284951D01*
X471186Y284970D01*
X471408Y285007D01*
X471639Y285063D01*
X471862Y285127D01*
X471871D01*
X471889Y285137D01*
X471926Y285155D01*
X471982Y285174D01*
X472037Y285192D01*
X472102Y285229D01*
X472268Y285303D01*
X472444Y285396D01*
X472639Y285516D01*
X472823Y285654D01*
X472999Y285812D01*
X473018Y285830D01*
X473055Y285876D01*
X473110Y285950D01*
X473184Y286052D01*
X473268Y286182D01*
X473351Y286330D01*
X473434Y286515D01*
X473508Y286718D01*
Y286727D01*
X473517Y286737D01*
Y286765D01*
X473526Y286792D01*
X473545Y286894D01*
X473573Y287023D01*
X473600Y287181D01*
X473619Y287375D01*
X473628Y287606D01*
X473637Y287856D01*
Y284924D01*
D01*
Y290280D01*
D02*
G37*
G36*
Y283869D02*
X467237D01*
Y282574D01*
X473637D01*
Y283869D01*
D02*
G37*
G36*
X473758Y281566D02*
D01*
Y278421D01*
X473748Y278486D01*
Y278578D01*
X473739Y278680D01*
X473721Y278791D01*
X473702Y278921D01*
X473656Y279189D01*
X473582Y279485D01*
X473480Y279790D01*
X473416Y279929D01*
X473342Y280077D01*
X473332Y280086D01*
X473323Y280104D01*
X473295Y280151D01*
X473258Y280197D01*
X473221Y280262D01*
X473166Y280327D01*
X473101Y280410D01*
X473027Y280493D01*
X472860Y280678D01*
X472648Y280863D01*
X472407Y281039D01*
X472130Y281196D01*
X472121D01*
X472093Y281214D01*
X472047Y281233D01*
X471991Y281252D01*
X471917Y281279D01*
X471834Y281316D01*
X471732Y281344D01*
X471621Y281381D01*
X471501Y281418D01*
X471362Y281446D01*
X471075Y281510D01*
X470761Y281547D01*
X470419Y281566D01*
X473758D01*
X467116D01*
X470317D01*
X470252Y281557D01*
X470159D01*
X470058Y281547D01*
X469947Y281529D01*
X469817Y281510D01*
X469549Y281464D01*
X469244Y281390D01*
X468938Y281289D01*
X468790Y281224D01*
X468643Y281150D01*
X468633Y281140D01*
X468606Y281131D01*
X468569Y281103D01*
X468513Y281076D01*
X468448Y281030D01*
X468374Y280974D01*
X468291Y280909D01*
X468198Y280844D01*
X468106Y280761D01*
X468004Y280669D01*
X467903Y280567D01*
X467801Y280456D01*
X467708Y280336D01*
X467606Y280216D01*
X467440Y279929D01*
Y279920D01*
X467421Y279901D01*
X467412Y279864D01*
X467384Y279818D01*
X467366Y279753D01*
X467338Y279688D01*
X467310Y279596D01*
X467274Y279503D01*
X467246Y279401D01*
X467218Y279281D01*
X467190Y279152D01*
X467163Y279022D01*
X467126Y278726D01*
X467116Y278393D01*
Y278282D01*
X467126Y278199D01*
X467135Y278097D01*
X467144Y277977D01*
X467153Y277848D01*
X467181Y277709D01*
X467237Y277413D01*
X467329Y277108D01*
X467384Y276950D01*
X467449Y276802D01*
X467523Y276663D01*
X467616Y276534D01*
X467625Y276525D01*
X467634Y276506D01*
X467671Y276469D01*
X467708Y276423D01*
X467755Y276367D01*
X467819Y276312D01*
X467893Y276247D01*
X467977Y276173D01*
X468069Y276099D01*
X468171Y276025D01*
X468282Y275951D01*
X468411Y275887D01*
X468541Y275813D01*
X468680Y275757D01*
X468837Y275701D01*
X468994Y275664D01*
X469235Y276950D01*
X469225D01*
X469216Y276959D01*
X469161Y276978D01*
X469077Y277015D01*
X468966Y277070D01*
X468846Y277135D01*
X468726Y277228D01*
X468606Y277339D01*
X468495Y277468D01*
X468485Y277487D01*
X468448Y277533D01*
X468402Y277616D01*
X468356Y277718D01*
X468300Y277857D01*
X468263Y278014D01*
X468226Y278190D01*
X468217Y278393D01*
Y278477D01*
X468226Y278532D01*
X468235Y278606D01*
X468245Y278689D01*
X468263Y278782D01*
X468282Y278884D01*
X468347Y279096D01*
X468393Y279207D01*
X468448Y279318D01*
X468513Y279429D01*
X468578Y279540D01*
X468670Y279642D01*
X468763Y279744D01*
X468772Y279753D01*
X468790Y279762D01*
X468818Y279790D01*
X468864Y279818D01*
X468920Y279855D01*
X468985Y279901D01*
X469068Y279947D01*
X469161Y279984D01*
X469272Y280030D01*
X469392Y280077D01*
X469521Y280123D01*
X469660Y280160D01*
X469817Y280188D01*
X469993Y280216D01*
X470169Y280225D01*
X470363Y280234D01*
X470372D01*
X470409D01*
X470474D01*
X470548Y280225D01*
X470650Y280216D01*
X470751Y280206D01*
X470881Y280188D01*
X471010Y280169D01*
X471288Y280114D01*
X471575Y280021D01*
X471713Y279966D01*
X471843Y279901D01*
X471973Y279818D01*
X472084Y279734D01*
X472093Y279725D01*
X472111Y279707D01*
X472139Y279679D01*
X472176Y279642D01*
X472213Y279587D01*
X472268Y279531D01*
X472315Y279457D01*
X472370Y279374D01*
X472426Y279281D01*
X472472Y279189D01*
X472565Y278958D01*
X472602Y278828D01*
X472629Y278698D01*
X472648Y278551D01*
X472657Y278402D01*
Y278328D01*
X472648Y278255D01*
X472639Y278144D01*
X472620Y278023D01*
X472592Y277885D01*
X472555Y277736D01*
X472500Y277589D01*
Y277579D01*
X472491Y277570D01*
X472472Y277524D01*
X472435Y277441D01*
X472389Y277348D01*
X472333Y277237D01*
X472268Y277117D01*
X472194Y276996D01*
X472111Y276886D01*
X471288D01*
Y278365D01*
X470206D01*
Y275581D01*
X472777D01*
X472796Y275600D01*
X472814Y275627D01*
X472842Y275655D01*
X472879Y275701D01*
X472916Y275748D01*
X473008Y275877D01*
X473110Y276053D01*
X473231Y276256D01*
X473351Y276488D01*
X473462Y276765D01*
Y276775D01*
X473471Y276802D01*
X473490Y276839D01*
X473508Y276895D01*
X473526Y276969D01*
X473554Y277052D01*
X473582Y277145D01*
X473610Y277246D01*
X473665Y277478D01*
X473711Y277746D01*
X473748Y278023D01*
X473758Y278319D01*
Y275581D01*
D01*
D01*
Y281566D01*
D02*
G37*
G36*
Y272168D02*
X467200D01*
X470298D01*
X470178Y272159D01*
X470030Y272149D01*
X469854Y272131D01*
X469669Y272112D01*
X469466Y272094D01*
X469253Y272057D01*
X469040Y272020D01*
X468818Y271965D01*
X468606Y271909D01*
X468402Y271835D01*
X468208Y271752D01*
X468023Y271659D01*
X467866Y271548D01*
X467856Y271539D01*
X467838Y271520D01*
X467801Y271493D01*
X467764Y271446D01*
X467708Y271400D01*
X467653Y271336D01*
X467597Y271252D01*
X467532Y271169D01*
X467468Y271067D01*
X467412Y270966D01*
X467357Y270845D01*
X467301Y270716D01*
X467264Y270577D01*
X467227Y270420D01*
X467209Y270263D01*
X467200Y270096D01*
D01*
D01*
Y270004D01*
X467209Y269939D01*
X467218Y269865D01*
X467237Y269772D01*
X467255Y269680D01*
X467283Y269569D01*
X467320Y269448D01*
X467366Y269338D01*
X467412Y269217D01*
X467477Y269097D01*
X467560Y268977D01*
X467643Y268857D01*
X467745Y268745D01*
X467866Y268644D01*
X467875Y268635D01*
X467903Y268616D01*
X467949Y268588D01*
X468013Y268542D01*
X468106Y268496D01*
X468217Y268440D01*
X468337Y268385D01*
X468495Y268329D01*
X468661Y268274D01*
X468855Y268209D01*
X469068Y268163D01*
X469309Y268116D01*
X469567Y268070D01*
X469845Y268042D01*
X470150Y268024D01*
X470483Y268015D01*
X467200D01*
X473758D01*
Y270253D01*
Y270133D01*
X473748Y270188D01*
Y270253D01*
X473739Y270327D01*
X473721Y270420D01*
X473702Y270521D01*
X473665Y270633D01*
X473628Y270753D01*
X473582Y270873D01*
X473526Y271003D01*
X473453Y271123D01*
X473379Y271252D01*
X473277Y271373D01*
X473175Y271493D01*
X473045Y271604D01*
X473036Y271613D01*
X473008Y271632D01*
X472962Y271659D01*
X472907Y271687D01*
X472823Y271733D01*
X472722Y271779D01*
X472592Y271835D01*
X472453Y271881D01*
X472287Y271937D01*
X472102Y271992D01*
X471889Y272039D01*
X471658Y272076D01*
X471399Y272112D01*
X471112Y272140D01*
X470807Y272159D01*
X470474Y272168D01*
X473758D01*
D02*
G37*
G36*
Y267173D02*
Y265147D01*
X473748Y265212D01*
X473739Y265286D01*
X473730Y265378D01*
X473721Y265471D01*
X473702Y265582D01*
X473647Y265804D01*
X473554Y266054D01*
X473508Y266174D01*
X473443Y266294D01*
X473369Y266405D01*
X473286Y266516D01*
X473277Y266526D01*
X473268Y266544D01*
X473240Y266572D01*
X473203Y266609D01*
X473147Y266646D01*
X473092Y266701D01*
X473027Y266747D01*
X472953Y266803D01*
X472860Y266868D01*
X472768Y266923D01*
X472546Y267025D01*
X472296Y267118D01*
X472157Y267145D01*
X472010Y267173D01*
X471880Y265952D01*
X471899D01*
X471945Y265943D01*
X472028Y265924D01*
X472121Y265897D01*
X472222Y265860D01*
X472333Y265804D01*
X472435Y265730D01*
X472537Y265647D01*
X472546Y265637D01*
X472574Y265600D01*
X472611Y265545D01*
X472657Y265471D01*
X472703Y265388D01*
X472740Y265286D01*
X472768Y265166D01*
X472777Y265045D01*
Y265027D01*
X472768Y264981D01*
X472759Y264907D01*
X472740Y264814D01*
X472703Y264713D01*
X472648Y264601D01*
X472565Y264491D01*
X472463Y264389D01*
X472444Y264380D01*
X472407Y264342D01*
X472333Y264305D01*
X472222Y264250D01*
X472093Y264204D01*
X471936Y264158D01*
X471741Y264130D01*
X471519Y264121D01*
X471510D01*
X471491D01*
X471464D01*
X471418D01*
X471316Y264130D01*
X471186Y264158D01*
X471038Y264185D01*
X470890Y264231D01*
X470751Y264296D01*
X470631Y264389D01*
X470622Y264398D01*
X470585Y264435D01*
X470539Y264500D01*
X470474Y264574D01*
X470419Y264675D01*
X470372Y264796D01*
X470335Y264934D01*
X470326Y265083D01*
Y265138D01*
X470335Y265175D01*
X470354Y265267D01*
X470381Y265397D01*
X470437Y265545D01*
X470520Y265702D01*
X470576Y265786D01*
X470641Y265869D01*
X470715Y265952D01*
X470798Y266035D01*
X470659Y267025D01*
X467320Y266396D01*
Y263149D01*
X468467D01*
Y265471D01*
X469558Y265665D01*
Y265656D01*
X469549Y265647D01*
X469521Y265591D01*
X469493Y265508D01*
X469447Y265406D01*
X469410Y265277D01*
X469382Y265138D01*
X469355Y264981D01*
X469346Y264824D01*
Y264740D01*
X469355Y264685D01*
X469364Y264620D01*
X469373Y264537D01*
X469392Y264444D01*
X469419Y264342D01*
X469493Y264130D01*
X469540Y264009D01*
X469595Y263898D01*
X469669Y263778D01*
X469753Y263658D01*
X469845Y263547D01*
X469947Y263436D01*
X469956Y263427D01*
X469975Y263408D01*
X470012Y263381D01*
X470058Y263344D01*
X470113Y263306D01*
X470187Y263251D01*
X470270Y263205D01*
X470363Y263149D01*
X470465Y263094D01*
X470585Y263048D01*
X470715Y262992D01*
X470844Y262955D01*
X470992Y262918D01*
X471149Y262890D01*
X471316Y262872D01*
X471491Y262862D01*
X471565D01*
X471621Y262872D01*
X471695D01*
X471778Y262890D01*
X471871Y262899D01*
X471963Y262918D01*
X472185Y262973D01*
X472426Y263057D01*
X472555Y263112D01*
X472676Y263168D01*
X472796Y263242D01*
X472916Y263325D01*
X472925Y263334D01*
X472953Y263353D01*
X472990Y263390D01*
X473045Y263436D01*
X473110Y263501D01*
X473184Y263584D01*
X473258Y263677D01*
X473332Y263778D01*
X473416Y263898D01*
X473490Y264028D01*
X473563Y264167D01*
X473628Y264324D01*
X473684Y264491D01*
X473721Y264666D01*
X473748Y264861D01*
X473758Y265064D01*
Y262862D01*
D01*
Y267173D01*
D02*
G37*
%LPD*%
G36*
X472555Y287847D02*
X472546Y287726D01*
Y287597D01*
X472528Y287468D01*
X472518Y287347D01*
X472500Y287245D01*
Y287227D01*
X472481Y287190D01*
X472463Y287135D01*
X472435Y287060D01*
X472398Y286977D01*
X472352Y286894D01*
X472296Y286811D01*
X472231Y286727D01*
X472222Y286718D01*
X472194Y286690D01*
X472148Y286653D01*
X472084Y286607D01*
X472000Y286561D01*
X471899Y286496D01*
X471769Y286450D01*
X471621Y286395D01*
X471612D01*
X471602Y286385D01*
X471575D01*
X471538Y286376D01*
X471501Y286357D01*
X471445Y286348D01*
X471307Y286320D01*
X471140Y286302D01*
X470946Y286274D01*
X470705Y286265D01*
X470446Y286256D01*
X470437D01*
X470409D01*
X470372D01*
X470326D01*
X470261D01*
X470187Y286265D01*
X470030Y286274D01*
X469845Y286293D01*
X469651Y286311D01*
X469475Y286348D01*
X469309Y286395D01*
X469299D01*
X469290Y286404D01*
X469244Y286422D01*
X469170Y286450D01*
X469077Y286487D01*
X468985Y286543D01*
X468883Y286607D01*
X468781Y286681D01*
X468689Y286765D01*
X468680Y286774D01*
X468652Y286802D01*
X468615Y286857D01*
X468569Y286922D01*
X468513Y287014D01*
X468467Y287116D01*
X468421Y287227D01*
X468384Y287356D01*
Y287366D01*
X468374Y287412D01*
X468365Y287486D01*
X468347Y287588D01*
Y287652D01*
X468337Y287736D01*
Y287819D01*
X468328Y287912D01*
Y288022D01*
X468319Y288143D01*
Y288984D01*
X472555D01*
Y287847D01*
D02*
G37*
G36*
X470862Y270864D02*
X470983D01*
X471103Y270854D01*
X471362Y270845D01*
X471621Y270827D01*
X471741Y270817D01*
X471852Y270799D01*
X471954Y270780D01*
X472047Y270762D01*
X472065Y270753D01*
X472111Y270743D01*
X472185Y270716D01*
X472268Y270688D01*
X472361Y270642D01*
X472453Y270596D01*
X472537Y270540D01*
X472602Y270484D01*
X472611Y270475D01*
X472620Y270457D01*
X472648Y270420D01*
X472666Y270374D01*
X472694Y270318D01*
X472722Y270253D01*
X472731Y270179D01*
X472740Y270096D01*
Y270059D01*
X472731Y270013D01*
X472722Y269967D01*
X472703Y269902D01*
X472685Y269837D01*
X472648Y269772D01*
X472602Y269707D01*
X472592Y269698D01*
X472574Y269680D01*
X472537Y269643D01*
X472481Y269606D01*
X472416Y269569D01*
X472324Y269523D01*
X472222Y269476D01*
X472093Y269439D01*
X472084D01*
X472074Y269430D01*
X472037D01*
X472000Y269421D01*
X471945Y269411D01*
X471880Y269402D01*
X471806Y269384D01*
X471713Y269374D01*
X471612Y269365D01*
X471491Y269347D01*
X471362Y269338D01*
X471214Y269328D01*
X471057Y269319D01*
X470881D01*
X470687Y269310D01*
X470483D01*
X470474D01*
X470437D01*
X470372D01*
X470298D01*
X470206D01*
X470104Y269319D01*
X469984D01*
X469864Y269328D01*
X469604Y269338D01*
X469355Y269356D01*
X469235Y269374D01*
X469114Y269393D01*
X469012Y269411D01*
X468929Y269430D01*
X468920D01*
X468911Y269439D01*
X468864Y269448D01*
X468790Y269476D01*
X468698Y269504D01*
X468606Y269550D01*
X468513Y269597D01*
X468430Y269652D01*
X468365Y269707D01*
X468356Y269717D01*
X468337Y269735D01*
X468319Y269772D01*
X468291Y269818D01*
X468263Y269874D01*
X468235Y269939D01*
X468226Y270013D01*
X468217Y270096D01*
Y270133D01*
X468226Y270179D01*
X468235Y270226D01*
X468254Y270290D01*
X468282Y270355D01*
X468319Y270429D01*
X468365Y270494D01*
X468374Y270503D01*
X468393Y270521D01*
X468430Y270549D01*
X468476Y270586D01*
X468550Y270633D01*
X468633Y270670D01*
X468744Y270716D01*
X468874Y270753D01*
X468883D01*
X468892Y270762D01*
X468929D01*
X468966Y270771D01*
X469022Y270780D01*
X469087Y270790D01*
X469161Y270799D01*
X469253Y270808D01*
X469364Y270827D01*
X469475Y270836D01*
X469614Y270845D01*
X469753Y270854D01*
X469919Y270864D01*
X470085D01*
X470280Y270873D01*
X470483D01*
X470493D01*
X470530D01*
X470594D01*
X470668D01*
X470761D01*
X470862Y270864D01*
D02*
G37*
G36*
X473758Y268015D02*
X470659D01*
X470779Y268024D01*
X470927Y268033D01*
X471103Y268052D01*
X471288Y268070D01*
X471491Y268089D01*
X471704Y268126D01*
X471926Y268172D01*
X472139Y268218D01*
X472352Y268283D01*
X472565Y268348D01*
X472759Y268440D01*
X472944Y268533D01*
X473101Y268644D01*
X473110Y268653D01*
X473129Y268671D01*
X473166Y268699D01*
X473203Y268736D01*
X473249Y268792D01*
X473305Y268857D01*
X473369Y268940D01*
X473425Y269023D01*
X473490Y269125D01*
X473554Y269227D01*
X473610Y269347D01*
X473656Y269476D01*
X473693Y269615D01*
X473730Y269772D01*
X473748Y269930D01*
X473758Y270096D01*
Y268015D01*
D02*
G37*
%LPC*%
G36*
X473637Y329650D02*
X467237D01*
Y327097D01*
X467246Y327023D01*
X467255Y326847D01*
X467264Y326653D01*
X467292Y326449D01*
X467320Y326255D01*
X467366Y326079D01*
Y326070D01*
X467375Y326051D01*
X467384Y326024D01*
X467394Y325987D01*
X467440Y325876D01*
X467505Y325746D01*
X467588Y325598D01*
X467690Y325432D01*
X467810Y325274D01*
X467958Y325117D01*
Y325108D01*
X467977Y325099D01*
X468032Y325052D01*
X468124Y324978D01*
X468245Y324895D01*
X468393Y324793D01*
X468569Y324692D01*
X468772Y324590D01*
X468994Y324507D01*
X469003D01*
X469022Y324497D01*
X469059Y324488D01*
X469105Y324470D01*
X469161Y324460D01*
X469235Y324442D01*
X469318Y324423D01*
X469410Y324396D01*
X469512Y324377D01*
X469632Y324359D01*
X469753Y324340D01*
X469891Y324331D01*
X470178Y324303D01*
X470502Y324294D01*
X467237D01*
X470631D01*
X470705Y324303D01*
X470779D01*
X470872Y324312D01*
X470973Y324322D01*
X471186Y324340D01*
X471408Y324377D01*
X471639Y324433D01*
X471862Y324497D01*
X471871D01*
X471889Y324507D01*
X471926Y324525D01*
X471982Y324544D01*
X472037Y324562D01*
X472102Y324599D01*
X472268Y324673D01*
X472444Y324766D01*
X472639Y324886D01*
X472823Y325025D01*
X472999Y325182D01*
X473018Y325200D01*
X473055Y325247D01*
X473110Y325321D01*
X473184Y325422D01*
X473268Y325552D01*
X473351Y325700D01*
X473434Y325885D01*
X473508Y326088D01*
Y326098D01*
X473517Y326107D01*
Y326135D01*
X473526Y326162D01*
X473545Y326264D01*
X473573Y326394D01*
X473600Y326551D01*
X473619Y326745D01*
X473628Y326976D01*
X473637Y327226D01*
Y324294D01*
D01*
Y329650D01*
D02*
G37*
G36*
Y323239D02*
X467237D01*
Y321944D01*
X473637D01*
Y323239D01*
D02*
G37*
G36*
X473758Y320936D02*
D01*
Y317791D01*
X473748Y317856D01*
Y317948D01*
X473739Y318050D01*
X473721Y318161D01*
X473702Y318291D01*
X473656Y318559D01*
X473582Y318855D01*
X473480Y319160D01*
X473416Y319299D01*
X473342Y319447D01*
X473332Y319456D01*
X473323Y319475D01*
X473295Y319521D01*
X473258Y319567D01*
X473221Y319632D01*
X473166Y319697D01*
X473101Y319780D01*
X473027Y319863D01*
X472860Y320048D01*
X472648Y320233D01*
X472407Y320409D01*
X472130Y320566D01*
X472121D01*
X472093Y320585D01*
X472047Y320603D01*
X471991Y320622D01*
X471917Y320649D01*
X471834Y320686D01*
X471732Y320714D01*
X471621Y320751D01*
X471501Y320788D01*
X471362Y320816D01*
X471075Y320881D01*
X470761Y320918D01*
X470419Y320936D01*
X473758D01*
X467116D01*
X470317D01*
X470252Y320927D01*
X470159D01*
X470058Y320918D01*
X469947Y320899D01*
X469817Y320881D01*
X469549Y320834D01*
X469244Y320760D01*
X468938Y320659D01*
X468790Y320594D01*
X468643Y320520D01*
X468633Y320511D01*
X468606Y320501D01*
X468569Y320474D01*
X468513Y320446D01*
X468448Y320400D01*
X468374Y320344D01*
X468291Y320279D01*
X468198Y320215D01*
X468106Y320131D01*
X468004Y320039D01*
X467903Y319937D01*
X467801Y319826D01*
X467708Y319706D01*
X467606Y319586D01*
X467440Y319299D01*
Y319290D01*
X467421Y319271D01*
X467412Y319234D01*
X467384Y319188D01*
X467366Y319123D01*
X467338Y319058D01*
X467310Y318966D01*
X467274Y318873D01*
X467246Y318772D01*
X467218Y318651D01*
X467190Y318522D01*
X467163Y318392D01*
X467126Y318096D01*
X467116Y317763D01*
Y317652D01*
X467126Y317569D01*
X467135Y317467D01*
X467144Y317347D01*
X467153Y317218D01*
X467181Y317079D01*
X467237Y316783D01*
X467329Y316478D01*
X467384Y316320D01*
X467449Y316172D01*
X467523Y316034D01*
X467616Y315904D01*
X467625Y315895D01*
X467634Y315876D01*
X467671Y315839D01*
X467708Y315793D01*
X467755Y315738D01*
X467819Y315682D01*
X467893Y315617D01*
X467977Y315543D01*
X468069Y315469D01*
X468171Y315395D01*
X468282Y315321D01*
X468411Y315257D01*
X468541Y315183D01*
X468680Y315127D01*
X468837Y315072D01*
X468994Y315035D01*
X469235Y316320D01*
X469225D01*
X469216Y316330D01*
X469161Y316348D01*
X469077Y316385D01*
X468966Y316441D01*
X468846Y316505D01*
X468726Y316598D01*
X468606Y316709D01*
X468495Y316838D01*
X468485Y316857D01*
X468448Y316903D01*
X468402Y316986D01*
X468356Y317088D01*
X468300Y317227D01*
X468263Y317384D01*
X468226Y317560D01*
X468217Y317763D01*
Y317847D01*
X468226Y317902D01*
X468235Y317976D01*
X468245Y318059D01*
X468263Y318152D01*
X468282Y318254D01*
X468347Y318466D01*
X468393Y318577D01*
X468448Y318688D01*
X468513Y318799D01*
X468578Y318910D01*
X468670Y319012D01*
X468763Y319114D01*
X468772Y319123D01*
X468790Y319132D01*
X468818Y319160D01*
X468864Y319188D01*
X468920Y319225D01*
X468985Y319271D01*
X469068Y319317D01*
X469161Y319354D01*
X469272Y319401D01*
X469392Y319447D01*
X469521Y319493D01*
X469660Y319530D01*
X469817Y319558D01*
X469993Y319586D01*
X470169Y319595D01*
X470363Y319604D01*
X470372D01*
X470409D01*
X470474D01*
X470548Y319595D01*
X470650Y319586D01*
X470751Y319576D01*
X470881Y319558D01*
X471010Y319539D01*
X471288Y319484D01*
X471575Y319391D01*
X471713Y319336D01*
X471843Y319271D01*
X471973Y319188D01*
X472084Y319105D01*
X472093Y319095D01*
X472111Y319077D01*
X472139Y319049D01*
X472176Y319012D01*
X472213Y318957D01*
X472268Y318901D01*
X472315Y318827D01*
X472370Y318744D01*
X472426Y318651D01*
X472472Y318559D01*
X472565Y318328D01*
X472602Y318198D01*
X472629Y318069D01*
X472648Y317921D01*
X472657Y317773D01*
Y317699D01*
X472648Y317625D01*
X472639Y317514D01*
X472620Y317393D01*
X472592Y317255D01*
X472555Y317107D01*
X472500Y316959D01*
Y316949D01*
X472491Y316940D01*
X472472Y316894D01*
X472435Y316811D01*
X472389Y316718D01*
X472333Y316607D01*
X472268Y316487D01*
X472194Y316367D01*
X472111Y316256D01*
X471288D01*
Y317736D01*
X470206D01*
Y314951D01*
X472777D01*
X472796Y314970D01*
X472814Y314998D01*
X472842Y315025D01*
X472879Y315072D01*
X472916Y315118D01*
X473008Y315247D01*
X473110Y315423D01*
X473231Y315627D01*
X473351Y315858D01*
X473462Y316135D01*
Y316145D01*
X473471Y316172D01*
X473490Y316209D01*
X473508Y316265D01*
X473526Y316339D01*
X473554Y316422D01*
X473582Y316515D01*
X473610Y316616D01*
X473665Y316848D01*
X473711Y317116D01*
X473748Y317393D01*
X473758Y317689D01*
Y314951D01*
D01*
D01*
Y320936D01*
D02*
G37*
G36*
X470474Y311538D02*
X470298D01*
X470178Y311529D01*
X470030Y311520D01*
X469854Y311501D01*
X469669Y311483D01*
X469466Y311464D01*
X469253Y311427D01*
X469040Y311390D01*
X468818Y311335D01*
X468606Y311279D01*
X468402Y311205D01*
X468208Y311122D01*
X468023Y311029D01*
X467866Y310918D01*
X467856Y310909D01*
X467838Y310891D01*
X467801Y310863D01*
X467764Y310817D01*
X467708Y310770D01*
X467653Y310706D01*
X467597Y310622D01*
X467532Y310539D01*
X467468Y310437D01*
X467412Y310336D01*
X467357Y310215D01*
X467301Y310086D01*
X467264Y309947D01*
X467227Y309790D01*
X467209Y309633D01*
X467200Y309466D01*
D01*
D01*
Y309374D01*
X467209Y309309D01*
X467218Y309235D01*
X467237Y309142D01*
X467255Y309050D01*
X467283Y308939D01*
X467320Y308819D01*
X467366Y308708D01*
X467412Y308587D01*
X467477Y308467D01*
X467560Y308347D01*
X467643Y308227D01*
X467745Y308116D01*
X467866Y308014D01*
X467875Y308005D01*
X467903Y307986D01*
X467949Y307958D01*
X468013Y307912D01*
X468106Y307866D01*
X468217Y307810D01*
X468337Y307755D01*
X468495Y307699D01*
X468661Y307644D01*
X468855Y307579D01*
X469068Y307533D01*
X469309Y307487D01*
X469567Y307440D01*
X469845Y307413D01*
X470150Y307394D01*
X470483Y307385D01*
X467200D01*
D01*
X473758D01*
Y309623D01*
Y309503D01*
X473748Y309559D01*
Y309623D01*
X473739Y309697D01*
X473721Y309790D01*
X473702Y309892D01*
X473665Y310003D01*
X473628Y310123D01*
X473582Y310243D01*
X473526Y310373D01*
X473453Y310493D01*
X473379Y310622D01*
X473277Y310743D01*
X473175Y310863D01*
X473045Y310974D01*
X473036Y310983D01*
X473008Y311002D01*
X472962Y311029D01*
X472907Y311057D01*
X472823Y311103D01*
X472722Y311150D01*
X472592Y311205D01*
X472453Y311251D01*
X472287Y311307D01*
X472102Y311362D01*
X471889Y311409D01*
X471658Y311446D01*
X471399Y311483D01*
X471112Y311510D01*
X470807Y311529D01*
X470474Y311538D01*
D02*
G37*
G36*
X471954Y306608D02*
D01*
X471806Y305424D01*
X471815D01*
X471825D01*
X471880Y305415D01*
X471963Y305396D01*
X472065Y305368D01*
X472176Y305322D01*
X472296Y305276D01*
X472407Y305202D01*
X472509Y305119D01*
X472518Y305109D01*
X472546Y305072D01*
X472583Y305017D01*
X472620Y304952D01*
X472666Y304860D01*
X472703Y304758D01*
X472731Y304647D01*
X472740Y304517D01*
Y304499D01*
X472731Y304453D01*
X472722Y304388D01*
X472703Y304295D01*
X472666Y304194D01*
X472620Y304092D01*
X472546Y303981D01*
X472453Y303879D01*
X472444Y303870D01*
X472398Y303833D01*
X472333Y303796D01*
X472250Y303740D01*
X472139Y303694D01*
X472000Y303648D01*
X471843Y303620D01*
X471667Y303611D01*
X471658D01*
X471649D01*
X471593D01*
X471510Y303620D01*
X471399Y303639D01*
X471279Y303676D01*
X471159Y303722D01*
X471038Y303787D01*
X470927Y303870D01*
X470918Y303879D01*
X470881Y303916D01*
X470835Y303972D01*
X470788Y304036D01*
X470733Y304129D01*
X470696Y304231D01*
X470659Y304342D01*
X470650Y304471D01*
Y304564D01*
X470659Y304628D01*
X470668Y304712D01*
X470687Y304813D01*
X470715Y304915D01*
X470742Y305035D01*
X469753Y304906D01*
Y304823D01*
X469743Y304730D01*
X469734Y304619D01*
X469706Y304499D01*
X469669Y304369D01*
X469614Y304249D01*
X469540Y304138D01*
X469530Y304129D01*
X469493Y304092D01*
X469447Y304055D01*
X469373Y303999D01*
X469290Y303953D01*
X469188Y303907D01*
X469068Y303879D01*
X468929Y303870D01*
X468911D01*
X468874D01*
X468818Y303879D01*
X468744Y303898D01*
X468661Y303916D01*
X468578Y303953D01*
X468485Y303999D01*
X468411Y304064D01*
X468402Y304073D01*
X468384Y304101D01*
X468347Y304138D01*
X468309Y304203D01*
X468282Y304277D01*
X468245Y304360D01*
X468226Y304471D01*
X468217Y304582D01*
Y304638D01*
X468226Y304693D01*
X468245Y304767D01*
X468272Y304850D01*
X468309Y304943D01*
X468365Y305035D01*
X468439Y305119D01*
X468448Y305128D01*
X468476Y305156D01*
X468532Y305193D01*
X468606Y305239D01*
X468689Y305285D01*
X468800Y305322D01*
X468929Y305359D01*
X469077Y305387D01*
X468892Y306515D01*
X468883D01*
X468864Y306506D01*
X468837D01*
X468790Y306497D01*
X468689Y306469D01*
X468550Y306432D01*
X468402Y306377D01*
X468245Y306321D01*
X468097Y306247D01*
X467958Y306164D01*
X467940Y306155D01*
X467903Y306118D01*
X467838Y306062D01*
X467755Y305988D01*
X467671Y305896D01*
X467579Y305785D01*
X467486Y305646D01*
X467403Y305498D01*
Y305489D01*
X467394Y305479D01*
X467375Y305424D01*
X467338Y305331D01*
X467301Y305220D01*
X467264Y305082D01*
X467227Y304915D01*
X467209Y304739D01*
X467200Y304545D01*
Y304582D01*
Y304462D01*
X467209Y304397D01*
X467218Y304314D01*
X467227Y304231D01*
X467246Y304129D01*
X467274Y304027D01*
X467338Y303796D01*
X467384Y303676D01*
X467449Y303546D01*
X467514Y303426D01*
X467588Y303315D01*
X467681Y303195D01*
X467782Y303093D01*
X467792Y303084D01*
X467801Y303074D01*
X467829Y303047D01*
X467866Y303019D01*
X467958Y302945D01*
X468087Y302862D01*
X468245Y302778D01*
X468430Y302714D01*
X468633Y302658D01*
X468735Y302649D01*
X468846Y302640D01*
X468855D01*
X468883D01*
X468929Y302649D01*
X468985Y302658D01*
X469059Y302667D01*
X469142Y302686D01*
X469235Y302714D01*
X469336Y302751D01*
X469438Y302806D01*
X469549Y302862D01*
X469660Y302936D01*
X469771Y303028D01*
X469882Y303139D01*
X469993Y303259D01*
X470095Y303398D01*
X470196Y303565D01*
Y303555D01*
X470206Y303537D01*
Y303509D01*
X470224Y303472D01*
X470252Y303370D01*
X470307Y303250D01*
X470381Y303111D01*
X470474Y302963D01*
X470594Y302815D01*
X470733Y302686D01*
X470751Y302667D01*
X470807Y302630D01*
X470890Y302584D01*
X471010Y302519D01*
X471149Y302455D01*
X471325Y302408D01*
X471510Y302371D01*
X471723Y302353D01*
X467200D01*
D01*
X473758D01*
Y304591D01*
X473748Y304656D01*
X473739Y304730D01*
X473730Y304813D01*
X473711Y304906D01*
X473693Y305017D01*
X473637Y305239D01*
X473545Y305479D01*
X473490Y305609D01*
X473425Y305720D01*
X473342Y305840D01*
X473258Y305951D01*
X473249Y305960D01*
X473231Y305979D01*
X473203Y306007D01*
X473166Y306044D01*
X473119Y306090D01*
X473055Y306136D01*
X472990Y306192D01*
X472907Y306247D01*
X472814Y306303D01*
X472722Y306367D01*
X472500Y306469D01*
X472241Y306552D01*
X472102Y306589D01*
X471954Y306608D01*
D02*
G37*
%LPD*%
G36*
X472555Y327217D02*
X472546Y327097D01*
Y326967D01*
X472528Y326838D01*
X472518Y326717D01*
X472500Y326616D01*
Y326597D01*
X472481Y326560D01*
X472463Y326505D01*
X472435Y326431D01*
X472398Y326347D01*
X472352Y326264D01*
X472296Y326181D01*
X472231Y326098D01*
X472222Y326088D01*
X472194Y326061D01*
X472148Y326024D01*
X472084Y325977D01*
X472000Y325931D01*
X471899Y325866D01*
X471769Y325820D01*
X471621Y325765D01*
X471612D01*
X471602Y325755D01*
X471575D01*
X471538Y325746D01*
X471501Y325728D01*
X471445Y325718D01*
X471307Y325691D01*
X471140Y325672D01*
X470946Y325644D01*
X470705Y325635D01*
X470446Y325626D01*
X470437D01*
X470409D01*
X470372D01*
X470326D01*
X470261D01*
X470187Y325635D01*
X470030Y325644D01*
X469845Y325663D01*
X469651Y325681D01*
X469475Y325718D01*
X469309Y325765D01*
X469299D01*
X469290Y325774D01*
X469244Y325792D01*
X469170Y325820D01*
X469077Y325857D01*
X468985Y325913D01*
X468883Y325977D01*
X468781Y326051D01*
X468689Y326135D01*
X468680Y326144D01*
X468652Y326172D01*
X468615Y326227D01*
X468569Y326292D01*
X468513Y326384D01*
X468467Y326486D01*
X468421Y326597D01*
X468384Y326727D01*
Y326736D01*
X468374Y326782D01*
X468365Y326856D01*
X468347Y326958D01*
Y327023D01*
X468337Y327106D01*
Y327189D01*
X468328Y327282D01*
Y327393D01*
X468319Y327513D01*
Y328355D01*
X472555D01*
Y327217D01*
D02*
G37*
G36*
X470862Y310234D02*
X470983D01*
X471103Y310225D01*
X471362Y310215D01*
X471621Y310197D01*
X471741Y310188D01*
X471852Y310169D01*
X471954Y310151D01*
X472047Y310132D01*
X472065Y310123D01*
X472111Y310114D01*
X472185Y310086D01*
X472268Y310058D01*
X472361Y310012D01*
X472453Y309966D01*
X472537Y309910D01*
X472602Y309855D01*
X472611Y309845D01*
X472620Y309827D01*
X472648Y309790D01*
X472666Y309744D01*
X472694Y309688D01*
X472722Y309623D01*
X472731Y309549D01*
X472740Y309466D01*
Y309429D01*
X472731Y309383D01*
X472722Y309337D01*
X472703Y309272D01*
X472685Y309207D01*
X472648Y309142D01*
X472602Y309078D01*
X472592Y309068D01*
X472574Y309050D01*
X472537Y309013D01*
X472481Y308976D01*
X472416Y308939D01*
X472324Y308893D01*
X472222Y308846D01*
X472093Y308809D01*
X472084D01*
X472074Y308800D01*
X472037D01*
X472000Y308791D01*
X471945Y308782D01*
X471880Y308772D01*
X471806Y308754D01*
X471713Y308745D01*
X471612Y308735D01*
X471491Y308717D01*
X471362Y308708D01*
X471214Y308698D01*
X471057Y308689D01*
X470881D01*
X470687Y308680D01*
X470483D01*
X470474D01*
X470437D01*
X470372D01*
X470298D01*
X470206D01*
X470104Y308689D01*
X469984D01*
X469864Y308698D01*
X469604Y308708D01*
X469355Y308726D01*
X469235Y308745D01*
X469114Y308763D01*
X469012Y308782D01*
X468929Y308800D01*
X468920D01*
X468911Y308809D01*
X468864Y308819D01*
X468790Y308846D01*
X468698Y308874D01*
X468606Y308920D01*
X468513Y308967D01*
X468430Y309022D01*
X468365Y309078D01*
X468356Y309087D01*
X468337Y309105D01*
X468319Y309142D01*
X468291Y309189D01*
X468263Y309244D01*
X468235Y309309D01*
X468226Y309383D01*
X468217Y309466D01*
Y309503D01*
X468226Y309549D01*
X468235Y309596D01*
X468254Y309660D01*
X468282Y309725D01*
X468319Y309799D01*
X468365Y309864D01*
X468374Y309873D01*
X468393Y309892D01*
X468430Y309919D01*
X468476Y309956D01*
X468550Y310003D01*
X468633Y310040D01*
X468744Y310086D01*
X468874Y310123D01*
X468883D01*
X468892Y310132D01*
X468929D01*
X468966Y310141D01*
X469022Y310151D01*
X469087Y310160D01*
X469161Y310169D01*
X469253Y310178D01*
X469364Y310197D01*
X469475Y310206D01*
X469614Y310215D01*
X469753Y310225D01*
X469919Y310234D01*
X470085D01*
X470280Y310243D01*
X470483D01*
X470493D01*
X470530D01*
X470594D01*
X470668D01*
X470761D01*
X470862Y310234D01*
D02*
G37*
G36*
X473758Y307385D02*
X470659D01*
X470779Y307394D01*
X470927Y307403D01*
X471103Y307422D01*
X471288Y307440D01*
X471491Y307459D01*
X471704Y307496D01*
X471926Y307542D01*
X472139Y307588D01*
X472352Y307653D01*
X472565Y307718D01*
X472759Y307810D01*
X472944Y307903D01*
X473101Y308014D01*
X473110Y308023D01*
X473129Y308042D01*
X473166Y308069D01*
X473203Y308106D01*
X473249Y308162D01*
X473305Y308227D01*
X473369Y308310D01*
X473425Y308393D01*
X473490Y308495D01*
X473554Y308597D01*
X473610Y308717D01*
X473656Y308846D01*
X473693Y308985D01*
X473730Y309142D01*
X473748Y309300D01*
X473758Y309466D01*
Y307385D01*
D02*
G37*
G36*
Y302353D02*
X471806D01*
X471862Y302362D01*
X471936Y302371D01*
X472019Y302390D01*
X472121Y302408D01*
X472222Y302427D01*
X472444Y302501D01*
X472565Y302556D01*
X472694Y302612D01*
X472814Y302686D01*
X472934Y302769D01*
X473055Y302862D01*
X473166Y302973D01*
X473175Y302982D01*
X473194Y303000D01*
X473221Y303037D01*
X473258Y303084D01*
X473305Y303148D01*
X473351Y303213D01*
X473406Y303306D01*
X473462Y303398D01*
X473517Y303500D01*
X473573Y303620D01*
X473619Y303750D01*
X473665Y303879D01*
X473702Y304027D01*
X473730Y304175D01*
X473748Y304342D01*
X473758Y304508D01*
Y302353D01*
D02*
G37*
%LPC*%
G36*
X473637Y370595D02*
X467237D01*
Y368041D01*
X467246Y367968D01*
X467255Y367792D01*
X467264Y367598D01*
X467292Y367394D01*
X467320Y367200D01*
X467366Y367024D01*
Y367015D01*
X467375Y366996D01*
X467384Y366968D01*
X467394Y366932D01*
X467440Y366821D01*
X467505Y366691D01*
X467588Y366543D01*
X467690Y366376D01*
X467810Y366219D01*
X467958Y366062D01*
Y366053D01*
X467977Y366043D01*
X468032Y365997D01*
X468124Y365923D01*
X468245Y365840D01*
X468393Y365738D01*
X468569Y365636D01*
X468772Y365535D01*
X468994Y365452D01*
X469003D01*
X469022Y365442D01*
X469059Y365433D01*
X469105Y365415D01*
X469161Y365405D01*
X469235Y365387D01*
X469318Y365368D01*
X469410Y365340D01*
X469512Y365322D01*
X469632Y365303D01*
X469753Y365285D01*
X469891Y365276D01*
X470178Y365248D01*
X470502Y365239D01*
X467237D01*
X470631D01*
X470705Y365248D01*
X470779D01*
X470872Y365257D01*
X470973Y365266D01*
X471186Y365285D01*
X471408Y365322D01*
X471639Y365377D01*
X471862Y365442D01*
X471871D01*
X471889Y365452D01*
X471926Y365470D01*
X471982Y365489D01*
X472037Y365507D01*
X472102Y365544D01*
X472268Y365618D01*
X472444Y365710D01*
X472639Y365831D01*
X472823Y365969D01*
X472999Y366127D01*
X473018Y366145D01*
X473055Y366192D01*
X473110Y366266D01*
X473184Y366367D01*
X473268Y366497D01*
X473351Y366645D01*
X473434Y366830D01*
X473508Y367033D01*
Y367042D01*
X473517Y367052D01*
Y367079D01*
X473526Y367107D01*
X473545Y367209D01*
X473573Y367338D01*
X473600Y367496D01*
X473619Y367690D01*
X473628Y367921D01*
X473637Y368171D01*
Y365239D01*
D01*
Y370595D01*
D02*
G37*
G36*
Y364184D02*
X467237D01*
Y362889D01*
X473637D01*
Y364184D01*
D02*
G37*
G36*
X473758Y361881D02*
D01*
Y358736D01*
X473748Y358801D01*
Y358893D01*
X473739Y358995D01*
X473721Y359106D01*
X473702Y359236D01*
X473656Y359504D01*
X473582Y359800D01*
X473480Y360105D01*
X473416Y360244D01*
X473342Y360392D01*
X473332Y360401D01*
X473323Y360420D01*
X473295Y360466D01*
X473258Y360512D01*
X473221Y360577D01*
X473166Y360642D01*
X473101Y360725D01*
X473027Y360808D01*
X472860Y360993D01*
X472648Y361178D01*
X472407Y361354D01*
X472130Y361511D01*
X472121D01*
X472093Y361529D01*
X472047Y361548D01*
X471991Y361566D01*
X471917Y361594D01*
X471834Y361631D01*
X471732Y361659D01*
X471621Y361696D01*
X471501Y361733D01*
X471362Y361761D01*
X471075Y361825D01*
X470761Y361862D01*
X470419Y361881D01*
X473758D01*
X467116D01*
X470317D01*
X470252Y361872D01*
X470159D01*
X470058Y361862D01*
X469947Y361844D01*
X469817Y361825D01*
X469549Y361779D01*
X469244Y361705D01*
X468938Y361603D01*
X468790Y361539D01*
X468643Y361465D01*
X468633Y361455D01*
X468606Y361446D01*
X468569Y361419D01*
X468513Y361391D01*
X468448Y361345D01*
X468374Y361289D01*
X468291Y361224D01*
X468198Y361159D01*
X468106Y361076D01*
X468004Y360984D01*
X467903Y360882D01*
X467801Y360771D01*
X467708Y360651D01*
X467606Y360530D01*
X467440Y360244D01*
Y360234D01*
X467421Y360216D01*
X467412Y360179D01*
X467384Y360133D01*
X467366Y360068D01*
X467338Y360003D01*
X467310Y359911D01*
X467274Y359818D01*
X467246Y359717D01*
X467218Y359596D01*
X467190Y359467D01*
X467163Y359337D01*
X467126Y359041D01*
X467116Y358708D01*
Y358597D01*
X467126Y358514D01*
X467135Y358412D01*
X467144Y358292D01*
X467153Y358162D01*
X467181Y358024D01*
X467237Y357728D01*
X467329Y357422D01*
X467384Y357265D01*
X467449Y357117D01*
X467523Y356979D01*
X467616Y356849D01*
X467625Y356840D01*
X467634Y356821D01*
X467671Y356784D01*
X467708Y356738D01*
X467755Y356682D01*
X467819Y356627D01*
X467893Y356562D01*
X467977Y356488D01*
X468069Y356414D01*
X468171Y356340D01*
X468282Y356266D01*
X468411Y356202D01*
X468541Y356128D01*
X468680Y356072D01*
X468837Y356016D01*
X468994Y355979D01*
X469235Y357265D01*
X469225D01*
X469216Y357275D01*
X469161Y357293D01*
X469077Y357330D01*
X468966Y357385D01*
X468846Y357450D01*
X468726Y357543D01*
X468606Y357654D01*
X468495Y357783D01*
X468485Y357802D01*
X468448Y357848D01*
X468402Y357931D01*
X468356Y358033D01*
X468300Y358172D01*
X468263Y358329D01*
X468226Y358505D01*
X468217Y358708D01*
Y358791D01*
X468226Y358847D01*
X468235Y358921D01*
X468245Y359004D01*
X468263Y359097D01*
X468282Y359198D01*
X468347Y359411D01*
X468393Y359522D01*
X468448Y359633D01*
X468513Y359744D01*
X468578Y359855D01*
X468670Y359957D01*
X468763Y360059D01*
X468772Y360068D01*
X468790Y360077D01*
X468818Y360105D01*
X468864Y360133D01*
X468920Y360170D01*
X468985Y360216D01*
X469068Y360262D01*
X469161Y360299D01*
X469272Y360346D01*
X469392Y360392D01*
X469521Y360438D01*
X469660Y360475D01*
X469817Y360503D01*
X469993Y360530D01*
X470169Y360540D01*
X470363Y360549D01*
X470372D01*
X470409D01*
X470474D01*
X470548Y360540D01*
X470650Y360530D01*
X470751Y360521D01*
X470881Y360503D01*
X471010Y360484D01*
X471288Y360429D01*
X471575Y360336D01*
X471713Y360281D01*
X471843Y360216D01*
X471973Y360133D01*
X472084Y360050D01*
X472093Y360040D01*
X472111Y360022D01*
X472139Y359994D01*
X472176Y359957D01*
X472213Y359901D01*
X472268Y359846D01*
X472315Y359772D01*
X472370Y359689D01*
X472426Y359596D01*
X472472Y359504D01*
X472565Y359273D01*
X472602Y359143D01*
X472629Y359014D01*
X472648Y358865D01*
X472657Y358717D01*
Y358644D01*
X472648Y358570D01*
X472639Y358458D01*
X472620Y358338D01*
X472592Y358200D01*
X472555Y358051D01*
X472500Y357904D01*
Y357894D01*
X472491Y357885D01*
X472472Y357839D01*
X472435Y357755D01*
X472389Y357663D01*
X472333Y357552D01*
X472268Y357432D01*
X472194Y357312D01*
X472111Y357201D01*
X471288D01*
Y358681D01*
X470206D01*
Y355896D01*
X472777D01*
X472796Y355915D01*
X472814Y355943D01*
X472842Y355970D01*
X472879Y356016D01*
X472916Y356063D01*
X473008Y356192D01*
X473110Y356368D01*
X473231Y356572D01*
X473351Y356803D01*
X473462Y357080D01*
Y357089D01*
X473471Y357117D01*
X473490Y357154D01*
X473508Y357210D01*
X473526Y357284D01*
X473554Y357367D01*
X473582Y357459D01*
X473610Y357561D01*
X473665Y357792D01*
X473711Y358061D01*
X473748Y358338D01*
X473758Y358634D01*
Y355896D01*
D01*
D01*
Y361881D01*
D02*
G37*
G36*
Y352483D02*
X467200D01*
X470298D01*
X470178Y352474D01*
X470030Y352465D01*
X469854Y352446D01*
X469669Y352428D01*
X469466Y352409D01*
X469253Y352372D01*
X469040Y352335D01*
X468818Y352279D01*
X468606Y352224D01*
X468402Y352150D01*
X468208Y352067D01*
X468023Y351974D01*
X467866Y351863D01*
X467856Y351854D01*
X467838Y351835D01*
X467801Y351808D01*
X467764Y351762D01*
X467708Y351715D01*
X467653Y351651D01*
X467597Y351567D01*
X467532Y351484D01*
X467468Y351382D01*
X467412Y351280D01*
X467357Y351160D01*
X467301Y351031D01*
X467264Y350892D01*
X467227Y350735D01*
X467209Y350577D01*
X467200Y350411D01*
D01*
D01*
Y350319D01*
X467209Y350254D01*
X467218Y350180D01*
X467237Y350087D01*
X467255Y349995D01*
X467283Y349884D01*
X467320Y349763D01*
X467366Y349653D01*
X467412Y349532D01*
X467477Y349412D01*
X467560Y349292D01*
X467643Y349171D01*
X467745Y349061D01*
X467866Y348959D01*
X467875Y348950D01*
X467903Y348931D01*
X467949Y348903D01*
X468013Y348857D01*
X468106Y348811D01*
X468217Y348755D01*
X468337Y348700D01*
X468495Y348644D01*
X468661Y348589D01*
X468855Y348524D01*
X469068Y348478D01*
X469309Y348431D01*
X469567Y348385D01*
X469845Y348358D01*
X470150Y348339D01*
X470483Y348330D01*
X467200D01*
X473758D01*
Y350568D01*
Y350448D01*
X473748Y350503D01*
Y350568D01*
X473739Y350642D01*
X473721Y350735D01*
X473702Y350836D01*
X473665Y350947D01*
X473628Y351068D01*
X473582Y351188D01*
X473526Y351318D01*
X473453Y351438D01*
X473379Y351567D01*
X473277Y351688D01*
X473175Y351808D01*
X473045Y351919D01*
X473036Y351928D01*
X473008Y351946D01*
X472962Y351974D01*
X472907Y352002D01*
X472823Y352048D01*
X472722Y352095D01*
X472592Y352150D01*
X472453Y352196D01*
X472287Y352252D01*
X472102Y352307D01*
X471889Y352354D01*
X471658Y352391D01*
X471399Y352428D01*
X471112Y352455D01*
X470807Y352474D01*
X470474Y352483D01*
X473758D01*
D02*
G37*
G36*
X473637Y347183D02*
D01*
Y345601D01*
X469003D01*
X469012Y345610D01*
X469031Y345629D01*
X469059Y345666D01*
X469105Y345721D01*
X469161Y345786D01*
X469216Y345860D01*
X469281Y345953D01*
X469355Y346054D01*
X469429Y346165D01*
X469503Y346286D01*
X469586Y346415D01*
X469660Y346554D01*
X469799Y346850D01*
X469928Y347183D01*
X468818D01*
Y347174D01*
X468809Y347164D01*
X468800Y347136D01*
X468790Y347099D01*
X468744Y347007D01*
X468689Y346878D01*
X468615Y346720D01*
X468513Y346545D01*
X468384Y346350D01*
X468235Y346147D01*
X468226Y346137D01*
X468217Y346119D01*
X468189Y346091D01*
X468152Y346054D01*
X468060Y345953D01*
X467940Y345842D01*
X467792Y345712D01*
X467606Y345583D01*
X467412Y345462D01*
X467200Y345370D01*
Y344371D01*
X473637D01*
Y347183D01*
D02*
G37*
%LPD*%
G36*
X472555Y368162D02*
X472546Y368041D01*
Y367912D01*
X472528Y367782D01*
X472518Y367662D01*
X472500Y367561D01*
Y367542D01*
X472481Y367505D01*
X472463Y367449D01*
X472435Y367375D01*
X472398Y367292D01*
X472352Y367209D01*
X472296Y367126D01*
X472231Y367042D01*
X472222Y367033D01*
X472194Y367005D01*
X472148Y366968D01*
X472084Y366922D01*
X472000Y366876D01*
X471899Y366811D01*
X471769Y366765D01*
X471621Y366709D01*
X471612D01*
X471602Y366700D01*
X471575D01*
X471538Y366691D01*
X471501Y366672D01*
X471445Y366663D01*
X471307Y366635D01*
X471140Y366617D01*
X470946Y366589D01*
X470705Y366580D01*
X470446Y366571D01*
X470437D01*
X470409D01*
X470372D01*
X470326D01*
X470261D01*
X470187Y366580D01*
X470030Y366589D01*
X469845Y366608D01*
X469651Y366626D01*
X469475Y366663D01*
X469309Y366709D01*
X469299D01*
X469290Y366719D01*
X469244Y366737D01*
X469170Y366765D01*
X469077Y366802D01*
X468985Y366858D01*
X468883Y366922D01*
X468781Y366996D01*
X468689Y367079D01*
X468680Y367089D01*
X468652Y367116D01*
X468615Y367172D01*
X468569Y367237D01*
X468513Y367329D01*
X468467Y367431D01*
X468421Y367542D01*
X468384Y367671D01*
Y367681D01*
X468374Y367727D01*
X468365Y367801D01*
X468347Y367903D01*
Y367968D01*
X468337Y368051D01*
Y368134D01*
X468328Y368227D01*
Y368337D01*
X468319Y368458D01*
Y369300D01*
X472555D01*
Y368162D01*
D02*
G37*
G36*
X470862Y351179D02*
X470983D01*
X471103Y351169D01*
X471362Y351160D01*
X471621Y351142D01*
X471741Y351132D01*
X471852Y351114D01*
X471954Y351096D01*
X472047Y351077D01*
X472065Y351068D01*
X472111Y351059D01*
X472185Y351031D01*
X472268Y351003D01*
X472361Y350957D01*
X472453Y350910D01*
X472537Y350855D01*
X472602Y350799D01*
X472611Y350790D01*
X472620Y350772D01*
X472648Y350735D01*
X472666Y350689D01*
X472694Y350633D01*
X472722Y350568D01*
X472731Y350494D01*
X472740Y350411D01*
Y350374D01*
X472731Y350328D01*
X472722Y350282D01*
X472703Y350217D01*
X472685Y350152D01*
X472648Y350087D01*
X472602Y350023D01*
X472592Y350013D01*
X472574Y349995D01*
X472537Y349958D01*
X472481Y349921D01*
X472416Y349884D01*
X472324Y349837D01*
X472222Y349791D01*
X472093Y349754D01*
X472084D01*
X472074Y349745D01*
X472037D01*
X472000Y349736D01*
X471945Y349727D01*
X471880Y349717D01*
X471806Y349699D01*
X471713Y349690D01*
X471612Y349680D01*
X471491Y349662D01*
X471362Y349653D01*
X471214Y349643D01*
X471057Y349634D01*
X470881D01*
X470687Y349625D01*
X470483D01*
X470474D01*
X470437D01*
X470372D01*
X470298D01*
X470206D01*
X470104Y349634D01*
X469984D01*
X469864Y349643D01*
X469604Y349653D01*
X469355Y349671D01*
X469235Y349690D01*
X469114Y349708D01*
X469012Y349727D01*
X468929Y349745D01*
X468920D01*
X468911Y349754D01*
X468864Y349763D01*
X468790Y349791D01*
X468698Y349819D01*
X468606Y349865D01*
X468513Y349911D01*
X468430Y349967D01*
X468365Y350023D01*
X468356Y350032D01*
X468337Y350050D01*
X468319Y350087D01*
X468291Y350133D01*
X468263Y350189D01*
X468235Y350254D01*
X468226Y350328D01*
X468217Y350411D01*
Y350448D01*
X468226Y350494D01*
X468235Y350540D01*
X468254Y350605D01*
X468282Y350670D01*
X468319Y350744D01*
X468365Y350809D01*
X468374Y350818D01*
X468393Y350836D01*
X468430Y350864D01*
X468476Y350901D01*
X468550Y350947D01*
X468633Y350985D01*
X468744Y351031D01*
X468874Y351068D01*
X468883D01*
X468892Y351077D01*
X468929D01*
X468966Y351086D01*
X469022Y351096D01*
X469087Y351105D01*
X469161Y351114D01*
X469253Y351123D01*
X469364Y351142D01*
X469475Y351151D01*
X469614Y351160D01*
X469753Y351169D01*
X469919Y351179D01*
X470085D01*
X470280Y351188D01*
X470483D01*
X470493D01*
X470530D01*
X470594D01*
X470668D01*
X470761D01*
X470862Y351179D01*
D02*
G37*
G36*
X473758Y348330D02*
X470659D01*
X470779Y348339D01*
X470927Y348348D01*
X471103Y348367D01*
X471288Y348385D01*
X471491Y348404D01*
X471704Y348441D01*
X471926Y348487D01*
X472139Y348533D01*
X472352Y348598D01*
X472565Y348663D01*
X472759Y348755D01*
X472944Y348848D01*
X473101Y348959D01*
X473110Y348968D01*
X473129Y348987D01*
X473166Y349014D01*
X473203Y349051D01*
X473249Y349107D01*
X473305Y349171D01*
X473369Y349255D01*
X473425Y349338D01*
X473490Y349440D01*
X473554Y349541D01*
X473610Y349662D01*
X473656Y349791D01*
X473693Y349930D01*
X473730Y350087D01*
X473748Y350244D01*
X473758Y350411D01*
Y348330D01*
D02*
G37*
D15*
X488138Y96630D02*
X538138D01*
X488138Y56630D02*
X538138D01*
X488138D02*
Y96630D01*
X538138Y56630D02*
Y96630D01*
X488138D02*
X538138D01*
X488138Y56630D02*
X538138D01*
X488138D02*
Y96630D01*
X538138Y56630D02*
Y96630D01*
Y176681D02*
Y216681D01*
X488138Y176681D02*
Y216681D01*
Y176681D02*
X538138D01*
X488138Y216681D02*
X538138D01*
X488138D02*
X538138D01*
X488138Y176681D02*
X538138D01*
X488138D02*
Y216681D01*
X538138Y176681D02*
Y216681D01*
Y96650D02*
Y136650D01*
X488138Y96650D02*
Y136650D01*
Y96650D02*
X538138D01*
X488138Y136650D02*
X538138D01*
X488138D02*
X538138D01*
X488138Y96650D02*
X538138D01*
X488138D02*
Y136650D01*
X538138Y96650D02*
Y136650D01*
Y136681D02*
Y176681D01*
X488138Y136681D02*
Y176681D01*
Y136681D02*
X538138D01*
X488138Y176681D02*
X538138D01*
Y136681D02*
Y176681D01*
X488138Y136681D02*
Y176681D01*
Y136681D02*
X538138D01*
X488138Y176681D02*
X538138D01*
Y16394D02*
Y56394D01*
X488138Y16394D02*
Y56394D01*
Y16394D02*
X538138D01*
X488138Y56394D02*
X538138D01*
Y16394D02*
Y56394D01*
X488138Y16394D02*
Y56394D01*
Y16394D02*
X538138D01*
X488138Y56394D02*
X538138D01*
Y217051D02*
Y257051D01*
X488138Y217051D02*
Y257051D01*
Y217051D02*
X538138D01*
X488138Y257051D02*
X538138D01*
X488138D02*
X538138D01*
X488138Y217051D02*
X538138D01*
X488138D02*
Y257051D01*
X538138Y217051D02*
Y257051D01*
Y297051D01*
X488138Y257051D02*
Y297051D01*
Y257051D02*
X538138D01*
X488138Y297051D02*
X538138D01*
X488138D02*
X538138D01*
X488138Y257051D02*
X538138D01*
X488138D02*
Y297051D01*
X538138Y257051D02*
Y297051D01*
X488138Y337051D02*
X538138D01*
X488138Y297051D02*
X538138D01*
X488138D02*
Y337051D01*
X538138Y297051D02*
Y337051D01*
Y297051D02*
Y337051D01*
X488138Y297051D02*
Y337051D01*
Y297051D02*
X538138D01*
X488138Y337051D02*
X538138D01*
X488138Y377051D02*
X538138D01*
X488138Y337051D02*
X538138D01*
X488138D02*
Y377051D01*
X538138Y337051D02*
Y377051D01*
Y337051D02*
Y377051D01*
X488138Y337051D02*
Y377051D01*
Y337051D02*
X538138D01*
X488138Y377051D02*
X538138D01*
X516083Y85781D02*
X521082D01*
X522081Y84781D01*
Y82782D01*
X521082Y81782D01*
X516083D01*
X517083Y79783D02*
X516083Y78783D01*
Y76784D01*
X517083Y75784D01*
X518083D01*
X519082Y76784D01*
Y77784D01*
Y76784D01*
X520082Y75784D01*
X521082D01*
X522081Y76784D01*
Y78783D01*
X521082Y79783D01*
X522081Y73785D02*
X516083D01*
Y70786D01*
X517083Y69786D01*
X519082D01*
X520082Y70786D01*
Y73785D01*
X526182Y85281D02*
X531180D01*
X532180Y84281D01*
Y82282D01*
X531180Y81282D01*
X526182D01*
X532180Y79283D02*
Y77284D01*
Y78283D01*
X526182D01*
X527181Y79283D01*
X532180Y74285D02*
X526182D01*
Y71286D01*
X527181Y70286D01*
X529181D01*
X530181Y71286D01*
Y74285D01*
X516083Y286202D02*
X521082D01*
X522081Y285202D01*
Y283203D01*
X521082Y282203D01*
X516083D01*
X517083Y280204D02*
X516083Y279204D01*
Y277205D01*
X517083Y276205D01*
X518083D01*
X519082Y277205D01*
Y278205D01*
Y277205D01*
X520082Y276205D01*
X521082D01*
X522081Y277205D01*
Y279204D01*
X521082Y280204D01*
X516083Y270207D02*
Y274206D01*
X519082D01*
Y272207D01*
Y274206D01*
X522081D01*
X516083Y45545D02*
X521082D01*
X522081Y44545D01*
Y42546D01*
X521082Y41546D01*
X516083D01*
X517083Y39547D02*
X516083Y38547D01*
Y36548D01*
X517083Y35548D01*
X518083D01*
X519082Y36548D01*
Y37547D01*
Y36548D01*
X520082Y35548D01*
X521082D01*
X522081Y36548D01*
Y38547D01*
X521082Y39547D01*
X522081Y33549D02*
X516083D01*
Y30549D01*
X517083Y29550D01*
X519082D01*
X520082Y30549D01*
Y33549D01*
Y31549D02*
X522081Y29550D01*
X526182Y45045D02*
X531180D01*
X532180Y44045D01*
Y42046D01*
X531180Y41046D01*
X526182D01*
X532180Y39047D02*
Y37047D01*
Y38047D01*
X526182D01*
X527181Y39047D01*
X532180Y34048D02*
X526182D01*
Y31049D01*
X527181Y30050D01*
X529181D01*
X530181Y31049D01*
Y34048D01*
Y32049D02*
X532180Y30050D01*
X526182Y125301D02*
X531180D01*
X532180Y124301D01*
Y122302D01*
X531180Y121302D01*
X526182D01*
X532180Y119303D02*
Y117303D01*
Y118303D01*
X526182D01*
X527181Y119303D01*
X532180Y114304D02*
X526182D01*
X532180Y110306D01*
X526182D01*
X526182Y165332D02*
X531180D01*
X532180Y164332D01*
Y162333D01*
X531180Y161334D01*
X526182D01*
X532180Y159334D02*
Y157335D01*
Y158335D01*
X526182D01*
X527181Y159334D01*
X526182Y154336D02*
X532180D01*
Y150337D01*
X526182Y205332D02*
X531180D01*
X532180Y204332D01*
Y202333D01*
X531180Y201333D01*
X526182D01*
X532180Y199334D02*
Y197335D01*
Y198335D01*
X526182D01*
X527181Y199334D01*
X526182Y190337D02*
Y192336D01*
Y191337D01*
X531180D01*
X532180Y192336D01*
Y193336D01*
X531180Y194336D01*
X526182Y245702D02*
X531180D01*
X532180Y244703D01*
Y242703D01*
X531180Y241704D01*
X526182D01*
X532180Y239704D02*
Y237705D01*
Y238705D01*
X526182D01*
X527181Y239704D01*
X526182Y234706D02*
X532180D01*
X529181D01*
Y230707D01*
X526182D01*
X532180D01*
X526182Y285702D02*
X531180D01*
X532180Y284703D01*
Y282703D01*
X531180Y281704D01*
X526182D01*
X532180Y279704D02*
Y277705D01*
Y278705D01*
X526182D01*
X527181Y279704D01*
X526182Y270707D02*
Y274706D01*
X529181D01*
Y272707D01*
Y274706D01*
X532180D01*
X526182Y325702D02*
X531180D01*
X532180Y324703D01*
Y322703D01*
X531180Y321704D01*
X526182D01*
X532180Y319704D02*
Y317705D01*
Y318705D01*
X526182D01*
X527181Y319704D01*
X526182Y314706D02*
X532180D01*
Y311707D01*
X531180Y310707D01*
X527181D01*
X526182Y311707D01*
Y314706D01*
X526182Y365702D02*
X531180D01*
X532180Y364703D01*
Y362703D01*
X531180Y361704D01*
X526182D01*
X532180Y359704D02*
Y357705D01*
Y358705D01*
X526182D01*
X527181Y359704D01*
X526182Y354706D02*
X532180D01*
Y351707D01*
X531180Y350707D01*
X530181D01*
X529181Y351707D01*
Y354706D01*
Y351707D01*
X528181Y350707D01*
X527181D01*
X526182Y351707D01*
Y354706D01*
X516083Y326202D02*
X521082D01*
X522081Y325202D01*
Y323203D01*
X521082Y322203D01*
X516083D01*
X517083Y320204D02*
X516083Y319204D01*
Y317205D01*
X517083Y316205D01*
X518083D01*
X519082Y317205D01*
Y318205D01*
Y317205D01*
X520082Y316205D01*
X521082D01*
X522081Y317205D01*
Y319204D01*
X521082Y320204D01*
X516083Y314206D02*
X522081D01*
Y311207D01*
X521082Y310207D01*
X517083D01*
X516083Y311207D01*
Y314206D01*
X516083Y366202D02*
X521082D01*
X522081Y365202D01*
Y363203D01*
X521082Y362203D01*
X516083D01*
X517083Y360204D02*
X516083Y359204D01*
Y357205D01*
X517083Y356205D01*
X518083D01*
X519082Y357205D01*
Y358205D01*
Y357205D01*
X520082Y356205D01*
X521082D01*
X522081Y357205D01*
Y359204D01*
X521082Y360204D01*
X516083Y354206D02*
X522081D01*
Y351207D01*
X521082Y350207D01*
X520082D01*
X519082Y351207D01*
Y354206D01*
Y351207D01*
X518083Y350207D01*
X517083D01*
X516083Y351207D01*
Y354206D01*
X516083Y125801D02*
X521082D01*
X522081Y124801D01*
Y122801D01*
X521082Y121802D01*
X516083D01*
X517083Y119802D02*
X516083Y118803D01*
Y116804D01*
X517083Y115804D01*
X518083D01*
X519082Y116804D01*
Y117803D01*
Y116804D01*
X520082Y115804D01*
X521082D01*
X522081Y116804D01*
Y118803D01*
X521082Y119802D01*
X522081Y113804D02*
X516083D01*
X522081Y109806D01*
X516083D01*
X516083Y165832D02*
X521082D01*
X522081Y164832D01*
Y162833D01*
X521082Y161833D01*
X516083D01*
X517083Y159834D02*
X516083Y158834D01*
Y156835D01*
X517083Y155835D01*
X518083D01*
X519082Y156835D01*
Y157835D01*
Y156835D01*
X520082Y155835D01*
X521082D01*
X522081Y156835D01*
Y158834D01*
X521082Y159834D01*
X516083Y153836D02*
X522081D01*
Y149837D01*
X516083Y205832D02*
X521082D01*
X522081Y204832D01*
Y202833D01*
X521082Y201833D01*
X516083D01*
X517083Y199834D02*
X516083Y198834D01*
Y196835D01*
X517083Y195835D01*
X518083D01*
X519082Y196835D01*
Y197835D01*
Y196835D01*
X520082Y195835D01*
X521082D01*
X522081Y196835D01*
Y198834D01*
X521082Y199834D01*
X516083Y189837D02*
Y191837D01*
Y190837D01*
X521082D01*
X522081Y191837D01*
Y192836D01*
X521082Y193836D01*
X516083Y246202D02*
X521082D01*
X522081Y245202D01*
Y243203D01*
X521082Y242203D01*
X516083D01*
X517083Y240204D02*
X516083Y239204D01*
Y237205D01*
X517083Y236205D01*
X518083D01*
X519082Y237205D01*
Y238205D01*
Y237205D01*
X520082Y236205D01*
X521082D01*
X522081Y237205D01*
Y239204D01*
X521082Y240204D01*
X516083Y234206D02*
X522081D01*
X519082D01*
Y230207D01*
X516083D01*
X522081D01*
D70*
X543702Y5786D02*
X544764D01*
X544233D01*
Y3130D01*
X544764Y2598D01*
X545295D01*
X545827Y3130D01*
X542639Y5786D02*
Y2598D01*
X540514D01*
X537326Y5255D02*
X537857Y5786D01*
X538919D01*
X539451Y5255D01*
Y3130D01*
X538919Y2598D01*
X537857D01*
X537326Y3130D01*
X534138Y5786D02*
X535200D01*
X534669D01*
Y3130D01*
X535200Y2598D01*
X535732D01*
X536263Y3130D01*
X533075Y5786D02*
Y2598D01*
X530950D01*
X527762Y5255D02*
X528293Y5786D01*
X529356D01*
X529887Y5255D01*
Y3130D01*
X529356Y2598D01*
X528293D01*
X527762Y3130D01*
X524574Y5786D02*
X525636D01*
X525105D01*
Y3130D01*
X525636Y2598D01*
X526168D01*
X526699Y3130D01*
X523511Y5786D02*
Y2598D01*
X521386D01*
X518198Y5255D02*
X518729Y5786D01*
X519792D01*
X520323Y5255D01*
Y3130D01*
X519792Y2598D01*
X518729D01*
X518198Y3130D01*
X515010Y5786D02*
X516073D01*
X515541D01*
Y3130D01*
X516073Y2598D01*
X516604D01*
X517135Y3130D01*
X513947Y5786D02*
Y2598D01*
X511822D01*
X508634Y5255D02*
X509165Y5786D01*
X510228D01*
X510759Y5255D01*
Y3130D01*
X510228Y2598D01*
X509165D01*
X508634Y3130D01*
M02*
