G04*
G04 #@! TF.GenerationSoftware,Altium Limited,Altium Designer,21.5.1 (32)*
G04*
G04 Layer_Color=8421504*
%FSLAX25Y25*%
%MOIN*%
G70*
G04*
G04 #@! TF.SameCoordinates,FB92316D-9947-4A72-8022-4AE984785D81*
G04*
G04*
G04 #@! TF.FilePolarity,Positive*
G04*
G01*
G75*
%ADD23R,0.03937X0.03543*%
%ADD24R,0.05512X0.03937*%
%ADD25R,0.03150X0.03150*%
%ADD26R,0.03543X0.02756*%
%ADD27O,0.03347X0.01575*%
%ADD28R,0.09055X0.16929*%
%ADD29R,0.07165X0.04764*%
%ADD30R,0.02756X0.03543*%
%ADD31R,0.03543X0.03937*%
%ADD32R,0.35236X0.35827*%
%ADD33R,0.03740X0.15551*%
%ADD34R,0.11811X0.13780*%
G04:AMPARAMS|DCode=35|XSize=23.62mil|YSize=68.9mil|CornerRadius=5.91mil|HoleSize=0mil|Usage=FLASHONLY|Rotation=90.000|XOffset=0mil|YOffset=0mil|HoleType=Round|Shape=RoundedRectangle|*
%AMROUNDEDRECTD35*
21,1,0.02362,0.05709,0,0,90.0*
21,1,0.01181,0.06890,0,0,90.0*
1,1,0.01181,0.02854,0.00591*
1,1,0.01181,0.02854,-0.00591*
1,1,0.01181,-0.02854,-0.00591*
1,1,0.01181,-0.02854,0.00591*
%
%ADD35ROUNDEDRECTD35*%
%ADD36R,0.15748X0.13780*%
D23*
X462205Y364272D02*
D03*
Y370571D02*
D03*
X475591Y364272D02*
D03*
Y370571D02*
D03*
X415748D02*
D03*
Y364272D02*
D03*
X481102Y370571D02*
D03*
Y364272D02*
D03*
X370079Y364272D02*
D03*
Y370571D02*
D03*
X390982Y364264D02*
D03*
Y370563D02*
D03*
X456299Y364272D02*
D03*
Y370571D02*
D03*
X462500Y345965D02*
D03*
Y352264D02*
D03*
X475886Y352264D02*
D03*
Y345965D02*
D03*
X416043Y352264D02*
D03*
Y345965D02*
D03*
X370374D02*
D03*
Y352264D02*
D03*
X391278Y345957D02*
D03*
Y352256D02*
D03*
X456595Y345965D02*
D03*
Y352264D02*
D03*
X462205Y306791D02*
D03*
Y313091D02*
D03*
X475591Y313090D02*
D03*
Y306791D02*
D03*
X415748Y313091D02*
D03*
Y306791D02*
D03*
X370079D02*
D03*
Y313091D02*
D03*
X390982Y306784D02*
D03*
Y313083D02*
D03*
X456299Y306791D02*
D03*
Y313091D02*
D03*
X462051Y285181D02*
D03*
Y291480D02*
D03*
X475437Y285181D02*
D03*
Y291480D02*
D03*
X415594D02*
D03*
Y285181D02*
D03*
X369925D02*
D03*
Y291480D02*
D03*
X390829Y285173D02*
D03*
Y291472D02*
D03*
X456146Y291480D02*
D03*
Y285181D02*
D03*
X462205Y265453D02*
D03*
Y271752D02*
D03*
X475591Y271752D02*
D03*
Y265453D02*
D03*
X415748Y271752D02*
D03*
Y265453D02*
D03*
X370079D02*
D03*
Y271752D02*
D03*
X390982Y265445D02*
D03*
Y271744D02*
D03*
X456299Y271752D02*
D03*
Y265453D02*
D03*
X462150Y244236D02*
D03*
Y250535D02*
D03*
X475535Y244236D02*
D03*
Y250535D02*
D03*
X415693D02*
D03*
Y244236D02*
D03*
X370024D02*
D03*
Y250535D02*
D03*
X390927Y244228D02*
D03*
Y250528D02*
D03*
X456244Y250535D02*
D03*
Y244236D02*
D03*
X462205Y225984D02*
D03*
Y232283D02*
D03*
X475591Y232283D02*
D03*
Y225984D02*
D03*
X415748Y232283D02*
D03*
Y225984D02*
D03*
X370079D02*
D03*
Y232283D02*
D03*
X390982Y225976D02*
D03*
Y232276D02*
D03*
X456299Y232283D02*
D03*
Y225984D02*
D03*
X462205Y205118D02*
D03*
Y211417D02*
D03*
X475591Y205118D02*
D03*
Y211417D02*
D03*
X415748D02*
D03*
Y205118D02*
D03*
X370079D02*
D03*
Y211417D02*
D03*
X390982Y205110D02*
D03*
Y211409D02*
D03*
X456299Y211417D02*
D03*
Y205118D02*
D03*
X462205Y194587D02*
D03*
Y188287D02*
D03*
X475591Y188287D02*
D03*
Y194587D02*
D03*
X415748Y188287D02*
D03*
Y194587D02*
D03*
X370079D02*
D03*
Y188287D02*
D03*
X390982Y194579D02*
D03*
Y188279D02*
D03*
X456299Y194587D02*
D03*
Y188287D02*
D03*
X481102Y171260D02*
D03*
Y164961D02*
D03*
X462205Y164961D02*
D03*
Y171260D02*
D03*
X475591Y164961D02*
D03*
Y171260D02*
D03*
X415748D02*
D03*
Y164961D02*
D03*
X370079D02*
D03*
Y171260D02*
D03*
X456299Y164961D02*
D03*
Y171260D02*
D03*
X462205Y146063D02*
D03*
Y152362D02*
D03*
X475591Y152362D02*
D03*
Y146063D02*
D03*
X415748Y152362D02*
D03*
Y146063D02*
D03*
X370079D02*
D03*
Y152362D02*
D03*
X390982Y146055D02*
D03*
Y152354D02*
D03*
X456299Y152362D02*
D03*
Y146063D02*
D03*
X462532Y123457D02*
D03*
Y129756D02*
D03*
X475918Y123457D02*
D03*
Y129756D02*
D03*
X416075D02*
D03*
Y123457D02*
D03*
X370406D02*
D03*
Y129756D02*
D03*
X391309Y123449D02*
D03*
Y129748D02*
D03*
X456626Y123457D02*
D03*
Y129756D02*
D03*
X462598Y106398D02*
D03*
Y112697D02*
D03*
X475984Y112697D02*
D03*
Y106398D02*
D03*
X416142Y112697D02*
D03*
Y106398D02*
D03*
X370472D02*
D03*
Y112697D02*
D03*
X391376Y106390D02*
D03*
Y112689D02*
D03*
X456693Y106398D02*
D03*
Y112697D02*
D03*
X462598Y81890D02*
D03*
Y88189D02*
D03*
X475984Y81890D02*
D03*
Y88189D02*
D03*
X416142D02*
D03*
Y81890D02*
D03*
X370472D02*
D03*
Y88189D02*
D03*
X391376Y81882D02*
D03*
Y88181D02*
D03*
X456693Y88189D02*
D03*
Y81890D02*
D03*
Y64468D02*
D03*
Y70768D02*
D03*
X462598Y64468D02*
D03*
Y70768D02*
D03*
X396888Y70760D02*
D03*
Y64461D02*
D03*
X450394Y70768D02*
D03*
Y64468D02*
D03*
X363779Y70768D02*
D03*
Y64468D02*
D03*
X475984Y70768D02*
D03*
Y64468D02*
D03*
X416142Y70768D02*
D03*
Y64468D02*
D03*
X481496Y70768D02*
D03*
Y64468D02*
D03*
X370472Y64468D02*
D03*
Y70768D02*
D03*
X391376Y64461D02*
D03*
Y70760D02*
D03*
X462598Y41339D02*
D03*
Y47638D02*
D03*
X475984Y41339D02*
D03*
Y47638D02*
D03*
X416142D02*
D03*
Y41339D02*
D03*
X370472D02*
D03*
Y47638D02*
D03*
X391376Y41331D02*
D03*
Y47630D02*
D03*
X456693Y47638D02*
D03*
Y41339D02*
D03*
Y29528D02*
D03*
Y23228D02*
D03*
X462598Y29528D02*
D03*
Y23228D02*
D03*
X396888Y23221D02*
D03*
Y29520D02*
D03*
X450394Y23228D02*
D03*
Y29528D02*
D03*
X363779Y23228D02*
D03*
Y29528D02*
D03*
X475984Y23228D02*
D03*
Y29528D02*
D03*
X416142Y23228D02*
D03*
Y29528D02*
D03*
X481496Y23228D02*
D03*
Y29528D02*
D03*
X370472Y29528D02*
D03*
Y23228D02*
D03*
X391376Y29520D02*
D03*
Y23221D02*
D03*
X456299Y330807D02*
D03*
Y324508D02*
D03*
X462205D02*
D03*
Y330807D02*
D03*
X421260Y188287D02*
D03*
Y194587D02*
D03*
X396494Y194579D02*
D03*
Y188279D02*
D03*
X450000Y194587D02*
D03*
Y188287D02*
D03*
X363386Y194587D02*
D03*
Y188287D02*
D03*
X481102Y188287D02*
D03*
Y194587D02*
D03*
X421654Y23228D02*
D03*
Y29528D02*
D03*
X481496Y41339D02*
D03*
Y47638D02*
D03*
X363779Y47638D02*
D03*
Y41339D02*
D03*
X450394Y47638D02*
D03*
Y41339D02*
D03*
X396888Y47630D02*
D03*
Y41331D02*
D03*
X421654Y41339D02*
D03*
Y47638D02*
D03*
Y70768D02*
D03*
Y64468D02*
D03*
X481496Y81890D02*
D03*
Y88189D02*
D03*
X363779Y88189D02*
D03*
Y81890D02*
D03*
X450394Y88189D02*
D03*
Y81890D02*
D03*
X396888Y88181D02*
D03*
Y81882D02*
D03*
X421654Y81890D02*
D03*
Y88189D02*
D03*
X481496Y112697D02*
D03*
Y106398D02*
D03*
X363779Y106398D02*
D03*
Y112697D02*
D03*
X450394Y106398D02*
D03*
Y112697D02*
D03*
X396888Y106390D02*
D03*
Y112689D02*
D03*
X421654Y112697D02*
D03*
Y106398D02*
D03*
X481429Y129756D02*
D03*
Y123457D02*
D03*
X363713Y123457D02*
D03*
Y129756D02*
D03*
X450327Y123457D02*
D03*
Y129756D02*
D03*
X396821Y123449D02*
D03*
Y129748D02*
D03*
X421587Y129756D02*
D03*
Y123457D02*
D03*
X481102Y146063D02*
D03*
Y152362D02*
D03*
X363386Y152362D02*
D03*
Y146063D02*
D03*
X450000Y152362D02*
D03*
Y146063D02*
D03*
X396494Y152354D02*
D03*
Y146055D02*
D03*
X421260Y146063D02*
D03*
Y152362D02*
D03*
X363386Y164961D02*
D03*
Y171260D02*
D03*
X450000Y164961D02*
D03*
Y171260D02*
D03*
X396494Y164953D02*
D03*
Y171252D02*
D03*
X421260Y171260D02*
D03*
Y164961D02*
D03*
X481102Y205118D02*
D03*
Y211417D02*
D03*
X363386Y211417D02*
D03*
Y205118D02*
D03*
X450000Y211417D02*
D03*
Y205118D02*
D03*
X396494Y211409D02*
D03*
Y205110D02*
D03*
X421260Y205118D02*
D03*
Y211417D02*
D03*
X481102Y225984D02*
D03*
Y232283D02*
D03*
X363386Y232283D02*
D03*
Y225984D02*
D03*
X450000Y232283D02*
D03*
Y225984D02*
D03*
X396494Y232276D02*
D03*
Y225976D02*
D03*
X421260Y225984D02*
D03*
Y232283D02*
D03*
X481047Y244236D02*
D03*
Y250535D02*
D03*
X363331Y250535D02*
D03*
Y244236D02*
D03*
X449945Y250535D02*
D03*
Y244236D02*
D03*
X396439Y250528D02*
D03*
Y244228D02*
D03*
X421205Y244236D02*
D03*
Y250535D02*
D03*
X481102Y265453D02*
D03*
Y271752D02*
D03*
X363386Y271752D02*
D03*
Y265453D02*
D03*
X450000Y271752D02*
D03*
Y265453D02*
D03*
X396494Y271744D02*
D03*
Y265445D02*
D03*
X421260Y265453D02*
D03*
Y271752D02*
D03*
X480949Y285181D02*
D03*
Y291480D02*
D03*
X363232Y291480D02*
D03*
Y285181D02*
D03*
X449847Y291480D02*
D03*
Y285181D02*
D03*
X396340Y285173D02*
D03*
Y291472D02*
D03*
X421106Y285181D02*
D03*
Y291480D02*
D03*
X450000Y306791D02*
D03*
Y313091D02*
D03*
X421260Y306791D02*
D03*
Y313091D02*
D03*
X481102Y306791D02*
D03*
Y313090D02*
D03*
X363386Y306791D02*
D03*
Y313091D02*
D03*
X396494Y313083D02*
D03*
Y306784D02*
D03*
X450000Y324508D02*
D03*
Y330807D02*
D03*
X421260D02*
D03*
Y324508D02*
D03*
X481102Y330807D02*
D03*
Y324508D02*
D03*
X363386Y324508D02*
D03*
Y330807D02*
D03*
X396494Y324500D02*
D03*
Y330799D02*
D03*
X415748Y324508D02*
D03*
Y330807D02*
D03*
X475591D02*
D03*
Y324508D02*
D03*
X450295Y345965D02*
D03*
Y352264D02*
D03*
X421555Y345965D02*
D03*
Y352264D02*
D03*
X481398Y352264D02*
D03*
Y345965D02*
D03*
X363681Y352264D02*
D03*
Y345965D02*
D03*
X396789Y352256D02*
D03*
Y345957D02*
D03*
X450000Y370571D02*
D03*
Y364272D02*
D03*
X421260D02*
D03*
Y370571D02*
D03*
X363386Y364272D02*
D03*
Y370571D02*
D03*
X396494Y370563D02*
D03*
Y364264D02*
D03*
X370079Y330807D02*
D03*
Y324508D02*
D03*
X390982Y330799D02*
D03*
Y324500D02*
D03*
Y171252D02*
D03*
Y164953D02*
D03*
X47000Y346850D02*
D03*
Y353150D02*
D03*
X22500Y352650D02*
D03*
Y346350D02*
D03*
X172500Y337650D02*
D03*
Y331350D02*
D03*
Y344850D02*
D03*
Y351150D02*
D03*
X69500Y271650D02*
D03*
Y265350D02*
D03*
X-28308Y113919D02*
D03*
Y107620D02*
D03*
D24*
X469291Y63976D02*
D03*
Y71260D02*
D03*
Y30020D02*
D03*
Y22736D02*
D03*
X403581Y29618D02*
D03*
Y22335D02*
D03*
X403187Y232374D02*
D03*
Y225091D02*
D03*
X468898Y187795D02*
D03*
Y195079D02*
D03*
X403187Y187394D02*
D03*
Y194677D02*
D03*
X403581Y40445D02*
D03*
Y47728D02*
D03*
X469291Y48130D02*
D03*
Y40846D02*
D03*
X403581Y70858D02*
D03*
Y63575D02*
D03*
Y80996D02*
D03*
Y88279D02*
D03*
X469291Y88681D02*
D03*
Y81398D02*
D03*
X403581Y112787D02*
D03*
Y105504D02*
D03*
X469291Y113189D02*
D03*
Y105905D02*
D03*
X403514Y129847D02*
D03*
Y122563D02*
D03*
X469225Y122965D02*
D03*
Y130248D02*
D03*
X403187Y152453D02*
D03*
Y145169D02*
D03*
X468898Y145571D02*
D03*
Y152854D02*
D03*
X403187Y171350D02*
D03*
Y164067D02*
D03*
X468898Y164469D02*
D03*
Y171752D02*
D03*
X403187Y204224D02*
D03*
Y211508D02*
D03*
X468898Y211909D02*
D03*
Y204626D02*
D03*
Y225492D02*
D03*
Y232776D02*
D03*
X403132Y243342D02*
D03*
Y250626D02*
D03*
X468843Y251028D02*
D03*
Y243744D02*
D03*
X403187Y264559D02*
D03*
Y271843D02*
D03*
X468898Y264961D02*
D03*
Y272244D02*
D03*
X403033Y284287D02*
D03*
Y291571D02*
D03*
X468744Y291972D02*
D03*
Y284689D02*
D03*
X403187Y313181D02*
D03*
Y305898D02*
D03*
X468898Y313583D02*
D03*
Y306299D02*
D03*
X403187Y330898D02*
D03*
Y323614D02*
D03*
X468898Y324016D02*
D03*
Y331299D02*
D03*
X469193Y352756D02*
D03*
Y345472D02*
D03*
X403482Y345071D02*
D03*
Y352354D02*
D03*
X468898Y363779D02*
D03*
Y371063D02*
D03*
X403187Y370661D02*
D03*
Y363378D02*
D03*
D25*
X443701Y29528D02*
D03*
Y23228D02*
D03*
X357874Y29528D02*
D03*
Y23228D02*
D03*
X443307Y188287D02*
D03*
Y194587D02*
D03*
X357480Y188287D02*
D03*
Y194587D02*
D03*
X357874Y41339D02*
D03*
Y47638D02*
D03*
X443701Y41339D02*
D03*
Y47638D02*
D03*
X357874Y70768D02*
D03*
Y64468D02*
D03*
X443701Y70768D02*
D03*
Y64468D02*
D03*
X357874Y81890D02*
D03*
Y88189D02*
D03*
X443701Y81890D02*
D03*
Y88189D02*
D03*
X357874Y112697D02*
D03*
Y106398D02*
D03*
X443701Y112697D02*
D03*
Y106398D02*
D03*
X357807Y129756D02*
D03*
Y123457D02*
D03*
X443634Y129756D02*
D03*
Y123457D02*
D03*
X357480Y146063D02*
D03*
Y152362D02*
D03*
X443307Y146063D02*
D03*
Y152362D02*
D03*
X357480Y171260D02*
D03*
Y164961D02*
D03*
X443307Y171260D02*
D03*
Y164961D02*
D03*
X357480Y205118D02*
D03*
Y211417D02*
D03*
X443307Y205118D02*
D03*
Y211417D02*
D03*
X357480Y232283D02*
D03*
Y225984D02*
D03*
X443307D02*
D03*
Y232283D02*
D03*
X357425Y244236D02*
D03*
Y250535D02*
D03*
X443252Y244236D02*
D03*
Y250535D02*
D03*
X357480Y265453D02*
D03*
Y271752D02*
D03*
X443307Y265453D02*
D03*
Y271752D02*
D03*
X357327Y285181D02*
D03*
Y291480D02*
D03*
X443153Y285181D02*
D03*
Y291480D02*
D03*
X443307Y306791D02*
D03*
Y313091D02*
D03*
X357480D02*
D03*
Y306791D02*
D03*
X443307Y324508D02*
D03*
Y330807D02*
D03*
X357480D02*
D03*
Y324508D02*
D03*
X443602Y345965D02*
D03*
Y352264D02*
D03*
X357776D02*
D03*
Y345965D02*
D03*
X443307Y370571D02*
D03*
Y364272D02*
D03*
X357480D02*
D03*
Y370571D02*
D03*
X47000Y376799D02*
D03*
Y370500D02*
D03*
X22500Y376150D02*
D03*
Y369850D02*
D03*
D26*
X410630Y28740D02*
D03*
Y23228D02*
D03*
X410236Y231496D02*
D03*
Y225984D02*
D03*
X410236Y188287D02*
D03*
Y193799D02*
D03*
X410630Y41339D02*
D03*
Y46850D02*
D03*
Y69980D02*
D03*
Y64468D02*
D03*
Y81890D02*
D03*
Y87402D02*
D03*
Y111909D02*
D03*
Y106398D02*
D03*
X410563Y128969D02*
D03*
Y123457D02*
D03*
X410236Y146063D02*
D03*
Y151575D02*
D03*
Y170472D02*
D03*
Y164961D02*
D03*
Y205118D02*
D03*
Y210630D02*
D03*
X410181Y244236D02*
D03*
Y249748D02*
D03*
X410236Y265453D02*
D03*
Y270965D02*
D03*
X410083Y290693D02*
D03*
Y285181D02*
D03*
X410236Y306791D02*
D03*
Y312303D02*
D03*
X410236Y324508D02*
D03*
Y330020D02*
D03*
X410532Y351476D02*
D03*
Y345965D02*
D03*
X410236Y369783D02*
D03*
Y364272D02*
D03*
X163500Y350256D02*
D03*
Y344744D02*
D03*
X59500Y289744D02*
D03*
Y295256D02*
D03*
X103500Y285756D02*
D03*
Y280244D02*
D03*
D27*
X375892Y194579D02*
D03*
Y192020D02*
D03*
Y189461D02*
D03*
X384750Y194579D02*
D03*
Y192020D02*
D03*
Y189461D02*
D03*
X427461Y194587D02*
D03*
Y192027D02*
D03*
Y189469D02*
D03*
X436319Y194587D02*
D03*
Y192027D02*
D03*
Y189469D02*
D03*
X385144Y24402D02*
D03*
Y26961D02*
D03*
Y29520D02*
D03*
X376285Y24402D02*
D03*
Y26961D02*
D03*
Y29520D02*
D03*
X436713Y24409D02*
D03*
Y26969D02*
D03*
Y29528D02*
D03*
X427854Y24409D02*
D03*
Y26969D02*
D03*
Y29528D02*
D03*
X384750Y365445D02*
D03*
Y368004D02*
D03*
Y370563D02*
D03*
X375892Y365445D02*
D03*
Y368004D02*
D03*
Y370563D02*
D03*
X376187Y352256D02*
D03*
Y349697D02*
D03*
Y347138D02*
D03*
X385045Y352256D02*
D03*
Y349697D02*
D03*
Y347138D02*
D03*
X384750Y325681D02*
D03*
Y328240D02*
D03*
Y330799D02*
D03*
X375892Y325681D02*
D03*
Y328240D02*
D03*
Y330799D02*
D03*
X375892Y313083D02*
D03*
Y310524D02*
D03*
Y307965D02*
D03*
X384750Y313083D02*
D03*
Y310524D02*
D03*
Y307965D02*
D03*
X427461Y370571D02*
D03*
Y368012D02*
D03*
Y365453D02*
D03*
X436319Y370571D02*
D03*
Y368012D02*
D03*
Y365453D02*
D03*
X436614Y347146D02*
D03*
Y349705D02*
D03*
Y352264D02*
D03*
X427756Y347146D02*
D03*
Y349705D02*
D03*
Y352264D02*
D03*
X427461Y330807D02*
D03*
Y328248D02*
D03*
Y325689D02*
D03*
X436319Y330807D02*
D03*
Y328248D02*
D03*
Y325689D02*
D03*
X436319Y307972D02*
D03*
Y310531D02*
D03*
Y313091D02*
D03*
X427461Y307972D02*
D03*
Y310531D02*
D03*
Y313091D02*
D03*
X427307Y291480D02*
D03*
Y288921D02*
D03*
Y286362D02*
D03*
X436165Y291480D02*
D03*
Y288921D02*
D03*
Y286362D02*
D03*
X436319Y266634D02*
D03*
Y269193D02*
D03*
Y271752D02*
D03*
X427461Y266634D02*
D03*
Y269193D02*
D03*
Y271752D02*
D03*
X427406Y250535D02*
D03*
Y247976D02*
D03*
Y245417D02*
D03*
X436264Y250535D02*
D03*
Y247976D02*
D03*
Y245417D02*
D03*
X436319Y227165D02*
D03*
Y229724D02*
D03*
Y232283D02*
D03*
X427461Y227165D02*
D03*
Y229724D02*
D03*
Y232283D02*
D03*
Y211417D02*
D03*
Y208858D02*
D03*
Y206299D02*
D03*
X436319Y211417D02*
D03*
Y208858D02*
D03*
Y206299D02*
D03*
X427461Y171260D02*
D03*
Y168701D02*
D03*
Y166142D02*
D03*
X436319Y171260D02*
D03*
Y168701D02*
D03*
Y166142D02*
D03*
Y147244D02*
D03*
Y149803D02*
D03*
Y152362D02*
D03*
X427461Y147244D02*
D03*
Y149803D02*
D03*
Y152362D02*
D03*
X427788Y129756D02*
D03*
Y127197D02*
D03*
Y124638D02*
D03*
X436646Y129756D02*
D03*
Y127197D02*
D03*
Y124638D02*
D03*
X436713Y107579D02*
D03*
Y110138D02*
D03*
Y112697D02*
D03*
X427854Y107579D02*
D03*
Y110138D02*
D03*
Y112697D02*
D03*
X384750Y266626D02*
D03*
Y269185D02*
D03*
Y271744D02*
D03*
X375892Y266626D02*
D03*
Y269185D02*
D03*
Y271744D02*
D03*
X375836Y250528D02*
D03*
Y247969D02*
D03*
Y245409D02*
D03*
X384695Y250528D02*
D03*
Y247969D02*
D03*
Y245409D02*
D03*
X384750Y227157D02*
D03*
Y229716D02*
D03*
Y232276D02*
D03*
X375892Y227157D02*
D03*
Y229716D02*
D03*
Y232276D02*
D03*
Y211409D02*
D03*
Y208850D02*
D03*
Y206291D02*
D03*
X384750Y211409D02*
D03*
Y208850D02*
D03*
Y206291D02*
D03*
X375892Y171252D02*
D03*
Y168693D02*
D03*
Y166134D02*
D03*
X384750Y171252D02*
D03*
Y168693D02*
D03*
Y166134D02*
D03*
Y147236D02*
D03*
Y149795D02*
D03*
Y152354D02*
D03*
X375892Y147236D02*
D03*
Y149795D02*
D03*
Y152354D02*
D03*
X376219Y129748D02*
D03*
Y127189D02*
D03*
Y124630D02*
D03*
X385077Y129748D02*
D03*
Y127189D02*
D03*
Y124630D02*
D03*
X385144Y107571D02*
D03*
Y110130D02*
D03*
Y112689D02*
D03*
X376285Y107571D02*
D03*
Y110130D02*
D03*
Y112689D02*
D03*
X436713Y83071D02*
D03*
Y85630D02*
D03*
Y88189D02*
D03*
X427854Y83071D02*
D03*
Y85630D02*
D03*
Y88189D02*
D03*
Y47638D02*
D03*
Y45079D02*
D03*
Y42520D02*
D03*
X436713Y47638D02*
D03*
Y45079D02*
D03*
Y42520D02*
D03*
X376285Y88181D02*
D03*
Y85622D02*
D03*
Y83063D02*
D03*
X385144Y88181D02*
D03*
Y85622D02*
D03*
Y83063D02*
D03*
Y42512D02*
D03*
Y45071D02*
D03*
Y47630D02*
D03*
X376285Y42512D02*
D03*
Y45071D02*
D03*
Y47630D02*
D03*
X375738Y291472D02*
D03*
Y288913D02*
D03*
Y286354D02*
D03*
X384596Y291472D02*
D03*
Y288913D02*
D03*
Y286354D02*
D03*
X427854Y70768D02*
D03*
Y68209D02*
D03*
Y65650D02*
D03*
X436713Y70768D02*
D03*
Y68209D02*
D03*
Y65650D02*
D03*
X376285Y70760D02*
D03*
Y68201D02*
D03*
Y65642D02*
D03*
X385144Y70760D02*
D03*
Y68201D02*
D03*
Y65642D02*
D03*
D28*
X194882Y322244D02*
D03*
Y294882D02*
D03*
X38500Y303681D02*
D03*
Y276319D02*
D03*
D29*
X13500Y281791D02*
D03*
Y293209D02*
D03*
X183465Y355709D02*
D03*
Y344291D02*
D03*
X193307D02*
D03*
Y355709D02*
D03*
D30*
X83256Y303000D02*
D03*
X77744D02*
D03*
D31*
X-16736Y108899D02*
D03*
X-23035D02*
D03*
D32*
X133563Y296567D02*
D03*
D33*
X143563Y257000D02*
D03*
X123563D02*
D03*
D34*
X80500Y288000D02*
D03*
D35*
X91327Y280500D02*
D03*
Y285500D02*
D03*
Y290500D02*
D03*
Y295500D02*
D03*
X69673Y280500D02*
D03*
Y285500D02*
D03*
Y290500D02*
D03*
Y295500D02*
D03*
D36*
X133563Y360701D02*
D03*
Y323299D02*
D03*
M02*
