G04*
G04 #@! TF.GenerationSoftware,Altium Limited,Altium Designer,21.5.1 (32)*
G04*
G04 Layer_Physical_Order=2*
G04 Layer_Color=16711680*
%FSLAX25Y25*%
%MOIN*%
G70*
G04*
G04 #@! TF.SameCoordinates,FB92316D-9947-4A72-8022-4AE984785D81*
G04*
G04*
G04 #@! TF.FilePolarity,Positive*
G04*
G01*
G75*
%ADD15C,0.01000*%
%ADD59R,0.11024X0.02165*%
%ADD61C,0.02000*%
%ADD62C,0.08000*%
%ADD63C,0.06000*%
%ADD64R,0.05906X0.05906*%
%ADD65C,0.05906*%
%ADD66C,0.01772*%
%ADD67C,0.03150*%
%ADD68C,0.02362*%
G36*
X538189Y2039D02*
X9074D01*
X7566Y2339D01*
X6146Y2927D01*
X4868Y3781D01*
X3781Y4868D01*
X2927Y6146D01*
X2339Y7566D01*
X2039Y9074D01*
Y9843D01*
Y99508D01*
X1884Y100288D01*
X1442Y100950D01*
X780Y101392D01*
X-0Y101547D01*
X-23910D01*
X-23959Y101537D01*
X-24009Y101544D01*
X-24395Y101526D01*
X-24542Y101489D01*
X-24693D01*
X-25450Y101338D01*
X-25636Y101261D01*
X-25833Y101222D01*
X-26546Y100927D01*
X-26713Y100815D01*
X-26898Y100739D01*
X-27540Y100310D01*
X-27682Y100168D01*
X-27849Y100056D01*
X-28395Y99510D01*
X-28506Y99343D01*
X-28648Y99201D01*
X-29077Y98560D01*
X-29154Y98374D01*
X-29265Y98207D01*
X-29561Y97494D01*
X-29600Y97297D01*
X-29677Y97111D01*
X-29827Y96355D01*
Y96203D01*
X-29864Y96057D01*
X-29883Y95671D01*
X-29876Y95621D01*
X-29886Y95571D01*
Y93673D01*
X-32461Y93673D01*
X-32814Y94026D01*
Y105413D01*
X-32825Y105464D01*
X-32817Y105514D01*
X-32836Y105900D01*
X-32873Y106046D01*
Y106197D01*
X-33023Y106954D01*
X-33100Y107140D01*
X-33139Y107337D01*
X-33435Y108050D01*
X-33546Y108217D01*
X-33623Y108402D01*
X-34052Y109044D01*
X-34194Y109186D01*
X-34306Y109353D01*
X-34851Y109899D01*
X-35018Y110010D01*
X-35160Y110152D01*
X-35802Y110581D01*
X-35987Y110658D01*
X-36155Y110769D01*
X-36868Y111065D01*
X-37064Y111104D01*
X-37250Y111181D01*
X-38007Y111331D01*
X-38158D01*
X-38305Y111368D01*
X-38691Y111387D01*
X-38741Y111380D01*
X-38791Y111390D01*
X-42756Y111390D01*
X-42965Y111803D01*
Y112331D01*
X-34156D01*
X-33766Y112408D01*
X-33435Y112629D01*
X-32672Y113392D01*
X-32138Y113286D01*
X-31482Y113416D01*
X-30926Y113788D01*
X-30554Y114344D01*
X-30424Y115000D01*
X-30554Y115656D01*
X-30926Y116212D01*
X-31482Y116584D01*
X-32138Y116714D01*
X-32793Y116584D01*
X-33349Y116212D01*
X-33721Y115656D01*
X-33828Y115120D01*
X-34578Y114370D01*
X-42965D01*
Y115785D01*
X-48976D01*
Y117285D01*
X-42965D01*
Y118102D01*
Y121252D01*
Y124402D01*
Y128079D01*
X-42387D01*
X-41827Y127519D01*
X-41947Y126917D01*
X-41817Y126261D01*
X-41445Y125705D01*
X-40889Y125334D01*
X-40233Y125203D01*
X-39577Y125334D01*
X-39021Y125705D01*
X-38649Y126261D01*
X-38519Y126917D01*
X-38649Y127573D01*
X-39021Y128129D01*
X-39577Y128501D01*
X-40012Y128587D01*
X-41244Y129819D01*
X-41574Y130040D01*
X-41965Y130118D01*
X-42965D01*
Y131534D01*
X-48976D01*
Y133034D01*
X-42965D01*
Y134378D01*
X-40655D01*
X-39721Y133443D01*
X-39766Y133217D01*
X-39636Y132561D01*
X-39264Y132004D01*
X-38708Y131633D01*
X-38052Y131502D01*
X-37396Y131633D01*
X-36840Y132004D01*
X-36468Y132561D01*
X-36338Y133217D01*
X-36468Y133872D01*
X-36840Y134429D01*
X-37396Y134800D01*
X-38052Y134931D01*
X-38279Y134885D01*
X-39512Y136119D01*
X-39843Y136340D01*
X-40233Y136417D01*
X-42965D01*
Y137528D01*
X-40536D01*
X-40146Y137605D01*
X-39815Y137826D01*
X-38818Y138823D01*
X-38591Y138778D01*
X-37935Y138908D01*
X-37379Y139280D01*
X-37008Y139836D01*
X-36877Y140492D01*
X-37008Y141148D01*
X-37379Y141704D01*
X-37935Y142076D01*
X-38591Y142206D01*
X-39247Y142076D01*
X-39803Y141704D01*
X-40175Y141148D01*
X-40305Y140492D01*
X-40260Y140265D01*
X-40958Y139567D01*
X-42965D01*
Y140982D01*
X-48976D01*
Y142482D01*
X-42965D01*
Y144455D01*
X-42490Y144730D01*
X-42465Y144730D01*
X-42351Y144605D01*
X-42234Y144016D01*
X-41862Y143460D01*
X-41306Y143088D01*
X-40650Y142958D01*
X-39994Y143088D01*
X-39438Y143460D01*
X-39066Y144016D01*
X-38936Y144672D01*
X-39066Y145328D01*
X-39438Y145884D01*
X-39994Y146256D01*
X-40650Y146386D01*
X-40877Y146341D01*
X-42706Y148170D01*
X-42965Y148343D01*
Y150431D01*
X-48976D01*
Y151931D01*
X-42965D01*
Y153276D01*
X-16899D01*
X-16721Y153098D01*
X-16390Y152877D01*
X-16000Y152799D01*
X-13597D01*
X-13206Y152877D01*
X-12876Y153098D01*
X17055Y183029D01*
X17493Y183273D01*
X18049Y182902D01*
X18705Y182771D01*
X19361Y182902D01*
X19917Y183273D01*
X20289Y183829D01*
X20419Y184485D01*
X20289Y185141D01*
X19917Y185697D01*
X19361Y186069D01*
X18874Y186166D01*
X18441Y186554D01*
X18311Y187210D01*
X17939Y187766D01*
X17383Y188137D01*
X16727Y188268D01*
X16071Y188137D01*
X15515Y187766D01*
X15144Y187210D01*
X15029Y186635D01*
X-13992Y157613D01*
X-14500Y157714D01*
X-15156Y157584D01*
X-15712Y157212D01*
X-16084Y156656D01*
X-16214Y156000D01*
X-16167Y155763D01*
X-16325Y155534D01*
X-16588Y155315D01*
X-42965D01*
Y156730D01*
X-48976D01*
Y158230D01*
X-42965D01*
Y159575D01*
X-23095D01*
X-22618Y159098D01*
X-22287Y158877D01*
X-21897Y158799D01*
X-19417D01*
X-19027Y158877D01*
X-18696Y159098D01*
X11146Y188940D01*
X11929D01*
X11953Y188905D01*
X12508Y188533D01*
X13164Y188403D01*
X13820Y188533D01*
X14377Y188905D01*
X14748Y189461D01*
X14878Y190117D01*
X14748Y190773D01*
X14377Y191329D01*
X13820Y191700D01*
X13164Y191831D01*
X12855Y192141D01*
X12724Y192797D01*
X12353Y193353D01*
X11796Y193724D01*
X11141Y193855D01*
X10485Y193724D01*
X9929Y193353D01*
X9557Y192797D01*
X9448Y192247D01*
X-19343Y163456D01*
X-19782Y163212D01*
X-20338Y163584D01*
X-20994Y163714D01*
X-21650Y163584D01*
X-22206Y163212D01*
X-22577Y162656D01*
X-22708Y162000D01*
X-23141Y161614D01*
X-42965D01*
Y163030D01*
X-48976D01*
Y164530D01*
X-42965D01*
Y165874D01*
X-29135D01*
X-28358Y165098D01*
X-28028Y164877D01*
X-27637Y164799D01*
X-25363D01*
X-24973Y164877D01*
X-24642Y165098D01*
X5200Y194940D01*
X5712Y195054D01*
X6268Y194683D01*
X6924Y194552D01*
X7580Y194683D01*
X8136Y195054D01*
X8508Y195610D01*
X8638Y196266D01*
X8508Y196922D01*
X8136Y197478D01*
X7580Y197850D01*
X7134Y197938D01*
X6746Y198356D01*
X6703Y198446D01*
X6584Y199046D01*
X6212Y199602D01*
X5656Y199973D01*
X5000Y200104D01*
X4344Y199973D01*
X3788Y199602D01*
X3416Y199046D01*
X3286Y198390D01*
X3331Y198163D01*
X-25581Y169251D01*
X-26078Y169584D01*
X-26734Y169714D01*
X-27390Y169584D01*
X-27946Y169212D01*
X-28318Y168656D01*
X-28448Y168000D01*
X-28936Y167913D01*
X-42965D01*
Y169329D01*
X-48976D01*
Y170829D01*
X-42965D01*
Y172173D01*
X-34972D01*
X-34156Y171358D01*
X-33825Y171137D01*
X-33435Y171059D01*
X-31023D01*
X-30632Y171137D01*
X-30302Y171358D01*
X-1140Y200520D01*
X14D01*
X366Y200590D01*
X625Y200417D01*
X1281Y200286D01*
X1937Y200417D01*
X2493Y200788D01*
X2864Y201344D01*
X2995Y202000D01*
X2864Y202656D01*
X2493Y203212D01*
X1937Y203584D01*
X1281Y203714D01*
X1141Y203687D01*
X715Y204112D01*
X743Y204252D01*
X613Y204908D01*
X241Y205464D01*
X-315Y205836D01*
X-971Y205966D01*
X-1627Y205836D01*
X-2183Y205464D01*
X-2554Y204908D01*
X-2685Y204252D01*
X-2640Y204025D01*
X-31176Y175488D01*
X-31708Y175844D01*
X-32364Y175974D01*
X-33020Y175844D01*
X-33576Y175472D01*
X-33948Y174916D01*
X-34015Y174577D01*
X-34120Y174256D01*
X-34559Y174212D01*
X-42965D01*
Y175628D01*
X-48976D01*
Y177128D01*
X-42965D01*
Y178473D01*
X-39546D01*
X-38778Y177704D01*
X-38447Y177483D01*
X-38247Y177444D01*
X-38236Y177436D01*
X-37846Y177358D01*
X-37846Y177358D01*
X-34350D01*
X-33960Y177436D01*
X-33629Y177657D01*
X-5181Y206106D01*
X-4656Y205755D01*
X-4000Y205625D01*
X-3344Y205755D01*
X-2788Y206127D01*
X-2416Y206683D01*
X-2286Y207339D01*
X-2416Y207995D01*
X-2788Y208551D01*
X-3344Y208922D01*
X-3814Y209016D01*
X-4242Y209428D01*
X-4373Y210084D01*
X-4744Y210640D01*
X-5300Y211012D01*
X-5956Y211142D01*
X-6612Y211012D01*
X-7168Y210640D01*
X-7540Y210084D01*
X-7670Y209428D01*
X-7540Y208772D01*
X-7532Y208760D01*
X-34683Y181608D01*
X-35621D01*
X-35730Y181771D01*
X-36286Y182143D01*
X-36942Y182273D01*
X-37598Y182143D01*
X-38154Y181771D01*
X-38526Y181215D01*
X-38593Y180877D01*
X-38695Y180555D01*
X-39137Y180512D01*
X-42965D01*
Y181927D01*
X-48976D01*
Y183427D01*
X-42965D01*
Y183788D01*
X-38004D01*
X-37938Y183801D01*
X-37871Y183792D01*
X-37254Y183832D01*
X-37060Y183884D01*
X-36860Y183897D01*
X-35668Y184217D01*
X-35429Y184335D01*
X-35176Y184421D01*
X-34108Y185037D01*
X-33908Y185213D01*
X-33686Y185361D01*
X-32814Y186233D01*
X-32666Y186455D01*
X-32490Y186656D01*
X-31873Y187724D01*
X-31787Y187976D01*
X-31670Y188215D01*
X-31350Y189407D01*
X-31333Y189673D01*
X-31281Y189935D01*
Y191168D01*
X-31333Y191429D01*
X-31350Y191696D01*
X-31670Y192887D01*
X-31787Y193126D01*
X-31873Y193379D01*
X-32490Y194447D01*
X-32666Y194647D01*
X-32814Y194869D01*
X-33686Y195741D01*
X-33908Y195889D01*
X-34108Y196065D01*
X-35176Y196682D01*
X-35429Y196768D01*
X-35668Y196886D01*
X-35545Y197370D01*
X-27595D01*
X-27205Y197448D01*
X-26874Y197669D01*
X-11806Y212737D01*
X-11475Y212516D01*
X-10819Y212386D01*
X-10163Y212516D01*
X-9607Y212888D01*
X-9235Y213444D01*
X-9105Y214100D01*
X-9235Y214756D01*
X-9607Y215312D01*
X-9728Y215393D01*
Y215994D01*
X-9607Y216075D01*
X-9235Y216632D01*
X-9105Y217287D01*
X-9235Y217943D01*
X-9607Y218499D01*
X-10163Y218871D01*
X-10819Y219002D01*
X-11475Y218871D01*
X-12031Y218499D01*
X-12403Y217943D01*
X-12533Y217287D01*
X-12488Y217060D01*
X-28501Y201048D01*
X-38265D01*
X-38326Y201140D01*
X-38882Y201511D01*
X-39538Y201642D01*
X-40194Y201511D01*
X-40750Y201140D01*
X-41122Y200584D01*
X-41252Y199928D01*
X-41232Y199824D01*
X-41659Y199409D01*
X-42965D01*
Y200825D01*
X-48976D01*
Y202325D01*
X-42965D01*
Y203705D01*
X-41472D01*
X-41388Y203621D01*
X-41058Y203400D01*
X-40667Y203322D01*
X-39091D01*
X-38963Y203130D01*
X-38407Y202758D01*
X-37751Y202628D01*
X-37095Y202758D01*
X-36539Y203130D01*
X-36167Y203686D01*
X-36037Y204342D01*
X-36167Y204998D01*
X-36539Y205554D01*
X-37095Y205925D01*
X-37751Y206056D01*
X-38407Y205925D01*
X-38963Y205554D01*
X-39091Y205362D01*
X-40245D01*
X-40329Y205445D01*
X-40660Y205666D01*
X-41050Y205744D01*
X-42965D01*
Y207124D01*
X-48976D01*
Y208624D01*
X-42965D01*
Y209992D01*
X-38907D01*
X-38770Y209788D01*
X-38214Y209416D01*
X-37558Y209286D01*
X-36902Y209416D01*
X-36346Y209788D01*
X-35975Y210344D01*
X-35844Y211000D01*
X-35975Y211656D01*
X-36346Y212212D01*
X-36902Y212584D01*
X-37558Y212714D01*
X-38214Y212584D01*
X-38770Y212212D01*
X-38891Y212031D01*
X-42965D01*
Y213423D01*
X-48976D01*
Y214923D01*
X-42965D01*
Y216285D01*
X-38910D01*
X-38770Y216075D01*
X-38214Y215704D01*
X-37558Y215573D01*
X-36902Y215704D01*
X-36346Y216075D01*
X-35975Y216632D01*
X-35844Y217287D01*
X-35975Y217943D01*
X-36346Y218499D01*
X-36902Y218871D01*
X-37558Y219002D01*
X-38214Y218871D01*
X-38770Y218499D01*
X-38887Y218325D01*
X-42965D01*
Y219722D01*
X-48976D01*
Y221222D01*
X-42965D01*
Y222603D01*
X-37824D01*
X-37102Y221881D01*
X-37147Y221654D01*
X-37017Y220998D01*
X-36645Y220442D01*
X-36089Y220070D01*
X-35433Y219939D01*
X-34777Y220070D01*
X-34221Y220442D01*
X-33849Y220998D01*
X-33719Y221654D01*
X-33849Y222309D01*
X-34221Y222866D01*
X-34777Y223237D01*
X-35433Y223368D01*
X-35660Y223322D01*
X-36681Y224343D01*
X-37011Y224564D01*
X-37402Y224642D01*
X-42965D01*
Y226022D01*
X-48976D01*
Y227522D01*
X-42965D01*
Y228866D01*
X-38405D01*
X-38276Y228674D01*
X-37721Y228302D01*
X-37064Y228172D01*
X-36409Y228302D01*
X-35853Y228674D01*
X-35481Y229230D01*
X-35350Y229886D01*
X-35481Y230542D01*
X-35853Y231098D01*
X-36409Y231469D01*
X-37064Y231600D01*
X-37721Y231469D01*
X-38276Y231098D01*
X-38405Y230905D01*
X-42965D01*
Y232321D01*
X-48976D01*
Y233821D01*
X-42965D01*
Y235165D01*
X-38405D01*
X-38276Y234973D01*
X-37721Y234601D01*
X-37064Y234471D01*
X-36409Y234601D01*
X-35853Y234973D01*
X-35481Y235529D01*
X-35350Y236185D01*
X-35481Y236841D01*
X-35853Y237397D01*
X-36409Y237769D01*
X-37064Y237899D01*
X-37721Y237769D01*
X-38276Y237397D01*
X-38405Y237205D01*
X-42965D01*
Y238620D01*
X-48976D01*
Y240120D01*
X-42965D01*
Y241465D01*
X-38405D01*
X-38276Y241272D01*
X-37721Y240901D01*
X-37064Y240770D01*
X-36409Y240901D01*
X-35853Y241272D01*
X-35481Y241828D01*
X-35350Y242484D01*
X-35481Y243140D01*
X-35853Y243696D01*
X-36409Y244068D01*
X-37064Y244198D01*
X-37721Y244068D01*
X-38276Y243696D01*
X-38405Y243504D01*
X-42965D01*
Y244919D01*
X-48976D01*
Y246419D01*
X-42965D01*
Y247764D01*
X-38405D01*
X-38276Y247571D01*
X-37721Y247200D01*
X-37064Y247069D01*
X-36409Y247200D01*
X-35853Y247571D01*
X-35481Y248128D01*
X-35350Y248783D01*
X-35481Y249439D01*
X-35853Y249995D01*
X-36409Y250367D01*
X-37064Y250497D01*
X-37721Y250367D01*
X-38276Y249995D01*
X-38405Y249803D01*
X-42965D01*
Y251219D01*
X-48976D01*
Y252718D01*
X-42965D01*
Y254063D01*
X-38255D01*
X-38072Y253788D01*
X-37515Y253416D01*
X-36860Y253286D01*
X-36204Y253416D01*
X-35647Y253788D01*
X-35276Y254344D01*
X-35146Y255000D01*
X-35276Y255656D01*
X-35647Y256212D01*
X-36204Y256584D01*
X-36860Y256714D01*
X-37515Y256584D01*
X-38072Y256212D01*
X-38145Y256102D01*
X-42965D01*
Y257518D01*
X-48976D01*
Y259018D01*
X-42965D01*
Y259835D01*
Y262984D01*
Y263817D01*
X-48976D01*
Y265317D01*
X-42965D01*
Y266134D01*
Y269284D01*
Y270116D01*
X-48976D01*
Y271616D01*
X-42965D01*
Y272451D01*
X-42207D01*
X-42156Y272416D01*
X-41500Y272286D01*
X-40844Y272416D01*
X-40288Y272788D01*
X-40250Y272845D01*
X-39750D01*
X-39712Y272788D01*
X-39156Y272416D01*
X-38500Y272286D01*
X-37844Y272416D01*
X-37288Y272788D01*
X-36916Y273344D01*
X-36786Y274000D01*
X-36916Y274656D01*
X-37288Y275212D01*
X-37844Y275584D01*
X-38500Y275714D01*
X-39156Y275584D01*
X-39712Y275212D01*
X-39750Y275155D01*
X-40250D01*
X-40288Y275212D01*
X-40844Y275584D01*
X-41500Y275714D01*
X-42156Y275584D01*
X-42267Y275510D01*
X-42965D01*
Y276415D01*
X-48976D01*
Y277915D01*
X-42965D01*
Y278732D01*
Y279565D01*
X-48976D01*
Y281065D01*
X-42965D01*
Y281898D01*
X-42756Y282311D01*
X-38791D01*
X-38741Y282321D01*
X-38691Y282314D01*
X-38305Y282333D01*
X-38158Y282369D01*
X-38007D01*
X-37250Y282520D01*
X-37064Y282597D01*
X-36868Y282636D01*
X-36155Y282931D01*
X-35987Y283043D01*
X-35802Y283120D01*
X-35160Y283549D01*
X-35018Y283691D01*
X-34851Y283802D01*
X-34306Y284348D01*
X-34194Y284515D01*
X-34052Y284657D01*
X-33623Y285299D01*
X-33546Y285484D01*
X-33435Y285651D01*
X-33139Y286364D01*
X-33100Y286561D01*
X-33023Y286747D01*
X-32873Y287504D01*
Y287655D01*
X-32836Y287801D01*
X-32817Y288187D01*
X-32825Y288238D01*
X-32815Y288287D01*
X-32814Y300028D01*
X-29886D01*
Y298130D01*
X-29876Y298080D01*
X-29883Y298030D01*
X-29864Y297644D01*
X-29827Y297497D01*
Y297346D01*
X-29677Y296589D01*
X-29600Y296404D01*
X-29561Y296207D01*
X-29265Y295494D01*
X-29154Y295327D01*
X-29077Y295141D01*
X-28648Y294499D01*
X-28506Y294357D01*
X-28395Y294190D01*
X-27849Y293645D01*
X-27682Y293533D01*
X-27540Y293391D01*
X-26898Y292962D01*
X-26713Y292885D01*
X-26546Y292774D01*
X-25833Y292478D01*
X-25636Y292439D01*
X-25450Y292362D01*
X-24693Y292212D01*
X-24542D01*
X-24395Y292175D01*
X-24010Y292156D01*
X-23959Y292164D01*
X-23910Y292154D01*
X-0D01*
X780Y292309D01*
X1442Y292751D01*
X1884Y293413D01*
X2039Y294193D01*
Y383858D01*
X2039Y384627D01*
X2339Y386135D01*
X2927Y387555D01*
X3781Y388833D01*
X4868Y389920D01*
X6146Y390774D01*
X7566Y391362D01*
X9074Y391662D01*
X9843D01*
X538189Y391662D01*
Y2039D01*
D02*
G37*
%LPC*%
G36*
X449311Y377850D02*
X448770Y377742D01*
X448312Y377436D01*
X448006Y376978D01*
X447923Y376565D01*
X447557Y376198D01*
X432248D01*
X431820Y376484D01*
X431280Y376592D01*
X430739Y376484D01*
X430280Y376178D01*
X429974Y375719D01*
X429867Y375179D01*
X429974Y374638D01*
X430280Y374180D01*
X430739Y373873D01*
X431280Y373766D01*
X431820Y373873D01*
X432248Y374159D01*
X447979D01*
X448370Y374237D01*
X448701Y374458D01*
X449274Y375031D01*
X449311Y375024D01*
X449852Y375132D01*
X450310Y375438D01*
X450616Y375896D01*
X450724Y376437D01*
X450616Y376978D01*
X450310Y377436D01*
X449852Y377742D01*
X449311Y377850D01*
D02*
G37*
G36*
X528138Y375581D02*
X527224Y375461D01*
X526373Y375108D01*
X525642Y374547D01*
X525081Y373816D01*
X524728Y372965D01*
X524608Y372051D01*
X524728Y371137D01*
X525081Y370286D01*
X525642Y369555D01*
X526373Y368994D01*
X527224Y368641D01*
X528138Y368521D01*
X529051Y368641D01*
X529903Y368994D01*
X530634Y369555D01*
X531195Y370286D01*
X531548Y371137D01*
X531668Y372051D01*
X531548Y372965D01*
X531195Y373816D01*
X530634Y374547D01*
X529903Y375108D01*
X529051Y375461D01*
X528138Y375581D01*
D02*
G37*
G36*
X399315Y375009D02*
X398774Y374902D01*
X398316Y374595D01*
X398009Y374137D01*
X397902Y373596D01*
X397932Y373446D01*
X397889Y373404D01*
X397668Y373073D01*
X397591Y372682D01*
Y368382D01*
X397305Y367954D01*
X397197Y367413D01*
X397305Y366873D01*
X397611Y366414D01*
X398070Y366108D01*
X398610Y366000D01*
X399151Y366108D01*
X399609Y366414D01*
X399916Y366873D01*
X400023Y367413D01*
X399916Y367954D01*
X399630Y368382D01*
Y372246D01*
X399856Y372291D01*
X400314Y372597D01*
X400620Y373055D01*
X400728Y373596D01*
X400620Y374137D01*
X400314Y374595D01*
X399856Y374902D01*
X399315Y375009D01*
D02*
G37*
G36*
X515413Y375581D02*
X514500Y375461D01*
X513648Y375108D01*
X512917Y374547D01*
X512356Y373816D01*
X512004Y372965D01*
X511883Y372051D01*
X512004Y371137D01*
X512356Y370286D01*
X512917Y369555D01*
X513648Y368994D01*
X514500Y368641D01*
X515413Y368521D01*
X516327Y368641D01*
X517073Y368950D01*
X518394Y367629D01*
Y364694D01*
X518076Y364586D01*
X517894Y364560D01*
X517178Y365108D01*
X516327Y365461D01*
X515413Y365581D01*
X514500Y365461D01*
X513648Y365108D01*
X512917Y364547D01*
X512356Y363816D01*
X512004Y362965D01*
X511883Y362051D01*
X512004Y361138D01*
X512356Y360286D01*
X512917Y359555D01*
X513648Y358994D01*
X514500Y358641D01*
X515413Y358521D01*
X516327Y358641D01*
X517178Y358994D01*
X517894Y359543D01*
X518076Y359516D01*
X518394Y359408D01*
Y354694D01*
X518076Y354586D01*
X517894Y354559D01*
X517178Y355108D01*
X516327Y355461D01*
X515413Y355581D01*
X514500Y355461D01*
X513648Y355108D01*
X512917Y354547D01*
X512356Y353816D01*
X512004Y352965D01*
X511883Y352051D01*
X512004Y351137D01*
X512356Y350286D01*
X512917Y349555D01*
X513648Y348994D01*
X514500Y348641D01*
X515413Y348521D01*
X516327Y348641D01*
X517178Y348994D01*
X517894Y349543D01*
X518076Y349516D01*
X518394Y349408D01*
Y346474D01*
X517073Y345152D01*
X516327Y345461D01*
X515413Y345581D01*
X514500Y345461D01*
X513648Y345108D01*
X512917Y344547D01*
X512356Y343816D01*
X512004Y342965D01*
X511883Y342051D01*
X512004Y341138D01*
X512356Y340286D01*
X512917Y339555D01*
X513648Y338994D01*
X514500Y338641D01*
X515413Y338521D01*
X516327Y338641D01*
X517178Y338994D01*
X517910Y339555D01*
X518471Y340286D01*
X518823Y341138D01*
X518944Y342051D01*
X518823Y342965D01*
X518514Y343710D01*
X520134Y345330D01*
X520355Y345661D01*
X520433Y346051D01*
Y368051D01*
X520355Y368441D01*
X520134Y368772D01*
X518514Y370392D01*
X518823Y371137D01*
X518944Y372051D01*
X518823Y372965D01*
X518471Y373816D01*
X517910Y374547D01*
X517178Y375108D01*
X516327Y375461D01*
X515413Y375581D01*
D02*
G37*
G36*
X498138D02*
X497224Y375461D01*
X496373Y375108D01*
X495642Y374547D01*
X495081Y373816D01*
X494728Y372965D01*
X494608Y372051D01*
X494728Y371137D01*
X495081Y370286D01*
X495642Y369555D01*
X496373Y368994D01*
X497224Y368641D01*
X498138Y368521D01*
X499052Y368641D01*
X499719Y368918D01*
X501343Y367294D01*
Y364445D01*
X500843Y364276D01*
X500634Y364547D01*
X499903Y365108D01*
X499052Y365461D01*
X498138Y365581D01*
X497224Y365461D01*
X496373Y365108D01*
X495642Y364547D01*
X495081Y363816D01*
X494728Y362965D01*
X494608Y362051D01*
X494728Y361138D01*
X495081Y360286D01*
X495642Y359555D01*
X496373Y358994D01*
X497224Y358641D01*
X498138Y358521D01*
X499052Y358641D01*
X499903Y358994D01*
X500634Y359555D01*
X500843Y359827D01*
X501343Y359657D01*
Y354445D01*
X500843Y354276D01*
X500634Y354547D01*
X499903Y355108D01*
X499052Y355461D01*
X498138Y355581D01*
X497224Y355461D01*
X496373Y355108D01*
X495642Y354547D01*
X495081Y353816D01*
X494728Y352965D01*
X494608Y352051D01*
X494728Y351137D01*
X495081Y350286D01*
X495642Y349555D01*
X496373Y348994D01*
X497224Y348641D01*
X498138Y348521D01*
X499052Y348641D01*
X499903Y348994D01*
X500634Y349555D01*
X500843Y349827D01*
X501343Y349657D01*
Y346958D01*
X499613Y345228D01*
X499052Y345461D01*
X498138Y345581D01*
X497224Y345461D01*
X496373Y345108D01*
X495642Y344547D01*
X495081Y343816D01*
X494728Y342965D01*
X494608Y342051D01*
X494728Y341138D01*
X495081Y340286D01*
X495642Y339555D01*
X496373Y338994D01*
X497224Y338641D01*
X498138Y338521D01*
X499052Y338641D01*
X499903Y338994D01*
X500634Y339555D01*
X501195Y340286D01*
X501548Y341138D01*
X501668Y342051D01*
X501548Y342965D01*
X501195Y343816D01*
X501147Y343879D01*
X503083Y345814D01*
X503304Y346145D01*
X503382Y346535D01*
Y367717D01*
X503304Y368107D01*
X503083Y368438D01*
X501207Y370314D01*
X501548Y371137D01*
X501668Y372051D01*
X501548Y372965D01*
X501195Y373816D01*
X500634Y374547D01*
X499903Y375108D01*
X499052Y375461D01*
X498138Y375581D01*
D02*
G37*
G36*
X332718Y363495D02*
Y359805D01*
X336409D01*
X336353Y360230D01*
X335899Y361325D01*
X335178Y362265D01*
X334238Y362986D01*
X333143Y363439D01*
X332718Y363495D01*
D02*
G37*
G36*
X331219D02*
X330794Y363439D01*
X329699Y362986D01*
X328759Y362265D01*
X328038Y361325D01*
X327584Y360230D01*
X327528Y359805D01*
X331219D01*
Y363495D01*
D02*
G37*
G36*
X322719D02*
Y359805D01*
X326409D01*
X326353Y360230D01*
X325899Y361325D01*
X325178Y362265D01*
X324238Y362986D01*
X323143Y363439D01*
X322719Y363495D01*
D02*
G37*
G36*
X321218D02*
X320794Y363439D01*
X319699Y362986D01*
X318759Y362265D01*
X318038Y361325D01*
X317584Y360230D01*
X317528Y359805D01*
X321218D01*
Y363495D01*
D02*
G37*
G36*
X312719D02*
Y359805D01*
X316409D01*
X316353Y360230D01*
X315899Y361325D01*
X315178Y362265D01*
X314238Y362986D01*
X313143Y363439D01*
X312719Y363495D01*
D02*
G37*
G36*
X311219D02*
X310794Y363439D01*
X309699Y362986D01*
X308759Y362265D01*
X308038Y361325D01*
X307584Y360230D01*
X307528Y359805D01*
X311219D01*
Y363495D01*
D02*
G37*
G36*
X302718D02*
Y359805D01*
X306409D01*
X306353Y360230D01*
X305899Y361325D01*
X305178Y362265D01*
X304238Y362986D01*
X303143Y363439D01*
X302718Y363495D01*
D02*
G37*
G36*
X301219D02*
X300794Y363439D01*
X299699Y362986D01*
X298759Y362265D01*
X298038Y361325D01*
X297584Y360230D01*
X297528Y359805D01*
X301219D01*
Y363495D01*
D02*
G37*
G36*
X292719D02*
Y359805D01*
X296409D01*
X296353Y360230D01*
X295899Y361325D01*
X295178Y362265D01*
X294238Y362986D01*
X293143Y363439D01*
X292719Y363495D01*
D02*
G37*
G36*
X291218D02*
X290794Y363439D01*
X289699Y362986D01*
X288759Y362265D01*
X288038Y361325D01*
X287584Y360230D01*
X287528Y359805D01*
X291218D01*
Y363495D01*
D02*
G37*
G36*
X282718D02*
Y359805D01*
X286409D01*
X286353Y360230D01*
X285899Y361325D01*
X285178Y362265D01*
X284238Y362986D01*
X283143Y363439D01*
X282718Y363495D01*
D02*
G37*
G36*
X281219D02*
X280794Y363439D01*
X279699Y362986D01*
X278759Y362265D01*
X278038Y361325D01*
X277584Y360230D01*
X277528Y359805D01*
X281219D01*
Y363495D01*
D02*
G37*
G36*
X272719D02*
Y359805D01*
X276409D01*
X276353Y360230D01*
X275899Y361325D01*
X275178Y362265D01*
X274238Y362986D01*
X273143Y363439D01*
X272719Y363495D01*
D02*
G37*
G36*
X271218D02*
X270794Y363439D01*
X269699Y362986D01*
X268759Y362265D01*
X268038Y361325D01*
X267584Y360230D01*
X267528Y359805D01*
X271218D01*
Y363495D01*
D02*
G37*
G36*
X262719D02*
Y359805D01*
X266409D01*
X266353Y360230D01*
X265899Y361325D01*
X265178Y362265D01*
X264238Y362986D01*
X263143Y363439D01*
X262719Y363495D01*
D02*
G37*
G36*
X261219D02*
X260794Y363439D01*
X259699Y362986D01*
X258759Y362265D01*
X258038Y361325D01*
X257584Y360230D01*
X257528Y359805D01*
X261219D01*
Y363495D01*
D02*
G37*
G36*
X252718D02*
Y359805D01*
X256409D01*
X256353Y360230D01*
X255899Y361325D01*
X255178Y362265D01*
X254238Y362986D01*
X253143Y363439D01*
X252718Y363495D01*
D02*
G37*
G36*
X251219D02*
X250794Y363439D01*
X249699Y362986D01*
X248759Y362265D01*
X248038Y361325D01*
X247584Y360230D01*
X247528Y359805D01*
X251219D01*
Y363495D01*
D02*
G37*
G36*
X242719D02*
Y359805D01*
X246409D01*
X246353Y360230D01*
X245899Y361325D01*
X245178Y362265D01*
X244238Y362986D01*
X243143Y363439D01*
X242719Y363495D01*
D02*
G37*
G36*
X241218D02*
X240794Y363439D01*
X239699Y362986D01*
X238759Y362265D01*
X238038Y361325D01*
X237584Y360230D01*
X237528Y359805D01*
X241218D01*
Y363495D01*
D02*
G37*
G36*
X232718D02*
Y359805D01*
X236409D01*
X236353Y360230D01*
X235899Y361325D01*
X235178Y362265D01*
X234238Y362986D01*
X233143Y363439D01*
X232718Y363495D01*
D02*
G37*
G36*
X231219D02*
X230794Y363439D01*
X229699Y362986D01*
X228759Y362265D01*
X228038Y361325D01*
X227584Y360230D01*
X227528Y359805D01*
X231219D01*
Y363495D01*
D02*
G37*
G36*
X222719D02*
Y359805D01*
X226409D01*
X226353Y360230D01*
X225899Y361325D01*
X225178Y362265D01*
X224238Y362986D01*
X223143Y363439D01*
X222719Y363495D01*
D02*
G37*
G36*
X221218D02*
X220794Y363439D01*
X219699Y362986D01*
X218759Y362265D01*
X218038Y361325D01*
X217584Y360230D01*
X217528Y359805D01*
X221218D01*
Y363495D01*
D02*
G37*
G36*
X336409Y358305D02*
X332718D01*
Y354615D01*
X333143Y354671D01*
X334238Y355124D01*
X335178Y355846D01*
X335899Y356786D01*
X336353Y357880D01*
X336409Y358305D01*
D02*
G37*
G36*
X331219D02*
X327528D01*
X327584Y357880D01*
X328038Y356786D01*
X328759Y355846D01*
X329699Y355124D01*
X330794Y354671D01*
X331219Y354615D01*
Y358305D01*
D02*
G37*
G36*
X326409D02*
X322719D01*
Y354615D01*
X323143Y354671D01*
X324238Y355124D01*
X325178Y355846D01*
X325899Y356786D01*
X326353Y357880D01*
X326409Y358305D01*
D02*
G37*
G36*
X321218D02*
X317528D01*
X317584Y357880D01*
X318038Y356786D01*
X318759Y355846D01*
X319699Y355124D01*
X320794Y354671D01*
X321218Y354615D01*
Y358305D01*
D02*
G37*
G36*
X316409D02*
X312719D01*
Y354615D01*
X313143Y354671D01*
X314238Y355124D01*
X315178Y355846D01*
X315899Y356786D01*
X316353Y357880D01*
X316409Y358305D01*
D02*
G37*
G36*
X311219D02*
X307528D01*
X307584Y357880D01*
X308038Y356786D01*
X308759Y355846D01*
X309699Y355124D01*
X310794Y354671D01*
X311219Y354615D01*
Y358305D01*
D02*
G37*
G36*
X306409D02*
X302718D01*
Y354615D01*
X303143Y354671D01*
X304238Y355124D01*
X305178Y355846D01*
X305899Y356786D01*
X306353Y357880D01*
X306409Y358305D01*
D02*
G37*
G36*
X301219D02*
X297528D01*
X297584Y357880D01*
X298038Y356786D01*
X298759Y355846D01*
X299699Y355124D01*
X300794Y354671D01*
X301219Y354615D01*
Y358305D01*
D02*
G37*
G36*
X296409D02*
X292719D01*
Y354615D01*
X293143Y354671D01*
X294238Y355124D01*
X295178Y355846D01*
X295899Y356786D01*
X296353Y357880D01*
X296409Y358305D01*
D02*
G37*
G36*
X291218D02*
X287528D01*
X287584Y357880D01*
X288038Y356786D01*
X288759Y355846D01*
X289699Y355124D01*
X290794Y354671D01*
X291218Y354615D01*
Y358305D01*
D02*
G37*
G36*
X286409D02*
X282718D01*
Y354615D01*
X283143Y354671D01*
X284238Y355124D01*
X285178Y355846D01*
X285899Y356786D01*
X286353Y357880D01*
X286409Y358305D01*
D02*
G37*
G36*
X281219D02*
X277528D01*
X277584Y357880D01*
X278038Y356786D01*
X278759Y355846D01*
X279699Y355124D01*
X280794Y354671D01*
X281219Y354615D01*
Y358305D01*
D02*
G37*
G36*
X276409D02*
X272719D01*
Y354615D01*
X273143Y354671D01*
X274238Y355124D01*
X275178Y355846D01*
X275899Y356786D01*
X276353Y357880D01*
X276409Y358305D01*
D02*
G37*
G36*
X271218D02*
X267528D01*
X267584Y357880D01*
X268038Y356786D01*
X268759Y355846D01*
X269699Y355124D01*
X270794Y354671D01*
X271218Y354615D01*
Y358305D01*
D02*
G37*
G36*
X266409D02*
X262719D01*
Y354615D01*
X263143Y354671D01*
X264238Y355124D01*
X265178Y355846D01*
X265899Y356786D01*
X266353Y357880D01*
X266409Y358305D01*
D02*
G37*
G36*
X261219D02*
X257528D01*
X257584Y357880D01*
X258038Y356786D01*
X258759Y355846D01*
X259699Y355124D01*
X260794Y354671D01*
X261219Y354615D01*
Y358305D01*
D02*
G37*
G36*
X256409D02*
X252718D01*
Y354615D01*
X253143Y354671D01*
X254238Y355124D01*
X255178Y355846D01*
X255899Y356786D01*
X256353Y357880D01*
X256409Y358305D01*
D02*
G37*
G36*
X251219D02*
X247528D01*
X247584Y357880D01*
X248038Y356786D01*
X248759Y355846D01*
X249699Y355124D01*
X250794Y354671D01*
X251219Y354615D01*
Y358305D01*
D02*
G37*
G36*
X246409D02*
X242719D01*
Y354615D01*
X243143Y354671D01*
X244238Y355124D01*
X245178Y355846D01*
X245899Y356786D01*
X246353Y357880D01*
X246409Y358305D01*
D02*
G37*
G36*
X241218D02*
X237528D01*
X237584Y357880D01*
X238038Y356786D01*
X238759Y355846D01*
X239699Y355124D01*
X240794Y354671D01*
X241218Y354615D01*
Y358305D01*
D02*
G37*
G36*
X236409D02*
X232718D01*
Y354615D01*
X233143Y354671D01*
X234238Y355124D01*
X235178Y355846D01*
X235899Y356786D01*
X236353Y357880D01*
X236409Y358305D01*
D02*
G37*
G36*
X231219D02*
X227528D01*
X227584Y357880D01*
X228038Y356786D01*
X228759Y355846D01*
X229699Y355124D01*
X230794Y354671D01*
X231219Y354615D01*
Y358305D01*
D02*
G37*
G36*
X226409D02*
X222719D01*
Y354615D01*
X223143Y354671D01*
X224238Y355124D01*
X225178Y355846D01*
X225899Y356786D01*
X226353Y357880D01*
X226409Y358305D01*
D02*
G37*
G36*
X221218D02*
X217528D01*
X217584Y357880D01*
X218038Y356786D01*
X218759Y355846D01*
X219699Y355124D01*
X220794Y354671D01*
X221218Y354615D01*
Y358305D01*
D02*
G37*
G36*
X95063Y356530D02*
X94149Y356410D01*
X93298Y356057D01*
X92567Y355496D01*
X92006Y354765D01*
X91653Y353914D01*
X91533Y353000D01*
X91653Y352086D01*
X92006Y351235D01*
X92567Y350504D01*
X93298Y349943D01*
X94149Y349590D01*
X95063Y349470D01*
X95977Y349590D01*
X96828Y349943D01*
X97559Y350504D01*
X98120Y351235D01*
X98473Y352086D01*
X98593Y353000D01*
X98473Y353914D01*
X98120Y354765D01*
X97559Y355496D01*
X96828Y356057D01*
X95977Y356410D01*
X95063Y356530D01*
D02*
G37*
G36*
X85063D02*
X84149Y356410D01*
X83298Y356057D01*
X82567Y355496D01*
X82006Y354765D01*
X81653Y353914D01*
X81533Y353000D01*
X81653Y352086D01*
X82006Y351235D01*
X82567Y350504D01*
X83298Y349943D01*
X84149Y349590D01*
X85063Y349470D01*
X85977Y349590D01*
X86828Y349943D01*
X87559Y350504D01*
X88120Y351235D01*
X88473Y352086D01*
X88593Y353000D01*
X88473Y353914D01*
X88120Y354765D01*
X87559Y355496D01*
X86828Y356057D01*
X85977Y356410D01*
X85063Y356530D01*
D02*
G37*
G36*
X331968Y353594D02*
X330794Y353439D01*
X329699Y352986D01*
X328759Y352265D01*
X328038Y351325D01*
X327584Y350230D01*
X327430Y349055D01*
X327584Y347880D01*
X328038Y346786D01*
X328759Y345846D01*
X329699Y345124D01*
X330794Y344671D01*
X331968Y344516D01*
X333143Y344671D01*
X334238Y345124D01*
X335178Y345846D01*
X335899Y346786D01*
X336353Y347880D01*
X336507Y349055D01*
X336353Y350230D01*
X335899Y351325D01*
X335178Y352265D01*
X334238Y352986D01*
X333143Y353439D01*
X331968Y353594D01*
D02*
G37*
G36*
X321969D02*
X320794Y353439D01*
X319699Y352986D01*
X318759Y352265D01*
X318038Y351325D01*
X317584Y350230D01*
X317430Y349055D01*
X317584Y347880D01*
X318038Y346786D01*
X318759Y345846D01*
X319699Y345124D01*
X320794Y344671D01*
X321969Y344516D01*
X323143Y344671D01*
X324238Y345124D01*
X325178Y345846D01*
X325899Y346786D01*
X326353Y347880D01*
X326507Y349055D01*
X326353Y350230D01*
X325899Y351325D01*
X325178Y352265D01*
X324238Y352986D01*
X323143Y353439D01*
X321969Y353594D01*
D02*
G37*
G36*
X311968D02*
X310794Y353439D01*
X309699Y352986D01*
X308759Y352265D01*
X308038Y351325D01*
X307584Y350230D01*
X307430Y349055D01*
X307584Y347880D01*
X308038Y346786D01*
X308759Y345846D01*
X309699Y345124D01*
X310794Y344671D01*
X311968Y344516D01*
X313143Y344671D01*
X314238Y345124D01*
X315178Y345846D01*
X315899Y346786D01*
X316353Y347880D01*
X316507Y349055D01*
X316353Y350230D01*
X315899Y351325D01*
X315178Y352265D01*
X314238Y352986D01*
X313143Y353439D01*
X311968Y353594D01*
D02*
G37*
G36*
X301969D02*
X300794Y353439D01*
X299699Y352986D01*
X298759Y352265D01*
X298038Y351325D01*
X297584Y350230D01*
X297430Y349055D01*
X297584Y347880D01*
X298038Y346786D01*
X298759Y345846D01*
X299699Y345124D01*
X300794Y344671D01*
X301969Y344516D01*
X303143Y344671D01*
X304238Y345124D01*
X305178Y345846D01*
X305899Y346786D01*
X306353Y347880D01*
X306507Y349055D01*
X306353Y350230D01*
X305899Y351325D01*
X305178Y352265D01*
X304238Y352986D01*
X303143Y353439D01*
X301969Y353594D01*
D02*
G37*
G36*
X291968D02*
X290794Y353439D01*
X289699Y352986D01*
X288759Y352265D01*
X288038Y351325D01*
X287584Y350230D01*
X287430Y349055D01*
X287584Y347880D01*
X288038Y346786D01*
X288759Y345846D01*
X289699Y345124D01*
X290794Y344671D01*
X291968Y344516D01*
X293143Y344671D01*
X294238Y345124D01*
X295178Y345846D01*
X295899Y346786D01*
X296353Y347880D01*
X296507Y349055D01*
X296353Y350230D01*
X295899Y351325D01*
X295178Y352265D01*
X294238Y352986D01*
X293143Y353439D01*
X291968Y353594D01*
D02*
G37*
G36*
X281968D02*
X280794Y353439D01*
X279699Y352986D01*
X278759Y352265D01*
X278038Y351325D01*
X277584Y350230D01*
X277430Y349055D01*
X277584Y347880D01*
X278038Y346786D01*
X278759Y345846D01*
X279699Y345124D01*
X280794Y344671D01*
X281968Y344516D01*
X283143Y344671D01*
X284238Y345124D01*
X285178Y345846D01*
X285899Y346786D01*
X286353Y347880D01*
X286507Y349055D01*
X286353Y350230D01*
X285899Y351325D01*
X285178Y352265D01*
X284238Y352986D01*
X283143Y353439D01*
X281968Y353594D01*
D02*
G37*
G36*
X271969D02*
X270794Y353439D01*
X269699Y352986D01*
X268759Y352265D01*
X268038Y351325D01*
X267584Y350230D01*
X267430Y349055D01*
X267584Y347880D01*
X268038Y346786D01*
X268759Y345846D01*
X269699Y345124D01*
X270794Y344671D01*
X271969Y344516D01*
X273143Y344671D01*
X274238Y345124D01*
X275178Y345846D01*
X275899Y346786D01*
X276353Y347880D01*
X276507Y349055D01*
X276353Y350230D01*
X275899Y351325D01*
X275178Y352265D01*
X274238Y352986D01*
X273143Y353439D01*
X271969Y353594D01*
D02*
G37*
G36*
X261968D02*
X260794Y353439D01*
X259699Y352986D01*
X258759Y352265D01*
X258038Y351325D01*
X257584Y350230D01*
X257430Y349055D01*
X257584Y347880D01*
X258038Y346786D01*
X258759Y345846D01*
X259699Y345124D01*
X260794Y344671D01*
X261968Y344516D01*
X263143Y344671D01*
X264238Y345124D01*
X265178Y345846D01*
X265899Y346786D01*
X266353Y347880D01*
X266507Y349055D01*
X266353Y350230D01*
X265899Y351325D01*
X265178Y352265D01*
X264238Y352986D01*
X263143Y353439D01*
X261968Y353594D01*
D02*
G37*
G36*
X251969D02*
X250794Y353439D01*
X249699Y352986D01*
X248759Y352265D01*
X248038Y351325D01*
X247584Y350230D01*
X247430Y349055D01*
X247584Y347880D01*
X248038Y346786D01*
X248759Y345846D01*
X249699Y345124D01*
X250794Y344671D01*
X251969Y344516D01*
X253143Y344671D01*
X254238Y345124D01*
X255178Y345846D01*
X255899Y346786D01*
X256353Y347880D01*
X256507Y349055D01*
X256353Y350230D01*
X255899Y351325D01*
X255178Y352265D01*
X254238Y352986D01*
X253143Y353439D01*
X251969Y353594D01*
D02*
G37*
G36*
X241968D02*
X240794Y353439D01*
X239699Y352986D01*
X238759Y352265D01*
X238038Y351325D01*
X237584Y350230D01*
X237430Y349055D01*
X237584Y347880D01*
X238038Y346786D01*
X238759Y345846D01*
X239699Y345124D01*
X240794Y344671D01*
X241968Y344516D01*
X243143Y344671D01*
X244238Y345124D01*
X245178Y345846D01*
X245899Y346786D01*
X246353Y347880D01*
X246507Y349055D01*
X246353Y350230D01*
X245899Y351325D01*
X245178Y352265D01*
X244238Y352986D01*
X243143Y353439D01*
X241968Y353594D01*
D02*
G37*
G36*
X231968D02*
X230794Y353439D01*
X229699Y352986D01*
X228759Y352265D01*
X228038Y351325D01*
X227584Y350230D01*
X227430Y349055D01*
X227584Y347880D01*
X228038Y346786D01*
X228759Y345846D01*
X229699Y345124D01*
X230794Y344671D01*
X231968Y344516D01*
X233143Y344671D01*
X234238Y345124D01*
X235178Y345846D01*
X235899Y346786D01*
X236353Y347880D01*
X236507Y349055D01*
X236353Y350230D01*
X235899Y351325D01*
X235178Y352265D01*
X234238Y352986D01*
X233143Y353439D01*
X231968Y353594D01*
D02*
G37*
G36*
X221969D02*
X220794Y353439D01*
X219699Y352986D01*
X218759Y352265D01*
X218038Y351325D01*
X217584Y350230D01*
X217430Y349055D01*
X217584Y347880D01*
X218038Y346786D01*
X218759Y345846D01*
X219699Y345124D01*
X220794Y344671D01*
X221969Y344516D01*
X223143Y344671D01*
X224238Y345124D01*
X225178Y345846D01*
X225899Y346786D01*
X226353Y347880D01*
X226507Y349055D01*
X226353Y350230D01*
X225899Y351325D01*
X225178Y352265D01*
X224238Y352986D01*
X223143Y353439D01*
X221969Y353594D01*
D02*
G37*
G36*
X95813Y346431D02*
Y343750D01*
X98494D01*
X98473Y343914D01*
X98120Y344765D01*
X97559Y345496D01*
X96828Y346057D01*
X95977Y346410D01*
X95813Y346431D01*
D02*
G37*
G36*
X85813D02*
Y343750D01*
X88494D01*
X88473Y343914D01*
X88120Y344765D01*
X87559Y345496D01*
X86828Y346057D01*
X85977Y346410D01*
X85813Y346431D01*
D02*
G37*
G36*
X94313D02*
X94149Y346410D01*
X93298Y346057D01*
X92567Y345496D01*
X92006Y344765D01*
X91653Y343914D01*
X91632Y343750D01*
X94313D01*
Y346431D01*
D02*
G37*
G36*
X84313D02*
X84149Y346410D01*
X83298Y346057D01*
X82567Y345496D01*
X82006Y344765D01*
X81653Y343914D01*
X81631Y343750D01*
X84313D01*
Y346431D01*
D02*
G37*
G36*
X449311Y341964D02*
X448770Y341857D01*
X448343Y341571D01*
X429613D01*
X429223Y341493D01*
X428892Y341272D01*
X428394Y340774D01*
X428346Y340783D01*
X427806Y340675D01*
X427347Y340369D01*
X427041Y339911D01*
X426933Y339370D01*
X427041Y338829D01*
X427347Y338371D01*
X427806Y338065D01*
X428346Y337957D01*
X428887Y338065D01*
X429346Y338371D01*
X429652Y338829D01*
X429731Y339227D01*
X430036Y339532D01*
X448343D01*
X448770Y339246D01*
X449311Y339138D01*
X449852Y339246D01*
X450310Y339552D01*
X450616Y340010D01*
X450724Y340551D01*
X450616Y341092D01*
X450310Y341550D01*
X449852Y341857D01*
X449311Y341964D01*
D02*
G37*
G36*
X94313Y342250D02*
X91632D01*
X91653Y342086D01*
X92006Y341235D01*
X92567Y340504D01*
X93298Y339943D01*
X94149Y339590D01*
X94313Y339568D01*
Y342250D01*
D02*
G37*
G36*
X84313D02*
X81631D01*
X81653Y342086D01*
X82006Y341235D01*
X82567Y340504D01*
X83298Y339943D01*
X84149Y339590D01*
X84313Y339568D01*
Y342250D01*
D02*
G37*
G36*
X98494D02*
X95813D01*
Y339568D01*
X95977Y339590D01*
X96828Y339943D01*
X97559Y340504D01*
X98120Y341235D01*
X98473Y342086D01*
X98494Y342250D01*
D02*
G37*
G36*
X88494D02*
X85813D01*
Y339568D01*
X85977Y339590D01*
X86828Y339943D01*
X87559Y340504D01*
X88120Y341235D01*
X88473Y342086D01*
X88494Y342250D01*
D02*
G37*
G36*
X528138Y345581D02*
X527224Y345461D01*
X526373Y345108D01*
X525642Y344547D01*
X525081Y343816D01*
X524728Y342965D01*
X524608Y342051D01*
X524728Y341138D01*
X525081Y340286D01*
X525642Y339555D01*
X526373Y338994D01*
X527224Y338641D01*
X528138Y338521D01*
X529051Y338641D01*
X529903Y338994D01*
X530634Y339555D01*
X531195Y340286D01*
X531548Y341138D01*
X531668Y342051D01*
X531548Y342965D01*
X531195Y343816D01*
X530634Y344547D01*
X529903Y345108D01*
X529051Y345461D01*
X528138Y345581D01*
D02*
G37*
G36*
X398905Y350519D02*
X398365Y350412D01*
X397906Y350105D01*
X397600Y349647D01*
X397493Y349106D01*
X397600Y348566D01*
X397906Y348107D01*
X398365Y347801D01*
X398869Y347701D01*
X399865Y346705D01*
Y340193D01*
X399677Y339911D01*
X399569Y339370D01*
X399677Y338829D01*
X399983Y338371D01*
X400442Y338065D01*
X400982Y337957D01*
X401523Y338065D01*
X401981Y338371D01*
X402288Y338829D01*
X402395Y339370D01*
X402288Y339911D01*
X401981Y340369D01*
X401904Y340421D01*
Y347127D01*
X401827Y347517D01*
X401606Y347848D01*
X400311Y349142D01*
X400211Y349647D01*
X399905Y350105D01*
X399446Y350412D01*
X398905Y350519D01*
D02*
G37*
G36*
X449311Y337633D02*
X448770Y337526D01*
X448312Y337220D01*
X448006Y336761D01*
X447982Y336640D01*
X447776Y336435D01*
X432248D01*
X431820Y336720D01*
X431280Y336828D01*
X430739Y336720D01*
X430280Y336414D01*
X429974Y335956D01*
X429867Y335415D01*
X429974Y334874D01*
X430280Y334416D01*
X430739Y334109D01*
X431280Y334002D01*
X431820Y334109D01*
X432248Y334395D01*
X448198D01*
X448588Y334473D01*
X448919Y334694D01*
X449079Y334854D01*
X449311Y334807D01*
X449852Y334915D01*
X450310Y335221D01*
X450616Y335680D01*
X450724Y336221D01*
X450616Y336761D01*
X450310Y337220D01*
X449852Y337526D01*
X449311Y337633D01*
D02*
G37*
G36*
X528138Y335581D02*
X527224Y335461D01*
X526373Y335108D01*
X525642Y334547D01*
X525081Y333816D01*
X524728Y332965D01*
X524608Y332051D01*
X524728Y331137D01*
X525081Y330286D01*
X525642Y329555D01*
X526373Y328994D01*
X527224Y328641D01*
X528138Y328521D01*
X529051Y328641D01*
X529903Y328994D01*
X530634Y329555D01*
X531195Y330286D01*
X531548Y331137D01*
X531668Y332051D01*
X531548Y332965D01*
X531195Y333816D01*
X530634Y334547D01*
X529903Y335108D01*
X529051Y335461D01*
X528138Y335581D01*
D02*
G37*
G36*
X399315Y335245D02*
X398774Y335138D01*
X398316Y334831D01*
X398009Y334373D01*
X397902Y333832D01*
X397932Y333682D01*
X397889Y333640D01*
X397668Y333309D01*
X397591Y332919D01*
Y328618D01*
X397305Y328190D01*
X397197Y327650D01*
X397305Y327109D01*
X397611Y326651D01*
X398070Y326344D01*
X398610Y326237D01*
X399151Y326344D01*
X399609Y326651D01*
X399916Y327109D01*
X400023Y327650D01*
X399916Y328190D01*
X399630Y328618D01*
Y332482D01*
X399856Y332527D01*
X400314Y332833D01*
X400620Y333292D01*
X400728Y333832D01*
X400620Y334373D01*
X400314Y334831D01*
X399856Y335138D01*
X399315Y335245D01*
D02*
G37*
G36*
X515413Y335581D02*
X514500Y335461D01*
X513648Y335108D01*
X512917Y334547D01*
X512356Y333816D01*
X512004Y332965D01*
X511883Y332051D01*
X512004Y331137D01*
X512356Y330286D01*
X512917Y329555D01*
X513648Y328994D01*
X514500Y328641D01*
X515413Y328521D01*
X516327Y328641D01*
X517073Y328950D01*
X518394Y327629D01*
Y324694D01*
X518076Y324586D01*
X517894Y324559D01*
X517178Y325108D01*
X516327Y325461D01*
X515413Y325581D01*
X514500Y325461D01*
X513648Y325108D01*
X512917Y324547D01*
X512356Y323816D01*
X512004Y322965D01*
X511883Y322051D01*
X512004Y321137D01*
X512356Y320286D01*
X512917Y319555D01*
X513648Y318994D01*
X514500Y318641D01*
X515413Y318521D01*
X516327Y318641D01*
X517178Y318994D01*
X517894Y319543D01*
X518076Y319516D01*
X518394Y319408D01*
Y314694D01*
X518076Y314586D01*
X517894Y314560D01*
X517178Y315108D01*
X516327Y315461D01*
X515413Y315581D01*
X514500Y315461D01*
X513648Y315108D01*
X512917Y314547D01*
X512356Y313816D01*
X512004Y312965D01*
X511883Y312051D01*
X512004Y311138D01*
X512356Y310286D01*
X512917Y309555D01*
X513648Y308994D01*
X514500Y308641D01*
X515413Y308521D01*
X516327Y308641D01*
X517178Y308994D01*
X517894Y309543D01*
X518076Y309516D01*
X518394Y309408D01*
Y306473D01*
X517073Y305152D01*
X516327Y305461D01*
X515413Y305581D01*
X514500Y305461D01*
X513648Y305108D01*
X512917Y304547D01*
X512356Y303816D01*
X512004Y302965D01*
X511883Y302051D01*
X512004Y301137D01*
X512356Y300286D01*
X512917Y299555D01*
X513648Y298994D01*
X514500Y298641D01*
X515413Y298521D01*
X516327Y298641D01*
X517178Y298994D01*
X517910Y299555D01*
X518471Y300286D01*
X518823Y301137D01*
X518944Y302051D01*
X518823Y302965D01*
X518514Y303710D01*
X520134Y305330D01*
X520355Y305661D01*
X520433Y306051D01*
Y328051D01*
X520355Y328441D01*
X520134Y328772D01*
X518514Y330392D01*
X518823Y331137D01*
X518944Y332051D01*
X518823Y332965D01*
X518471Y333816D01*
X517910Y334547D01*
X517178Y335108D01*
X516327Y335461D01*
X515413Y335581D01*
D02*
G37*
G36*
X498138D02*
X497224Y335461D01*
X496373Y335108D01*
X495642Y334547D01*
X495081Y333816D01*
X494728Y332965D01*
X494608Y332051D01*
X494728Y331137D01*
X495081Y330286D01*
X495642Y329555D01*
X496373Y328994D01*
X497224Y328641D01*
X498138Y328521D01*
X499052Y328641D01*
X499758Y328934D01*
X501736Y326956D01*
Y323816D01*
X501236Y323717D01*
X501195Y323816D01*
X500634Y324547D01*
X499903Y325108D01*
X499052Y325461D01*
X498138Y325581D01*
X497224Y325461D01*
X496373Y325108D01*
X495642Y324547D01*
X495081Y323816D01*
X494728Y322965D01*
X494608Y322051D01*
X494728Y321137D01*
X495081Y320286D01*
X495642Y319555D01*
X496373Y318994D01*
X497224Y318641D01*
X498138Y318521D01*
X499052Y318641D01*
X499903Y318994D01*
X500634Y319555D01*
X501195Y320286D01*
X501236Y320386D01*
X501736Y320286D01*
Y313816D01*
X501236Y313717D01*
X501195Y313816D01*
X500634Y314547D01*
X499903Y315108D01*
X499052Y315461D01*
X498138Y315581D01*
X497224Y315461D01*
X496373Y315108D01*
X495642Y314547D01*
X495081Y313816D01*
X494728Y312965D01*
X494608Y312051D01*
X494728Y311138D01*
X495081Y310286D01*
X495642Y309555D01*
X496373Y308994D01*
X497224Y308641D01*
X498138Y308521D01*
X499052Y308641D01*
X499903Y308994D01*
X500634Y309555D01*
X501195Y310286D01*
X501236Y310386D01*
X501736Y310286D01*
Y307249D01*
X499686Y305198D01*
X499052Y305461D01*
X498138Y305581D01*
X497224Y305461D01*
X496373Y305108D01*
X495642Y304547D01*
X495081Y303816D01*
X494728Y302965D01*
X494608Y302051D01*
X494728Y301137D01*
X495081Y300286D01*
X495642Y299555D01*
X496373Y298994D01*
X497224Y298641D01*
X498138Y298521D01*
X499052Y298641D01*
X499903Y298994D01*
X500634Y299555D01*
X501195Y300286D01*
X501548Y301137D01*
X501668Y302051D01*
X501548Y302965D01*
X501195Y303816D01*
X501192Y303821D01*
X503477Y306106D01*
X503698Y306437D01*
X503776Y306827D01*
Y327378D01*
X503698Y327768D01*
X503477Y328099D01*
X501223Y330353D01*
X501548Y331137D01*
X501668Y332051D01*
X501548Y332965D01*
X501195Y333816D01*
X500634Y334547D01*
X499903Y335108D01*
X499052Y335461D01*
X498138Y335581D01*
D02*
G37*
G36*
X449311Y302791D02*
X448770Y302683D01*
X448343Y302398D01*
X430287D01*
X429859Y302683D01*
X429318Y302791D01*
X428777Y302683D01*
X428319Y302377D01*
X428013Y301919D01*
X427905Y301378D01*
X428013Y300837D01*
X428319Y300379D01*
X428777Y300073D01*
X429318Y299965D01*
X429859Y300073D01*
X430287Y300358D01*
X448343D01*
X448770Y300073D01*
X449311Y299965D01*
X449852Y300073D01*
X450310Y300379D01*
X450616Y300837D01*
X450724Y301378D01*
X450616Y301919D01*
X450310Y302377D01*
X449852Y302683D01*
X449311Y302791D01*
D02*
G37*
G36*
X398610Y311346D02*
X398070Y311239D01*
X397611Y310932D01*
X397305Y310474D01*
X397197Y309933D01*
X397305Y309392D01*
X397611Y308934D01*
X398070Y308628D01*
X398574Y308527D01*
X400162Y306940D01*
Y301362D01*
X399876Y300934D01*
X399768Y300394D01*
X399876Y299853D01*
X400182Y299395D01*
X400640Y299088D01*
X401181Y298981D01*
X401722Y299088D01*
X402180Y299395D01*
X402487Y299853D01*
X402594Y300394D01*
X402487Y300934D01*
X402201Y301362D01*
Y307362D01*
X402123Y307752D01*
X401902Y308083D01*
X400016Y309969D01*
X399916Y310474D01*
X399609Y310932D01*
X399151Y311239D01*
X398610Y311346D01*
D02*
G37*
G36*
X528138Y305581D02*
X527224Y305461D01*
X526373Y305108D01*
X525642Y304547D01*
X525081Y303816D01*
X524728Y302965D01*
X524608Y302051D01*
X524728Y301137D01*
X525081Y300286D01*
X525642Y299555D01*
X526373Y298994D01*
X527224Y298641D01*
X528138Y298521D01*
X529051Y298641D01*
X529903Y298994D01*
X530634Y299555D01*
X531195Y300286D01*
X531548Y301137D01*
X531668Y302051D01*
X531548Y302965D01*
X531195Y303816D01*
X530634Y304547D01*
X529903Y305108D01*
X529051Y305461D01*
X528138Y305581D01*
D02*
G37*
G36*
X449311Y298263D02*
X448770Y298156D01*
X448312Y297849D01*
X448006Y297391D01*
X447949Y297108D01*
X432094D01*
X431667Y297394D01*
X431126Y297501D01*
X430585Y297394D01*
X430127Y297087D01*
X429820Y296629D01*
X429713Y296088D01*
X429820Y295547D01*
X430127Y295089D01*
X430585Y294783D01*
X431126Y294675D01*
X431667Y294783D01*
X432094Y295069D01*
X448476D01*
X448866Y295146D01*
X449196Y295367D01*
X449274Y295445D01*
X449311Y295437D01*
X449852Y295545D01*
X450310Y295851D01*
X450616Y296310D01*
X450724Y296850D01*
X450616Y297391D01*
X450310Y297849D01*
X449852Y298156D01*
X449311Y298263D01*
D02*
G37*
G36*
X528138Y295581D02*
X527224Y295461D01*
X526373Y295108D01*
X525642Y294547D01*
X525081Y293816D01*
X524728Y292965D01*
X524608Y292051D01*
X524728Y291138D01*
X525081Y290286D01*
X525642Y289555D01*
X526373Y288994D01*
X527224Y288641D01*
X528138Y288521D01*
X529051Y288641D01*
X529903Y288994D01*
X530634Y289555D01*
X531195Y290286D01*
X531548Y291138D01*
X531668Y292051D01*
X531548Y292965D01*
X531195Y293816D01*
X530634Y294547D01*
X529903Y295108D01*
X529051Y295461D01*
X528138Y295581D01*
D02*
G37*
G36*
X399161Y295918D02*
X398621Y295811D01*
X398162Y295505D01*
X397856Y295046D01*
X397748Y294506D01*
X397778Y294356D01*
X397736Y294313D01*
X397515Y293982D01*
X397437Y293592D01*
Y289291D01*
X397151Y288863D01*
X397044Y288323D01*
X397151Y287782D01*
X397458Y287324D01*
X397916Y287017D01*
X398457Y286910D01*
X398997Y287017D01*
X399456Y287324D01*
X399762Y287782D01*
X399870Y288323D01*
X399762Y288863D01*
X399476Y289291D01*
Y293155D01*
X399702Y293200D01*
X400161Y293506D01*
X400467Y293965D01*
X400574Y294506D01*
X400467Y295046D01*
X400161Y295505D01*
X399702Y295811D01*
X399161Y295918D01*
D02*
G37*
G36*
X515413Y295581D02*
X514500Y295461D01*
X513648Y295108D01*
X512917Y294547D01*
X512356Y293816D01*
X512004Y292965D01*
X511883Y292051D01*
X512004Y291138D01*
X512356Y290286D01*
X512917Y289555D01*
X513648Y288994D01*
X514500Y288641D01*
X515413Y288521D01*
X516327Y288641D01*
X517073Y288950D01*
X518394Y287629D01*
Y284694D01*
X518076Y284586D01*
X517894Y284559D01*
X517178Y285108D01*
X516327Y285461D01*
X515413Y285581D01*
X514500Y285461D01*
X513648Y285108D01*
X512917Y284547D01*
X512356Y283816D01*
X512004Y282965D01*
X511883Y282051D01*
X512004Y281137D01*
X512356Y280286D01*
X512917Y279555D01*
X513648Y278994D01*
X514500Y278641D01*
X515413Y278521D01*
X516327Y278641D01*
X517178Y278994D01*
X517894Y279543D01*
X518076Y279516D01*
X518394Y279408D01*
Y274694D01*
X518076Y274586D01*
X517894Y274559D01*
X517178Y275108D01*
X516327Y275461D01*
X515413Y275581D01*
X514500Y275461D01*
X513648Y275108D01*
X512917Y274547D01*
X512356Y273816D01*
X512004Y272965D01*
X511883Y272051D01*
X512004Y271137D01*
X512356Y270286D01*
X512917Y269555D01*
X513648Y268994D01*
X514500Y268641D01*
X515413Y268521D01*
X516327Y268641D01*
X517178Y268994D01*
X517894Y269543D01*
X518076Y269516D01*
X518394Y269408D01*
Y266474D01*
X517073Y265152D01*
X516327Y265461D01*
X515413Y265581D01*
X514500Y265461D01*
X513648Y265108D01*
X512917Y264547D01*
X512356Y263816D01*
X512004Y262965D01*
X511883Y262051D01*
X512004Y261138D01*
X512356Y260286D01*
X512917Y259555D01*
X513648Y258994D01*
X514500Y258641D01*
X515413Y258521D01*
X516327Y258641D01*
X517178Y258994D01*
X517910Y259555D01*
X518471Y260286D01*
X518823Y261138D01*
X518944Y262051D01*
X518823Y262965D01*
X518514Y263710D01*
X520134Y265330D01*
X520355Y265661D01*
X520433Y266051D01*
Y288051D01*
X520355Y288441D01*
X520134Y288772D01*
X518514Y290392D01*
X518823Y291138D01*
X518944Y292051D01*
X518823Y292965D01*
X518471Y293816D01*
X517910Y294547D01*
X517178Y295108D01*
X516327Y295461D01*
X515413Y295581D01*
D02*
G37*
G36*
X498138D02*
X497224Y295461D01*
X496373Y295108D01*
X495642Y294547D01*
X495081Y293816D01*
X494728Y292965D01*
X494608Y292051D01*
X494728Y291138D01*
X495081Y290286D01*
X495642Y289555D01*
X496373Y288994D01*
X497224Y288641D01*
X498138Y288521D01*
X499052Y288641D01*
X499719Y288918D01*
X501343Y287294D01*
Y284445D01*
X500843Y284276D01*
X500634Y284547D01*
X499903Y285108D01*
X499052Y285461D01*
X498138Y285581D01*
X497224Y285461D01*
X496373Y285108D01*
X495642Y284547D01*
X495081Y283816D01*
X494728Y282965D01*
X494608Y282051D01*
X494728Y281137D01*
X495081Y280286D01*
X495642Y279555D01*
X496373Y278994D01*
X497224Y278641D01*
X498138Y278521D01*
X499052Y278641D01*
X499903Y278994D01*
X500634Y279555D01*
X500843Y279827D01*
X501343Y279657D01*
Y274445D01*
X500843Y274276D01*
X500634Y274547D01*
X499903Y275108D01*
X499052Y275461D01*
X498138Y275581D01*
X497224Y275461D01*
X496373Y275108D01*
X495642Y274547D01*
X495081Y273816D01*
X494728Y272965D01*
X494608Y272051D01*
X494728Y271137D01*
X495081Y270286D01*
X495642Y269555D01*
X496373Y268994D01*
X497224Y268641D01*
X498138Y268521D01*
X499052Y268641D01*
X499903Y268994D01*
X500634Y269555D01*
X500843Y269827D01*
X501343Y269657D01*
Y266800D01*
X499725Y265182D01*
X499052Y265461D01*
X498138Y265581D01*
X497224Y265461D01*
X496373Y265108D01*
X495642Y264547D01*
X495081Y263816D01*
X494728Y262965D01*
X494608Y262051D01*
X494728Y261138D01*
X495081Y260286D01*
X495642Y259555D01*
X496373Y258994D01*
X497224Y258641D01*
X498138Y258521D01*
X499052Y258641D01*
X499903Y258994D01*
X500634Y259555D01*
X501195Y260286D01*
X501548Y261138D01*
X501668Y262051D01*
X501548Y262965D01*
X501209Y263783D01*
X503083Y265657D01*
X503304Y265988D01*
X503382Y266378D01*
Y287717D01*
X503304Y288107D01*
X503083Y288438D01*
X501207Y290314D01*
X501548Y291138D01*
X501668Y292051D01*
X501548Y292965D01*
X501195Y293816D01*
X500634Y294547D01*
X499903Y295108D01*
X499052Y295461D01*
X498138Y295581D01*
D02*
G37*
G36*
X449311Y261452D02*
X448770Y261345D01*
X448343Y261059D01*
X430287D01*
X429859Y261345D01*
X429318Y261452D01*
X428777Y261345D01*
X428319Y261038D01*
X428013Y260580D01*
X427905Y260039D01*
X428013Y259499D01*
X428319Y259040D01*
X428777Y258734D01*
X429318Y258626D01*
X429859Y258734D01*
X430287Y259020D01*
X448343D01*
X448770Y258734D01*
X449311Y258626D01*
X449852Y258734D01*
X450310Y259040D01*
X450616Y259499D01*
X450724Y260039D01*
X450616Y260580D01*
X450310Y261038D01*
X449852Y261345D01*
X449311Y261452D01*
D02*
G37*
G36*
X528138Y265581D02*
X527224Y265461D01*
X526373Y265108D01*
X525642Y264547D01*
X525081Y263816D01*
X524728Y262965D01*
X524608Y262051D01*
X524728Y261138D01*
X525081Y260286D01*
X525642Y259555D01*
X526373Y258994D01*
X527224Y258641D01*
X528138Y258521D01*
X529051Y258641D01*
X529903Y258994D01*
X530634Y259555D01*
X531195Y260286D01*
X531548Y261138D01*
X531668Y262051D01*
X531548Y262965D01*
X531195Y263816D01*
X530634Y264547D01*
X529903Y265108D01*
X529051Y265461D01*
X528138Y265581D01*
D02*
G37*
G36*
X398610Y270007D02*
X398070Y269900D01*
X397611Y269594D01*
X397305Y269135D01*
X397197Y268595D01*
X397305Y268054D01*
X397611Y267595D01*
X398070Y267289D01*
X398574Y267189D01*
X400555Y265208D01*
Y260024D01*
X400269Y259596D01*
X400162Y259055D01*
X400269Y258514D01*
X400576Y258056D01*
X401034Y257750D01*
X401575Y257642D01*
X402115Y257750D01*
X402574Y258056D01*
X402880Y258514D01*
X402988Y259055D01*
X402880Y259596D01*
X402594Y260024D01*
Y265630D01*
X402517Y266020D01*
X402296Y266351D01*
X400016Y268631D01*
X399916Y269135D01*
X399609Y269594D01*
X399151Y269900D01*
X398610Y270007D01*
D02*
G37*
G36*
X449311Y257318D02*
X448770Y257211D01*
X448312Y256905D01*
X448006Y256446D01*
X447982Y256325D01*
X447819Y256163D01*
X432193D01*
X431765Y256449D01*
X431224Y256556D01*
X430684Y256449D01*
X430225Y256142D01*
X429919Y255684D01*
X429811Y255143D01*
X429919Y254603D01*
X430225Y254144D01*
X430684Y253838D01*
X431224Y253730D01*
X431765Y253838D01*
X432193Y254124D01*
X448242D01*
X448632Y254201D01*
X448962Y254422D01*
X449079Y254539D01*
X449311Y254492D01*
X449852Y254600D01*
X450310Y254906D01*
X450616Y255365D01*
X450724Y255906D01*
X450616Y256446D01*
X450310Y256905D01*
X449852Y257211D01*
X449311Y257318D01*
D02*
G37*
G36*
X21036Y257808D02*
X20123Y257688D01*
X19271Y257335D01*
X18540Y256774D01*
X17979Y256043D01*
X17627Y255191D01*
X17506Y254278D01*
X17627Y253364D01*
X17979Y252513D01*
X18540Y251782D01*
X19271Y251221D01*
X20123Y250868D01*
X21036Y250748D01*
X21950Y250868D01*
X22802Y251221D01*
X23533Y251782D01*
X24094Y252513D01*
X24446Y253364D01*
X24567Y254278D01*
X24446Y255191D01*
X24094Y256043D01*
X23533Y256774D01*
X22802Y257335D01*
X21950Y257688D01*
X21036Y257808D01*
D02*
G37*
G36*
X11036D02*
X10123Y257688D01*
X9271Y257335D01*
X8540Y256774D01*
X7979Y256043D01*
X7626Y255191D01*
X7506Y254278D01*
X7626Y253364D01*
X7979Y252513D01*
X8540Y251782D01*
X9271Y251221D01*
X10123Y250868D01*
X11036Y250748D01*
X11950Y250868D01*
X12801Y251221D01*
X13533Y251782D01*
X14094Y252513D01*
X14446Y253364D01*
X14567Y254278D01*
X14446Y255191D01*
X14094Y256043D01*
X13533Y256774D01*
X12801Y257335D01*
X11950Y257688D01*
X11036Y257808D01*
D02*
G37*
G36*
X528138Y255581D02*
X527224Y255461D01*
X526373Y255108D01*
X525642Y254547D01*
X525081Y253816D01*
X524728Y252965D01*
X524608Y252051D01*
X524728Y251137D01*
X525081Y250286D01*
X525642Y249555D01*
X526373Y248994D01*
X527224Y248641D01*
X528138Y248521D01*
X529051Y248641D01*
X529903Y248994D01*
X530634Y249555D01*
X531195Y250286D01*
X531548Y251137D01*
X531668Y252051D01*
X531548Y252965D01*
X531195Y253816D01*
X530634Y254547D01*
X529903Y255108D01*
X529051Y255461D01*
X528138Y255581D01*
D02*
G37*
G36*
X399260Y254974D02*
X398719Y254866D01*
X398261Y254560D01*
X397954Y254101D01*
X397847Y253561D01*
X397877Y253411D01*
X397834Y253368D01*
X397613Y253037D01*
X397535Y252647D01*
Y248346D01*
X397250Y247919D01*
X397142Y247378D01*
X397250Y246837D01*
X397556Y246379D01*
X398014Y246073D01*
X398555Y245965D01*
X399096Y246073D01*
X399554Y246379D01*
X399861Y246837D01*
X399968Y247378D01*
X399861Y247919D01*
X399575Y248346D01*
Y252210D01*
X399801Y252255D01*
X400259Y252561D01*
X400565Y253020D01*
X400673Y253561D01*
X400565Y254101D01*
X400259Y254560D01*
X399801Y254866D01*
X399260Y254974D01*
D02*
G37*
G36*
X11786Y247709D02*
Y245028D01*
X14468D01*
X14446Y245192D01*
X14094Y246043D01*
X13533Y246774D01*
X12801Y247335D01*
X11950Y247688D01*
X11786Y247709D01*
D02*
G37*
G36*
X21786D02*
Y245028D01*
X24468D01*
X24446Y245192D01*
X24094Y246043D01*
X23533Y246774D01*
X22802Y247335D01*
X21950Y247688D01*
X21786Y247709D01*
D02*
G37*
G36*
X10286D02*
X10123Y247688D01*
X9271Y247335D01*
X8540Y246774D01*
X7979Y246043D01*
X7626Y245192D01*
X7605Y245028D01*
X10286D01*
Y247709D01*
D02*
G37*
G36*
X20286D02*
X20123Y247688D01*
X19271Y247335D01*
X18540Y246774D01*
X17979Y246043D01*
X17627Y245192D01*
X17605Y245028D01*
X20286D01*
Y247709D01*
D02*
G37*
G36*
X515413Y255581D02*
X514500Y255461D01*
X513648Y255108D01*
X512917Y254547D01*
X512356Y253816D01*
X512004Y252965D01*
X511883Y252051D01*
X512004Y251137D01*
X512356Y250286D01*
X512917Y249555D01*
X513648Y248994D01*
X514500Y248641D01*
X515413Y248521D01*
X516327Y248641D01*
X517073Y248950D01*
X518394Y247629D01*
Y244694D01*
X518076Y244586D01*
X517894Y244560D01*
X517178Y245108D01*
X516327Y245461D01*
X515413Y245581D01*
X514500Y245461D01*
X513648Y245108D01*
X512917Y244547D01*
X512356Y243816D01*
X512004Y242965D01*
X511883Y242051D01*
X512004Y241138D01*
X512356Y240286D01*
X512917Y239555D01*
X513648Y238994D01*
X514500Y238641D01*
X515413Y238521D01*
X516327Y238641D01*
X517178Y238994D01*
X517894Y239543D01*
X518076Y239516D01*
X518394Y239408D01*
Y234694D01*
X518076Y234586D01*
X517894Y234559D01*
X517178Y235108D01*
X516327Y235461D01*
X515413Y235581D01*
X514500Y235461D01*
X513648Y235108D01*
X512917Y234547D01*
X512356Y233816D01*
X512004Y232965D01*
X511883Y232051D01*
X512004Y231137D01*
X512356Y230286D01*
X512917Y229555D01*
X513648Y228994D01*
X514500Y228641D01*
X515413Y228521D01*
X516327Y228641D01*
X517178Y228994D01*
X517894Y229543D01*
X518076Y229516D01*
X518394Y229408D01*
Y226473D01*
X517073Y225152D01*
X516327Y225461D01*
X515413Y225581D01*
X514500Y225461D01*
X513648Y225108D01*
X512917Y224547D01*
X512356Y223816D01*
X512004Y222965D01*
X511883Y222051D01*
X512004Y221137D01*
X512356Y220286D01*
X512917Y219555D01*
X513648Y218994D01*
X514500Y218641D01*
X515413Y218521D01*
X516327Y218641D01*
X517178Y218994D01*
X517910Y219555D01*
X518471Y220286D01*
X518823Y221137D01*
X518944Y222051D01*
X518823Y222965D01*
X518514Y223710D01*
X520134Y225330D01*
X520355Y225661D01*
X520433Y226051D01*
Y248051D01*
X520355Y248441D01*
X520134Y248772D01*
X518514Y250392D01*
X518823Y251137D01*
X518944Y252051D01*
X518823Y252965D01*
X518471Y253816D01*
X517910Y254547D01*
X517178Y255108D01*
X516327Y255461D01*
X515413Y255581D01*
D02*
G37*
G36*
X498138D02*
X497224Y255461D01*
X496373Y255108D01*
X495642Y254547D01*
X495081Y253816D01*
X494728Y252965D01*
X494608Y252051D01*
X494728Y251137D01*
X495081Y250286D01*
X495642Y249555D01*
X496373Y248994D01*
X497224Y248641D01*
X498138Y248521D01*
X499052Y248641D01*
X499608Y248872D01*
X501736Y246743D01*
Y243816D01*
X501236Y243717D01*
X501195Y243816D01*
X500634Y244547D01*
X499903Y245108D01*
X499052Y245461D01*
X498138Y245581D01*
X497224Y245461D01*
X496373Y245108D01*
X495642Y244547D01*
X495081Y243816D01*
X494728Y242965D01*
X494608Y242051D01*
X494728Y241138D01*
X495081Y240286D01*
X495642Y239555D01*
X496373Y238994D01*
X497224Y238641D01*
X498138Y238521D01*
X499052Y238641D01*
X499903Y238994D01*
X500634Y239555D01*
X501195Y240286D01*
X501236Y240386D01*
X501736Y240286D01*
Y233816D01*
X501236Y233717D01*
X501195Y233816D01*
X500634Y234547D01*
X499903Y235108D01*
X499052Y235461D01*
X498138Y235581D01*
X497224Y235461D01*
X496373Y235108D01*
X495642Y234547D01*
X495081Y233816D01*
X494728Y232965D01*
X494608Y232051D01*
X494728Y231137D01*
X495081Y230286D01*
X495642Y229555D01*
X496373Y228994D01*
X497224Y228641D01*
X498138Y228521D01*
X499052Y228641D01*
X499903Y228994D01*
X500634Y229555D01*
X501195Y230286D01*
X501236Y230386D01*
X501736Y230286D01*
Y227036D01*
X499836Y225136D01*
X499052Y225461D01*
X498138Y225581D01*
X497224Y225461D01*
X496373Y225108D01*
X495642Y224547D01*
X495081Y223816D01*
X494728Y222965D01*
X494608Y222051D01*
X494728Y221137D01*
X495081Y220286D01*
X495642Y219555D01*
X496373Y218994D01*
X497224Y218641D01*
X498138Y218521D01*
X499052Y218641D01*
X499903Y218994D01*
X500634Y219555D01*
X501195Y220286D01*
X501548Y221137D01*
X501668Y222051D01*
X501548Y222965D01*
X501255Y223671D01*
X503477Y225893D01*
X503698Y226224D01*
X503776Y226614D01*
Y247165D01*
X503698Y247555D01*
X503477Y247886D01*
X501144Y250219D01*
X501195Y250286D01*
X501548Y251137D01*
X501668Y252051D01*
X501548Y252965D01*
X501195Y253816D01*
X500634Y254547D01*
X499903Y255108D01*
X499052Y255461D01*
X498138Y255581D01*
D02*
G37*
G36*
X24468Y243528D02*
X21786D01*
Y240846D01*
X21950Y240868D01*
X22802Y241221D01*
X23533Y241782D01*
X24094Y242513D01*
X24446Y243364D01*
X24468Y243528D01*
D02*
G37*
G36*
X14468D02*
X11786D01*
Y240846D01*
X11950Y240868D01*
X12801Y241221D01*
X13533Y241782D01*
X14094Y242513D01*
X14446Y243364D01*
X14468Y243528D01*
D02*
G37*
G36*
X20286D02*
X17605D01*
X17627Y243364D01*
X17979Y242513D01*
X18540Y241782D01*
X19271Y241221D01*
X20123Y240868D01*
X20286Y240846D01*
Y243528D01*
D02*
G37*
G36*
X10286D02*
X7605D01*
X7626Y243364D01*
X7979Y242513D01*
X8540Y241782D01*
X9271Y241221D01*
X10123Y240868D01*
X10286Y240846D01*
Y243528D01*
D02*
G37*
G36*
X449311Y221984D02*
X448770Y221876D01*
X448343Y221590D01*
X430287D01*
X429859Y221876D01*
X429318Y221984D01*
X428777Y221876D01*
X428319Y221570D01*
X428013Y221112D01*
X427905Y220571D01*
X428013Y220030D01*
X428319Y219572D01*
X428777Y219266D01*
X429318Y219158D01*
X429859Y219266D01*
X430287Y219551D01*
X448343D01*
X448770Y219266D01*
X449311Y219158D01*
X449852Y219266D01*
X450310Y219572D01*
X450616Y220030D01*
X450724Y220571D01*
X450616Y221112D01*
X450310Y221570D01*
X449852Y221876D01*
X449311Y221984D01*
D02*
G37*
G36*
X528138Y225581D02*
X527224Y225461D01*
X526373Y225108D01*
X525642Y224547D01*
X525081Y223816D01*
X524728Y222965D01*
X524608Y222051D01*
X524728Y221137D01*
X525081Y220286D01*
X525642Y219555D01*
X526373Y218994D01*
X527224Y218641D01*
X528138Y218521D01*
X529051Y218641D01*
X529903Y218994D01*
X530634Y219555D01*
X531195Y220286D01*
X531548Y221137D01*
X531668Y222051D01*
X531548Y222965D01*
X531195Y223816D01*
X530634Y224547D01*
X529903Y225108D01*
X529051Y225461D01*
X528138Y225581D01*
D02*
G37*
G36*
X398610Y230539D02*
X398070Y230431D01*
X397611Y230125D01*
X397305Y229667D01*
X397197Y229126D01*
X397305Y228585D01*
X397611Y228127D01*
X398070Y227821D01*
X398574Y227720D01*
X400555Y225739D01*
Y220654D01*
X400269Y220226D01*
X400162Y219685D01*
X400269Y219144D01*
X400576Y218686D01*
X401034Y218380D01*
X401575Y218272D01*
X402115Y218380D01*
X402574Y218686D01*
X402880Y219144D01*
X402988Y219685D01*
X402880Y220226D01*
X402594Y220654D01*
Y226161D01*
X402517Y226552D01*
X402296Y226882D01*
X400016Y229162D01*
X399916Y229667D01*
X399609Y230125D01*
X399151Y230431D01*
X398610Y230539D01*
D02*
G37*
G36*
X449311Y218342D02*
X448770Y218234D01*
X448312Y217928D01*
X448227Y217801D01*
X447182D01*
X446791Y217723D01*
X446460Y217502D01*
X446003Y217045D01*
X432248D01*
X431820Y217331D01*
X431280Y217438D01*
X430739Y217331D01*
X430280Y217024D01*
X429974Y216566D01*
X429867Y216025D01*
X429974Y215484D01*
X430280Y215026D01*
X430739Y214720D01*
X431280Y214612D01*
X431820Y214720D01*
X432248Y215006D01*
X446425D01*
X446815Y215083D01*
X447146Y215304D01*
X447604Y215762D01*
X448563D01*
X448770Y215624D01*
X449311Y215516D01*
X449852Y215624D01*
X450310Y215930D01*
X450616Y216388D01*
X450724Y216929D01*
X450616Y217470D01*
X450310Y217928D01*
X449852Y218234D01*
X449311Y218342D01*
D02*
G37*
G36*
X528138Y215211D02*
X527224Y215091D01*
X526373Y214738D01*
X525642Y214177D01*
X525081Y213446D01*
X524728Y212595D01*
X524608Y211681D01*
X524728Y210767D01*
X525081Y209916D01*
X525642Y209185D01*
X526373Y208624D01*
X527224Y208271D01*
X528138Y208151D01*
X529051Y208271D01*
X529903Y208624D01*
X530634Y209185D01*
X531195Y209916D01*
X531548Y210767D01*
X531668Y211681D01*
X531548Y212595D01*
X531195Y213446D01*
X530634Y214177D01*
X529903Y214738D01*
X529051Y215091D01*
X528138Y215211D01*
D02*
G37*
G36*
X399315Y215856D02*
X398774Y215748D01*
X398316Y215442D01*
X398009Y214983D01*
X397902Y214442D01*
X397932Y214293D01*
X397889Y214250D01*
X397668Y213919D01*
X397591Y213529D01*
Y209228D01*
X397305Y208801D01*
X397197Y208260D01*
X397305Y207719D01*
X397611Y207261D01*
X398070Y206954D01*
X398610Y206847D01*
X399151Y206954D01*
X399609Y207261D01*
X399916Y207719D01*
X400023Y208260D01*
X399916Y208801D01*
X399630Y209228D01*
Y213092D01*
X399856Y213137D01*
X400314Y213443D01*
X400620Y213902D01*
X400728Y214442D01*
X400620Y214983D01*
X400314Y215442D01*
X399856Y215748D01*
X399315Y215856D01*
D02*
G37*
G36*
X515413Y215211D02*
X514500Y215091D01*
X513648Y214738D01*
X512917Y214177D01*
X512356Y213446D01*
X512004Y212595D01*
X511883Y211681D01*
X512004Y210767D01*
X512356Y209916D01*
X512917Y209185D01*
X513648Y208624D01*
X514500Y208271D01*
X515413Y208151D01*
X516327Y208271D01*
X517073Y208580D01*
X518394Y207259D01*
Y204324D01*
X518076Y204216D01*
X517894Y204189D01*
X517178Y204738D01*
X516327Y205091D01*
X515413Y205211D01*
X514500Y205091D01*
X513648Y204738D01*
X512917Y204177D01*
X512356Y203446D01*
X512004Y202595D01*
X511883Y201681D01*
X512004Y200767D01*
X512356Y199916D01*
X512917Y199185D01*
X513648Y198624D01*
X514500Y198271D01*
X515413Y198151D01*
X516327Y198271D01*
X517178Y198624D01*
X517894Y199173D01*
X518076Y199146D01*
X518394Y199038D01*
Y194324D01*
X518076Y194216D01*
X517894Y194190D01*
X517178Y194738D01*
X516327Y195091D01*
X515413Y195211D01*
X514500Y195091D01*
X513648Y194738D01*
X512917Y194177D01*
X512356Y193446D01*
X512004Y192595D01*
X511883Y191681D01*
X512004Y190767D01*
X512356Y189916D01*
X512917Y189185D01*
X513648Y188624D01*
X514500Y188271D01*
X515413Y188151D01*
X516327Y188271D01*
X517178Y188624D01*
X517894Y189173D01*
X518076Y189146D01*
X518394Y189038D01*
Y186103D01*
X517073Y184782D01*
X516327Y185091D01*
X515413Y185211D01*
X514500Y185091D01*
X513648Y184738D01*
X512917Y184177D01*
X512356Y183446D01*
X512004Y182595D01*
X511883Y181681D01*
X512004Y180767D01*
X512356Y179916D01*
X512917Y179185D01*
X513648Y178624D01*
X514500Y178271D01*
X515413Y178151D01*
X516327Y178271D01*
X517178Y178624D01*
X517910Y179185D01*
X518471Y179916D01*
X518823Y180767D01*
X518944Y181681D01*
X518823Y182595D01*
X518514Y183340D01*
X520134Y184960D01*
X520355Y185291D01*
X520433Y185681D01*
Y207681D01*
X520355Y208071D01*
X520134Y208402D01*
X518514Y210022D01*
X518823Y210767D01*
X518944Y211681D01*
X518823Y212595D01*
X518471Y213446D01*
X517910Y214177D01*
X517178Y214738D01*
X516327Y215091D01*
X515413Y215211D01*
D02*
G37*
G36*
X498138D02*
X497224Y215091D01*
X496373Y214738D01*
X495642Y214177D01*
X495081Y213446D01*
X494728Y212595D01*
X494608Y211681D01*
X494728Y210767D01*
X495081Y209916D01*
X495642Y209185D01*
X496373Y208624D01*
X497224Y208271D01*
X498138Y208151D01*
X499052Y208271D01*
X499758Y208564D01*
X501118Y207204D01*
Y204324D01*
X500800Y204216D01*
X500618Y204189D01*
X499903Y204738D01*
X499052Y205091D01*
X498138Y205211D01*
X497224Y205091D01*
X496373Y204738D01*
X495642Y204177D01*
X495081Y203446D01*
X494728Y202595D01*
X494608Y201681D01*
X494728Y200767D01*
X495081Y199916D01*
X495642Y199185D01*
X496373Y198624D01*
X497224Y198271D01*
X498138Y198151D01*
X499052Y198271D01*
X499903Y198624D01*
X500618Y199173D01*
X500800Y199146D01*
X501118Y199038D01*
Y194324D01*
X500800Y194216D01*
X500618Y194190D01*
X499903Y194738D01*
X499052Y195091D01*
X498138Y195211D01*
X497224Y195091D01*
X496373Y194738D01*
X495642Y194177D01*
X495081Y193446D01*
X494728Y192595D01*
X494608Y191681D01*
X494728Y190767D01*
X495081Y189916D01*
X495642Y189185D01*
X496373Y188624D01*
X497224Y188271D01*
X498138Y188151D01*
X499052Y188271D01*
X499903Y188624D01*
X500618Y189173D01*
X500800Y189146D01*
X501118Y189038D01*
Y186261D01*
X499686Y184828D01*
X499052Y185091D01*
X498138Y185211D01*
X497224Y185091D01*
X496373Y184738D01*
X495642Y184177D01*
X495081Y183446D01*
X494728Y182595D01*
X494608Y181681D01*
X494728Y180767D01*
X495081Y179916D01*
X495642Y179185D01*
X496373Y178624D01*
X497224Y178271D01*
X498138Y178151D01*
X499052Y178271D01*
X499903Y178624D01*
X500634Y179185D01*
X501195Y179916D01*
X501548Y180767D01*
X501668Y181681D01*
X501548Y182595D01*
X501195Y183446D01*
X501192Y183451D01*
X502859Y185118D01*
X503080Y185448D01*
X503157Y185839D01*
Y207626D01*
X503080Y208016D01*
X502859Y208347D01*
X501223Y209983D01*
X501548Y210767D01*
X501668Y211681D01*
X501548Y212595D01*
X501195Y213446D01*
X500634Y214177D01*
X499903Y214738D01*
X499052Y215091D01*
X498138Y215211D01*
D02*
G37*
G36*
X190551Y188328D02*
X189895Y188198D01*
X189339Y187826D01*
X189211Y187634D01*
X180114D01*
X179724Y187556D01*
X179393Y187335D01*
X177011Y184953D01*
X171547D01*
Y178047D01*
X178453D01*
Y183511D01*
X180536Y185595D01*
X189211D01*
X189339Y185402D01*
X189895Y185031D01*
X190551Y184900D01*
X191207Y185031D01*
X191763Y185402D01*
X192135Y185958D01*
X192265Y186614D01*
X192135Y187270D01*
X191763Y187826D01*
X191207Y188198D01*
X190551Y188328D01*
D02*
G37*
G36*
X449311Y184287D02*
X448770Y184179D01*
X448343Y183894D01*
X430287D01*
X429859Y184179D01*
X429318Y184287D01*
X428777Y184179D01*
X428319Y183873D01*
X428013Y183415D01*
X427905Y182874D01*
X428013Y182333D01*
X428319Y181875D01*
X428777Y181569D01*
X429318Y181461D01*
X429859Y181569D01*
X430287Y181854D01*
X448343D01*
X448770Y181569D01*
X449311Y181461D01*
X449852Y181569D01*
X450310Y181875D01*
X450616Y182333D01*
X450724Y182874D01*
X450616Y183415D01*
X450310Y183873D01*
X449852Y184179D01*
X449311Y184287D01*
D02*
G37*
G36*
X398610Y192842D02*
X398070Y192735D01*
X397611Y192428D01*
X397305Y191970D01*
X397197Y191429D01*
X397305Y190888D01*
X397611Y190430D01*
X398070Y190124D01*
X398574Y190023D01*
X400162Y188436D01*
Y182465D01*
X399876Y182037D01*
X399768Y181496D01*
X399876Y180955D01*
X400182Y180497D01*
X400640Y180191D01*
X401181Y180083D01*
X401722Y180191D01*
X402180Y180497D01*
X402487Y180955D01*
X402594Y181496D01*
X402487Y182037D01*
X402201Y182465D01*
Y188858D01*
X402123Y189249D01*
X401902Y189579D01*
X400016Y191465D01*
X399916Y191970D01*
X399609Y192428D01*
X399151Y192735D01*
X398610Y192842D01*
D02*
G37*
G36*
X528138Y185211D02*
X527224Y185091D01*
X526373Y184738D01*
X525642Y184177D01*
X525081Y183446D01*
X524728Y182595D01*
X524608Y181681D01*
X524728Y180767D01*
X525081Y179916D01*
X525642Y179185D01*
X526373Y178624D01*
X527224Y178271D01*
X528138Y178151D01*
X529051Y178271D01*
X529903Y178624D01*
X530634Y179185D01*
X531195Y179916D01*
X531548Y180767D01*
X531668Y181681D01*
X531548Y182595D01*
X531195Y183446D01*
X530634Y184177D01*
X529903Y184738D01*
X529051Y185091D01*
X528138Y185211D01*
D02*
G37*
G36*
X449311Y178972D02*
X448770Y178865D01*
X448343Y178579D01*
X432971D01*
X432581Y178501D01*
X432250Y178280D01*
X431243Y177273D01*
X430739Y177173D01*
X430280Y176867D01*
X429974Y176408D01*
X429867Y175868D01*
X429974Y175327D01*
X430280Y174869D01*
X430739Y174562D01*
X431280Y174455D01*
X431820Y174562D01*
X432279Y174869D01*
X432585Y175327D01*
X432685Y175831D01*
X433393Y176540D01*
X448343D01*
X448770Y176254D01*
X449311Y176146D01*
X449852Y176254D01*
X450310Y176560D01*
X450616Y177018D01*
X450724Y177559D01*
X450616Y178100D01*
X450310Y178558D01*
X449852Y178865D01*
X449311Y178972D01*
D02*
G37*
G36*
X185000Y184983D02*
X184099Y184864D01*
X183259Y184516D01*
X182537Y183963D01*
X181984Y183241D01*
X181636Y182401D01*
X181518Y181500D01*
X181636Y180599D01*
X181984Y179759D01*
X182537Y179037D01*
X183259Y178484D01*
X183150Y177988D01*
X180468D01*
X180078Y177910D01*
X179747Y177690D01*
X176623Y174565D01*
X175901Y174864D01*
X175000Y174983D01*
X174099Y174864D01*
X173259Y174516D01*
X172538Y173962D01*
X171984Y173241D01*
X171636Y172401D01*
X171518Y171500D01*
X171636Y170599D01*
X171984Y169759D01*
X172538Y169037D01*
X173259Y168484D01*
X174099Y168136D01*
X175000Y168017D01*
X175901Y168136D01*
X176741Y168484D01*
X177462Y169037D01*
X178016Y169759D01*
X178364Y170599D01*
X178482Y171500D01*
X178364Y172401D01*
X178065Y173123D01*
X180891Y175949D01*
X189112D01*
X189241Y175757D01*
X189797Y175385D01*
X190453Y175254D01*
X191109Y175385D01*
X191665Y175757D01*
X192036Y176313D01*
X192167Y176969D01*
X192036Y177624D01*
X191665Y178181D01*
X191109Y178552D01*
X190453Y178682D01*
X189797Y178552D01*
X189241Y178181D01*
X189112Y177988D01*
X186851D01*
X186741Y178484D01*
X187462Y179037D01*
X188016Y179759D01*
X188364Y180599D01*
X188482Y181500D01*
X188364Y182401D01*
X188016Y183241D01*
X187462Y183963D01*
X186741Y184516D01*
X185901Y184864D01*
X185000Y184983D01*
D02*
G37*
G36*
X528138Y175211D02*
X527224Y175091D01*
X526373Y174738D01*
X525642Y174177D01*
X525081Y173446D01*
X524728Y172595D01*
X524608Y171681D01*
X524728Y170767D01*
X525081Y169916D01*
X525642Y169185D01*
X526373Y168624D01*
X527224Y168271D01*
X528138Y168151D01*
X529051Y168271D01*
X529903Y168624D01*
X530634Y169185D01*
X531195Y169916D01*
X531548Y170767D01*
X531668Y171681D01*
X531548Y172595D01*
X531195Y173446D01*
X530634Y174177D01*
X529903Y174738D01*
X529051Y175091D01*
X528138Y175211D01*
D02*
G37*
G36*
X399315Y175698D02*
X398774Y175591D01*
X398316Y175284D01*
X398009Y174826D01*
X397902Y174285D01*
X397932Y174135D01*
X397889Y174092D01*
X397668Y173762D01*
X397591Y173372D01*
Y169071D01*
X397305Y168643D01*
X397197Y168102D01*
X397305Y167562D01*
X397611Y167103D01*
X398070Y166797D01*
X398610Y166689D01*
X399151Y166797D01*
X399609Y167103D01*
X399916Y167562D01*
X400023Y168102D01*
X399916Y168643D01*
X399630Y169071D01*
Y172935D01*
X399856Y172980D01*
X400314Y173286D01*
X400620Y173744D01*
X400728Y174285D01*
X400620Y174826D01*
X400314Y175284D01*
X399856Y175591D01*
X399315Y175698D01*
D02*
G37*
G36*
X185000Y174983D02*
X184099Y174864D01*
X183259Y174516D01*
X182537Y173962D01*
X181984Y173241D01*
X181636Y172401D01*
X181518Y171500D01*
X181636Y170599D01*
X181984Y169759D01*
X182537Y169037D01*
X182792Y168842D01*
X182622Y168342D01*
X180823D01*
X180433Y168265D01*
X180102Y168044D01*
X176623Y164565D01*
X175901Y164864D01*
X175000Y164982D01*
X174099Y164864D01*
X173259Y164516D01*
X172538Y163962D01*
X171984Y163241D01*
X171636Y162401D01*
X171518Y161500D01*
X171636Y160599D01*
X171984Y159759D01*
X172538Y159037D01*
X173259Y158484D01*
X174099Y158136D01*
X175000Y158018D01*
X175901Y158136D01*
X176741Y158484D01*
X177462Y159037D01*
X178016Y159759D01*
X178364Y160599D01*
X178482Y161500D01*
X178364Y162401D01*
X178065Y163123D01*
X181245Y166303D01*
X189112D01*
X189241Y166111D01*
X189797Y165739D01*
X190453Y165609D01*
X191109Y165739D01*
X191665Y166111D01*
X192036Y166667D01*
X192167Y167323D01*
X192036Y167979D01*
X191665Y168535D01*
X191109Y168906D01*
X190453Y169037D01*
X189797Y168906D01*
X189241Y168535D01*
X189112Y168342D01*
X187378D01*
X187208Y168842D01*
X187462Y169037D01*
X188016Y169759D01*
X188364Y170599D01*
X188482Y171500D01*
X188364Y172401D01*
X188016Y173241D01*
X187462Y173962D01*
X186741Y174516D01*
X185901Y174864D01*
X185000Y174983D01*
D02*
G37*
G36*
X515413Y175211D02*
X514500Y175091D01*
X513648Y174738D01*
X512917Y174177D01*
X512356Y173446D01*
X512004Y172595D01*
X511883Y171681D01*
X512004Y170767D01*
X512356Y169916D01*
X512917Y169185D01*
X513648Y168624D01*
X514500Y168271D01*
X515413Y168151D01*
X516327Y168271D01*
X517073Y168580D01*
X518394Y167259D01*
Y164324D01*
X518076Y164216D01*
X517894Y164190D01*
X517178Y164738D01*
X516327Y165091D01*
X515413Y165211D01*
X514500Y165091D01*
X513648Y164738D01*
X512917Y164177D01*
X512356Y163446D01*
X512004Y162595D01*
X511883Y161681D01*
X512004Y160767D01*
X512356Y159916D01*
X512917Y159185D01*
X513648Y158624D01*
X514500Y158271D01*
X515413Y158151D01*
X516327Y158271D01*
X517178Y158624D01*
X517894Y159173D01*
X518076Y159146D01*
X518394Y159038D01*
Y154324D01*
X518076Y154216D01*
X517894Y154190D01*
X517178Y154738D01*
X516327Y155091D01*
X515413Y155211D01*
X514500Y155091D01*
X513648Y154738D01*
X512917Y154177D01*
X512356Y153446D01*
X512004Y152595D01*
X511883Y151681D01*
X512004Y150767D01*
X512356Y149916D01*
X512917Y149185D01*
X513648Y148624D01*
X514500Y148271D01*
X515413Y148151D01*
X516327Y148271D01*
X517178Y148624D01*
X517894Y149173D01*
X518076Y149146D01*
X518394Y149038D01*
Y146103D01*
X517073Y144782D01*
X516327Y145091D01*
X515413Y145211D01*
X514500Y145091D01*
X513648Y144738D01*
X512917Y144177D01*
X512356Y143446D01*
X512004Y142595D01*
X511883Y141681D01*
X512004Y140767D01*
X512356Y139916D01*
X512917Y139185D01*
X513648Y138624D01*
X514500Y138271D01*
X515413Y138151D01*
X516327Y138271D01*
X517178Y138624D01*
X517910Y139185D01*
X518471Y139916D01*
X518823Y140767D01*
X518944Y141681D01*
X518823Y142595D01*
X518514Y143340D01*
X520134Y144960D01*
X520355Y145291D01*
X520433Y145681D01*
Y167681D01*
X520355Y168071D01*
X520134Y168402D01*
X518514Y170022D01*
X518823Y170767D01*
X518944Y171681D01*
X518823Y172595D01*
X518471Y173446D01*
X517910Y174177D01*
X517178Y174738D01*
X516327Y175091D01*
X515413Y175211D01*
D02*
G37*
G36*
X498138D02*
X497224Y175091D01*
X496373Y174738D01*
X495642Y174177D01*
X495081Y173446D01*
X494728Y172595D01*
X494608Y171681D01*
X494728Y170767D01*
X495081Y169916D01*
X495642Y169185D01*
X496373Y168624D01*
X497224Y168271D01*
X498138Y168151D01*
X499052Y168271D01*
X499647Y168518D01*
X501343Y166822D01*
Y164075D01*
X500843Y163906D01*
X500634Y164177D01*
X499903Y164738D01*
X499052Y165091D01*
X498138Y165211D01*
X497224Y165091D01*
X496373Y164738D01*
X495642Y164177D01*
X495081Y163446D01*
X494728Y162595D01*
X494608Y161681D01*
X494728Y160767D01*
X495081Y159916D01*
X495642Y159185D01*
X496373Y158624D01*
X497224Y158271D01*
X498138Y158151D01*
X499052Y158271D01*
X499903Y158624D01*
X500634Y159185D01*
X500843Y159457D01*
X501343Y159287D01*
Y154075D01*
X500843Y153905D01*
X500634Y154177D01*
X499903Y154738D01*
X499052Y155091D01*
X498138Y155211D01*
X497224Y155091D01*
X496373Y154738D01*
X495642Y154177D01*
X495081Y153446D01*
X494728Y152595D01*
X494608Y151681D01*
X494728Y150767D01*
X495081Y149916D01*
X495642Y149185D01*
X496373Y148624D01*
X497224Y148271D01*
X498138Y148151D01*
X499052Y148271D01*
X499903Y148624D01*
X500634Y149185D01*
X500843Y149457D01*
X501343Y149287D01*
Y146328D01*
X499797Y144782D01*
X499052Y145091D01*
X498138Y145211D01*
X497224Y145091D01*
X496373Y144738D01*
X495642Y144177D01*
X495081Y143446D01*
X494728Y142595D01*
X494608Y141681D01*
X494728Y140767D01*
X495081Y139916D01*
X495642Y139185D01*
X496373Y138624D01*
X497224Y138271D01*
X498138Y138151D01*
X499052Y138271D01*
X499903Y138624D01*
X500634Y139185D01*
X501195Y139916D01*
X501548Y140767D01*
X501668Y141681D01*
X501548Y142595D01*
X501239Y143340D01*
X503083Y145185D01*
X503304Y145515D01*
X503382Y145905D01*
Y167244D01*
X503304Y167634D01*
X503083Y167965D01*
X501168Y169880D01*
X501195Y169916D01*
X501548Y170767D01*
X501668Y171681D01*
X501548Y172595D01*
X501195Y173446D01*
X500634Y174177D01*
X499903Y174738D01*
X499052Y175091D01*
X498138Y175211D01*
D02*
G37*
G36*
X185000Y164982D02*
X184099Y164864D01*
X183259Y164516D01*
X182537Y163962D01*
X181984Y163241D01*
X181636Y162401D01*
X181518Y161500D01*
X181636Y160599D01*
X181984Y159759D01*
X182537Y159037D01*
X183259Y158484D01*
X184099Y158136D01*
X185000Y158018D01*
X185901Y158136D01*
X186741Y158484D01*
X187462Y159037D01*
X188016Y159759D01*
X188364Y160599D01*
X188482Y161500D01*
X188364Y162401D01*
X188016Y163241D01*
X187462Y163962D01*
X186741Y164516D01*
X185901Y164864D01*
X185000Y164982D01*
D02*
G37*
G36*
X190453Y157718D02*
X189797Y157588D01*
X189241Y157216D01*
X189112Y157024D01*
X179504D01*
X179114Y156946D01*
X178783Y156725D01*
X176623Y154565D01*
X175901Y154864D01*
X175000Y154982D01*
X174099Y154864D01*
X173259Y154516D01*
X172538Y153963D01*
X171984Y153241D01*
X171636Y152401D01*
X171518Y151500D01*
X171636Y150599D01*
X171984Y149759D01*
X172538Y149038D01*
X173259Y148484D01*
X174099Y148136D01*
X175000Y148018D01*
X175901Y148136D01*
X176741Y148484D01*
X177462Y149038D01*
X178016Y149759D01*
X178364Y150599D01*
X178482Y151500D01*
X178364Y152401D01*
X178065Y153123D01*
X179926Y154984D01*
X182881D01*
X183218Y154540D01*
X183218Y154484D01*
X182537Y153963D01*
X181984Y153241D01*
X181636Y152401D01*
X181518Y151500D01*
X181636Y150599D01*
X181984Y149759D01*
X182537Y149038D01*
X183259Y148484D01*
X184099Y148136D01*
X185000Y148018D01*
X185901Y148136D01*
X186741Y148484D01*
X187462Y149038D01*
X188016Y149759D01*
X188364Y150599D01*
X188482Y151500D01*
X188364Y152401D01*
X188016Y153241D01*
X187462Y153963D01*
X186783Y154484D01*
X186782Y154540D01*
X187119Y154984D01*
X189112D01*
X189241Y154792D01*
X189797Y154420D01*
X190453Y154290D01*
X191109Y154420D01*
X191665Y154792D01*
X192036Y155348D01*
X192167Y156004D01*
X192036Y156660D01*
X191665Y157216D01*
X191109Y157588D01*
X190453Y157718D01*
D02*
G37*
G36*
X190551Y147383D02*
X189895Y147253D01*
X189339Y146881D01*
X189211Y146689D01*
X179169D01*
X178779Y146611D01*
X178448Y146390D01*
X176623Y144565D01*
X175901Y144864D01*
X175000Y144983D01*
X174099Y144864D01*
X173259Y144516D01*
X172538Y143963D01*
X171984Y143241D01*
X171636Y142401D01*
X171518Y141500D01*
X171636Y140599D01*
X171984Y139759D01*
X172538Y139038D01*
X173259Y138484D01*
X174099Y138136D01*
X175000Y138017D01*
X175901Y138136D01*
X176741Y138484D01*
X177462Y139038D01*
X178016Y139759D01*
X178364Y140599D01*
X178482Y141500D01*
X178364Y142401D01*
X178065Y143123D01*
X179592Y144650D01*
X182612D01*
X182781Y144150D01*
X182537Y143963D01*
X181984Y143241D01*
X181636Y142401D01*
X181518Y141500D01*
X181636Y140599D01*
X181984Y139759D01*
X182537Y139038D01*
X183259Y138484D01*
X184099Y138136D01*
X184117Y138134D01*
X184084Y137634D01*
X180114D01*
X179724Y137556D01*
X179393Y137335D01*
X176623Y134565D01*
X175901Y134864D01*
X175000Y134983D01*
X174099Y134864D01*
X173259Y134516D01*
X172538Y133963D01*
X171984Y133241D01*
X171636Y132401D01*
X171518Y131500D01*
X171636Y130599D01*
X171984Y129759D01*
X172538Y129037D01*
X173259Y128484D01*
X174099Y128136D01*
X175000Y128017D01*
X175901Y128136D01*
X176741Y128484D01*
X177462Y129037D01*
X178016Y129759D01*
X178364Y130599D01*
X178482Y131500D01*
X178364Y132401D01*
X178065Y133123D01*
X180536Y135595D01*
X189112D01*
X189241Y135402D01*
X189797Y135031D01*
X190453Y134900D01*
X191109Y135031D01*
X191665Y135402D01*
X192036Y135958D01*
X192167Y136614D01*
X192036Y137270D01*
X191665Y137826D01*
X191109Y138198D01*
X190453Y138328D01*
X189797Y138198D01*
X189241Y137826D01*
X189112Y137634D01*
X185916D01*
X185883Y138134D01*
X185901Y138136D01*
X186741Y138484D01*
X187462Y139038D01*
X188016Y139759D01*
X188364Y140599D01*
X188482Y141500D01*
X188364Y142401D01*
X188016Y143241D01*
X187462Y143963D01*
X187219Y144150D01*
X187388Y144650D01*
X189211D01*
X189339Y144457D01*
X189895Y144086D01*
X190551Y143955D01*
X191207Y144086D01*
X191763Y144457D01*
X192135Y145013D01*
X192265Y145669D01*
X192135Y146325D01*
X191763Y146881D01*
X191207Y147253D01*
X190551Y147383D01*
D02*
G37*
G36*
X449311Y142063D02*
X448770Y141955D01*
X448343Y141669D01*
X430287D01*
X429859Y141955D01*
X429318Y142063D01*
X428777Y141955D01*
X428319Y141649D01*
X428013Y141190D01*
X427905Y140650D01*
X428013Y140109D01*
X428319Y139650D01*
X428777Y139344D01*
X429318Y139237D01*
X429859Y139344D01*
X430287Y139630D01*
X448343D01*
X448770Y139344D01*
X449311Y139237D01*
X449852Y139344D01*
X450310Y139650D01*
X450616Y140109D01*
X450724Y140650D01*
X450616Y141190D01*
X450310Y141649D01*
X449852Y141955D01*
X449311Y142063D01*
D02*
G37*
G36*
X398610Y150618D02*
X398070Y150510D01*
X397611Y150204D01*
X397305Y149745D01*
X397197Y149205D01*
X397305Y148664D01*
X397611Y148206D01*
X398070Y147899D01*
X398574Y147799D01*
X400555Y145818D01*
Y140732D01*
X400269Y140305D01*
X400162Y139764D01*
X400269Y139223D01*
X400576Y138765D01*
X401034Y138458D01*
X401575Y138351D01*
X402115Y138458D01*
X402574Y138765D01*
X402880Y139223D01*
X402988Y139764D01*
X402880Y140305D01*
X402594Y140732D01*
Y146240D01*
X402517Y146630D01*
X402296Y146961D01*
X400016Y149241D01*
X399916Y149745D01*
X399609Y150204D01*
X399151Y150510D01*
X398610Y150618D01*
D02*
G37*
G36*
X528138Y145211D02*
X527224Y145091D01*
X526373Y144738D01*
X525642Y144177D01*
X525081Y143446D01*
X524728Y142595D01*
X524608Y141681D01*
X524728Y140767D01*
X525081Y139916D01*
X525642Y139185D01*
X526373Y138624D01*
X527224Y138271D01*
X528138Y138151D01*
X529051Y138271D01*
X529903Y138624D01*
X530634Y139185D01*
X531195Y139916D01*
X531548Y140767D01*
X531668Y141681D01*
X531548Y142595D01*
X531195Y143446D01*
X530634Y144177D01*
X529903Y144738D01*
X529051Y145091D01*
X528138Y145211D01*
D02*
G37*
G36*
X449311Y137633D02*
X448770Y137526D01*
X448343Y137240D01*
X433463D01*
X433073Y137162D01*
X432742Y136941D01*
X431570Y135770D01*
X431066Y135669D01*
X430607Y135363D01*
X430301Y134905D01*
X430194Y134364D01*
X430301Y133823D01*
X430607Y133365D01*
X431066Y133059D01*
X431606Y132951D01*
X432147Y133059D01*
X432606Y133365D01*
X432912Y133823D01*
X433012Y134328D01*
X433885Y135201D01*
X448343D01*
X448770Y134915D01*
X449311Y134808D01*
X449852Y134915D01*
X450310Y135221D01*
X450616Y135680D01*
X450724Y136221D01*
X450616Y136761D01*
X450310Y137220D01*
X449852Y137526D01*
X449311Y137633D01*
D02*
G37*
G36*
X528138Y135180D02*
X527224Y135059D01*
X526373Y134707D01*
X525642Y134146D01*
X525081Y133415D01*
X524728Y132563D01*
X524608Y131650D01*
X524728Y130736D01*
X525081Y129885D01*
X525642Y129153D01*
X526373Y128592D01*
X527224Y128240D01*
X528138Y128119D01*
X529051Y128240D01*
X529903Y128592D01*
X530634Y129153D01*
X531195Y129885D01*
X531548Y130736D01*
X531668Y131650D01*
X531548Y132563D01*
X531195Y133415D01*
X530634Y134146D01*
X529903Y134707D01*
X529051Y135059D01*
X528138Y135180D01*
D02*
G37*
G36*
X185000Y134983D02*
X184099Y134864D01*
X183259Y134516D01*
X182537Y133963D01*
X181984Y133241D01*
X181636Y132401D01*
X181518Y131500D01*
X181636Y130599D01*
X181984Y129759D01*
X182537Y129037D01*
X183125Y128586D01*
X182957Y128086D01*
X180567D01*
X180177Y128009D01*
X179846Y127788D01*
X176623Y124565D01*
X175901Y124864D01*
X175000Y124983D01*
X174099Y124864D01*
X173259Y124516D01*
X172538Y123962D01*
X171984Y123241D01*
X171636Y122401D01*
X171518Y121500D01*
X171636Y120599D01*
X171984Y119759D01*
X172538Y119037D01*
X173259Y118484D01*
X174099Y118136D01*
X175000Y118017D01*
X175901Y118136D01*
X176741Y118484D01*
X177462Y119037D01*
X178016Y119759D01*
X178364Y120599D01*
X178482Y121500D01*
X178364Y122401D01*
X178065Y123123D01*
X180989Y126047D01*
X189112D01*
X189241Y125855D01*
X189797Y125483D01*
X190453Y125353D01*
X191109Y125483D01*
X191665Y125855D01*
X192036Y126411D01*
X192167Y127067D01*
X192036Y127723D01*
X191665Y128279D01*
X191109Y128650D01*
X190453Y128781D01*
X189797Y128650D01*
X189241Y128279D01*
X189112Y128086D01*
X187043D01*
X186875Y128586D01*
X187462Y129037D01*
X188016Y129759D01*
X188364Y130599D01*
X188482Y131500D01*
X188364Y132401D01*
X188016Y133241D01*
X187462Y133963D01*
X186741Y134516D01*
X185901Y134864D01*
X185000Y134983D01*
D02*
G37*
G36*
X399642Y134194D02*
X399101Y134087D01*
X398643Y133781D01*
X398337Y133322D01*
X398229Y132781D01*
X398259Y132631D01*
X398216Y132589D01*
X397995Y132258D01*
X397918Y131868D01*
Y127567D01*
X397632Y127139D01*
X397524Y126599D01*
X397632Y126058D01*
X397938Y125600D01*
X398396Y125293D01*
X398937Y125186D01*
X399478Y125293D01*
X399936Y125600D01*
X400243Y126058D01*
X400350Y126599D01*
X400243Y127139D01*
X399957Y127567D01*
Y131431D01*
X400183Y131476D01*
X400641Y131782D01*
X400947Y132241D01*
X401055Y132781D01*
X400947Y133322D01*
X400641Y133781D01*
X400183Y134087D01*
X399642Y134194D01*
D02*
G37*
G36*
X515413Y135180D02*
X514500Y135059D01*
X513648Y134707D01*
X512917Y134146D01*
X512356Y133415D01*
X512004Y132563D01*
X511883Y131650D01*
X512004Y130736D01*
X512356Y129885D01*
X512917Y129153D01*
X513648Y128592D01*
X514500Y128240D01*
X515413Y128119D01*
X516327Y128240D01*
X517073Y128549D01*
X518394Y127227D01*
Y124293D01*
X518076Y124185D01*
X517894Y124158D01*
X517178Y124707D01*
X516327Y125059D01*
X515413Y125180D01*
X514500Y125059D01*
X513648Y124707D01*
X512917Y124146D01*
X512356Y123415D01*
X512004Y122563D01*
X511883Y121650D01*
X512004Y120736D01*
X512356Y119885D01*
X512917Y119153D01*
X513648Y118592D01*
X514500Y118240D01*
X515413Y118119D01*
X516327Y118240D01*
X517178Y118592D01*
X517894Y119141D01*
X518076Y119115D01*
X518394Y119007D01*
Y114293D01*
X518076Y114185D01*
X517894Y114158D01*
X517178Y114707D01*
X516327Y115059D01*
X515413Y115180D01*
X514500Y115059D01*
X513648Y114707D01*
X512917Y114146D01*
X512356Y113415D01*
X512004Y112563D01*
X511883Y111650D01*
X512004Y110736D01*
X512356Y109885D01*
X512917Y109153D01*
X513648Y108592D01*
X514500Y108240D01*
X515413Y108119D01*
X516327Y108240D01*
X517178Y108592D01*
X517894Y109141D01*
X518076Y109115D01*
X518394Y109007D01*
Y106072D01*
X517073Y104751D01*
X516327Y105060D01*
X515413Y105180D01*
X514500Y105060D01*
X513648Y104707D01*
X512917Y104146D01*
X512356Y103415D01*
X512004Y102563D01*
X511883Y101650D01*
X512004Y100736D01*
X512356Y99884D01*
X512917Y99153D01*
X513648Y98592D01*
X514500Y98240D01*
X515413Y98119D01*
X516327Y98240D01*
X517178Y98592D01*
X517910Y99153D01*
X518471Y99884D01*
X518823Y100736D01*
X518944Y101650D01*
X518823Y102563D01*
X518514Y103309D01*
X520134Y104929D01*
X520355Y105259D01*
X520433Y105650D01*
Y127650D01*
X520355Y128040D01*
X520134Y128371D01*
X518514Y129990D01*
X518823Y130736D01*
X518944Y131650D01*
X518823Y132563D01*
X518471Y133415D01*
X517910Y134146D01*
X517178Y134707D01*
X516327Y135059D01*
X515413Y135180D01*
D02*
G37*
G36*
X498138D02*
X497224Y135059D01*
X496373Y134707D01*
X495642Y134146D01*
X495081Y133415D01*
X494728Y132563D01*
X494608Y131650D01*
X494728Y130736D01*
X495081Y129885D01*
X495642Y129153D01*
X496373Y128592D01*
X497224Y128240D01*
X498138Y128119D01*
X499052Y128240D01*
X499365Y128370D01*
X501186Y126549D01*
Y124204D01*
X500712Y124044D01*
X500634Y124146D01*
X499903Y124707D01*
X499052Y125059D01*
X498138Y125180D01*
X497224Y125059D01*
X496373Y124707D01*
X495642Y124146D01*
X495081Y123415D01*
X494728Y122563D01*
X494608Y121650D01*
X494728Y120736D01*
X495081Y119885D01*
X495642Y119153D01*
X496373Y118592D01*
X497224Y118240D01*
X498138Y118119D01*
X499052Y118240D01*
X499903Y118592D01*
X500634Y119153D01*
X500712Y119255D01*
X501186Y119095D01*
Y114204D01*
X500712Y114044D01*
X500634Y114146D01*
X499903Y114707D01*
X499052Y115059D01*
X498138Y115180D01*
X497224Y115059D01*
X496373Y114707D01*
X495642Y114146D01*
X495081Y113415D01*
X494728Y112563D01*
X494608Y111650D01*
X494728Y110736D01*
X495081Y109885D01*
X495642Y109153D01*
X496373Y108592D01*
X497224Y108240D01*
X498138Y108119D01*
X499052Y108240D01*
X499903Y108592D01*
X500634Y109153D01*
X500712Y109256D01*
X501186Y109095D01*
Y106140D01*
X499797Y104751D01*
X499052Y105060D01*
X498138Y105180D01*
X497224Y105060D01*
X496373Y104707D01*
X495642Y104146D01*
X495081Y103415D01*
X494728Y102563D01*
X494608Y101650D01*
X494728Y100736D01*
X495081Y99884D01*
X495642Y99153D01*
X496373Y98592D01*
X497224Y98240D01*
X498138Y98119D01*
X499052Y98240D01*
X499903Y98592D01*
X500634Y99153D01*
X501195Y99884D01*
X501548Y100736D01*
X501668Y101650D01*
X501548Y102563D01*
X501239Y103309D01*
X502926Y104996D01*
X503147Y105327D01*
X503225Y105717D01*
Y126971D01*
X503147Y127361D01*
X502926Y127692D01*
X500995Y129624D01*
X501195Y129885D01*
X501548Y130736D01*
X501668Y131650D01*
X501548Y132563D01*
X501195Y133415D01*
X500634Y134146D01*
X499903Y134707D01*
X499052Y135059D01*
X498138Y135180D01*
D02*
G37*
G36*
X185000Y124983D02*
X184099Y124864D01*
X183259Y124516D01*
X182537Y123962D01*
X181984Y123241D01*
X181636Y122401D01*
X181518Y121500D01*
X181636Y120599D01*
X181984Y119759D01*
X182537Y119037D01*
X183259Y118484D01*
X183344Y118449D01*
X183245Y117949D01*
X180429D01*
X180039Y117871D01*
X179708Y117650D01*
X176623Y114565D01*
X175901Y114864D01*
X175000Y114982D01*
X174099Y114864D01*
X173259Y114516D01*
X172538Y113962D01*
X171984Y113241D01*
X171636Y112401D01*
X171518Y111500D01*
X171636Y110599D01*
X171984Y109759D01*
X172538Y109037D01*
X173259Y108484D01*
X174099Y108136D01*
X175000Y108018D01*
X175901Y108136D01*
X176741Y108484D01*
X177462Y109037D01*
X178016Y109759D01*
X178364Y110599D01*
X178482Y111500D01*
X178364Y112401D01*
X178065Y113123D01*
X180851Y115910D01*
X189112D01*
X189241Y115717D01*
X189797Y115346D01*
X190453Y115215D01*
X191109Y115346D01*
X191665Y115717D01*
X192036Y116273D01*
X192167Y116929D01*
X192036Y117585D01*
X191665Y118141D01*
X191109Y118513D01*
X190453Y118643D01*
X189797Y118513D01*
X189241Y118141D01*
X189112Y117949D01*
X186756D01*
X186656Y118449D01*
X186741Y118484D01*
X187462Y119037D01*
X188016Y119759D01*
X188364Y120599D01*
X188482Y121500D01*
X188364Y122401D01*
X188016Y123241D01*
X187462Y123962D01*
X186741Y124516D01*
X185901Y124864D01*
X185000Y124983D01*
D02*
G37*
G36*
Y114982D02*
X184099Y114864D01*
X183259Y114516D01*
X182537Y113962D01*
X181984Y113241D01*
X181636Y112401D01*
X181518Y111500D01*
X181636Y110599D01*
X181984Y109759D01*
X182537Y109037D01*
X183259Y108484D01*
X183439Y108409D01*
X183340Y107909D01*
X180390D01*
X180000Y107832D01*
X179669Y107611D01*
X176623Y104565D01*
X175901Y104864D01*
X175000Y104982D01*
X174099Y104864D01*
X173259Y104516D01*
X172538Y103963D01*
X171984Y103241D01*
X171636Y102401D01*
X171518Y101500D01*
X171636Y100599D01*
X171984Y99759D01*
X172538Y99037D01*
X173259Y98484D01*
X174099Y98136D01*
X175000Y98018D01*
X175901Y98136D01*
X176741Y98484D01*
X177462Y99037D01*
X178016Y99759D01*
X178364Y100599D01*
X178482Y101500D01*
X178364Y102401D01*
X178065Y103123D01*
X180812Y105870D01*
X189112D01*
X189241Y105678D01*
X189797Y105306D01*
X190453Y105176D01*
X191109Y105306D01*
X191665Y105678D01*
X192036Y106234D01*
X192167Y106890D01*
X192036Y107546D01*
X191665Y108102D01*
X191109Y108473D01*
X190453Y108604D01*
X189797Y108473D01*
X189241Y108102D01*
X189112Y107909D01*
X186660D01*
X186561Y108409D01*
X186741Y108484D01*
X187462Y109037D01*
X188016Y109759D01*
X188364Y110599D01*
X188482Y111500D01*
X188364Y112401D01*
X188016Y113241D01*
X187462Y113962D01*
X186741Y114516D01*
X185901Y114864D01*
X185000Y114982D01*
D02*
G37*
G36*
X449311Y102397D02*
X448770Y102290D01*
X448343Y102004D01*
X430680D01*
X430253Y102290D01*
X429712Y102397D01*
X429171Y102290D01*
X428713Y101983D01*
X428406Y101525D01*
X428299Y100984D01*
X428406Y100443D01*
X428713Y99985D01*
X429171Y99679D01*
X429712Y99571D01*
X430253Y99679D01*
X430680Y99965D01*
X448343D01*
X448770Y99679D01*
X449311Y99571D01*
X449852Y99679D01*
X450310Y99985D01*
X450616Y100443D01*
X450724Y100984D01*
X450616Y101525D01*
X450310Y101983D01*
X449852Y102290D01*
X449311Y102397D01*
D02*
G37*
G36*
X399004Y110952D02*
X398463Y110845D01*
X398005Y110538D01*
X397698Y110080D01*
X397591Y109539D01*
X397698Y108999D01*
X398005Y108540D01*
X398463Y108234D01*
X398968Y108134D01*
X400949Y106152D01*
Y100969D01*
X400663Y100541D01*
X400556Y100000D01*
X400663Y99459D01*
X400969Y99001D01*
X401428Y98695D01*
X401968Y98587D01*
X402509Y98695D01*
X402968Y99001D01*
X403274Y99459D01*
X403381Y100000D01*
X403274Y100541D01*
X402988Y100969D01*
Y106575D01*
X402911Y106965D01*
X402690Y107296D01*
X400410Y109575D01*
X400309Y110080D01*
X400003Y110538D01*
X399545Y110845D01*
X399004Y110952D01*
D02*
G37*
G36*
X528138Y105180D02*
X527224Y105060D01*
X526373Y104707D01*
X525642Y104146D01*
X525081Y103415D01*
X524728Y102563D01*
X524608Y101650D01*
X524728Y100736D01*
X525081Y99884D01*
X525642Y99153D01*
X526373Y98592D01*
X527224Y98240D01*
X528138Y98119D01*
X529051Y98240D01*
X529903Y98592D01*
X530634Y99153D01*
X531195Y99884D01*
X531548Y100736D01*
X531668Y101650D01*
X531548Y102563D01*
X531195Y103415D01*
X530634Y104146D01*
X529903Y104707D01*
X529051Y105060D01*
X528138Y105180D01*
D02*
G37*
G36*
X185000Y104982D02*
X184099Y104864D01*
X183259Y104516D01*
X182537Y103963D01*
X181984Y103241D01*
X181636Y102401D01*
X181518Y101500D01*
X181636Y100599D01*
X181984Y99759D01*
X182537Y99037D01*
X183259Y98484D01*
X184099Y98136D01*
X185000Y98018D01*
X185901Y98136D01*
X186741Y98484D01*
X187462Y99037D01*
X188016Y99759D01*
X188364Y100599D01*
X188482Y101500D01*
X188364Y102401D01*
X188016Y103241D01*
X187462Y103963D01*
X186741Y104516D01*
X185901Y104864D01*
X185000Y104982D01*
D02*
G37*
G36*
X449311Y94720D02*
X448770Y94612D01*
X448312Y94306D01*
X448006Y93848D01*
X447999Y93816D01*
X432642D01*
X432214Y94102D01*
X431673Y94210D01*
X431132Y94102D01*
X430674Y93796D01*
X430368Y93338D01*
X430260Y92797D01*
X430368Y92256D01*
X430674Y91798D01*
X431132Y91491D01*
X431673Y91384D01*
X432214Y91491D01*
X432642Y91777D01*
X448592D01*
X448982Y91855D01*
X449103Y91935D01*
X449311Y91894D01*
X449852Y92002D01*
X450310Y92308D01*
X450616Y92766D01*
X450724Y93307D01*
X450616Y93848D01*
X450310Y94306D01*
X449852Y94612D01*
X449311Y94720D01*
D02*
G37*
G36*
X528138Y95160D02*
X527224Y95040D01*
X526373Y94687D01*
X525642Y94126D01*
X525081Y93395D01*
X524728Y92544D01*
X524608Y91630D01*
X524728Y90716D01*
X525081Y89865D01*
X525642Y89134D01*
X526373Y88573D01*
X527224Y88220D01*
X528138Y88100D01*
X529051Y88220D01*
X529903Y88573D01*
X530634Y89134D01*
X531195Y89865D01*
X531548Y90716D01*
X531668Y91630D01*
X531548Y92544D01*
X531195Y93395D01*
X530634Y94126D01*
X529903Y94687D01*
X529051Y95040D01*
X528138Y95160D01*
D02*
G37*
G36*
X515413Y94959D02*
X514500Y94839D01*
X513648Y94486D01*
X512917Y93925D01*
X512356Y93194D01*
X512004Y92343D01*
X511883Y91429D01*
X512004Y90515D01*
X512356Y89664D01*
X512917Y88933D01*
X513648Y88372D01*
X514500Y88019D01*
X515413Y87899D01*
X516327Y88019D01*
X517073Y88328D01*
X518394Y87007D01*
Y84072D01*
X518076Y83964D01*
X517894Y83938D01*
X517178Y84486D01*
X516327Y84839D01*
X515413Y84959D01*
X514500Y84839D01*
X513648Y84486D01*
X512917Y83925D01*
X512356Y83194D01*
X512004Y82343D01*
X511883Y81429D01*
X512004Y80515D01*
X512356Y79664D01*
X512917Y78933D01*
X513648Y78372D01*
X514500Y78019D01*
X515413Y77899D01*
X516327Y78019D01*
X517178Y78372D01*
X517894Y78921D01*
X518076Y78894D01*
X518394Y78786D01*
Y74072D01*
X518076Y73964D01*
X517894Y73937D01*
X517178Y74486D01*
X516327Y74839D01*
X515413Y74959D01*
X514500Y74839D01*
X513648Y74486D01*
X512917Y73925D01*
X512356Y73194D01*
X512004Y72343D01*
X511883Y71429D01*
X512004Y70515D01*
X512356Y69664D01*
X512917Y68933D01*
X513648Y68372D01*
X514500Y68019D01*
X515413Y67899D01*
X516327Y68019D01*
X517178Y68372D01*
X517894Y68921D01*
X518076Y68894D01*
X518394Y68786D01*
Y65851D01*
X517073Y64530D01*
X516327Y64839D01*
X515413Y64959D01*
X514500Y64839D01*
X513648Y64486D01*
X512917Y63925D01*
X512356Y63194D01*
X512004Y62343D01*
X511883Y61429D01*
X512004Y60515D01*
X512356Y59664D01*
X512917Y58933D01*
X513648Y58372D01*
X514500Y58019D01*
X515413Y57899D01*
X516327Y58019D01*
X517178Y58372D01*
X517910Y58933D01*
X518471Y59664D01*
X518823Y60515D01*
X518944Y61429D01*
X518823Y62343D01*
X518514Y63088D01*
X520134Y64708D01*
X520355Y65039D01*
X520433Y65429D01*
Y87429D01*
X520355Y87819D01*
X520134Y88150D01*
X518514Y89770D01*
X518823Y90515D01*
X518944Y91429D01*
X518823Y92343D01*
X518471Y93194D01*
X517910Y93925D01*
X517178Y94486D01*
X516327Y94839D01*
X515413Y94959D01*
D02*
G37*
G36*
X498138Y95160D02*
X497224Y95040D01*
X496373Y94687D01*
X495642Y94126D01*
X495081Y93395D01*
X494728Y92544D01*
X494608Y91630D01*
X494728Y90716D01*
X495081Y89865D01*
X495642Y89134D01*
X496373Y88573D01*
X497224Y88220D01*
X498138Y88100D01*
X499052Y88220D01*
X499516Y88412D01*
X501343Y86586D01*
Y84024D01*
X500843Y83854D01*
X500634Y84126D01*
X499903Y84687D01*
X499052Y85040D01*
X498138Y85160D01*
X497224Y85040D01*
X496373Y84687D01*
X495642Y84126D01*
X495081Y83395D01*
X494728Y82544D01*
X494608Y81630D01*
X494728Y80716D01*
X495081Y79865D01*
X495642Y79134D01*
X496373Y78573D01*
X497224Y78220D01*
X498138Y78100D01*
X499052Y78220D01*
X499903Y78573D01*
X500634Y79134D01*
X500843Y79405D01*
X501343Y79236D01*
Y74024D01*
X500843Y73854D01*
X500634Y74126D01*
X499903Y74687D01*
X499052Y75040D01*
X498138Y75160D01*
X497224Y75040D01*
X496373Y74687D01*
X495642Y74126D01*
X495081Y73395D01*
X494728Y72544D01*
X494608Y71630D01*
X494728Y70716D01*
X495081Y69865D01*
X495642Y69134D01*
X496373Y68573D01*
X497224Y68220D01*
X498138Y68100D01*
X499052Y68220D01*
X499903Y68573D01*
X500634Y69134D01*
X500843Y69406D01*
X501343Y69236D01*
Y66092D01*
X499923Y64672D01*
X499903Y64687D01*
X499052Y65040D01*
X498138Y65160D01*
X497224Y65040D01*
X496373Y64687D01*
X495642Y64126D01*
X495081Y63395D01*
X494728Y62544D01*
X494608Y61630D01*
X494728Y60716D01*
X495081Y59865D01*
X495642Y59134D01*
X496373Y58573D01*
X497224Y58220D01*
X498138Y58100D01*
X499052Y58220D01*
X499903Y58573D01*
X500634Y59134D01*
X501195Y59865D01*
X501548Y60716D01*
X501668Y61630D01*
X501548Y62544D01*
X501293Y63158D01*
X503083Y64948D01*
X503304Y65279D01*
X503382Y65669D01*
Y87008D01*
X503304Y87398D01*
X503083Y87729D01*
X501087Y89725D01*
X501195Y89865D01*
X501548Y90716D01*
X501668Y91630D01*
X501548Y92544D01*
X501195Y93395D01*
X500634Y94126D01*
X499903Y94687D01*
X499052Y95040D01*
X498138Y95160D01*
D02*
G37*
G36*
X399709Y92627D02*
X399168Y92520D01*
X398710Y92213D01*
X398403Y91755D01*
X398296Y91214D01*
X398325Y91064D01*
X398283Y91022D01*
X398062Y90691D01*
X397984Y90301D01*
Y86000D01*
X397698Y85572D01*
X397591Y85031D01*
X397698Y84491D01*
X398005Y84032D01*
X398463Y83726D01*
X399004Y83618D01*
X399545Y83726D01*
X400003Y84032D01*
X400309Y84491D01*
X400417Y85031D01*
X400309Y85572D01*
X400024Y86000D01*
Y89864D01*
X400249Y89909D01*
X400708Y90215D01*
X401014Y90674D01*
X401122Y91214D01*
X401014Y91755D01*
X400708Y92213D01*
X400249Y92520D01*
X399709Y92627D01*
D02*
G37*
G36*
X96353Y71853D02*
X89447D01*
Y64947D01*
X96353D01*
Y71853D01*
D02*
G37*
G36*
X102900Y71882D02*
X101999Y71764D01*
X101159Y71416D01*
X100437Y70863D01*
X99884Y70141D01*
X99536Y69301D01*
X99418Y68400D01*
X99536Y67499D01*
X99884Y66659D01*
X100437Y65938D01*
X101159Y65384D01*
X101999Y65036D01*
X102900Y64917D01*
X103801Y65036D01*
X104641Y65384D01*
X105362Y65938D01*
X105916Y66659D01*
X106264Y67499D01*
X106383Y68400D01*
X106264Y69301D01*
X105916Y70141D01*
X105362Y70863D01*
X104641Y71416D01*
X103801Y71764D01*
X102900Y71882D01*
D02*
G37*
G36*
X449311Y60468D02*
X448770Y60360D01*
X448343Y60075D01*
X430680D01*
X430253Y60360D01*
X429712Y60468D01*
X429171Y60360D01*
X428713Y60054D01*
X428406Y59596D01*
X428299Y59055D01*
X428406Y58514D01*
X428713Y58056D01*
X429171Y57750D01*
X429712Y57642D01*
X430253Y57750D01*
X430680Y58035D01*
X448343D01*
X448770Y57750D01*
X449311Y57642D01*
X449852Y57750D01*
X450310Y58056D01*
X450616Y58514D01*
X450724Y59055D01*
X450616Y59596D01*
X450310Y60054D01*
X449852Y60360D01*
X449311Y60468D01*
D02*
G37*
G36*
X528138Y65160D02*
X527224Y65040D01*
X526373Y64687D01*
X525642Y64126D01*
X525081Y63395D01*
X524728Y62544D01*
X524608Y61630D01*
X524728Y60716D01*
X525081Y59865D01*
X525642Y59134D01*
X526373Y58573D01*
X527224Y58220D01*
X528138Y58100D01*
X529051Y58220D01*
X529903Y58573D01*
X530634Y59134D01*
X531195Y59865D01*
X531548Y60716D01*
X531668Y61630D01*
X531548Y62544D01*
X531195Y63395D01*
X530634Y64126D01*
X529903Y64687D01*
X529051Y65040D01*
X528138Y65160D01*
D02*
G37*
G36*
X399004Y69023D02*
X398463Y68916D01*
X398005Y68609D01*
X397698Y68151D01*
X397591Y67610D01*
X397698Y67070D01*
X398005Y66611D01*
X398463Y66305D01*
X398968Y66204D01*
X400949Y64223D01*
Y58842D01*
X400663Y58415D01*
X400556Y57874D01*
X400663Y57333D01*
X400969Y56875D01*
X401428Y56569D01*
X401968Y56461D01*
X402509Y56569D01*
X402968Y56875D01*
X403274Y57333D01*
X403381Y57874D01*
X403274Y58415D01*
X402988Y58842D01*
Y64646D01*
X402911Y65036D01*
X402690Y65367D01*
X400410Y67646D01*
X400309Y68151D01*
X400003Y68609D01*
X399545Y68916D01*
X399004Y69023D01*
D02*
G37*
G36*
X102900Y61883D02*
X101999Y61764D01*
X101159Y61416D01*
X100437Y60862D01*
X99884Y60141D01*
X99536Y59301D01*
X99418Y58400D01*
X99536Y57499D01*
X99884Y56659D01*
X100437Y55937D01*
X101159Y55384D01*
X101999Y55036D01*
X102900Y54918D01*
X103801Y55036D01*
X104641Y55384D01*
X105362Y55937D01*
X105916Y56659D01*
X106264Y57499D01*
X106383Y58400D01*
X106264Y59301D01*
X105916Y60141D01*
X105362Y60862D01*
X104641Y61416D01*
X103801Y61764D01*
X102900Y61883D01*
D02*
G37*
G36*
X92900D02*
X91999Y61764D01*
X91159Y61416D01*
X90438Y60862D01*
X89884Y60141D01*
X89536Y59301D01*
X89417Y58400D01*
X89536Y57499D01*
X89884Y56659D01*
X90438Y55937D01*
X91159Y55384D01*
X91999Y55036D01*
X92900Y54918D01*
X93801Y55036D01*
X94641Y55384D01*
X95363Y55937D01*
X95916Y56659D01*
X96264Y57499D01*
X96382Y58400D01*
X96264Y59301D01*
X95916Y60141D01*
X95363Y60862D01*
X94641Y61416D01*
X93801Y61764D01*
X92900Y61883D01*
D02*
G37*
G36*
X449311Y54563D02*
X448770Y54455D01*
X448343Y54169D01*
X432940D01*
X432550Y54092D01*
X432219Y53871D01*
X431952Y53603D01*
X431673Y53659D01*
X431132Y53551D01*
X430674Y53245D01*
X430368Y52786D01*
X430260Y52246D01*
X430368Y51705D01*
X430674Y51247D01*
X431132Y50940D01*
X431673Y50833D01*
X432214Y50940D01*
X432672Y51247D01*
X432979Y51705D01*
X432989Y51757D01*
X433362Y52130D01*
X448343D01*
X448770Y51844D01*
X449311Y51737D01*
X449852Y51844D01*
X450310Y52150D01*
X450616Y52609D01*
X450724Y53150D01*
X450616Y53690D01*
X450310Y54149D01*
X449852Y54455D01*
X449311Y54563D01*
D02*
G37*
G36*
X528138Y54924D02*
X527224Y54804D01*
X526373Y54451D01*
X525642Y53890D01*
X525081Y53159D01*
X524728Y52307D01*
X524608Y51394D01*
X524728Y50480D01*
X525081Y49629D01*
X525642Y48897D01*
X526373Y48336D01*
X527224Y47984D01*
X528138Y47864D01*
X529051Y47984D01*
X529903Y48336D01*
X530634Y48897D01*
X531195Y49629D01*
X531548Y50480D01*
X531668Y51394D01*
X531548Y52307D01*
X531195Y53159D01*
X530634Y53890D01*
X529903Y54451D01*
X529051Y54804D01*
X528138Y54924D01*
D02*
G37*
G36*
X102900Y51882D02*
X101999Y51764D01*
X101159Y51416D01*
X100437Y50862D01*
X99884Y50141D01*
X99536Y49301D01*
X99418Y48400D01*
X99536Y47499D01*
X99884Y46659D01*
X100437Y45937D01*
X101159Y45384D01*
X101999Y45036D01*
X102900Y44918D01*
X103801Y45036D01*
X104641Y45384D01*
X105362Y45937D01*
X105916Y46659D01*
X106264Y47499D01*
X106383Y48400D01*
X106264Y49301D01*
X105916Y50141D01*
X105362Y50862D01*
X104641Y51416D01*
X103801Y51764D01*
X102900Y51882D01*
D02*
G37*
G36*
X92900D02*
X91999Y51764D01*
X91159Y51416D01*
X90438Y50862D01*
X89884Y50141D01*
X89536Y49301D01*
X89417Y48400D01*
X89536Y47499D01*
X89884Y46659D01*
X90438Y45937D01*
X91159Y45384D01*
X91999Y45036D01*
X92900Y44918D01*
X93801Y45036D01*
X94641Y45384D01*
X95363Y45937D01*
X95916Y46659D01*
X96264Y47499D01*
X96382Y48400D01*
X96264Y49301D01*
X95916Y50141D01*
X95363Y50862D01*
X94641Y51416D01*
X93801Y51764D01*
X92900Y51882D01*
D02*
G37*
G36*
X515413Y54723D02*
X514500Y54603D01*
X513648Y54250D01*
X512917Y53689D01*
X512356Y52958D01*
X512004Y52107D01*
X511883Y51193D01*
X512004Y50279D01*
X512356Y49428D01*
X512917Y48697D01*
X513648Y48136D01*
X514500Y47783D01*
X515413Y47663D01*
X516327Y47783D01*
X517073Y48092D01*
X518394Y46771D01*
Y43836D01*
X518076Y43728D01*
X517894Y43701D01*
X517178Y44250D01*
X516327Y44603D01*
X515413Y44723D01*
X514500Y44603D01*
X513648Y44250D01*
X512917Y43689D01*
X512356Y42958D01*
X512004Y42107D01*
X511883Y41193D01*
X512004Y40279D01*
X512356Y39428D01*
X512917Y38697D01*
X513648Y38136D01*
X514500Y37783D01*
X515413Y37663D01*
X516327Y37783D01*
X517178Y38136D01*
X517894Y38684D01*
X518076Y38658D01*
X518394Y38550D01*
Y33836D01*
X518076Y33728D01*
X517894Y33701D01*
X517178Y34250D01*
X516327Y34603D01*
X515413Y34723D01*
X514500Y34603D01*
X513648Y34250D01*
X512917Y33689D01*
X512356Y32958D01*
X512004Y32107D01*
X511883Y31193D01*
X512004Y30279D01*
X512356Y29428D01*
X512917Y28697D01*
X513648Y28136D01*
X514500Y27783D01*
X515413Y27663D01*
X516327Y27783D01*
X517178Y28136D01*
X517894Y28684D01*
X518076Y28658D01*
X518394Y28550D01*
Y25615D01*
X517073Y24294D01*
X516327Y24603D01*
X515413Y24723D01*
X514500Y24603D01*
X513648Y24250D01*
X512917Y23689D01*
X512356Y22958D01*
X512004Y22107D01*
X511883Y21193D01*
X512004Y20279D01*
X512356Y19428D01*
X512917Y18697D01*
X513648Y18136D01*
X514500Y17783D01*
X515413Y17663D01*
X516327Y17783D01*
X517178Y18136D01*
X517910Y18697D01*
X518471Y19428D01*
X518823Y20279D01*
X518944Y21193D01*
X518823Y22107D01*
X518514Y22852D01*
X520134Y24472D01*
X520355Y24803D01*
X520433Y25193D01*
Y47193D01*
X520355Y47583D01*
X520134Y47914D01*
X518514Y49534D01*
X518823Y50279D01*
X518944Y51193D01*
X518823Y52107D01*
X518471Y52958D01*
X517910Y53689D01*
X517178Y54250D01*
X516327Y54603D01*
X515413Y54723D01*
D02*
G37*
G36*
X498138Y54924D02*
X497224Y54804D01*
X496373Y54451D01*
X495642Y53890D01*
X495081Y53159D01*
X494728Y52307D01*
X494608Y51394D01*
X494728Y50480D01*
X495081Y49629D01*
X495642Y48897D01*
X496373Y48336D01*
X497224Y47984D01*
X498138Y47864D01*
X499052Y47984D01*
X499722Y48261D01*
X501343Y46641D01*
Y43788D01*
X500843Y43618D01*
X500634Y43890D01*
X499903Y44451D01*
X499052Y44804D01*
X498138Y44924D01*
X497224Y44804D01*
X496373Y44451D01*
X495642Y43890D01*
X495081Y43159D01*
X494728Y42307D01*
X494608Y41394D01*
X494728Y40480D01*
X495081Y39629D01*
X495642Y38897D01*
X496373Y38337D01*
X497224Y37984D01*
X498138Y37863D01*
X499052Y37984D01*
X499903Y38337D01*
X500634Y38897D01*
X500843Y39169D01*
X501343Y39000D01*
Y33788D01*
X500843Y33618D01*
X500634Y33890D01*
X499903Y34451D01*
X499052Y34804D01*
X498138Y34924D01*
X497224Y34804D01*
X496373Y34451D01*
X495642Y33890D01*
X495081Y33159D01*
X494728Y32307D01*
X494608Y31394D01*
X494728Y30480D01*
X495081Y29629D01*
X495642Y28898D01*
X496373Y28337D01*
X497224Y27984D01*
X498138Y27863D01*
X499052Y27984D01*
X499903Y28337D01*
X500634Y28898D01*
X500843Y29169D01*
X501343Y29000D01*
Y26147D01*
X499722Y24526D01*
X499052Y24804D01*
X498138Y24924D01*
X497224Y24804D01*
X496373Y24451D01*
X495642Y23890D01*
X495081Y23159D01*
X494728Y22307D01*
X494608Y21394D01*
X494728Y20480D01*
X495081Y19629D01*
X495642Y18898D01*
X496373Y18337D01*
X497224Y17984D01*
X498138Y17864D01*
X499052Y17984D01*
X499903Y18337D01*
X500634Y18898D01*
X501195Y19629D01*
X501548Y20480D01*
X501668Y21394D01*
X501548Y22307D01*
X501208Y23128D01*
X503083Y25003D01*
X503304Y25334D01*
X503382Y25724D01*
Y47063D01*
X503304Y47453D01*
X503083Y47784D01*
X501208Y49659D01*
X501548Y50480D01*
X501668Y51394D01*
X501548Y52307D01*
X501195Y53159D01*
X500634Y53890D01*
X499903Y54451D01*
X499052Y54804D01*
X498138Y54924D01*
D02*
G37*
G36*
X399709Y52076D02*
X399168Y51968D01*
X398710Y51662D01*
X398403Y51204D01*
X398296Y50663D01*
X398325Y50513D01*
X398283Y50470D01*
X398062Y50140D01*
X397984Y49749D01*
Y45449D01*
X397698Y45021D01*
X397591Y44480D01*
X397698Y43940D01*
X398005Y43481D01*
X398463Y43175D01*
X399004Y43067D01*
X399545Y43175D01*
X400003Y43481D01*
X400309Y43940D01*
X400417Y44480D01*
X400309Y45021D01*
X400024Y45449D01*
Y49313D01*
X400249Y49358D01*
X400708Y49664D01*
X401014Y50122D01*
X401122Y50663D01*
X401014Y51204D01*
X400708Y51662D01*
X400249Y51968D01*
X399709Y52076D01*
D02*
G37*
G36*
X102900Y41883D02*
X101999Y41764D01*
X101159Y41416D01*
X100437Y40863D01*
X99884Y40141D01*
X99536Y39301D01*
X99418Y38400D01*
X99536Y37499D01*
X99884Y36659D01*
X100437Y35938D01*
X101159Y35384D01*
X101999Y35036D01*
X102900Y34918D01*
X103801Y35036D01*
X104641Y35384D01*
X105362Y35938D01*
X105916Y36659D01*
X106264Y37499D01*
X106383Y38400D01*
X106264Y39301D01*
X105916Y40141D01*
X105362Y40863D01*
X104641Y41416D01*
X103801Y41764D01*
X102900Y41883D01*
D02*
G37*
G36*
X92900D02*
X91999Y41764D01*
X91159Y41416D01*
X90438Y40863D01*
X89884Y40141D01*
X89536Y39301D01*
X89417Y38400D01*
X89536Y37499D01*
X89884Y36659D01*
X90438Y35938D01*
X91159Y35384D01*
X91999Y35036D01*
X92900Y34918D01*
X93801Y35036D01*
X94641Y35384D01*
X95363Y35938D01*
X95916Y36659D01*
X96264Y37499D01*
X96382Y38400D01*
X96264Y39301D01*
X95916Y40141D01*
X95363Y40863D01*
X94641Y41416D01*
X93801Y41764D01*
X92900Y41883D01*
D02*
G37*
G36*
X103650Y31784D02*
Y29150D01*
X106284D01*
X106264Y29301D01*
X105916Y30141D01*
X105362Y30863D01*
X104641Y31416D01*
X103801Y31764D01*
X103650Y31784D01*
D02*
G37*
G36*
X93650D02*
Y29150D01*
X96284D01*
X96264Y29301D01*
X95916Y30141D01*
X95363Y30863D01*
X94641Y31416D01*
X93801Y31764D01*
X93650Y31784D01*
D02*
G37*
G36*
X92150D02*
X91999Y31764D01*
X91159Y31416D01*
X90438Y30863D01*
X89884Y30141D01*
X89536Y29301D01*
X89516Y29150D01*
X92150D01*
Y31784D01*
D02*
G37*
G36*
X102150D02*
X101999Y31764D01*
X101159Y31416D01*
X100437Y30863D01*
X99884Y30141D01*
X99536Y29301D01*
X99516Y29150D01*
X102150D01*
Y31784D01*
D02*
G37*
G36*
X106284Y27650D02*
X103650D01*
Y25016D01*
X103801Y25036D01*
X104641Y25384D01*
X105362Y25938D01*
X105916Y26659D01*
X106264Y27499D01*
X106284Y27650D01*
D02*
G37*
G36*
X96284D02*
X93650D01*
Y25016D01*
X93801Y25036D01*
X94641Y25384D01*
X95363Y25938D01*
X95916Y26659D01*
X96264Y27499D01*
X96284Y27650D01*
D02*
G37*
G36*
X92150D02*
X89516D01*
X89536Y27499D01*
X89884Y26659D01*
X90438Y25938D01*
X91159Y25384D01*
X91999Y25036D01*
X92150Y25016D01*
Y27650D01*
D02*
G37*
G36*
X102150D02*
X99516D01*
X99536Y27499D01*
X99884Y26659D01*
X100437Y25938D01*
X101159Y25384D01*
X101999Y25036D01*
X102150Y25016D01*
Y27650D01*
D02*
G37*
G36*
X449311Y19228D02*
X448770Y19120D01*
X448343Y18835D01*
X430680D01*
X430253Y19120D01*
X429712Y19228D01*
X429171Y19120D01*
X428713Y18814D01*
X428406Y18356D01*
X428299Y17815D01*
X428406Y17274D01*
X428713Y16816D01*
X429171Y16510D01*
X429712Y16402D01*
X430253Y16510D01*
X430680Y16795D01*
X448343D01*
X448770Y16510D01*
X449311Y16402D01*
X449852Y16510D01*
X450310Y16816D01*
X450616Y17274D01*
X450724Y17815D01*
X450616Y18356D01*
X450310Y18814D01*
X449852Y19120D01*
X449311Y19228D01*
D02*
G37*
G36*
X528138Y24924D02*
X527224Y24804D01*
X526373Y24451D01*
X525642Y23890D01*
X525081Y23159D01*
X524728Y22307D01*
X524608Y21394D01*
X524728Y20480D01*
X525081Y19629D01*
X525642Y18898D01*
X526373Y18337D01*
X527224Y17984D01*
X528138Y17864D01*
X529051Y17984D01*
X529903Y18337D01*
X530634Y18898D01*
X531195Y19629D01*
X531548Y20480D01*
X531668Y21394D01*
X531548Y22307D01*
X531195Y23159D01*
X530634Y23890D01*
X529903Y24451D01*
X529051Y24804D01*
X528138Y24924D01*
D02*
G37*
G36*
X399004Y27783D02*
X398463Y27676D01*
X398005Y27369D01*
X397698Y26911D01*
X397591Y26370D01*
X397698Y25829D01*
X398005Y25371D01*
X398463Y25065D01*
X398968Y24964D01*
X400949Y22983D01*
Y17504D01*
X400663Y17076D01*
X400556Y16535D01*
X400663Y15995D01*
X400969Y15536D01*
X401428Y15230D01*
X401968Y15123D01*
X402509Y15230D01*
X402968Y15536D01*
X403274Y15995D01*
X403381Y16535D01*
X403274Y17076D01*
X402988Y17504D01*
Y23405D01*
X402911Y23796D01*
X402690Y24126D01*
X400410Y26406D01*
X400309Y26911D01*
X400003Y27369D01*
X399545Y27676D01*
X399004Y27783D01*
D02*
G37*
%LPD*%
D15*
X447182Y216781D02*
X449163D01*
X431280Y216025D02*
X446425D01*
X449163Y216781D02*
X449311Y216929D01*
X446425Y216025D02*
X447182Y216781D01*
X431276Y255084D02*
X431335Y255143D01*
X448242D02*
X449004Y255906D01*
X431335Y255143D02*
X448242D01*
X449004Y255906D02*
X449213D01*
X449004Y336221D02*
X449213D01*
X431280Y335415D02*
X448198D01*
X449004Y336221D01*
X429613Y340551D02*
X449311D01*
X498031Y332102D02*
X502756Y327378D01*
X498031Y302102D02*
X502756Y306827D01*
X498032Y292047D02*
X502362Y287717D01*
X498035Y262051D02*
X502362Y266378D01*
X429318Y220571D02*
X449311D01*
X431606Y134364D02*
X433463Y136221D01*
X431547Y134305D02*
X431606Y134364D01*
X433463Y136221D02*
X449311D01*
X431673Y92797D02*
X448592D01*
X449102Y93307D01*
X449311D01*
X498032Y51394D02*
X502362Y47063D01*
X498085Y21447D02*
X502362Y25724D01*
X498032Y21394D02*
X498085Y21447D01*
X431280Y375179D02*
X447979D01*
X498032Y61339D02*
X502362Y65669D01*
X401575Y259055D02*
Y265630D01*
Y219685D02*
Y226161D01*
X401181Y181496D02*
Y188858D01*
X401575Y139764D02*
Y146240D01*
X398610Y149205D02*
X401575Y146240D01*
X399004Y109539D02*
X401968Y106575D01*
Y100000D02*
Y106575D01*
Y57874D02*
Y64646D01*
Y16535D02*
Y23405D01*
X401181Y300394D02*
Y307362D01*
X398610Y309933D02*
X401181Y307362D01*
X399004Y26370D02*
X401968Y23405D01*
X429712Y17815D02*
X449311D01*
X399004Y67610D02*
X401968Y64646D01*
X429712Y59055D02*
X449336D01*
X429712Y100984D02*
X449336D01*
X429318Y140650D02*
X448942D01*
X398610Y191429D02*
X401181Y188858D01*
X429318Y182874D02*
X448943D01*
X398610Y229126D02*
X401575Y226161D01*
X398610Y268595D02*
X401575Y265630D01*
X429318Y260039D02*
X449311D01*
X429318Y301378D02*
X449311D01*
X400885Y339468D02*
Y347127D01*
X398905Y349106D02*
X400885Y347127D01*
X428432Y339370D02*
X429613Y340551D01*
X428346Y339370D02*
X428432D01*
X497953Y372126D02*
X502362Y367717D01*
X497953Y342126D02*
X502362Y346535D01*
X432940Y53150D02*
X449311D01*
X431673Y52246D02*
X432036D01*
X432940Y53150D01*
X432971Y177559D02*
X449606D01*
X431220Y175809D02*
X432971Y177559D01*
X431280Y175868D02*
X431648D01*
X515413Y21193D02*
X519413Y25193D01*
Y47193D01*
X515413Y51193D02*
X519413Y47193D01*
X515413Y61429D02*
X519413Y65429D01*
Y87429D01*
X515413Y91429D02*
X519413Y87429D01*
X515413Y101650D02*
X519413Y105650D01*
Y127650D01*
X515413Y131650D02*
X519413Y127650D01*
X515413Y141681D02*
X519413Y145681D01*
Y167681D01*
X515413Y171681D02*
X519413Y167681D01*
X515413Y181681D02*
X519413Y185681D01*
Y207681D01*
X515413Y211681D02*
X519413Y207681D01*
X515413Y222051D02*
X519413Y226051D01*
Y248051D01*
X515413Y252051D02*
X519413Y248051D01*
X515413Y262051D02*
X519413Y266051D01*
Y288051D01*
X515413Y292051D02*
X519413Y288051D01*
X515413Y342051D02*
X519413Y346051D01*
Y368051D01*
X515413Y372051D02*
X519413Y368051D01*
X448476Y296088D02*
X449238Y296850D01*
X431126Y296088D02*
X448476D01*
X447979Y375179D02*
X449238Y376437D01*
X399315Y214234D02*
Y214442D01*
X398610Y213529D02*
X399315Y214234D01*
X398610Y208260D02*
Y213529D01*
X399315Y174076D02*
Y174285D01*
X398610Y173372D02*
X399315Y174076D01*
X398610Y168102D02*
Y173372D01*
X431606Y134364D02*
X431975D01*
X399642Y132573D02*
Y132781D01*
X398937Y131868D02*
X399642Y132573D01*
X398937Y126599D02*
Y131868D01*
X399709Y91005D02*
Y91214D01*
X399004Y90301D02*
X399709Y91005D01*
X399004Y85031D02*
Y90301D01*
X399709Y50454D02*
Y50663D01*
X399004Y49749D02*
X399709Y50454D01*
X399004Y44480D02*
Y49749D01*
X399260Y253352D02*
Y253561D01*
X398555Y252647D02*
X399260Y253352D01*
X398555Y247378D02*
Y252647D01*
X399161Y294297D02*
Y294506D01*
X398457Y293592D02*
X399161Y294297D01*
X398457Y288323D02*
Y293592D01*
X399315Y373387D02*
Y373596D01*
X398610Y372682D02*
X399315Y373387D01*
X398610Y367413D02*
Y372682D01*
X399315Y333624D02*
Y333832D01*
X398610Y332919D02*
X399315Y333624D01*
X398610Y327650D02*
Y332919D01*
X515413Y302051D02*
X519413Y306051D01*
Y328051D01*
X515413Y332051D02*
X519413Y328051D01*
X498032Y221890D02*
X502756Y226614D01*
X498032Y251890D02*
X502756Y247165D01*
Y226614D02*
Y247165D01*
X497693Y221890D02*
X498032D01*
X498059Y181760D02*
X498138Y181681D01*
X498035Y262051D02*
X498138D01*
X498032Y211732D02*
X502138Y207626D01*
X498032Y181732D02*
X502138Y185839D01*
Y207626D01*
X498138Y141681D02*
X502362Y145905D01*
X498138Y141681D02*
X498138D01*
X502362Y346535D02*
Y367717D01*
X502756Y306827D02*
Y327378D01*
X502362Y266378D02*
Y287717D01*
X498032Y171575D02*
X502362Y167244D01*
Y145905D02*
Y167244D01*
X497846Y131330D02*
X502206Y126971D01*
Y105717D02*
Y126971D01*
X498138Y101650D02*
X502206Y105717D01*
X502362Y65669D02*
Y87008D01*
X498032Y91339D02*
X502362Y87008D01*
Y25724D02*
Y47063D01*
X498085Y21447D02*
X498138Y21394D01*
X180114Y186614D02*
X190551D01*
X175000Y181500D02*
X180114Y186614D01*
X180390Y106890D02*
X190453D01*
X175000Y101500D02*
X180390Y106890D01*
X175000Y111500D02*
X180429Y116929D01*
X190453D01*
X180567Y127067D02*
X190453D01*
X175000Y121500D02*
X180567Y127067D01*
X180114Y136614D02*
X190453D01*
X175000Y131500D02*
X180114Y136614D01*
X175000Y141500D02*
X179169Y145669D01*
X190551D01*
X179504Y156004D02*
X190453D01*
X175043Y151543D02*
X179504Y156004D01*
X180823Y167323D02*
X190453D01*
X175000Y161500D02*
X180823Y167323D01*
X180468Y176969D02*
X190453D01*
X175000Y171500D02*
X180468Y176969D01*
X-48976Y217323D02*
X-48959Y217305D01*
X-37576D01*
X-37558Y217287D01*
X-37570Y211012D02*
X-37558Y211000D01*
X-48965Y211012D02*
X-37570D01*
X-48976Y204724D02*
X-41050D01*
X-40667Y204342D01*
X-37751D01*
X-39438Y200028D02*
X-28078D01*
X-40794Y197747D02*
X-38266D01*
X-37623Y198390D01*
X-39538Y199928D02*
X-39438Y200028D01*
X-41437Y198390D02*
X-40794Y197747D01*
X-48976Y198390D02*
X-41437D01*
X-12146Y213839D02*
X-11079D01*
X-27595Y198390D02*
X-12146Y213839D01*
X-11079D02*
X-10819Y214100D01*
X-28078Y200028D02*
X-10819Y217287D01*
X-48976Y236221D02*
X-48941Y236185D01*
X-37064D01*
X-48976Y242484D02*
X-37064D01*
X-48941Y248783D02*
X-37064D01*
X-48976Y255083D02*
X-36942D01*
X-36860Y255000D01*
X498032Y291988D02*
Y292047D01*
X6867Y196209D02*
X6924Y196266D01*
X18593Y184373D02*
X18705Y184485D01*
X16391Y186554D02*
X16727D01*
X-14163Y156000D02*
X16391Y186554D01*
X14Y201539D02*
X214Y201740D01*
X10723Y189960D02*
X13007D01*
X214Y201740D02*
X1020D01*
X1281Y202000D01*
X-5591Y207138D02*
X-4201D01*
X-4000Y207339D01*
X13007Y189960D02*
X13164Y190117D01*
X-30963Y174260D02*
X-971Y204252D01*
X-25390Y168000D02*
X5000Y198390D01*
X-19417Y159819D02*
X10723Y189960D01*
X-6217Y208633D02*
Y209167D01*
X16957Y184373D02*
X18593D01*
X-34261Y180588D02*
X-6217Y208633D01*
X-34350Y178378D02*
X-5591Y207138D01*
X-19280Y162078D02*
X10783Y192141D01*
X-6217Y209167D02*
X-5956Y209428D01*
X-13597Y153819D02*
X16957Y184373D01*
X5027Y196209D02*
X6867D01*
X-25363Y165819D02*
X5027Y196209D01*
X10783Y192141D02*
X11141D01*
X-48976Y223622D02*
X-37402D01*
X-35433Y221654D01*
X-48976Y229886D02*
X-37064D01*
X-48976Y160594D02*
X-22672D01*
X-48976Y166894D02*
X-28712D01*
X-48976Y173193D02*
X-34549D01*
X-48976Y154295D02*
X-16476D01*
X-48976Y113350D02*
X-34156D01*
X-48976Y179492D02*
X-39124D01*
X-40536Y138547D02*
X-38591Y140492D01*
X-48976Y138547D02*
X-40536D01*
X-40233Y135398D02*
X-38052Y133217D01*
X-48976Y135398D02*
X-40233D01*
X-40494Y127178D02*
X-40233Y126917D01*
X-40494Y127178D02*
Y127628D01*
X-41965Y129098D02*
X-40494Y127628D01*
X-48976Y129098D02*
X-41965D01*
X-32506Y115000D02*
X-32138D01*
X-34156Y113350D02*
X-32506Y115000D01*
X-37623Y198390D02*
X-27595D01*
X-36942Y180559D02*
X-36913Y180588D01*
X-34261D01*
X-37975Y178507D02*
X-37846Y178378D01*
Y178378D02*
X-34350D01*
X-38057Y178425D02*
X-37975Y178507D01*
X-39124Y179492D02*
X-38057Y178425D01*
X-32364Y174260D02*
X-30963D01*
X-34549Y173193D02*
X-33435Y172079D01*
X-31023D01*
X-1562Y201539D01*
X14D01*
X-26734Y168000D02*
X-25390D01*
X-28712Y166894D02*
X-27637Y165819D01*
X-25363D01*
X-20994Y162000D02*
X-20916Y162078D01*
X-19280D01*
X-21897Y159819D02*
X-19417D01*
X-22672Y160594D02*
X-21897Y159819D01*
X-14500Y156000D02*
X-14163D01*
X-16000Y153819D02*
X-13597D01*
X-16476Y154295D02*
X-16000Y153819D01*
X-43427Y147449D02*
X-40650Y144672D01*
X-48429Y147449D02*
X-43427D01*
X-48976Y147996D02*
X-48429Y147449D01*
D59*
X-48976Y113386D02*
D03*
Y116535D02*
D03*
Y119685D02*
D03*
Y122835D02*
D03*
Y125984D02*
D03*
Y129134D02*
D03*
Y132283D02*
D03*
Y135433D02*
D03*
Y138583D02*
D03*
Y141732D02*
D03*
Y144882D02*
D03*
Y148031D02*
D03*
Y151181D02*
D03*
Y154331D02*
D03*
Y157480D02*
D03*
Y160630D02*
D03*
Y163779D02*
D03*
Y166929D02*
D03*
Y170079D02*
D03*
Y173228D02*
D03*
Y176378D02*
D03*
Y179528D02*
D03*
Y182677D02*
D03*
Y198425D02*
D03*
Y201575D02*
D03*
Y204724D02*
D03*
Y207874D02*
D03*
Y211024D02*
D03*
Y214173D02*
D03*
Y217323D02*
D03*
Y220472D02*
D03*
Y223622D02*
D03*
Y226772D02*
D03*
Y229921D02*
D03*
Y233071D02*
D03*
Y236221D02*
D03*
Y239370D02*
D03*
Y242520D02*
D03*
Y245669D02*
D03*
Y248819D02*
D03*
Y251969D02*
D03*
Y255118D02*
D03*
Y258268D02*
D03*
Y261417D02*
D03*
Y264567D02*
D03*
Y267717D02*
D03*
Y270866D02*
D03*
Y274016D02*
D03*
Y277165D02*
D03*
Y280315D02*
D03*
D61*
X-48946Y201570D02*
X-41890D01*
X-41885Y201566D01*
X-48950D02*
X-48946Y201570D01*
X-48976Y245634D02*
X-41500D01*
X-48976Y280280D02*
X-40720D01*
X-48976Y277130D02*
X-41500D01*
X-48976Y270831D02*
X-41500D01*
X-48976Y264531D02*
X-41500D01*
X-48976Y251933D02*
X-41500D01*
X-48976Y239335D02*
X-41500D01*
X-48976Y226736D02*
X-41500D01*
X-48976Y233035D02*
X-41500D01*
X-48976Y220437D02*
X-41500D01*
X-48976Y163744D02*
X-41500D01*
X-48976Y151146D02*
X-41500D01*
X-48976Y141697D02*
X-41500D01*
X-48976Y258232D02*
X-41500D01*
X-48976Y214138D02*
X-41500D01*
X-48976Y207839D02*
X-41500D01*
X-48976Y182642D02*
X-41500D01*
X-48976Y176343D02*
X-41500D01*
X-48976Y170043D02*
X-41500D01*
X-48976Y132248D02*
X-41500D01*
X-48976Y116500D02*
X-41500D01*
X-48976Y157445D02*
X-41500D01*
X-48976Y273980D02*
X-41520D01*
X-41500Y274000D01*
Y270831D02*
X-40418Y269749D01*
X-41500Y277130D02*
X-40418Y278211D01*
X-40720Y280280D02*
X-40500Y280500D01*
D62*
X221969Y349055D02*
D03*
Y359055D02*
D03*
X231968Y349055D02*
D03*
Y359055D02*
D03*
X241968Y349055D02*
D03*
Y359055D02*
D03*
X251969Y349055D02*
D03*
Y359055D02*
D03*
X261968Y349055D02*
D03*
Y359055D02*
D03*
X271969Y349055D02*
D03*
Y359055D02*
D03*
X281968Y349055D02*
D03*
Y359055D02*
D03*
X291968Y349055D02*
D03*
Y359055D02*
D03*
X301969Y349055D02*
D03*
Y359055D02*
D03*
X311968Y349055D02*
D03*
Y359055D02*
D03*
X321969Y349055D02*
D03*
Y359055D02*
D03*
X331968Y349055D02*
D03*
Y359055D02*
D03*
D63*
X498138Y81630D02*
D03*
Y91630D02*
D03*
Y61630D02*
D03*
Y71630D02*
D03*
X528138Y91630D02*
D03*
Y61630D02*
D03*
X498138Y81630D02*
D03*
Y91630D02*
D03*
Y61630D02*
D03*
Y71630D02*
D03*
X528138Y91630D02*
D03*
Y61630D02*
D03*
Y181681D02*
D03*
Y211681D02*
D03*
X498138Y191681D02*
D03*
Y181681D02*
D03*
Y211681D02*
D03*
Y201681D02*
D03*
D03*
Y211681D02*
D03*
Y181681D02*
D03*
Y191681D02*
D03*
X528138Y211681D02*
D03*
Y181681D02*
D03*
Y101650D02*
D03*
Y131650D02*
D03*
X498138Y111650D02*
D03*
Y101650D02*
D03*
Y131650D02*
D03*
Y121650D02*
D03*
D03*
Y131650D02*
D03*
Y101650D02*
D03*
Y111650D02*
D03*
X528138Y131650D02*
D03*
Y101650D02*
D03*
Y141681D02*
D03*
Y171681D02*
D03*
X498138Y151681D02*
D03*
Y141681D02*
D03*
Y171681D02*
D03*
Y161681D02*
D03*
X528138Y141681D02*
D03*
Y171681D02*
D03*
X498138Y151681D02*
D03*
Y141681D02*
D03*
Y171681D02*
D03*
Y161681D02*
D03*
X528138Y21394D02*
D03*
Y51394D02*
D03*
X498138Y31394D02*
D03*
Y21394D02*
D03*
Y51394D02*
D03*
Y41394D02*
D03*
X528138Y21394D02*
D03*
Y51394D02*
D03*
X498138Y31394D02*
D03*
Y21394D02*
D03*
Y51394D02*
D03*
Y41394D02*
D03*
X528138Y222051D02*
D03*
Y252051D02*
D03*
X498138Y232051D02*
D03*
Y222051D02*
D03*
Y252051D02*
D03*
Y242051D02*
D03*
D03*
Y252051D02*
D03*
Y222051D02*
D03*
Y232051D02*
D03*
X528138Y252051D02*
D03*
Y222051D02*
D03*
Y262051D02*
D03*
Y292051D02*
D03*
X498138Y272051D02*
D03*
Y262051D02*
D03*
Y292051D02*
D03*
Y282051D02*
D03*
D03*
Y292051D02*
D03*
Y262051D02*
D03*
Y272051D02*
D03*
X528138Y292051D02*
D03*
Y262051D02*
D03*
X498138Y322051D02*
D03*
Y332051D02*
D03*
Y302051D02*
D03*
Y312051D02*
D03*
X528138Y332051D02*
D03*
Y302051D02*
D03*
D03*
Y332051D02*
D03*
X498138Y312051D02*
D03*
Y302051D02*
D03*
Y332051D02*
D03*
Y322051D02*
D03*
Y362051D02*
D03*
Y372051D02*
D03*
Y342051D02*
D03*
Y352051D02*
D03*
X528138Y372051D02*
D03*
Y342051D02*
D03*
D03*
Y372051D02*
D03*
X498138Y352051D02*
D03*
Y342051D02*
D03*
Y372051D02*
D03*
Y362051D02*
D03*
X515413Y352051D02*
D03*
Y342051D02*
D03*
Y372051D02*
D03*
Y362051D02*
D03*
X545413Y342051D02*
D03*
Y372051D02*
D03*
D03*
Y342051D02*
D03*
X515413Y362051D02*
D03*
Y372051D02*
D03*
Y342051D02*
D03*
Y352051D02*
D03*
Y312051D02*
D03*
Y302051D02*
D03*
Y332051D02*
D03*
Y322051D02*
D03*
X545413Y302051D02*
D03*
Y332051D02*
D03*
D03*
Y302051D02*
D03*
X515413Y322051D02*
D03*
Y332051D02*
D03*
Y302051D02*
D03*
Y312051D02*
D03*
X545413Y292051D02*
D03*
Y262051D02*
D03*
X515413Y282051D02*
D03*
Y292051D02*
D03*
Y262051D02*
D03*
Y272051D02*
D03*
D03*
Y262051D02*
D03*
Y292051D02*
D03*
Y282051D02*
D03*
X545413Y262051D02*
D03*
Y292051D02*
D03*
Y252051D02*
D03*
Y222051D02*
D03*
X515413Y242051D02*
D03*
Y252051D02*
D03*
Y222051D02*
D03*
Y232051D02*
D03*
X545413Y252051D02*
D03*
Y222051D02*
D03*
X515413Y242051D02*
D03*
Y252051D02*
D03*
Y222051D02*
D03*
Y232051D02*
D03*
X545413Y211681D02*
D03*
Y181681D02*
D03*
X515413Y201681D02*
D03*
Y211681D02*
D03*
Y181681D02*
D03*
Y191681D02*
D03*
X545413Y211681D02*
D03*
Y181681D02*
D03*
X515413Y201681D02*
D03*
Y211681D02*
D03*
Y181681D02*
D03*
Y191681D02*
D03*
X545413Y171681D02*
D03*
Y141681D02*
D03*
X515413Y161681D02*
D03*
Y171681D02*
D03*
Y141681D02*
D03*
Y151681D02*
D03*
D03*
Y141681D02*
D03*
Y171681D02*
D03*
Y161681D02*
D03*
X545413Y141681D02*
D03*
Y171681D02*
D03*
Y131650D02*
D03*
Y101650D02*
D03*
X515413Y121650D02*
D03*
Y131650D02*
D03*
Y101650D02*
D03*
Y111650D02*
D03*
X545413Y131650D02*
D03*
Y101650D02*
D03*
X515413Y121650D02*
D03*
Y131650D02*
D03*
Y101650D02*
D03*
Y111650D02*
D03*
X545413Y51193D02*
D03*
Y21193D02*
D03*
X515413Y41193D02*
D03*
Y51193D02*
D03*
Y21193D02*
D03*
Y31193D02*
D03*
Y71429D02*
D03*
Y61429D02*
D03*
Y91429D02*
D03*
Y81429D02*
D03*
X545413Y61429D02*
D03*
Y91429D02*
D03*
X515413Y31193D02*
D03*
Y21193D02*
D03*
Y51193D02*
D03*
Y41193D02*
D03*
X545413Y21193D02*
D03*
Y51193D02*
D03*
X515413Y71429D02*
D03*
Y61429D02*
D03*
Y91429D02*
D03*
Y81429D02*
D03*
X545413Y61429D02*
D03*
Y91429D02*
D03*
X21036Y244278D02*
D03*
X11036D02*
D03*
X21036Y254278D02*
D03*
X11036D02*
D03*
X85063Y353000D02*
D03*
X95063D02*
D03*
X85063Y343000D02*
D03*
X95063D02*
D03*
D64*
X92900Y68400D02*
D03*
X175000Y181500D02*
D03*
D65*
X102900Y68400D02*
D03*
X92900Y58400D02*
D03*
X102900D02*
D03*
X92900Y48400D02*
D03*
X102900D02*
D03*
X92900Y38400D02*
D03*
X102900D02*
D03*
X92900Y28400D02*
D03*
X102900D02*
D03*
X185000Y181500D02*
D03*
X175000Y171500D02*
D03*
X185000D02*
D03*
X175000Y161500D02*
D03*
X185000D02*
D03*
X175000Y151500D02*
D03*
X185000D02*
D03*
X175000Y141500D02*
D03*
X185000D02*
D03*
X175000Y131500D02*
D03*
X185000D02*
D03*
X175000Y121500D02*
D03*
X185000D02*
D03*
X175000Y111500D02*
D03*
X185000D02*
D03*
X175000Y101500D02*
D03*
X185000D02*
D03*
D66*
X449311Y216929D02*
D03*
Y260039D02*
D03*
Y255906D02*
D03*
Y336221D02*
D03*
X429712Y17815D02*
D03*
Y59055D02*
D03*
Y100984D02*
D03*
X429318Y140650D02*
D03*
X429318Y182874D02*
D03*
X429318Y220571D02*
D03*
Y260039D02*
D03*
X429318Y301378D02*
D03*
X399004Y26370D02*
D03*
X449311Y17815D02*
D03*
X399004Y67610D02*
D03*
X449311Y59055D02*
D03*
X399004Y109539D02*
D03*
X449311Y100984D02*
D03*
X398610Y149205D02*
D03*
X449311Y140650D02*
D03*
X398610Y191429D02*
D03*
X449311Y182874D02*
D03*
X398610Y229126D02*
D03*
X449311Y220571D02*
D03*
X398610Y268595D02*
D03*
X398610Y309933D02*
D03*
X449311Y301378D02*
D03*
X400982Y339370D02*
D03*
X428346D02*
D03*
X449311Y340551D02*
D03*
X398905Y349106D02*
D03*
X449311Y53150D02*
D03*
Y93307D02*
D03*
Y136221D02*
D03*
Y177559D02*
D03*
Y296850D02*
D03*
Y376437D02*
D03*
X431280Y216025D02*
D03*
X399315Y214442D02*
D03*
X398610Y208260D02*
D03*
X431280Y175868D02*
D03*
X399315Y174285D02*
D03*
X398610Y168102D02*
D03*
X431606Y134364D02*
D03*
X399642Y132781D02*
D03*
X398937Y126599D02*
D03*
X431673Y92797D02*
D03*
X399709Y91214D02*
D03*
X399004Y85031D02*
D03*
X431673Y52246D02*
D03*
X399709Y50663D02*
D03*
X399004Y44480D02*
D03*
X431224Y255143D02*
D03*
X399260Y253561D02*
D03*
X398555Y247378D02*
D03*
X431126Y296088D02*
D03*
X399161Y294506D02*
D03*
X398457Y288323D02*
D03*
X431280Y375179D02*
D03*
X399315Y373596D02*
D03*
X398610Y367413D02*
D03*
X431280Y335415D02*
D03*
X399315Y333832D02*
D03*
X398610Y327650D02*
D03*
X401968Y100000D02*
D03*
X401181Y300394D02*
D03*
X401575Y259055D02*
D03*
X401181Y181496D02*
D03*
X401575Y219685D02*
D03*
Y139764D02*
D03*
X401968Y16535D02*
D03*
Y57874D02*
D03*
X78335Y292331D02*
D03*
X82665Y283669D02*
D03*
X78335D02*
D03*
X82665Y288000D02*
D03*
X78335D02*
D03*
X82665Y292331D02*
D03*
D67*
X380709Y43996D02*
D03*
Y25886D02*
D03*
Y67126D02*
D03*
Y109055D02*
D03*
X380315Y148721D02*
D03*
X380315Y190945D02*
D03*
X380315Y228642D02*
D03*
Y268110D02*
D03*
X380315Y309449D02*
D03*
X380610Y348622D02*
D03*
X380315Y207776D02*
D03*
Y167618D02*
D03*
X380642Y126114D02*
D03*
X380709Y84547D02*
D03*
X380260Y246894D02*
D03*
X380161Y287839D02*
D03*
X380315Y366929D02*
D03*
Y327165D02*
D03*
X185676Y318327D02*
D03*
X206693Y340945D02*
D03*
X183071Y330315D02*
D03*
X177559Y320472D02*
D03*
X211417Y330709D02*
D03*
X186221Y300787D02*
D03*
X349606Y272441D02*
D03*
Y370866D02*
D03*
Y351969D02*
D03*
Y171260D02*
D03*
Y152756D02*
D03*
Y313386D02*
D03*
Y232283D02*
D03*
Y211811D02*
D03*
Y194882D02*
D03*
Y129921D02*
D03*
Y112598D02*
D03*
Y88976D02*
D03*
Y70866D02*
D03*
Y250394D02*
D03*
Y292126D02*
D03*
Y331102D02*
D03*
Y48425D02*
D03*
Y28740D02*
D03*
X-22441Y251181D02*
D03*
X1969Y241732D02*
D03*
X-17717D02*
D03*
X-7874D02*
D03*
X41339D02*
D03*
X31496D02*
D03*
X100394D02*
D03*
X90551D02*
D03*
X80709D02*
D03*
X70866D02*
D03*
X51181D02*
D03*
X61024D02*
D03*
X109843D02*
D03*
X56693Y251575D02*
D03*
X46850D02*
D03*
X66535D02*
D03*
X76378D02*
D03*
X86221D02*
D03*
X96063D02*
D03*
X59842Y261417D02*
D03*
X50000D02*
D03*
X69685D02*
D03*
X79527D02*
D03*
X89370D02*
D03*
X115748Y251575D02*
D03*
X163386Y292126D02*
D03*
X172047Y271260D02*
D03*
X186221Y281890D02*
D03*
X176378D02*
D03*
X181890Y292126D02*
D03*
X172047D02*
D03*
X176378Y300787D02*
D03*
X205906D02*
D03*
X211417Y310630D02*
D03*
X172047D02*
D03*
X181890D02*
D03*
X191732D02*
D03*
X201575D02*
D03*
X207087Y320472D02*
D03*
X216929D02*
D03*
X177165Y340945D02*
D03*
X133858Y251575D02*
D03*
X118898Y261417D02*
D03*
X109055D02*
D03*
X128740D02*
D03*
X138583D02*
D03*
X148425D02*
D03*
X153543Y271260D02*
D03*
X143701D02*
D03*
X133858D02*
D03*
X124016D02*
D03*
X104331D02*
D03*
X114173D02*
D03*
X151969Y251575D02*
D03*
X157480Y261417D02*
D03*
X157874Y302362D02*
D03*
Y281890D02*
D03*
X163386Y271260D02*
D03*
X157874Y320472D02*
D03*
X163386Y311024D02*
D03*
X59449Y300394D02*
D03*
X49606D02*
D03*
X42520Y290551D02*
D03*
X32677D02*
D03*
X29921Y300000D02*
D03*
X104331Y311024D02*
D03*
X94488D02*
D03*
X84646D02*
D03*
X74803D02*
D03*
X55118D02*
D03*
X64961D02*
D03*
X74016Y350787D02*
D03*
X54331D02*
D03*
X64173D02*
D03*
X68504Y360236D02*
D03*
X59055D02*
D03*
X68504Y379528D02*
D03*
X59055D02*
D03*
X64173Y369685D02*
D03*
X54331D02*
D03*
X74016D02*
D03*
X153150Y330315D02*
D03*
X163386D02*
D03*
X118110Y340945D02*
D03*
X108268D02*
D03*
X127953D02*
D03*
X137795D02*
D03*
X147638D02*
D03*
X157874D02*
D03*
X108268Y320472D02*
D03*
X59449D02*
D03*
X49606D02*
D03*
X69291D02*
D03*
X79134D02*
D03*
X88976D02*
D03*
X98819D02*
D03*
X114173Y330315D02*
D03*
X104331D02*
D03*
X55118D02*
D03*
X45276D02*
D03*
X64961D02*
D03*
X74803D02*
D03*
X84646D02*
D03*
X94488D02*
D03*
X79134Y340945D02*
D03*
X69291D02*
D03*
X59449D02*
D03*
X49606D02*
D03*
X34646Y329921D02*
D03*
X29921Y360236D02*
D03*
Y340945D02*
D03*
Y320472D02*
D03*
X39764D02*
D03*
Y340945D02*
D03*
Y360236D02*
D03*
X14567Y369685D02*
D03*
Y350787D02*
D03*
X34646Y369685D02*
D03*
Y350787D02*
D03*
X29921Y379528D02*
D03*
X39370D02*
D03*
X5118Y290551D02*
D03*
Y329921D02*
D03*
X9843Y320079D02*
D03*
Y301181D02*
D03*
X5118Y311024D02*
D03*
X14567Y329921D02*
D03*
Y311024D02*
D03*
X5118Y350787D02*
D03*
X9843Y340945D02*
D03*
Y359842D02*
D03*
X5118Y369685D02*
D03*
X9843Y379528D02*
D03*
D68*
X407480Y26280D02*
D03*
X426772Y21555D02*
D03*
X485433Y21161D02*
D03*
X407480Y67520D02*
D03*
X426772Y62795D02*
D03*
X485433Y62402D02*
D03*
X407480Y109449D02*
D03*
X426772Y104724D02*
D03*
X485433Y104331D02*
D03*
X407087Y149114D02*
D03*
X426378Y144390D02*
D03*
X485039Y143996D02*
D03*
X407087Y191339D02*
D03*
X426378Y186614D02*
D03*
X485039Y186221D02*
D03*
X407087Y229035D02*
D03*
X426378Y224311D02*
D03*
X485039Y223917D02*
D03*
X407087Y268504D02*
D03*
X426378Y263779D02*
D03*
X485039Y263386D02*
D03*
X407087Y309842D02*
D03*
X426378Y305118D02*
D03*
X485039Y304724D02*
D03*
X485335Y343898D02*
D03*
X426673Y344291D02*
D03*
X407382Y349016D02*
D03*
X407087Y208169D02*
D03*
X426378Y203445D02*
D03*
X485039Y203051D02*
D03*
X407087Y168012D02*
D03*
X426378Y163287D02*
D03*
X485039Y162894D02*
D03*
X407414Y126508D02*
D03*
X426705Y121784D02*
D03*
X485366Y121390D02*
D03*
X407480Y84941D02*
D03*
X426772Y80217D02*
D03*
X485433Y79823D02*
D03*
X407480Y44390D02*
D03*
X426772Y39665D02*
D03*
X485433Y39272D02*
D03*
X407031Y247287D02*
D03*
X426323Y242563D02*
D03*
X484984Y242169D02*
D03*
X406933Y288232D02*
D03*
X426224Y283508D02*
D03*
X484886Y283114D02*
D03*
X407087Y367323D02*
D03*
X426378Y362598D02*
D03*
X485039Y362205D02*
D03*
Y322441D02*
D03*
X426378Y322835D02*
D03*
X407087Y327559D02*
D03*
X190453Y167323D02*
D03*
X-37751Y204342D02*
D03*
X-41885Y201566D02*
D03*
X-39538Y199928D02*
D03*
X-10819Y214100D02*
D03*
Y217287D02*
D03*
X-37064Y248783D02*
D03*
X-41500Y245634D02*
D03*
X190551Y186614D02*
D03*
X-41500Y274000D02*
D03*
X18705Y184485D02*
D03*
X6924Y196266D02*
D03*
X16727Y186554D02*
D03*
X-971Y204252D02*
D03*
X5000Y198390D02*
D03*
X1281Y202000D02*
D03*
X13164Y190117D02*
D03*
X11141Y192141D02*
D03*
X-4000Y207339D02*
D03*
X-5956Y209428D02*
D03*
X190551Y145669D02*
D03*
X190453Y116929D02*
D03*
Y106890D02*
D03*
Y127067D02*
D03*
Y136614D02*
D03*
Y156004D02*
D03*
Y176969D02*
D03*
X-41500Y116500D02*
D03*
Y132248D02*
D03*
Y141697D02*
D03*
Y151146D02*
D03*
Y157445D02*
D03*
Y163744D02*
D03*
Y170043D02*
D03*
Y176343D02*
D03*
Y182642D02*
D03*
Y207839D02*
D03*
Y214138D02*
D03*
Y220437D02*
D03*
Y226736D02*
D03*
Y233035D02*
D03*
Y239335D02*
D03*
Y251933D02*
D03*
Y258232D02*
D03*
Y264531D02*
D03*
X-40418Y269749D02*
D03*
Y278211D02*
D03*
X-40500Y280500D02*
D03*
X-40650Y144672D02*
D03*
X-38591Y140492D02*
D03*
X-38052Y133217D02*
D03*
X-40233Y126917D02*
D03*
X-13000Y108891D02*
D03*
X-32138Y115000D02*
D03*
X-37558Y211000D02*
D03*
Y217287D02*
D03*
X-35433Y221654D02*
D03*
X-37064Y229886D02*
D03*
Y236185D02*
D03*
Y242484D02*
D03*
X-36860Y255000D02*
D03*
X-36942Y180559D02*
D03*
X-32364Y174260D02*
D03*
X-26734Y168000D02*
D03*
X-20994Y162000D02*
D03*
X-14500Y156000D02*
D03*
X-38500Y274000D02*
D03*
M02*
