M48
;Layer_Color=9474304
;FILE_FORMAT=2:5
INCH,TZ
;TYPE=PLATED
T01F00S00C0.00787
T02F00S00C0.01181
T03F00S00C0.01575
T04F00S00C0.03500
T05F00S00C0.03543
T06F00S00C0.03800
T07F00S00C0.04000
%
T01
X401968Y16535
X399004Y26370
Y44480
X399709Y50663
X431673Y52246
X429712Y17815
X449311
Y53150
Y59055
Y93307
Y100984
Y136221
Y140650
Y177559
Y182874
X429318
X431280Y175868
X399315Y174285
X398610Y168102
X401181Y181496
X398610Y191429
X398610Y208260
Y149205
X401575Y139764
X399642Y132781
X399606Y126378
X399004Y109539
X401968Y100000
X399709Y91214
X399004Y85031
Y67610
X401968Y57874
X429712Y59055
X431673Y92797
X429712Y100984
X431606Y134364
X429318Y140650
X1969Y107874
X78335Y283669
X82665
Y288000
X78335
Y292331
X82665
X399161Y294506
X398457Y288323
X401181Y300394
X399213Y309842
X398610Y327650
X399315Y333832
X400982Y339370
X398905Y349106
X428346Y339370
X431280Y335415
X429318Y301378
X431126Y296088
X429318Y260039
X431224Y255143
X399260Y253561
X398555Y247378
X401575Y259055
X398610Y268595
Y229126
X401575Y219685
X399315Y214442
X431280Y216025
X429318Y220571
X449311
Y216929
Y255906
Y260039
Y296850
Y301378
Y336221
Y340551
Y376437
X431280Y375179
X399315Y373596
X398610Y367413
T02
X407480Y26280
Y44390
X426772Y39665
Y21555
X485433Y21161
Y39272
Y62402
Y79823
Y104331
X485366Y121390
X485039Y143996
Y162894
X485039Y186221
X485039Y203051
X426378Y203445
X426378Y186614
X426378Y163287
Y144390
X426705Y121784
X426772Y104724
X407480Y109449
X407414Y126508
X407087Y149114
Y168012
X407087Y191339
X407087Y208169
X407480Y84941
Y67520
X426772Y62795
Y80217
X190453Y106890
Y116929
Y127067
Y136614
X190551Y145669
X190453Y156004
Y167323
Y176969
X190551Y186614
X33465Y184252
Y192126
X16727Y186554
X18705Y184485
X13164Y190117
X11141Y192141
X6924Y196266
X5000Y198390
X1281Y202000
X-971Y204252
X-4000Y207339
X-14500Y156000
X-20994Y162000
X-21654Y139764
X-15748
X1969Y126378
X45276Y128740
Y136221
Y143701
X33465Y151969
X45276Y121260
X56637Y117490
X74016Y139764
X-27559Y142520
X-31751Y142807
X-38591Y140492
X-41500Y141697
Y132248
X-38052Y133217
X-40233Y126917
X-35433Y122047
X-32138Y115000
X-41500Y116500
Y151146
Y157445
Y163744
Y170043
Y176343
Y182642
X-36942Y180559
X-32364Y174260
X-26734Y168000
X-27559Y148031
X-39538Y199928
X-41885Y201566
X-41500Y207839
X-37751Y204342
X-37558Y211000
Y217287
X-35433Y221654
X-41500Y220437
Y214138
Y226736
Y233035
Y239335
Y245634
Y251933
Y258232
Y264531
X-40418Y269749
X-41500Y274000
X-38500Y274000
X-40418Y278211
X-40500Y280500
X-36614Y261417
X-36860Y255000
X-37064Y248783
Y242484
Y236185
Y229886
X-10819Y217287
Y214100
X-5956Y209428
X33465Y220472
X407087Y229035
X407031Y247287
X407087Y268504
X406933Y288232
X407087Y309842
X407087Y327559
X407382Y349016
X426673Y344291
X426378Y362598
Y322835
X426378Y305118
X426224Y283508
X426378Y263779
X426323Y242563
X426378Y224311
X485039Y223917
X484984Y242169
X485039Y263386
X484886Y283114
X485039Y304724
X485039Y322441
X485335Y343898
X485039Y362205
X407087Y367323
T03
X349606Y28740
Y48425
X380709Y43996
Y25886
Y67126
Y84547
Y109055
X380642Y126114
X380315Y148721
Y167618
X380315Y190945
X380315Y207776
X349606Y194882
Y171260
Y152756
Y129921
Y112598
Y88976
Y70866
X109843Y241732
X100394
X90551
X80709
X70866
X61024
X51181
X41339
X31496
X46850Y251575
X56693
X66535
X76378
X86221
X96063
X89370Y261417
X79527
X69685
X59842
X50000
X42520Y290551
X32677
X29921Y300000
X49606Y300394
X59449
X55118Y311024
X64961
X74803
X84646
X94488
X104331
X108268Y320472
X98819
X88976
X79134
X69291
X59449
X49606
X39764
X29921
X34646Y329921
X45276Y330315
X55118
X64961
X74803
X84646
X94488
X104331
X114173
X118110Y340945
X108268
X127953
X79134
X69291
X59449
X49606
X39764
X29921
X34646Y350787
X29921Y360236
X39764
X59055
X68504
X64173Y350787
X74016
X54331
X14567
X5118
X9843Y359842
Y340945
X5118Y329921
X14567
X9843Y320079
X5118Y311024
X14567
X9843Y301181
X5118Y290551
X1969Y241732
X-7874
X-22441Y251181
X115748Y251575
X118898Y261417
X109055
X104331Y271260
X114173
X124016
X128740Y261417
X138583
X148425
X157480
X153543Y271260
X143701
X133858
X133858Y251575
X151969
X163386Y271260
X172047
X176378Y281890
X186221
X181890Y292126
X172047
X163386
X157874Y302362
X163386Y311024
X172047Y310630
X181890
X191732
X201575
X211417
X207087Y320472
X216929
X211417Y330709
X206693Y340945
X177165
X183071Y330315
X185676Y318327
X177559Y320472
X157874
X153150Y330315
X163386
X157874Y340945
X147638
X137795
X176378Y300787
X186221
X205906
X157874Y281890
X349606Y272441
Y292126
Y313386
Y331102
Y351969
X380610Y348622
X380315Y327165
X380315Y309449
X380161Y287839
X380315Y268110
X380260Y246894
X380315Y228642
X349606Y232283
Y250394
Y211811
Y370866
X380315Y366929
X74016Y369685
X64173
X54331
X59055Y379528
X68504
X39370
X29921
X34646Y369685
X14567
X5118
X9843Y379528
T04
X528819Y22047
X545354
Y52047
X528819
Y62047
X545354
Y92047
Y102047
X528819
Y92047
Y132047
Y142047
X545354
Y132047
Y172047
Y182047
X528819
Y172047
Y212047
Y222047
X545354
Y212047
Y252047
Y262047
X528819
Y252047
Y292047
Y302047
X545354
Y292047
Y332047
Y342047
X528819
Y332047
Y372047
X545354
T05
X92900Y28400
Y38400
Y48400
X102900
Y38400
Y28400
X175000Y101500
Y111500
Y121500
Y131500
Y141500
Y151500
Y161500
Y171500
X185000
Y181500
X175000
X185000Y161500
Y151500
Y141500
Y131500
Y121500
Y111500
Y101500
X102900Y68400
X92900
Y58400
X102900
T06
X498819Y22047
Y32047
Y42047
Y52047
X515354
Y42047
Y32047
Y22047
Y62047
Y72047
Y82047
Y92047
Y102047
Y112047
Y122047
Y132047
Y142047
Y152047
Y162047
Y172047
Y182047
Y192047
Y202047
X498819
Y192047
Y182047
Y172047
Y162047
Y152047
Y142047
Y132047
Y122047
Y112047
Y102047
Y92047
Y82047
Y72047
Y62047
Y212047
Y222047
Y232047
Y242047
Y252047
Y262047
Y272047
Y282047
Y292047
Y302047
Y312047
Y322047
Y332047
Y342047
Y352047
Y362047
X515354
Y352047
Y342047
Y332047
Y322047
Y312047
Y302047
Y292047
Y282047
Y272047
Y262047
Y252047
Y242047
Y232047
Y222047
Y212047
Y372047
X498819
T07
X11036Y244278
X21036
Y254278
X11036
X85063Y343000
Y353000
X95063
Y343000
X221969Y349055
Y359055
X231968
Y349055
X241968
Y359055
X251969
Y349055
X261968
Y359055
X271969
Y349055
X281968
Y359055
X291968
Y349055
X301969
Y359055
X311968
Y349055
X321969
Y359055
X331968
Y349055
M30
