M48
;Layer_Color=9474304
;FILE_FORMAT=2:5
INCH,TZ
;TYPE=PLATED
T1F00S00C0.00787
T2F00S00C0.01181
T3F00S00C0.01575
T4F00S00C0.03500
T5F00S00C0.03543
T6F00S00C0.03800
T7F00S00C0.04000
%
T01
X78335Y283669
X82665
Y288000
X78335
Y292331
X82665
T02
X396063Y21654
Y40551
X411024Y45276
X410843Y26756
X428740Y20472
X438976Y21260
Y40157
X428346Y39370
Y63779
X438976Y64551
Y84646
X428346Y83858
X411417Y89370
X396063Y85039
Y64945
X411417Y69685
X431890Y115354
X432283Y132283
X433071Y155118
X433465Y172047
Y195276
X185335Y188976
X190453Y176969
Y167323
Y156004
Y146260
Y136614
Y127067
Y116929
Y106890
X-13000Y108891
X-14500Y156000
X-20994Y162000
X6924Y196266
X5000Y198390
X1281Y202000
X-971Y204252
X-4000Y207339
X11141Y192141
X13164Y190117
X16727Y186554
X18705Y184485
X-36942Y180559
X-41500Y182642
Y176343
Y170043
Y163744
Y157445
Y151146
X-40650Y144672
X-41500Y141697
X-38591Y140492
X-38052Y133217
X-41500Y132248
X-40233Y126917
X-41500Y116500
X-32138Y115000
X-26734Y168000
X-32364Y174260
X-39069Y200028
X-41500Y201539
Y207839
X-37751Y204879
X-37558Y211000
Y217287
X-35433Y221654
X-41500Y220437
Y214138
Y226736
Y233035
Y239335
Y245634
Y251933
Y258232
Y264531
X-40418Y269749
X-41500Y274000
X-38500Y274000
X-40418Y278211
X-40500Y280500
X-36860Y255000
X-37064Y248783
Y242484
Y236185
Y229886
X-10819Y217287
Y214100
X-5956Y209428
X433071Y212205
X433465Y235433
X433071Y252362
X433465Y275590
Y292520
Y315354
Y332283
Y355512
X433858Y372441
T03
X354331Y25197
X364173
X369095Y35039
X378937
X388189Y43307
X388583Y24803
X359252Y35039
X349410
X354331Y44882
X364173
X369095Y54724
X378937
X359252
X349410
Y74410
X359252
Y94095
X349410
X388583Y88189
Y67716
X405905Y102362
Y117717
Y138583
Y160236
Y178740
Y195669
X-39370Y261417
X-24606Y251575
X-19685Y241732
X-9843
X0
X29528
X39370
X49213
X59055
X68898
X78740
X88583
X98425
X108268
X113189Y251575
X103347
X93504
X83662
X73819
X63976
X54134
X44291
X49213Y261417
X59055
X68898
X78740
X88583
X83662Y271260
X73819
X63976
X59055Y300787
X49213
X54134Y310630
X63976
X73819
X83662
X93504
X103347
X108268Y320473
X98425
X88583
X78740
X68898
X59055
X49213
X39370
X29528
X34449Y330315
X44291
X54134
X63976
X73819
X83662
X93504
X103347
X113189
X118110Y340158
X127953
X108268
X78740
X68898
X59055
X49213
X39370
X29528
X34449Y350000
X39370Y359842
X29528
X9843
X14764Y350000
X4921
X9843Y340158
X14764Y330315
X4921
X9843Y320473
X14764Y310630
X4921
X9843Y300787
X4921Y290945
X34449
X44291
X29528Y300787
X54134Y350000
X63976
X73819
X68898Y359842
X59055
X98425Y281102
X103347Y271260
X113189
X123032
X127953Y261417
X118110
X108268
X137795
X147638
X157480
X162402Y271260
X172244
X177165Y281102
X187008
X191929Y290945
X182087
X172244
X162402
Y310630
X172244
X182087
X191929
X201772
X211614
X216535Y320473
X226378
Y340158
X206693
X201772Y330315
X191929
X182087
X187008Y320473
X196851
X206693
Y300787
X196851
X187008
X177165
Y320473
Y340158
X157480
X147638
X137795
X152559Y330315
X162402
X157480Y320473
X152559Y271260
X142717
X132874
Y251575
X152559
X405905Y259842
Y275590
Y299606
Y316929
X413386Y320473
X405905Y338976
Y359055
X413386Y359842
X405905Y238474
Y220866
X73819Y369685
X63976
X54134
X59055Y379528
X68898
X39370
X29528
X34449Y369685
X14764
X4921
X9843Y379528
T04
X528031Y21394
X545413Y21193
Y51193
X528031Y51394
Y61630
X545413Y61429
Y91429
X545413Y101650
X528137
X528031Y91630
X528137Y131650
Y141681
X545413
X545413Y131650
X545413Y171681
X545413Y181681
X528137
Y171681
Y211681
X528031Y222051
X545413
Y211681
Y252051
Y262051
X528137
X528031Y252051
X528137Y292051
X528039Y302051
X545413
X545413Y292051
X545413Y332051
X545413Y342050
X528137Y342051
X528039Y332051
X528137Y372051
X545413Y372050
T05
X92900Y28400
Y38400
Y48400
X102900
Y38400
Y28400
X175000Y101500
Y111500
Y121500
Y131500
Y141500
Y151500
Y161500
Y171500
X185000
Y181500
X175000
X185000Y161500
Y151500
Y141500
Y131500
Y121500
Y111500
Y101500
X102900Y68400
X92900
Y58400
X102900
T06
X498032Y21394
Y31394
Y41394
Y51394
X515413Y51193
Y41193
Y31193
Y21193
Y61429
Y71429
Y81429
Y91429
X515413Y101650
Y111650
Y121650
Y131650
X515413Y141681
Y151681
Y161681
Y171681
X515413Y181681
Y191681
Y201681
X498137
Y191681
Y181681
Y171681
Y161681
Y151681
Y141681
Y131650
Y121650
Y111650
Y101650
X498032Y91630
Y81630
Y71630
Y61630
X498137Y211681
X498032Y222051
Y232051
Y242051
Y252051
X498137Y262051
Y272051
Y282051
Y292051
X498039Y302051
Y312051
Y322051
Y332051
X498137Y342051
Y352051
Y362051
X515413Y362050
Y352050
Y342050
X515413Y332051
Y322051
Y312051
Y302051
X515413Y292051
Y282051
Y272051
Y262051
Y252051
Y242051
Y232051
Y222051
Y211681
Y372050
X498137Y372051
T07
X11036Y244278
X21036
Y254278
X11036
X85063Y343000
Y353000
X95063
Y343000
X260405Y344330
Y354330
X270406
Y344330
X280405
Y354330
X290406
Y344330
X300406
Y354330
X310405
Y344330
X320406
Y354330
X330405
Y344330
X340406
Y354330
X350406
Y344330
X360405
Y354330
X370406
Y344330
M30
